<?xml version="1.0" encoding="utf-8"?>
<!-- Generator: Adobe Illustrator 16.0.0, SVG Export Plug-In . SVG Version: 6.00 Build 0)  -->
<!DOCTYPE svg PUBLIC "-//W3C//DTD SVG 1.1//EN" "http://www.w3.org/Graphics/SVG/1.1/DTD/svg11.dtd">
<svg version="1.1" id="Layer_1" xmlns="http://www.w3.org/2000/svg" xmlns:xlink="http://www.w3.org/1999/xlink" x="0px" y="0px"
	 width="14px" height="15px" viewBox="0 0 14 15" enable-background="new 0 0 14 15" xml:space="preserve">
<g id="KWN2y2.tif">
	<g>
		<g>
			<path fill="none" d="M7.178,16.233c-2.866,0-5.73,0-8.596,0.002c-0.118,0-0.14-0.021-0.14-0.139
				c0.003-5.73,0.003-11.461,0-17.191c0-0.118,0.023-0.14,0.14-0.14c5.73,0.003,11.461,0.003,17.191,0c0.116,0,0.14,0.023,0.14,0.14
				c-0.003,5.73-0.003,11.46,0,17.191c0,0.117-0.023,0.139-0.14,0.139C12.908,16.233,10.043,16.233,7.178,16.233z M10.082,1.621
				C9.911,1.59,9.776,1.581,9.64,1.581c-1.72,0-3.441-0.001-5.16-0.001c-0.449,0-0.9-0.018-1.343,0.081
				C1.595,2.001,0.516,3.337,0.51,4.936c-0.008,1.97-0.004,3.94,0,5.911c0.001,0.477,0.082,0.943,0.288,1.375
				c0.627,1.312,1.669,2,3.125,2.01c1.896,0.016,3.792,0.006,5.688,0.006c0.546,0.002,1.083-0.066,1.574-0.316
				c1.271-0.645,1.952-1.678,1.97-3.107c0.019-1.459,0.005-2.917,0.007-4.375c0-0.295,0-0.588,0-0.889
				c-0.086,0.019-0.11,0.075-0.146,0.115c-0.446,0.51-0.891,1.022-1.339,1.53c-0.086,0.097-0.12,0.194-0.119,0.322
				c0.005,1.07,0.005,2.141,0.005,3.211c0,0.252-0.014,0.502-0.107,0.738c-0.248,0.625-0.854,1.189-1.826,1.178
				c-1.702-0.018-3.405-0.004-5.107-0.006c-0.347-0.002-0.697,0.033-1.04-0.039c-0.809-0.168-1.38-0.908-1.377-1.764
				c0.001-0.52,0-1.037,0-1.555c0-1.446-0.005-2.893,0.001-4.338c0.003-0.581,0.228-1.065,0.696-1.419
				C3.188,3.234,3.63,3.174,4.097,3.176c1.515,0.008,3.029,0.001,4.544,0.004c0.089,0,0.146-0.029,0.203-0.096
				c0.306-0.368,0.617-0.731,0.927-1.096C9.868,1.873,9.967,1.758,10.082,1.621z M4.443,6.587C4.121,6.59,3.867,6.722,3.728,7.02
				C3.597,7.304,3.7,7.545,3.898,7.767c0.784,0.879,1.564,1.764,2.347,2.645c0.16,0.182,0.159,0.18,0.319-0.006
				c1.735-2.006,3.472-4.014,5.207-6.021c0.621-0.719,1.247-1.436,1.865-2.158c0.32-0.375,0.218-0.837-0.219-1.05
				c-0.349-0.17-0.712-0.092-1.018,0.229c-1.428,1.495-2.855,2.99-4.282,4.485C7.564,6.471,7.009,7.052,6.454,7.631
				c-0.045,0.047-0.079,0.131-0.178,0.06C5.85,7.388,5.414,7.097,4.992,6.787C4.825,6.664,4.652,6.586,4.443,6.587z"/>
			<path fill="#010101" d="M10.082,1.621C9.967,1.758,9.868,1.873,9.771,1.99c-0.31,0.364-0.621,0.729-0.927,1.096
				C8.787,3.153,8.73,3.182,8.641,3.182C7.126,3.179,5.611,3.184,4.097,3.177C3.63,3.175,3.188,3.234,2.805,3.524
				C2.336,3.876,2.111,4.361,2.108,4.94C2.101,6.386,2.107,7.832,2.107,9.278c0,0.518,0.001,1.037,0,1.555
				c-0.003,0.855,0.568,1.596,1.377,1.764c0.342,0.072,0.693,0.037,1.04,0.039c1.703,0.002,3.405-0.012,5.107,0.008
				c0.972,0.01,1.578-0.555,1.826-1.18c0.094-0.236,0.107-0.486,0.107-0.738c0-1.068,0-2.141-0.005-3.211
				c-0.001-0.128,0.033-0.225,0.119-0.322c0.448-0.507,0.893-1.02,1.339-1.53c0.035-0.041,0.06-0.097,0.146-0.116
				c0,0.301,0,0.596,0,0.89c-0.002,1.458,0.012,2.916-0.007,4.375c-0.017,1.43-0.698,2.463-1.97,3.107
				c-0.491,0.25-1.028,0.318-1.574,0.316c-1.896,0-3.793,0.012-5.688-0.006c-1.456-0.012-2.498-0.697-3.125-2.01
				c-0.207-0.432-0.287-0.896-0.288-1.375c-0.004-1.969-0.009-3.94,0-5.911C0.516,3.336,1.595,2,3.136,1.659
				C3.579,1.561,4.03,1.579,4.479,1.579c1.719,0,3.44,0.001,5.16,0.001C9.776,1.581,9.911,1.59,10.082,1.621z"/>
			<path fill="#010101" d="M4.443,6.587c0.208-0.001,0.381,0.077,0.55,0.201c0.422,0.31,0.856,0.6,1.284,0.904
				c0.099,0.071,0.132-0.012,0.178-0.06c0.555-0.58,1.111-1.161,1.664-1.741c1.428-1.495,2.855-2.992,4.283-4.486
				c0.306-0.32,0.669-0.399,1.018-0.228c0.437,0.213,0.539,0.676,0.218,1.05c-0.616,0.722-1.242,1.439-1.863,2.158
				c-1.737,2.006-3.473,4.014-5.208,6.02c-0.16,0.186-0.16,0.188-0.32,0.006C5.463,9.53,4.683,8.647,3.898,7.767
				C3.7,7.545,3.597,7.304,3.729,7.021C3.867,6.722,4.121,6.59,4.443,6.587z"/>
		</g>
	</g>
</g>
</svg>
