<?xml version="1.0" encoding="utf-8"?>
<!-- Generator: Adobe Illustrator 16.0.0, SVG Export Plug-In . SVG Version: 6.00 Build 0)  -->
<!DOCTYPE svg PUBLIC "-//W3C//DTD SVG 1.1//EN" "http://www.w3.org/Graphics/SVG/1.1/DTD/svg11.dtd">
<svg version="1.1" id="Layer_1" xmlns="http://www.w3.org/2000/svg" xmlns:xlink="http://www.w3.org/1999/xlink" x="0px" y="0px"
	 width="14px" height="15px" viewBox="0 0 14 15" enable-background="new 0 0 14 15" xml:space="preserve">
<g id="TdL4du.tif">
	<g>
		<g>
			<path fill="none" d="M7.174,15.345c-2.353,0-4.706,0-7.06,0.004C0.018,15.349,0,15.329,0,15.233
				c0.003-4.706,0.003-9.413,0-14.119C0,1.018,0.019,1,0.115,1c4.707,0.003,9.413,0.003,14.119,0c0.096,0,0.115,0.02,0.115,0.114
				c-0.004,4.707-0.004,9.413,0,14.119c0,0.096-0.02,0.115-0.115,0.115C11.881,15.345,9.527,15.345,7.174,15.345z M5.525,14.483
				c0.929,0.018,1.874-0.05,2.813-0.2c0.587-0.092,1.164-0.226,1.725-0.428c0.221-0.079,0.221-0.079,0.217-0.308
				c-0.003-0.226-0.022-0.449-0.061-0.671c-0.041-0.24-0.104-0.472-0.256-0.674c-0.181-0.242-0.456-0.278-0.715-0.346
				c-0.679-0.176-1.359-0.346-2.038-0.519c-0.061-0.016-0.153-0.015-0.148-0.101c0.019-0.308-0.087-0.619,0.15-0.909
				c0.224-0.273,0.352-0.614,0.479-0.946c0.021-0.054,0.028-0.125,0.12-0.101c0.133,0.032,0.226-0.039,0.297-0.14
				c0.245-0.351,0.35-0.741,0.312-1.167C8.409,7.818,8.338,7.687,8.168,7.643C8.084,7.62,8.06,7.572,8.065,7.489
				c0.023-0.359,0.028-0.72,0.07-1.076c0.065-0.57-0.167-1.006-0.612-1.312C7.294,4.943,7.046,4.802,6.805,4.658
				c-0.919-0.543-2.264-0.45-3.115,0.2C3.235,5.205,2.988,5.661,2.998,6.245c0.007,0.411,0.041,0.82,0.079,1.229
				c0.007,0.083,0.004,0.146-0.095,0.169C2.803,7.687,2.737,7.826,2.724,7.989c-0.034,0.41,0.067,0.789,0.301,1.127
				c0.058,0.085,0.13,0.172,0.244,0.168c0.087-0.003,0.112,0.04,0.137,0.106c0.1,0.268,0.178,0.551,0.347,0.779
				c0.221,0.296,0.288,0.609,0.261,0.967c-0.01,0.129-0.04,0.187-0.171,0.22c-0.739,0.182-1.475,0.379-2.216,0.559
				c-0.341,0.082-0.544,0.285-0.647,0.61c-0.112,0.352-0.129,0.714-0.143,1.079c-0.006,0.124,0.044,0.185,0.156,0.229
				c0.468,0.185,0.952,0.309,1.444,0.399C3.45,14.422,4.473,14.498,5.525,14.483z M9.314,10.037
				c0.035-0.023,0.056-0.034,0.074-0.048c0.425-0.366,0.845-0.738,1.274-1.099c0.485-0.41,0.938-0.859,1.47-1.213
				c0.227-0.148,0.422-0.339,0.598-0.548c0.586-0.697,0.87-1.492,0.739-2.403c-0.144-1.009-0.699-1.764-1.542-2.302
				c-1.067-0.682-2.235-0.843-3.459-0.55c-1.06,0.254-1.906,0.829-2.466,1.782c-0.18,0.307-0.122,0.251,0.132,0.303
				C6.163,3.963,6.19,3.968,6.217,3.977C6.32,4.011,6.378,3.973,6.429,3.878c0.139-0.263,0.325-0.491,0.546-0.689
				c0.834-0.746,1.82-1.034,2.926-0.95c0.782,0.061,1.489,0.322,2.092,0.825c0.654,0.545,1.039,1.236,1.023,2.106
				c-0.013,0.791-0.37,1.424-0.945,1.948c-0.196,0.177-0.431,0.298-0.631,0.467c-0.265,0.223-0.524,0.451-0.788,0.674
				c-0.039,0.033-0.074,0.077-0.146,0.089c0.025-0.064,0.048-0.109,0.062-0.158c0.022-0.068,0.1-0.146,0.053-0.206
				c-0.049-0.064-0.149-0.027-0.227-0.019c-0.41,0.049-0.819,0.066-1.23,0.041C8.852,7.989,8.858,7.986,8.838,8.291
				c-0.009,0.135,0.05,0.168,0.165,0.184c0.256,0.034,0.514,0.03,0.77,0.027C9.886,8.5,9.911,8.53,9.866,8.641
				C9.699,9.032,9.537,9.425,9.375,9.818C9.349,9.882,9.306,9.941,9.314,10.037z M9.788,4.222L9.788,4.222
				C9.716,4.221,9.646,4.229,9.578,4.22C9.427,4.2,9.365,4.26,9.336,4.411C9.236,4.93,9.117,5.444,9.012,5.96
				C8.96,6.216,8.908,6.474,9.004,6.734c0.097,0.254,0.334,0.395,0.627,0.365c0.285-0.027,0.502-0.223,0.544-0.483
				c0.011-0.067,0.011-0.103-0.078-0.098C9.806,6.533,9.768,6.489,9.802,6.203C9.808,6.162,9.815,6.12,9.823,6.078
				c0.118-0.57,0.237-1.143,0.358-1.713c0.024-0.108-0.006-0.148-0.114-0.143C9.975,4.226,9.88,4.222,9.788,4.222z M10.396,3.537
				c0.004-0.25-0.198-0.458-0.448-0.463C9.702,3.07,9.493,3.275,9.486,3.528c-0.007,0.239,0.2,0.454,0.439,0.458
				C10.195,3.99,10.392,3.802,10.396,3.537z"/>
			<path fill="#010101" d="M5.525,14.483c-1.052,0.015-2.076-0.062-3.09-0.25c-0.492-0.092-0.977-0.216-1.444-0.4
				c-0.111-0.043-0.161-0.104-0.156-0.229c0.014-0.364,0.031-0.728,0.143-1.079c0.104-0.325,0.307-0.528,0.648-0.61
				c0.74-0.179,1.476-0.377,2.216-0.559c0.13-0.032,0.161-0.091,0.171-0.22c0.027-0.356-0.04-0.671-0.261-0.967
				C3.583,9.942,3.504,9.659,3.405,9.391C3.381,9.325,3.356,9.282,3.269,9.284C3.154,9.289,3.083,9.202,3.024,9.117
				c-0.234-0.34-0.335-0.719-0.3-1.128c0.013-0.163,0.079-0.302,0.258-0.344c0.099-0.024,0.102-0.087,0.095-0.17
				c-0.038-0.409-0.073-0.818-0.08-1.229C2.989,5.661,3.235,5.205,3.69,4.858c0.851-0.65,2.195-0.743,3.114-0.2
				c0.243,0.144,0.49,0.286,0.719,0.443c0.445,0.306,0.68,0.742,0.612,1.312C8.095,6.77,8.09,7.13,8.065,7.489
				C8.06,7.572,8.084,7.62,8.169,7.643C8.338,7.687,8.41,7.818,8.424,7.976C8.46,8.401,8.355,8.792,8.11,9.143
				c-0.071,0.101-0.163,0.172-0.297,0.14C7.721,9.258,7.714,9.33,7.694,9.383c-0.129,0.331-0.257,0.672-0.48,0.946
				c-0.237,0.29-0.131,0.604-0.15,0.909c-0.005,0.086,0.087,0.085,0.148,0.101c0.679,0.173,1.359,0.343,2.039,0.519
				c0.26,0.067,0.536,0.104,0.714,0.346c0.151,0.202,0.215,0.434,0.256,0.674c0.039,0.222,0.058,0.445,0.062,0.671
				c0.002,0.229,0.002,0.228-0.218,0.308c-0.56,0.202-1.139,0.336-1.726,0.428C7.399,14.434,6.455,14.501,5.525,14.483z"/>
			<path fill="#010101" d="M9.314,10.037c-0.01-0.096,0.033-0.155,0.061-0.218c0.159-0.395,0.322-0.787,0.491-1.179
				C9.911,8.53,9.884,8.5,9.772,8.502C9.514,8.506,9.258,8.51,9.001,8.476c-0.115-0.017-0.173-0.05-0.164-0.185
				C8.856,7.986,8.85,7.99,9.163,8.01c0.411,0.024,0.821,0.006,1.23-0.042c0.078-0.009,0.179-0.047,0.227,0.017
				c0.047,0.061-0.029,0.138-0.053,0.206C10.553,8.24,10.53,8.285,10.505,8.35c0.071-0.01,0.106-0.055,0.146-0.088
				c0.264-0.225,0.524-0.451,0.789-0.674c0.2-0.169,0.435-0.29,0.629-0.467c0.575-0.524,0.932-1.159,0.945-1.948
				c0.017-0.87-0.368-1.561-1.023-2.106C11.388,2.562,10.683,2.3,9.9,2.241C8.794,2.155,7.809,2.443,6.974,3.189
				C6.752,3.387,6.567,3.617,6.428,3.878c-0.05,0.096-0.109,0.134-0.212,0.098C6.19,3.968,6.162,3.964,6.134,3.958
				C5.88,3.907,5.821,3.963,6.002,3.656c0.56-0.953,1.405-1.527,2.464-1.782c1.225-0.293,2.391-0.131,3.459,0.551
				c0.845,0.538,1.4,1.292,1.544,2.301c0.129,0.911-0.155,1.708-0.74,2.403c-0.176,0.209-0.371,0.4-0.597,0.55
				C11.6,8.032,11.146,8.48,10.661,8.891c-0.429,0.36-0.85,0.732-1.275,1.099C9.371,10.003,9.35,10.014,9.314,10.037z"/>
			<path fill="#010101" d="M9.788,4.222c0.092,0,0.187,0.003,0.279-0.001c0.108-0.004,0.139,0.036,0.114,0.144
				c-0.121,0.57-0.24,1.142-0.358,1.713C9.815,6.119,9.808,6.16,9.802,6.203c-0.034,0.287,0.004,0.33,0.295,0.314
				c0.089-0.005,0.089,0.031,0.078,0.097c-0.042,0.262-0.259,0.458-0.544,0.485c-0.293,0.028-0.53-0.112-0.627-0.366
				C8.908,6.474,8.96,6.215,9.012,5.959c0.105-0.517,0.225-1.031,0.324-1.548C9.365,4.26,9.427,4.2,9.578,4.22
				C9.646,4.229,9.716,4.221,9.788,4.222L9.788,4.222z"/>
			<path fill="#010101" d="M10.396,3.537c-0.005,0.265-0.201,0.454-0.471,0.449c-0.24-0.004-0.446-0.219-0.439-0.458
				C9.494,3.274,9.702,3.07,9.948,3.074C10.198,3.079,10.4,3.287,10.396,3.537z"/>
		</g>
	</g>
</g>
</svg>
