<?xml version="1.0" encoding="utf-8"?>
<!-- Generator: Adobe Illustrator 16.0.0, SVG Export Plug-In . SVG Version: 6.00 Build 0)  -->
<!DOCTYPE svg PUBLIC "-//W3C//DTD SVG 1.1//EN" "http://www.w3.org/Graphics/SVG/1.1/DTD/svg11.dtd">
<svg version="1.1" id="Layer_1" xmlns="http://www.w3.org/2000/svg" xmlns:xlink="http://www.w3.org/1999/xlink" x="0px" y="0px"
	 width="14px" height="15px" viewBox="0 0 14 15" enable-background="new 0 0 14 15" xml:space="preserve">
<g id="SVsyWU.tif">
	<g>
		<g>
			<path fill="#010101" d="M6.36,1.07c0.382,0,0.764,0,1.146,0c0.257,0.04,0.516,0.06,0.77,0.12c2.603,0.616,4.3,2.205,5.099,4.753
				c0.126,0.398,0.178,0.813,0.23,1.226c0,0.383,0,0.765,0,1.146c-0.041,0.258-0.061,0.518-0.121,0.771
				c-0.618,2.607-2.209,4.306-4.766,5.102c-0.394,0.123-0.804,0.174-1.213,0.227c-0.382,0-0.765,0-1.146,0
				c-0.257-0.041-0.517-0.061-0.771-0.12C3.055,13.7,1.372,12.166,0.538,9.703c-0.152-0.45-0.22-0.919-0.277-1.389
				c0-0.381,0-0.763,0-1.146c0.031-0.209,0.05-0.422,0.094-0.629c0.576-2.68,2.178-4.425,4.792-5.242
				C5.541,1.173,5.951,1.121,6.36,1.07z M1.414,7.737c-0.024,3.029,2.453,5.564,5.544,5.575c3.004,0.011,5.583-2.392,5.585-5.564
				c0.001-3.112-2.489-5.559-5.542-5.569C3.808,2.167,1.397,4.765,1.414,7.737z"/>
			<path fill="none" d="M7.506,14.414c0.409-0.053,0.819-0.104,1.212-0.227c2.558-0.796,4.148-2.494,4.767-5.102
				c0.061-0.254,0.079-0.514,0.12-0.771c0,1.999-0.001,3.998,0.003,5.996c0,0.089-0.018,0.106-0.107,0.106
				C11.503,14.414,9.505,14.414,7.506,14.414z"/>
			<path fill="none" d="M0.261,8.314c0.057,0.47,0.125,0.938,0.278,1.389c0.833,2.463,2.517,3.997,5.05,4.591
				c0.253,0.06,0.514,0.079,0.771,0.12c-1.998,0-3.997,0-5.995,0.003c-0.09,0-0.107-0.018-0.107-0.106
				C0.262,12.312,0.261,10.313,0.261,8.314z"/>
			<path fill="none" d="M13.605,7.168c-0.052-0.413-0.104-0.827-0.23-1.226c-0.799-2.549-2.495-4.137-5.098-4.753
				c-0.254-0.06-0.514-0.08-0.771-0.12c1.998,0,3.996,0.001,5.994-0.002c0.09,0,0.107,0.018,0.107,0.107
				C13.604,3.172,13.605,5.171,13.605,7.168z"/>
			<path fill="none" d="M6.36,1.07C5.951,1.121,5.541,1.173,5.147,1.296C2.533,2.114,0.931,3.858,0.355,6.538
				c-0.044,0.208-0.063,0.42-0.094,0.63c0-1.997,0-3.992-0.003-5.988c0-0.095,0.02-0.113,0.113-0.113
				C2.367,1.071,4.363,1.07,6.36,1.07z"/>
			<path fill="none" d="M1.414,7.737c-0.017-2.973,2.394-5.57,5.588-5.559c3.053,0.011,5.542,2.458,5.542,5.569
				c-0.003,3.173-2.581,5.576-5.586,5.564C3.866,13.302,1.39,10.767,1.414,7.737z M6.928,11.268c0.712,0,1.425,0.001,2.138,0
				c0.441-0.001,0.691-0.252,0.691-0.695c0-1.425,0-2.851,0-4.274c0-0.443-0.247-0.692-0.694-0.696c-0.208-0.002-0.416,0-0.624,0
				c-0.22,0-0.22-0.001-0.22-0.212c0-0.169,0.003-0.339,0-0.508C8.213,4.493,7.938,4.219,7.551,4.217
				c-0.408-0.002-0.816-0.002-1.224,0c-0.403,0.001-0.674,0.273-0.68,0.68C5.646,5.083,5.643,5.27,5.649,5.457
				C5.651,5.563,5.61,5.604,5.504,5.603c-0.234-0.004-0.468-0.004-0.703,0C4.353,5.61,4.11,5.856,4.11,6.302
				c0,1.419,0.008,2.839-0.005,4.26c-0.004,0.422,0.281,0.716,0.713,0.709C5.521,11.26,6.224,11.268,6.928,11.268z"/>
			<path fill="#010101" d="M6.928,11.268c-0.704,0-1.407-0.009-2.11,0.003c-0.432,0.007-0.717-0.287-0.714-0.709
				c0.013-1.42,0.004-2.84,0.005-4.26c0-0.444,0.243-0.692,0.691-0.699c0.234-0.003,0.468-0.003,0.703,0
				c0.106,0.002,0.147-0.04,0.145-0.146c-0.005-0.186-0.003-0.373-0.001-0.56c0.005-0.406,0.277-0.678,0.679-0.68
				c0.408-0.001,0.816-0.001,1.225,0c0.387,0.002,0.662,0.276,0.667,0.665C8.221,5.051,8.219,5.22,8.219,5.39
				c0,0.212,0,0.212,0.219,0.212c0.209,0,0.417-0.001,0.625,0.001C9.51,5.607,9.756,5.855,9.756,6.299c0,1.424,0,2.848,0,4.273
				c0,0.444-0.249,0.695-0.693,0.695C8.353,11.269,7.64,11.268,6.928,11.268z M6.924,10.314c0.478,0,0.955,0.001,1.433-0.001
				c0.228-0.001,0.364-0.12,0.401-0.344C8.77,9.91,8.771,9.849,8.771,9.788c0-0.878,0-1.755,0-2.633c0-0.047,0-0.096-0.007-0.143
				C8.731,6.768,8.604,6.648,8.356,6.647c-0.951-0.003-1.902-0.003-2.853,0C5.229,6.648,5.091,6.795,5.091,7.073
				c-0.001,0.938-0.001,1.876,0,2.814c0,0.279,0.147,0.426,0.426,0.427C5.985,10.314,6.455,10.314,6.924,10.314z M6.92,5.602
				c0.125,0,0.251,0.001,0.378-0.001c0.41-0.007,0.358,0.071,0.352-0.387C7.646,4.986,7.499,4.859,7.271,4.857
				C7.11,4.856,6.949,4.866,6.789,4.855c-0.535-0.036-0.591,0.174-0.58,0.593c0.003,0.124,0.048,0.16,0.163,0.155
				C6.555,5.598,6.738,5.601,6.92,5.602z"/>
			<path fill="none" d="M6.924,10.314c-0.469,0-0.939,0-1.408-0.001c-0.279,0-0.425-0.147-0.426-0.426
				c-0.001-0.938-0.001-1.877,0-2.815c0-0.277,0.138-0.425,0.413-0.426c0.951-0.003,1.902-0.002,2.853,0
				c0.248,0.001,0.375,0.121,0.408,0.366C8.771,7.06,8.771,7.108,8.771,7.156c0,0.877,0,1.755,0,2.632
				C8.771,9.849,8.769,9.91,8.759,9.97c-0.037,0.226-0.174,0.343-0.401,0.344C7.879,10.315,7.402,10.314,6.924,10.314z M7.514,8.175
				c0-0.288-0.159-0.508-0.39-0.589C6.898,7.506,6.638,7.578,6.488,7.76C6.326,7.955,6.29,8.222,6.443,8.424
				c0.151,0.199,0.19,0.409,0.176,0.645C6.614,9.164,6.612,9.26,6.635,9.354c0.037,0.154,0.173,0.259,0.322,0.243
				c0.156-0.016,0.267-0.136,0.271-0.297c0.004-0.108,0.005-0.217,0-0.326C7.221,8.789,7.272,8.626,7.39,8.48
				C7.472,8.381,7.513,8.262,7.514,8.175z"/>
			<path fill="none" d="M6.92,5.602c-0.183,0-0.365-0.004-0.547,0.001c-0.115,0.004-0.16-0.032-0.163-0.155
				c-0.012-0.419,0.044-0.629,0.58-0.593c0.16,0.011,0.321,0.001,0.483,0.002C7.499,4.858,7.646,4.986,7.65,5.214
				c0.007,0.458,0.058,0.38-0.352,0.387C7.172,5.603,7.046,5.602,6.92,5.602z"/>
			<path fill="#010101" d="M7.514,8.175C7.512,8.262,7.471,8.38,7.39,8.479c-0.118,0.146-0.169,0.31-0.162,0.495
				c0.005,0.109,0.002,0.217,0,0.326c-0.004,0.161-0.116,0.28-0.271,0.297C6.808,9.613,6.671,9.509,6.634,9.354
				C6.612,9.26,6.613,9.164,6.619,9.068c0.014-0.235-0.025-0.446-0.176-0.646C6.29,8.22,6.325,7.955,6.487,7.759
				c0.151-0.183,0.411-0.253,0.637-0.175C7.355,7.667,7.514,7.887,7.514,8.175z"/>
		</g>
	</g>
</g>
</svg>
