<?xml version="1.0" encoding="utf-8"?>
<!-- Generator: Adobe Illustrator 16.0.0, SVG Export Plug-In . SVG Version: 6.00 Build 0)  -->
<!DOCTYPE svg PUBLIC "-//W3C//DTD SVG 1.1//EN" "http://www.w3.org/Graphics/SVG/1.1/DTD/svg11.dtd">
<svg version="1.1" id="Layer_1" xmlns="http://www.w3.org/2000/svg" xmlns:xlink="http://www.w3.org/1999/xlink" x="0px" y="0px"
	 width="14px" height="15px" viewBox="0 0 14 15" enable-background="new 0 0 14 15" xml:space="preserve">
<g id="_x34_r6EPL.tif">
	<g>
		<g>
			<path fill="#010101" d="M13.958,3.191c0,0.752,0,1.505,0,2.258c-0.013,0.042-0.022,0.086-0.033,0.129
				c-0.25,1.085-1.085,1.802-2.192,1.874C11.645,7.458,11.611,7.49,11.6,7.579C11.534,8.11,11.384,8.62,11.126,9.09
				c-0.692,1.256-1.733,2.045-3.148,2.323c-0.134,0.026-0.183,0.076-0.18,0.215c0.01,0.462,0.009,0.922,0.002,1.384
				c-0.002,0.131,0.044,0.166,0.17,0.163c0.447-0.005,0.894-0.004,1.343-0.001c0.454,0.005,0.825,0.378,0.827,0.831
				c0.002,0.201-0.005,0.399,0.002,0.599c0.005,0.115-0.028,0.208-0.118,0.28c-1.913,0-3.827,0-5.74,0
				c-0.091-0.072-0.122-0.165-0.118-0.28c0.006-0.194,0.002-0.391,0.001-0.584c-0.001-0.465,0.379-0.848,0.842-0.848
				c0.438,0.001,0.875,0.001,1.314,0.001c0.177,0,0.182-0.004,0.182-0.177c0-0.457-0.006-0.913,0.002-1.368
				c0.003-0.14-0.047-0.19-0.178-0.215c-1.91-0.357-3.366-1.89-3.619-3.809C2.696,7.493,2.656,7.455,2.546,7.45
				C1.837,7.41,1.269,7.096,0.827,6.545C0.568,6.225,0.431,5.849,0.35,5.45c0-0.753,0-1.506,0-2.26
				c0.17-0.468,0.503-0.674,1.003-0.65c0.379,0.019,0.76,0.004,1.14,0.004c0.186,0,0.184,0,0.187-0.185
				c0.002-0.141-0.019-0.284,0.015-0.424c0.083-0.341,0.312-0.543,0.632-0.657c2.551,0,5.103,0,7.653,0
				c0.021,0.009,0.041,0.019,0.062,0.026c0.398,0.161,0.584,0.429,0.588,0.855c0.001,0.075,0.005,0.151-0.002,0.227
				c-0.012,0.123,0.038,0.162,0.16,0.159c0.371-0.006,0.745-0.005,1.115-0.002c0.133,0.001,0.267-0.014,0.396,0.016
				C13.642,2.64,13.844,2.87,13.958,3.191z M6.046,7.379C6.042,7.6,6.181,7.687,6.36,7.594c0.231-0.12,0.459-0.248,0.686-0.378
				c0.078-0.044,0.142-0.042,0.221,0.003c0.226,0.13,0.456,0.255,0.685,0.378c0.117,0.062,0.226,0.042,0.28-0.049
				c0.046-0.074,0.032-0.154,0.02-0.233C8.21,7.076,8.174,6.835,8.129,6.596c-0.022-0.115,0.003-0.2,0.089-0.283
				c0.178-0.171,0.346-0.354,0.521-0.529C8.813,5.71,8.846,5.63,8.812,5.532c-0.033-0.093-0.11-0.117-0.2-0.13
				c-0.227-0.031-0.452-0.076-0.68-0.101C7.791,5.286,7.71,5.223,7.658,5.093C7.573,4.889,7.474,4.69,7.38,4.491
				C7.333,4.391,7.292,4.275,7.155,4.275C7.014,4.274,6.97,4.393,6.921,4.498c-0.1,0.216-0.204,0.432-0.3,0.65
				C6.581,5.241,6.516,5.281,6.421,5.296C6.185,5.329,5.949,5.369,5.713,5.4c-0.104,0.013-0.191,0.039-0.23,0.146
				c-0.038,0.108,0.03,0.178,0.094,0.246C5.736,5.958,5.89,6.131,6.06,6.285c0.123,0.111,0.134,0.231,0.105,0.379
				C6.118,6.91,6.083,7.16,6.046,7.379z M11.629,5.001L11.629,5.001c0,0.341,0.002,0.682,0,1.023
				c-0.002,0.091,0.022,0.124,0.121,0.115c0.427-0.042,0.833-0.411,0.894-0.844c0.062-0.448,0.015-0.901,0.026-1.352
				c0.002-0.093-0.06-0.106-0.135-0.105c-0.251,0-0.503,0.004-0.757-0.002c-0.117-0.003-0.153,0.043-0.151,0.157
				C11.631,4.33,11.629,4.666,11.629,5.001z M2.679,5.008c0-0.344,0-0.69,0-1.035c0-0.076-0.013-0.133-0.106-0.133
				c-0.279,0.001-0.558,0-0.836-0.001c-0.065,0-0.102,0.031-0.101,0.097C1.648,4.395,1.6,4.855,1.669,5.313
				C1.731,5.73,2.139,6.098,2.55,6.136c0.1,0.01,0.133-0.018,0.132-0.119C2.676,5.68,2.679,5.344,2.679,5.008z"/>
			<path fill="none" d="M10.023,14.885c0.09-0.073,0.122-0.166,0.118-0.281c-0.007-0.198,0-0.397-0.002-0.598
				c-0.005-0.453-0.373-0.827-0.827-0.832c-0.449-0.003-0.896-0.003-1.343,0.003c-0.125,0.001-0.172-0.034-0.17-0.165
				c0.007-0.46,0.008-0.922-0.002-1.383c-0.003-0.14,0.046-0.189,0.18-0.215c1.415-0.278,2.456-1.068,3.148-2.323
				c0.258-0.471,0.408-0.98,0.474-1.512c0.012-0.089,0.045-0.12,0.133-0.125c1.108-0.073,1.942-0.79,2.192-1.875
				c0.011-0.043,0.021-0.086,0.033-0.128c0,3.11-0.001,6.218,0.001,9.328c0.002,0.092-0.017,0.109-0.107,0.108
				C12.575,14.884,11.3,14.885,10.023,14.885z"/>
			<path fill="none" d="M0.35,5.45c0.082,0.4,0.219,0.775,0.478,1.097c0.441,0.551,1.01,0.864,1.719,0.903
				c0.11,0.006,0.151,0.043,0.165,0.156c0.252,1.917,1.708,3.451,3.618,3.808c0.131,0.024,0.182,0.075,0.178,0.214
				c-0.009,0.458-0.002,0.913-0.002,1.369c0,0.172-0.004,0.176-0.182,0.176c-0.438,0-0.877,0-1.315,0
				c-0.463-0.001-0.843,0.382-0.841,0.848c0,0.193,0.005,0.389-0.001,0.585c-0.003,0.113,0.027,0.207,0.118,0.279
				c-1.274,0-2.549-0.001-3.823,0.003c-0.103,0.001-0.112-0.031-0.112-0.119C0.351,11.663,0.35,8.556,0.35,5.45z"/>
			<path fill="none" d="M3.327,1.277c-0.32,0.113-0.549,0.316-0.632,0.657C2.663,2.074,2.682,2.218,2.68,2.358
				C2.677,2.543,2.679,2.543,2.493,2.543c-0.38,0-0.761,0.015-1.14-0.004C0.853,2.515,0.52,2.722,0.35,3.191
				c0-0.605,0.002-1.211-0.002-1.816c0-0.087,0.024-0.1,0.103-0.1C1.41,1.278,2.368,1.277,3.327,1.277z"/>
			<path fill="none" d="M13.958,3.191C13.844,2.87,13.642,2.64,13.3,2.559c-0.131-0.031-0.264-0.015-0.397-0.016
				c-0.37-0.003-0.743-0.004-1.114,0.003c-0.122,0.001-0.172-0.038-0.161-0.161c0.007-0.075,0.003-0.152,0.002-0.225
				c-0.004-0.427-0.189-0.695-0.587-0.856c-0.021-0.008-0.04-0.017-0.062-0.027c0.961,0,1.925,0.001,2.885-0.001
				c0.08,0,0.097,0.016,0.097,0.095C13.955,1.977,13.958,2.583,13.958,3.191z"/>
			<path fill="none" d="M6.046,7.379C6.083,7.16,6.118,6.91,6.167,6.664c0.029-0.148,0.018-0.268-0.105-0.379
				C5.89,6.131,5.737,5.958,5.578,5.792C5.514,5.724,5.446,5.655,5.484,5.546C5.522,5.438,5.61,5.414,5.714,5.4
				C5.95,5.369,6.186,5.33,6.421,5.296c0.095-0.013,0.16-0.055,0.201-0.148c0.097-0.218,0.2-0.434,0.3-0.65
				c0.049-0.105,0.092-0.223,0.234-0.222c0.136,0,0.177,0.114,0.224,0.216C7.475,4.69,7.574,4.889,7.659,5.093
				c0.053,0.13,0.132,0.193,0.274,0.208c0.229,0.024,0.453,0.069,0.681,0.101c0.088,0.014,0.166,0.038,0.2,0.13
				c0.032,0.098,0,0.178-0.073,0.251C8.565,5.958,8.397,6.141,8.219,6.312C8.133,6.396,8.107,6.481,8.13,6.596
				c0.047,0.24,0.082,0.48,0.122,0.719c0.012,0.079,0.026,0.159-0.02,0.233c-0.056,0.09-0.163,0.111-0.28,0.049
				c-0.23-0.123-0.46-0.248-0.685-0.378C7.188,7.173,7.125,7.171,7.046,7.215C6.82,7.346,6.592,7.474,6.36,7.594
				C6.181,7.687,6.042,7.6,6.046,7.379z M6.6,6.402C6.574,6.558,6.545,6.736,6.517,6.915c-0.005,0.038-0.022,0.084,0.017,0.11
				c0.032,0.02,0.067-0.01,0.098-0.027c0.136-0.073,0.273-0.146,0.408-0.221C7.12,6.731,7.196,6.734,7.276,6.778
				c0.13,0.076,0.263,0.146,0.395,0.219c0.033,0.018,0.072,0.054,0.108,0.024c0.033-0.028,0.014-0.074,0.007-0.113
				C7.763,6.756,7.746,6.602,7.711,6.45C7.687,6.341,7.723,6.261,7.796,6.188c0.114-0.116,0.228-0.233,0.345-0.35
				c0.077-0.076,0.043-0.109-0.044-0.122C7.948,5.692,7.799,5.67,7.651,5.651C7.536,5.637,7.456,5.584,7.409,5.474
				C7.354,5.343,7.292,5.217,7.229,5.089C7.211,5.052,7.205,4.993,7.152,4.994c-0.051,0-0.058,0.06-0.077,0.098
				C7.014,5.219,6.951,5.346,6.896,5.476C6.85,5.586,6.767,5.637,6.653,5.651C6.5,5.671,6.348,5.696,6.195,5.722
				c-0.081,0.012-0.1,0.047-0.036,0.109c0.116,0.116,0.229,0.233,0.343,0.35C6.556,6.237,6.601,6.297,6.6,6.402z"/>
			<path fill="none" d="M11.629,5.001c0-0.335,0.002-0.672-0.002-1.009c-0.002-0.114,0.034-0.16,0.153-0.158
				c0.252,0.008,0.504,0.004,0.756,0.003c0.076,0,0.137,0.013,0.134,0.106c-0.011,0.45,0.036,0.902-0.026,1.352
				c-0.061,0.431-0.467,0.802-0.893,0.843c-0.1,0.01-0.124-0.022-0.122-0.115C11.63,5.684,11.629,5.343,11.629,5.001L11.629,5.001z"
				/>
			<path fill="none" d="M2.679,5.008c0,0.336-0.003,0.672,0.002,1.009c0,0.1-0.031,0.128-0.132,0.119
				C2.139,6.098,1.731,5.73,1.668,5.313C1.6,4.855,1.648,4.395,1.637,3.936C1.635,3.87,1.673,3.839,1.737,3.839
				C2.016,3.84,2.294,3.841,2.573,3.84c0.093,0,0.106,0.057,0.106,0.133C2.679,4.317,2.679,4.664,2.679,5.008z"/>
			<path fill="#010101" d="M6.6,6.402c0.001-0.106-0.044-0.165-0.097-0.221C6.389,6.064,6.275,5.947,6.16,5.831
				C6.096,5.767,6.115,5.734,6.196,5.722c0.152-0.025,0.305-0.05,0.458-0.07c0.114-0.014,0.197-0.065,0.244-0.176
				c0.055-0.13,0.117-0.257,0.179-0.384c0.019-0.038,0.026-0.098,0.077-0.098c0.053-0.001,0.06,0.058,0.077,0.095
				c0.062,0.128,0.125,0.254,0.179,0.385c0.047,0.11,0.127,0.163,0.243,0.176C7.8,5.67,7.949,5.692,8.097,5.715
				C8.185,5.729,8.219,5.76,8.141,5.838c-0.117,0.115-0.23,0.233-0.345,0.35C7.723,6.261,7.688,6.341,7.712,6.45
				c0.033,0.152,0.052,0.306,0.075,0.457c0.006,0.039,0.025,0.087-0.008,0.114C7.743,7.05,7.704,7.014,7.672,6.996
				C7.539,6.924,7.408,6.854,7.277,6.778C7.196,6.732,7.121,6.73,7.039,6.777C6.904,6.852,6.767,6.924,6.632,6.998
				C6.601,7.014,6.566,7.045,6.534,7.024c-0.04-0.025-0.021-0.072-0.017-0.109C6.545,6.736,6.574,6.558,6.6,6.402z"/>
		</g>
	</g>
</g>
</svg>
