<?xml version="1.0" encoding="utf-8"?>
<!-- Generator: Adobe Illustrator 16.0.0, SVG Export Plug-In . SVG Version: 6.00 Build 0)  -->
<!DOCTYPE svg PUBLIC "-//W3C//DTD SVG 1.1//EN" "http://www.w3.org/Graphics/SVG/1.1/DTD/svg11.dtd">
<svg version="1.1" id="Layer_1" xmlns="http://www.w3.org/2000/svg" xmlns:xlink="http://www.w3.org/1999/xlink" x="0px" y="0px"
	 width="14px" height="15px" viewBox="0 0 14 15" enable-background="new 0 0 14 15" xml:space="preserve">
<g id="eZXZri.tif">
	<g>
		<g>
			<path d="M0.032,8.219c0-0.312,0-0.625,0-0.938C0.039,7.246,0.048,7.21,0.054,7.175c0.167-0.988,0.649-1.776,1.484-2.341
				c0.453-0.307,0.96-0.465,1.494-0.553c2.667,0,5.333,0,8,0c0.03,0.007,0.061,0.016,0.091,0.021
				c0.885,0.141,1.626,0.539,2.183,1.247c0.689,0.879,0.866,1.884,0.672,2.963c-0.288,1.596-1.706,2.779-3.324,2.78
				c-2.42,0.002-4.84,0.01-7.261-0.004c-1.079-0.006-1.958-0.462-2.635-1.301C0.34,9.471,0.126,8.868,0.032,8.219z M3.043,8.917
				C3.043,8.917,3.043,8.917,3.043,8.917c0,0.172,0.003,0.344,0,0.516c-0.002,0.146,0.073,0.209,0.21,0.211
				c0.172,0.001,0.344,0.003,0.515,0C3.96,9.64,4.018,9.58,4.019,9.387c0.002-0.286,0-0.572,0.001-0.858c0-0.259,0-0.259,0.25-0.259
				c0.281-0.001,0.562,0.001,0.843-0.001c0.193-0.002,0.248-0.059,0.25-0.254c0.001-0.156,0.001-0.312,0-0.469
				c-0.002-0.19-0.061-0.25-0.254-0.252C4.802,7.291,4.495,7.288,4.188,7.295c-0.13,0.003-0.172-0.046-0.17-0.173
				C4.024,6.815,4.021,6.509,4.02,6.201c0-0.229-0.053-0.281-0.287-0.283c-0.141-0.001-0.281-0.001-0.421,0
				C3.098,5.92,3.045,5.973,3.044,6.188C3.042,6.505,3.04,6.822,3.045,7.14C3.046,7.255,3.003,7.296,2.89,7.294
				c-0.286-0.005-0.573-0.003-0.859,0C1.856,7.295,1.799,7.353,1.795,7.529c-0.004,0.167-0.003,0.333,0,0.5
				c0.002,0.185,0.058,0.238,0.247,0.239c0.276,0.002,0.552,0.007,0.827-0.002c0.14-0.004,0.184,0.049,0.177,0.183
				C3.037,8.604,3.043,8.761,3.043,8.917z M9.036,7.102C8.701,7.099,8.45,7.333,8.447,7.653C8.444,7.976,8.69,8.23,9.01,8.238
				c0.324,0.007,0.602-0.254,0.604-0.567C9.616,7.354,9.363,7.104,9.036,7.102z M10.351,6.933c0.337,0.001,0.579-0.231,0.581-0.559
				c0.003-0.327-0.254-0.582-0.583-0.58c-0.311,0.001-0.586,0.272-0.585,0.574C9.765,6.678,10.029,6.931,10.351,6.933z
				 M11.685,7.102c-0.332-0.002-0.58,0.236-0.581,0.558c-0.002,0.319,0.248,0.574,0.567,0.579c0.321,0.004,0.597-0.26,0.598-0.573
				C12.27,7.354,12.01,7.103,11.685,7.102z M10.352,9.525c0.336,0.001,0.578-0.231,0.58-0.557c0.002-0.322-0.264-0.586-0.583-0.58
				c-0.312,0.005-0.582,0.271-0.585,0.575C9.762,9.269,10.029,9.524,10.352,9.525z"/>
			<path fill-rule="evenodd" clip-rule="evenodd" fill="none" d="M0.032,8.219C0.126,8.868,0.34,9.471,0.756,9.987
				c0.677,0.839,1.557,1.295,2.635,1.301c2.42,0.014,4.841,0.006,7.261,0.004c1.618-0.001,3.036-1.185,3.324-2.78
				c0.194-1.079,0.018-2.084-0.672-2.963c-0.557-0.708-1.298-1.106-2.183-1.247c-0.03-0.005-0.061-0.014-0.091-0.021
				c0.974,0,1.948,0.002,2.922-0.003c0.093,0,0.112,0.02,0.112,0.112c-0.004,2.271-0.004,4.541,0,6.812
				c0,0.093-0.02,0.111-0.112,0.111c-4.604-0.003-9.208-0.003-13.812,0c-0.093,0-0.112-0.019-0.112-0.111
				C0.033,10.208,0.032,9.213,0.032,8.219z"/>
			<path fill-rule="evenodd" clip-rule="evenodd" fill="none" d="M3.032,4.281C2.498,4.369,1.991,4.527,1.538,4.834
				C0.703,5.398,0.221,6.187,0.054,7.175C0.048,7.21,0.039,7.246,0.032,7.281c0-0.967,0.001-1.933-0.002-2.898
				c0-0.087,0.017-0.104,0.104-0.104C1.099,4.282,2.065,4.281,3.032,4.281z"/>
			<path fill-rule="evenodd" clip-rule="evenodd" fill="none" d="M3.043,8.917c0-0.156-0.006-0.312,0.002-0.468
				c0.007-0.134-0.037-0.187-0.177-0.183C2.593,8.275,2.317,8.271,2.041,8.269C1.853,8.268,1.797,8.214,1.794,8.029
				c-0.002-0.167-0.003-0.333,0-0.5c0.004-0.177,0.062-0.234,0.236-0.235c0.286-0.003,0.573-0.005,0.859,0
				C3.003,7.296,3.046,7.255,3.045,7.14C3.04,6.822,3.042,6.505,3.044,6.188c0.001-0.215,0.054-0.268,0.267-0.27
				c0.141-0.001,0.281-0.001,0.421,0C3.967,5.92,4.019,5.972,4.02,6.201c0.001,0.308,0.005,0.614-0.001,0.921
				c-0.002,0.127,0.04,0.176,0.17,0.173c0.307-0.007,0.614-0.004,0.921-0.001c0.193,0.002,0.251,0.062,0.254,0.252
				c0.001,0.156,0.001,0.312,0,0.469C5.361,8.21,5.307,8.267,5.114,8.269c-0.281,0.002-0.562,0-0.843,0.001
				c-0.25,0-0.25,0-0.25,0.259c0,0.286,0.001,0.572-0.001,0.858C4.018,9.58,3.96,9.64,3.769,9.644c-0.171,0.003-0.343,0.001-0.515,0
				c-0.138-0.002-0.213-0.065-0.21-0.211C3.046,9.261,3.043,9.089,3.043,8.917C3.043,8.917,3.043,8.917,3.043,8.917z"/>
			<path fill-rule="evenodd" clip-rule="evenodd" fill="none" d="M9.036,7.102c0.327,0.003,0.58,0.252,0.577,0.569
				C9.611,7.984,9.334,8.245,9.01,8.238C8.69,8.23,8.444,7.976,8.447,7.653C8.45,7.333,8.701,7.099,9.036,7.102z"/>
			<path fill-rule="evenodd" clip-rule="evenodd" fill="none" d="M10.351,6.933c-0.321-0.002-0.586-0.255-0.587-0.564
				c-0.001-0.302,0.274-0.573,0.585-0.574c0.329-0.002,0.586,0.253,0.583,0.58C10.93,6.701,10.688,6.934,10.351,6.933z"/>
			<path fill-rule="evenodd" clip-rule="evenodd" fill="none" d="M11.685,7.102c0.325,0.001,0.585,0.252,0.584,0.563
				c-0.001,0.313-0.276,0.577-0.598,0.573c-0.319-0.005-0.569-0.26-0.567-0.579C11.104,7.338,11.353,7.1,11.685,7.102z"/>
			<path fill-rule="evenodd" clip-rule="evenodd" fill="none" d="M10.352,9.525c-0.322-0.001-0.59-0.257-0.588-0.562
				c0.003-0.305,0.272-0.57,0.585-0.575c0.319-0.006,0.585,0.258,0.583,0.58C10.93,9.294,10.688,9.526,10.352,9.525z"/>
		</g>
	</g>
</g>
</svg>
