<?xml version="1.0" encoding="utf-8"?>
<!-- Generator: Adobe Illustrator 16.0.0, SVG Export Plug-In . SVG Version: 6.00 Build 0)  -->
<!DOCTYPE svg PUBLIC "-//W3C//DTD SVG 1.1//EN" "http://www.w3.org/Graphics/SVG/1.1/DTD/svg11.dtd">
<svg version="1.1" id="Layer_1" xmlns="http://www.w3.org/2000/svg" xmlns:xlink="http://www.w3.org/1999/xlink" x="0px" y="0px"
	 width="14px" height="15px" viewBox="0 0 14 15" enable-background="new 0 0 14 15" xml:space="preserve">
<g id="_x37_k4oZE.tif">
	<g>
		<g>
			<path fill="none" d="M6.671,14.624c-2.568,0-5.136-0.001-7.706,0.004c-0.105,0-0.125-0.021-0.125-0.126
				c0.004-5.137,0.004-10.274,0-15.412c0-0.105,0.021-0.125,0.125-0.125c5.137,0.004,10.275,0.004,15.412,0
				c0.104,0,0.126,0.021,0.126,0.125c-0.004,5.137-0.004,10.275,0,15.412c0,0.104-0.021,0.126-0.126,0.126
				C11.809,14.623,9.24,14.624,6.671,14.624z M6.72,4.687C6.72,4.688,6.72,4.688,6.72,4.687C6.628,4.688,6.537,4.688,6.444,4.688
				c-1.705,0-3.41-0.001-5.116,0.003c-0.144,0-0.183-0.045-0.18-0.183c0.007-0.454,0.006-0.909,0-1.363
				C1.146,3.021,1.192,2.987,1.309,2.989c0.373,0.006,0.746-0.005,1.118,0.005c0.159,0.004,0.204-0.052,0.197-0.203
				C2.612,2.578,2.616,2.362,2.623,2.148c0.003-0.12-0.043-0.16-0.162-0.159c-0.429,0.005-0.857,0-1.287,0.003
				C0.562,1.997,0.153,2.4,0.153,3.009C0.15,5.725,0.159,8.441,0.145,11.157c-0.003,0.574,0.494,1.038,1.036,1.032
				c1.536-0.02,3.073-0.006,4.61-0.006c0.873,0.001,1.746,0,2.618-0.001c0.167,0,0.171-0.004,0.099-0.156
				c-0.11-0.232-0.198-0.472-0.25-0.723c-0.019-0.083-0.06-0.125-0.146-0.12c-0.056,0.003-0.112,0-0.168,0
				c-2.195,0-4.391,0-6.585-0.001c-0.206,0-0.207-0.002-0.207-0.197c0-1.863,0.001-3.728-0.003-5.59
				C1.146,5.242,1.185,5.191,1.344,5.193c0.771,0.007,1.542,0.004,2.313,0.004c2.807,0,5.616,0,8.423,0
				c0.203,0,0.204,0.002,0.204,0.2c0,0.7,0.004,1.399-0.004,2.099c-0.001,0.146,0.032,0.232,0.183,0.284
				c0.247,0.087,0.468,0.227,0.68,0.378c0.035,0.025,0.069,0.081,0.117,0.052c0.041-0.024,0.022-0.084,0.022-0.129
				c0.001-1.72,0.003-3.44,0-5.161c-0.001-0.462-0.418-0.907-0.88-0.924c-0.443-0.016-0.887-0.003-1.331-0.005
				c-0.099-0.001-0.139,0.039-0.137,0.137c0.003,0.234,0.005,0.469-0.001,0.704c-0.003,0.119,0.039,0.163,0.159,0.161
				c0.344-0.006,0.686,0.002,1.026-0.004c0.126-0.002,0.17,0.039,0.167,0.166c-0.006,0.454-0.009,0.909,0,1.363
				c0.003,0.136-0.041,0.172-0.175,0.172C10.314,4.686,8.517,4.687,6.72,4.687z M11.284,13.285c1.394,0.032,2.587-1.126,2.646-2.521
				c0.062-1.536-1.185-2.772-2.673-2.767c-1.388,0.004-2.6,1.196-2.62,2.578C8.612,12.145,9.906,13.321,11.284,13.285z M8.487,2.992
				c0,0,0-0.001,0-0.001c0.286,0,0.571-0.002,0.856,0.001c0.095,0.001,0.143-0.027,0.142-0.129C9.481,2.618,9.481,2.373,9.484,2.128
				C9.486,2.031,9.447,1.991,9.35,1.992c-0.571,0.002-1.143,0.002-1.712,0c-0.1,0-0.134,0.042-0.133,0.138
				C7.508,2.364,7.51,2.599,7.503,2.833C7.5,2.952,7.542,2.996,7.662,2.994C7.938,2.988,8.213,2.992,8.487,2.992z M5.073,1.993
				c-0.285,0-0.57,0.002-0.856-0.001C4.114,1.99,4.07,2.027,4.072,2.133c0.004,0.24,0.002,0.479,0,0.719
				c-0.001,0.095,0.031,0.14,0.132,0.14c0.57-0.002,1.141-0.003,1.712,0c0.111,0,0.139-0.052,0.138-0.15
				C6.05,2.613,6.047,2.383,6.055,2.154c0.004-0.131-0.05-0.167-0.171-0.164C5.614,1.997,5.343,1.993,5.073,1.993z M3.601,2.381
				c0-0.229,0.001-0.459,0-0.688C3.6,1.487,3.515,1.383,3.35,1.381C3.184,1.379,3.094,1.484,3.093,1.688
				c-0.001,0.458-0.001,0.917,0,1.375c0,0.084-0.013,0.152-0.082,0.217c-0.21,0.196-0.221,0.531-0.033,0.726
				C3.168,4.201,3.502,4.208,3.698,4.02c0.206-0.196,0.205-0.531-0.013-0.737C3.618,3.218,3.6,3.154,3.601,3.069
				C3.603,2.839,3.602,2.61,3.601,2.381z M10.465,2.369c0-0.209,0-0.418-0.001-0.628c0-0.252-0.073-0.358-0.249-0.36
				c-0.178-0.003-0.259,0.105-0.259,0.352C9.955,2.182,9.954,2.631,9.955,3.081c0,0.081-0.019,0.141-0.082,0.201
				c-0.212,0.2-0.22,0.53-0.025,0.727c0.191,0.195,0.525,0.198,0.719,0.006c0.198-0.197,0.195-0.525-0.016-0.726
				c-0.067-0.063-0.088-0.13-0.087-0.215C10.466,2.838,10.465,2.604,10.465,2.369z M7.033,2.383
				C7.033,2.383,7.033,2.383,7.033,2.383c0-0.24,0-0.479,0-0.718c0-0.068-0.006-0.132-0.051-0.188
				C6.905,1.383,6.804,1.354,6.694,1.393C6.575,1.434,6.522,1.527,6.522,1.654C6.524,2.113,6.521,2.571,6.526,3.03
				c0.001,0.113-0.023,0.197-0.11,0.281C6.225,3.497,6.231,3.81,6.411,4.004c0.175,0.188,0.492,0.206,0.696,0.038
				c0.192-0.158,0.251-0.498,0.077-0.673C7.042,3.226,7.026,3.078,7.032,2.903C7.038,2.729,7.033,2.556,7.033,2.383z M5.317,6.647
				c0-0.276-0.213-0.487-0.493-0.488c-0.294,0-0.502,0.204-0.505,0.494C4.316,6.937,4.523,7.155,4.796,7.157
				C5.108,7.16,5.316,6.956,5.317,6.647z M6.775,7.157C7.074,7.156,7.28,6.946,7.277,6.644C7.275,6.366,7.062,6.157,6.781,6.159
				c-0.3,0.002-0.503,0.209-0.501,0.513C6.28,6.948,6.495,7.158,6.775,7.157z M11.199,6.672c0-0.312-0.204-0.514-0.518-0.513
				C10.415,6.16,10.2,6.376,10.2,6.645c0.001,0.312,0.205,0.514,0.518,0.513C10.986,7.156,11.2,6.941,11.199,6.672z M4.318,8.236
				c0,0.312,0.204,0.516,0.517,0.515C5.103,8.75,5.317,8.535,5.317,8.266c0-0.311-0.204-0.514-0.516-0.513
				C4.532,7.753,4.318,7.968,4.318,8.236z M8.754,7.752C8.451,7.75,8.241,7.956,8.24,8.253C8.239,8.528,8.444,8.746,8.71,8.751
				c0.312,0.006,0.526-0.196,0.528-0.502C9.241,7.97,9.033,7.755,8.754,7.752z M2.831,10.344c0.307,0.004,0.519-0.194,0.525-0.489
				c0.005-0.29-0.203-0.507-0.488-0.509c-0.295-0.002-0.506,0.2-0.51,0.489C2.354,10.12,2.559,10.341,2.831,10.344z M4.835,9.346
				C4.531,9.344,4.322,9.545,4.318,9.843c-0.003,0.281,0.204,0.498,0.481,0.501c0.303,0.004,0.515-0.201,0.517-0.497
				C5.318,9.564,5.11,9.347,4.835,9.346z M9.238,6.649C9.235,6.361,9.021,6.154,8.729,6.158c-0.287,0.004-0.494,0.221-0.49,0.511
				c0.003,0.287,0.22,0.492,0.512,0.488C9.046,7.153,9.242,6.95,9.238,6.649z M3.356,8.257c0.001-0.293-0.207-0.504-0.495-0.505
				C2.571,7.75,2.358,7.959,2.357,8.249C2.355,8.538,2.564,8.75,2.854,8.75C3.153,8.751,3.354,8.554,3.356,8.257z M6.28,8.247
				C6.278,8.539,6.485,8.751,6.774,8.752s0.502-0.209,0.504-0.497c0.002-0.29-0.207-0.501-0.497-0.501
				C6.482,7.752,6.281,7.949,6.28,8.247z M6.766,10.344c0.301,0.004,0.506-0.19,0.511-0.484c0.005-0.293-0.199-0.511-0.485-0.515
				C6.501,9.34,6.284,9.546,6.278,9.832C6.273,10.123,6.479,10.34,6.766,10.344z"/>
			<path fill-rule="evenodd" clip-rule="evenodd" d="M6.72,4.687c1.796,0,3.594-0.001,5.391,0.003c0.134,0,0.178-0.036,0.175-0.172
				c-0.009-0.455-0.006-0.909,0-1.363c0.003-0.127-0.041-0.168-0.167-0.166c-0.341,0.007-0.683-0.001-1.026,0.004
				c-0.12,0.002-0.162-0.042-0.159-0.161c0.006-0.235,0.004-0.469,0.001-0.704c-0.002-0.098,0.038-0.138,0.137-0.137
				c0.444,0.002,0.888-0.01,1.331,0.005c0.462,0.017,0.879,0.462,0.88,0.924c0.003,1.721,0.001,3.441,0,5.161
				c0,0.045,0.019,0.104-0.022,0.129c-0.048,0.029-0.082-0.026-0.117-0.052c-0.212-0.151-0.433-0.292-0.68-0.378
				c-0.15-0.052-0.184-0.138-0.183-0.284c0.008-0.699,0.004-1.399,0.004-2.099c0-0.198-0.001-0.2-0.204-0.2
				c-2.808,0-5.616,0-8.423,0c-0.771,0-1.542,0.003-2.313-0.004C1.185,5.191,1.146,5.242,1.147,5.395
				c0.004,1.863,0.002,3.727,0.003,5.59c0,0.195,0,0.197,0.207,0.197c2.194,0.001,4.39,0.001,6.585,0.001
				c0.056,0,0.112,0.003,0.168,0c0.087-0.005,0.128,0.037,0.146,0.12c0.052,0.251,0.14,0.49,0.25,0.723
				c0.072,0.152,0.068,0.156-0.099,0.156c-0.872,0.001-1.745,0.002-2.618,0.001c-1.537,0-3.074-0.014-4.61,0.006
				c-0.542,0.006-1.039-0.458-1.036-1.032C0.159,8.441,0.15,5.725,0.153,3.009c0-0.609,0.409-1.012,1.021-1.017
				c0.429-0.003,0.858,0.002,1.287-0.003c0.118-0.001,0.165,0.039,0.162,0.159c-0.007,0.214-0.01,0.43,0.001,0.644
				c0.007,0.15-0.038,0.207-0.197,0.203c-0.372-0.011-0.745,0-1.118-0.005C1.192,2.987,1.146,3.021,1.148,3.145
				c0.006,0.455,0.008,0.909,0,1.363c-0.002,0.138,0.037,0.184,0.18,0.183c1.706-0.004,3.411-0.003,5.116-0.003
				C6.537,4.688,6.628,4.688,6.72,4.687C6.72,4.688,6.72,4.688,6.72,4.687z"/>
			<path fill-rule="evenodd" clip-rule="evenodd" d="M11.284,13.285c-1.378,0.036-2.672-1.141-2.646-2.711
				c0.021-1.382,1.232-2.573,2.62-2.578c1.488-0.005,2.735,1.231,2.673,2.767C13.871,12.159,12.678,13.317,11.284,13.285z
				 M13.398,10.643c0.016-1.116-0.912-2.075-1.997-2.116c-1.26-0.047-2.176,0.939-2.23,1.994c-0.065,1.218,0.867,2.226,2.069,2.247
				C12.537,12.791,13.431,11.738,13.398,10.643z"/>
			<path fill-rule="evenodd" clip-rule="evenodd" d="M8.487,2.992c-0.274,0-0.55-0.004-0.825,0.001
				C7.542,2.996,7.5,2.952,7.503,2.833C7.51,2.599,7.508,2.364,7.504,2.13C7.503,2.035,7.538,1.992,7.637,1.992
				c0.57,0.002,1.141,0.001,1.712,0c0.098,0,0.137,0.039,0.135,0.137C9.481,2.373,9.481,2.618,9.485,2.862
				c0.001,0.103-0.047,0.13-0.142,0.129c-0.285-0.003-0.57-0.001-0.856-0.001C8.487,2.991,8.487,2.992,8.487,2.992z"/>
			<path fill-rule="evenodd" clip-rule="evenodd" d="M5.073,1.993c0.27,0,0.541,0.004,0.811-0.002
				C6.005,1.988,6.06,2.023,6.055,2.154C6.047,2.383,6.05,2.613,6.053,2.842c0.001,0.098-0.026,0.15-0.138,0.15
				c-0.571-0.003-1.142-0.003-1.712,0c-0.101,0-0.133-0.045-0.132-0.14c0.003-0.24,0.004-0.479,0-0.719
				C4.07,2.027,4.114,1.99,4.217,1.992C4.503,1.995,4.788,1.993,5.073,1.993z"/>
			<path fill-rule="evenodd" clip-rule="evenodd" d="M3.602,2.381c0,0.229,0.001,0.458-0.001,0.688
				C3.6,3.154,3.618,3.218,3.685,3.283C3.902,3.489,3.903,3.824,3.698,4.02c-0.196,0.188-0.53,0.181-0.719-0.014
				C2.791,3.811,2.801,3.476,3.012,3.28c0.069-0.064,0.082-0.133,0.082-0.217c-0.001-0.458-0.001-0.917,0-1.375
				c0-0.203,0.09-0.308,0.257-0.307C3.515,1.383,3.6,1.487,3.601,1.693C3.602,1.921,3.601,2.151,3.602,2.381z"/>
			<path fill-rule="evenodd" clip-rule="evenodd" d="M10.465,2.369c0,0.235,0.001,0.469-0.001,0.705
				c-0.001,0.085,0.02,0.152,0.087,0.215c0.211,0.201,0.214,0.529,0.016,0.726c-0.193,0.192-0.527,0.189-0.719-0.006
				C9.653,3.812,9.661,3.482,9.873,3.282c0.063-0.06,0.082-0.121,0.082-0.201c-0.001-0.449,0-0.898,0.001-1.348
				c0-0.247,0.081-0.355,0.259-0.352c0.176,0.002,0.249,0.108,0.249,0.36C10.465,1.951,10.465,2.16,10.465,2.369z"/>
			<path fill-rule="evenodd" clip-rule="evenodd" d="M7.033,2.383c0,0.173,0.005,0.347-0.001,0.521
				C7.026,3.078,7.042,3.226,7.184,3.369c0.174,0.175,0.115,0.515-0.077,0.673c-0.204,0.167-0.521,0.15-0.696-0.038
				C6.231,3.81,6.225,3.497,6.416,3.312c0.087-0.084,0.112-0.168,0.11-0.281C6.521,2.571,6.524,2.113,6.522,1.654
				c0-0.126,0.052-0.22,0.171-0.261c0.11-0.038,0.211-0.01,0.288,0.084c0.045,0.055,0.052,0.12,0.051,0.188
				C7.033,1.904,7.033,2.143,7.033,2.383C7.033,2.383,7.033,2.383,7.033,2.383z"/>
			<path fill-rule="evenodd" clip-rule="evenodd" d="M5.317,6.647c0,0.309-0.209,0.512-0.521,0.51
				c-0.273-0.002-0.48-0.221-0.478-0.504c0.002-0.29,0.211-0.495,0.505-0.494C5.104,6.16,5.317,6.372,5.317,6.647z"/>
			<path fill-rule="evenodd" clip-rule="evenodd" d="M6.775,7.157c-0.28,0-0.495-0.209-0.496-0.485
				C6.278,6.369,6.481,6.162,6.781,6.159c0.28-0.002,0.494,0.207,0.496,0.485C7.28,6.946,7.074,7.156,6.775,7.157z"/>
			<path fill-rule="evenodd" clip-rule="evenodd" d="M11.199,6.672c0.001,0.27-0.213,0.484-0.481,0.485
				c-0.312,0.001-0.517-0.201-0.518-0.513c0-0.269,0.215-0.484,0.481-0.486C10.995,6.158,11.199,6.36,11.199,6.672z"/>
			<path fill-rule="evenodd" clip-rule="evenodd" d="M4.318,8.236c0-0.269,0.214-0.483,0.482-0.484
				c0.312-0.001,0.516,0.202,0.516,0.513c0,0.27-0.214,0.484-0.482,0.485C4.522,8.752,4.318,8.549,4.318,8.236z"/>
			<path fill-rule="evenodd" clip-rule="evenodd" d="M8.754,7.752C9.033,7.755,9.241,7.97,9.238,8.249
				C9.236,8.555,9.022,8.757,8.71,8.751C8.444,8.746,8.239,8.528,8.24,8.253C8.241,7.956,8.451,7.75,8.754,7.752z"/>
			<path fill-rule="evenodd" clip-rule="evenodd" d="M2.831,10.344c-0.271-0.003-0.477-0.224-0.473-0.509
				c0.004-0.289,0.214-0.491,0.51-0.489c0.286,0.002,0.494,0.219,0.488,0.509C3.35,10.149,3.137,10.348,2.831,10.344z"/>
			<path fill-rule="evenodd" clip-rule="evenodd" d="M4.835,9.346C5.11,9.347,5.318,9.564,5.316,9.847
				c-0.002,0.296-0.214,0.501-0.517,0.497c-0.277-0.003-0.484-0.22-0.481-0.501C4.322,9.545,4.531,9.344,4.835,9.346z"/>
			<path fill-rule="evenodd" clip-rule="evenodd" d="M9.238,6.649c0.004,0.3-0.192,0.503-0.487,0.507
				C8.459,7.161,8.242,6.956,8.239,6.669c-0.004-0.29,0.203-0.506,0.49-0.511C9.021,6.154,9.235,6.361,9.238,6.649z"/>
			<path fill-rule="evenodd" clip-rule="evenodd" d="M3.356,8.257C3.354,8.554,3.153,8.751,2.854,8.75
				c-0.29,0-0.499-0.212-0.497-0.501c0.001-0.29,0.214-0.499,0.504-0.498C3.149,7.752,3.357,7.964,3.356,8.257z"/>
			<path fill-rule="evenodd" clip-rule="evenodd" d="M6.28,8.247c0.001-0.298,0.202-0.495,0.501-0.494c0.29,0,0.5,0.211,0.497,0.501
				C7.276,8.543,7.063,8.753,6.774,8.752S6.278,8.539,6.28,8.247z"/>
			<path fill-rule="evenodd" clip-rule="evenodd" d="M6.766,10.344c-0.288-0.004-0.493-0.221-0.488-0.512
				C6.284,9.546,6.501,9.34,6.792,9.345c0.286,0.004,0.49,0.222,0.485,0.515C7.272,10.153,7.067,10.348,6.766,10.344z"/>
			<path fill-rule="evenodd" clip-rule="evenodd" fill="none" d="M13.398,10.643c0.032,1.096-0.861,2.148-2.158,2.125
				c-1.202-0.021-2.135-1.029-2.069-2.247c0.055-1.055,0.971-2.041,2.23-1.994C12.486,8.567,13.414,9.526,13.398,10.643z
				 M12.163,11.08C12.163,11.08,12.163,11.08,12.163,11.08c0.094,0.001,0.186,0.001,0.276,0.001c0.092-0.001,0.184,0,0.275-0.002
				c0.221-0.004,0.353-0.122,0.353-0.315c0-0.196-0.129-0.312-0.353-0.314c-0.315-0.002-0.632-0.002-0.947-0.001
				c-0.062,0-0.119-0.005-0.169-0.052c-0.135-0.124-0.297-0.138-0.459-0.077c-0.093,0.035-0.163,0.019-0.243-0.024
				c-0.24-0.134-0.482-0.264-0.726-0.394c-0.04-0.022-0.081-0.044-0.122-0.065c-0.138-0.068-0.27-0.042-0.337,0.068
				c-0.071,0.12-0.034,0.257,0.105,0.336c0.289,0.162,0.581,0.319,0.874,0.475c0.089,0.046,0.153,0.103,0.197,0.199
				c0.107,0.227,0.318,0.301,0.548,0.203c0.062-0.028,0.125-0.038,0.191-0.038C11.808,11.08,11.985,11.08,12.163,11.08z"/>
			<path fill-rule="evenodd" clip-rule="evenodd" d="M12.163,11.08c-0.178,0-0.355,0-0.535-0.001c-0.066,0-0.13,0.01-0.191,0.038
				c-0.229,0.098-0.44,0.023-0.548-0.203c-0.044-0.097-0.108-0.153-0.197-0.199c-0.293-0.155-0.585-0.312-0.874-0.475
				c-0.14-0.079-0.177-0.216-0.105-0.336c0.067-0.11,0.199-0.137,0.337-0.068c0.041,0.021,0.082,0.043,0.122,0.065
				c0.243,0.13,0.485,0.26,0.726,0.394c0.08,0.043,0.15,0.06,0.243,0.024c0.162-0.061,0.324-0.047,0.459,0.077
				c0.05,0.047,0.106,0.052,0.169,0.052c0.315-0.001,0.632-0.001,0.947,0.001c0.224,0.002,0.353,0.118,0.353,0.314
				c0,0.193-0.132,0.312-0.353,0.315c-0.092,0.002-0.184,0.001-0.275,0.002C12.349,11.081,12.257,11.081,12.163,11.08
				C12.163,11.08,12.163,11.08,12.163,11.08z"/>
		</g>
	</g>
</g>
</svg>
