<?xml version="1.0" encoding="utf-8"?>
<!-- Generator: Adobe Illustrator 16.0.0, SVG Export Plug-In . SVG Version: 6.00 Build 0)  -->
<!DOCTYPE svg PUBLIC "-//W3C//DTD SVG 1.1//EN" "http://www.w3.org/Graphics/SVG/1.1/DTD/svg11.dtd">
<svg version="1.1" id="Layer_1" xmlns="http://www.w3.org/2000/svg" xmlns:xlink="http://www.w3.org/1999/xlink" x="0px" y="0px"
	 width="14px" height="15px" viewBox="0 0 14 15" enable-background="new 0 0 14 15" xml:space="preserve">
<g id="Xj79uM.tif">
	<g>
		<g>
			<path fill="none" d="M0.381,7.213c0-2.175,0.001-4.351-0.003-6.526c0-0.098,0.025-0.111,0.114-0.111
				c4.338,0.002,8.675,0.002,13.013,0c0.09,0,0.115,0.013,0.115,0.11c-0.004,4.351-0.004,8.702,0,13.052
				c0,0.093-0.022,0.105-0.108,0.105C9.17,13.84,4.829,13.84,0.486,13.845c-0.106,0-0.106-0.037-0.106-0.118
				C0.382,11.556,0.381,9.385,0.381,7.213z M11.524,7.172c0.001,0,0.002,0,0.002,0c0-1.614,0-3.229,0-4.843
				c0-0.29-0.001-0.578-0.002-0.868c-0.001-0.054,0.009-0.126-0.076-0.12c-0.177,0.012-0.354-0.002-0.53-0.002
				c-0.297,0-0.594,0.006-0.891,0.005c-0.389,0-0.776-0.008-1.164-0.007c-0.465,0-0.93,0.011-1.396,0.008
				c-0.473-0.002-0.946-0.01-1.419,0C5.96,1.347,5.923,1.378,5.923,1.466c0.002,0.729,0.003,1.458,0.003,2.188
				c0,0.079,0.028,0.118,0.114,0.118c0.371-0.003,0.742-0.004,1.113,0c0.096,0,0.129-0.038,0.128-0.131
				c-0.004-0.264,0.003-0.527-0.003-0.79C7.275,2.741,7.307,2.699,7.424,2.7c0.85,0.003,1.701,0.001,2.551,0.001
				c0.192,0,0.193,0.001,0.193,0.196c-0.001,1.312-0.001,2.624-0.002,3.937c0,1.562,0,3.126,0.002,4.688
				c0,0.084-0.01,0.138-0.117,0.138c-0.881-0.003-1.762-0.004-2.641,0c-0.105,0-0.133-0.038-0.131-0.137
				c0.005-0.264-0.001-0.527,0.005-0.79c0.003-0.115-0.032-0.164-0.154-0.161c-0.35,0.006-0.699,0.006-1.049,0
				c-0.122-0.003-0.156,0.05-0.155,0.162c0.001,0.712,0,1.425-0.003,2.137c0,0.112,0.04,0.149,0.152,0.149
				c1.756-0.004,3.514-0.005,5.271-0.006c0.178,0,0.18-0.003,0.18-0.184C11.525,10.945,11.524,9.059,11.524,7.172z M4.887,6.456
				C4.914,6.378,4.958,6.35,4.995,6.313c0.369-0.37,0.738-0.738,1.107-1.109c0.039-0.04,0.104-0.075,0.031-0.146
				c-0.27-0.266-0.541-0.531-0.805-0.803c-0.083-0.086-0.132-0.07-0.208,0.006C4.197,5.188,3.271,6.112,2.343,7.034
				C2.256,7.12,2.264,7.167,2.346,7.25c0.958,0.951,1.914,1.907,2.867,2.864c0.066,0.066,0.106,0.062,0.167-0.001
				c0.254-0.259,0.509-0.518,0.77-0.77c0.083-0.081,0.09-0.13,0.002-0.216C5.739,8.724,5.333,8.312,4.925,7.9
				C4.904,7.88,4.862,7.865,4.882,7.812c0.534,0,1.068,0,1.604,0c0.833,0,1.667,0,2.499,0c0.09,0,0.162,0.002,0.16-0.123
				C9.139,7.318,9.141,6.946,9.144,6.575c0-0.081-0.032-0.121-0.113-0.119C8.991,6.457,8.951,6.455,8.913,6.455
				c-1.157,0-2.314,0-3.47,0.001C5.263,6.456,5.083,6.456,4.887,6.456z"/>
			<path fill="#010101" d="M11.524,7.172c0,1.887,0.001,3.773,0,5.659c0,0.18-0.002,0.182-0.18,0.182
				c-1.757,0.002-3.514,0.003-5.271,0.008c-0.112,0-0.153-0.037-0.152-0.149c0.004-0.712,0.005-1.425,0.003-2.138
				c0-0.111,0.033-0.164,0.155-0.161c0.35,0.006,0.699,0.006,1.049,0c0.122-0.003,0.157,0.046,0.154,0.16
				c-0.007,0.264,0,0.526-0.005,0.79c-0.002,0.1,0.026,0.138,0.131,0.137c0.88-0.003,1.76-0.003,2.641,0
				c0.107,0.001,0.117-0.053,0.117-0.138c-0.002-1.562-0.002-3.125-0.002-4.688c0.001-1.312,0.001-2.625,0.002-3.937
				c0-0.194-0.001-0.196-0.193-0.196c-0.85,0-1.701,0.002-2.551-0.002c-0.116,0-0.148,0.042-0.146,0.152
				c0.006,0.263,0,0.527,0.003,0.79C7.282,3.734,7.25,3.772,7.153,3.771c-0.371-0.003-0.742-0.003-1.113,0
				C5.954,3.772,5.926,3.732,5.926,3.654c0-0.729-0.001-1.459-0.003-2.188c0-0.088,0.038-0.12,0.125-0.122
				c0.473-0.009,0.946-0.002,1.419,0c0.465,0.003,0.931-0.008,1.396-0.008c0.388,0,0.775,0.007,1.164,0.007
				c0.297,0,0.594-0.005,0.891-0.005c0.177,0,0.354,0.015,0.53,0.002c0.085-0.006,0.075,0.066,0.076,0.12
				c0.001,0.29,0.002,0.579,0.002,0.868c0,1.614,0,3.229,0,4.844C11.526,7.172,11.525,7.172,11.524,7.172z"/>
			<path fill="#010101" d="M4.887,6.456c0.196,0,0.376,0,0.556,0c1.157-0.001,2.313-0.001,3.471-0.001
				c0.039,0,0.078,0.003,0.117,0.001c0.081-0.001,0.113,0.038,0.113,0.119c-0.003,0.371-0.005,0.743,0,1.114
				c0.003,0.125-0.07,0.123-0.159,0.123c-0.833,0-1.666,0-2.5,0c-0.535,0-1.069,0-1.603,0C4.863,7.865,4.904,7.88,4.925,7.9
				c0.407,0.411,0.814,0.822,1.228,1.228C6.241,9.214,6.234,9.263,6.15,9.344c-0.261,0.252-0.516,0.511-0.77,0.77
				c-0.061,0.062-0.101,0.067-0.167,0.001C4.259,9.157,3.304,8.201,2.346,7.25C2.263,7.167,2.256,7.12,2.343,7.034
				c0.928-0.922,1.854-1.847,2.777-2.773c0.076-0.076,0.125-0.092,0.208-0.006c0.265,0.271,0.535,0.537,0.805,0.803
				c0.072,0.071,0.008,0.106-0.032,0.146c-0.369,0.37-0.739,0.739-1.107,1.109C4.958,6.35,4.914,6.378,4.887,6.456z"/>
		</g>
	</g>
</g>
</svg>
