<?xml version="1.0" encoding="utf-8"?>
<!-- Generator: Adobe Illustrator 16.0.0, SVG Export Plug-In . SVG Version: 6.00 Build 0)  -->
<!DOCTYPE svg PUBLIC "-//W3C//DTD SVG 1.1//EN" "http://www.w3.org/Graphics/SVG/1.1/DTD/svg11.dtd">
<svg version="1.1" id="Layer_1" xmlns="http://www.w3.org/2000/svg" xmlns:xlink="http://www.w3.org/1999/xlink" x="0px" y="0px"
	 width="14px" height="15px" viewBox="0 0 14 15" enable-background="new 0 0 14 15" xml:space="preserve">
<g id="KeK52l.tif">
	<g>
		<g>
			<path fill="#010101" d="M1.267,3.779c3.751,0,7.503,0,11.254,0c0.237,0.204,0.023,0.321-0.094,0.44
				C10.73,5.924,9.03,7.624,7.33,9.324C6.956,9.7,6.865,9.699,6.481,9.314c-1.676-1.671-3.35-3.342-5.024-5.014
				C1.402,4.246,1.349,4.19,1.294,4.136C1.184,4.024,1.154,3.907,1.267,3.779z"/>
			<path fill="none" d="M1.267,3.779C1.154,3.907,1.184,4.024,1.294,4.136c0.055,0.055,0.108,0.11,0.163,0.165
				C3.131,5.973,4.806,7.644,6.48,9.314C6.865,9.698,6.955,9.7,7.33,9.324c1.699-1.7,3.4-3.4,5.096-5.104
				c0.119-0.119,0.333-0.236,0.096-0.44c0.271,0,0.542,0.006,0.812-0.003c0.102-0.004,0.123,0.018,0.119,0.119
				c-0.01,0.231-0.003,0.464-0.003,0.696c-0.196-0.162-0.317-0.014-0.44,0.109c-1.085,1.085-2.164,2.174-3.256,3.253
				c-0.177,0.176-0.15,0.285,0.004,0.45c0.602,0.64,1.191,1.29,1.787,1.935c0.51,0.553,1.021,1.105,1.533,1.657
				c0.117,0.127,0.236,0.218,0.372,0.022c0,0.288-0.005,0.578,0.003,0.867c0.002,0.095-0.011,0.143-0.117,0.12
				c-0.037-0.009-0.077-0.002-0.115-0.002c-4.141,0-8.28-0.002-12.42,0.006c-0.202,0.001-0.253-0.043-0.235-0.239
				c0.021-0.229,0.005-0.464,0.005-0.694c0.125,0.15,0.239,0.118,0.362-0.008c1.136-1.159,2.274-2.317,3.414-3.473
				c0.116-0.117,0.138-0.212,0.01-0.339C3.213,7.119,2.073,5.978,0.931,4.838c-0.137-0.137-0.263-0.163-0.36,0.045
				c0-0.134-0.001-0.268,0-0.4c0.002-0.234-0.079-0.542,0.038-0.68C0.705,3.689,1.039,3.779,1.267,3.779z M7.028,12.966
				c1.789,0,3.577,0.001,5.365-0.001c0.111-0.001,0.248,0.035,0.311-0.096c0.064-0.135-0.047-0.217-0.122-0.3
				c-1.126-1.224-2.256-2.443-3.38-3.669c-0.137-0.149-0.24-0.15-0.379-0.007C8.459,9.268,8.09,9.637,7.714,10.001
				c-0.498,0.484-1.093,0.487-1.598,0.01C5.842,9.752,5.567,9.492,5.318,9.21C5.123,8.99,4.994,8.995,4.789,9.207
				c-1.068,1.106-2.15,2.197-3.227,3.295c-0.054,0.055-0.111,0.108-0.157,0.17c-0.109,0.15-0.076,0.256,0.113,0.286
				c0.094,0.015,0.193,0.009,0.29,0.009C3.547,12.966,5.288,12.966,7.028,12.966z"/>
			<path fill="#010101" d="M13.451,12.018c-0.137,0.195-0.256,0.105-0.373-0.021c-0.511-0.553-1.022-1.104-1.533-1.657
				c-0.595-0.646-1.186-1.296-1.787-1.936c-0.154-0.164-0.18-0.274-0.004-0.45c1.092-1.078,2.172-2.168,3.256-3.253
				c0.124-0.123,0.244-0.271,0.441-0.109C13.451,7.066,13.451,9.542,13.451,12.018z"/>
			<path fill="#010101" d="M0.571,4.882C0.667,4.674,0.793,4.7,0.931,4.837c1.142,1.14,2.282,2.281,3.426,3.419
				c0.128,0.127,0.106,0.222-0.01,0.339c-1.14,1.155-2.277,2.313-3.414,3.473c-0.124,0.126-0.238,0.158-0.362,0.008
				C0.571,9.677,0.571,7.279,0.571,4.882z"/>
			<path fill="#010101" d="M7.028,12.966c-1.74,0-3.48,0-5.22,0c-0.096,0-0.195,0.007-0.29-0.009
				c-0.188-0.03-0.222-0.135-0.113-0.285c0.045-0.062,0.103-0.115,0.157-0.171c1.077-1.097,2.159-2.188,3.227-3.294
				C4.994,8.994,5.123,8.989,5.318,9.21c0.249,0.281,0.524,0.541,0.798,0.8c0.506,0.479,1.101,0.475,1.598-0.01
				C8.09,9.637,8.458,9.267,8.822,8.893C8.961,8.749,9.063,8.75,9.201,8.899c1.124,1.226,2.254,2.446,3.38,3.669
				c0.075,0.083,0.187,0.166,0.122,0.3c-0.062,0.132-0.199,0.096-0.311,0.096C10.604,12.967,8.816,12.966,7.028,12.966z"/>
		</g>
	</g>
</g>
</svg>
