<?xml version="1.0" encoding="utf-8"?>
<!-- Generator: Adobe Illustrator 16.0.0, SVG Export Plug-In . SVG Version: 6.00 Build 0)  -->
<!DOCTYPE svg PUBLIC "-//W3C//DTD SVG 1.1//EN" "http://www.w3.org/Graphics/SVG/1.1/DTD/svg11.dtd">
<svg version="1.1" id="Layer_1" xmlns="http://www.w3.org/2000/svg" xmlns:xlink="http://www.w3.org/1999/xlink" x="0px" y="0px"
	 width="14px" height="15px" viewBox="0 0 14 15" enable-background="new 0 0 14 15" xml:space="preserve">
<g id="t0FyjD.tif">
	<g>
		<g>
			<path fill="none" d="M7.529,15.029c-2.461,0-4.922-0.001-7.382,0.003c-0.101,0-0.121-0.02-0.121-0.12
				c0.003-4.922,0.003-9.844,0-14.765c0-0.101,0.02-0.121,0.121-0.121c4.921,0.003,9.843,0.003,14.765,0
				c0.101,0,0.12,0.02,0.12,0.121c-0.003,4.921-0.003,9.843,0,14.765c0,0.101-0.02,0.12-0.12,0.12
				C12.451,15.028,9.99,15.029,7.529,15.029z M10.188,5.158c-0.073,0-0.147-0.007-0.22,0.001c-0.12,0.013-0.173-0.037-0.204-0.152
				c-0.068-0.255-0.169-0.5-0.285-0.738C9.357,4.023,9.351,4.092,9.542,3.892c0.068-0.07,0.14-0.137,0.206-0.209
				c0.287-0.313,0.318-0.732,0.073-1.077C9.713,2.454,9.58,2.32,9.429,2.212c-0.355-0.251-0.772-0.211-1.08,0.096
				c-0.076,0.076-0.155,0.15-0.225,0.232C8.053,2.626,7.987,2.642,7.886,2.581C7.714,2.478,7.528,2.402,7.343,2.325
				c-0.13-0.054-0.309-0.049-0.382-0.164C6.885,2.044,6.93,1.875,6.939,1.73c0.03-0.444-0.362-0.785-0.784-0.799
				C5.995,0.926,5.833,0.929,5.672,0.933c-0.349,0.008-0.79,0.342-0.75,0.785C4.929,1.8,4.916,1.884,4.924,1.967
				C4.94,2.106,4.89,2.179,4.749,2.217C4.457,2.298,4.175,2.412,3.909,2.56C3.829,2.605,3.776,2.588,3.718,2.525
				c-0.083-0.09-0.167-0.179-0.259-0.26C3.252,2.082,3.014,2.02,2.738,2.069C2.442,2.123,2.27,2.342,2.085,2.54
				C1.809,2.834,1.799,3.288,2.054,3.602c0.092,0.114,0.197,0.217,0.298,0.323c0.039,0.042,0.069,0.077,0.034,0.14
				C2.209,4.382,2.084,4.722,1.973,5.066c-0.022,0.067-0.062,0.092-0.13,0.091C1.716,5.155,1.589,5.156,1.462,5.159
				C1.043,5.167,0.701,5.512,0.696,5.93c-0.001,0.127-0.003,0.254,0,0.381c0.007,0.368,0.297,0.75,0.645,0.841
				c0.158,0.042,0.321,0.02,0.482,0.017c0.095-0.001,0.14,0.034,0.166,0.124c0.065,0.231,0.16,0.451,0.269,0.666
				c0.161,0.32,0.161,0.32-0.103,0.561c-0.329,0.3-0.375,0.783-0.1,1.124c0.079,0.099,0.177,0.183,0.267,0.272
				c0.348,0.343,0.887,0.328,1.217-0.031C3.602,9.816,3.667,9.751,3.727,9.68c0.053-0.063,0.106-0.07,0.179-0.03
				C4.194,9.808,4.5,9.926,4.815,10.017c0.079,0.022,0.111,0.066,0.109,0.147c-0.004,0.127-0.002,0.255,0,0.382
				c0.006,0.387,0.317,0.772,0.695,0.839c0.152,0.027,0.312,0.008,0.468,0.014c0.204,0.009,0.369-0.078,0.522-0.198
				c0.081-0.064,0.102-0.121,0.01-0.197c-0.32-0.265-0.406-0.623-0.384-1.016c0.025-0.466,0.36-0.835,0.812-0.91
				c0.232-0.038,0.305-0.208,0.178-0.408c-0.042-0.065-0.086-0.133-0.11-0.206C7.075,8.34,7.02,8.316,6.9,8.374
				C6.455,8.587,5.986,8.638,5.499,8.567C4.117,8.368,3.153,7.008,3.428,5.642c0.241-1.199,1.222-2.02,2.444-2.024
				c0.937-0.002,1.655,0.417,2.145,1.21C8.4,5.449,8.459,6.122,8.265,6.819C8.231,6.935,8.252,6.981,8.371,6.992
				c0.141,0.013,0.258,0.083,0.373,0.161c0.18,0.12,0.296,0.072,0.329-0.138c0.022-0.145,0.08-0.271,0.167-0.386
				c0.367-0.486,1.285-0.546,1.743-0.114c0.105,0.099,0.132,0.094,0.162-0.048c0.038-0.174,0.013-0.351,0.018-0.527
				c0.005-0.223-0.084-0.407-0.242-0.562C10.715,5.176,10.461,5.135,10.188,5.158z M12.864,8.114
				c-0.001-0.205-0.056-0.302-0.305-0.542c-0.226-0.218-0.548-0.22-0.777-0.006c-0.062,0.057-0.125,0.11-0.184,0.169
				c-0.05,0.05-0.095,0.05-0.156,0.017c-0.107-0.057-0.219-0.109-0.332-0.154c-0.293-0.115-0.294-0.112-0.3-0.423
				c-0.005-0.286-0.188-0.477-0.475-0.491c-0.059-0.002-0.117,0-0.176,0c-0.495,0.001-0.655,0.154-0.656,0.64
				c0,0.109-0.029,0.167-0.142,0.199C9.227,7.561,9.087,7.607,8.969,7.681C8.811,7.78,8.717,7.739,8.599,7.613
				C8.332,7.327,8.02,7.334,7.743,7.611C7.708,7.646,7.673,7.679,7.64,7.715C7.433,7.934,7.423,8.227,7.615,8.459
				C7.658,8.512,7.7,8.567,7.749,8.614c0.074,0.071,0.088,0.137,0.033,0.231C7.72,8.95,7.677,9.066,7.635,9.181
				C7.522,9.488,7.524,9.486,7.199,9.504C6.979,9.516,6.786,9.6,6.717,9.821c-0.065,0.211-0.072,0.438,0.029,0.645
				c0.109,0.224,0.284,0.35,0.547,0.348c0.27-0.003,0.216-0.037,0.313,0.224c0.037,0.101,0.074,0.205,0.131,0.294
				c0.091,0.143,0.087,0.238-0.057,0.354c-0.207,0.167-0.262,0.414-0.152,0.634c0.213,0.425,0.744,0.707,1.128,0.218
				c0.012-0.016,0.028-0.027,0.04-0.043c0.047-0.061,0.099-0.065,0.166-0.027c0.162,0.091,0.335,0.16,0.515,0.21
				c0.091,0.024,0.128,0.071,0.126,0.166c-0.003,0.106-0.007,0.218,0.016,0.32c0.072,0.321,0.312,0.47,0.728,0.466
				c0.295-0.003,0.571-0.206,0.548-0.493c-0.031-0.376,0.136-0.528,0.458-0.598c0.005-0.001,0.009-0.004,0.014-0.006
				c0.281-0.125,0.281-0.125,0.507,0.088c0.219,0.208,0.507,0.228,0.747,0.046c0.073-0.056,0.141-0.122,0.2-0.192
				c0.21-0.248,0.191-0.563-0.041-0.789c-0.042-0.041-0.082-0.086-0.129-0.119c-0.075-0.054-0.081-0.108-0.033-0.186
				c0.079-0.124,0.141-0.26,0.178-0.4c0.035-0.133,0.102-0.174,0.239-0.172c0.504,0.007,0.695-0.19,0.695-0.696
				c0-0.044,0.001-0.089,0-0.133c-0.006-0.262-0.198-0.462-0.461-0.475c-0.098-0.005-0.196-0.006-0.294-0.002
				c-0.087,0.004-0.133-0.03-0.159-0.115c-0.043-0.14-0.092-0.278-0.151-0.412c-0.096-0.22-0.103-0.22,0.067-0.39
				C12.763,8.453,12.872,8.313,12.864,8.114z M4.336,6.065C4.333,6.941,5.038,7.659,5.889,7.671c0.927,0.014,1.663-0.761,1.64-1.645
				C7.507,5.186,6.791,4.458,5.94,4.461C5.046,4.464,4.338,5.172,4.336,6.065z"/>
			<path fill-rule="evenodd" clip-rule="evenodd" d="M10.188,5.158c0.273-0.022,0.527,0.019,0.733,0.221
				c0.158,0.155,0.247,0.338,0.242,0.562c-0.005,0.176,0.021,0.353-0.018,0.527c-0.03,0.142-0.057,0.147-0.162,0.048
				C10.525,6.083,9.607,6.143,9.24,6.629C9.153,6.745,9.096,6.871,9.073,7.015C9.04,7.225,8.924,7.273,8.744,7.153
				C8.629,7.076,8.512,7.005,8.371,6.992c-0.119-0.011-0.14-0.057-0.106-0.173C8.459,6.122,8.4,5.449,8.017,4.828
				c-0.49-0.792-1.208-1.212-2.145-1.21C4.649,3.622,3.669,4.443,3.428,5.642C3.153,7.008,4.117,8.368,5.499,8.567
				c0.487,0.07,0.957,0.02,1.401-0.193C7.02,8.316,7.075,8.34,7.114,8.463c0.024,0.073,0.068,0.141,0.11,0.206
				c0.127,0.2,0.054,0.37-0.178,0.408C6.595,9.152,6.26,9.521,6.235,9.987c-0.021,0.393,0.064,0.751,0.384,1.016
				c0.092,0.076,0.071,0.133-0.01,0.197c-0.154,0.12-0.318,0.207-0.522,0.198c-0.156-0.006-0.316,0.014-0.468-0.014
				c-0.378-0.066-0.689-0.452-0.695-0.839c-0.002-0.127-0.004-0.255,0-0.382c0.002-0.081-0.03-0.125-0.109-0.147
				C4.5,9.926,4.194,9.808,3.906,9.649C3.833,9.609,3.78,9.616,3.727,9.68c-0.06,0.071-0.125,0.137-0.188,0.205
				c-0.33,0.359-0.87,0.374-1.217,0.031c-0.09-0.09-0.188-0.174-0.267-0.272c-0.275-0.341-0.229-0.824,0.1-1.124
				c0.264-0.241,0.264-0.241,0.103-0.561C2.148,7.744,2.054,7.524,1.988,7.293c-0.025-0.09-0.071-0.125-0.166-0.124
				C1.662,7.171,1.499,7.193,1.34,7.152C0.993,7.061,0.703,6.679,0.696,6.311c-0.002-0.127-0.001-0.254,0-0.381
				c0.005-0.418,0.347-0.763,0.766-0.771c0.127-0.002,0.254-0.003,0.381-0.001c0.068,0.001,0.108-0.023,0.13-0.091
				c0.111-0.345,0.236-0.685,0.413-1.002c0.035-0.063,0.005-0.099-0.034-0.14C2.251,3.818,2.146,3.715,2.054,3.602
				C1.799,3.288,1.809,2.834,2.085,2.54C2.27,2.342,2.442,2.123,2.738,2.069C3.014,2.02,3.252,2.082,3.459,2.266
				c0.091,0.081,0.176,0.169,0.259,0.26c0.058,0.063,0.11,0.08,0.191,0.035c0.266-0.148,0.547-0.262,0.84-0.343
				C4.89,2.179,4.94,2.106,4.924,1.967C4.916,1.884,4.929,1.8,4.922,1.717c-0.04-0.442,0.401-0.776,0.75-0.785
				c0.161-0.003,0.323-0.007,0.484-0.001C6.577,0.946,6.97,1.286,6.939,1.73C6.93,1.875,6.885,2.044,6.961,2.162
				c0.073,0.114,0.252,0.109,0.382,0.164c0.186,0.077,0.372,0.152,0.543,0.256c0.101,0.061,0.167,0.045,0.238-0.041
				c0.069-0.082,0.148-0.156,0.225-0.232c0.308-0.307,0.725-0.348,1.08-0.096C9.58,2.32,9.713,2.454,9.821,2.605
				c0.245,0.345,0.214,0.764-0.073,1.077C9.682,3.754,9.61,3.821,9.542,3.892c-0.191,0.2-0.185,0.131-0.063,0.377
				c0.116,0.238,0.217,0.482,0.285,0.738c0.031,0.115,0.084,0.166,0.204,0.152C10.04,5.151,10.114,5.158,10.188,5.158z"/>
			<path fill-rule="evenodd" clip-rule="evenodd" d="M12.864,8.114c0.008,0.199-0.102,0.339-0.233,0.471
				c-0.17,0.17-0.163,0.17-0.067,0.39c0.06,0.134,0.108,0.272,0.151,0.412c0.026,0.085,0.072,0.119,0.159,0.115
				c0.098-0.004,0.196-0.003,0.294,0.002c0.263,0.013,0.455,0.213,0.461,0.475c0.001,0.044,0,0.089,0,0.133
				c0,0.506-0.191,0.703-0.695,0.696c-0.138-0.002-0.204,0.039-0.239,0.172c-0.037,0.141-0.099,0.276-0.178,0.4
				c-0.048,0.077-0.042,0.132,0.033,0.186c0.047,0.033,0.087,0.078,0.129,0.119c0.232,0.226,0.251,0.541,0.041,0.789
				c-0.06,0.07-0.127,0.137-0.2,0.192c-0.24,0.182-0.528,0.162-0.747-0.046c-0.226-0.213-0.226-0.213-0.507-0.088
				c-0.005,0.002-0.009,0.005-0.014,0.006c-0.322,0.069-0.489,0.222-0.458,0.598c0.023,0.287-0.253,0.49-0.548,0.493
				c-0.416,0.004-0.655-0.145-0.728-0.466c-0.022-0.103-0.019-0.214-0.016-0.32c0.002-0.095-0.035-0.142-0.126-0.166
				c-0.18-0.05-0.353-0.119-0.515-0.21c-0.067-0.038-0.119-0.033-0.166,0.027c-0.012,0.016-0.028,0.027-0.04,0.043
				c-0.384,0.489-0.915,0.207-1.128-0.218c-0.11-0.22-0.055-0.467,0.152-0.634c0.144-0.116,0.147-0.212,0.057-0.354
				c-0.057-0.089-0.094-0.193-0.131-0.294c-0.097-0.261-0.043-0.227-0.313-0.224c-0.263,0.002-0.438-0.124-0.547-0.348
				c-0.101-0.207-0.094-0.434-0.029-0.645C6.786,9.6,6.979,9.516,7.199,9.504c0.325-0.018,0.323-0.016,0.436-0.323
				C7.677,9.066,7.72,8.95,7.781,8.846c0.055-0.095,0.042-0.16-0.033-0.231C7.7,8.567,7.658,8.512,7.615,8.459
				C7.423,8.227,7.433,7.934,7.64,7.715c0.033-0.036,0.068-0.069,0.103-0.104C8.02,7.334,8.332,7.327,8.599,7.613
				c0.118,0.126,0.212,0.167,0.37,0.068c0.118-0.074,0.258-0.12,0.394-0.158c0.112-0.031,0.142-0.089,0.142-0.199
				c0.001-0.486,0.161-0.639,0.656-0.64c0.059,0,0.117-0.002,0.176,0c0.286,0.014,0.47,0.205,0.475,0.491
				c0.006,0.311,0.007,0.309,0.3,0.423c0.113,0.044,0.225,0.097,0.332,0.154c0.062,0.033,0.106,0.033,0.156-0.017
				c0.059-0.059,0.122-0.112,0.184-0.169c0.229-0.214,0.552-0.211,0.777,0.006C12.809,7.812,12.863,7.91,12.864,8.114z
				 M10.145,8.809C9.409,8.81,8.843,9.376,8.843,10.111c0,0.703,0.585,1.277,1.3,1.275c0.725-0.002,1.295-0.572,1.297-1.296
				C11.442,9.388,10.855,8.808,10.145,8.809z"/>
			<path fill-rule="evenodd" clip-rule="evenodd" d="M4.336,6.065c0.002-0.893,0.71-1.601,1.604-1.604
				c0.851-0.003,1.567,0.725,1.589,1.565c0.023,0.884-0.713,1.659-1.64,1.645C5.038,7.659,4.333,6.941,4.336,6.065z"/>
			<path fill-rule="evenodd" clip-rule="evenodd" fill="none" d="M10.145,8.809c0.711-0.001,1.298,0.579,1.295,1.282
				c-0.002,0.724-0.572,1.294-1.297,1.296c-0.715,0.002-1.3-0.572-1.3-1.275C8.843,9.376,9.409,8.81,10.145,8.809z"/>
		</g>
	</g>
</g>
</svg>
