<?xml version="1.0" encoding="utf-8"?>
<!-- Generator: Adobe Illustrator 16.0.0, SVG Export Plug-In . SVG Version: 6.00 Build 0)  -->
<!DOCTYPE svg PUBLIC "-//W3C//DTD SVG 1.1//EN" "http://www.w3.org/Graphics/SVG/1.1/DTD/svg11.dtd">
<svg version="1.1" id="Layer_1" xmlns="http://www.w3.org/2000/svg" xmlns:xlink="http://www.w3.org/1999/xlink" x="0px" y="0px"
	 width="14px" height="15px" viewBox="0 0 14 15" enable-background="new 0 0 14 15" xml:space="preserve">
<g id="icOEel.tif">
	<g>
		<g>
			<path fill="none" d="M0.122,13.561c-0.136,0.031-0.163-0.023-0.163-0.158C-0.037,8.975-0.037,4.549-0.04,0.122
				C-0.04,0.022-0.018,0,0.081,0c4.44,0.003,8.88,0.003,13.32,0c0.1,0,0.122,0.022,0.121,0.122c-0.003,4.44-0.003,8.879,0,13.32
				c0,0.1-0.021,0.123-0.121,0.123c-1.534-0.006-3.069-0.004-4.604-0.004c0.001-0.018,0.007-0.035,0.004-0.053
				c-0.095-0.525-0.191-1.049-0.285-1.576c-0.013-0.066-0.057-0.094-0.109-0.121c-0.216-0.109-0.444-0.174-0.685-0.188
				c-0.086-0.006-0.118-0.039-0.112-0.121c0.011-0.16,0.017-0.318,0.027-0.477c0.023-0.361,0.056-0.723,0.068-1.084
				c0.012-0.34,0.082-0.682-0.043-1.022c-0.197-0.534-0.52-0.991-0.865-1.435c-0.056-0.071-0.1-0.05-0.147,0.011
				c-0.308,0.378-0.581,0.778-0.78,1.227C5.785,8.916,5.709,9.117,5.717,9.334c0.013,0.361,0.042,0.723,0.064,1.082
				c0.021,0.357,0.042,0.715,0.065,1.07c0.006,0.096-0.03,0.131-0.127,0.139c-0.222,0.014-0.433,0.076-0.638,0.166
				c-0.102,0.043-0.146,0.113-0.163,0.219c-0.048,0.291-0.108,0.582-0.153,0.873c-0.036,0.227-0.105,0.447-0.107,0.678
				c-0.124,0-0.247,0-0.372,0c-0.095-0.52-0.192-1.041-0.283-1.562c-0.017-0.096-0.057-0.156-0.147-0.199
				c-0.215-0.102-0.438-0.164-0.674-0.178c-0.079-0.004-0.112-0.033-0.106-0.113c0.012-0.162,0.022-0.326,0.032-0.488
				c0.034-0.537,0.067-1.074,0.1-1.611c0.009-0.161-0.018-0.317-0.07-0.47C2.952,8.395,2.625,7.936,2.271,7.491
				C2.21,7.413,2.168,7.439,2.118,7.503C1.901,7.772,1.71,8.058,1.526,8.351c-0.289,0.461-0.373,0.957-0.32,1.493
				c0.054,0.549,0.071,1.102,0.105,1.652c0.006,0.092-0.032,0.123-0.122,0.129c-0.232,0.012-0.45,0.08-0.66,0.18
				c-0.072,0.033-0.118,0.08-0.13,0.168c-0.022,0.166-0.06,0.328-0.089,0.494C0.247,12.832,0.185,13.195,0.122,13.561z M12.272,4.97
				c-0.012-0.175-0.047-0.338-0.107-0.496c-0.196-0.505-0.501-0.941-0.839-1.359c-0.073-0.092-0.115-0.035-0.161,0.023
				c-0.254,0.324-0.491,0.66-0.681,1.026c-0.16,0.311-0.263,0.635-0.233,0.991c0.024,0.295,0.034,0.59,0.053,0.885
				c0.023,0.353,0.045,0.705,0.073,1.056c0.008,0.096-0.004,0.15-0.118,0.154C10.022,7.26,9.8,7.33,9.586,7.431
				c-0.075,0.035-0.115,0.088-0.129,0.17C9.371,8.082,9.281,8.564,9.195,9.045C9.187,9.084,9.168,9.136,9.198,9.16
				c0.041,0.035,0.081-0.014,0.115-0.034c0.341-0.203,0.701-0.331,1.105-0.308c0.052,0.003,0.093-0.016,0.134-0.047
				c0.438-0.317,0.944-0.322,1.393-0.013c0.049,0.033,0.096,0.063,0.157,0.06c0.41-0.023,0.772,0.115,1.117,0.317
				c0.03,0.018,0.062,0.052,0.096,0.028c0.034-0.023,0.008-0.065,0.002-0.099c-0.086-0.481-0.177-0.963-0.257-1.445
				c-0.018-0.102-0.062-0.152-0.149-0.197c-0.209-0.104-0.432-0.157-0.662-0.176c-0.079-0.006-0.108-0.039-0.104-0.116
				c0.013-0.247,0.021-0.494,0.036-0.74C12.211,5.915,12.241,5.439,12.272,4.97z M11.281,8.887
				c-0.232-0.008-0.431,0.047-0.615,0.148c-0.179,0.098-0.277,0.236-0.256,0.453c0.012,0.115,0.03,0.227,0.064,0.336
				c0.167,0.555,0.436,1.061,0.719,1.561c0.06,0.105,0.088,0.084,0.133-0.004c0.129-0.246,0.267-0.49,0.389-0.74
				c0.169-0.344,0.319-0.699,0.388-1.082c0.044-0.248-0.026-0.39-0.244-0.518C11.673,8.932,11.475,8.884,11.281,8.887z"/>
			<path fill="#010101" d="M0.122,13.561c0.063-0.365,0.125-0.729,0.189-1.094c0.029-0.166,0.066-0.33,0.09-0.494
				c0.012-0.088,0.057-0.135,0.129-0.168c0.209-0.1,0.428-0.168,0.661-0.18c0.089-0.006,0.127-0.037,0.121-0.129
				c-0.035-0.551-0.051-1.104-0.105-1.652c-0.053-0.536,0.031-1.032,0.32-1.493C1.71,8.058,1.901,7.772,2.118,7.503
				c0.051-0.064,0.092-0.09,0.154-0.012c0.354,0.444,0.68,0.903,0.867,1.447c0.052,0.151,0.08,0.309,0.07,0.47
				c-0.034,0.537-0.068,1.074-0.102,1.611c-0.01,0.162-0.02,0.326-0.032,0.488c-0.006,0.08,0.027,0.109,0.105,0.113
				c0.236,0.014,0.46,0.076,0.675,0.178c0.09,0.043,0.131,0.104,0.147,0.199c0.091,0.521,0.188,1.041,0.283,1.562
				c-0.018,0-0.035,0-0.052,0c-0.338-0.221-0.698-0.379-1.113-0.363c-0.101,0.006-0.183-0.023-0.267-0.086
				c-0.363-0.27-0.922-0.275-1.293-0.014c-0.104,0.074-0.206,0.102-0.33,0.102c-0.393-0.002-0.74,0.137-1.057,0.361
				C0.157,13.561,0.139,13.561,0.122,13.561z M2.984,9.414C2.98,9.324,2.982,9.238,2.96,9.149c-0.127-0.489-0.399-0.9-0.694-1.301
				C2.211,7.772,2.171,7.798,2.125,7.86c-0.229,0.3-0.432,0.614-0.58,0.961C1.473,8.989,1.406,9.163,1.41,9.345
				c0.005,0.3,0.031,0.599,0.05,0.897c0.051,0.811,0.105,1.621,0.151,2.432c0.007,0.109,0.028,0.127,0.13,0.09
				c0.295-0.111,0.596-0.107,0.896-0.01c0.143,0.047,0.148,0.041,0.156-0.117c0.02-0.396,0.039-0.793,0.062-1.189
				C2.896,10.77,2.941,10.092,2.984,9.414z"/>
			<path fill="#010101" d="M4.658,13.561c0.001-0.23,0.071-0.451,0.107-0.678c0.045-0.291,0.104-0.582,0.153-0.873
				c0.018-0.105,0.061-0.176,0.163-0.219c0.205-0.09,0.416-0.152,0.638-0.166c0.097-0.008,0.133-0.043,0.127-0.139
				c-0.024-0.355-0.043-0.713-0.065-1.07c-0.022-0.359-0.051-0.721-0.064-1.082C5.708,9.118,5.784,8.916,5.87,8.722
				c0.2-0.448,0.473-0.849,0.781-1.227c0.047-0.06,0.091-0.082,0.146-0.011c0.346,0.443,0.668,0.898,0.865,1.435
				C7.788,9.26,7.717,9.602,7.706,9.941c-0.013,0.361-0.045,0.723-0.068,1.084c-0.01,0.158-0.016,0.316-0.028,0.477
				c-0.006,0.082,0.026,0.115,0.112,0.121c0.241,0.014,0.469,0.078,0.685,0.188c0.053,0.027,0.096,0.055,0.109,0.121
				c0.093,0.527,0.19,1.051,0.286,1.576c0.003,0.018-0.004,0.035-0.006,0.053c-0.009,0-0.018,0-0.026,0
				c-0.361-0.229-0.743-0.389-1.182-0.365c-0.065,0.004-0.117-0.02-0.17-0.059c-0.405-0.307-0.984-0.309-1.382-0.002
				c-0.052,0.039-0.104,0.066-0.169,0.061c-0.439-0.027-0.821,0.137-1.182,0.365C4.676,13.561,4.667,13.561,4.658,13.561z
				 M5.94,9.387c0.025,0.395,0.053,0.797,0.076,1.197c0.03,0.512,0.056,1.021,0.085,1.533c0.012,0.199,0.031,0.396,0.045,0.596
				c0.003,0.051,0.013,0.088,0.079,0.062c0.333-0.121,0.665-0.125,0.998,0c0.058,0.02,0.075,0.002,0.085-0.059
				c0.027-0.166,0.019-0.334,0.03-0.502c0.033-0.533,0.066-1.066,0.1-1.6c0.021-0.348,0.034-0.697,0.066-1.043
				c0.018-0.203,0.005-0.396-0.062-0.587C7.296,8.566,7.053,8.203,6.796,7.847C6.731,7.759,6.693,7.804,6.646,7.865
				C6.443,8.135,6.263,8.418,6.12,8.723C6.023,8.93,5.935,9.143,5.94,9.387z"/>
			<path fill="none" d="M0.174,13.561c0.317-0.225,0.665-0.363,1.057-0.361c0.124,0,0.226-0.027,0.33-0.102
				c0.372-0.262,0.93-0.254,1.293,0.014c0.084,0.062,0.167,0.092,0.267,0.086c0.415-0.016,0.774,0.143,1.113,0.363
				C2.881,13.561,1.528,13.561,0.174,13.561z"/>
			<path fill="none" d="M4.685,13.561c0.361-0.229,0.743-0.391,1.182-0.363c0.065,0.004,0.118-0.021,0.169-0.061
				c0.398-0.309,0.978-0.307,1.382,0.002c0.052,0.039,0.105,0.061,0.17,0.057c0.439-0.023,0.821,0.137,1.182,0.365
				C7.409,13.561,6.047,13.561,4.685,13.561z"/>
			<path fill="#010101" d="M12.272,4.97c-0.03,0.469-0.062,0.945-0.091,1.421c-0.016,0.246-0.024,0.493-0.037,0.74
				c-0.004,0.077,0.026,0.11,0.105,0.116c0.231,0.019,0.453,0.072,0.661,0.176c0.087,0.045,0.132,0.096,0.149,0.197
				c0.08,0.482,0.172,0.964,0.257,1.445c0.008,0.033,0.033,0.075-0.002,0.099c-0.033,0.023-0.065-0.01-0.096-0.028
				c-0.344-0.202-0.707-0.341-1.117-0.317c-0.062,0.004-0.108-0.026-0.156-0.06c-0.448-0.31-0.955-0.305-1.393,0.013
				c-0.042,0.029-0.083,0.05-0.135,0.047c-0.404-0.023-0.765,0.104-1.104,0.308C9.28,9.146,9.24,9.195,9.198,9.16
				c-0.029-0.025-0.01-0.076-0.003-0.115c0.087-0.48,0.176-0.963,0.262-1.444c0.014-0.082,0.054-0.134,0.129-0.17
				c0.214-0.101,0.437-0.172,0.673-0.18c0.114-0.004,0.127-0.059,0.119-0.154c-0.029-0.352-0.051-0.704-0.073-1.056
				c-0.02-0.295-0.029-0.59-0.054-0.885c-0.029-0.356,0.073-0.681,0.233-0.991c0.191-0.366,0.427-0.702,0.681-1.026
				c0.046-0.058,0.088-0.115,0.162-0.023c0.338,0.417,0.643,0.854,0.838,1.359C12.226,4.632,12.261,4.795,12.272,4.97z M10.48,5.09
				c0,0.034-0.003,0.096,0,0.158c0.043,0.696,0.088,1.392,0.131,2.088c0.02,0.317,0.037,0.635,0.055,0.952
				c0.005,0.101,0.031,0.142,0.146,0.099c0.259-0.097,0.525-0.1,0.795-0.034c0.071,0.019,0.153,0.089,0.209,0.05
				c0.064-0.043,0.024-0.147,0.03-0.225c0.036-0.546,0.067-1.092,0.103-1.638c0.023-0.37,0.042-0.74,0.074-1.11
				c0.033-0.379,0.023-0.746-0.159-1.095c-0.159-0.302-0.335-0.591-0.541-0.864c-0.055-0.073-0.081-0.07-0.131,0
				c-0.225,0.308-0.436,0.624-0.586,0.976C10.522,4.642,10.454,4.842,10.48,5.09z"/>
			<path fill="#010101" d="M11.281,8.887c0.193-0.004,0.393,0.045,0.576,0.152c0.217,0.129,0.288,0.271,0.244,0.52
				c-0.067,0.383-0.218,0.736-0.388,1.082c-0.123,0.25-0.259,0.492-0.388,0.738c-0.045,0.088-0.074,0.109-0.133,0.006
				c-0.283-0.5-0.552-1.008-0.72-1.562c-0.033-0.109-0.052-0.221-0.063-0.336c-0.021-0.217,0.077-0.354,0.255-0.451
				C10.851,8.934,11.049,8.879,11.281,8.887z M11.21,9.102c-0.054-0.003-0.153,0.018-0.251,0.048
				c-0.333,0.104-0.396,0.209-0.307,0.548c0.119,0.449,0.323,0.865,0.547,1.271c0.046,0.084,0.078,0.084,0.119,0
				c0.143-0.293,0.308-0.576,0.416-0.885c0.06-0.166,0.123-0.33,0.154-0.506c0.035-0.206-0.005-0.285-0.195-0.379
				C11.557,9.133,11.409,9.106,11.21,9.102z"/>
			<path fill="none" d="M2.984,9.414c-0.043,0.678-0.088,1.355-0.129,2.033c-0.024,0.396-0.043,0.795-0.062,1.189
				c-0.007,0.158-0.013,0.164-0.156,0.119c-0.299-0.1-0.6-0.104-0.896,0.008c-0.102,0.037-0.124,0.02-0.13-0.088
				c-0.046-0.812-0.1-1.623-0.151-2.434C1.441,9.943,1.415,9.645,1.41,9.345C1.407,9.163,1.473,8.99,1.545,8.822
				C1.693,8.475,1.896,8.16,2.125,7.86c0.046-0.062,0.086-0.088,0.141-0.012C2.56,8.249,2.833,8.66,2.96,9.15
				C2.982,9.238,2.98,9.326,2.984,9.414z M2.65,9.357C2.651,9.091,2.46,8.891,2.2,8.885C1.968,8.881,1.737,9.106,1.736,9.34
				C1.735,9.59,1.949,9.801,2.204,9.801C2.451,9.801,2.649,9.604,2.65,9.357z M2.571,10.416c-0.001-0.215-0.164-0.377-0.376-0.375
				c-0.21,0.002-0.383,0.176-0.379,0.381c0.003,0.201,0.182,0.379,0.384,0.379C2.404,10.801,2.573,10.627,2.571,10.416z
				 M2.497,11.336c0-0.162-0.144-0.305-0.305-0.301c-0.155,0.002-0.298,0.146-0.298,0.299c0,0.164,0.138,0.303,0.303,0.301
				C2.374,11.635,2.497,11.512,2.497,11.336z"/>
			<path fill="none" d="M5.94,9.387C5.935,9.143,6.022,8.931,6.12,8.723c0.144-0.307,0.323-0.59,0.526-0.858
				c0.046-0.061,0.085-0.107,0.149-0.018c0.257,0.356,0.5,0.718,0.646,1.138c0.067,0.191,0.08,0.385,0.062,0.586
				c-0.032,0.348-0.044,0.697-0.066,1.045c-0.033,0.533-0.067,1.066-0.1,1.6c-0.011,0.168-0.002,0.336-0.03,0.502
				c-0.01,0.059-0.027,0.078-0.085,0.057c-0.333-0.123-0.666-0.119-0.998,0.002c-0.065,0.025-0.075-0.012-0.079-0.064
				c-0.014-0.197-0.033-0.395-0.045-0.594c-0.03-0.512-0.055-1.023-0.085-1.533C5.993,10.184,5.966,9.781,5.94,9.387z M6.726,9.801
				c0.25,0,0.457-0.205,0.459-0.455c0.002-0.244-0.212-0.459-0.456-0.459C6.486,8.885,6.271,9.1,6.271,9.344
				C6.271,9.594,6.476,9.801,6.726,9.801z M6.74,10.043c-0.215-0.004-0.385,0.154-0.391,0.365c-0.005,0.207,0.166,0.391,0.367,0.393
				c0.213,0.004,0.389-0.17,0.391-0.385C7.108,10.215,6.944,10.047,6.74,10.043z M7.028,11.336c-0.001-0.168-0.14-0.305-0.305-0.301
				c-0.166,0.004-0.297,0.143-0.293,0.314c0.003,0.164,0.13,0.287,0.3,0.287C6.903,11.639,7.029,11.512,7.028,11.336z"/>
			<path fill="none" d="M10.48,5.09c-0.026-0.247,0.042-0.447,0.125-0.644c0.149-0.353,0.36-0.668,0.585-0.976
				c0.05-0.07,0.076-0.073,0.132,0c0.205,0.272,0.381,0.562,0.54,0.864c0.184,0.349,0.192,0.716,0.159,1.095
				c-0.032,0.369-0.052,0.739-0.073,1.11c-0.035,0.546-0.067,1.092-0.104,1.639c-0.006,0.076,0.034,0.181-0.029,0.224
				c-0.056,0.039-0.138-0.032-0.21-0.05c-0.27-0.064-0.535-0.062-0.795,0.035c-0.114,0.043-0.141,0.001-0.146-0.1
				c-0.018-0.317-0.034-0.636-0.055-0.952c-0.043-0.697-0.086-1.393-0.129-2.088C10.479,5.186,10.48,5.124,10.48,5.09z
				 M11.258,5.417c0.249-0.001,0.449-0.2,0.449-0.444c-0.001-0.236-0.205-0.455-0.429-0.457c-0.257-0.004-0.474,0.214-0.468,0.472
				C10.815,5.228,11.015,5.419,11.258,5.417z M11.254,5.676c-0.199-0.002-0.363,0.157-0.364,0.355
				c-0.003,0.207,0.156,0.381,0.355,0.387c0.19,0.006,0.379-0.172,0.385-0.363C11.637,5.851,11.466,5.678,11.254,5.676z
				 M10.968,6.967c0,0.158,0.132,0.294,0.282,0.296c0.155,0.002,0.308-0.152,0.306-0.309c0-0.139-0.157-0.29-0.296-0.288
				C11.097,6.67,10.967,6.803,10.968,6.967z"/>
			<path fill="none" d="M11.21,9.102c0.199,0.005,0.347,0.031,0.484,0.098c0.19,0.093,0.23,0.172,0.194,0.379
				c-0.03,0.174-0.094,0.34-0.153,0.506c-0.109,0.309-0.273,0.592-0.416,0.885c-0.041,0.084-0.074,0.082-0.119,0
				c-0.225-0.406-0.428-0.822-0.548-1.271c-0.089-0.34-0.025-0.443,0.307-0.549C11.057,9.119,11.156,9.099,11.21,9.102z"/>
			<path fill="#010101" d="M2.65,9.357c0,0.246-0.199,0.443-0.446,0.443c-0.255,0-0.469-0.211-0.467-0.461
				c0-0.232,0.231-0.459,0.463-0.455C2.46,8.891,2.651,9.091,2.65,9.357z M2.503,9.338C2.501,9.176,2.358,9.033,2.198,9.033
				C2.033,9.035,1.882,9.19,1.888,9.352c0.006,0.164,0.147,0.301,0.312,0.301C2.376,9.652,2.505,9.52,2.503,9.338z"/>
			<path fill="#010101" d="M2.571,10.416c0.001,0.211-0.167,0.387-0.371,0.385c-0.202,0-0.38-0.178-0.384-0.379
				c-0.004-0.205,0.168-0.379,0.379-0.381C2.407,10.037,2.569,10.199,2.571,10.416z M2.424,10.424
				c0.002-0.135-0.084-0.227-0.219-0.23c-0.132-0.002-0.243,0.102-0.242,0.227c0.001,0.115,0.114,0.227,0.232,0.229
				C2.323,10.65,2.422,10.553,2.424,10.424z"/>
			<path fill="#010101" d="M2.497,11.336c0,0.176-0.123,0.299-0.3,0.299c-0.166,0.002-0.303-0.137-0.303-0.301
				c0-0.152,0.143-0.297,0.298-0.299C2.353,11.031,2.497,11.174,2.497,11.336z M2.186,11.484c0.104-0.002,0.156-0.051,0.158-0.146
				c0.001-0.098-0.056-0.152-0.146-0.152s-0.15,0.061-0.151,0.15C2.044,11.426,2.098,11.482,2.186,11.484z"/>
			<path fill="#010101" d="M6.726,9.801c-0.25,0-0.456-0.207-0.455-0.456c0-0.244,0.215-0.458,0.458-0.458
				c0.244,0.001,0.458,0.217,0.457,0.459C7.183,9.596,6.976,9.801,6.726,9.801z M6.736,9.65c0.166-0.002,0.304-0.143,0.3-0.307
				C7.031,9.171,6.888,9.031,6.719,9.035c-0.161,0.002-0.303,0.15-0.3,0.311C6.422,9.521,6.562,9.654,6.736,9.65z"/>
			<path fill="#010101" d="M6.74,10.043c0.204,0.004,0.368,0.172,0.367,0.373c-0.002,0.215-0.178,0.389-0.391,0.385
				c-0.201-0.002-0.372-0.188-0.367-0.393C6.355,10.197,6.525,10.039,6.74,10.043z M6.733,10.195c-0.142,0-0.235,0.092-0.233,0.229
				c0.001,0.125,0.09,0.213,0.216,0.217c0.141,0.004,0.238-0.086,0.241-0.221C6.959,10.293,6.865,10.197,6.733,10.195z"/>
			<path fill="#010101" d="M7.028,11.336c0.001,0.176-0.124,0.303-0.3,0.301c-0.169,0-0.295-0.123-0.299-0.289
				c-0.003-0.17,0.127-0.309,0.293-0.312C6.888,11.031,7.026,11.168,7.028,11.336z M6.88,11.336c-0.01-0.094-0.062-0.15-0.154-0.148
				c-0.093,0-0.147,0.057-0.146,0.15c0.001,0.096,0.056,0.148,0.151,0.146C6.827,11.482,6.874,11.428,6.88,11.336z"/>
			<path fill="#010101" d="M11.258,5.417c-0.243,0.002-0.442-0.19-0.447-0.428c-0.006-0.258,0.211-0.475,0.468-0.472
				c0.224,0.003,0.428,0.22,0.429,0.457C11.707,5.217,11.507,5.416,11.258,5.417z M11.263,5.282c0.166,0,0.316-0.148,0.314-0.31
				c-0.003-0.167-0.151-0.319-0.312-0.318c-0.172,0-0.317,0.148-0.317,0.324C10.947,5.154,11.078,5.281,11.263,5.282z"/>
			<path fill="#010101" d="M11.254,5.676c0.212,0.002,0.383,0.174,0.376,0.38c-0.006,0.191-0.194,0.369-0.385,0.363
				c-0.199-0.006-0.358-0.18-0.355-0.386C10.891,5.833,11.055,5.674,11.254,5.676z M11.026,6.035
				c-0.005,0.136,0.1,0.247,0.236,0.248c0.122,0.001,0.23-0.103,0.233-0.226c0.004-0.129-0.1-0.24-0.228-0.244
				C11.125,5.809,11.032,5.895,11.026,6.035z"/>
			<path fill="#010101" d="M10.968,6.967c-0.001-0.164,0.129-0.297,0.292-0.301c0.139-0.002,0.296,0.149,0.296,0.288
				c0.002,0.156-0.15,0.311-0.306,0.309C11.1,7.261,10.968,7.125,10.968,6.967z M11.1,6.957c-0.002,0.094,0.076,0.179,0.156,0.17
				c0.094-0.011,0.15-0.07,0.16-0.165c0.008-0.085-0.072-0.165-0.157-0.158C11.162,6.812,11.11,6.87,11.1,6.957z"/>
			<path fill="none" d="M2.503,9.338C2.505,9.52,2.376,9.652,2.199,9.652c-0.165,0-0.305-0.137-0.312-0.301
				C1.882,9.19,2.033,9.035,2.198,9.033C2.358,9.033,2.501,9.176,2.503,9.338z"/>
			<path fill="none" d="M2.424,10.424c-0.002,0.129-0.102,0.227-0.228,0.225c-0.119-0.002-0.231-0.113-0.233-0.229
				c-0.001-0.125,0.11-0.229,0.243-0.227C2.34,10.197,2.426,10.289,2.424,10.424z"/>
			<path fill="none" d="M2.186,11.484c-0.088-0.002-0.142-0.059-0.141-0.148s0.061-0.15,0.152-0.15c0.09,0,0.147,0.055,0.146,0.15
				C2.342,11.434,2.29,11.482,2.186,11.484z"/>
			<path fill="none" d="M6.736,9.65C6.561,9.654,6.422,9.52,6.419,9.346c-0.002-0.16,0.14-0.309,0.3-0.311
				C6.888,9.03,7.032,9.17,7.036,9.344C7.04,9.508,6.902,9.648,6.736,9.65z"/>
			<path fill="none" d="M6.733,10.195c0.131,0.002,0.227,0.096,0.224,0.225c-0.003,0.135-0.101,0.225-0.241,0.221
				C6.59,10.637,6.501,10.549,6.5,10.424C6.498,10.287,6.591,10.195,6.733,10.195z"/>
			<path fill="none" d="M6.88,11.336c-0.006,0.092-0.054,0.148-0.149,0.148c-0.095,0.002-0.15-0.049-0.151-0.145
				c-0.001-0.094,0.052-0.152,0.146-0.152C6.817,11.186,6.87,11.242,6.88,11.336z"/>
			<path fill="none" d="M11.263,5.282c-0.185,0-0.315-0.128-0.314-0.303c0.001-0.176,0.146-0.324,0.317-0.325
				c0.16,0,0.309,0.151,0.312,0.318C11.579,5.134,11.429,5.282,11.263,5.282z"/>
			<path fill="none" d="M11.026,6.035c0.006-0.141,0.099-0.227,0.242-0.222c0.128,0.004,0.232,0.115,0.228,0.244
				c-0.003,0.123-0.111,0.227-0.233,0.226C11.126,6.282,11.021,6.171,11.026,6.035z"/>
			<path fill="none" d="M11.1,6.957c0.011-0.087,0.062-0.146,0.159-0.153c0.085-0.007,0.165,0.073,0.157,0.158
				c-0.01,0.095-0.066,0.154-0.16,0.165C11.176,7.136,11.098,7.051,11.1,6.957z"/>
		</g>
	</g>
</g>
</svg>
