<?xml version="1.0" encoding="utf-8"?>
<!-- Generator: Adobe Illustrator 16.0.0, SVG Export Plug-In . SVG Version: 6.00 Build 0)  -->
<!DOCTYPE svg PUBLIC "-//W3C//DTD SVG 1.1//EN" "http://www.w3.org/Graphics/SVG/1.1/DTD/svg11.dtd">
<svg version="1.1" id="Layer_1" xmlns="http://www.w3.org/2000/svg" xmlns:xlink="http://www.w3.org/1999/xlink" x="0px" y="0px"
	 width="14px" height="15px" viewBox="0 0 14 15" enable-background="new 0 0 14 15" xml:space="preserve">
<g id="_x38_kk1Vm.tif">
	<g>
		<g>
			<path fill="none" d="M0.743,8.373c0-2.174,0.001-4.348-0.002-6.521c0-0.097,0.025-0.111,0.114-0.111
				c4.335,0.002,8.67,0.002,13.005,0c0.089,0,0.115,0.012,0.115,0.11c-0.003,4.348-0.003,8.696-0.001,13.044
				c0,0.092-0.021,0.105-0.107,0.104C9.528,14.996,5.189,14.996,0.85,15c-0.106,0-0.107-0.037-0.107-0.117
				C0.743,12.713,0.743,10.543,0.743,8.373z M11.555,5.477c0.396,0,0.988-0.348,1.157-0.648c0.038-0.069,0.027-0.133-0.008-0.197
				c-0.057-0.103-0.133-0.19-0.213-0.275c-0.666-0.699-1.413-1.291-2.243-1.779c-0.32-0.188-0.646-0.368-0.994-0.5
				c-0.186-0.071-0.266-0.04-0.359,0.135c-0.04,0.076-0.079,0.153-0.11,0.233C8.616,2.875,8.572,3.291,8.857,3.701
				c0.154,0.222,0.266,0.473,0.398,0.71C9.31,4.507,9.304,4.56,9.186,4.615c-0.213,0.1-0.418,0.216-0.639,0.303
				C8.416,4.97,8.32,5.075,8.24,5.189C8.214,5.227,8.176,5.278,8.183,5.315c0.024,0.121-0.053,0.193-0.11,0.276
				C8.021,5.666,7.966,5.738,7.919,5.815c-0.206,0.334-0.185,0.699,0.057,1c0.084,0.105,0.188,0.191,0.297,0.268
				C8.749,7.411,9.23,7.335,9.581,6.878c0.053-0.069,0.102-0.139,0.155-0.207C9.758,6.645,9.779,6.609,9.81,6.6
				c0.258-0.087,0.336-0.308,0.356-0.536c0.021-0.249,0.081-0.49,0.1-0.738c0.005-0.076,0.031-0.085,0.095-0.072
				c0.166,0.031,0.331,0.057,0.497,0.087C11.107,5.388,11.353,5.46,11.555,5.477z M4.499,5.787c0,0.3,0.047,0.516,0.198,0.697
				c0.024,0.03,0.054,0.07,0.086,0.075c0.129,0.021,0.178,0.127,0.245,0.213c0.05,0.065,0.098,0.132,0.15,0.194
				c0.232,0.279,0.604,0.388,0.934,0.269c0.227-0.082,0.423-0.216,0.58-0.4c0.251-0.293,0.286-0.649,0.094-0.986
				C6.721,5.733,6.638,5.627,6.563,5.516C6.54,5.481,6.501,5.449,6.504,5.404c0.017-0.239-0.15-0.366-0.319-0.458
				C5.961,4.822,5.723,4.72,5.491,4.61C5.389,4.561,5.375,4.523,5.423,4.429c0.142-0.282,0.306-0.55,0.459-0.825
				c0.067-0.121,0.138-0.24,0.151-0.382C6.07,2.823,5.944,2.467,5.744,2.131C5.698,2.054,5.624,2.034,5.542,2.049
				c-0.06,0.012-0.119,0.03-0.173,0.054C4.115,2.664,3.03,3.458,2.099,4.466C2.055,4.513,2.021,4.569,1.988,4.625
				c-0.05,0.087-0.046,0.171,0.023,0.251C2.162,5.05,2.339,5.192,2.538,5.31c0.264,0.158,0.539,0.203,0.844,0.128
				C3.687,5.363,3.995,5.295,4.308,5.26C4.351,5.255,4.4,5.237,4.413,5.299C4.448,5.484,4.479,5.67,4.499,5.787z M13.825,8.293
				c0.002-0.355-0.023-0.384-0.312-0.426c-0.017-0.002-0.033-0.008-0.051-0.01c-0.525-0.062-0.993,0.019-1.337,0.482
				c-0.159,0.219-0.357,0.408-0.554,0.596c-0.059,0.057-0.093,0.066-0.151-0.008c-0.156-0.193-0.359-0.342-0.508-0.545
				c-0.05-0.066-0.128-0.115-0.207-0.15c-0.099-0.045-0.2-0.104-0.308-0.066c-0.077,0.027-0.142,0.016-0.213-0.008
				C10.104,8.133,10.022,8.105,9.94,8.08c-0.42-0.131-0.794,0.006-1.029,0.377c-0.12,0.191-0.18,0.402-0.195,0.623
				C8.694,9.365,8.802,9.6,9.021,9.787C9.18,9.92,9.372,9.969,9.558,10.033c0.053,0.02,0.121,0.023,0.15,0.07
				c0.104,0.17,0.273,0.191,0.441,0.186c0.296-0.008,0.578-0.111,0.873-0.145c0.076-0.008,0.113-0.016,0.13,0.076
				c0.045,0.248,0.068,0.496,0.097,0.742c0.03,0.256,0.025,0.521,0.194,0.74c0.207,0.27,0.477,0.457,0.784,0.596
				c0.096,0.043,0.175,0.021,0.245-0.053c0.081-0.086,0.137-0.189,0.191-0.291c0.402-0.746,0.712-1.529,0.921-2.354
				C13.698,9.15,13.788,8.693,13.825,8.293z M1.515,7.844c-0.061,0-0.121-0.006-0.18,0.001c-0.47,0.058-0.518,0.045-0.458,0.547
				c0.147,1.219,0.522,2.371,1.092,3.457c0.058,0.113,0.12,0.221,0.19,0.326c0.104,0.154,0.195,0.176,0.363,0.096
				c0.089-0.043,0.178-0.09,0.26-0.145c0.361-0.242,0.628-0.535,0.646-1.01c0.011-0.305,0.047-0.609,0.114-0.91
				c0.012-0.055,0.023-0.086,0.091-0.068c0.235,0.07,0.483,0.062,0.721,0.137c0.19,0.059,0.411,0.045,0.563-0.098
				c0.095-0.09,0.192-0.135,0.305-0.174C5.292,9.979,5.364,9.963,5.431,9.93C5.708,9.805,5.914,9.611,5.96,9.295
				c0.055-0.381-0.062-0.717-0.309-1.006c-0.116-0.135-0.273-0.203-0.447-0.24C4.981,8.004,4.777,8.07,4.572,8.137
				C4.474,8.168,4.381,8.215,4.274,8.16c-0.041-0.02-0.093-0.002-0.139,0.012c-0.142,0.037-0.276,0.104-0.36,0.217
				c-0.151,0.201-0.355,0.35-0.51,0.545C3.211,9,3.179,8.994,3.122,8.941C2.916,8.744,2.716,8.539,2.54,8.316
				C2.273,7.98,1.94,7.819,1.515,7.844z M8.328,10.838c-0.001-0.645-0.262-0.957-0.86-1.037C6.896,9.727,6.45,10.045,6.372,10.59
				c-0.017,0.123-0.007,0.25-0.011,0.375c-0.001,0.047,0.007,0.1-0.026,0.137c-0.09,0.104-0.083,0.221-0.061,0.344
				c0.059,0.328,0.296,0.568,0.417,0.867c0.062,0.152,0.089,0.146-0.067,0.223c-0.314,0.152-0.631,0.299-0.947,0.447
				c-0.162,0.074-0.283,0.191-0.373,0.346c-0.132,0.227-0.214,0.469-0.253,0.729c-0.034,0.223,0.011,0.299,0.23,0.354
				c0.588,0.15,1.189,0.193,1.792,0.223c0.436,0.021,0.871-0.012,1.304-0.053c0.352-0.035,0.702-0.078,1.045-0.172
				c0.202-0.057,0.256-0.137,0.22-0.34c-0.024-0.131-0.052-0.264-0.094-0.389c-0.113-0.34-0.295-0.617-0.649-0.758
				c-0.261-0.102-0.511-0.229-0.764-0.352c-0.211-0.104-0.198-0.102-0.1-0.312c0.084-0.178,0.174-0.354,0.277-0.52
				c0.104-0.168,0.173-0.367,0.083-0.555C8.339,11.064,8.331,10.955,8.328,10.838z"/>
			<path fill="#010101" d="M11.555,5.477c-0.202-0.017-0.447-0.089-0.696-0.136c-0.165-0.031-0.331-0.055-0.496-0.087
				c-0.065-0.012-0.092-0.003-0.097,0.072c-0.019,0.248-0.077,0.49-0.099,0.738c-0.021,0.229-0.1,0.449-0.357,0.535
				C9.78,6.61,9.758,6.646,9.737,6.672C9.684,6.74,9.634,6.81,9.581,6.878C9.23,7.336,8.749,7.412,8.274,7.083
				c-0.11-0.075-0.213-0.162-0.297-0.267C7.735,6.515,7.715,6.149,7.92,5.815c0.047-0.077,0.102-0.149,0.152-0.224
				C8.13,5.508,8.208,5.437,8.184,5.316C8.177,5.278,8.215,5.228,8.241,5.189C8.32,5.075,8.416,4.97,8.548,4.918
				c0.221-0.087,0.426-0.203,0.639-0.303C9.304,4.56,9.31,4.508,9.257,4.412c-0.133-0.237-0.244-0.488-0.398-0.71
				C8.572,3.291,8.616,2.875,8.784,2.447c0.031-0.081,0.07-0.158,0.111-0.234c0.094-0.174,0.174-0.206,0.359-0.135
				c0.348,0.133,0.674,0.312,0.993,0.5c0.83,0.488,1.579,1.081,2.243,1.779c0.08,0.085,0.157,0.172,0.213,0.276
				c0.035,0.063,0.046,0.127,0.008,0.196C12.544,5.129,11.951,5.477,11.555,5.477z"/>
			<path fill="#010101" d="M4.499,5.787C4.478,5.67,4.447,5.484,4.413,5.3C4.4,5.237,4.351,5.255,4.308,5.26
				C3.995,5.295,3.687,5.363,3.381,5.438C3.077,5.513,2.802,5.468,2.538,5.31C2.339,5.192,2.162,5.05,2.012,4.875
				c-0.07-0.08-0.074-0.164-0.023-0.251c0.032-0.056,0.067-0.112,0.111-0.159C3.03,3.458,4.115,2.664,5.37,2.103
				c0.054-0.024,0.113-0.042,0.172-0.054c0.082-0.015,0.157,0.005,0.202,0.082c0.2,0.336,0.327,0.692,0.289,1.091
				C6.019,3.364,5.948,3.484,5.881,3.604C5.728,3.879,5.563,4.147,5.422,4.429C5.375,4.524,5.388,4.562,5.491,4.611
				c0.232,0.11,0.47,0.212,0.694,0.336C6.354,5.04,6.521,5.166,6.503,5.405C6.5,5.45,6.539,5.482,6.563,5.518
				C6.637,5.628,6.721,5.734,6.787,5.85c0.191,0.336,0.156,0.693-0.095,0.986C6.535,7.02,6.339,7.155,6.112,7.236
				c-0.33,0.12-0.702,0.011-0.934-0.268c-0.052-0.063-0.1-0.13-0.15-0.195C4.96,6.687,4.912,6.581,4.783,6.56
				C4.751,6.555,4.721,6.515,4.697,6.486C4.546,6.302,4.5,6.087,4.499,5.787z"/>
			<path fill="#010101" d="M13.825,8.293c-0.037,0.402-0.127,0.857-0.241,1.309c-0.208,0.824-0.518,1.607-0.922,2.354
				c-0.055,0.102-0.109,0.205-0.19,0.291c-0.071,0.074-0.149,0.096-0.246,0.053c-0.307-0.139-0.575-0.326-0.784-0.596
				c-0.169-0.219-0.163-0.484-0.193-0.74c-0.029-0.246-0.053-0.494-0.096-0.742c-0.018-0.094-0.055-0.084-0.132-0.076
				c-0.294,0.033-0.576,0.139-0.872,0.145c-0.168,0.006-0.337-0.016-0.441-0.186c-0.029-0.047-0.098-0.051-0.15-0.07
				C9.371,9.969,9.179,9.92,9.021,9.787C8.801,9.6,8.692,9.365,8.715,9.08C8.73,8.859,8.789,8.648,8.91,8.457
				C9.146,8.086,9.52,7.949,9.939,8.08c0.082,0.025,0.164,0.053,0.246,0.078c0.069,0.023,0.135,0.033,0.212,0.008
				c0.108-0.037,0.21,0.021,0.308,0.066c0.079,0.035,0.157,0.084,0.207,0.15c0.148,0.203,0.353,0.352,0.508,0.545
				c0.06,0.074,0.093,0.064,0.151,0.008c0.197-0.188,0.395-0.377,0.555-0.596c0.343-0.463,0.811-0.544,1.335-0.482
				c0.018,0.002,0.034,0.008,0.052,0.01C13.802,7.908,13.827,7.938,13.825,8.293z"/>
			<path fill="#010101" d="M1.515,7.844C1.94,7.819,2.273,7.98,2.538,8.316C2.714,8.539,2.914,8.742,3.12,8.941
				C3.177,8.994,3.209,9,3.262,8.934c0.156-0.195,0.36-0.344,0.511-0.545c0.084-0.113,0.219-0.18,0.36-0.217
				c0.046-0.014,0.099-0.031,0.14-0.012C4.379,8.215,4.473,8.168,4.57,8.137C4.775,8.07,4.98,8.004,5.202,8.049
				c0.174,0.037,0.331,0.105,0.448,0.24c0.247,0.289,0.364,0.625,0.308,1.006C5.912,9.611,5.707,9.805,5.429,9.93
				c-0.066,0.033-0.138,0.049-0.208,0.074c-0.112,0.039-0.21,0.084-0.305,0.174c-0.153,0.143-0.373,0.156-0.563,0.098
				c-0.238-0.074-0.486-0.066-0.721-0.137c-0.067-0.018-0.078,0.012-0.091,0.068c-0.067,0.301-0.104,0.605-0.115,0.91
				c-0.017,0.475-0.285,0.77-0.646,1.01c-0.083,0.055-0.17,0.102-0.26,0.145c-0.169,0.08-0.26,0.057-0.364-0.096
				c-0.07-0.105-0.132-0.213-0.189-0.326c-0.57-1.086-0.945-2.238-1.092-3.457c-0.06-0.501-0.012-0.489,0.458-0.547
				C1.394,7.838,1.455,7.844,1.515,7.844z"/>
			<path fill="#010101" d="M8.328,10.838c0.003,0.117,0.011,0.227,0.067,0.344c0.089,0.188,0.021,0.387-0.083,0.555
				c-0.104,0.168-0.194,0.342-0.277,0.521c-0.099,0.209-0.112,0.209,0.1,0.311c0.252,0.123,0.503,0.25,0.764,0.352
				c0.354,0.141,0.536,0.418,0.649,0.758c0.041,0.127,0.069,0.258,0.093,0.391c0.037,0.203-0.018,0.283-0.219,0.338
				c-0.343,0.096-0.693,0.137-1.046,0.172c-0.433,0.043-0.867,0.074-1.303,0.053c-0.603-0.029-1.204-0.07-1.792-0.221
				c-0.22-0.057-0.265-0.131-0.231-0.355c0.039-0.258,0.121-0.5,0.253-0.727c0.089-0.154,0.211-0.271,0.373-0.348
				c0.316-0.146,0.633-0.293,0.947-0.447c0.156-0.074,0.128-0.07,0.067-0.221c-0.122-0.301-0.358-0.541-0.417-0.869
				c-0.022-0.121-0.028-0.24,0.062-0.344c0.033-0.037,0.024-0.088,0.026-0.135c0.003-0.125-0.006-0.252,0.011-0.375
				c0.078-0.547,0.523-0.865,1.096-0.789C8.066,9.881,8.327,10.193,8.328,10.838z"/>
		</g>
	</g>
</g>
</svg>
