<?xml version="1.0" encoding="utf-8"?>
<!-- Generator: Adobe Illustrator 16.0.0, SVG Export Plug-In . SVG Version: 6.00 Build 0)  -->
<!DOCTYPE svg PUBLIC "-//W3C//DTD SVG 1.1//EN" "http://www.w3.org/Graphics/SVG/1.1/DTD/svg11.dtd">
<svg version="1.1" id="Layer_1" xmlns="http://www.w3.org/2000/svg" xmlns:xlink="http://www.w3.org/1999/xlink" x="0px" y="0px"
	 width="14px" height="15px" viewBox="0 0 14 15" enable-background="new 0 0 14 15" xml:space="preserve">
<g id="_x34_KoQue.tif">
	<g>
		<path fill="#010101" d="M7.016,7.937c1.752,0,3.505,0.002,5.258,0c0.243-0.001,0.452,0.064,0.564,0.291
			c0.051,0.104,0.08,0.245,0.056,0.356c-0.359,1.739-0.728,3.476-1.099,5.212c-0.03,0.141-0.072,0.289-0.148,0.408
			c-0.1,0.157-0.277,0.201-0.461,0.201c-0.8,0-1.6,0.003-2.399,0.003c-1.479,0-2.958,0-4.437,0c-0.482,0-0.964,0.005-1.446,0
			c-0.43-0.005-0.589-0.153-0.677-0.577c-0.223-1.081-0.456-2.159-0.684-3.239c-0.14-0.664-0.28-1.326-0.418-1.989
			c-0.07-0.337,0.156-0.639,0.503-0.66c0.191-0.013,0.383-0.01,0.575-0.01c1.605-0.001,3.209-0.001,4.815-0.001
			C7.016,7.934,7.016,7.935,7.016,7.937z M7.004,11.516c0.166,0.002,0.305-0.134,0.304-0.298c-0.002-0.162-0.125-0.283-0.294-0.289
			c-0.163-0.005-0.295,0.119-0.3,0.279C6.71,11.382,6.834,11.514,7.004,11.516z"/>
		<path fill="#010101" d="M11.385,7.771c-2.933,0-5.817,0-8.719,0c0.086-0.377,0.243-0.709,0.439-1.025
			c0.377-0.611,0.958-0.831,1.64-0.863c0.208-0.011,0.415-0.03,0.63-0.046c0.312,0.568,0.774,1.033,1.228,1.546
			c0.063-0.256,0.124-0.481,0.173-0.708c0.008-0.039-0.023-0.088-0.04-0.132C6.688,6.421,6.638,6.299,6.579,6.152
			c0.302,0,0.556,0,0.846,0C7.383,6.283,7.374,6.417,7.305,6.5c-0.085,0.104-0.071,0.188-0.04,0.295
			c0.052,0.183,0.094,0.369,0.148,0.585C7.863,6.873,8.325,6.414,8.647,5.83c0.338,0.034,0.686,0.065,1.031,0.107
			c0.656,0.077,1.077,0.477,1.367,1.035C11.175,7.22,11.267,7.487,11.385,7.771z"/>
		<path fill="#010101" d="M7.007,0.205c0.57,0.02,1.1,0.137,1.542,0.52c0.462,0.399,0.629,0.932,0.662,1.519
			c0.01,0.186,0.001,0.359,0.099,0.545c0.168,0.318-0.003,0.95-0.267,1.185C9.002,4.011,8.971,4.066,8.949,4.119
			C8.729,4.64,8.435,5.108,7.994,5.474c-0.655,0.544-1.428,0.531-2.07-0.029C5.516,5.088,5.231,4.646,5.016,4.154
			C4.983,4.081,4.923,4.016,4.865,3.956C4.672,3.754,4.602,3.504,4.582,3.239c-0.018-0.221-0.019-0.43,0.146-0.632
			c0.089-0.107,0.056-0.314,0.083-0.475C4.846,1.938,4.868,1.74,4.926,1.554c0.223-0.704,0.74-1.086,1.433-1.256
			C6.571,0.247,6.791,0.235,7.007,0.205z M8.372,2.337C8.267,2.282,8.189,2.242,8.111,2.203c-0.202-0.099-0.42-0.152-0.635-0.09
			c-0.416,0.12-0.821,0.093-1.23-0.015C5.869,1.997,5.528,2.132,5.341,2.475C5.266,2.611,5.223,2.766,5.165,2.912
			C5.095,2.941,5.023,2.986,5.009,3.045C4.982,3.15,4.978,3.265,4.989,3.372c0.02,0.18,0.06,0.356,0.23,0.467
			c0.051,0.034,0.114,0.073,0.135,0.125C5.521,4.387,5.75,4.768,6.087,5.077c0.559,0.512,1.221,0.51,1.779,0.001
			C8.158,4.812,8.362,4.485,8.527,4.13c0.061-0.128,0.067-0.301,0.26-0.329c0.021-0.003,0.04-0.037,0.054-0.059
			c0.123-0.217,0.18-0.446,0.114-0.692C8.943,3.007,8.905,2.934,8.88,2.935c-0.144,0.004-0.134-0.11-0.171-0.193
			c-0.076-0.168-0.153-0.336-0.24-0.5C8.441,2.189,8.387,2.151,8.346,2.106c-0.01,0.005-0.018,0.011-0.027,0.017
			C8.335,2.184,8.35,2.245,8.372,2.337z"/>
		<path fill="#010101" d="M7.022,15.038c-1.473,0-2.945,0-4.419,0c-0.093,0-0.186,0.006-0.279,0.002
			c-0.175-0.007-0.28-0.106-0.277-0.259c0.003-0.146,0.099-0.234,0.276-0.237c0.394-0.004,0.789-0.004,1.183-0.005
			c1.736,0,3.472,0,5.207,0.001c0.979,0,1.96,0.001,2.94,0.004c0.201,0,0.3,0.068,0.319,0.212c0.02,0.155-0.087,0.274-0.268,0.279
			c-0.302,0.008-0.603,0.005-0.904,0.005c-1.259,0-2.519,0-3.777,0C7.022,15.04,7.022,15.038,7.022,15.038z"/>
	</g>
</g>
</svg>
