<?xml version="1.0" encoding="utf-8"?>
<!-- Generator: Adobe Illustrator 16.0.0, SVG Export Plug-In . SVG Version: 6.00 Build 0)  -->
<!DOCTYPE svg PUBLIC "-//W3C//DTD SVG 1.1//EN" "http://www.w3.org/Graphics/SVG/1.1/DTD/svg11.dtd">
<svg version="1.1" id="Layer_1" xmlns="http://www.w3.org/2000/svg" xmlns:xlink="http://www.w3.org/1999/xlink" x="0px" y="0px"
	 width="14px" height="15px" viewBox="0 0 14 15" enable-background="new 0 0 14 15" xml:space="preserve">
<g id="dRr2lX.tif">
	<g>
		<g>
			<path fill="#010101" d="M3.724,2.884c0.216,0,0.432,0,0.648,0C4.635,2.949,4.9,3.007,5.161,3.082
				c0.95,0.275,1.912,0.351,2.889,0.192c0.562-0.091,1.1-0.292,1.66-0.39c0.206,0,0.412,0,0.617,0
				c1.014,0.146,1.688,0.744,2.154,1.617c0.109,0.204,0.208,0.414,0.295,0.627c0.428,1.046,0.701,2.138,0.923,3.242
				c0.202,1,0.322,2.009,0.217,3.03c-0.032,0.318-0.103,0.629-0.26,0.913c-0.17,0.305-0.424,0.461-0.78,0.456
				c-0.344-0.003-0.621-0.165-0.883-0.359c-0.473-0.348-0.84-0.799-1.209-1.248c-0.283-0.345-0.606-0.629-1.06-0.727
				C9.453,10.38,9.176,10.339,8.9,10.334c-1.337-0.018-2.673-0.05-4.009,0.026c-0.664,0.037-1.223,0.262-1.637,0.813
				c-0.307,0.407-0.645,0.789-1.04,1.116c-0.239,0.197-0.492,0.372-0.797,0.453c-0.426,0.114-0.809-0.047-1.023-0.43
				c-0.076-0.136-0.129-0.28-0.168-0.43c-0.186-0.72-0.147-1.45-0.08-2.176c0.077-0.825,0.247-1.635,0.451-2.436
				c0.21-0.828,0.442-1.648,0.8-2.427c0.173-0.381,0.384-0.739,0.655-1.059C2.492,3.268,3.062,2.989,3.724,2.884z M3.082,8.03
				c0.667,0,1.188-0.526,1.188-1.198c0-0.661-0.526-1.192-1.18-1.192C2.429,5.64,1.891,6.173,1.885,6.833
				C1.878,7.489,2.42,8.029,3.082,8.03z M9.985,7.58c-0.329,0-0.575,0.246-0.573,0.572c0.002,0.31,0.26,0.574,0.564,0.579
				c0.312,0.005,0.583-0.263,0.585-0.577C10.566,7.831,10.312,7.58,9.985,7.58z M9.984,4.959c-0.327,0-0.574,0.248-0.572,0.575
				c0.001,0.308,0.26,0.57,0.566,0.576c0.309,0.005,0.581-0.265,0.583-0.579C10.564,5.211,10.311,4.959,9.984,4.959z M8.689,7.411
				C9.003,7.41,9.271,7.139,9.264,6.83C9.258,6.527,8.988,6.261,8.687,6.26C8.374,6.258,8.113,6.521,8.114,6.84
				C8.115,7.168,8.36,7.412,8.689,7.411z M11.86,6.837c-0.002-0.318-0.265-0.581-0.577-0.578c-0.309,0.004-0.579,0.282-0.572,0.589
				c0.005,0.307,0.267,0.562,0.576,0.562C11.611,7.411,11.86,7.163,11.86,6.837z"/>
			<path fill="none" d="M3.724,2.884C3.062,2.989,2.492,3.267,2.052,3.787c-0.271,0.32-0.481,0.678-0.655,1.059
				c-0.358,0.779-0.59,1.599-0.8,2.427c-0.205,0.801-0.374,1.61-0.451,2.436c-0.067,0.726-0.106,1.455,0.08,2.176
				c0.039,0.149,0.092,0.294,0.168,0.43c0.215,0.383,0.597,0.543,1.022,0.43c0.306-0.081,0.559-0.256,0.798-0.453
				c0.395-0.327,0.733-0.709,1.039-1.116c0.414-0.552,0.973-0.776,1.638-0.813c1.335-0.075,2.672-0.044,4.008-0.026
				c0.276,0.005,0.553,0.046,0.823,0.103c0.456,0.097,0.778,0.382,1.061,0.727c0.369,0.449,0.736,0.9,1.209,1.248
				c0.264,0.194,0.539,0.356,0.884,0.359c0.355,0.005,0.61-0.152,0.779-0.456c0.157-0.284,0.228-0.595,0.26-0.913
				c0.105-1.022-0.014-2.03-0.216-3.03c-0.224-1.104-0.496-2.196-0.922-3.242c-0.089-0.213-0.187-0.423-0.296-0.627
				c-0.467-0.874-1.142-1.472-2.155-1.617c1.188,0,2.376,0.001,3.564-0.003C13.981,2.881,14,2.9,14,2.993
				c-0.003,3.229-0.003,6.459,0,9.689c0,0.092-0.019,0.11-0.11,0.11c-4.567-0.003-9.134-0.003-13.701,0
				c-0.092,0-0.111-0.019-0.11-0.11c0.003-3.229,0.003-6.459,0-9.689c0-0.092,0.019-0.111,0.11-0.11
				C1.368,2.886,2.546,2.884,3.724,2.884z"/>
			<path fill="none" d="M9.71,2.884c-0.561,0.098-1.098,0.298-1.66,0.39C7.072,3.433,6.111,3.356,5.161,3.082
				C4.9,3.007,4.635,2.95,4.372,2.884C6.151,2.884,7.931,2.884,9.71,2.884z"/>
			<path fill="none" d="M3.082,8.03C2.42,8.029,1.878,7.489,1.885,6.833C1.891,6.172,2.429,5.639,3.089,5.64
				c0.654,0.001,1.179,0.532,1.18,1.192C4.27,7.504,3.748,8.03,3.082,8.03z"/>
			<path fill="none" d="M9.985,7.58c0.327,0,0.581,0.251,0.576,0.574C10.56,8.468,10.288,8.735,9.977,8.73
				C9.672,8.726,9.414,8.462,9.412,8.151C9.41,7.826,9.656,7.579,9.985,7.58z"/>
			<path fill="none" d="M9.984,4.959c0.326,0,0.58,0.252,0.577,0.573C10.56,5.846,10.287,6.116,9.979,6.11
				C9.672,6.104,9.413,5.842,9.412,5.534C9.41,5.207,9.657,4.959,9.984,4.959z"/>
			<path fill="none" d="M8.689,7.411C8.36,7.412,8.115,7.168,8.114,6.84c-0.001-0.318,0.26-0.582,0.572-0.58
				c0.302,0.001,0.571,0.267,0.577,0.57C9.271,7.139,9.003,7.41,8.689,7.411z"/>
			<path fill="none" d="M11.86,6.837c0,0.325-0.247,0.574-0.573,0.574c-0.309,0-0.571-0.255-0.576-0.562
				c-0.007-0.307,0.265-0.585,0.572-0.589C11.596,6.256,11.858,6.52,11.86,6.837z"/>
		</g>
	</g>
</g>
</svg>
