<?xml version="1.0" encoding="utf-8"?>
<!-- Generator: Adobe Illustrator 16.0.0, SVG Export Plug-In . SVG Version: 6.00 Build 0)  -->
<!DOCTYPE svg PUBLIC "-//W3C//DTD SVG 1.1//EN" "http://www.w3.org/Graphics/SVG/1.1/DTD/svg11.dtd">
<svg version="1.1" id="Layer_1" xmlns="http://www.w3.org/2000/svg" xmlns:xlink="http://www.w3.org/1999/xlink" x="0px" y="0px"
	 width="360px" height="153px" viewBox="0 0 360 153" enable-background="new 0 0 360 153" xml:space="preserve">
<g>
	<path fill="#FFFFFF" d="M124.682,33.123c0.214,0.866,0.448,1.729,0.64,2.6c0.907,4.101,1.801,8.201,2.7,12.301
		c0.103,0.469,0.211,0.938,0.307,1.411c0.059,0.312-0.104,0.526-0.36,0.667c-0.179,0.101-0.37,0.184-0.563,0.258
		c-1.994,0.754-3.985,1.512-5.984,2.257c-0.905,0.34-1.021,0.31-1.485-0.491c-1.238-2.146-2.45-4.309-3.685-6.458
		c-4.326-7.52-8.801-14.949-13.403-22.303c-0.29-0.463-0.565-0.941-0.83-1.422c-0.121-0.213,0.019-0.393,0.163-0.537
		c0.094-0.095,0.219-0.171,0.344-0.222c1.712-0.723,3.419-1.452,5.143-2.146c0.703-0.283,0.974-0.185,1.356,0.486
		c1.534,2.692,3.072,5.38,4.553,8.102c2.499,4.595,4.958,9.21,7.438,13.818c0.324,0.596,0.67,1.183,1.162,1.714
		c-0.193-0.789-0.372-1.581-0.575-2.365c-1.986-7.663-3.804-15.365-5.532-23.087c-0.398-1.78-0.664-1.62,1.285-2.293
		c1.43-0.494,2.868-0.968,4.316-1.419c0.817-0.257,0.961-0.187,1.315,0.505c0.22,0.428,0.4,0.875,0.602,1.313
		c3.322,7.183,6.516,14.425,9.628,21.7c0.238,0.559,0.377,1.178,1.013,1.758c-0.206-1.227-0.385-2.288-0.57-3.347
		c-1.309-7.527-2.492-15.073-3.538-22.642c-0.227-1.636-0.577-1.734,1.468-2.209c1.467-0.341,2.921-0.738,4.297-1.09
		c0.413,0.322,0.404,0.675,0.439,1.014c0.692,6.364,1.34,12.735,2.093,19.093c0.551,4.648,1.24,9.278,1.854,13.918
		c0.303,2.303,0.526,2.178-1.78,2.798c-1.594,0.428-3.159,0.96-4.745,1.422c-0.965,0.279-1.126,0.198-1.579-0.771
		c-2.104-4.488-4.193-8.979-6.281-13.47c-0.113-0.247-0.184-0.515-0.275-0.773c-0.316-0.657-0.637-1.317-1.014-2.098
		C124.384,32.135,124.384,32.135,124.682,33.123z"/>
	<path fill="#FFFFFF" d="M320.498,137.291c0.314-3.246,0.639-6.49,0.943-9.729c0.586-6.236,1.162-12.479,1.748-18.713
		c0.021-0.207,0.043-0.414,0.086-0.613c0.088-0.369,0.309-0.635,0.692-0.641c1.586-0.012,3.171-0.012,4.757,0.01
		c0.401,0.012,0.592,0.305,0.629,0.686c0.237,2.322,0.487,4.654,0.717,6.979c0.51,5.209,1.02,10.422,1.529,15.625
		c0.151,1.572,0.315,3.152,0.479,4.729c0.033,0.334,0.037,0.689,0.402,1.047c0.135-1.016,0.289-1.959,0.385-2.904
		c0.615-6.029,1.211-12.061,1.818-18.082c0.231-2.334,0.471-4.662,0.731-6.99c0.114-1.01,0.192-1.086,1.099-1.107
		c1.163-0.021,2.338-0.021,3.51,0.006c0.662,0.018,0.858,0.232,0.793,0.906c-0.158,1.715-0.354,3.424-0.543,5.135
		c-0.65,5.818-1.304,11.631-1.955,17.443c-0.529,4.789-1.074,9.576-1.617,14.371c-0.016,0.129-0.031,0.27-0.043,0.406
		c-0.059,0.477-0.32,0.754-0.809,0.754c-2.273,0.006-4.541,0-6.814,0c-0.393,0-0.648-0.205-0.701-0.605
		c-0.098-0.676-0.184-1.359-0.262-2.043c-0.531-5-1.062-9.998-1.596-14.99c-0.043-0.396,0.018-0.824-0.336-1.203
		c-0.392,0.855-0.402,1.758-0.498,2.631c-0.479,4.52-0.902,9.041-1.406,13.557c-0.354,3.143,0.063,2.615-2.822,2.664
		c-1.514,0.021-3.027,0.012-4.541,0c-1.369-0.01-1.434-0.07-1.574-1.311c-0.289-2.529-0.564-5.059-0.848-7.594
		c-0.791-7.051-1.584-14.096-2.371-21.139c-0.295-2.6-0.592-5.199-0.873-7.799c-0.109-1.027,0.031-1.178,1.117-1.193
		c1.236-0.021,2.48-0.021,3.717,0c0.973,0.018,1.113,0.146,1.211,1.016c0.564,5.34,1.117,10.68,1.682,16.02
		c0.424,3.969,0.857,7.936,1.287,11.908c0.027,0.26,0.07,0.52,0.107,0.781C320.389,137.295,320.441,137.291,320.498,137.291z"/>
	<path fill="#FFFFFF" d="M209.268,41.59c0.414-2.893,0.787-5.55,1.181-8.206c1.057-7.288,2.127-14.577,3.19-21.863
		c0.221-1.497,0.465-2.993,0.699-4.49c0.07-0.487,0.33-0.736,0.84-0.649c2.508,0.421,5.016,0.857,7.533,1.262
		c0.684,0.111,0.869,0.537,0.934,1.145c0.185,1.919,0.445,3.832,0.599,5.752c0.33,4.188,0.61,8.377,0.922,12.564
		c0.026,0.331,0.108,0.656,0.201,0.977c0.012,0.041,0.319,0.068,0.344,0.028c0.146-0.305,0.291-0.616,0.367-0.945
		c0.668-2.881,1.323-5.765,1.985-8.65c0.642-2.816,1.281-5.636,1.943-8.45c0.178-0.754,0.281-0.828,0.992-0.665
		c1.742,0.396,3.479,0.838,5.217,1.262c0.4,0.097,0.543,0.384,0.498,0.765c-0.031,0.271-0.107,0.537-0.174,0.803
		c-2.832,10.784-5.66,21.564-8.494,32.346c-0.07,0.266-0.135,0.537-0.232,0.79c-0.112,0.271-0.346,0.461-0.641,0.391
		c-1.748-0.407-3.484-0.83-5.221-1.256c-0.293-0.073-0.445-0.301-0.488-0.591c-0.033-0.204-0.043-0.41-0.053-0.617
		c-0.262-4.604-0.484-9.212-0.799-13.814c-0.223-3.297-0.564-6.585-0.863-9.877c-0.021-0.172-0.119-0.453-0.229-0.478
		c-0.347-0.082-0.451,0.217-0.498,0.487c-0.435,2.373-0.863,4.741-1.287,7.113c-0.873,4.876-1.742,9.755-2.615,14.634
		c-0.061,0.336-0.156,0.67-0.223,1.007c-0.082,0.399-0.32,0.618-0.715,0.562c-1.435-0.212-2.857-0.445-4.277-0.682
		C209.404,42.163,209.197,41.858,209.268,41.59z"/>
	<path fill="#FFFFFF" d="M33.59,146.621c-0.415-0.57-0.334-1.059-0.336-1.535c-0.003-11.973-0.003-23.943,0.002-35.918
		c0-1.572,0.019-1.584,1.599-1.596c1.238-0.012,2.478-0.016,3.714,0.012c0.648,0.018,0.831,0.229,0.866,0.891
		c0.025,0.479,0.01,0.965,0.01,1.443c0,3.918,0,7.848,0,11.768c0,0.553-0.007,1.1,0.024,1.646c0.043,0.695,0.221,0.912,0.841,0.918
		c1.922,0.021,3.843,0.006,5.693,0.006c0.481-0.824,0.315-1.602,0.317-2.346c0.017-3.994,0.009-7.982,0.009-11.973
		c0-0.553-0.002-1.102,0.019-1.648c0.016-0.391,0.244-0.674,0.632-0.674c1.718-0.016,3.435-0.006,5.153,0.016
		c0.309,0.006,0.491,0.246,0.52,0.539c0.042,0.412,0.046,0.824,0.046,1.238c0.004,11.764,0.004,23.531,0,35.297
		c0,0.412-0.004,0.824-0.035,1.238c-0.027,0.391-0.261,0.648-0.651,0.648c-1.65,0.021-3.303,0.021-4.953,0.012
		c-0.515-0.012-0.708-0.357-0.719-0.822c-0.016-0.543-0.013-1.098-0.013-1.652c0-3.986,0-7.977-0.002-11.971
		c0-0.549-0.014-1.098-0.061-1.652c-0.024-0.287-0.219-0.508-0.528-0.514c-1.856-0.016-3.712-0.029-5.569-0.016
		c-0.38,0-0.646,0.227-0.67,0.627c-0.035,0.543-0.051,1.098-0.051,1.65c-0.006,3.918-0.004,7.838-0.004,11.766
		c0,0.479,0.015,0.963-0.005,1.445c-0.035,1.029-0.136,1.139-1.229,1.148C36.638,146.631,35.061,146.621,33.59,146.621z"/>
	<path fill="#FFFFFF" d="M268.402,146.604c0-0.891,0-1.502,0-2.117c0-11.561,0-23.123,0-34.688c0-0.137,0-0.271,0-0.414
		c0.016-1.789,0.016-1.801,1.818-1.811c2.407-0.012,4.819-0.012,7.223,0c1.52,0.01,3.022,0.141,4.479,0.617
		c2.268,0.75,3.713,2.285,4.406,4.549c0.65,2.117,0.656,8.293,0.049,10.441c-0.385,1.367-1.08,2.518-2.166,3.439
		c-0.312,0.262-0.641,0.51-0.939,0.756c0.05,0.342,0.24,0.521,0.474,0.668c1.885,1.227,2.683,3.076,2.953,5.203
		c0.106,0.818,0.137,1.646,0.149,2.471c0.023,1.307,0.012,2.615,0.008,3.924c-0.008,2.264-0.028,4.52,0.541,6.826
		c-1.946,0.289-3.793,0.125-5.637,0.113c-0.49,0-0.686-0.412-0.771-0.83c-0.232-1.08-0.326-2.176-0.326-3.283
		c0-2.062,0.01-4.125-0.013-6.191c-0.006-0.824-0.021-1.654-0.141-2.469c-0.293-1.877-1.258-2.77-3.125-3.002
		c-0.066-0.006-0.143-0.021-0.207-0.021c-2.791-0.07-2.539-0.264-2.545,2.295c-0.006,3.854-0.006,7.707-0.006,11.562
		c0,0.346,0.012,0.691-0.012,1.033c-0.031,0.701-0.195,0.918-0.824,0.926C272.078,146.621,270.359,146.604,268.402,146.604z
		 M280.549,119.131c-0.012,0-0.018,0-0.029,0c0-1.096,0.082-2.197-0.02-3.283c-0.143-1.459-0.973-2.414-2.246-2.566
		c-1.012-0.117-2.047-0.041-3.074-0.031c-0.303,0.004-0.477,0.25-0.498,0.541c-0.033,0.479-0.049,0.957-0.049,1.434
		c-0.006,2.465-0.012,4.93,0,7.396c0.01,2.904-0.289,2.557,2.74,2.471c1.955-0.045,2.996-1.135,3.158-3.084
		C280.613,121.053,280.549,120.086,280.549,119.131z"/>
	<path fill="#FFFFFF" d="M145.155,127.521c2.028,1.135,3.103,2.578,3.571,4.482c0.25,1.004,0.399,2.021,0.396,3.062
		c-0.002,1.443-0.002,2.887,0.003,4.33c0.008,2.334-0.127,4.68,0.517,6.893c-0.406,0.439-0.841,0.314-1.239,0.326
		c-1.101,0.01-2.202,0.01-3.301,0c-1.715-0.016-1.805-0.076-2.039-1.834c-0.097-0.75-0.105-1.508-0.112-2.264
		c-0.015-2.34-0.013-4.68-0.013-7.02c-0.001-0.898-0.097-1.779-0.414-2.635c-0.424-1.131-1.208-1.803-2.41-1.988
		c-0.889-0.141-1.779-0.189-2.668-0.037c-0.287,0.049-0.501,0.234-0.523,0.549c-0.036,0.543-0.062,1.096-0.062,1.639
		c-0.006,3.787-0.003,7.57-0.006,11.354c0,0.555-0.01,1.104-0.041,1.65c-0.017,0.299-0.187,0.541-0.495,0.549
		c-1.716,0.004-3.435,0-5.152-0.027c-0.317,0-0.466-0.271-0.491-0.564c-0.035-0.406-0.042-0.818-0.042-1.23
		c-0.003-11.762,0-23.527-0.003-35.293c0-1.865-0.079-1.904,1.956-1.889c2.409,0.01,4.817-0.012,7.225,0.006
		c1.444,0.018,2.881,0.129,4.275,0.58c2.437,0.775,3.938,2.43,4.593,4.863c0.27,0.998,0.422,2.018,0.415,3.059
		c-0.015,1.309,0.015,2.617-0.009,3.926C149.028,123.041,148.244,125.73,145.155,127.521z M136.831,119.045
		c-0.004,0-0.007,0-0.009,0c0,1.236-0.003,2.475,0,3.713c0.009,2.682-0.213,2.389,2.493,2.354c2.282-0.027,3.428-1.123,3.543-3.418
		c0.092-1.781,0.021-3.57,0.007-5.363c-0.004-0.27-0.064-0.547-0.131-0.812c-0.389-1.514-1.2-2.209-2.762-2.301
		c-0.756-0.045-1.515-0.027-2.27,0c-0.658,0.016-0.858,0.199-0.865,0.867C136.817,115.736,136.831,117.389,136.831,119.045z"/>
	<path fill="#FFFFFF" d="M261.092,24.15c-0.01,1.477-0.471,2.835-1.031,4.179c-1.955,4.694-3.908,9.395-5.86,14.092
		c-0.445,1.08-0.88,2.166-1.361,3.231c-0.504,1.135-1.157,2.188-2.024,3.091c-1.691,1.762-3.767,2.494-6.164,2.233
		c-0.949-0.106-1.9-0.32-2.812-0.605c-2.692-0.836-5.362-1.73-8.045-2.605c-0.131-0.043-0.26-0.098-0.392-0.146
		c-0.649-0.252-0.727-0.353-0.52-1.077c1.084-3.693,2.176-7.386,3.266-11.079c2.101-7.121,4.201-14.242,6.308-21.361
		c0.521-1.745,0.53-1.775,2.203-1.235c3.071,0.994,6.139,2.013,9.2,3.05c1.773,0.6,3.406,1.477,4.802,2.749
		C260.262,20.137,261.107,21.952,261.092,24.15z M244.365,45.495c0.826,0.025,1.461-0.32,1.965-0.953
		c0.521-0.659,0.803-1.433,1.096-2.203c2.051-5.462,4.098-10.924,6.145-16.388c0.168-0.45,0.347-0.9,0.455-1.365
		c0.425-1.815-0.088-2.892-1.791-3.663c-0.803-0.366-1.657-0.644-2.508-0.928c-1.496-0.502-1.508-0.489-2.033,1.007
		c-0.045,0.13-0.104,0.254-0.141,0.385c-2.35,7.031-4.695,14.064-7.039,21.095c-0.131,0.391-0.262,0.782-0.377,1.177
		c-0.08,0.302,0.027,0.579,0.305,0.676C241.727,44.786,242.965,45.432,244.365,45.495z"/>
	<path fill="#FFFFFF" d="M212.184,120.635c-1.346,0.238-2.725,0.082-4.094,0.119c-0.465,0.012-0.965,0.07-1.541-0.309
		c0-1.143,0-2.367,0-3.605c0-0.76-0.053-1.508-0.342-2.225c-0.516-1.275-1.426-1.861-2.914-1.84c-1.4,0.02-2.436,0.717-2.801,2.002
		c-0.172,0.586-0.229,1.221-0.229,1.836c-0.011,6.957-0.011,13.908-0.007,20.865c0,0.549,0.029,1.107,0.147,1.639
		c0.326,1.43,1.308,2.162,2.847,2.205c1.615,0.049,2.537-0.553,3.026-1.943c0.255-0.73,0.265-1.48,0.271-2.242
		c0-1.441,0-2.893,0.013-4.342c0-0.379,0.151-0.705,0.563-0.711c1.705-0.037,3.418-0.193,5.252,0.125
		c-0.021,2.455,0.115,4.857-0.123,7.258c-0.099,0.959-0.362,1.895-0.754,2.783c-0.924,2.148-2.521,3.6-4.744,4.287
		c-2.366,0.732-4.767,0.729-7.119-0.01c-2.473-0.783-4.094-2.477-4.948-4.896c-0.441-1.25-0.625-2.541-0.631-3.859
		c-0.007-7.094-0.013-14.188,0-21.279c0-1.385,0.188-2.746,0.672-4.055c0.893-2.412,2.535-4.064,5.021-4.803
		c2.301-0.684,4.619-0.693,6.92-0.006c2.483,0.744,4.146,2.377,5.015,4.805c0.162,0.455,0.28,0.922,0.391,1.389
		C212.443,115.42,212.498,118.643,212.184,120.635z"/>
	<path fill="#FFFFFF" d="M258.27,120.465c0-1.127,0.021-2.295-0.006-3.461c-0.016-0.686-0.016-1.389-0.172-2.047
		c-0.338-1.398-1.391-2.154-2.871-2.182c-1.547-0.025-2.508,0.635-2.996,2.031c-0.207,0.598-0.231,1.209-0.231,1.826
		c-0.007,6.953-0.007,13.906-0.007,20.854c0,0.76,0.064,1.508,0.38,2.219c0.51,1.152,1.422,1.602,2.633,1.623
		c1.265,0.021,2.295-0.33,2.89-1.559c0.34-0.709,0.372-1.459,0.383-2.213c0.012-1.586,0.012-3.164,0.016-4.748
		c0-0.383,0.148-0.711,0.561-0.719c1.578-0.027,3.158-0.02,4.742-0.012c0.303,0,0.521,0.211,0.521,0.521
		c0.043,2.611,0.277,5.242-0.283,7.814c-0.779,3.592-2.984,5.797-6.658,6.447c-2.002,0.357-3.984,0.25-5.91-0.387
		c-2.215-0.732-3.768-2.219-4.635-4.389c-0.596-1.488-0.836-3.041-0.828-4.646c0.004-4.949-0.008-9.904-0.008-14.859
		c0-2.061,0.012-4.125,0.012-6.191c0.004-1.459,0.271-2.869,0.803-4.227c0.924-2.346,2.594-3.865,4.992-4.561
		c2.225-0.65,4.488-0.656,6.719-0.01c3.365,0.977,5.043,3.416,5.627,6.715c0.338,1.902,0.226,3.84,0.197,5.768
		c-0.006,0.293-0.125,0.537-0.428,0.617C263.078,120.869,259.377,120.723,258.27,120.465z"/>
	<path fill="#FFFFFF" d="M87.955,127.076c0-5.709,0-11.424,0-17.139c0-0.553-0.003-1.102,0.02-1.648
		c0.017-0.379,0.218-0.641,0.628-0.674c0.342-0.027,0.684-0.043,1.027-0.043c2.41,0,4.817-0.012,7.227,0.006
		c1.311,0.01,2.603,0.146,3.866,0.543c2.415,0.754,3.997,2.35,4.829,4.703c0.415,1.18,0.623,2.4,0.622,3.648
		c-0.003,2.203,0.001,4.406,0.001,6.609c-0.001,1.037-0.151,2.057-0.436,3.055c-0.929,3.258-3.115,5.107-6.419,5.623
		c-1.014,0.158-2.056,0.17-3.087,0.18c-2.222,0.027-2.082-0.098-2.084,2.191c-0.004,3.375,0.004,6.748-0.004,10.117
		c-0.005,2.578,0.248,2.365-2.286,2.365c-1.1,0-2.202-0.016-3.3-0.043c-0.302-0.006-0.528-0.186-0.548-0.498
		c-0.037-0.555-0.056-1.104-0.056-1.65C87.955,138.637,87.955,132.857,87.955,127.076z M94.152,119.799c0.001,0,0.005,0,0.008,0
		c0,1.922-0.006,3.85,0.002,5.77c0,0.467,0.214,0.781,0.73,0.789c0.821,0.004,1.649,0.047,2.469-0.02
		c1.539-0.131,2.334-0.922,2.562-2.463c0.04-0.271,0.057-0.543,0.057-0.818c0.002-2.199,0.005-4.393,0-6.596
		c0-0.27-0.02-0.543-0.063-0.812c-0.239-1.541-1.044-2.312-2.591-2.426c-0.681-0.051-1.371-0.039-2.057-0.018
		c-0.999,0.021-1.1,0.098-1.11,1.031C94.139,116.092,94.152,117.949,94.152,119.799z"/>
	<path fill="#FFFFFF" d="M74.302,146.42c-0.511,0.293-0.999,0.195-1.471,0.195c-4.475,0.01-8.949,0.006-13.421,0.006
		c-0.345,0-0.689-0.006-1.032-0.012c-0.518-0.006-0.721-0.314-0.735-0.785c-0.014-0.416-0.014-0.828-0.014-1.238
		c-0.002-11.703-0.002-23.4,0-35.104c0-0.412,0-0.826,0.022-1.236c0.024-0.391,0.248-0.631,0.643-0.658
		c0.343-0.025,0.687-0.016,1.032-0.016c4.475-0.006,8.947-0.006,13.421,0c0.346,0,0.689,0,1.031,0.021
		c0.402,0.033,0.63,0.275,0.632,0.67c0.012,1.439,0.008,2.891-0.01,4.334c-0.005,0.406-0.293,0.586-0.68,0.586
		c-2.34,0.012-4.679,0.012-7.021,0.016c-0.687,0.006-1.376,0.006-2.063,0.018c-0.504,0.012-0.749,0.305-0.75,0.781
		c-0.018,1.928-0.02,3.854-0.022,5.779c0,1.104-0.009,2.199,0.019,3.305c0.017,0.697,0.174,0.863,0.85,0.875
		c1.513,0.021,3.028-0.006,4.542,0.018c3.449,0.043,2.98-0.479,2.983,2.896c0.005,3.18,0.42,2.756-2.682,2.789
		c-1.582,0.018-3.166-0.004-4.749,0.012c-0.735,0.012-0.939,0.172-0.941,0.781c-0.014,3.234-0.009,6.471-0.006,9.705
		c0,0.498,0.264,0.758,0.76,0.758c2.065,0.006,4.129,0.012,6.194,0.012c0.552,0.006,1.103,0,1.651,0.006
		c2.065,0.018,1.976-0.211,1.946,2.051C74.416,144.141,74.581,145.312,74.302,146.42z"/>
	<path fill="#FFFFFF" d="M149.321,12.685c0.385,2.223,0.786,4.521,1.188,6.816c0.023,0.136,0.065,0.266,0.089,0.401
		c0.554,3.316,0.271,2.625,3.381,2.242c1.842-0.228,3.67-0.548,5.511-0.795c0.673-0.09,0.836,0.046,0.946,0.752
		c0.179,1.153,0.31,2.317,0.47,3.473c0.065,0.486-0.097,0.801-0.605,0.882c-0.746,0.117-1.495,0.225-2.244,0.347
		c-1.763,0.285-3.527,0.576-5.291,0.866c-0.499,0.081-0.692,0.392-0.608,0.872c0.521,2.911,1.042,5.82,1.573,8.729
		c0.09,0.489,0.438,0.676,0.907,0.605c1.902-0.281,3.805-0.588,5.707-0.871c1.087-0.16,2.182-0.304,3.272-0.432
		c0.763-0.09,0.956,0.06,1.061,0.868c0.152,1.159,0.277,2.323,0.399,3.484c0.053,0.513-0.241,0.725-0.716,0.795
		c-2.587,0.379-5.173,0.749-7.751,1.164c-1.967,0.321-3.923,0.707-5.886,1.065c-0.338,0.06-0.672,0.146-1.008,0.201
		c-0.475,0.078-0.803-0.1-0.917-0.589c-0.065-0.266-0.113-0.537-0.17-0.806c-2.368-10.955-4.738-21.907-7.104-32.858
		c-0.059-0.269-0.136-0.538-0.146-0.809c-0.005-0.198,0.065-0.41,0.31-0.474c0.461-0.129,0.919-0.278,1.386-0.375
		c5.525-1.146,11.089-2.027,16.686-2.738c0.204-0.027,0.412-0.065,0.613-0.049c0.293,0.021,0.54,0.17,0.582,0.479
		c0.172,1.295,0.335,2.59,0.479,3.89c0.052,0.467-0.152,0.785-0.667,0.846c-1.162,0.141-2.323,0.28-3.479,0.445
		c-2.108,0.307-4.22,0.616-6.319,0.961C150.439,12.158,149.87,12.194,149.321,12.685z"/>
	<path fill="#FFFFFF" d="M115.912,123.721c0.632,0.395,1.337,0.236,2.013,0.24c1.788,0.021,3.576,0,5.368,0.021
		c0.684,0.012,0.863,0.207,0.917,0.836c0.005,0.07,0.011,0.141,0.005,0.207c-0.136,1.486,0.307,3.006-0.273,4.459
		c-1.35,0.381-2.727,0.109-4.089,0.17c-1.032,0.045-2.066-0.006-3.097,0.021c-0.828,0.027-0.969,0.15-0.977,0.961
		c-0.023,1.996-0.022,3.994-0.013,5.99c0.003,1.355,0.03,2.727,0.043,4.006c0.714,0.418,1.347,0.287,1.958,0.293
		c2.267,0.012,4.538,0,6.81,0.006c0.413,0.006,0.825,0.018,1.234,0.055c0.311,0.025,0.506,0.254,0.508,0.549
		c0.012,1.51,0.008,3.018-0.009,4.537c-0.005,0.312-0.246,0.477-0.544,0.504c-0.342,0.033-0.687,0.037-1.029,0.037
		c-4.542,0.008-9.085,0.008-13.625,0c-0.343,0-0.686-0.016-1.027-0.053c-0.315-0.033-0.481-0.256-0.504-0.555
		c-0.034-0.412-0.044-0.826-0.044-1.238c-0.003-11.766,0-23.531-0.003-35.299c0-1.844-0.119-1.914,1.942-1.908
		c4.337,0.018,8.673,0.006,13.007,0.012c0.412,0,0.824,0.01,1.237,0.037c0.402,0.025,0.625,0.287,0.627,0.674
		c0.005,1.441-0.005,2.887-0.027,4.33c-0.005,0.309-0.211,0.51-0.518,0.533c-0.481,0.037-0.96,0.047-1.441,0.047
		c-2.204,0.012-4.404,0.006-6.608,0.012c-0.413,0-0.825,0.012-1.237,0.027c-0.508,0.027-0.714,0.33-0.732,0.809
		c-0.003,0.064-0.013,0.135-0.013,0.205c0.008,3.029,0.016,6.051,0.03,9.08C115.798,123.463,115.87,123.592,115.912,123.721z"/>
	<path fill="#FFFFFF" d="M297.584,123.637c0.781,0.479,1.486,0.32,2.166,0.324c1.789,0.021,3.58,0,5.365,0.021
		c0.697,0.012,0.912,0.193,0.924,0.826c0.027,1.307,0.031,2.615,0.006,3.924c-0.018,0.752-0.189,0.912-1.037,0.916
		c-1.861,0.021-3.723,0.012-5.578,0.012c-1.938,0-1.846,0.01-1.846,1.779c-0.012,2.615-0.006,5.23,0,7.848
		c0,0.473-0.061,0.961,0.162,1.412c0.57,0.346,1.205,0.221,1.812,0.229c2.203,0.01,4.407,0,6.61,0.006
		c0.478,0.004,0.961,0.018,1.442,0.049c0.31,0.016,0.525,0.217,0.531,0.516c0.019,1.514,0.019,3.021,0,4.537
		c0,0.299-0.194,0.504-0.51,0.535c-0.348,0.033-0.689,0.045-1.029,0.045c-4.549,0.006-9.092,0.006-13.635,0
		c-0.342,0-0.684-0.012-1.031-0.049c-0.299-0.037-0.494-0.232-0.52-0.537c-0.033-0.412-0.045-0.826-0.045-1.238
		c-0.004-11.775,0-23.543-0.01-35.318c0-1.867-0.092-1.916,1.947-1.91c4.336,0.018,8.678,0.006,13.01,0.012
		c0.41,0,0.824,0.01,1.238,0.043c0.409,0.027,0.616,0.299,0.616,0.678c0.007,1.443-0.006,2.895-0.032,4.336
		c0,0.314-0.218,0.5-0.521,0.521c-0.482,0.033-0.965,0.045-1.443,0.045c-2.203,0.01-4.406,0.004-6.609,0.01
		c-0.411,0-0.823,0.012-1.235,0.027c-0.513,0.027-0.729,0.33-0.733,0.809C297.562,117.271,297.584,120.5,297.584,123.637z"/>
	<path fill="#FFFFFF" d="M188,129.66c-2.085,0-4.01-0.004-5.926,0c-0.622,0-1.241,0.018-1.859,0.045
		c-0.31,0.021-0.489,0.211-0.521,0.527c-0.017,0.135-0.033,0.273-0.033,0.404c-0.002,3.105-0.01,6.197,0.003,9.303
		c0.003,0.857,0.117,0.977,0.943,0.98c2.272,0.018,4.547,0.014,6.816,0.018c0.619,0,1.237-0.018,1.855,0
		c0.718,0.027,0.923,0.184,0.934,0.814c0.021,1.377,0.012,2.756-0.011,4.129c-0.013,0.494-0.306,0.732-0.798,0.729
		c-0.483-0.006-0.961,0.006-1.444,0.006c-4.062,0-8.126,0-12.188,0c-0.552,0-1.102-0.012-1.649-0.033
		c-0.407-0.012-0.614-0.271-0.64-0.65c-0.028-0.412-0.021-0.824-0.021-1.236c-0.004-11.713-0.004-23.412-0.004-35.119
		c0-0.277-0.004-0.547,0.004-0.83c0.037-1.047,0.121-1.162,1.212-1.162c4.819-0.016,9.639-0.016,14.461-0.004
		c0.938,0.004,1.068,0.146,1.09,1.078c0.021,1.102,0.021,2.205,0,3.307c-0.021,1.166-0.086,1.221-1.352,1.23
		c-2.273,0.012-4.545,0-6.816,0c-0.481,0-0.965-0.01-1.445,0.012c-0.819,0.037-0.942,0.137-0.943,0.998
		c-0.017,2.965-0.015,5.926,0.001,8.885c0.003,0.689,0.175,0.861,0.847,0.869c1.724,0.021,3.443,0.01,5.162,0.016
		c0.553,0,1.107,0.012,1.655,0.021c0.396,0,0.657,0.195,0.673,0.598C188.074,126.238,188.064,127.881,188,129.66z"/>
	<path fill="#FFFFFF" d="M186.795,4c2.54,0.064,5.084,0.124,7.631,0.203c0.543,0.017,1.096,0.082,1.635,0.16
		c0.297,0.044,0.504,0.275,0.492,0.567c-0.076,1.374-0.174,2.744-0.287,4.111c-0.027,0.312-0.311,0.432-0.596,0.437
		c-0.482,0.005-0.963-0.008-1.451-0.021c-2.398-0.071-4.809-0.147-7.213-0.215c-0.548-0.017-1.102-0.006-1.648,0.008
		c-0.473,0.014-0.769,0.245-0.797,0.737c-0.022,0.346-0.035,0.688-0.035,1.032c0.007,2.749,0.009,5.5,0.031,8.252
		c0.01,1.39,0.025,1.397,1.348,1.44c1.923,0.063,3.844,0.087,5.77,0.177c1.592,0.07,1.592,0.1,1.521,1.671
		c-0.021,0.48-0.062,0.96-0.092,1.441c-0.152,2.391,0.223,2.108-2.362,2.062c-1.101-0.022-2.196-0.07-3.3-0.065
		c-3.336,0.017-2.857-0.483-2.885,2.763c-0.021,3.093,0.01,6.19,0.014,9.283c0.004,0.48,0.014,0.964-0.01,1.444
		c-0.033,0.697-0.197,0.901-0.828,0.917c-1.441,0.038-2.887,0.042-4.331,0.051c-0.486,0.003-0.763-0.263-0.795-0.746
		c-0.036-0.548-0.051-1.099-0.071-1.647c-0.385-10.722-0.769-21.44-1.155-32.159c-0.008-0.274-0.03-0.551-0.025-0.825
		c0.01-0.762,0.176-0.963,0.98-0.968c2.819-0.022,5.639-0.008,8.46-0.008C186.795,4.066,186.795,4.035,186.795,4z"/>
	<path fill="#FFFFFF" d="M153.67,126.828c0-5.721,0-11.43,0-17.15c0-0.479-0.005-0.959,0.025-1.441
		c0.023-0.402,0.287-0.605,0.672-0.631c0.345-0.025,0.691-0.031,1.033-0.031c4.339-0.006,8.675-0.006,13.013,0
		c0.273,0,0.551,0,0.825,0.01c0.511,0.021,0.727,0.332,0.732,0.805c0.009,1.312,0.021,2.615-0.005,3.93
		c-0.01,0.672-0.201,0.855-0.858,0.867c-1.446,0.021-2.892,0.012-4.339,0.016c-1.374,0.006-2.753,0.006-4.129,0.018
		c-0.496,0.006-0.759,0.283-0.763,0.771c-0.013,1.656-0.019,3.311-0.022,4.961c0,1.65-0.01,3.305,0.014,4.955
		c0.011,0.797,0.155,0.932,0.998,0.949c1.582,0.021,3.168,0.006,4.75,0.012c0.483,0,0.962,0.01,1.446,0.031
		c0.399,0.012,0.619,0.25,0.67,0.635c0.027,0.201,0.029,0.414,0.019,0.619c-0.076,1.363,0.184,2.74-0.154,4.098
		c-1.314,0.598-2.699,0.164-4.049,0.26c-1.025,0.074-2.063,0.033-3.093,0.062c-0.424,0.014-0.573,0.324-0.583,0.697
		c-0.017,0.555-0.017,1.104-0.017,1.65c0,3.859,0,7.719,0,11.57c0,0.479,0,0.965-0.026,1.443c-0.022,0.393-0.241,0.65-0.64,0.65
		c-1.65,0.012-3.303,0-4.952-0.016c-0.312-0.006-0.495-0.232-0.517-0.537c-0.035-0.549-0.045-1.098-0.045-1.65
		C153.67,138.527,153.67,132.676,153.67,126.828z"/>
	<path fill="#FFFFFF" d="M233.881,113.047c-1.504,0.277-2.877,0.125-4.244,0.146c-2.236,0.033-2.139-0.162-2.139,2.111
		c0,9.416,0,18.838,0,28.258c0,0.271,0,0.543,0,0.826c0.006,2.42,0.131,2.275-2.225,2.215c-1.275-0.033-2.584,0.303-3.832-0.232
		c-0.357-1.211-0.164-2.453-0.164-3.676c-0.021-9.074-0.008-18.152-0.008-27.229c0-2.414,0.106-2.264-2.215-2.27
		c-1.169-0.004-2.334-0.004-3.509-0.025c-0.379-0.006-0.662-0.217-0.662-0.617c-0.021-1.445-0.032-2.889-0.01-4.332
		c0-0.402,0.299-0.598,0.685-0.619c0.336-0.031,0.684-0.031,1.024-0.031c5.228-0.006,10.449-0.006,15.681,0
		c0.27,0,0.541,0.006,0.817,0.01c0.483,0,0.793,0.213,0.799,0.717C233.887,109.873,233.881,111.447,233.881,113.047z"/>
	<path fill="#FFFFFF" d="M11.13,113.064c-0.225-1.623-0.089-3.203-0.096-4.775c-0.002-0.51,0.329-0.705,0.806-0.705
		c0.274-0.006,0.548-0.012,0.826-0.012c5.223-0.006,10.45-0.006,15.676,0c0.342,0,0.687,0,1.029,0.033
		c0.382,0.031,0.667,0.236,0.673,0.629c0.014,1.443,0.005,2.889-0.017,4.33c-0.007,0.414-0.307,0.607-0.683,0.613
		c-1.099,0.021-2.201,0.018-3.3,0.021c-0.548,0.006-1.099,0.012-1.649,0.033c-0.505,0.016-0.722,0.33-0.733,0.803
		c-0.016,0.619-0.024,1.236-0.024,1.857c0,9.209,0.009,18.424-0.008,27.639c-0.003,0.951,0.177,1.92-0.165,2.854
		c-0.975,0.49-2.011,0.154-3.018,0.225c-0.754,0.049-1.511,0.012-2.268-0.006c-0.494-0.012-0.747-0.293-0.76-0.779
		c-0.014-0.551-0.014-1.098-0.014-1.652c0-9.557,0.002-19.111,0-28.67c-0.003-2.562,0.189-2.262-2.351-2.307
		C13.763,113.172,12.459,113.342,11.13,113.064z"/>
	<path fill="#FFFFFF" d="M198.16,40.768c0.096-1.399,0.174-2.765,0.281-4.127c0.51-6.518,1.037-13.037,1.553-19.551
		c0.293-3.703,0.586-7.408,0.879-11.114c0.012-0.136,0.025-0.272,0.043-0.41c0.043-0.497,0.32-0.746,0.814-0.711
		c1.162,0.084,2.344,0.105,3.487,0.304c0.919,0.157,1.943-0.136,2.755,0.556c-0.062,0.885-0.099,1.772-0.197,2.654
		c-0.574,5.198-1.162,10.394-1.758,15.59c-0.607,5.332-1.242,10.662-1.867,15.991c-0.031,0.274-0.06,0.549-0.088,0.823
		c-0.037,0.403-0.261,0.64-0.662,0.607C201.697,41.242,199.977,41.213,198.16,40.768z"/>
	<path fill="#FFFFFF" d="M350.709,123.762c-0.211,3.629-0.482,8.498-0.77,13.365c-0.039,0.686-0.201,0.848-0.906,0.838
		c-4.406-0.1-3.658,0.867-3.984-3.508c-0.607-8.162-0.617-16.346-0.564-24.523c0-0.482-0.01-0.961,0.013-1.439
		c0.032-0.715,0.174-0.898,0.823-0.906c1.509-0.02,3.019-0.025,4.531,0c0.646,0.014,0.82,0.225,0.849,0.906
		c0.018,0.48,0.01,0.957,0.01,1.443C350.709,114.129,350.709,118.318,350.709,123.762z"/>
	<path fill="#FFFFFF" d="M191.549,79.236c1.15-0.809,1.855-2.012,2.746-3.048c0.717-0.836,1.357-1.733,2.062-2.577
		c0.303-0.368,0.662-0.699,1.043-0.988c0.434-0.334,0.899-0.283,1.289,0.125c0.289,0.293,0.5,0.659,0.783,0.955
		c0.379,0.395,0.407,0.83,0.282,1.332c-0.325,1.271-0.771,2.493-1.362,3.667c-0.187,0.367-0.354,0.748-0.554,1.107
		c-0.269,0.477-0.25,0.791,0.254,1.191c1.482,1.174,1.617,2.066,0.75,3.893c-0.559-0.277-0.358-0.83-0.456-1.275
		c-0.087-0.402-0.132-0.803-0.412-1.141c-0.447-0.52-1.205-0.525-1.578,0.033c-0.267,0.396-0.479,0.836-0.724,1.248
		c-1.784,2.951-3.864,5.688-6.333,8.107c-0.886,0.867-1.841,1.666-2.915,2.291c-0.586,0.348-1.222,0.617-1.858,0.867
		c-2.168,0.852-3.703-0.113-5.047-1.715c-0.535-0.641-0.553-1.398-0.174-2.139c0.414-0.805,1.012-1.465,1.637-2.105
		c2.476-2.539,5.303-4.58,8.477-6.154c0.516-0.254,1.232-0.303,1.428-1.096c-0.607-0.082-1.217-0.113-1.791-0.256
		c-0.672-0.156-1.009-0.711-0.961-1.395c0.006-0.064,0.006-0.143,0.027-0.207c0.76-2.646,1.564-5.274,3.62-7.279
		c0.097-0.095,0.19-0.195,0.299-0.285c0.618-0.532,0.954-0.569,1.677-0.177c0.18,0.098,0.348,0.221,0.516,0.342
		c0.422,0.323,0.488,0.625,0.162,1.043c-0.506,0.65-1.041,1.272-1.553,1.922c-0.769,0.974-1.535,1.948-1.881,3.167
		c-0.049,0.125-0.148,0.244-0.148,0.367c-0.004,0.186,0.008,0.488,0.104,0.531C191.244,79.715,191.43,79.488,191.549,79.236z
		 M194.023,82.781c0.151-0.471-0.06-0.76-0.217-0.727c-0.201,0.031-0.412,0.062-0.597,0.141c-4.375,1.602-8.041,4.184-10.903,7.869
		c-0.377,0.479-0.677,1.041-0.912,1.607c-0.152,0.363-0.177,0.803-0.166,1.203c0.008,0.393,0.319,0.656,0.68,0.646
		c0.473-0.018,0.965-0.098,1.408-0.266c0.975-0.359,1.848-0.924,2.654-1.574c2.963-2.398,5.475-5.223,7.704-8.305
		C193.873,83.107,194.014,82.797,194.023,82.781z M192.439,81.521c0.942-0.369,2.256-0.486,2.844-1.785
		c0.479-1.059,0.895-2.133,1.084-3.289c0.033-0.223-0.047-0.396-0.244-0.461c-0.098-0.025-0.281,0.055-0.352,0.143
		c-1.281,1.496-2.551,3.005-3.821,4.525c-0.075,0.098-0.107,0.232-0.163,0.357C191.701,81.229,192,81.576,192.439,81.521z
		 M191.326,81.518c0.049,0.086,0.098,0.18,0.146,0.266c0.043-0.045,0.143-0.098,0.129-0.135c-0.021-0.1-0.086-0.188-0.129-0.277
		C191.43,81.414,191.379,81.461,191.326,81.518z"/>
	<path fill="#FFFFFF" d="M155.594,69.827c-0.884-0.367-1.806-0.051-2.668-0.266c-0.162-0.041-0.365-0.238-0.4-0.396
		c-0.07-0.317,0.173-0.515,0.464-0.528c0.892-0.041,1.785-0.046,2.678-0.063c0.458-0.008,0.751-0.214,0.952-0.64
		c0.618-1.302,1.265-2.597,1.907-3.888c0.863-1.724,1.805-3.401,2.896-4.993c0.754-1.099,1.701-1.975,2.896-2.578
		c0.312-0.158,0.621-0.307,0.962-0.096c0.82,0.508,1.673,0.969,2.444,1.539c0.781,0.581,0.882,1.351,0.325,2.178
		c-0.341,0.507-0.779,0.958-1.209,1.401c-1.775,1.826-3.498,3.696-5.064,5.709c-0.167,0.217-0.342,0.431-0.493,0.659
		c-0.241,0.361-0.09,0.69,0.343,0.698c0.894,0.022,1.789,0.011,2.682,0.025c0.411,0.005,0.819,0.038,1.23,0.067
		c0.171,0.011,0.265,0.114,0.243,0.271c-0.018,0.125-0.035,0.286-0.115,0.362c-0.381,0.35-0.869,0.379-1.353,0.391
		c-1.168,0.024-2.338,0.06-3.507,0.054c-0.622-0.002-1.021,0.258-1.329,0.782c-0.449,0.765-0.714,1.596-0.901,2.558
		c-1.102-1.486-1.311-1.481-1.951,0.02c-0.595,1.39-1.125,2.81-1.686,4.208c-0.943,2.365-1.968,4.695-3.245,6.904
		c-0.725,1.248-1.501,2.469-2.454,3.561c-2.146,2.465-4.876,3.732-8.121,3.949c-0.98,0.066-1.916-0.086-2.831-0.434
		c-0.571-0.217-0.957-0.629-0.732-0.793c0.355-0.26,0.654-0.004,0.95,0.131c1.43,0.629,2.819,0.434,4.183-0.195
		c1.14-0.525,2.09-1.312,2.958-2.215c1.545-1.584,2.812-3.387,3.873-5.316c2.214-4.049,4.084-8.262,5.988-12.454
		C155.589,70.264,155.567,70.047,155.594,69.827z M166.446,58.865c-0.093-0.258-0.167-0.435-0.439-0.389
		c-0.49,0.087-0.888,0.358-1.262,0.657c-0.863,0.687-1.585,1.506-2.205,2.418c-1.318,1.926-2.37,4-3.417,6.078
		c-0.06,0.12-0.105,0.258-0.111,0.392c-0.003,0.122,0.023,0.287,0.103,0.353c0.068,0.057,0.268,0.046,0.345-0.017
		c0.154-0.127,0.285-0.295,0.391-0.467c1.577-2.58,3.465-4.919,5.448-7.19c0.359-0.413,0.67-0.866,0.974-1.319
		C166.378,59.222,166.4,59.005,166.446,58.865z"/>
	<path fill="#FFFFFF" d="M168.886,78.516c1.548-1.434,2.473-3.265,3.256-5.178c0.387-0.952,0.667-1.952,1.004-2.922
		c0.184-0.529,0.5-0.654,0.922-0.388c1.375,0.863,1.564,1.777,0.613,3.071c-0.285,0.389-0.64,0.723-0.917,1.112
		c-0.092,0.136-0.114,0.414-0.038,0.557c0.152,0.285,0.447,0.237,0.714,0.136c0.6-0.229,0.999-0.716,1.468-1.116
		c0.431-0.367,0.92-0.58,1.514-0.479c0.598,0.103,0.98,0.689,0.72,1.217c-0.209,0.428-0.502,0.815-0.76,1.219
		c-0.736,1.159-1.503,2.304-2.197,3.488c-0.307,0.52-0.476,1.129-0.684,1.709c-0.034,0.094,0.045,0.256,0.119,0.348
		c0.149,0.201,0.391,0.168,0.551,0.07c0.287-0.174,0.575-0.379,0.798-0.635c0.728-0.82,1.439-1.656,2.131-2.514
		c0.604-0.738,1.168-1.509,1.732-2.236c0.513,0.113,0.358,0.438,0.25,0.636c-0.922,1.692-1.986,3.293-3.278,4.727
		c-0.51,0.57-1.109,1.035-1.869,1.23c-1.322,0.338-2.343-0.459-2.353-1.822c-0.005-0.855,0.337-1.602,0.749-2.324
		c0.307-0.535,0.636-1.061,0.894-1.621c0.121-0.25,0-0.575-0.293-0.661c-0.589-0.164-1.196-0.257-1.875-0.396
		c-0.831,1.146-1.661,2.323-2.524,3.467c-0.452,0.609-0.963,1.168-1.468,1.729c-0.06,0.062-0.271,0.059-0.368,0.01
		c-0.093-0.055-0.175-0.207-0.18-0.314c-0.005-0.131,0.119-0.262,0.109-0.391c-0.013-0.186-0.057-0.391-0.163-0.537
		c-0.161-0.217-0.402-0.088-0.543,0.027c-0.424,0.352-0.814,0.738-1.222,1.105c-0.667,0.604-1.386,1.123-2.217,1.486
		c-2.564,1.117-4.822-0.342-4.775-3.125c0.01-0.609,0.129-1.238,0.322-1.812c0.833-2.526,2.494-4.401,4.725-5.786
		c0.401-0.249,0.875-0.406,1.332-0.537c0.539-0.149,1.081-0.141,1.563,0.25c0.263,0.214,0.544,0.451,0.859,0.55
		c1.197,0.381,1.485,1.316,1.572,2.403c0.102,1.279-0.329,2.435-0.796,3.584c-0.123,0.164-0.264,0.314-0.366,0.488
		c-0.363,0.619-0.405,1.184-0.099,1.205c0.486,0.043,0.706-0.324,0.937-0.65C168.829,78.787,168.844,78.646,168.886,78.516z
		 M168.124,74.503c0.001-1.368-0.848-1.968-2.02-1.471c-0.312,0.133-0.632,0.29-0.887,0.507c-1.848,1.578-3.305,3.469-4.342,5.66
		c-0.198,0.424-0.26,0.924-0.288,1.395c-0.037,0.701,0.432,1.152,1.121,1.211c0.952,0.076,1.75-0.299,2.456-0.867
		c1.567-1.279,2.778-2.832,3.562-4.701C167.966,75.662,168.16,75.079,168.124,74.503z M174.5,75.997
		c-0.042,0.051-0.123,0.1-0.118,0.137c0.017,0.093,0.07,0.18,0.11,0.268c0.042-0.045,0.126-0.094,0.121-0.125
		C174.598,76.183,174.543,76.094,174.5,75.997z"/>
	<path fill="#FFFFFF" d="M224.312,75.37c0.17,0.413,0.021,0.671-0.125,0.882c-0.922,1.363-1.845,2.73-2.812,4.066
		c-0.313,0.434-0.733,0.824-1.162,1.148c-1.498,1.15-3.223,0.49-3.562-1.352c-0.053-0.266-0.03-0.543-0.108-0.797
		c-0.073-0.271-0.392-0.217-0.504-0.131c-0.319,0.25-0.58,0.574-0.863,0.869c-0.521,0.549-1.03,1.105-1.573,1.633
		c-0.412,0.4-0.922,0.559-1.508,0.516c-1.091-0.092-1.621-0.715-1.41-1.791c0.119-0.602,0.336-1.188,0.543-1.77
		c0.231-0.641,0.602-1.252,0.748-1.911c0.373-1.703,1.498-2.912,2.6-4.124c0.83-0.917,1.85-0.793,2.557,0.244
		c0.096,0.133,0.096,0.409,0.021,0.56c-0.154,0.302-0.391,0.562-0.588,0.838c-0.605,0.83-1.232,1.652-1.812,2.5
		c-0.313,0.449-0.573,0.937-0.823,1.425c-0.152,0.295-0.339,0.65,0.021,0.912c0.434,0.326,0.771,0.018,1.045-0.281
		c0.377-0.402,0.724-0.83,1.049-1.27c0.961-1.26,1.897-2.524,2.854-3.784c0.369-0.491,0.736-0.995,1.16-1.442
		c0.721-0.766,1.834-0.616,2.435,0.317c0.092,0.141,0.106,0.423,0.024,0.562c-0.274,0.47-0.625,0.903-0.938,1.352
		c-0.902,1.296-1.805,2.604-2.301,4.124c-0.219,0.662-0.701,1.361-0.033,2.062c0.791-0.033,1.16-0.662,1.584-1.168
		c0.791-0.949,1.531-1.941,2.289-2.914C223.461,76.225,223.693,75.712,224.312,75.37z M216.699,78.547
		c-0.066,0.043-0.154,0.088-0.234,0.137c0.045,0.051,0.098,0.137,0.123,0.125c0.094-0.021,0.176-0.082,0.264-0.125
		C216.807,78.646,216.758,78.602,216.699,78.547z"/>
	<path fill="#FFFFFF" d="M210.842,74.546c-0.004,1.196-0.309,2.309-0.916,3.347c-0.994,1.697-2.357,3.031-4.006,4.086
		c-0.705,0.457-1.477,0.727-2.334,0.727c-1.361-0.01-2.365-0.688-2.871-1.953c-0.312-0.793-0.379-1.605-0.189-2.432
		c0.728-3.146,2.627-5.399,5.416-6.934c0.966-0.531,1.955-0.656,2.847,0.223c0.096,0.092,0.228,0.146,0.346,0.215
		C210.555,72.623,210.826,73.061,210.842,74.546z M203.717,81.803c0.52,0.057,1.107-0.129,1.629-0.486
		c2.104-1.439,3.58-3.377,4.373-5.791c0.162-0.5,0.152-1.086,0.098-1.624c-0.063-0.716-0.803-1.18-1.498-1.025
		c-0.616,0.139-1.149,0.451-1.61,0.871c-1.633,1.498-2.957,3.227-3.974,5.197c-0.256,0.492-0.396,1.014-0.407,1.572
		C202.316,81.316,202.777,81.783,203.717,81.803z"/>
	<path fill="#FFFFFF" d="M94.665,76.324c1.924,0,3.848,0,5.774,0c0.39,0,0.648,0.206,0.662,0.606c0.02,0.556,0.022,1.107,0,1.65
		c-0.015,0.381-0.208,0.641-0.627,0.672c-0.135,0.006-0.273,0.023-0.409,0.023c-3.712,0-7.428,0.01-11.14,0
		c-0.952-0.006-1.066-0.143-1.088-1.07c-0.01-0.479-0.008-0.961,0.052-1.437c0.018-0.152,0.232-0.354,0.39-0.393
		c0.329-0.076,0.681-0.07,1.023-0.076c1.786,0,3.575,0,5.362,0C94.665,76.312,94.665,76.312,94.665,76.324z"/>
	<path fill="#FFFFFF" d="M344.611,143.521c0.041-3.332-0.508-2.893,2.918-2.93c0.756-0.006,1.504,0,2.254,0.01
		c0.477,0.012,0.791,0.25,0.801,0.738c0.018,1.502,0.012,3.008,0,4.512c-0.004,0.471-0.271,0.752-0.77,0.752
		c-1.435,0.012-2.865,0.021-4.299,0c-0.705-0.012-0.88-0.176-0.9-0.822C344.588,145.029,344.611,144.277,344.611,143.521z"/>
	<path fill="#FFFFFF" d="M124.682,33.123c-0.298-0.988-0.298-0.988-0.084-2.008c0.377,0.781,0.697,1.441,1.014,2.098
		C125.314,33.062,125.004,33.031,124.682,33.123z"/>
	<path fill="#FFFFFF" d="M174.5,75.997c0.043,0.1,0.097,0.188,0.114,0.278c0.005,0.031-0.079,0.08-0.121,0.125
		c-0.04-0.088-0.094-0.175-0.11-0.267C174.377,76.094,174.458,76.045,174.5,75.997z"/>
	<path fill="#FFFFFF" d="M216.699,78.547c0.059,0.055,0.107,0.1,0.152,0.137c-0.088,0.043-0.17,0.104-0.265,0.125
		c-0.024,0.012-0.078-0.074-0.123-0.125C216.545,78.635,216.633,78.59,216.699,78.547z"/>
	<path fill="#FFFFFF" d="M270.566,77.809c1.928,0,3.854,0,5.774,0.008c0.396,0,0.652,0.199,0.662,0.605
		c0.021,0.549,0.021,1.104,0,1.65c-0.01,0.381-0.205,0.641-0.623,0.668c-0.137,0.012-0.278,0.02-0.407,0.02
		c-3.711,0.008-7.425,0.012-11.136,0c-0.955-0.004-1.069-0.139-1.092-1.062c-0.013-0.479-0.013-0.965,0.049-1.438
		c0.021-0.15,0.231-0.354,0.392-0.396c0.325-0.074,0.684-0.062,1.02-0.068c1.793-0.006,3.578-0.006,5.361-0.006
		C270.566,77.799,270.566,77.803,270.566,77.809z"/>
</g>
</svg>
