<?xml version="1.0" encoding="utf-8"?>
<!-- Generator: Adobe Illustrator 16.0.0, SVG Export Plug-In . SVG Version: 6.00 Build 0)  -->
<!DOCTYPE svg PUBLIC "-//W3C//DTD SVG 1.1//EN" "http://www.w3.org/Graphics/SVG/1.1/DTD/svg11.dtd">
<svg version="1.1" id="Layer_1" xmlns="http://www.w3.org/2000/svg" xmlns:xlink="http://www.w3.org/1999/xlink" x="0px" y="0px"
	 width="360px" height="147px" viewBox="0 0 360 147" enable-background="new 0 0 360 147" xml:space="preserve">
<g>
	<path fill="#FFFFFF" d="M278.721,62.677c-0.334,0.337-0.391,0.643-0.498,0.916c-2.563,6.458-5.123,12.919-7.683,19.38
		c-0.47,1.185-0.304,1.078-1.45,0.641c-1.021-0.388-2.042-0.773-3.062-1.171c-0.495-0.192-0.524-0.247-0.346-0.731
		c0.651-1.764,1.312-3.524,1.973-5.287c2.908-7.79,5.815-15.579,8.736-23.361c0.482-1.286,0.23-1.152,1.479-0.687
		c1.705,0.637,3.396,1.312,5.094,1.971c0.17,0.066,0.341,0.129,0.507,0.205c0.312,0.144,0.356,0.205,0.318,0.562
		c-0.129,1.208-0.264,2.415-0.404,3.621c-0.209,1.778-0.421,3.557-0.646,5.333c-0.271,2.138-0.551,4.273-0.832,6.411
		c-0.137,1.024-0.29,2.043-0.428,3.067c-0.021,0.162-0.102,0.347,0.071,0.527c0.243-0.209,0.306-0.516,0.418-0.781
		c2.079-4.854,4.151-9.71,6.226-14.566c0.229-0.53,0.459-1.057,0.688-1.587c0.094-0.215,0.255-0.25,0.444-0.168
		c0.893,0.383,1.782,0.768,2.673,1.157c0.611,0.268,1.222,0.541,1.831,0.813c0.192,0.088,0.271,0.235,0.19,0.44
		c-0.078,0.197-0.166,0.39-0.256,0.584c-4.164,9.241-8.328,18.481-12.492,27.724c-0.076,0.164-0.145,0.335-0.228,0.496
		c-0.138,0.271-0.25,0.321-0.502,0.214c-1.507-0.65-3.008-1.309-4.511-1.962c-0.188-0.081-0.285-0.22-0.266-0.427
		c0.023-0.271,0.055-0.543,0.092-0.812c0.479-3.396,0.979-6.789,1.433-10.188c0.431-3.219,0.825-6.443,1.198-9.668
		C278.587,64.501,278.758,63.662,278.721,62.677z"/>
	<path fill="#FFFFFF" d="M121.988,58.565c0.091-0.308-0.005-0.603-0.067-0.898c-1.171-5.55-2.344-11.101-3.515-16.652
		c-0.038-0.177-0.067-0.358-0.092-0.539c-0.042-0.307,0.013-0.413,0.28-0.467c1.546-0.313,3.094-0.623,4.642-0.923
		c0.331-0.065,0.452,0.017,0.517,0.341c0.207,1.042,0.401,2.086,0.6,3.128c0.896,4.71,1.793,9.418,2.69,14.128
		c0.85,4.471,1.701,8.941,2.55,13.413c0.022,0.119,0.041,0.24,0.051,0.359c0.014,0.172-0.061,0.291-0.236,0.329
		c-0.416,0.088-0.831,0.175-1.247,0.259c-1.19,0.24-2.38,0.473-3.568,0.726c-0.259,0.055-0.407-0.034-0.514-0.246
		c-0.163-0.326-0.321-0.655-0.482-0.979c-3.166-6.393-6.45-12.723-9.869-18.982c-0.157-0.287-0.264-0.614-0.542-0.834
		c-0.134,0.143-0.035,0.276-0.004,0.405c1.634,6.877,3.27,13.755,4.906,20.63c0.076,0.326,0.162,0.647,0.233,0.975
		c0.064,0.293,0.008,0.42-0.249,0.486c-1.353,0.343-2.707,0.677-4.063,1.007c-0.284,0.069-0.403,0-0.48-0.269
		c-0.144-0.496-0.271-0.994-0.4-1.494c-2.44-9.429-4.879-18.856-7.317-28.285c-0.038-0.146-0.07-0.295-0.106-0.442
		c-0.169-0.681-0.173-0.692,0.507-0.859c2.032-0.498,4.066-0.991,6.103-1.476c0.484-0.116,0.501-0.104,0.724,0.303
		c0.814,1.491,1.624,2.986,2.428,4.482c2.068,3.851,4.083,7.728,6.056,11.628c0.129,0.258,0.179,0.585,0.489,0.726
		c0.019,0.049-0.052,0.178,0.098,0.108C122.068,58.623,122.028,58.593,121.988,58.565z"/>
	<path fill="#FFFFFF" d="M138.092,124.151c0-5.37-0.002-10.742,0.002-16.112c0.001-1.347-0.143-1.19,1.236-1.194
		c2.488-0.006,4.977,0.002,7.465-0.002c1.007-0.002,1.998,0.102,2.97,0.367c2.35,0.649,3.89,2.146,4.65,4.453
		c0.354,1.075,0.489,2.188,0.532,3.313c0.02,0.515,0.013,1.03,0.013,1.547c0,5.341-0.002,10.682,0.002,16.022
		c0,1.156-0.076,2.303-0.333,3.436c-0.135,0.594-0.326,1.168-0.588,1.717c-0.739,1.549-1.91,2.635-3.514,3.258
		c-1.15,0.448-2.349,0.609-3.566,0.616c-2.701,0.021-5.401,0.007-8.102,0.006c-0.152,0-0.304-0.004-0.454-0.021
		c-0.167-0.021-0.284-0.121-0.295-0.291c-0.019-0.272-0.018-0.547-0.018-0.819C138.092,135.017,138.092,129.585,138.092,124.151z
		 M143.595,124.162c0,3.702,0,7.404,0,11.104c0,0.242-0.005,0.486,0.003,0.729c0.018,0.557,0.04,0.59,0.556,0.596
		c0.91,0.008,1.822,0.021,2.73-0.008c1.425-0.048,2.217-0.767,2.469-2.188c0.096-0.541,0.122-1.082,0.122-1.633
		c-0.003-5.705-0.002-11.407-0.002-17.112c0-0.242,0.008-0.486-0.012-0.728c-0.043-0.515-0.091-1.026-0.269-1.52
		c-0.292-0.807-0.835-1.323-1.683-1.494c-0.267-0.052-0.54-0.098-0.81-0.104c-0.819-0.014-1.638-0.012-2.458-0.002
		c-0.58,0.006-0.624,0.055-0.644,0.613c-0.009,0.24-0.003,0.484-0.003,0.729C143.595,116.818,143.595,120.49,143.595,124.162z"/>
	<path fill="#FFFFFF" d="M125.494,106.845c1.184,0,2.368-0.006,3.553,0.002c0.394,0.005,0.47,0.062,0.536,0.461
		c0.214,1.289,0.413,2.576,0.62,3.865c0.458,2.846,0.917,5.688,1.374,8.537c0.452,2.812,0.902,5.631,1.355,8.445
		c0.457,2.846,0.914,5.689,1.369,8.537c0.24,1.497,0.477,2.997,0.71,4.494c0.038,0.236-0.054,0.354-0.271,0.376
		c-0.12,0.012-0.242,0.014-0.363,0.015c-1.366,0-2.732,0.001-4.098-0.001c-0.152,0-0.304-0.006-0.455-0.021
		c-0.167-0.016-0.285-0.106-0.316-0.274c-0.061-0.328-0.114-0.655-0.163-0.985c-0.206-1.383-0.407-2.764-0.612-4.146
		c-0.026-0.181-0.057-0.356-0.094-0.535c-0.041-0.194-0.141-0.331-0.364-0.329c-0.122,0-0.243-0.008-0.364-0.008
		c-1.761,0-3.522,0-5.283,0c-0.121,0-0.243-0.004-0.363,0.006c-0.299,0.021-0.376,0.083-0.428,0.364
		c-0.056,0.299-0.102,0.598-0.146,0.897c-0.205,1.379-0.407,2.762-0.61,4.143c-0.018,0.121-0.029,0.24-0.052,0.359
		c-0.087,0.453-0.145,0.506-0.584,0.524c-0.182,0.007-0.363,0.003-0.546,0.003c-0.972,0.001-1.943,0.001-2.915,0
		c-0.122,0-0.242,0.002-0.364-0.001c-0.669-0.017-0.705-0.06-0.602-0.758c0.066-0.45,0.143-0.897,0.216-1.349
		c0.468-2.904,0.936-5.812,1.403-8.715c0.448-2.787,0.894-5.572,1.341-8.356c0.462-2.876,0.925-5.751,1.387-8.627
		c0.322-2.009,0.64-4.017,0.961-6.022c0.034-0.209,0.083-0.417,0.123-0.626c0.033-0.174,0.145-0.262,0.313-0.267
		c0.333-0.012,0.667-0.016,1.001-0.016c0.911-0.002,1.821,0,2.732,0C125.494,106.843,125.494,106.843,125.494,106.845z
		 M125.198,113.15c-0.065,0.28-0.091,0.366-0.105,0.454c-0.261,1.769-0.518,3.539-0.78,5.306c-0.458,3.087-0.922,6.175-1.379,9.263
		c-0.103,0.688-0.193,1.379-0.283,2.07c-0.023,0.184,0.082,0.279,0.261,0.292c0.121,0.009,0.242,0.015,0.363,0.015
		c1.304,0,2.608,0,3.912,0c0.121-0.002,0.242-0.01,0.363-0.021c0.184-0.013,0.258-0.127,0.251-0.301
		c-0.002-0.06-0.007-0.122-0.016-0.183c-0.315-2.127-0.631-4.256-0.946-6.385c-0.399-2.695-0.79-5.396-1.199-8.093
		C125.525,114.827,125.491,114.066,125.198,113.15z"/>
	<path fill="#FFFFFF" d="M95.737,46.111c0.808,0.033,1.441,0.039,2.072,0.174c1.96,0.418,3.41,1.516,4.41,3.237
		c0.445,0.767,0.75,1.591,0.984,2.44c1.438,5.207,2.873,10.412,4.308,15.619c0.292,1.058,0.486,2.13,0.454,3.234
		c-0.06,2.024-0.833,3.707-2.393,5.013c-0.255,0.213-0.522,0.42-0.805,0.595c-2.145,1.312-4.464,2.045-6.991,2.004
		c-2.17-0.037-3.923-0.94-5.243-2.669c-0.688-0.901-1.167-1.912-1.538-2.981c-0.747-2.147-1.5-4.296-2.25-6.442
		c-1.029-2.952-2.055-5.904-3.089-8.853c-0.263-0.749-0.469-1.507-0.568-2.293c-0.26-2.08,0.288-3.908,1.721-5.454
		c0.478-0.515,1.015-0.962,1.611-1.332C90.713,46.982,93.213,46.23,95.737,46.111z M102.711,70.674
		c0.026-0.484-0.116-0.98-0.263-1.477c-1.567-5.258-3.134-10.517-4.708-15.773c-0.112-0.376-0.244-0.753-0.423-1.101
		c-0.473-0.915-1.247-1.399-2.277-1.396c-1.214,0.003-2.337,0.356-3.323,1.068c-0.871,0.628-1.181,1.51-1.002,2.561
		c0.046,0.268,0.125,0.532,0.21,0.791c1.735,5.332,3.473,10.667,5.218,15.997c0.122,0.371,0.282,0.738,0.479,1.076
		c0.502,0.856,1.271,1.289,2.267,1.254c0.989-0.037,1.912-0.326,2.735-0.881C102.353,72.301,102.734,71.609,102.711,70.674z"/>
	<path fill="#FFFFFF" d="M270.379,54.98c0.021,0.93-0.27,2.012-0.646,3.076c-1.342,3.773-2.684,7.546-4.023,11.321
		c-0.467,1.314-0.934,2.631-1.402,3.944c-0.316,0.89-0.715,1.74-1.25,2.522c-1.568,2.294-3.767,3.243-6.502,3.025
		c-1.562-0.121-3.039-0.562-4.469-1.181c-0.613-0.268-1.195-0.594-1.74-0.983c-2.267-1.615-3.162-3.837-2.887-6.566
		c0.081-0.787,0.258-1.557,0.477-2.316c1.455-5.138,2.903-10.277,4.361-15.413c0.143-0.495,0.309-0.986,0.51-1.46
		c1.275-3.024,3.715-4.516,7.078-4.35c2.243,0.111,4.354,0.768,6.34,1.822c0.807,0.43,1.551,0.954,2.199,1.604
		C269.754,51.356,270.393,52.896,270.379,54.98z M264.757,54.659c-0.009-1.019-0.321-1.677-1.046-2.186
		c-1.047-0.735-2.221-1.105-3.51-1.04c-0.815,0.041-1.438,0.43-1.896,1.099c-0.24,0.355-0.396,0.75-0.521,1.159
		c-1.636,5.367-3.272,10.735-4.903,16.105c-0.115,0.377-0.207,0.758-0.234,1.156c-0.065,1.082,0.375,1.883,1.295,2.43
		c0.713,0.426,1.49,0.666,2.322,0.729c1.193,0.092,2.062-0.407,2.592-1.469c0.201-0.404,0.351-0.839,0.496-1.269
		c0.856-2.562,1.705-5.123,2.561-7.686c0.841-2.534,1.681-5.067,2.521-7.6C264.605,55.57,264.768,55.049,264.757,54.659z"/>
	<path fill="#FFFFFF" d="M218.279,53.412c0.115,4.979,0.132,9.959,0.139,14.94c0,0.149,0,0.303,0,0.454
		c-0.002,0.879,0.062,0.945-0.891,0.777c-1.228-0.219-2.457-0.402-3.688-0.578c-0.712-0.102-0.704-0.107-0.709-0.865
		c-0.006-1.094-0.019-2.188-0.028-3.279c-0.004-0.426-0.006-0.851-0.019-1.276c-0.019-0.599-0.021-0.608-0.581-0.705
		c-0.507-0.087-1.02-0.156-1.531-0.22c-1.324-0.164-2.647-0.329-3.976-0.477c-0.474-0.052-0.513-0.013-0.64,0.436
		c-0.412,1.46-0.814,2.923-1.221,4.385c-0.048,0.176-0.099,0.351-0.146,0.526c-0.066,0.254-0.239,0.324-0.48,0.296
		c-0.571-0.062-1.147-0.12-1.721-0.18c-0.755-0.075-1.513-0.145-2.265-0.232c-0.328-0.037-0.418-0.17-0.334-0.496
		c0.375-1.439,0.752-2.876,1.142-4.312c2.327-8.612,4.78-17.187,7.399-25.715c0.055-0.174,0.106-0.348,0.164-0.521
		c0.183-0.546,0.186-0.551,0.771-0.476c2.469,0.315,4.938,0.633,7.404,0.951c0.121,0.016,0.242,0.032,0.359,0.05
		c0.18,0.028,0.264,0.15,0.275,0.312c0.039,0.485,0.081,0.969,0.1,1.454C217.968,43.578,218.122,48.495,218.279,53.412z
		 M207.664,58.253c0.113,0.087,0.138,0.119,0.162,0.123c1.562,0.208,3.126,0.417,4.688,0.618c0.207,0.027,0.317-0.089,0.317-0.339
		c0-0.546-0.021-1.093-0.028-1.638c-0.066-4.64-0.187-9.279-0.377-13.917c-0.009-0.215,0.039-0.452-0.175-0.746
		C210.639,47.701,209.131,52.966,207.664,58.253z"/>
	<path fill="#FFFFFF" d="M161.246,34.529c0.26-0.126,0.538-0.124,0.808-0.137c1.395-0.07,2.79-0.133,4.186-0.188
		c0.454-0.019,0.538,0.054,0.555,0.506c0.075,2.002,0.139,4.004,0.211,6.007c0.161,4.49,0.328,8.98,0.488,13.47
		c0.057,1.578,0.122,3.156,0.144,4.733c0.015,1.064-0.094,2.119-0.415,3.146c-0.64,2.046-1.954,3.458-3.941,4.25
		c-0.652,0.26-1.328,0.436-2.02,0.533c-1.391,0.191-2.782,0.238-4.164-0.074c-2.061-0.467-3.542-1.663-4.46-3.558
		c-0.508-1.05-0.792-2.17-0.91-3.321c-0.275-2.657-0.514-5.317-0.774-7.975c-0.212-2.175-0.438-4.348-0.651-6.523
		c-0.211-2.175-0.411-4.352-0.62-6.527c-0.084-0.876-0.175-1.75-0.265-2.627c-0.015-0.151-0.039-0.301-0.047-0.453
		c-0.02-0.348,0.048-0.452,0.38-0.489c0.603-0.068,1.208-0.117,1.813-0.168c0.968-0.083,1.935-0.174,2.904-0.242
		c0.561-0.041,0.607,0.011,0.658,0.593c0.06,0.695,0.108,1.393,0.161,2.088c0.139,1.816,0.275,3.632,0.416,5.448
		c0.164,2.119,0.331,4.236,0.494,6.355c0.146,1.906,0.284,3.814,0.431,5.72c0.118,1.544,0.233,3.088,0.371,4.629
		c0.032,0.359,0.118,0.722,0.237,1.062c0.333,0.954,1.028,1.477,2.031,1.574c0.455,0.043,0.907,0.016,1.354-0.103
		c1.069-0.283,1.676-0.926,1.821-2.015c0.052-0.39,0.057-0.79,0.039-1.182c-0.079-1.759-0.169-3.517-0.266-5.276
		c-0.082-1.486-0.187-2.968-0.268-4.454c-0.152-2.789-0.292-5.578-0.444-8.367c-0.1-1.85-0.217-3.697-0.316-5.546
		C161.172,35.122,161.098,34.814,161.246,34.529z"/>
	<path fill="#FFFFFF" d="M167.05,134.819c0.36-0.695,0.38-1.428,0.49-2.141c0.426-2.789,0.825-5.582,1.231-8.373
		c0.388-2.674,0.772-5.346,1.161-8.019c0.431-2.973,0.862-5.942,1.296-8.917c0.067-0.459,0.129-0.521,0.573-0.523
		c1.366-0.008,2.733-0.006,4.099,0.002c0.356,0.004,0.435,0.096,0.384,0.44c-0.198,1.32-0.407,2.64-0.612,3.957
		c-0.395,2.55-0.791,5.097-1.186,7.646c-0.394,2.549-0.787,5.098-1.181,7.644c-0.398,2.58-0.799,5.157-1.197,7.736
		c-0.325,2.1-0.646,4.196-0.971,6.296c-0.037,0.24-0.084,0.479-0.129,0.716c-0.032,0.171-0.144,0.263-0.311,0.274
		c-0.181,0.014-0.364,0.021-0.545,0.021c-2.186,0.001-4.372,0.001-6.557,0c-0.182-0.001-0.365-0.005-0.545-0.021
		c-0.129-0.012-0.228-0.09-0.26-0.217c-0.052-0.207-0.098-0.414-0.13-0.623c-0.663-4.256-1.325-8.514-1.981-12.771
		c-0.633-4.105-1.258-8.216-1.893-12.322c-0.394-2.55-0.8-5.096-1.199-7.643c-0.042-0.271-0.072-0.543-0.094-0.814
		c-0.02-0.24,0.05-0.318,0.319-0.318c1.579-0.004,3.157-0.006,4.735,0c0.35,0.005,0.409,0.062,0.463,0.423
		c0.244,1.62,0.481,3.241,0.719,4.86c0.339,2.312,0.679,4.623,1.015,6.935c0.332,2.282,0.663,4.562,0.993,6.845
		c0.328,2.252,0.654,4.504,0.983,6.754C166.827,133.384,166.941,134.101,167.05,134.819z"/>
	<path fill="#FFFFFF" d="M188.881,124.19c0-3.035,0.002-6.071-0.001-9.107c-0.001-1.254,0.151-2.484,0.545-3.677
		c0.867-2.628,2.675-4.201,5.38-4.744c1.442-0.289,2.896-0.293,4.344-0.026c3.115,0.57,4.979,2.463,5.744,5.494
		c0.201,0.799,0.295,1.615,0.319,2.435c0.04,1.151,0.024,2.306,0.021,3.46c-0.002,0.427-0.073,0.513-0.45,0.516
		c-1.456,0.008-2.913,0.006-4.37-0.005c-0.283-0.001-0.377-0.103-0.38-0.394c-0.013-0.94-0.005-1.883-0.013-2.822
		c-0.002-0.425,0.013-0.854-0.035-1.271c-0.238-2.188-1.618-2.795-3.316-2.598c-1.068,0.126-1.775,0.738-2.085,1.773
		c-0.14,0.469-0.222,0.945-0.22,1.438c0.006,0.608,0,1.217,0,1.822c0,5.587,0,11.175-0.002,16.761c0,0.577,0.019,1.151,0.158,1.72
		c0.312,1.246,1.108,1.907,2.394,1.976c0.092,0.005,0.183,0.006,0.271,0.006c1.633,0.004,2.561-0.783,2.783-2.394
		c0.051-0.36,0.051-0.729,0.053-1.092c0.006-1.275,0.002-2.552,0.004-3.826c0-0.211-0.006-0.424,0.01-0.639
		c0.017-0.277,0.103-0.354,0.398-0.383c0.029-0.003,0.062-0.006,0.092-0.006c1.396,0,2.793-0.006,4.188,0.003
		c0.424,0.003,0.521,0.084,0.517,0.459c-0.021,2.03,0.125,4.069-0.137,6.095c-0.068,0.54-0.188,1.078-0.342,1.602
		c-0.832,2.848-2.751,4.5-5.639,5.041c-1.569,0.295-3.145,0.256-4.697-0.131c-2.389-0.597-4.025-2.039-4.883-4.35
		c-0.459-1.236-0.646-2.525-0.646-3.841c-0.008-2.126-0.004-4.252-0.004-6.376C188.88,126.134,188.881,125.163,188.881,124.19z"/>
	<path fill="#FFFFFF" d="M78.935,62.979c-0.186-0.145-0.23-0.358-0.307-0.553c-0.305-0.792-0.609-1.585-0.911-2.38
		c-0.152-0.399-0.33-0.783-0.587-1.126c-0.556-0.741-1.317-1.088-2.218-1.021c-1.172,0.088-2.252,0.494-3.186,1.222
		c-0.896,0.7-1.256,1.611-0.961,2.738c0.069,0.264,0.151,0.524,0.249,0.778c0.153,0.397,0.326,0.785,0.489,1.178
		c1.945,4.711,3.891,9.422,5.836,14.133c0.174,0.422,0.343,0.846,0.599,1.225c0.579,0.857,1.378,1.25,2.414,1.141
		c0.957-0.102,1.828-0.441,2.608-0.994c0.978-0.691,1.303-1.614,1.009-2.791c-0.088-0.353-0.211-0.696-0.339-1.036
		c-0.429-1.135-0.871-2.266-1.299-3.4c-0.142-0.377-0.107-0.457,0.294-0.607c1.392-0.523,2.787-1.038,4.181-1.553
		c0.19-0.072,0.369-0.073,0.447,0.152c0.635,1.834,1.47,3.603,1.832,5.521c0.538,2.854-0.27,5.241-2.636,6.985
		c-2.094,1.543-4.44,2.488-7.069,2.604c-2.335,0.104-4.172-0.86-5.584-2.69c-0.54-0.703-0.974-1.468-1.328-2.275
		c-2.228-5.083-4.451-10.173-6.673-15.261c-0.353-0.81-0.607-1.649-0.739-2.525c-0.266-1.768,0.112-3.377,1.165-4.823
		c0.359-0.494,0.769-0.944,1.247-1.321c2.478-1.953,5.285-3.062,8.442-3.244c0.606-0.035,1.214-0.003,1.813,0.12
		c1.616,0.33,2.915,1.164,3.912,2.473c0.406,0.533,0.764,1.101,1.007,1.725c0.442,1.131,0.856,2.271,1.271,3.411
		c0.111,0.306,0.066,0.413-0.19,0.508c-1.537,0.567-3.075,1.129-4.615,1.688C79.053,62.995,78.988,62.979,78.935,62.979z"/>
	<path fill="#FFFFFF" d="M209.055,124.161c0-5.404,0-10.812,0.002-16.218c0-1.214-0.09-1.099,1.055-1.101
		c4.283-0.002,8.564-0.002,12.849,0c1.101,0,1.037-0.1,1.038,1.033c0.002,0.973,0.001,1.941,0,2.912
		c0,0.186,0.004,0.365-0.005,0.549c-0.021,0.362-0.086,0.438-0.416,0.457c-0.243,0.012-0.487,0.006-0.729,0.006
		c-2.461,0-4.922,0-7.382,0c-0.915,0.002-0.924-0.059-0.924,0.875c0.002,2.643,0,5.285,0.001,7.928
		c0.001,0.181,0.003,0.365,0.016,0.547c0.012,0.171,0.104,0.283,0.278,0.292c0.242,0.013,0.485,0.019,0.728,0.019
		c1.793,0.002,3.584,0,5.377,0.002c0.242,0,0.486-0.004,0.729,0.008c0.272,0.018,0.354,0.107,0.37,0.406
		c0.012,0.182,0.009,0.364,0.009,0.545c0.001,1.123,0.007,2.25-0.002,3.373c-0.004,0.635-0.021,0.65-0.681,0.656
		c-0.941,0.012-1.883,0.004-2.823,0.004c-1.03,0-2.065-0.001-3.099,0.002c-0.213,0-0.426,0.012-0.637,0.029
		c-0.136,0.013-0.222,0.102-0.235,0.23c-0.021,0.181-0.027,0.361-0.027,0.547c-0.002,2.854-0.002,5.707,0,8.562
		c0,0.149,0.004,0.306,0.015,0.454c0.012,0.171,0.101,0.286,0.274,0.294c0.272,0.015,0.548,0.021,0.819,0.021
		c2.431,0.002,4.859,0.002,7.289,0.002c0.242,0,0.486,0,0.729,0.013c0.174,0.008,0.276,0.11,0.303,0.28
		c0.016,0.091,0.022,0.183,0.022,0.271c0.001,1.308,0.006,2.611-0.003,3.917c-0.004,0.406-0.084,0.475-0.48,0.497
		c-0.184,0.011-0.363,0.005-0.549,0.005c-4.281,0.001-8.562,0.001-12.847,0c-1.158,0-1.062,0.07-1.062-1.105
		C209.055,135.034,209.055,129.597,209.055,124.161z"/>
	<path fill="#FFFFFF" d="M138.002,36.695c0.984-0.024,1.883,0.098,2.764,0.352c1.955,0.564,3.345,1.783,4.193,3.629
		c0.541,1.176,0.736,2.432,0.865,3.704c0.018,0.171-0.053,0.296-0.231,0.331c-0.179,0.034-0.359,0.062-0.54,0.083
		c-1.264,0.158-2.528,0.313-3.793,0.467c-0.181,0.021-0.362,0.039-0.544,0.043c-0.169,0.005-0.287-0.077-0.314-0.254
		c-0.059-0.359-0.122-0.718-0.168-1.079c-0.068-0.517-0.207-1.012-0.464-1.466c-0.35-0.617-0.871-0.994-1.58-1.109
		c-0.833-0.136-1.639-0.03-2.41,0.285c-0.859,0.352-1.351,1.006-1.426,1.942c-0.112,1.389,0.223,2.647,1.104,3.745
		c0.479,0.599,1.056,1.088,1.671,1.537c0.909,0.664,1.882,1.225,2.873,1.752c1.318,0.701,2.533,1.553,3.707,2.471
		c3.089,2.417,4.322,5.623,3.964,9.462c-0.266,2.863-1.743,4.869-4.489,5.843c-1.83,0.65-3.713,0.884-5.643,0.531
		c-1.894-0.347-3.363-1.324-4.399-2.951c-0.629-0.985-1.001-2.072-1.25-3.205c-0.144-0.651-0.247-1.312-0.36-1.969
		c-0.058-0.331-0.005-0.417,0.363-0.481c1.404-0.244,2.81-0.481,4.217-0.701c0.434-0.068,0.511,0.006,0.591,0.472
		c0.092,0.537,0.164,1.079,0.247,1.619c0.083,0.543,0.221,1.068,0.482,1.557c0.426,0.798,1.106,1.194,1.998,1.197
		c0.58,0.002,1.149-0.114,1.679-0.36c0.736-0.344,1.21-0.905,1.332-1.722c0.201-1.351-0.098-2.592-0.861-3.72
		c-0.429-0.635-0.985-1.15-1.584-1.622c-0.959-0.753-2.006-1.363-3.074-1.943c-1.336-0.726-2.626-1.523-3.824-2.46
		c-0.524-0.41-1.026-0.854-1.505-1.318c-1.32-1.28-2.182-2.825-2.574-4.625c-0.313-1.436-0.433-2.877-0.126-4.332
		c0.371-1.757,1.327-3.101,2.826-4.072c1.194-0.772,2.524-1.18,3.908-1.419C136.431,36.766,137.245,36.651,138.002,36.695z"/>
	<path fill="#FFFFFF" d="M229.352,43.746c-0.014-0.196-0.069-0.29-0.207-0.325c-0.177-0.044-0.351-0.099-0.526-0.131
		c-1.466-0.26-2.929-0.515-4.394-0.772c-0.147-0.026-0.302-0.045-0.447-0.08c-0.293-0.071-0.366-0.155-0.32-0.44
		c0.205-1.288,0.417-2.575,0.635-3.861c0.036-0.216,0.188-0.292,0.401-0.255c1.284,0.221,2.571,0.426,3.854,0.665
		c4.323,0.804,8.635,1.664,12.914,2.676c0.782,0.184,0.787,0.186,0.613,0.947c-0.23,1.005-0.471,2.008-0.711,3.011
		c-0.162,0.687-0.191,0.706-0.846,0.559c-1.422-0.317-2.836-0.661-4.262-0.948c-1.107-0.222-1.021-0.442-1.283,0.797
		c-1.762,8.368-3.531,16.735-5.299,25.102c-0.223,1.056-0.225,1.052-1.266,0.846c-1.043-0.208-2.085-0.404-3.125-0.609
		c-0.208-0.041-0.414-0.101-0.619-0.154c-0.137-0.036-0.193-0.141-0.186-0.271c0.009-0.119,0.044-0.238,0.066-0.356
		c0.911-4.796,1.824-9.593,2.737-14.389c0.729-3.843,1.466-7.687,2.194-11.529C229.316,44.045,229.333,43.865,229.352,43.746z"/>
	<path fill="#FFFFFF" d="M191.295,52.368c0.131-2.324,0.288-5.112,0.441-7.9c0.084-1.516,0.16-3.031,0.238-4.548
		c0.008-0.182,0.017-0.364,0.014-0.545c-0.004-0.363-0.071-0.439-0.399-0.472c-0.12-0.013-0.243-0.013-0.364-0.018
		c-1.517-0.064-3.033-0.127-4.549-0.191c-0.152-0.006-0.305-0.014-0.455-0.027c-0.18-0.017-0.26-0.136-0.277-0.302
		c-0.01-0.09-0.008-0.183-0.006-0.272c0.025-1.123,0.045-2.247,0.086-3.37c0.021-0.607,0.074-0.641,0.713-0.633
		c0.121,0.001,0.242,0.011,0.363,0.013c3.037,0.058,6.067,0.259,9.096,0.447c2.304,0.144,4.604,0.333,6.898,0.55
		c1.239,0.116,1.143-0.032,1.023,1.219c-0.09,0.937-0.188,1.873-0.282,2.808c-0.065,0.658-0.082,0.678-0.701,0.627
		c-0.756-0.063-1.511-0.136-2.267-0.202c-0.906-0.08-1.814-0.16-2.723-0.234c-0.396-0.033-0.479,0.037-0.508,0.443
		c-0.125,1.604-0.242,3.208-0.363,4.812c-0.166,2.211-0.33,4.42-0.494,6.63c-0.141,1.876-0.275,3.754-0.413,5.63
		c-0.167,2.241-0.335,4.48-0.503,6.72c-0.075,1.029-0.154,2.059-0.229,3.087c-0.018,0.226-0.144,0.318-0.354,0.32
		c-0.062,0-0.122,0-0.182-0.004c-1.365-0.08-2.729-0.154-4.093-0.242c-0.401-0.026-0.47-0.103-0.453-0.515
		c0.062-1.305,0.132-2.608,0.206-3.911c0.085-1.517,0.182-3.03,0.266-4.546C191.111,56.108,191.189,54.47,191.295,52.368z"/>
	<path fill="#FFFFFF" d="M226.855,115.956c-0.01-1.271,0.031-2.455,0.293-3.617c0.086-0.384,0.191-0.767,0.322-1.138
		c0.807-2.328,2.396-3.834,4.785-4.437c1.857-0.465,3.729-0.457,5.58,0.063c2.13,0.604,3.594,1.956,4.43,3.995
		c0.416,1.021,0.621,2.1,0.699,3.188c0.233,3.18-0.39,6.162-2.105,8.877c-0.486,0.77-1.008,1.518-1.535,2.259
		c-0.512,0.718-1.016,1.438-1.473,2.188c-1.045,1.721-1.478,3.572-1.265,5.576c0.021,0.211,0.037,0.422,0.052,0.635
		c0.012,0.178-0.076,0.285-0.256,0.301c-0.148,0.017-0.303,0.021-0.453,0.021c-1.121,0.001-2.246,0.006-3.369-0.002
		c-0.767-0.004-0.783-0.008-0.908-0.8c-0.278-1.776-0.066-3.507,0.526-5.196c0.438-1.24,1.107-2.357,1.841-3.443
		c0.455-0.68,0.922-1.354,1.356-2.047c0.896-1.426,1.577-2.938,1.89-4.604c0.213-1.139,0.301-2.287,0.242-3.441
		c-0.023-0.457-0.111-0.902-0.265-1.336c-0.291-0.853-0.894-1.354-1.769-1.529c-0.449-0.09-0.906-0.088-1.357-0.004
		c-0.918,0.17-1.528,0.707-1.821,1.592c-0.163,0.49-0.239,1-0.235,1.521c0.004,0.971-0.004,1.942-0.007,2.913
		c-0.003,0.244,0.003,0.485-0.009,0.729c-0.016,0.283-0.098,0.356-0.396,0.386c-0.06,0.006-0.121,0.008-0.182,0.008
		c-1.336,0-2.672,0.009-4.007-0.002c-0.554-0.005-0.597-0.056-0.604-0.649C226.85,117.265,226.855,116.567,226.855,115.956z"/>
	<path fill="#FFFFFF" d="M171.724,50.913c-0.117-5.683-0.225-10.662-0.317-15.641c-0.026-1.346-0.175-1.185,1.213-1.228
		c1.183-0.036,2.368-0.042,3.552-0.047c0.978-0.004,0.978-0.1,0.975,1.009c-0.002,1.216,0.002,2.43-0.001,3.645
		c-0.005,2.398-0.015,4.797-0.018,7.197c-0.009,4.95-0.016,9.899-0.021,14.848c-0.002,1.281-0.058,1.116,1.129,1.127
		c2.278,0.021,4.555,0.002,6.831,0.115c0.939,0.047,0.9,0.001,0.869,0.932c-0.037,1.093-0.086,2.186-0.14,3.276
		c-0.019,0.352-0.088,0.416-0.45,0.416c-0.484,0-0.971-0.012-1.457-0.032c-3.612-0.151-7.226-0.122-10.839-0.09
		c-1.096,0.008-1.041,0.084-1.062-1.021C171.894,60.348,171.803,55.279,171.724,50.913z"/>
	<path fill="#FFFFFF" d="M184.863,124.162c0,5.462,0.002,10.923-0.002,16.384c-0.002,1.065,0.133,1.033-1.034,1.033
		c-1.153,0.001-2.306,0.002-3.458-0.001c-0.243,0-0.485-0.009-0.727-0.03c-0.129-0.012-0.228-0.102-0.237-0.231
		c-0.019-0.271-0.023-0.544-0.023-0.815c-0.001-3.822-0.001-7.646-0.001-11.471c0-6.915,0-13.833,0-20.751
		c0-0.241-0.003-0.483,0.001-0.729c0.012-0.691,0.013-0.703,0.715-0.705c1.426-0.004,2.852-0.004,4.278,0.004
		c0.412,0.005,0.468,0.068,0.482,0.478c0.012,0.271,0.006,0.546,0.006,0.818C184.863,113.483,184.863,118.822,184.863,124.162z"/>
	<path fill="#FFFFFF" d="M245.516,42.337c0.101,0.023,0.274,0.064,0.45,0.109c1.296,0.33,2.587,0.659,3.878,0.991
		c0.206,0.053,0.409,0.119,0.61,0.187c0.132,0.047,0.183,0.162,0.157,0.289c-0.051,0.236-0.114,0.472-0.18,0.706
		c-2.607,9.757-5.216,19.515-7.839,29.27c-0.265,0.986-0.071,1.045-1.269,0.724c-1.172-0.315-2.352-0.603-3.521-0.908
		c-0.404-0.106-0.421-0.131-0.312-0.573c0.396-1.652,0.796-3.303,1.201-4.953c2.043-8.306,4.091-16.609,6.137-24.916
		c0.05-0.206,0.102-0.413,0.162-0.616C245.084,42.335,245.15,42.292,245.516,42.337z"/>
	<path fill="#FFFFFF" d="M175.604,17.302c0.525,0.551,1.048,1.098,1.567,1.648c0.104,0.11,0.199,0.229,0.29,0.348
		c0.07,0.093,0.018,0.189-0.063,0.216c-0.112,0.037-0.238,0.034-0.36,0.035c-0.667,0.002-1.335-0.013-2.002,0.007
		c-0.389,0.012-0.725-0.059-0.958-0.391c-0.246-0.349-0.52-0.291-0.87-0.145c-1.478,0.622-3.007,0.696-4.549,0.294
		c-2.715-0.708-4.528-3.051-4.585-5.869c-0.016-0.765,0.059-1.514,0.296-2.244c0.799-2.459,2.826-3.937,5.325-4.188
		c1.387-0.139,2.731,0.059,3.969,0.735c1.963,1.075,3.03,2.744,3.209,4.969c0.123,1.53-0.188,2.958-1.082,4.233
		C175.724,17.048,175.677,17.16,175.604,17.302z M171.496,16.617c-0.08-0.346-0.358-0.508-0.556-0.729
		c-0.424-0.473-0.863-0.934-1.292-1.404c-0.084-0.091-0.01-0.255,0.119-0.258c0.666-0.015,1.333-0.001,1.998-0.038
		c0.544-0.028,1.015,0.056,1.369,0.521c0.11,0.143,0.298,0.098,0.35-0.064c0.452-1.428,0.303-2.769-0.689-3.927
		c-1.308-1.527-4.257-1.447-5.207,0.842c-0.463,1.116-0.472,2.247,0.014,3.359c0.428,0.981,1.179,1.61,2.225,1.834
		C170.382,16.875,170.959,16.936,171.496,16.617z"/>
	<path fill="#FFFFFF" d="M151.652,14.34c0.064,0.347,0.3,0.555,0.477,0.792c0.845,1.147,1.701,2.287,2.552,3.429
		c0.072,0.098,0.147,0.194,0.215,0.293c0.146,0.216,0.09,0.351-0.155,0.354c-0.636,0.009-1.273,0.017-1.909,0.006
		c-1.581-0.027-1.119,0.23-2.032-1.062c-0.698-0.99-1.373-1.998-2.064-2.994c-0.061-0.086-0.127-0.241-0.273-0.15
		c-0.056,0.035-0.084,0.155-0.085,0.235c-0.007,0.879-0.007,1.758-0.009,2.639c-0.001,0.302,0.006,0.607-0.008,0.908
		c-0.016,0.333-0.096,0.416-0.453,0.42c-0.757,0.009-1.515,0.006-2.272-0.004c-0.294-0.004-0.37-0.089-0.39-0.382
		c-0.014-0.212-0.01-0.425-0.01-0.637c0-3.274,0-6.549,0-9.822c0-0.182-0.003-0.365,0.005-0.546c0.019-0.42,0.076-0.498,0.465-0.499
		c1.545-0.003,3.092,0.005,4.638,0.012c0.397,0.001,0.783,0.083,1.161,0.197c1.453,0.442,2.325,1.411,2.497,2.917
		c0.17,1.48-0.391,2.668-1.646,3.5C152.131,14.097,151.884,14.212,151.652,14.34z M148.368,11.154c0,0.211,0.001,0.424,0,0.636
		c-0.005,0.904,0.007,0.889,0.933,0.823c0.208-0.015,0.417-0.079,0.615-0.15c0.539-0.195,0.822-0.595,0.868-1.163
		c0.074-0.898-0.418-1.494-1.37-1.574c-1.111-0.091-1.041-0.107-1.046,0.882C148.368,10.791,148.368,10.972,148.368,11.154z"/>
	<path fill="#FFFFFF" d="M202.426,14.341c0.059,0.308,0.266,0.498,0.428,0.714c0.83,1.122,1.666,2.239,2.5,3.359
		c0.125,0.169,0.248,0.344,0.365,0.52c0.075,0.114,0.012,0.26-0.115,0.261c-1.002,0.009-2.004,0.009-3.004,0.019
		c-0.244,0.002-0.385-0.137-0.511-0.321c-0.394-0.576-0.791-1.15-1.187-1.725c-0.411-0.6-0.823-1.201-1.237-1.8
		c-0.086-0.125-0.175-0.249-0.274-0.361c-0.029-0.035-0.105-0.039-0.16-0.036c-0.07,0.003-0.097,0.057-0.098,0.131
		c-0.003,0.546-0.011,1.091-0.015,1.638c-0.005,0.698-0.003,1.395-0.009,2.094c-0.002,0.199-0.074,0.365-0.308,0.366
		c-0.817,0.006-1.637,0.009-2.454,0.002c-0.219-0.001-0.324-0.138-0.328-0.353c-0.004-0.213-0.01-0.425-0.01-0.637
		c-0.001-3.308-0.001-6.617,0-9.925c0-0.182-0.004-0.365,0.01-0.547c0.018-0.333,0.09-0.418,0.447-0.418
		c1.578-0.003,3.156,0.007,4.733,0.014c0.366,0.002,0.724,0.083,1.071,0.191c1.369,0.418,2.256,1.293,2.472,2.735
		c0.231,1.553-0.281,2.808-1.611,3.687C202.907,14.1,202.66,14.213,202.426,14.341z M199.959,9.698
		c-0.223,0-0.312-0.003-0.404,0.001c-0.337,0.016-0.422,0.088-0.43,0.435c-0.012,0.603-0.012,1.207-0.004,1.809
		c0.007,0.676,0.062,0.733,0.718,0.687c0.269-0.019,0.541-0.065,0.795-0.15c0.644-0.215,0.972-0.715,0.944-1.379
		c-0.025-0.678-0.381-1.141-1.036-1.316C200.312,9.722,200.066,9.714,199.959,9.698z"/>
	<path fill="#FFFFFF" d="M178.358,11.283c0-1.153-0.005-2.306,0.003-3.458c0.002-0.416,0.079-0.499,0.461-0.503
		c0.758-0.011,1.517-0.007,2.274,0.003c0.281,0.005,0.355,0.094,0.372,0.399c0.013,0.243,0.009,0.485,0.009,0.729
		c0.002,1.758-0.006,3.518,0.006,5.277c0.004,0.483,0.033,0.97,0.104,1.449c0.166,1.15,0.729,1.65,1.869,1.711
		c1.393,0.076,2.021-0.458,2.154-1.857c0.048-0.481,0.058-0.969,0.059-1.454c0.008-1.82-0.001-3.64,0.006-5.459
		c0.002-0.794,0.012-0.797,0.811-0.803c0.638-0.004,1.273-0.004,1.91,0.008c0.297,0.006,0.383,0.097,0.404,0.373
		c0.014,0.151,0.012,0.303,0.012,0.454c0,2.033,0.006,4.065-0.006,6.098c-0.005,0.483-0.043,0.971-0.113,1.449
		c-0.283,1.93-1.483,3.256-3.381,3.723c-1.168,0.288-2.35,0.281-3.515-0.012c-1.875-0.473-2.946-1.708-3.299-3.586
		c-0.101-0.535-0.15-1.079-0.145-1.629c0.011-0.969,0.003-1.94,0.003-2.911C178.356,11.283,178.357,11.283,178.358,11.283z"/>
	<path fill="#FFFFFF" d="M155.966,13.271c0-1.64,0-3.279,0.001-4.919c0-0.243,0.007-0.485,0.021-0.729
		c0.009-0.177,0.12-0.273,0.288-0.291c0.15-0.017,0.303-0.016,0.455-0.017c1.761,0,3.522,0,5.284,0
		c0.151,0.001,0.304-0.001,0.455,0.016c0.163,0.018,0.295,0.099,0.297,0.281c0.006,0.667,0.006,1.335,0.001,2.002
		c-0.001,0.176-0.119,0.285-0.287,0.291c-0.454,0.016-0.91,0.016-1.365,0.018c-0.486,0.002-0.972-0.006-1.458,0.004
		c-0.497,0.01-0.568,0.071-0.567,0.596c0.003,1.597-0.189,1.37,1.318,1.389c0.607,0.008,1.214,0.004,1.821,0.012
		c0.212,0.002,0.348,0.116,0.35,0.331c0.007,0.607,0.008,1.214-0.003,1.822c-0.003,0.217-0.161,0.321-0.364,0.323
		c-0.729,0.007-1.458,0.008-2.187,0.011c-0.979,0.003-0.937-0.042-0.94,0.951c0,0.273-0.005,0.547,0.012,0.819
		c0.021,0.32,0.12,0.417,0.463,0.422c0.759,0.012,1.518,0.005,2.277,0.008c0.212,0,0.426-0.002,0.638,0.016
		c0.165,0.013,0.279,0.105,0.294,0.286c0.006,0.09,0.019,0.182,0.014,0.272c-0.029,0.632,0.083,1.27-0.076,1.896
		c-0.606,0.281-1.247,0.118-1.87,0.13c-1.335,0.027-2.672,0.009-4.008,0.008c-0.182,0-0.365,0-0.546-0.014
		c-0.168-0.014-0.282-0.108-0.293-0.286c-0.015-0.241-0.022-0.485-0.023-0.728C155.966,16.55,155.966,14.91,155.966,13.271z"/>
	<path fill="#FFFFFF" d="M206.749,13.204c0-1.64-0.002-3.278,0-4.917c0-0.213,0.004-0.425,0.01-0.637
		c0.009-0.226,0.15-0.312,0.353-0.324c0.123-0.008,0.244-0.01,0.365-0.01c1.791,0,3.582,0,5.375,0c0.09,0,0.183,0,0.271,0.005
		c0.307,0.021,0.396,0.088,0.402,0.368c0.011,0.606,0.012,1.214,0,1.82c-0.006,0.345-0.071,0.402-0.457,0.408
		c-0.758,0.01-1.518,0.003-2.274,0.006c-0.213,0.001-0.425,0.004-0.637,0.018c-0.173,0.012-0.267,0.12-0.29,0.29
		c-0.006,0.03-0.008,0.06-0.008,0.09c0.02,1.862-0.299,1.561,1.468,1.589c0.547,0.009,1.095-0.001,1.641,0.01
		c0.273,0.005,0.37,0.107,0.376,0.397c0.012,0.545,0.014,1.094,0.004,1.639c-0.008,0.343-0.102,0.438-0.434,0.445
		c-0.577,0.014-1.152,0.005-1.73,0.008c-0.303,0.002-0.604-0.005-0.91,0.01c-0.33,0.016-0.404,0.099-0.414,0.455
		c-0.012,0.394-0.012,0.789-0.002,1.184c0.013,0.479,0.062,0.539,0.514,0.547c0.697,0.011,1.396,0.003,2.096,0.004
		c0.242,0.001,0.486,0.005,0.729,0.01c0.222,0.006,0.334,0.129,0.334,0.343c0.004,0.637,0.004,1.275-0.002,1.912
		c-0.002,0.215-0.125,0.331-0.342,0.335c-0.151,0.003-0.305,0.008-0.455,0.008c-1.73,0.001-3.461,0.001-5.191-0.001
		c-0.182,0-0.363-0.011-0.543-0.029c-0.139-0.015-0.215-0.111-0.223-0.245c-0.016-0.241-0.021-0.484-0.021-0.727
		C206.746,16.544,206.749,14.875,206.749,13.204z"/>
	<path fill="#FFFFFF" d="M193.95,13.333c0,1.607,0.001,3.217-0.001,4.825c0,0.242-0.004,0.485-0.014,0.728
		c-0.01,0.168-0.098,0.305-0.271,0.307c-0.851,0.01-1.698,0.009-2.545,0.003c-0.188-0.001-0.261-0.14-0.271-0.304
		c-0.011-0.213-0.012-0.425-0.012-0.637c-0.001-3.339-0.001-6.678,0-10.015c0.001-0.988-0.05-0.921,0.953-0.924
		c0.547-0.001,1.094-0.008,1.641,0.004c0.447,0.011,0.496,0.069,0.512,0.548c0.008,0.213,0.004,0.425,0.004,0.637
		C193.95,10.114,193.95,11.723,193.95,13.333z"/>
	<path fill="#FFFFFF" d="M170.122,86.331c-0.012-0.857,0.14-1.477,0.364-2.072c0.776-2.061,2.148-3.633,3.979-4.821
		c0.435-0.282,0.915-0.476,1.419-0.595c0.494-0.116,0.954-0.084,1.351,0.297c0.307,0.297,0.652,0.535,1.094,0.611
		c0.288,0.049,0.461,0.275,0.601,0.519c0.362,0.622,0.485,1.301,0.42,2.014c-0.081,0.886-0.311,1.729-0.748,2.506
		c-0.911,1.623-2.193,2.888-3.775,3.851c-0.603,0.367-1.26,0.566-1.981,0.58c-1.136,0.019-2.101-0.695-2.51-1.76
		c-0.075-0.197-0.131-0.406-0.166-0.611C170.131,86.605,170.125,86.361,170.122,86.331z M178.532,81.927
		c-0.007-0.149-0.005-0.304-0.022-0.453c-0.082-0.717-0.501-1.071-1.223-1.051c-0.378,0.01-0.707,0.151-1.02,0.344
		c-0.389,0.24-0.734,0.535-1.053,0.861c-1.084,1.108-2.038,2.321-2.809,3.67c-0.224,0.393-0.393,0.817-0.565,1.235
		c-0.129,0.312-0.148,0.647-0.117,0.983c0.048,0.519,0.336,0.843,0.843,0.922c0.423,0.066,0.841,0.043,1.252-0.109
		c0.431-0.16,0.83-0.376,1.183-0.666c1.404-1.152,2.483-2.56,3.195-4.236C178.398,82.95,178.526,82.453,178.532,81.927z"/>
	<path fill="#FFFFFF" d="M182.492,87.396c-0.02-0.396,0.123-0.796,0.287-1.188c0.246-0.592,0.578-1.136,0.941-1.66
		c0.223-0.326,0.469-0.635,0.682-0.969c0.121-0.188,0.392-0.404,0.19-0.626c-0.159-0.176-0.366,0.099-0.562,0.144
		c-0.596,0.137-1.194,0.283-1.729-0.187c-0.145-0.128-0.271-0.099-0.375,0.052c-0.141,0.198-0.273,0.4-0.404,0.604
		c-0.819,1.28-1.746,2.483-2.686,3.676c-0.149,0.19-0.281,0.399-0.509,0.511c-0.109,0.055-0.227,0.104-0.328-0.01
		c-0.088-0.102-0.102-0.23-0.038-0.337c0.107-0.183,0.235-0.353,0.363-0.521c0.567-0.752,1.132-1.504,1.708-2.248
		c0.995-1.283,1.716-2.715,2.272-4.234c0.291-0.795,0.577-1.598,0.781-2.422c0.059-0.239,0.186-0.288,0.402-0.188
		c0.391,0.176,0.752,0.396,1.033,0.727c0.349,0.406,0.428,0.861,0.248,1.361c-0.156,0.436-0.422,0.807-0.75,1.129
		c-0.322,0.317-0.672,0.612-1.006,0.922c-0.19,0.181-0.154,0.363,0.076,0.508c0.221,0.136,0.442,0.166,0.692,0.081
		c0.474-0.159,0.854-0.456,1.218-0.78c0.204-0.181,0.383-0.393,0.594-0.562c0.344-0.28,0.741-0.407,1.189-0.32
		c0.646,0.126,0.902,0.658,0.583,1.229c-0.118,0.211-0.274,0.399-0.416,0.599c-0.772,1.091-1.528,2.19-2.169,3.366
		c-0.273,0.504-0.551,1.015-0.674,1.584c-0.045,0.205-0.148,0.449,0.053,0.599c0.229,0.17,0.477,0.045,0.667-0.111
		c0.303-0.25,0.599-0.513,0.868-0.801c0.789-0.841,1.492-1.757,2.188-2.676c0.22-0.292,0.425-0.595,0.655-0.874
		c0.188-0.229,0.283-0.562,0.629-0.611c0.18-0.025,0.132,0.371-0.146,0.889c-0.158,0.293-0.338,0.576-0.524,0.853
		c-0.495,0.729-0.997,1.45-1.501,2.174c-0.368,0.524-0.798,0.993-1.294,1.397c-0.312,0.252-0.642,0.459-1.022,0.584
		C183.452,89.452,182.486,88.748,182.492,87.396z"/>
	<path fill="#FFFFFF" d="M133.576,12.979c-1.667,0-3.335,0.001-5.002-0.001c-0.243,0-0.485-0.004-0.726-0.025
		c-0.129-0.011-0.23-0.111-0.233-0.237c-0.013-0.696-0.02-1.393-0.01-2.089c0.002-0.16,0.121-0.273,0.297-0.284
		c0.182-0.011,0.363-0.017,0.545-0.017c3.365-0.001,6.73-0.004,10.095,0c0.894,0.001,0.896,0.006,0.901,0.904
		c0.002,0.454,0.005,0.909-0.011,1.364c-0.01,0.279-0.107,0.361-0.4,0.378c-0.212,0.011-0.425,0.006-0.637,0.007
		C136.79,12.979,135.183,12.979,133.576,12.979z"/>
	<path fill="#FFFFFF" d="M225.355,12.979c-1.607,0-3.213,0-4.819-0.001c-0.243,0-0.485-0.003-0.729-0.006
		c-0.209-0.003-0.363-0.104-0.365-0.316c-0.012-0.667-0.012-1.334,0-2c0.006-0.209,0.158-0.314,0.365-0.321
		c0.213-0.006,0.424-0.01,0.637-0.01c3.274,0,6.55,0.001,9.822-0.002c1.082,0,1.041-0.035,1.018,1.06
		c-0.016,0.504,0.133,1.027-0.125,1.512c-0.471,0.167-0.957,0.076-1.438,0.08C228.268,12.988,226.812,12.979,225.355,12.979z"/>
	<path fill="#FFFFFF" d="M236.854,138.938c0,0.756,0.002,1.511-0.002,2.269c-0.002,0.206-0.104,0.34-0.324,0.356
		c-0.147,0.009-0.303,0.016-0.451,0.016c-1.239,0.002-2.479,0.002-3.723,0c-0.149,0-0.304-0.003-0.451-0.021
		c-0.166-0.02-0.274-0.113-0.305-0.281c-0.011-0.061-0.014-0.122-0.014-0.18c-0.002-1.424-0.006-2.846,0.002-4.27
		c0.002-0.402,0.085-0.49,0.471-0.492c1.453-0.011,2.906-0.01,4.358,0c0.36,0.002,0.435,0.071,0.438,0.424
		c0.01,0.727,0.002,1.451,0.002,2.179H236.854L236.854,138.938z"/>
	<path fill="#FFFFFF" d="M121.988,58.565c0.04,0.028,0.08,0.058,0.12,0.088c-0.15,0.07-0.08-0.059-0.098-0.108L121.988,58.565z"/>
</g>
</svg>
