<?xml version="1.0" encoding="utf-8"?>
<!-- Generator: Adobe Illustrator 16.0.0, SVG Export Plug-In . SVG Version: 6.00 Build 0)  -->
<!DOCTYPE svg PUBLIC "-//W3C//DTD SVG 1.1//EN" "http://www.w3.org/Graphics/SVG/1.1/DTD/svg11.dtd">
<svg version="1.1" id="Layer_1" xmlns="http://www.w3.org/2000/svg" xmlns:xlink="http://www.w3.org/1999/xlink" x="0px" y="0px"
	 width="93px" height="93px" viewBox="0 0 93 93" enable-background="new 0 0 93 93" xml:space="preserve">
<path fill="none" stroke="#1968A1" stroke-width="3" stroke-miterlimit="10" d="M73,70c-17.4-3.1-35.5-3.1-52.9,0"/>
<path fill="none" stroke="#1968A1" stroke-width="4" stroke-miterlimit="10" d="M78.6,58.8c-21-4.7-43.3-4.7-64.3,0"/>
<g>
	<path fill="none" stroke="#1968A1" stroke-width="3" stroke-miterlimit="10" d="M56,41.1c-3.2,3-8.2,3-8.2,3s0.2-5,3.4-8
		s8.2-3,8.2-3S59.2,38.1,56,41.1z"/>
	<path fill="none" stroke="#1968A1" stroke-width="3" stroke-miterlimit="10" d="M41.9,29.7c4.6,4.4,4.9,11.6,4.9,11.6
		S39.6,41.4,35,37s-5-11.5-5-11.5S37.2,25.3,41.9,29.7z"/>
	<path fill="#2E91D7" d="M45,61.8l0.7-35.6c0-0.6,0.5-1.2,1.2-1.2l0,0c0.6,0,1.2,0.5,1.2,1.2l0.7,35.6c0,0.7-0.5,1.2-1.2,1.2h-1.5
		C45.6,63,45,62.5,45,61.8z"/>
</g>
<path fill="none" stroke="#1968A1" stroke-width="2" stroke-miterlimit="10" d="M65.9,76.2c-12.801-1.8-25.8-1.8-38.601,0"/>
<path fill="none" stroke="#1968A1" stroke-width="2" stroke-miterlimit="10" d="M35.7,61.7C29.1,62.2,22.5,63.1,16,64.5"/>
<path fill="none" stroke="#1968A1" stroke-width="2" stroke-miterlimit="10" d="M76.9,64.5c-6.4-1.4-13-2.3-19.601-2.8"/>
<path fill="none" stroke="#2E91D7" stroke-width="4" stroke-miterlimit="10" d="M82,46.5C82,66,66,82,46.5,82S11,66,11,46.5
	S27,11,46.5,11S82,27,82,46.5z"/>
</svg>
