<?xml version="1.0" encoding="utf-8"?>
<!-- Generator: Adobe Illustrator 16.0.0, SVG Export Plug-In . SVG Version: 6.00 Build 0)  -->
<!DOCTYPE svg PUBLIC "-//W3C//DTD SVG 1.1//EN" "http://www.w3.org/Graphics/SVG/1.1/DTD/svg11.dtd">
<svg version="1.1" id="Layer_1" xmlns="http://www.w3.org/2000/svg" xmlns:xlink="http://www.w3.org/1999/xlink" x="0px" y="0px"
	 width="93px" height="93px" viewBox="0 0 93 93" enable-background="new 0 0 93 93" xml:space="preserve">
<g>
	<path fill="none" stroke="#FFFFFF" stroke-width="2" stroke-miterlimit="10" d="M63,11h7c3.3,0,6,2.7,6,6v65c0,3.3-2.7,6-6,6H22
		c-3.3,0-6-2.7-6-6V17c0-3.3,2.7-6,6-6h6"/>
</g>
<path fill="#FFFFFF" d="M55,6h-4c-0.3-2.8-2.6-5-5.5-5c-2.9,0-5.2,2.2-5.5,5h-4c-2.1,0-3.8,1.7-3.8,3.8V18h26.7V9.8
	C58.8,7.7,57.1,6,55,6z M45.5,10C43.6,10,42,8.4,42,6.5S43.6,3,45.5,3C47.4,3,49,4.6,49,6.5S47.4,10,45.5,10z"/>
<rect x="29" y="29" fill="#FFFFFF" width="9" height="9"/>
<line fill="none" stroke="#EAEAEA" stroke-width="3" stroke-miterlimit="10" x1="45" y1="33.5" x2="62" y2="33.5"/>
<rect x="29" y="46" fill="#FFFFFF" width="9" height="9"/>
<line fill="none" stroke="#EAEAEA" stroke-width="3" stroke-miterlimit="10" x1="45" y1="50.5" x2="62" y2="50.5"/>
<rect x="29" y="63" fill="#FFFFFF" width="9" height="9"/>
<line fill="none" stroke="#EAEAEA" stroke-width="3" stroke-miterlimit="10" x1="45" y1="67.5" x2="62" y2="67.5"/>
</svg>
