<?xml version="1.0" encoding="utf-8"?>
<!-- Generator: Adobe Illustrator 16.0.0, SVG Export Plug-In . SVG Version: 6.00 Build 0)  -->
<!DOCTYPE svg PUBLIC "-//W3C//DTD SVG 1.1//EN" "http://www.w3.org/Graphics/SVG/1.1/DTD/svg11.dtd">
<svg version="1.1" id="Layer_1" xmlns="http://www.w3.org/2000/svg" xmlns:xlink="http://www.w3.org/1999/xlink" x="0px" y="0px"
	 width="93px" height="93px" viewBox="0 0 93 93" enable-background="new 0 0 93 93" xml:space="preserve">
<path fill="#2E91D7" d="M11.4,64H8v4h5.9C13,66.7,12.2,65.4,11.4,64z"/>
<path fill="#1968A1" d="M45.8,72c-14.9,0-27-12.1-27-27c0-14.9,12.1-27,27-27c14.9,0,27,12.1,27,27c0,5.4-1.6,10.6-4.6,15H70.6
	c2.7-4.5,4.2-9.6,4.2-15c0-16-13-29-29-29s-29,13-29,29s13,29,29,29h35.9v-2H45.8z"/>
<path fill="#2E91D7" d="M85.3,64H81h-4.2H72H59.6H50.2H48h-2.2c-10.7,0-19.4-8.7-19.4-19.3C26.5,34,35,25.4,46,25.3v0.2
	c11,0,19.4,8.7,19.4,19.5c0,5.9-2.801,11.4-7.101,15H63.9c3.399-4.1,5.5-9.4,5.5-15C69.4,32.1,59,21.6,46,21.5v-0.2
	c-13,0-23.6,10.5-23.6,23.3C22.4,57.5,32.9,68,45.8,68h4.7l0,0c0,0,0,0,0.1,0h33l4.2,4.2L84.3,77H46c-18,0-32.4-14.2-32.4-32
	S28,12.6,45.8,12.6S78.2,27.2,78.2,45c0,5.3-1.3,10.4-3.7,15H79c2.1-4.7,3.3-9.7,3.3-15C82.3,24.9,66,8.6,46,8.6S9.6,24.9,9.6,45
	C9.6,65.1,26,81,46,81h40.3l6.8-9.1L85.3,64z"/>
<path fill="#1968A1" d="M17.2,72H8v2h11v-0.3C18.4,73.2,17.8,72.6,17.2,72z"/>
<g>
	<rect x="1" y="64" fill="#2E91D7" width="5" height="4"/>
</g>
<g>
	<rect x="1" y="77" fill="#2E91D7" width="5" height="4"/>
</g>
<g>
	<rect x="1" y="72" fill="#1968A1" width="5" height="2"/>
</g>
<path fill="#2E91D7" d="M23,77H8v4h22C27.5,79.9,25.2,78.6,23,77z"/>
</svg>
