<?xml version="1.0" encoding="utf-8"?>
<!-- Generator: Adobe Illustrator 16.0.0, SVG Export Plug-In . SVG Version: 6.00 Build 0)  -->
<!DOCTYPE svg PUBLIC "-//W3C//DTD SVG 1.1//EN" "http://www.w3.org/Graphics/SVG/1.1/DTD/svg11.dtd">
<svg version="1.1" id="Layer_1" xmlns="http://www.w3.org/2000/svg" xmlns:xlink="http://www.w3.org/1999/xlink" x="0px" y="0px"
	 width="93px" height="93px" viewBox="0 0 93 93" enable-background="new 0 0 93 93" xml:space="preserve">
<g>
	<line fill="none" stroke="#EAEAEA" stroke-width="3" stroke-miterlimit="10" x1="23.8" y1="31.5" x2="36.8" y2="31.5"/>
	<g>
		<g>
			<g>
				<path fill="#FFFFFF" d="M69.6,53.2L82.8,67L80,69.8L66.8,56L69.6,53.2 M69.7,48.9L67.5,51.1L64.7,53.9L62.6,56l2,2.1L77.8,71.9
					L79.9,74.1L82.1,71.9L84.9,69.1L87,67l-2-2.1L71.8,51.1L69.7,48.9L69.7,48.9z"/>
			</g>
		</g>
	</g>
	<path fill="none" stroke="#FFFFFF" stroke-width="2" stroke-miterlimit="10" d="M70.898,43.5c0,8-6.601,14.6-14.601,14.6
		s-14.601-6.6-14.601-14.6s6.601-14.6,14.601-14.6S70.898,35.5,70.898,43.5z"/>
	<path fill="none" stroke="#FFFFFF" stroke-width="3" stroke-miterlimit="10" d="M62.8,43.5c0,3.6-2.899,6.5-6.5,6.5
		c-3.6,0-6.5-2.9-6.5-6.5c0-3.6,2.9-6.5,6.5-6.5C59.9,37,62.8,39.9,62.8,43.5z"/>
	<g>
		<path fill="none" stroke="#FFFFFF" stroke-width="2" stroke-miterlimit="10" d="M50.8,73v7c0,1.7-1.3,3-3,3h-38c-1.6,0-3-1.3-3-3
			V22c0-1.6,1.4-3,3-3h38c1.7,0,3,1.4,3,3v9"/>
	</g>
	<g>
		<path fill="none" stroke="#FFFFFF" stroke-width="2" stroke-miterlimit="10" d="M58.8,64v8c0,1.7-1.3,3-3,3h-38c-1.6,0-3-1.3-3-3
			V14c0-1.6,1.4-3,3-3h38c1.7,0,3,1.4,3,3v9"/>
	</g>
	<g>
		<g>
			<path fill="#EAEAEA" d="M36.898,42H23.8v3H36.9c0-0.5-0.102-1-0.102-1.5S36.8,42.5,36.898,42z"/>
			<path fill="#EAEAEA" d="M23.8,49v3h15c-0.5-1-0.899-2-1.2-3H23.8z"/>
			<path fill="#EAEAEA" d="M41.398,56H23.8v3h20v-0.6C42.898,57.7,42.1,56.9,41.398,56z"/>
		</g>
	</g>
</g>
</svg>
