<?xml version="1.0" encoding="utf-8"?>
<!-- Generator: Adobe Illustrator 16.0.0, SVG Export Plug-In . SVG Version: 6.00 Build 0)  -->
<!DOCTYPE svg PUBLIC "-//W3C//DTD SVG 1.1//EN" "http://www.w3.org/Graphics/SVG/1.1/DTD/svg11.dtd">
<svg version="1.1" id="Layer_1" xmlns="http://www.w3.org/2000/svg" xmlns:xlink="http://www.w3.org/1999/xlink" x="0px" y="0px"
	 width="93px" height="93px" viewBox="0 0 93 93" enable-background="new 0 0 93 93" xml:space="preserve">
<path fill="none" stroke="#FFFFFF" stroke-width="2" stroke-linecap="round" stroke-miterlimit="10" d="M88,12
	c-12.5,3-21.8,14.3-21.8,27.8v7.4l-4.9,9.6c-0.6,1.2-0.2,2.601,0.9,3.3l1.8,1.2v3.9l1.7,1.7V69l1.399,1.4v3.5
	c0,2.8,2.301,5.1,5.101,5.1h13.5"/>
<path fill="none" stroke="#FFFFFF" stroke-width="2" stroke-linecap="round" stroke-miterlimit="10" d="M6,12
	c12.5,3,21.8,14.3,21.8,27.8v7.4l4.9,9.6c0.6,1.2,0.2,2.601-0.9,3.3L30,61.3v3.9l-1.7,1.7V69L27,70.4v3.5c0,2.8-2.3,5.1-5.1,5.1H8.4
	"/>
<polygon fill="#FFFFFF" points="43.1,55.2 45.7,46.7 42.7,46.7 47.3,36.1 54.2,36.1 49.9,43.6 53.1,43.6 "/>
<line fill="none" stroke="#EAEAEA" stroke-width="3" stroke-miterlimit="10" x1="49" y1="83" x2="49" y2="62"/>
<line fill="none" stroke="#EAEAEA" stroke-width="3" stroke-miterlimit="10" x1="49" y1="28" x2="49" y2="9"/>
</svg>
