<?xml version="1.0" encoding="utf-8"?>
<!-- Generator: Adobe Illustrator 16.0.0, SVG Export Plug-In . SVG Version: 6.00 Build 0)  -->
<!DOCTYPE svg PUBLIC "-//W3C//DTD SVG 1.1//EN" "http://www.w3.org/Graphics/SVG/1.1/DTD/svg11.dtd">
<svg version="1.1" id="Layer_1" xmlns="http://www.w3.org/2000/svg" xmlns:xlink="http://www.w3.org/1999/xlink" x="0px" y="0px"
	 width="93px" height="93px" viewBox="0 0 93 93" enable-background="new 0 0 93 93" xml:space="preserve">
<g>
	<g>
		<path fill="#2E91D7" d="M46,12c18.7,0,34,15.3,34,34S64.7,80,46,80S12,64.7,12,46S27.3,12,46,12 M46,8C25,8,8,25,8,46s17,38,38,38
			s38-17,38-38S67,8,46,8L46,8z"/>
	</g>
</g>
<g>
	<g>
		<path fill="#2E91D7" d="M50.3,43.5l-1.5,0.9c0.3,0.5,0.4,1,0.4,1.6c0,1.8-1.4,3.2-3.2,3.2c-1.2,0-2.2-0.7-2.8-1.601l-1.5,0.9
			l16.6,18.9L50.3,43.5z"/>
	</g>
</g>
<g>
	<g>
		<path fill="#1968A1" d="M42.8,46c0-1.8,1.4-3.2,3.2-3.2c1.2,0,2.2,0.7,2.8,1.6l1.5-0.9L33.7,24.7l8,23.8l1.5-0.9
			C43,47.1,42.8,46.6,42.8,46z"/>
	</g>
</g>
<g>
	<path fill="#1968A1" d="M42.6,27.4c1.1-0.2,2.2-0.3,3.4-0.3c10.1,0,18.3,8,18.9,17.9h4C68.4,32.8,58.3,23.1,46,23.1
		c-2.2,0-4.3,0.3-6.4,0.9L42.6,27.4z"/>
	<path fill="#1968A1" d="M64.8,48c-0.399,3.9-2,7.4-4.399,10.2l1.5,4.3c3.899-3.7,6.5-8.8,7-14.5H64.8z"/>
	<path fill="#1968A1" d="M30.1,29.5c-4.1,4-6.8,9.4-7,15.5h4c0.2-4.3,1.8-8.2,4.4-11.2L30.1,29.5z"/>
	<path fill="#1968A1" d="M49.4,64.6C48.3,64.8,47.2,64.9,46,64.9c-9.8,0-17.8-7.4-18.8-16.9h-4C24.2,59.7,34,68.9,46,68.9
		c2.2,0,4.3-0.301,6.4-0.9L49.4,64.6z"/>
</g>
</svg>
