<?xml version="1.0" encoding="utf-8"?>
<!-- Generator: Adobe Illustrator 16.0.0, SVG Export Plug-In . SVG Version: 6.00 Build 0)  -->
<!DOCTYPE svg PUBLIC "-//W3C//DTD SVG 1.1//EN" "http://www.w3.org/Graphics/SVG/1.1/DTD/svg11.dtd">
<svg version="1.1" id="Layer_1" xmlns="http://www.w3.org/2000/svg" xmlns:xlink="http://www.w3.org/1999/xlink" x="0px" y="0px"
	 width="240px" height="239px" viewBox="0 0 240 239" enable-background="new 0 0 240 239" xml:space="preserve">
<g id="Logo_4_">
	<path fill="#ADA9A2" d="M114.357,114.719h2.295v-14.51c-0.793,0.194-1.562,0.447-2.295,0.771V114.719z M129.349,114.719h2.294
		v-8.73c-0.651-0.964-1.43-1.832-2.294-2.606V114.719z M111.359,114.719h2.296v-13.401c-0.814,0.414-1.583,0.902-2.296,1.46V114.719
		z M120.354,114.719h2.294V100.05c-0.747-0.144-1.512-0.222-2.294-0.242V114.719z M117.357,114.719h2.296V99.807
		c-0.782,0.02-1.55,0.099-2.296,0.24V114.719z M123.352,114.719h2.295v-13.732c-0.732-0.323-1.502-0.578-2.295-0.773V114.719z
		 M135.344,114.719h2.295v-10.634c-0.786,0.075-1.553,0.212-2.295,0.413V114.719z M134.642,110.171v-5.456
		c-0.7,0.23-1.385,0.493-2.033,0.821C133.531,106.936,134.223,108.499,134.642,110.171z M159.326,114.719h2.295v-2.571
		c-0.72-0.499-1.484-0.936-2.295-1.296V114.719z M156.327,114.719h2.296v-4.161c-0.736-0.281-1.504-0.498-2.296-0.652V114.719z
		 M138.342,104.041v10.678h2.295v-10.596c-0.562-0.069-1.133-0.118-1.715-0.118C138.725,104.005,138.537,104.032,138.342,104.041z
		 M152.627,111.743v-2.072c-0.358,0.032-0.713,0.075-1.062,0.129C151.967,110.415,152.316,111.07,152.627,111.743z M162.324,112.647
		v2.071h2.125C163.815,113.956,163.103,113.263,162.324,112.647z M141.338,114.719h2.295v-9.898
		c-0.738-0.264-1.504-0.468-2.295-0.605V114.719z M147.337,106.83v7.889h2.294v-5.717
		C148.949,108.195,148.182,107.466,147.337,106.83z M144.336,114.719h2.296v-8.394c-0.72-0.476-1.489-0.882-2.296-1.22V114.719z
		 M126.35,114.719h2.295v-11.93c-0.712-0.559-1.479-1.049-2.295-1.464V114.719z M89.671,114.719v-4.833
		c-1.028,1.435-1.801,3.065-2.235,4.833H89.671z M105.989,114.719h1.67v-7.6c-1.089,1.996-1.712,4.284-1.715,6.72
		C105.945,114.136,105.971,114.427,105.989,114.719z M84.38,109.782v4.937h1.955c0.095-0.417,0.21-0.826,0.339-1.23v-3.849
		c-0.106-0.003-0.21-0.016-0.317-0.016C85.684,109.626,85.028,109.689,84.38,109.782z M75.541,114.719h2.138v-2.083
		C76.896,113.253,76.177,113.95,75.541,114.719z M108.361,114.719h2.296v-11.352c-0.865,0.772-1.644,1.639-2.296,2.602V114.719z
		 M78.382,114.719h2.295v-3.873c-0.811,0.359-1.576,0.795-2.295,1.294V114.719z M153.332,109.638v3.908
		c0.122,0.386,0.232,0.775,0.323,1.173h1.97v-4.936c-0.652-0.094-1.312-0.159-1.99-0.16
		C153.533,109.623,153.434,109.636,153.332,109.638z M150.333,114.719h2.22c-0.431-1.759-1.199-3.382-2.22-4.812V114.719z
		 M132.346,114.719h1.656c0.018-0.292,0.045-0.583,0.045-0.88c-0.003-2.425-0.621-4.704-1.701-6.693V114.719z M105.364,104.721
		v5.392c0.421-1.65,1.105-3.193,2.017-4.576C106.737,105.211,106.058,104.948,105.364,104.721z M99.367,104.12v10.599h2.296v-10.678
		c-0.199-0.009-0.393-0.037-0.594-0.038C100.491,104.005,99.926,104.052,99.367,104.12z M81.382,114.719h2.293v-4.814
		c-0.791,0.153-1.556,0.369-2.293,0.648V114.719z M96.372,114.719h2.292v-10.507c-0.789,0.138-1.555,0.341-2.292,0.604V114.719z
		 M102.365,114.719h2.297v-10.217c-0.743-0.202-1.51-0.341-2.297-0.417V114.719z M87.375,109.674v2.043
		c0.31-0.663,0.653-1.309,1.051-1.916C88.079,109.748,87.729,109.704,87.375,109.674z M90.376,108.982v5.736h2.293v-7.9
		C91.827,107.452,91.058,108.178,90.376,108.982z M93.371,114.719h2.296V105.1c-0.806,0.338-1.575,0.742-2.296,1.218V114.719z"/>
	<g>
		<g>
			<path fill="#ADA9A2" d="M46.334,152.457c0.025-0.088,0.02-0.15,0.02-0.164c0,0-0.002-0.003-0.007-0.004
				c-0.004-0.002-0.012-0.007-0.021-0.009c-0.03-0.012-0.045-0.019-0.075-0.029c-0.108-0.038-0.289-0.101-0.526-0.18
				c-0.235-0.078-0.521-0.171-0.837-0.265c-0.313-0.094-0.653-0.19-0.997-0.278c-0.343-0.086-0.684-0.16-1.004-0.213
				c-0.374-0.063-0.703-0.044-0.984,0.019c-0.283,0.063-0.53,0.168-0.724,0.285c-0.195,0.116-0.338,0.246-0.441,0.348
				c-0.104,0.101-0.165,0.171-0.174,0.183c0.02,0.006,0.127,0.042,0.304,0.091c0.184,0.05,0.44,0.114,0.761,0.191
				c0.322,0.077,0.709,0.164,1.147,0.253c0.441,0.089,0.938,0.179,1.471,0.26c0.538,0.08,0.939,0.078,1.24,0.036
				c0.299-0.043,0.495-0.129,0.625-0.228C46.239,152.656,46.305,152.544,46.334,152.457z M41.928,150.622
				c0.016,0.003,0.031,0.005,0.041,0.008c0.012,0,0.024,0.003,0.031,0.004c0.009,0.002,0.012,0,0.016,0.002
				c0.003,0,0.009-0.003,0.01,0c-0.007-0.011-0.042-0.088-0.12-0.202c-0.078-0.114-0.202-0.271-0.397-0.448
				c-0.195-0.179-0.463-0.379-0.817-0.582c-0.353-0.203-0.796-0.407-1.348-0.599c-0.551-0.19-1.055-0.354-1.499-0.494
				c-0.439-0.139-0.825-0.255-1.141-0.346c-0.316-0.091-0.572-0.155-0.75-0.2c-0.176-0.046-0.278-0.072-0.294-0.076
				c0.018,0.021,0.118,0.141,0.281,0.313s0.385,0.396,0.657,0.64c0.273,0.243,0.591,0.504,0.938,0.732s0.724,0.43,1.109,0.561
				c0.333,0.114,0.682,0.211,1.022,0.293c0.339,0.085,0.669,0.146,0.968,0.202c0.303,0.056,0.577,0.103,0.8,0.135
				C41.661,150.596,41.83,150.612,41.928,150.622z M42.116,149.096c0.069,0.214,0.176,0.457,0.349,0.69
				c0.174,0.235,0.414,0.467,0.734,0.661c0.278,0.168,0.589,0.334,0.907,0.49c0.317,0.154,0.64,0.297,0.938,0.425
				c0.304,0.129,0.585,0.241,0.816,0.329c0.232,0.089,0.414,0.153,0.521,0.191c0.037,0.013,0.053,0.017,0.09,0.03
				c0.006,0.001,0.008,0.003,0.008,0.003c0.007-0.01,0.053-0.058,0.083-0.145c0.033-0.088,0.052-0.211,0.012-0.368
				c-0.039-0.157-0.141-0.352-0.347-0.575c-0.204-0.22-0.514-0.478-0.972-0.757c-0.462-0.281-0.887-0.53-1.273-0.746
				c-0.384-0.216-0.729-0.403-1.02-0.555c-0.287-0.15-0.517-0.268-0.682-0.35c-0.166-0.081-0.269-0.128-0.285-0.138
				c0,0.019-0.005,0.114,0.007,0.257C42.016,148.684,42.046,148.879,42.116,149.096z M47.164,150.903
				c0.081,0.218,0.203,0.467,0.391,0.704c0.19,0.238,0.444,0.468,0.79,0.666c0.298,0.169,0.63,0.336,0.97,0.489
				c0.338,0.153,0.676,0.296,0.997,0.422c0.322,0.126,0.62,0.232,0.865,0.319c0.245,0.086,0.439,0.15,0.549,0.187
				c0.019,0.005,0.027,0.01,0.047,0.016c0.014,0.003,0.026,0.006,0.036,0.01c0.008,0.002,0.011,0.002,0.019,0.005
				c0.006,0.001,0.008,0.004,0.008,0.004c0.008-0.008,0.052-0.062,0.082-0.15c0.031-0.089,0.048-0.219,0-0.379
				c-0.047-0.162-0.161-0.361-0.383-0.586c-0.224-0.227-0.556-0.48-1.049-0.76c-0.487-0.28-0.946-0.527-1.359-0.743
				c-0.411-0.217-0.778-0.401-1.085-0.554c-0.307-0.15-0.555-0.271-0.731-0.353c-0.178-0.08-0.279-0.123-0.296-0.132
				c0,0.018-0.009,0.117,0.011,0.263C47.043,150.479,47.083,150.684,47.164,150.903z M63.473,157.77
				c0.022-0.099,0.012-0.171,0.011-0.183c0,0-0.007-0.004-0.011-0.005c-0.007-0.001-0.012-0.004-0.025-0.008
				c-0.036-0.01-0.055-0.013-0.09-0.022c-0.128-0.034-0.352-0.092-0.633-0.161c-0.284-0.07-0.624-0.154-1-0.237
				c-0.373-0.082-0.779-0.164-1.184-0.235c-0.405-0.072-0.815-0.134-1.196-0.173c-0.437-0.043-0.813-0.005-1.135,0.081
				c-0.316,0.085-0.583,0.224-0.797,0.362c-0.21,0.139-0.37,0.283-0.478,0.398c-0.11,0.116-0.173,0.2-0.181,0.215
				c0.021,0.005,0.15,0.033,0.365,0.075c0.215,0.044,0.521,0.102,0.9,0.167c0.38,0.064,0.838,0.134,1.355,0.203
				c0.52,0.067,1.106,0.132,1.732,0.185c0.635,0.054,1.098,0.031,1.441-0.034c0.344-0.065,0.567-0.175,0.704-0.291
				S63.451,157.865,63.473,157.77z M69.933,159.382c0.021-0.1,0.007-0.174,0.003-0.188c0,0-0.004,0-0.008-0.003
				c-0.049-0.012-0.077-0.018-0.127-0.029c-0.134-0.032-0.368-0.086-0.668-0.15c-0.299-0.064-0.666-0.142-1.065-0.216
				c-0.396-0.076-0.826-0.152-1.259-0.218c-0.43-0.064-0.859-0.116-1.261-0.146c-0.463-0.035-0.86,0.013-1.197,0.108
				c-0.334,0.095-0.61,0.243-0.829,0.39c-0.217,0.146-0.38,0.297-0.491,0.417c-0.112,0.121-0.17,0.213-0.182,0.229
				c0.025,0.006,0.158,0.031,0.387,0.072c0.227,0.04,0.556,0.088,0.956,0.146c0.403,0.058,0.888,0.122,1.438,0.178
				c0.549,0.058,1.167,0.114,1.834,0.153c0.671,0.041,1.161,0.004,1.522-0.071c0.358-0.076,0.59-0.196,0.731-0.319
				C69.859,159.613,69.913,159.481,69.933,159.382z M52.519,152.669c0.092,0.227,0.229,0.472,0.436,0.716
				c0.208,0.242,0.483,0.479,0.853,0.673c0.321,0.171,0.675,0.333,1.035,0.483c0.361,0.152,0.727,0.296,1.066,0.417
				c0.339,0.124,0.657,0.227,0.92,0.311c0.261,0.084,0.463,0.149,0.584,0.184c0.041,0.013,0.066,0.015,0.107,0.028
				c0.005,0,0.007,0.005,0.007,0.005c0.007-0.011,0.056-0.067,0.084-0.161c0.028-0.093,0.037-0.225-0.018-0.391
				c-0.055-0.166-0.181-0.368-0.424-0.595c-0.24-0.226-0.601-0.482-1.127-0.761c-0.523-0.276-1.015-0.523-1.456-0.738
				c-0.438-0.213-0.827-0.399-1.154-0.55c-0.325-0.147-0.598-0.263-0.784-0.342c-0.188-0.081-0.3-0.127-0.319-0.135
				c-0.001,0.018,0.002,0.119,0.024,0.271C52.377,152.235,52.427,152.443,52.519,152.669z M57.4,156.063
				c0.025-0.095,0.016-0.166,0.013-0.181c0,0-0.001-0.003-0.006-0.004c-0.044-0.013-0.067-0.019-0.111-0.031
				c-0.121-0.036-0.324-0.097-0.591-0.169c-0.263-0.073-0.583-0.157-0.936-0.245c-0.353-0.088-0.733-0.178-1.118-0.256
				c-0.381-0.078-0.766-0.149-1.125-0.195c-0.415-0.052-0.777-0.015-1.084,0.062c-0.305,0.075-0.565,0.199-0.771,0.331
				c-0.205,0.13-0.361,0.271-0.468,0.379c-0.108,0.11-0.168,0.192-0.18,0.208c0.023,0.008,0.141,0.036,0.344,0.081
				s0.496,0.104,0.852,0.173c0.362,0.069,0.791,0.152,1.278,0.227c0.49,0.075,1.044,0.146,1.637,0.211
				c0.6,0.066,1.042,0.054,1.37-0.002c0.329-0.057,0.542-0.159,0.678-0.27C57.318,156.274,57.375,156.157,57.4,156.063z
				 M92.762,161.312c0.191,0.248,0.452,0.513,0.809,0.758s0.806,0.47,1.376,0.624c0.493,0.136,1.031,0.257,1.574,0.361
				c0.541,0.104,1.095,0.194,1.602,0.268c0.513,0.071,0.984,0.132,1.373,0.174c0.39,0.043,0.697,0.068,0.873,0.085
				c0.027,0.003,0.049,0.008,0.071,0.008c0.033,0.003,0.048,0.003,0.082,0.006c0.009,0.001,0.013,0,0.013,0
				c0.01-0.013,0.055-0.085,0.066-0.201c0.013-0.115-0.007-0.279-0.136-0.463c-0.127-0.186-0.361-0.397-0.765-0.613
				c-0.403-0.216-0.982-0.435-1.799-0.653c-0.807-0.216-1.558-0.408-2.228-0.569c-0.67-0.164-1.262-0.297-1.761-0.408
				c-0.493-0.108-0.894-0.191-1.175-0.248c-0.284-0.058-0.451-0.094-0.479-0.101c0.004,0.024,0.036,0.143,0.109,0.316
				C92.442,160.83,92.57,161.062,92.762,161.312z M84.916,160.24c0.169,0.248,0.402,0.514,0.731,0.762
				c0.325,0.246,0.744,0.472,1.269,0.641c0.453,0.146,0.956,0.283,1.459,0.401c0.511,0.119,1.019,0.222,1.493,0.309
				c0.477,0.089,0.92,0.158,1.283,0.212c0.362,0.055,0.646,0.095,0.812,0.115c0.059,0.008,0.089,0.01,0.147,0.019
				c0.009,0.001,0.013,0,0.013,0c0.007-0.011,0.052-0.082,0.068-0.195c0.016-0.113,0.002-0.27-0.109-0.452
				c-0.113-0.182-0.325-0.394-0.696-0.616s-0.903-0.451-1.658-0.688c-0.75-0.235-1.449-0.443-2.073-0.624
				c-0.62-0.176-1.174-0.33-1.636-0.451c-0.459-0.12-0.833-0.211-1.097-0.275c-0.263-0.063-0.418-0.104-0.448-0.108
				c0.004,0.02,0.028,0.141,0.092,0.31C84.632,159.77,84.745,159.995,84.916,160.24z M76.835,160.879
				c0.018-0.104-0.002-0.178-0.005-0.189c0,0-0.005-0.002-0.009-0.002c-0.053-0.013-0.081-0.017-0.133-0.027
				c-0.146-0.028-0.394-0.082-0.713-0.14c-0.32-0.06-0.714-0.128-1.139-0.195c-0.423-0.067-0.877-0.134-1.337-0.19
				c-0.456-0.056-0.916-0.096-1.339-0.118c-0.494-0.024-0.91,0.033-1.264,0.141c-0.349,0.106-0.635,0.262-0.862,0.42
				c-0.225,0.156-0.388,0.32-0.5,0.448c-0.111,0.128-0.173,0.221-0.185,0.235c0.026,0.006,0.17,0.03,0.412,0.063
				c0.244,0.036,0.591,0.086,1.018,0.134c0.429,0.05,0.942,0.101,1.523,0.145c0.586,0.046,1.243,0.084,1.946,0.106
				c0.713,0.023,1.235-0.026,1.611-0.114c0.376-0.087,0.612-0.211,0.758-0.343C76.763,161.121,76.817,160.984,76.835,160.879z
				 M101.155,162.139c0.215,0.251,0.507,0.52,0.897,0.757c0.392,0.239,0.883,0.452,1.499,0.592c0.528,0.121,1.11,0.228,1.693,0.315
				c0.586,0.085,1.174,0.15,1.722,0.205c0.552,0.056,1.06,0.098,1.479,0.126c0.421,0.029,0.747,0.047,0.939,0.055
				c0.072,0.004,0.108,0.002,0.181,0.006c0.008-0.016,0.051-0.089,0.058-0.21c0.008-0.122-0.024-0.287-0.167-0.474
				c-0.144-0.184-0.402-0.391-0.846-0.598c-0.443-0.208-1.067-0.416-1.947-0.607c-0.875-0.19-1.689-0.36-2.415-0.504
				c-0.722-0.142-1.362-0.257-1.892-0.353c-0.532-0.096-0.957-0.162-1.26-0.211c-0.3-0.048-0.482-0.083-0.514-0.088
				c0.007,0.022,0.041,0.151,0.129,0.329C100.798,161.657,100.943,161.892,101.155,162.139z M110.151,162.664
				c0.242,0.251,0.565,0.515,0.992,0.745c0.427,0.23,0.966,0.429,1.625,0.546c0.575,0.104,1.201,0.189,1.83,0.255
				c0.632,0.064,1.269,0.11,1.855,0.144c0.59,0.032,1.138,0.05,1.584,0.059c0.451,0.01,0.802,0.016,1.003,0.016
				c0.034,0,0.052,0.002,0.083,0.002c0.026,0,0.047-0.002,0.064-0.002c0.015,0,0.021,0,0.037,0c0.008,0,0.015,0,0.015,0
				c0.008-0.014,0.053-0.104,0.056-0.227c0.002-0.124-0.038-0.29-0.201-0.476c-0.166-0.188-0.454-0.394-0.939-0.587
				c-0.482-0.193-1.16-0.376-2.11-0.537c-0.944-0.158-1.819-0.297-2.601-0.414c-0.779-0.114-1.468-0.213-2.046-0.291
				c-0.572-0.076-1.031-0.126-1.358-0.163c-0.324-0.037-0.517-0.061-0.553-0.063c0.007,0.022,0.053,0.15,0.155,0.327
				C109.744,162.177,109.91,162.415,110.151,162.664z M64.254,156.015c0.12,0.235,0.292,0.497,0.542,0.744
				c0.247,0.247,0.572,0.481,0.997,0.673c0.367,0.165,0.775,0.319,1.183,0.464c0.414,0.146,0.825,0.273,1.215,0.388
				c0.387,0.115,0.749,0.212,1.045,0.287c0.297,0.076,0.529,0.134,0.663,0.164c0.05,0.012,0.075,0.019,0.124,0.029
				c0.004,0.002,0.008,0.003,0.008,0.003c0.008-0.012,0.057-0.072,0.08-0.174c0.024-0.1,0.027-0.242-0.048-0.414
				c-0.074-0.171-0.227-0.381-0.513-0.61c-0.287-0.229-0.708-0.481-1.316-0.752c-0.603-0.269-1.167-0.508-1.671-0.714
				c-0.502-0.206-0.949-0.381-1.323-0.525c-0.373-0.143-0.674-0.254-0.889-0.33c-0.213-0.076-0.344-0.119-0.367-0.13
				c0.004,0.02,0.013,0.128,0.05,0.289C64.071,155.566,64.137,155.782,64.254,156.015z M58.208,154.382
				c0.104,0.231,0.261,0.481,0.486,0.726c0.225,0.241,0.521,0.479,0.917,0.673c0.341,0.167,0.719,0.333,1.101,0.48
				c0.386,0.148,0.781,0.283,1.144,0.401c0.365,0.119,0.703,0.22,0.98,0.3c0.28,0.082,0.5,0.145,0.627,0.178
				c0.045,0.013,0.07,0.018,0.114,0.03c0.007,0.001,0.007,0.004,0.007,0.004c0.009-0.012,0.054-0.072,0.081-0.168
				c0.026-0.095,0.037-0.233-0.028-0.402c-0.066-0.17-0.204-0.377-0.467-0.604c-0.264-0.229-0.651-0.48-1.218-0.755
				c-0.562-0.272-1.088-0.519-1.561-0.731c-0.469-0.21-0.886-0.389-1.236-0.535c-0.349-0.147-0.634-0.266-0.831-0.342
				c-0.201-0.08-0.324-0.122-0.344-0.132c0.001,0.021,0.005,0.12,0.036,0.277C58.046,153.937,58.104,154.151,58.208,154.382z
				 M77.578,158.979c0.153,0.244,0.364,0.51,0.658,0.757c0.296,0.247,0.677,0.479,1.166,0.658c0.426,0.154,0.89,0.296,1.361,0.426
				c0.474,0.129,0.953,0.244,1.396,0.344c0.448,0.1,0.861,0.181,1.2,0.245c0.339,0.062,0.603,0.106,0.759,0.132
				c0.025,0.005,0.036,0.008,0.061,0.012c0.018,0.002,0.04,0.002,0.054,0.006c0.011,0,0.014,0.002,0.024,0.003
				c0.007,0.002,0.014,0.002,0.014,0.002c0.006-0.011,0.052-0.074,0.071-0.183c0.02-0.11,0.008-0.263-0.089-0.444
				c-0.097-0.177-0.286-0.385-0.63-0.611c-0.338-0.226-0.832-0.472-1.532-0.723c-0.698-0.25-1.347-0.473-1.927-0.664
				c-0.579-0.189-1.098-0.348-1.526-0.479c-0.427-0.13-0.769-0.229-1.013-0.3c-0.244-0.07-0.394-0.11-0.419-0.118
				c0.003,0.02,0.02,0.134,0.073,0.3C77.333,158.507,77.425,158.734,77.578,158.979z M70.702,157.562
				c0.135,0.24,0.325,0.499,0.595,0.746c0.273,0.251,0.627,0.485,1.082,0.669c0.396,0.16,0.832,0.312,1.271,0.451
				c0.439,0.138,0.884,0.261,1.298,0.367c0.415,0.105,0.8,0.198,1.115,0.269c0.317,0.069,0.569,0.119,0.712,0.147
				c0.053,0.011,0.078,0.015,0.129,0.025c0.004,0.002,0.012,0.003,0.012,0.003c0.009-0.011,0.05-0.072,0.072-0.178
				c0.021-0.104,0.021-0.255-0.065-0.432c-0.086-0.177-0.256-0.379-0.568-0.607c-0.312-0.229-0.765-0.479-1.418-0.74
				c-0.645-0.26-1.25-0.493-1.792-0.693c-0.541-0.2-1.021-0.371-1.422-0.509s-0.72-0.241-0.952-0.315
				c-0.228-0.073-0.364-0.115-0.39-0.124c0.002,0.021,0.016,0.131,0.06,0.295C70.487,157.099,70.567,157.32,70.702,157.562z
				 M51.695,154.284c0.026-0.091,0.021-0.158,0.02-0.171c0,0-0.003-0.002-0.009-0.003c-0.041-0.014-0.061-0.02-0.101-0.033
				c-0.113-0.036-0.307-0.103-0.555-0.178c-0.251-0.076-0.556-0.165-0.891-0.257c-0.331-0.092-0.686-0.183-1.049-0.266
				c-0.357-0.083-0.723-0.158-1.062-0.206c-0.393-0.057-0.74-0.034-1.034,0.035c-0.296,0.07-0.545,0.186-0.746,0.309
				c-0.2,0.125-0.354,0.256-0.46,0.359c-0.105,0.105-0.159,0.183-0.17,0.196c0.021,0.006,0.13,0.037,0.324,0.085
				c0.189,0.049,0.463,0.112,0.803,0.187c0.339,0.075,0.748,0.158,1.208,0.241c0.465,0.082,0.989,0.165,1.549,0.238
				c0.569,0.074,0.991,0.068,1.303,0.019c0.315-0.05,0.518-0.145,0.648-0.248C51.608,154.486,51.67,154.374,51.695,154.284z
				 M109.587,164.931c0.001-0.12-0.037-0.207-0.045-0.221c0,0-0.006,0.004-0.015,0.003c-0.069-0.003-0.101-0.008-0.169-0.011
				c-0.19-0.011-0.523-0.023-0.944-0.039c-0.419-0.015-0.93-0.027-1.482-0.038c-0.551-0.009-1.147-0.018-1.741-0.009
				c-0.589,0.006-1.174,0.03-1.718,0.069c-0.63,0.046-1.152,0.181-1.576,0.352c-0.422,0.171-0.756,0.388-1.011,0.598
				c-0.256,0.209-0.43,0.419-0.548,0.578c-0.118,0.16-0.172,0.277-0.183,0.297c0.033,0,0.219,0.003,0.532,0.008
				c0.314,0.004,0.752,0.005,1.303-0.003c0.552-0.008,1.222-0.02,1.968-0.057c0.751-0.036,1.589-0.091,2.495-0.173
				c0.912-0.084,1.564-0.227,2.028-0.387c0.464-0.16,0.737-0.34,0.897-0.512S109.586,165.052,109.587,164.931z M119.044,164.962
				c-0.205-0.002-0.561-0.005-1.013-0.002c-0.451,0.005-0.997,0.013-1.588,0.028c-0.59,0.013-1.227,0.036-1.861,0.07
				c-0.632,0.035-1.261,0.08-1.841,0.145c-0.67,0.075-1.216,0.231-1.663,0.428c-0.446,0.196-0.795,0.436-1.056,0.66
				c-0.264,0.228-0.449,0.447-0.568,0.617c-0.12,0.17-0.174,0.293-0.184,0.315c0.036,0,0.237-0.003,0.573-0.012
				c0.336-0.008,0.814-0.023,1.399-0.054c0.592-0.03,1.302-0.076,2.1-0.146c0.805-0.07,1.701-0.167,2.663-0.292
				c0.971-0.126,1.661-0.296,2.152-0.48c0.491-0.188,0.781-0.386,0.942-0.569c0.165-0.186,0.206-0.358,0.201-0.485
				c-0.003-0.126-0.053-0.205-0.06-0.22C119.162,164.965,119.123,164.962,119.044,164.962z M84.208,162.23
				c0.015-0.109-0.008-0.189-0.014-0.203c0,0-0.006-0.001-0.013-0.003c-0.011-0.001-0.017-0.005-0.027-0.007
				c-0.015-0.004-0.027-0.004-0.047-0.007c-0.024-0.004-0.037-0.003-0.062-0.007c-0.158-0.025-0.424-0.072-0.766-0.123
				c-0.343-0.052-0.761-0.109-1.214-0.166c-0.45-0.058-0.939-0.116-1.428-0.16c-0.488-0.045-0.976-0.074-1.426-0.087
				c-0.522-0.01-0.963,0.063-1.33,0.184c-0.365,0.119-0.657,0.286-0.889,0.457c-0.231,0.169-0.403,0.343-0.518,0.479
				c-0.114,0.136-0.17,0.232-0.179,0.252c0.025,0.002,0.175,0.021,0.434,0.052c0.258,0.028,0.625,0.068,1.078,0.106
				c0.454,0.039,1.005,0.082,1.623,0.111c0.621,0.03,1.318,0.05,2.068,0.055c0.755,0.004,1.304-0.064,1.7-0.166
				c0.399-0.102,0.645-0.237,0.794-0.377C84.143,162.48,84.193,162.337,84.208,162.23z M92.087,163.386
				c0.01-0.11-0.016-0.193-0.022-0.207c0,0-0.001-0.001-0.008-0.004c-0.061-0.009-0.093-0.009-0.153-0.017
				c-0.165-0.021-0.453-0.057-0.819-0.099c-0.363-0.041-0.804-0.087-1.289-0.132c-0.479-0.046-1.006-0.093-1.523-0.122
				c-0.518-0.029-1.04-0.047-1.521-0.043c-0.55,0.005-1.015,0.096-1.399,0.23c-0.382,0.135-0.695,0.316-0.935,0.498
				c-0.239,0.182-0.409,0.364-0.525,0.507c-0.116,0.143-0.176,0.242-0.187,0.262c0.031,0.004,0.194,0.02,0.467,0.043
				c0.274,0.021,0.669,0.051,1.154,0.076c0.487,0.027,1.066,0.054,1.724,0.066c0.66,0.013,1.404,0.013,2.2-0.005
				c0.803-0.019,1.378-0.109,1.797-0.227c0.419-0.119,0.679-0.272,0.832-0.421C92.029,163.644,92.076,163.5,92.087,163.386z
				 M100.531,164.309c0.005-0.118-0.025-0.203-0.03-0.216c-0.07-0.006-0.104-0.01-0.175-0.016c-0.177-0.019-0.488-0.042-0.877-0.071
				c-0.392-0.029-0.867-0.062-1.381-0.093c-0.512-0.027-1.07-0.056-1.626-0.067c-0.552-0.015-1.106-0.015-1.616,0.006
				c-0.591,0.023-1.081,0.134-1.483,0.286c-0.406,0.152-0.729,0.349-0.976,0.545c-0.247,0.195-0.422,0.392-0.539,0.542
				c-0.118,0.151-0.172,0.261-0.183,0.28c0.032,0.002,0.202,0.008,0.497,0.021c0.293,0.016,0.715,0.033,1.234,0.043
				c0.517,0.011,1.131,0.02,1.832,0.009c0.705-0.009,1.496-0.038,2.344-0.086c0.855-0.046,1.469-0.156,1.909-0.294
				c0.442-0.14,0.703-0.301,0.86-0.46C100.479,164.58,100.525,164.422,100.531,164.309z M139.395,163.395
				c0.01,0.115,0.056,0.188,0.066,0.201c0,0,0.004,0.001,0.012,0c0.033-0.003,0.049-0.003,0.082-0.006
				c0.024,0,0.043-0.005,0.071-0.008c0.175-0.017,0.481-0.042,0.871-0.085c0.388-0.044,0.862-0.103,1.374-0.174
				c0.508-0.073,1.062-0.164,1.602-0.268c0.544-0.104,1.081-0.226,1.574-0.361c0.571-0.154,1.02-0.376,1.377-0.621
				s0.623-0.513,0.814-0.761c0.191-0.25,0.314-0.482,0.39-0.657c0.075-0.174,0.104-0.292,0.108-0.316
				c-0.029,0.007-0.198,0.043-0.48,0.101c-0.283,0.057-0.682,0.139-1.175,0.248c-0.497,0.111-1.089,0.244-1.761,0.408
				c-0.67,0.161-1.42,0.354-2.227,0.569c-0.816,0.219-1.396,0.438-1.8,0.653c-0.404,0.216-0.636,0.428-0.765,0.613
				C139.402,163.115,139.381,163.279,139.395,163.395z M155.653,161.381c0.019,0.108,0.064,0.172,0.071,0.183
				c0,0,0.004,0,0.011-0.002c0.011-0.001,0.022-0.003,0.032-0.003c0.015-0.004,0.028-0.004,0.047-0.006
				c0.023-0.004,0.035-0.008,0.061-0.013c0.156-0.026,0.424-0.069,0.763-0.131c0.339-0.064,0.75-0.146,1.197-0.245
				c0.444-0.1,0.923-0.215,1.397-0.344c0.472-0.13,0.935-0.271,1.359-0.426c0.49-0.179,0.873-0.411,1.169-0.658
				c0.294-0.247,0.505-0.513,0.657-0.757c0.153-0.245,0.244-0.473,0.298-0.639s0.071-0.28,0.073-0.3
				c-0.024,0.008-0.178,0.048-0.421,0.118c-0.245,0.07-0.589,0.17-1.017,0.3c-0.428,0.132-0.941,0.292-1.52,0.48
				c-0.581,0.19-1.23,0.413-1.928,0.663c-0.701,0.251-1.195,0.497-1.535,0.723c-0.344,0.227-0.528,0.435-0.625,0.611
				C155.646,161.118,155.633,161.271,155.653,161.381z M163,160.062c0.022,0.105,0.068,0.167,0.078,0.178
				c0,0,0.004-0.001,0.009-0.003c0.052-0.011,0.078-0.014,0.131-0.024c0.144-0.027,0.397-0.079,0.714-0.148
				c0.316-0.07,0.702-0.159,1.117-0.266c0.414-0.107,0.855-0.232,1.295-0.37c0.439-0.14,0.878-0.291,1.273-0.451
				c0.454-0.184,0.807-0.423,1.079-0.671c0.271-0.247,0.46-0.507,0.595-0.746c0.135-0.242,0.211-0.461,0.257-0.624
				c0.044-0.164,0.061-0.273,0.063-0.295c-0.025,0.009-0.162,0.051-0.389,0.124c-0.232,0.074-0.554,0.178-0.955,0.315
				c-0.4,0.138-0.879,0.309-1.42,0.509c-0.542,0.2-1.146,0.434-1.789,0.693c-0.654,0.262-1.105,0.511-1.419,0.74
				c-0.312,0.229-0.485,0.431-0.571,0.607C162.981,159.807,162.978,159.957,163,160.062z M204.037,147.765
				c-0.176,0.047-0.434,0.111-0.75,0.201c-0.314,0.092-0.701,0.206-1.139,0.345c-0.443,0.141-0.947,0.304-1.497,0.494
				c-0.552,0.191-0.998,0.396-1.351,0.599c-0.354,0.203-0.621,0.403-0.814,0.582c-0.197,0.177-0.322,0.334-0.4,0.448
				s-0.111,0.191-0.119,0.202c0.002-0.002,0.01,0,0.01,0c0.006-0.002,0.007,0,0.017-0.003c0.007-0.002,0.019-0.006,0.03-0.006
				c0.01-0.002,0.025-0.002,0.041-0.005c0.098-0.01,0.271-0.026,0.496-0.058c0.224-0.032,0.492-0.079,0.795-0.135
				c0.298-0.056,0.628-0.117,0.967-0.202c0.34-0.082,0.691-0.182,1.023-0.295c0.385-0.13,0.761-0.33,1.107-0.559
				c0.35-0.229,0.668-0.489,0.941-0.732c0.271-0.243,0.494-0.467,0.658-0.64c0.162-0.173,0.262-0.292,0.279-0.313
				C204.316,147.692,204.213,147.72,204.037,147.765z M130.371,163.984c0.008,0.121,0.055,0.197,0.064,0.212
				c0.072-0.002,0.107-0.004,0.181-0.008c0.192-0.008,0.518-0.025,0.938-0.055c0.418-0.028,0.92-0.07,1.471-0.126
				c0.549-0.055,1.143-0.12,1.729-0.205c0.584-0.088,1.164-0.192,1.693-0.312c0.614-0.14,1.105-0.355,1.494-0.595
				c0.391-0.237,0.684-0.506,0.899-0.757c0.213-0.249,0.354-0.481,0.444-0.659c0.088-0.178,0.123-0.305,0.131-0.326
				c-0.032,0.004-0.215,0.037-0.515,0.085c-0.304,0.049-0.73,0.118-1.263,0.214c-0.53,0.096-1.17,0.211-1.891,0.353
				c-0.725,0.144-1.539,0.311-2.413,0.501c-0.88,0.191-1.507,0.399-1.95,0.607c-0.443,0.207-0.699,0.414-0.844,0.598
				C130.396,163.697,130.363,163.862,130.371,163.984z M120.772,164.428c0.015,0,0.024,0,0.039,0c0.016,0,0.034,0.002,0.061,0.002
				c0.033,0,0.051-0.002,0.083-0.002c0.202,0,0.552-0.003,1.003-0.013c0.448-0.011,0.994-0.026,1.584-0.059
				c0.587-0.033,1.224-0.082,1.854-0.146c0.629-0.065,1.256-0.151,1.829-0.255c0.661-0.117,1.198-0.312,1.626-0.543
				c0.427-0.23,0.752-0.497,0.992-0.748c0.244-0.249,0.402-0.487,0.508-0.667c0.102-0.177,0.15-0.305,0.156-0.327
				c-0.036,0.003-0.229,0.026-0.553,0.063c-0.326,0.037-0.787,0.09-1.358,0.166c-0.577,0.077-1.266,0.174-2.044,0.288
				c-0.781,0.117-1.655,0.256-2.599,0.414c-0.95,0.16-1.632,0.347-2.115,0.54c-0.484,0.193-0.771,0.396-0.938,0.584
				c-0.164,0.186-0.201,0.35-0.2,0.476c0.003,0.125,0.048,0.213,0.057,0.227C120.758,164.428,120.765,164.428,120.772,164.428z
				 M169.886,158.593c0.024,0.1,0.068,0.162,0.076,0.174c0,0,0.005-0.001,0.009-0.003c0.049-0.011,0.07-0.018,0.12-0.029
				c0.135-0.03,0.366-0.088,0.663-0.164c0.297-0.075,0.662-0.172,1.049-0.287c0.389-0.114,0.805-0.242,1.217-0.388
				c0.408-0.145,0.814-0.299,1.181-0.464c0.425-0.191,0.751-0.426,0.998-0.673c0.248-0.247,0.425-0.508,0.543-0.744
				c0.118-0.232,0.182-0.448,0.22-0.608c0.036-0.161,0.045-0.27,0.049-0.289c-0.022,0.011-0.153,0.054-0.367,0.13
				c-0.215,0.076-0.517,0.188-0.891,0.33c-0.377,0.143-0.82,0.319-1.322,0.525c-0.505,0.206-1.064,0.445-1.668,0.714
				c-0.606,0.271-1.028,0.523-1.316,0.752c-0.287,0.23-0.438,0.439-0.513,0.61C169.857,158.351,169.861,158.494,169.886,158.593z
				 M193.428,151.771c0.032,0.086,0.076,0.135,0.082,0.145c0,0,0.004-0.002,0.01-0.003c0.037-0.014,0.053-0.018,0.091-0.03
				c0.106-0.038,0.29-0.103,0.523-0.191c0.229-0.088,0.511-0.201,0.812-0.33c0.3-0.128,0.624-0.27,0.942-0.424
				c0.318-0.156,0.626-0.324,0.904-0.492c0.319-0.193,0.561-0.424,0.734-0.659c0.172-0.233,0.279-0.477,0.349-0.69
				c0.069-0.216,0.102-0.413,0.114-0.558c0.012-0.143,0.002-0.236,0.002-0.255c-0.016,0.01-0.113,0.057-0.279,0.138
				c-0.166,0.082-0.398,0.199-0.686,0.35c-0.29,0.151-0.631,0.339-1.016,0.555s-0.813,0.465-1.274,0.746
				c-0.459,0.279-0.772,0.537-0.976,0.757c-0.206,0.224-0.307,0.418-0.347,0.575S193.396,151.684,193.428,151.771z M188.074,153.574
				c0.03,0.088,0.077,0.144,0.085,0.152c0,0,0.003-0.005,0.008-0.006c0.009-0.003,0.013-0.003,0.021-0.005
				c0.008-0.004,0.018-0.007,0.033-0.01c0.02-0.006,0.027-0.011,0.045-0.016c0.111-0.036,0.307-0.101,0.553-0.187
				c0.246-0.087,0.54-0.19,0.861-0.317c0.322-0.126,0.662-0.271,0.999-0.424c0.341-0.153,0.668-0.319,0.966-0.488
				c0.346-0.197,0.605-0.429,0.795-0.667c0.189-0.237,0.308-0.487,0.389-0.706c0.08-0.221,0.125-0.422,0.145-0.57
				c0.018-0.146,0.01-0.246,0.01-0.264c-0.018,0.008-0.121,0.053-0.299,0.133c-0.176,0.081-0.423,0.203-0.73,0.354
				c-0.307,0.152-0.676,0.335-1.087,0.552c-0.413,0.216-0.87,0.463-1.356,0.743c-0.492,0.279-0.827,0.533-1.051,0.76
				c-0.225,0.225-0.334,0.424-0.382,0.586C188.03,153.355,188.045,153.485,188.074,153.574z M182.386,155.326
				c0.028,0.094,0.07,0.149,0.079,0.16c0,0,0.006-0.004,0.012-0.006c0.041-0.012,0.062-0.018,0.104-0.029
				c0.12-0.034,0.326-0.099,0.587-0.183c0.262-0.084,0.575-0.189,0.915-0.313c0.341-0.121,0.711-0.262,1.072-0.414
				c0.359-0.15,0.707-0.312,1.029-0.483c0.369-0.193,0.647-0.431,0.854-0.673c0.208-0.244,0.347-0.49,0.438-0.716
				c0.092-0.225,0.139-0.434,0.163-0.584c0.021-0.152,0.027-0.254,0.025-0.271c-0.02,0.008-0.135,0.053-0.322,0.134
				c-0.186,0.079-0.454,0.194-0.779,0.342c-0.327,0.15-0.72,0.337-1.156,0.55c-0.44,0.215-0.932,0.462-1.455,0.738
				c-0.525,0.278-0.887,0.535-1.127,0.761c-0.243,0.227-0.371,0.429-0.426,0.595S182.357,155.233,182.386,155.326z M176.327,157.006
				c0.028,0.096,0.073,0.154,0.081,0.165c0,0,0.002-0.001,0.01-0.003c0.045-0.012,0.066-0.018,0.112-0.03
				c0.127-0.034,0.347-0.091,0.626-0.173c0.279-0.079,0.617-0.183,0.982-0.302c0.363-0.119,0.754-0.254,1.139-0.402
				c0.382-0.147,0.764-0.313,1.105-0.48c0.394-0.193,0.695-0.432,0.92-0.673c0.227-0.244,0.379-0.498,0.483-0.729
				c0.104-0.23,0.157-0.441,0.188-0.597c0.031-0.157,0.033-0.254,0.033-0.274c-0.02,0.01-0.139,0.049-0.34,0.129
				c-0.195,0.076-0.478,0.194-0.826,0.342c-0.35,0.146-0.771,0.325-1.24,0.535c-0.473,0.213-0.994,0.459-1.557,0.731
				c-0.566,0.274-0.961,0.527-1.225,0.756c-0.262,0.228-0.4,0.434-0.465,0.604C176.291,156.772,176.301,156.911,176.327,157.006z
				 M147.805,162.503c0.017,0.113,0.063,0.185,0.07,0.195c0,0,0.004,0.001,0.012,0c0.06-0.009,0.09-0.011,0.148-0.019
				c0.167-0.021,0.447-0.061,0.811-0.115c0.361-0.054,0.803-0.123,1.281-0.21c0.473-0.088,0.982-0.192,1.494-0.312
				c0.503-0.118,1.008-0.252,1.461-0.397c0.525-0.169,0.939-0.396,1.266-0.642c0.326-0.249,0.561-0.517,0.732-0.764
				c0.168-0.245,0.279-0.472,0.348-0.644c0.064-0.169,0.087-0.29,0.091-0.31c-0.028,0.005-0.182,0.045-0.444,0.108
				c-0.266,0.064-0.639,0.155-1.098,0.275c-0.462,0.121-1.018,0.275-1.638,0.451c-0.624,0.181-1.323,0.387-2.072,0.622
				c-0.755,0.237-1.288,0.468-1.657,0.69c-0.371,0.223-0.584,0.434-0.695,0.615C147.802,162.231,147.789,162.39,147.805,162.503z
				 M155.578,163.489c-0.241-0.183-0.551-0.36-0.933-0.494c-0.385-0.135-0.853-0.228-1.403-0.233
				c-0.48-0.005-1.002,0.015-1.519,0.044c-0.519,0.029-1.044,0.078-1.523,0.122c-0.485,0.047-0.927,0.091-1.29,0.132
				c-0.367,0.042-0.652,0.078-0.817,0.099c-0.06,0.008-0.091,0.008-0.15,0.017c-0.007,0.003-0.013,0.004-0.013,0.004
				c-0.006,0.014-0.033,0.097-0.021,0.207c0.01,0.114,0.061,0.258,0.213,0.407c0.151,0.148,0.409,0.303,0.827,0.422
				c0.415,0.118,0.996,0.207,1.799,0.226c0.796,0.018,1.538,0.018,2.198,0.005c0.657-0.013,1.236-0.037,1.724-0.064
				c0.485-0.026,0.882-0.057,1.155-0.078c0.273-0.023,0.434-0.039,0.465-0.043c-0.012-0.02-0.066-0.119-0.182-0.262
				C155.99,163.855,155.816,163.671,155.578,163.489z M147.626,164.683c-0.247-0.196-0.565-0.393-0.972-0.545
				c-0.402-0.152-0.896-0.263-1.487-0.286c-0.509-0.021-1.063-0.021-1.615-0.006c-0.556,0.012-1.113,0.04-1.624,0.067
				c-0.516,0.03-0.992,0.063-1.385,0.093c-0.389,0.03-0.694,0.053-0.871,0.071c-0.07,0.006-0.107,0.01-0.178,0.016
				c-0.006,0.013-0.035,0.098-0.029,0.216c0.004,0.115,0.053,0.271,0.209,0.43c0.158,0.159,0.418,0.32,0.859,0.46
				c0.441,0.138,1.059,0.248,1.912,0.294c0.849,0.048,1.637,0.077,2.342,0.086c0.701,0.011,1.318,0.002,1.835-0.009
				c0.518-0.01,0.936-0.027,1.229-0.043c0.295-0.014,0.467-0.02,0.498-0.021c-0.011-0.02-0.066-0.129-0.184-0.28
				C148.049,165.074,147.873,164.878,147.626,164.683z M129.971,166.291c-0.26-0.225-0.605-0.464-1.051-0.66
				c-0.447-0.196-0.996-0.353-1.664-0.428c-0.581-0.064-1.209-0.109-1.841-0.145c-0.634-0.034-1.273-0.058-1.863-0.07
				c-0.592-0.016-1.138-0.021-1.588-0.026c-0.453-0.002-0.809,0-1.013,0.003c-0.08,0-0.118,0-0.197,0
				c-0.007,0.015-0.057,0.094-0.061,0.22c-0.005,0.127,0.036,0.3,0.2,0.485c0.161,0.182,0.45,0.382,0.941,0.569
				c0.489,0.185,1.183,0.354,2.155,0.48c0.961,0.125,1.859,0.222,2.662,0.292c0.799,0.07,1.508,0.116,2.099,0.146
				c0.586,0.03,1.063,0.046,1.399,0.054c0.338,0.009,0.537,0.012,0.574,0.012c-0.01-0.022-0.068-0.146-0.187-0.315
				C130.418,166.738,130.234,166.518,129.971,166.291z M139.107,165.635c-0.255-0.208-0.587-0.427-1.009-0.598
				c-0.425-0.171-0.946-0.306-1.576-0.352c-0.543-0.039-1.127-0.063-1.716-0.069c-0.594-0.009-1.191,0-1.742,0.009
				c-0.552,0.011-1.067,0.023-1.488,0.038c-0.42,0.016-0.752,0.031-0.939,0.042c-0.07,0.002-0.104,0.005-0.173,0.008
				c-0.008,0.001-0.011,0-0.011,0c-0.008,0.014-0.044,0.098-0.043,0.218c0.002,0.121,0.044,0.284,0.205,0.456
				c0.16,0.172,0.436,0.352,0.898,0.512c0.465,0.16,1.113,0.303,2.024,0.387c0.904,0.082,1.749,0.137,2.501,0.173
				c0.746,0.037,1.413,0.049,1.965,0.057c0.551,0.008,0.99,0.007,1.305,0.003c0.312-0.005,0.498-0.008,0.531-0.008
				c-0.011-0.02-0.065-0.137-0.184-0.297C139.537,166.054,139.362,165.845,139.107,165.635z M163.004,162.108
				c-0.232-0.171-0.527-0.338-0.893-0.457c-0.367-0.12-0.809-0.193-1.33-0.184c-0.451,0.013-0.936,0.04-1.424,0.085
				c-0.486,0.043-0.978,0.104-1.428,0.162c-0.453,0.057-0.87,0.114-1.214,0.166c-0.342,0.051-0.606,0.095-0.765,0.12
				c-0.025,0.004-0.04,0.006-0.064,0.01c-0.02,0.003-0.033,0.003-0.046,0.007c-0.013,0.002-0.022,0.006-0.034,0.007
				c-0.007,0.002-0.005,0.003-0.005,0.003c-0.006,0.014-0.03,0.094-0.016,0.203c0.016,0.106,0.066,0.25,0.214,0.39
				c0.148,0.14,0.398,0.275,0.798,0.377c0.396,0.102,0.942,0.17,1.696,0.166c0.752-0.005,1.447-0.024,2.066-0.055
				c0.619-0.029,1.17-0.072,1.623-0.111c0.453-0.038,0.82-0.078,1.08-0.106c0.258-0.03,0.412-0.052,0.437-0.056
				c-0.009-0.018-0.069-0.114-0.183-0.251C163.402,162.448,163.235,162.277,163.004,162.108z M188.324,155.374
				c-0.207-0.132-0.465-0.255-0.771-0.33c-0.308-0.077-0.67-0.113-1.085-0.062c-0.359,0.046-0.744,0.117-1.125,0.195
				c-0.384,0.078-0.765,0.168-1.117,0.256c-0.354,0.088-0.676,0.172-0.939,0.245c-0.268,0.072-0.471,0.131-0.592,0.167
				c-0.045,0.011-0.066,0.021-0.11,0.033c-0.004,0.001-0.004,0.004-0.004,0.004c-0.004,0.015-0.011,0.083,0.013,0.178
				c0.025,0.094,0.084,0.214,0.221,0.322c0.135,0.11,0.345,0.213,0.674,0.27c0.326,0.056,0.77,0.069,1.369,0.004
				c0.594-0.064,1.145-0.139,1.637-0.214c0.488-0.076,0.922-0.156,1.283-0.226c0.357-0.068,0.643-0.128,0.847-0.173
				c0.202-0.045,0.318-0.073,0.343-0.081c-0.012-0.016-0.066-0.098-0.174-0.208C188.685,155.646,188.529,155.505,188.324,155.374z
				 M198.809,151.619c-0.193-0.117-0.439-0.222-0.721-0.285c-0.281-0.062-0.605-0.082-0.98-0.019
				c-0.319,0.053-0.668,0.127-1.012,0.213c-0.342,0.088-0.68,0.187-0.992,0.279c-0.315,0.096-0.604,0.186-0.837,0.264
				c-0.237,0.079-0.419,0.142-0.526,0.18c-0.029,0.011-0.043,0.018-0.073,0.029c-0.009,0.002-0.017,0.009-0.019,0.01
				c-0.006,0.002-0.008,0.003-0.008,0.003c0,0.014-0.006,0.076,0.02,0.164c0.027,0.087,0.094,0.199,0.221,0.296
				c0.129,0.099,0.324,0.185,0.623,0.228c0.3,0.042,0.707,0.041,1.244-0.039c0.535-0.081,1.029-0.168,1.471-0.257
				c0.438-0.089,0.822-0.176,1.143-0.253s0.577-0.142,0.762-0.191c0.178-0.049,0.289-0.085,0.309-0.091
				c-0.008-0.012-0.076-0.085-0.18-0.187C199.148,151.862,199.004,151.735,198.809,151.619z M193.723,153.515
				c-0.201-0.123-0.446-0.238-0.742-0.309c-0.294-0.07-0.641-0.092-1.034-0.035c-0.34,0.048-0.702,0.124-1.06,0.207
				c-0.363,0.083-0.722,0.173-1.051,0.264c-0.335,0.091-0.645,0.182-0.895,0.258c-0.247,0.075-0.439,0.142-0.551,0.178
				c-0.042,0.014-0.064,0.02-0.105,0.033c-0.005,0.001-0.008,0.004-0.008,0.004c-0.001,0.014-0.004,0.081,0.022,0.17
				c0.026,0.09,0.087,0.202,0.222,0.308c0.131,0.104,0.332,0.198,0.646,0.248c0.312,0.05,0.732,0.056,1.303-0.019
				c0.56-0.073,1.085-0.156,1.551-0.238c0.461-0.083,0.868-0.166,1.207-0.241c0.34-0.074,0.615-0.138,0.805-0.187
				c0.193-0.048,0.307-0.078,0.326-0.083c-0.011-0.015-0.068-0.093-0.174-0.198C194.08,153.771,193.924,153.64,193.723,153.515z
				 M182.582,157.188c-0.213-0.139-0.479-0.277-0.796-0.362c-0.321-0.086-0.702-0.124-1.139-0.081
				c-0.382,0.039-0.788,0.1-1.194,0.172c-0.404,0.07-0.811,0.154-1.185,0.236c-0.374,0.083-0.718,0.167-1,0.237
				c-0.282,0.069-0.505,0.127-0.634,0.161c-0.034,0.01-0.052,0.013-0.088,0.022c-0.013,0.004-0.021,0.007-0.027,0.008
				c-0.005,0.001-0.008,0.005-0.008,0.005c-0.002,0.012-0.012,0.08,0.01,0.18c0.023,0.097,0.08,0.224,0.219,0.34
				c0.137,0.116,0.357,0.223,0.701,0.288c0.343,0.066,0.812,0.091,1.447,0.037c0.626-0.053,1.21-0.12,1.73-0.188
				c0.518-0.068,0.975-0.135,1.355-0.199c0.379-0.065,0.684-0.123,0.898-0.167c0.215-0.042,0.342-0.07,0.364-0.075
				c-0.009-0.015-0.069-0.1-0.179-0.217C182.949,157.47,182.793,157.326,182.582,157.188z M169.958,160.573
				c-0.226-0.156-0.509-0.31-0.858-0.416c-0.353-0.107-0.775-0.165-1.27-0.141c-0.425,0.022-0.883,0.062-1.338,0.118
				c-0.46,0.057-0.916,0.123-1.339,0.19s-0.815,0.136-1.136,0.195c-0.318,0.058-0.566,0.111-0.712,0.14
				c-0.052,0.011-0.08,0.015-0.133,0.027c-0.003,0-0.012,0-0.012,0c-0.001,0.011-0.019,0.087,0,0.191
				c0.018,0.105,0.069,0.242,0.214,0.373c0.146,0.132,0.385,0.256,0.76,0.343c0.377,0.088,0.899,0.138,1.612,0.114
				c0.702-0.022,1.358-0.061,1.944-0.106c0.58-0.044,1.092-0.099,1.522-0.147c0.425-0.049,0.776-0.095,1.021-0.131
				c0.241-0.033,0.381-0.061,0.408-0.067c-0.012-0.014-0.072-0.104-0.184-0.231S170.184,160.731,169.958,160.573z M176.467,158.926
				c-0.219-0.148-0.492-0.291-0.824-0.386c-0.336-0.096-0.736-0.146-1.199-0.109c-0.4,0.03-0.829,0.083-1.26,0.147
				c-0.433,0.065-0.863,0.142-1.259,0.218c-0.399,0.074-0.769,0.151-1.067,0.216c-0.3,0.064-0.533,0.118-0.668,0.15
				c-0.049,0.012-0.074,0.018-0.123,0.029c-0.004,0.003-0.008,0.005-0.008,0.005c-0.002,0.013-0.02,0.086,0.002,0.186
				c0.02,0.1,0.077,0.231,0.221,0.354c0.141,0.123,0.365,0.241,0.725,0.317c0.359,0.077,0.857,0.114,1.528,0.073
				c0.666-0.039,1.28-0.096,1.829-0.153c0.551-0.056,1.038-0.119,1.439-0.178c0.401-0.057,0.726-0.11,0.953-0.15
				c0.228-0.039,0.367-0.062,0.391-0.068c-0.012-0.017-0.07-0.111-0.182-0.232C176.854,159.224,176.686,159.072,176.467,158.926z"/>
		</g>
	</g>
	<g>
		<g>
			<g>
				<path fill="#ADA9A2" d="M193.665,105.476c-0.026,0.088-0.019,0.155-0.019,0.167c0,0,0,0.004,0.004,0.006
					c0.004,0.001,0.013,0.008,0.021,0.011c0.03,0.011,0.044,0.012,0.073,0.022c0.107,0.039,0.291,0.103,0.528,0.182
					c0.233,0.078,0.521,0.171,0.837,0.266c0.311,0.094,0.652,0.188,0.994,0.276c0.344,0.086,0.689,0.163,1.009,0.216
					c0.374,0.063,0.702,0.045,0.983-0.019c0.284-0.063,0.523-0.17,0.717-0.286c0.195-0.117,0.342-0.246,0.446-0.348
					c0.104-0.1,0.169-0.173,0.177-0.187c-0.02-0.006-0.131-0.041-0.309-0.088c-0.184-0.052-0.438-0.115-0.76-0.192
					c-0.32-0.076-0.707-0.16-1.145-0.248c-0.44-0.09-0.938-0.181-1.471-0.262c-0.537-0.082-0.939-0.083-1.24-0.04
					c-0.3,0.043-0.498,0.132-0.627,0.23C193.76,105.279,193.693,105.389,193.665,105.476z M198.067,107.308
					c-0.017-0.001-0.026,0.004-0.036,0c-0.014,0-0.022-0.007-0.029-0.008c-0.01-0.003-0.016-0.002-0.021-0.003
					c-0.003,0-0.004,0.001-0.007,0c0.007,0.015,0.035,0.088,0.113,0.202c0.078,0.115,0.209,0.274,0.404,0.452
					c0.195,0.177,0.459,0.376,0.813,0.579c0.353,0.202,0.799,0.405,1.351,0.597c0.551,0.19,1.056,0.356,1.5,0.496
					c0.438,0.139,0.824,0.255,1.139,0.347c0.316,0.09,0.57,0.157,0.75,0.203c0.174,0.044,0.277,0.069,0.295,0.074
					c-0.018-0.023-0.115-0.142-0.277-0.315c-0.164-0.173-0.391-0.399-0.662-0.642c-0.273-0.243-0.594-0.5-0.942-0.729
					c-0.348-0.228-0.724-0.43-1.108-0.56c-0.334-0.113-0.683-0.21-1.023-0.292c-0.338-0.084-0.669-0.154-0.969-0.209
					c-0.303-0.056-0.57-0.098-0.793-0.13C198.341,107.338,198.164,107.319,198.067,107.308z M197.881,108.839
					c-0.07-0.215-0.178-0.457-0.35-0.69c-0.174-0.235-0.413-0.467-0.732-0.661c-0.28-0.168-0.59-0.333-0.908-0.489
					c-0.316-0.155-0.639-0.302-0.938-0.43c-0.305-0.129-0.584-0.236-0.816-0.323c-0.232-0.09-0.411-0.153-0.519-0.191
					c-0.038-0.014-0.054-0.021-0.092-0.035c-0.005-0.002-0.011-0.003-0.011-0.003c-0.008,0.009-0.053,0.061-0.082,0.147
					c-0.032,0.089-0.055,0.213-0.014,0.371c0.04,0.156,0.143,0.35,0.348,0.571s0.517,0.478,0.976,0.756
					c0.46,0.281,0.886,0.531,1.271,0.748c0.384,0.215,0.726,0.403,1.017,0.554c0.286,0.151,0.52,0.268,0.687,0.351
					c0.167,0.08,0.265,0.125,0.281,0.134c0-0.018,0.009-0.11-0.004-0.253C197.982,109.25,197.949,109.054,197.881,108.839z
					 M192.834,107.033c-0.08-0.217-0.205-0.467-0.393-0.703c-0.189-0.239-0.446-0.471-0.791-0.668
					c-0.298-0.169-0.629-0.338-0.969-0.493c-0.338-0.152-0.674-0.293-0.994-0.419c-0.322-0.126-0.621-0.234-0.867-0.32
					c-0.246-0.087-0.438-0.151-0.547-0.188c-0.02-0.005-0.027-0.01-0.047-0.015c-0.014-0.003-0.027-0.006-0.037-0.008
					c-0.008-0.004-0.01-0.003-0.018-0.005c-0.006-0.001-0.009-0.003-0.009-0.003c-0.008,0.008-0.054,0.06-0.083,0.148
					c-0.031,0.087-0.046,0.221,0.001,0.381c0.048,0.162,0.161,0.358,0.384,0.584c0.225,0.227,0.558,0.481,1.051,0.762
					c0.487,0.277,0.947,0.523,1.358,0.74c0.412,0.218,0.774,0.403,1.081,0.557c0.307,0.15,0.557,0.269,0.732,0.35
					c0.178,0.081,0.281,0.127,0.301,0.135c0-0.018,0.006-0.121-0.014-0.267C192.956,107.454,192.918,107.255,192.834,107.033z
					 M176.528,100.164c-0.022,0.097-0.009,0.173-0.008,0.187c0,0,0.001,0,0.005,0.001c0.008,0.001,0.016,0.005,0.027,0.01
					c0.036,0.01,0.054,0.01,0.091,0.019c0.126,0.035,0.353,0.091,0.634,0.162c0.283,0.069,0.625,0.156,1,0.238
					c0.373,0.082,0.778,0.163,1.183,0.234c0.407,0.072,0.813,0.136,1.194,0.174c0.436,0.043,0.816,0.007,1.139-0.08
					c0.316-0.086,0.58-0.222,0.795-0.36c0.211-0.139,0.367-0.283,0.477-0.398c0.109-0.117,0.17-0.199,0.179-0.214
					c-0.022-0.006-0.15-0.035-0.364-0.077c-0.215-0.043-0.518-0.104-0.896-0.167c-0.381-0.065-0.84-0.134-1.357-0.203
					c-0.52-0.067-1.104-0.132-1.732-0.185c-0.634-0.054-1.102-0.028-1.444,0.037c-0.345,0.065-0.562,0.173-0.7,0.288
					C176.611,99.946,176.551,100.068,176.528,100.164z M187.482,105.266c-0.092-0.227-0.229-0.474-0.436-0.717
					c-0.208-0.243-0.486-0.479-0.855-0.671c-0.32-0.171-0.676-0.334-1.034-0.484c-0.362-0.153-0.728-0.292-1.068-0.414
					c-0.339-0.123-0.653-0.234-0.915-0.318s-0.467-0.143-0.588-0.177c-0.041-0.012-0.065-0.021-0.107-0.033
					c-0.004-0.002-0.006-0.002-0.006-0.002c-0.008,0.013-0.055,0.069-0.083,0.162c-0.028,0.094-0.04,0.226,0.015,0.392
					c0.057,0.166,0.181,0.367,0.424,0.596c0.238,0.226,0.604,0.475,1.13,0.754c0.522,0.275,1.012,0.525,1.452,0.741
					c0.438,0.212,0.829,0.399,1.156,0.549c0.325,0.148,0.598,0.267,0.784,0.347c0.187,0.079,0.3,0.122,0.319,0.131
					c0-0.019-0.004-0.115-0.025-0.269C187.621,105.7,187.574,105.493,187.482,105.266z M182.598,101.876
					c-0.024,0.094-0.015,0.163-0.012,0.178c0,0,0.002,0,0.006,0c0.043,0.014,0.068,0.019,0.111,0.032
					c0.121,0.034,0.321,0.096,0.589,0.169c0.264,0.073,0.587,0.16,0.939,0.247c0.353,0.089,0.73,0.179,1.114,0.257
					c0.381,0.078,0.768,0.145,1.127,0.189c0.415,0.052,0.777,0.018,1.085-0.059c0.304-0.077,0.563-0.195,0.771-0.326
					c0.205-0.132,0.362-0.272,0.469-0.382c0.109-0.11,0.166-0.194,0.178-0.21c-0.023-0.006-0.144-0.033-0.346-0.078
					c-0.203-0.046-0.492-0.11-0.848-0.18c-0.362-0.069-0.793-0.145-1.28-0.221c-0.489-0.075-1.044-0.15-1.636-0.215
					c-0.6-0.065-1.045-0.055-1.371,0.003c-0.329,0.057-0.539,0.161-0.676,0.271S182.621,101.78,182.598,101.876z M181.79,103.554
					c-0.104-0.231-0.257-0.481-0.484-0.725c-0.226-0.243-0.525-0.484-0.92-0.679c-0.34-0.167-0.716-0.328-1.099-0.475
					c-0.387-0.147-0.779-0.286-1.141-0.403c-0.366-0.119-0.706-0.225-0.984-0.305c-0.279-0.082-0.499-0.139-0.625-0.173
					c-0.045-0.013-0.067-0.02-0.113-0.031c-0.006-0.001-0.01-0.001-0.01-0.001c-0.009,0.011-0.055,0.072-0.081,0.167
					c-0.024,0.095-0.034,0.235,0.03,0.403c0.064,0.17,0.203,0.373,0.465,0.602c0.264,0.229,0.656,0.484,1.222,0.76
					c0.562,0.273,1.087,0.518,1.558,0.73c0.471,0.209,0.889,0.388,1.239,0.535c0.349,0.146,0.632,0.265,0.829,0.342
					c0.201,0.078,0.322,0.119,0.342,0.128c0-0.021-0.006-0.124-0.036-0.28C181.951,103.994,181.896,103.783,181.79,103.554z
					 M188.304,103.651c-0.026,0.091-0.022,0.157-0.021,0.171c0,0,0.003,0.002,0.009,0.003c0.041,0.014,0.062,0.019,0.104,0.033
					c0.111,0.037,0.307,0.099,0.555,0.174s0.557,0.166,0.891,0.26c0.33,0.09,0.689,0.182,1.052,0.266
					c0.358,0.082,0.721,0.16,1.062,0.209c0.392,0.057,0.736,0.03,1.029-0.039c0.297-0.07,0.544-0.185,0.745-0.308
					c0.2-0.125,0.356-0.255,0.462-0.358c0.105-0.104,0.162-0.188,0.174-0.201c-0.021-0.005-0.135-0.034-0.328-0.082
					c-0.189-0.048-0.459-0.112-0.799-0.186c-0.34-0.075-0.75-0.156-1.212-0.238c-0.465-0.082-0.987-0.166-1.548-0.239
					c-0.568-0.074-0.993-0.072-1.305-0.022c-0.314,0.049-0.518,0.144-0.646,0.247C188.391,103.443,188.328,103.562,188.304,103.651z
					 M35.959,110.171c0.177-0.047,0.432-0.11,0.748-0.201c0.315-0.09,0.7-0.208,1.139-0.347c0.443-0.14,0.949-0.306,1.5-0.496
					c0.551-0.191,0.996-0.395,1.349-0.597c0.354-0.203,0.62-0.402,0.815-0.579c0.196-0.178,0.322-0.337,0.4-0.452
					c0.078-0.114,0.11-0.188,0.116-0.201c0.002,0-0.006-0.001-0.009-0.001c-0.004,0.001-0.007,0-0.017,0.003
					c-0.006,0.001-0.015,0.007-0.027,0.007c-0.009,0.004-0.024,0-0.041,0.001c-0.098,0.012-0.271,0.03-0.494,0.062
					s-0.495,0.074-0.798,0.13c-0.299,0.055-0.63,0.127-0.969,0.211c-0.34,0.082-0.683,0.179-1.016,0.292
					c-0.384,0.13-0.769,0.33-1.116,0.558c-0.349,0.229-0.664,0.486-0.938,0.729c-0.272,0.242-0.497,0.471-0.66,0.643
					c-0.163,0.174-0.261,0.291-0.279,0.314C35.679,110.242,35.783,110.216,35.959,110.171z M46.565,106.163
					c-0.032-0.084-0.073-0.139-0.079-0.147c0,0-0.006,0.001-0.012,0.003c-0.037,0.014-0.057,0.021-0.094,0.035
					c-0.107,0.038-0.288,0.102-0.52,0.191c-0.23,0.087-0.509,0.194-0.812,0.323c-0.299,0.128-0.623,0.274-0.94,0.43
					c-0.318,0.156-0.627,0.321-0.906,0.489c-0.32,0.194-0.561,0.426-0.735,0.661c-0.173,0.233-0.279,0.476-0.348,0.69
					c-0.07,0.215-0.101,0.411-0.113,0.556c-0.013,0.143-0.001,0.235-0.001,0.253c0.016-0.009,0.112-0.055,0.277-0.136
					c0.167-0.082,0.398-0.197,0.686-0.349c0.289-0.15,0.63-0.339,1.015-0.554c0.386-0.217,0.813-0.466,1.273-0.747
					c0.458-0.278,0.772-0.535,0.976-0.757c0.206-0.222,0.308-0.415,0.348-0.571C46.621,106.376,46.597,106.252,46.565,106.163z
					 M51.919,104.362c-0.031-0.09-0.074-0.143-0.083-0.151c0,0-0.002,0.001-0.007,0.003c-0.009,0.002-0.011,0.003-0.019,0.006
					c-0.01,0.004-0.025,0.005-0.039,0.008c-0.019,0.005-0.027,0.012-0.045,0.018c-0.111,0.035-0.304,0.099-0.549,0.185
					c-0.246,0.087-0.539,0.194-0.861,0.32c-0.321,0.126-0.662,0.269-0.999,0.423c-0.341,0.154-0.668,0.32-0.967,0.489
					c-0.344,0.197-0.603,0.429-0.792,0.668c-0.188,0.236-0.308,0.486-0.389,0.703c-0.081,0.222-0.126,0.421-0.146,0.568
					c-0.02,0.146-0.01,0.249-0.01,0.267c0.018-0.008,0.122-0.054,0.299-0.135c0.177-0.081,0.424-0.2,0.73-0.352
					c0.306-0.152,0.671-0.337,1.082-0.555c0.411-0.217,0.87-0.463,1.357-0.74c0.493-0.28,0.828-0.535,1.052-0.762
					c0.223-0.226,0.335-0.422,0.384-0.584C51.966,104.581,51.949,104.449,51.919,104.362z M57.611,102.611
					c-0.029-0.093-0.077-0.149-0.083-0.162c0,0-0.001,0.002-0.007,0.003c-0.042,0.014-0.063,0.021-0.104,0.034
					c-0.122,0.033-0.328,0.094-0.589,0.179c-0.263,0.083-0.581,0.189-0.92,0.313c-0.34,0.122-0.704,0.262-1.065,0.415
					c-0.359,0.15-0.715,0.313-1.036,0.484c-0.37,0.192-0.643,0.428-0.851,0.671c-0.207,0.243-0.347,0.49-0.439,0.717
					c-0.091,0.228-0.138,0.435-0.161,0.586c-0.022,0.153-0.021,0.25-0.019,0.269c0.019-0.009,0.132-0.052,0.318-0.131
					c0.186-0.08,0.452-0.198,0.777-0.347c0.326-0.149,0.72-0.337,1.156-0.549c0.441-0.216,0.934-0.466,1.456-0.741
					c0.526-0.279,0.886-0.528,1.127-0.754c0.243-0.229,0.369-0.43,0.424-0.596C57.649,102.837,57.64,102.705,57.611,102.611z
					 M63.663,100.93c-0.027-0.096-0.068-0.156-0.077-0.167c0,0-0.003,0.001-0.009,0.002c-0.046,0.013-0.066,0.018-0.111,0.03
					c-0.126,0.034-0.347,0.094-0.627,0.176c-0.277,0.08-0.62,0.184-0.985,0.304c-0.362,0.117-0.755,0.254-1.141,0.401
					c-0.381,0.146-0.758,0.309-1.1,0.477c-0.395,0.193-0.694,0.435-0.92,0.678c-0.225,0.243-0.376,0.492-0.481,0.724
					c-0.104,0.229-0.164,0.44-0.193,0.596c-0.03,0.156-0.031,0.26-0.033,0.28c0.021-0.009,0.14-0.052,0.342-0.132
					c0.196-0.076,0.481-0.192,0.83-0.34c0.35-0.146,0.767-0.325,1.237-0.534c0.473-0.214,0.995-0.456,1.556-0.729
					c0.567-0.275,0.958-0.53,1.221-0.759c0.263-0.228,0.402-0.433,0.468-0.603C63.704,101.165,63.691,101.024,63.663,100.93z
					 M51.67,102.563c0.208,0.131,0.468,0.251,0.772,0.326c0.308,0.076,0.668,0.11,1.083,0.059c0.359-0.045,0.745-0.111,1.126-0.189
					c0.383-0.078,0.765-0.168,1.118-0.257c0.353-0.087,0.671-0.174,0.935-0.247c0.267-0.073,0.474-0.135,0.594-0.169
					c0.044-0.014,0.064-0.02,0.108-0.032c0.004-0.002,0.009,0,0.009,0c0.003-0.015,0.008-0.085-0.017-0.18s-0.081-0.213-0.217-0.322
					s-0.347-0.214-0.677-0.271c-0.326-0.058-0.772-0.071-1.372-0.006c-0.593,0.064-1.145,0.143-1.634,0.218
					c-0.489,0.076-0.918,0.151-1.281,0.221c-0.356,0.069-0.643,0.134-0.846,0.18c-0.203,0.045-0.325,0.073-0.349,0.08
					c0.011,0.016,0.07,0.098,0.179,0.208C51.31,102.291,51.465,102.432,51.67,102.563z M41.187,106.316
					c0.193,0.116,0.437,0.223,0.719,0.286c0.281,0.063,0.611,0.082,0.985,0.019c0.319-0.053,0.663-0.129,1.005-0.215
					c0.343-0.088,0.686-0.184,0.997-0.277c0.315-0.095,0.599-0.188,0.833-0.266c0.237-0.079,0.423-0.145,0.53-0.183
					c0.031-0.011,0.043-0.011,0.074-0.021c0.008-0.003,0.016-0.01,0.02-0.011c0.004-0.002,0.007-0.006,0.007-0.006
					c0-0.012,0.002-0.076-0.023-0.164c-0.029-0.087-0.091-0.197-0.217-0.295c-0.129-0.099-0.33-0.19-0.629-0.235
					c-0.301-0.042-0.704-0.038-1.241,0.044c-0.534,0.081-1.031,0.172-1.471,0.262c-0.438,0.088-0.821,0.172-1.144,0.248
					c-0.32,0.077-0.578,0.141-0.762,0.192c-0.177,0.047-0.283,0.082-0.302,0.088c0.008,0.014,0.068,0.087,0.173,0.187
					C40.847,106.07,40.992,106.199,41.187,106.316z M46.274,104.42c0.199,0.123,0.444,0.236,0.742,0.306
					c0.293,0.068,0.639,0.095,1.032,0.038c0.34-0.05,0.705-0.124,1.062-0.206c0.363-0.084,0.726-0.176,1.055-0.266
					c0.334-0.092,0.636-0.185,0.886-0.26c0.247-0.075,0.44-0.135,0.553-0.172c0.041-0.014,0.062-0.021,0.103-0.035
					c0.005-0.001,0.008-0.003,0.008-0.003c0.001-0.014,0.007-0.081-0.019-0.171c-0.026-0.089-0.086-0.208-0.22-0.312
					c-0.13-0.104-0.335-0.198-0.649-0.247c-0.311-0.05-0.737-0.052-1.306,0.022c-0.56,0.073-1.083,0.157-1.548,0.239
					c-0.461,0.082-0.872,0.163-1.211,0.238c-0.34,0.073-0.61,0.138-0.8,0.186c-0.194,0.048-0.306,0.077-0.327,0.082
					c0.011,0.014,0.071,0.097,0.176,0.201C45.918,104.165,46.073,104.295,46.274,104.42z M57.413,100.748
					c0.212,0.139,0.48,0.276,0.796,0.361c0.322,0.087,0.7,0.122,1.137,0.079c0.381-0.038,0.785-0.102,1.192-0.174
					c0.405-0.071,0.815-0.154,1.188-0.236c0.376-0.082,0.717-0.163,1-0.233c0.282-0.069,0.507-0.127,0.634-0.162
					c0.036-0.009,0.055-0.012,0.09-0.021c0.013-0.005,0.017-0.01,0.024-0.011c0.004-0.001,0.01,0,0.01,0
					c0.001-0.014,0.012-0.089-0.01-0.187c-0.024-0.098-0.084-0.218-0.221-0.335c-0.137-0.115-0.354-0.223-0.701-0.288
					c-0.342-0.065-0.809-0.091-1.444-0.037c-0.627,0.053-1.213,0.117-1.733,0.185c-0.518,0.069-0.975,0.141-1.356,0.205
					c-0.379,0.064-0.682,0.122-0.897,0.165c-0.214,0.042-0.344,0.071-0.365,0.077c0.007,0.015,0.068,0.101,0.178,0.217
					C57.042,100.469,57.203,100.609,57.413,100.748z"/>
			</g>
		</g>
		<g>
			<path fill="#ADA9A2" d="M67.813,99.293c0.103,0.421-0.154,0.843-0.569,0.943c-0.416,0.101-0.843-0.154-0.944-0.571
				c-0.104-0.424,0.154-0.841,0.586-0.946C67.29,98.62,67.714,98.882,67.813,99.293z"/>
			<path fill="#ADA9A2" d="M72.807,98.554l0.134,0.604c0.063,0.279,0.032,0.528-0.095,0.712c-0.146,0.219-0.404,0.379-0.723,0.45
				c-0.467,0.103-0.833-0.017-1.057-0.348c-0.102-0.144-0.177-0.352-0.245-0.654l-0.347-1.559c-0.066-0.297-0.026-0.588,0.103-0.784
				c0.141-0.215,0.393-0.381,0.683-0.445c0.616-0.136,1.125,0.135,1.243,0.662l0.103,0.462l-0.786,0.174l-0.078-0.352
				c-0.062-0.28-0.159-0.378-0.335-0.339c-0.11,0.023-0.18,0.121-0.175,0.246c0.003,0.034,0.003,0.034,0.061,0.355l0.32,1.433
				c0.108,0.488,0.175,0.583,0.384,0.536c0.182-0.041,0.211-0.135,0.142-0.447l-0.119-0.532L72.807,98.554z"/>
			<path fill="#ADA9A2" d="M75.692,98.79l0.037,0.691l-0.782,0.159l-0.066-3.813l0.992-0.2l1.432,3.536l-0.811,0.163l-0.229-0.652
				L75.692,98.79z M75.491,96.34l0.133,1.822l0.462-0.094L75.491,96.34z"/>
			<path fill="#ADA9A2" d="M79.895,98.677l-0.781,0.143l-0.671-3.69l1.188-0.218c0.267-0.048,0.462-0.038,0.596,0.034
				c0.216,0.116,0.358,0.365,0.428,0.752c0.055,0.304,0.052,0.539-0.012,0.688c-0.036,0.086-0.099,0.143-0.232,0.23
				c0.174,0.048,0.271,0.104,0.338,0.219c0.078,0.118,0.171,0.351,0.194,0.467l0.141,0.78c0.032,0.172,0.048,0.227,0.094,0.361
				l-0.809,0.146l-0.188-1.04c-0.004-0.027-0.067-0.245-0.078-0.272c-0.059-0.172-0.185-0.229-0.411-0.188
				c-0.023,0.004-0.046,0.009-0.081,0.026L79.895,98.677z M79.634,96.494c0.271-0.049,0.325-0.162,0.253-0.561
				c-0.062-0.337-0.146-0.425-0.369-0.383l-0.188,0.033L79.5,96.52L79.634,96.494z"/>
			<path fill="#ADA9A2" d="M84.407,95.586l0.109,0.661l-0.833,0.139l0.154,0.921l1.026-0.171l0.11,0.662l-1.815,0.301l-0.615-3.704
				l1.715-0.284l0.11,0.655l-0.928,0.153l0.133,0.805L84.407,95.586z"/>
			<path fill="#ADA9A2" d="M88.179,95.061l0.093,0.645l-0.777,0.114l0.23,1.561l-0.795,0.116l-0.543-3.704l1.687-0.249l0.1,0.668
				l-0.895,0.13l0.123,0.834L88.179,95.061z"/>
			<path fill="#ADA9A2" d="M92.5,95.702c0.044,0.328,0.017,0.599-0.066,0.746c-0.144,0.245-0.429,0.406-0.824,0.459
				c-0.457,0.06-0.844-0.077-1.029-0.364c-0.084-0.119-0.136-0.306-0.17-0.567l-0.355-2.715l0.797-0.104l0.355,2.714
				c0.042,0.324,0.117,0.416,0.301,0.391c0.172-0.021,0.225-0.147,0.183-0.453l-0.353-2.716l0.807-0.105L92.5,95.702z"/>
			<path fill="#ADA9A2" d="M96.396,95.606l0.072,0.66l-1.758,0.194l-0.414-3.732l0.8-0.089l0.342,3.074L96.396,95.606z"/>
			<path fill="#ADA9A2" d="M100.039,95.246l0.063,0.659l-1.757,0.169l-0.356-3.733l0.8-0.077l0.295,3.072L100.039,95.246z"/>
			<path fill="#ADA9A2" d="M103.044,95.666l-0.772,0.06l-0.122-1.584l-0.836-2.098l0.807-0.062l0.346,1.15l0.175-1.189l0.816-0.063
				l-0.535,2.205L103.044,95.666z"/>
			<path fill="#ADA9A2" d="M110.454,93.714l0.028,0.617c0.013,0.287-0.06,0.525-0.217,0.686c-0.182,0.188-0.463,0.303-0.791,0.318
				c-0.478,0.021-0.817-0.16-0.981-0.525c-0.074-0.158-0.113-0.377-0.126-0.686l-0.072-1.596c-0.016-0.303,0.073-0.583,0.234-0.753
				c0.177-0.189,0.454-0.309,0.752-0.321c0.628-0.029,1.084,0.326,1.109,0.866l0.021,0.472l-0.804,0.037l-0.016-0.36
				c-0.013-0.286-0.09-0.4-0.271-0.392c-0.111,0.006-0.198,0.088-0.214,0.213c-0.005,0.033-0.005,0.033-0.002,0.36l0.067,1.467
				c0.023,0.5,0.073,0.604,0.287,0.594c0.185-0.008,0.232-0.094,0.216-0.414l-0.024-0.547L110.454,93.714z"/>
			<path fill="#ADA9A2" d="M113.355,95.119l-0.792,0.021l-0.1-3.746l1.208-0.034c0.271-0.006,0.462,0.034,0.583,0.125
				c0.194,0.147,0.297,0.415,0.306,0.807c0.009,0.309-0.03,0.541-0.116,0.679c-0.049,0.079-0.119,0.127-0.265,0.191
				c0.166,0.075,0.25,0.146,0.3,0.268c0.059,0.128,0.117,0.375,0.119,0.493l0.021,0.791c0.005,0.175,0.012,0.229,0.039,0.37
				l-0.82,0.021l-0.028-1.056c-0.001-0.028-0.029-0.252-0.036-0.28c-0.033-0.18-0.147-0.255-0.378-0.249
				c-0.022,0.001-0.044,0.001-0.083,0.014L113.355,95.119z M113.431,92.925c0.276-0.008,0.346-0.111,0.335-0.516
				c-0.01-0.342-0.08-0.442-0.305-0.435l-0.19,0.004l0.025,0.949L113.431,92.925z"/>
			<path fill="#ADA9A2" d="M117.328,94.35l-0.093,0.687l-0.799,0.009l0.648-3.754l1.011-0.013l0.744,3.741l-0.824,0.009
				l-0.105-0.685L117.328,94.35z M117.585,91.908l-0.21,1.812l0.473-0.006L117.585,91.908z"/>
			<path fill="#ADA9A2" d="M122.305,92.806l-0.006,0.652l-0.788-0.006L121.5,95.03l-0.805-0.007l0.031-3.747l1.708,0.012
				l-0.006,0.675l-0.902-0.007l-0.008,0.844L122.305,92.806z"/>
			<path fill="#ADA9A2" d="M125.635,95.104l-0.799-0.02l0.084-3.091l-0.714-0.019l0.017-0.657l2.227,0.059l-0.02,0.657l-0.715-0.018
				L125.635,95.104z"/>
			<path fill="#ADA9A2" d="M129.975,92.985l-0.027,0.668l-0.842-0.035l-0.038,0.934l1.036,0.043l-0.026,0.669l-1.837-0.077
				l0.157-3.749l1.737,0.073l-0.031,0.663l-0.936-0.04l-0.035,0.815L129.975,92.985z"/>
			<path fill="#ADA9A2" d="M133.428,91.689c0.297,0.018,0.547,0.112,0.685,0.262c0.211,0.227,0.229,0.454,0.146,1.87
				c-0.047,0.758-0.077,0.977-0.156,1.174c-0.141,0.348-0.385,0.473-0.873,0.443l-1.17-0.071l0.229-3.748L133.428,91.689z
				 M132.986,94.837c0.203,0.012,0.307-0.038,0.359-0.166c0.041-0.104,0.088-0.502,0.118-1.012c0.053-0.837,0.05-1.17-0.011-1.265
				c-0.041-0.064-0.14-0.11-0.264-0.118l-0.148-0.008l-0.156,2.562L132.986,94.837z"/>
			<path fill="#ADA9A2" d="M141.297,94.562l-0.058,0.614c-0.024,0.285-0.132,0.514-0.308,0.649
				c-0.205,0.161-0.499,0.235-0.825,0.206c-0.475-0.045-0.788-0.27-0.897-0.652c-0.053-0.169-0.061-0.39-0.033-0.696l0.145-1.591
				c0.027-0.302,0.154-0.567,0.338-0.713c0.201-0.162,0.492-0.243,0.788-0.216c0.626,0.058,1.028,0.474,0.979,1.01l-0.044,0.472
				l-0.801-0.074l0.032-0.358c0.028-0.286-0.035-0.41-0.213-0.426c-0.112-0.011-0.209,0.06-0.242,0.18
				C140.15,93,140.15,93,140.108,93.322l-0.134,1.463c-0.047,0.497-0.011,0.607,0.2,0.626c0.184,0.019,0.243-0.062,0.271-0.379
				l0.053-0.544L141.297,94.562z"/>
			<path fill="#ADA9A2" d="M143.477,93.67c0.055-0.487,0.151-0.748,0.341-0.909c0.181-0.149,0.499-0.217,0.845-0.178
				c0.645,0.071,0.994,0.502,0.922,1.134l-0.019,0.18l-0.151,1.354c-0.058,0.531-0.112,0.712-0.255,0.884
				c-0.209,0.243-0.552,0.358-0.931,0.315c-0.47-0.052-0.812-0.283-0.908-0.61c-0.031-0.127-0.031-0.491,0.008-0.82L143.477,93.67z
				 M144.785,93.815c0.055-0.476,0.018-0.593-0.197-0.616c-0.099-0.012-0.195,0.034-0.233,0.115
				c-0.038,0.092-0.038,0.103-0.083,0.443l-0.15,1.349c-0.044,0.455-0.044,0.46-0.019,0.548c0.026,0.1,0.093,0.158,0.189,0.169
				c0.123,0.014,0.22-0.044,0.255-0.148c0.033-0.092,0.035-0.12,0.091-0.51L144.785,93.815z"/>
			<path fill="#ADA9A2" d="M148.645,96.911l-1.01-0.129L147.599,93l0.805,0.102l-0.104,2.508l0.571-2.448l0.799,0.101
				L148.645,96.911z"/>
			<path fill="#ADA9A2" d="M152.986,95.234l-0.098,0.66l-0.832-0.122l-0.137,0.922l1.029,0.151l-0.1,0.66l-1.814-0.267l0.543-3.704
				l1.715,0.252l-0.095,0.655l-0.928-0.135l-0.118,0.805L152.986,95.234z"/>
			<path fill="#ADA9A2" d="M155.619,97.934l-0.785-0.126l0.602-3.704l1.193,0.193c0.266,0.043,0.447,0.118,0.549,0.231
				c0.166,0.181,0.217,0.462,0.153,0.852c-0.05,0.305-0.132,0.525-0.241,0.645c-0.062,0.069-0.143,0.102-0.297,0.141
				c0.148,0.103,0.221,0.189,0.245,0.318c0.036,0.138,0.046,0.389,0.027,0.506l-0.126,0.783c-0.03,0.173-0.033,0.229-0.033,0.372
				l-0.811-0.132l0.168-1.046c0.006-0.027,0.02-0.253,0.02-0.281c0-0.182-0.099-0.278-0.328-0.315
				c-0.021-0.004-0.043-0.007-0.084-0.002L155.619,97.934z M156.102,95.79c0.272,0.044,0.36-0.043,0.426-0.444
				c0.055-0.339,0.005-0.448-0.217-0.484l-0.189-0.031l-0.15,0.938L156.102,95.79z"/>
			<path fill="#ADA9A2" d="M159.647,97.933l-0.222,0.656l-0.785-0.144l1.354-3.564l0.993,0.181l0.019,3.816l-0.812-0.148
				l0.031-0.692L159.647,97.933z M160.367,95.583l-0.551,1.74l0.465,0.084L160.367,95.583z"/>
			<path fill="#ADA9A2" d="M165.302,97.647l-0.403,2l-0.722-0.146l0.034-0.182c-0.19,0.139-0.378,0.182-0.605,0.135
				c-0.264-0.053-0.48-0.224-0.567-0.441c-0.066-0.167-0.071-0.444-0.014-0.731l0.343-1.697c0.076-0.381,0.203-0.63,0.369-0.757
				c0.218-0.157,0.531-0.203,0.91-0.126c0.655,0.133,0.934,0.58,0.792,1.273l-0.046,0.231l-0.787-0.16l0.072-0.375
				c0.043-0.203-0.023-0.332-0.183-0.363c-0.203-0.041-0.274,0.059-0.368,0.511l-0.294,1.454c-0.052,0.375-0.052,0.375-0.034,0.44
				c0.027,0.093,0.098,0.152,0.193,0.172c0.16,0.032,0.27-0.083,0.322-0.343l0.084-0.419l-0.293-0.06l0.128-0.634L165.302,97.647z"
				/>
			<path fill="#ADA9A2" d="M169.002,98.201l-0.143,0.653l-0.822-0.18l-0.199,0.91l1.016,0.224l-0.143,0.652l-1.795-0.392
				l0.801-3.662l1.696,0.371l-0.143,0.648l-0.916-0.201l-0.175,0.796L169.002,98.201z"/>
			<path fill="#ADA9A2" d="M173.473,99.627c-0.104,0.42-0.524,0.677-0.938,0.577c-0.417-0.103-0.679-0.524-0.58-0.94
				c0.105-0.427,0.525-0.678,0.958-0.572C173.316,98.79,173.572,99.217,173.473,99.627z"/>
		</g>
	</g>
	<g>
		<g>
			<g>
				<circle fill="#ADA9A2" cx="96.548" cy="156.728" r="0.852"/>
			</g>
		</g>
		<g>
			<g>
				<circle fill="#ADA9A2" cx="104.359" cy="156.728" r="0.851"/>
			</g>
		</g>
		<g>
			<g>
				<circle fill="#ADA9A2" cx="112.169" cy="156.728" r="0.851"/>
			</g>
		</g>
		<g>
			<g>
				<circle fill="#ADA9A2" cx="119.981" cy="156.728" r="0.851"/>
			</g>
		</g>
		<g>
			<g>
				<path fill="#ADA9A2" d="M128.643,156.728c0,0.47-0.379,0.851-0.85,0.851c-0.473,0-0.852-0.381-0.852-0.851
					c0-0.472,0.379-0.853,0.852-0.853C128.264,155.875,128.643,156.256,128.643,156.728z"/>
			</g>
		</g>
		<g>
			<g>
				<circle fill="#ADA9A2" cx="135.603" cy="156.728" r="0.851"/>
			</g>
		</g>
		<g>
			<g>
				<circle fill="#ADA9A2" cx="143.414" cy="156.728" r="0.852"/>
			</g>
		</g>
	</g>
	<g>
		<g>
			<path fill="#ADA9A2" d="M63.334,140.354h-9.44h-0.352v-0.35v-2.657v-0.297l0.293-0.05l1.476-0.242V122.6l-1.476-0.245
				l-0.293-0.05v-0.297v-2.658v-0.351h0.352h10.032c3.227,0,5.662,2.435,5.662,5.662c0,1.774-0.744,3.299-2.107,4.341
				c1.514,1.185,2.402,2.998,2.402,4.952C69.881,137.484,66.943,140.354,63.334,140.354L63.334,140.354z M59.554,136.41h3.78
				c1.227,0,2.304-1.01,2.304-2.159v-1.181c0-1.15-1.077-2.157-2.304-2.157h-3.78V136.41L59.554,136.41z M59.554,126.968h3.78
				c1.126,0,2.009-0.883,2.009-2.012c0-1.127-0.883-2.009-2.009-2.009h-3.78V126.968L59.554,126.968z"/>
		</g>
		<g>
			<path fill="#ADA9A2" d="M63.924,119.35c3.068,0,5.311,2.361,5.311,5.312c0,1.859-0.885,3.394-2.361,4.338
				c1.476,0.974,2.656,2.743,2.656,4.957c0,3.393-2.862,6.048-6.196,6.048h-9.441v-2.655l1.77-0.294v-14.753l-1.77-0.297v-2.655
				H63.924 M59.203,127.316h4.131c1.298,0,2.361-1.031,2.361-2.36c0-1.328-1.062-2.359-2.361-2.359h-4.131V127.316 M59.203,136.759
				h4.131c1.357,0,2.655-1.092,2.655-2.508v-1.181c0-1.387-1.298-2.508-2.655-2.508h-4.131V136.759 M63.924,118.647H53.893H53.19
				v0.702v2.655v0.597l0.587,0.098l1.183,0.197v13.562l-1.183,0.198l-0.587,0.098v0.595v2.655v0.703h0.703h9.441
				c3.804,0,6.899-3.029,6.899-6.751c0-1.915-0.81-3.706-2.206-4.953c1.225-1.097,1.911-2.633,1.911-4.342
				C69.938,121.29,67.296,118.647,63.924,118.647L63.924,118.647z M59.907,123.299h3.427c0.93,0,1.657,0.729,1.657,1.657
				c0,0.93-0.728,1.658-1.657,1.658h-3.427V123.299L59.907,123.299z M59.907,131.266h3.427c1.022,0,1.953,0.86,1.953,1.805v1.181
				c0,1.063-1.029,1.805-1.953,1.805h-3.427V131.266L59.907,131.266z"/>
		</g>
	</g>
	<g>
		<g>
			<path fill="#ADA9A2" d="M88.617,140.354h-0.351h-4.721h-0.251l-0.081-0.237l-2.211-6.49c-0.672-1.983-2.33-2.417-2.912-2.417
				h-0.683v5.549L78.884,137l0.292,0.05v0.297v2.657v0.35h-0.351h-7.079h-0.351v-0.35v-2.657v-0.297l0.292-0.05l1.477-0.242V122.6
				l-1.477-0.245l-0.292-0.05v-0.297v-2.658v-0.351h0.351h9.56c3.383,0,6.133,2.74,6.133,6.104c0,2.351-1.364,4.521-3.448,5.565
				c0.319,0.357,0.564,0.786,0.773,1.331l1.786,4.739L88.318,137l0.299,0.044v0.303v2.657V140.354L88.617,140.354z M77.407,127.261
				h3.899c1.059,0,1.89-0.819,1.89-1.861v-0.591c0-1.042-0.832-1.861-1.89-1.861h-3.899V127.261L77.407,127.261z"/>
		</g>
		<g>
			<path fill="#ADA9A2" d="M81.305,119.35c3.216,0,5.782,2.567,5.782,5.755c0,2.389-1.474,4.573-3.716,5.458
				c0.472,0.383,0.796,0.854,1.062,1.563l1.859,4.929l1.976,0.294v2.655h-4.721l-2.212-6.49c-0.708-2.097-2.448-2.655-3.245-2.655
				h-1.033v6.196l1.77,0.294v2.655h-7.082v-2.655l1.771-0.294v-14.753l-1.771-0.297v-2.655H81.305 M77.056,127.611h4.249
				c1.24,0,2.242-0.973,2.242-2.213v-0.59c0-1.238-1.002-2.212-2.242-2.212h-4.249V127.611 M81.305,118.647h-9.561h-0.702v0.702
				v2.655v0.597l0.587,0.098l1.184,0.197v13.562l-1.184,0.198l-0.587,0.098v0.595v2.655v0.703h0.702h7.082h0.703v-0.703v-2.655
				v-0.595l-0.588-0.098l-1.182-0.198v-4.898h0.331c0.513,0,1.976,0.392,2.58,2.179l2.212,6.492l0.163,0.477h0.502h4.721h0.703
				v-0.703v-2.655v-0.605l-0.599-0.089l-1.568-0.234l-1.713-4.543c-0.16-0.427-0.343-0.786-0.563-1.099
				c1.985-1.165,3.263-3.337,3.263-5.674C87.791,121.545,84.882,118.647,81.305,118.647L81.305,118.647z M77.759,123.299h3.546
				c0.862,0,1.539,0.662,1.539,1.51v0.59c0,0.847-0.677,1.511-1.539,1.511h-3.546V123.299L77.759,123.299z"/>
		</g>
	</g>
	<g>
		<g>
			<polygon fill="#ADA9A2" points="104.995,140.354 104.646,140.354 90.188,140.354 89.838,140.354 89.838,140.004 89.838,137.347 
				89.838,137.05 90.131,137 91.61,136.758 91.61,122.6 90.131,122.354 89.838,122.305 89.838,122.008 89.838,119.35 
				89.838,118.999 90.188,118.999 104.646,118.999 104.995,118.999 104.995,119.35 104.995,124.366 104.995,124.716 
				104.646,124.716 101.992,124.716 101.693,124.716 101.645,124.424 101.398,122.947 95.85,122.947 95.85,126.968 100.24,126.968 
				100.469,126.053 100.536,125.787 100.811,125.787 103.464,125.787 103.815,125.787 103.815,126.137 103.815,132.334 
				103.815,132.684 103.464,132.684 100.811,132.684 100.512,132.684 100.463,132.392 100.218,130.913 95.85,130.913 95.85,136.41 
				101.393,136.41 101.645,134.645 101.688,134.344 101.992,134.344 104.646,134.344 104.995,134.344 104.995,134.693 
				104.995,140.004 104.995,140.354 			"/>
		</g>
		<g>
			<path fill="#ADA9A2" d="M104.647,119.35v5.017h-2.656l-0.295-1.77H95.5v4.72h5.016l0.295-1.18h2.655v6.196h-2.655l-0.295-1.771
				H95.5v6.196h6.196l0.295-2.065h2.656v5.311H90.189v-2.655l1.77-0.294v-14.753l-1.77-0.297v-2.655H104.647 M105.349,118.647
				h-0.702H90.189h-0.703v0.702v2.655v0.597l0.587,0.098l1.183,0.197v13.562l-1.183,0.198l-0.587,0.098v0.595v2.655v0.703h0.703
				h14.458h0.702v-0.703v-5.311v-0.702h-0.702h-2.656h-0.609l-0.087,0.604l-0.208,1.461h-4.884v-4.79h3.718l0.197,1.183l0.098,0.587
				h0.595h2.655h0.703v-0.702v-6.196v-0.703h-0.703h-2.655h-0.549l-0.134,0.532l-0.162,0.648h-3.764v-3.315h4.899l0.196,1.183
				l0.097,0.587h0.596h2.656h0.702v-0.702v-5.017V118.647L105.349,118.647z"/>
		</g>
	</g>
	<g>
		<g>
			<polygon fill="#ADA9A2" points="128.952,140.354 128.695,140.354 125.156,140.354 124.897,140.354 124.819,140.111 
				121.32,129.072 117.821,140.111 117.743,140.354 117.485,140.354 113.945,140.354 113.688,140.354 113.61,140.111 
				108.066,122.614 106.509,122.354 106.217,122.305 106.217,122.008 106.217,119.35 106.217,118.999 106.568,118.999 
				113.65,118.999 114,118.999 114,119.35 114,122.008 114,122.305 113.708,122.354 112.333,122.582 115.714,133.504 
				119.095,122.582 117.723,122.354 117.43,122.305 117.43,122.008 117.43,119.35 117.43,118.999 117.78,118.999 124.859,118.999 
				125.211,118.999 125.211,119.35 125.211,122.008 125.211,122.305 124.918,122.354 123.546,122.582 126.926,133.504 
				130.307,122.582 128.933,122.354 128.641,122.305 128.641,122.008 128.641,119.35 128.641,118.999 128.99,118.999 
				136.072,118.999 136.422,118.999 136.422,119.35 136.422,122.008 136.422,122.305 136.131,122.354 134.575,122.614 
				129.031,140.111 128.952,140.354 			"/>
		</g>
		<g>
			<path fill="#ADA9A2" d="M136.072,119.35v2.655l-1.77,0.297l-5.605,17.702h-3.541l-3.836-12.098l-3.836,12.098h-3.54
				l-5.606-17.702l-1.77-0.297v-2.655h7.082v2.655l-1.771,0.297l3.835,12.392l3.836-12.392l-1.771-0.297v-2.655h7.082v2.655
				l-1.771,0.297l3.835,12.392l3.836-12.392l-1.771-0.297v-2.655H136.072 M136.775,118.647h-0.703h-7.081h-0.702v0.702v2.655v0.597
				l0.587,0.098l0.978,0.163l-2.928,9.453l-2.928-9.453l0.979-0.163l0.587-0.098v-0.597v-2.655v-0.702h-0.702h-7.082h-0.703v0.702
				v2.655v0.597l0.587,0.098l0.977,0.163l-2.927,9.453l-2.926-9.453l0.977-0.163l0.587-0.098v-0.597v-2.655v-0.702h-0.702h-7.082
				h-0.703v0.702v2.655v0.597l0.587,0.098l1.346,0.225l5.477,17.293l0.154,0.49h0.515h3.54H118l0.154-0.49l3.167-9.985l3.166,9.985
				l0.154,0.49h0.516h3.541h0.514l0.154-0.49l5.477-17.293l1.346-0.225l0.588-0.098v-0.597v-2.655V118.647L136.775,118.647z"/>
		</g>
	</g>
	<g>
		<g>
			<polygon fill="#ADA9A2" points="152.804,140.355 152.453,140.355 137.994,140.355 137.645,140.355 137.645,140.005 
				137.645,137.349 137.645,137.05 137.938,137 139.414,136.755 139.414,122.6 137.938,122.353 137.645,122.304 137.645,122.005 
				137.645,119.352 137.645,119 137.994,119 152.453,119 152.804,119 152.804,119.352 152.804,124.368 152.804,124.717 
				152.453,124.717 149.799,124.717 149.5,124.717 149.451,124.426 149.205,122.947 143.656,122.947 143.656,126.967 
				148.049,126.967 148.273,126.053 148.342,125.787 148.617,125.787 151.274,125.787 151.625,125.787 151.625,126.138 
				151.625,132.333 151.625,132.683 151.274,132.683 148.617,132.683 148.318,132.683 148.27,132.391 148.025,130.913 
				143.656,130.913 143.656,136.407 149.199,136.407 149.451,134.646 149.494,134.344 149.799,134.344 152.453,134.344 
				152.804,134.344 152.804,134.695 152.804,140.005 152.804,140.355 			"/>
		</g>
		<g>
			<path fill="#ADA9A2" d="M152.454,119.35v5.017h-2.656l-0.294-1.77h-6.198v4.72h5.019l0.293-1.18h2.657v6.196h-2.657l-0.293-1.771
				h-5.019v6.196h6.198l0.294-2.065h2.656v5.311h-14.458v-2.655l1.77-0.294v-14.753l-1.77-0.297v-2.655H152.454 M153.156,118.647
				h-0.702h-14.458h-0.703v0.702v2.655v0.597l0.588,0.098l1.184,0.197v13.562l-1.184,0.198l-0.588,0.098v0.595v2.655v0.703h0.703
				h14.458h0.702v-0.703v-5.311v-0.702h-0.702h-2.656h-0.61l-0.086,0.604l-0.207,1.461h-4.887v-4.79h3.721l0.195,1.183l0.098,0.587
				h0.596h2.657h0.702v-0.702v-6.196v-0.703h-0.702h-2.657h-0.549l-0.133,0.532l-0.16,0.648h-3.768v-3.315h4.9l0.195,1.183
				l0.099,0.587h0.596h2.656h0.702v-0.702v-5.017V118.647L153.156,118.647z"/>
		</g>
	</g>
	<g>
		<g>
			<path fill="#ADA9A2" d="M171.246,140.355h-0.35h-4.721h-0.252l-0.08-0.237l-2.216-6.492c-0.67-1.981-2.328-2.419-2.911-2.419
				h-0.682v5.551l1.478,0.246l0.292,0.051v0.294v2.655v0.352h-0.35h-7.082h-0.35v-0.352v-2.655v-0.294l0.292-0.051l1.478-0.246
				v-14.161l-1.478-0.246l-0.292-0.049v-0.297v-2.655v-0.352h0.35h9.561c3.383,0,6.135,2.741,6.135,6.106
				c0,2.349-1.367,4.521-3.448,5.566c0.315,0.352,0.563,0.781,0.769,1.329l1.785,4.734l1.773,0.267l0.299,0.045v0.303v2.655V140.355
				L171.246,140.355z M160.035,127.261h3.898c1.062,0,1.892-0.818,1.892-1.862v-0.59c0-1.042-0.829-1.86-1.892-1.86h-3.898V127.261
				L160.035,127.261z"/>
		</g>
		<g>
			<path fill="#ADA9A2" d="M163.934,119.35c3.216,0,5.783,2.567,5.783,5.755c0,2.389-1.475,4.573-3.719,5.458
				c0.473,0.383,0.797,0.854,1.062,1.563l1.859,4.929l1.977,0.294v2.655h-4.721l-2.213-6.49c-0.709-2.097-2.448-2.655-3.244-2.655
				h-1.033v6.196l1.77,0.294v2.655h-7.082v-2.655l1.771-0.294v-14.753l-1.771-0.297v-2.655H163.934 M159.686,127.611h4.248
				c1.238,0,2.242-0.973,2.242-2.213v-0.59c0-1.238-1.004-2.212-2.242-2.212h-4.248V127.611 M163.934,118.647h-9.561h-0.701v0.702
				v2.655v0.597l0.587,0.098l1.184,0.197v13.562l-1.184,0.198l-0.587,0.098v0.595v2.655v0.703h0.701h7.082h0.703v-0.703v-2.655
				v-0.595l-0.588-0.098l-1.183-0.198v-4.898h0.331c0.512,0,1.975,0.392,2.578,2.179l2.213,6.492l0.164,0.477h0.502h4.721h0.703
				v-0.703v-2.655v-0.605l-0.599-0.089l-1.569-0.234l-1.713-4.543c-0.16-0.425-0.344-0.786-0.564-1.099
				c1.986-1.165,3.265-3.337,3.265-5.674C170.419,121.545,167.51,118.647,163.934,118.647L163.934,118.647z M160.388,123.299h3.546
				c0.863,0,1.539,0.662,1.539,1.51v0.59c0,0.847-0.676,1.511-1.539,1.511h-3.546V123.299L160.388,123.299z"/>
		</g>
	</g>
	<g>
		<g>
			<polygon fill="#ADA9A2" points="183.642,140.357 183.291,140.357 176.211,140.357 175.858,140.357 175.858,140.005 
				175.858,137.349 175.858,137.052 176.152,137.003 177.627,136.759 177.627,131.245 172.598,122.62 170.99,122.353 
				170.697,122.304 170.697,122.008 170.697,119.35 170.697,118.999 171.047,118.999 178.128,118.999 178.48,118.999 178.48,119.35 
				178.48,122.008 178.48,122.296 178.197,122.353 177.201,122.55 179.75,127.048 182.303,122.55 181.306,122.353 181.023,122.296 
				181.023,122.008 181.023,119.35 181.023,118.999 181.375,118.999 188.455,118.999 188.808,118.999 188.808,119.35 
				188.808,122.008 188.808,122.304 188.514,122.353 186.906,122.62 181.871,131.245 181.871,136.759 183.348,137.003 
				183.642,137.052 183.642,137.349 183.642,140.005 183.642,140.357 			"/>
		</g>
		<g>
			<path fill="#ADA9A2" d="M188.455,119.35v2.655l-1.77,0.297l-5.164,8.851v5.902l1.771,0.294v2.655h-7.081v-2.655l1.77-0.294
				v-5.902l-5.164-8.851l-1.77-0.297v-2.655h7.081v2.655l-1.475,0.297l3.099,5.456l3.097-5.456l-1.474-0.297v-2.655H188.455
				 M189.159,118.647h-0.704h-7.08h-0.703v0.702v2.655v0.577l0.566,0.113l0.52,0.104l-2.006,3.537l-2.006-3.537l0.519-0.104
				l0.565-0.113v-0.577v-2.655v-0.702h-0.702h-7.081h-0.703v0.702v2.655v0.597l0.588,0.098l1.443,0.241l4.904,8.402v5.115
				l-1.184,0.198l-0.588,0.098v0.595v2.655v0.703h0.703h7.081h0.702v-0.703v-2.655v-0.595l-0.588-0.098l-1.182-0.198v-5.115
				l4.9-8.402l1.445-0.241l0.589-0.098v-0.597v-2.655V118.647L189.159,118.647z"/>
		</g>
	</g>
	<g>
		<g>
			<g>
				<polygon fill="#ADA9A2" points="65.619,151.774 65.441,151.774 64.036,151.774 63.859,151.774 63.859,151.598 63.859,145.032 
					63.859,144.854 64.036,144.854 65.441,144.854 65.619,144.854 65.619,145.032 65.619,151.598 65.619,151.774 				"/>
			</g>
			<g>
				<path fill="#ADA9A2" d="M65.442,145.034v6.563h-1.406v-6.563H65.442 M65.793,144.683h-0.351h-1.406h-0.352v0.352v6.563v0.352
					h0.352h1.406h0.351v-0.352v-6.563V144.683L65.793,144.683z"/>
			</g>
		</g>
		<g>
			<g>
				<polygon fill="#ADA9A2" points="72.959,151.774 72.782,151.774 71.194,151.774 71.059,151.774 71.024,151.64 70.429,149.387 
					70.429,151.598 70.429,151.774 70.253,151.774 68.875,151.774 68.698,151.774 68.698,151.598 68.698,145.032 68.698,144.854 
					68.875,144.854 70.429,144.854 70.563,144.854 70.601,144.985 71.197,147.204 71.197,145.032 71.197,144.854 71.375,144.854 
					72.782,144.854 72.959,144.854 72.959,145.032 72.959,151.598 72.959,151.774 				"/>
			</g>
			<g>
				<path fill="#ADA9A2" d="M72.782,145.034v6.563h-1.586l-0.944-3.572v3.572h-1.377v-6.563h1.554l0.946,3.513v-3.513H72.782
					 M73.133,144.683h-0.351h-1.408h-0.352v0.352v0.855l-0.255-0.946l-0.07-0.261h-0.269h-1.554h-0.352v0.352v6.563v0.352h0.352
					h1.377h0.351v-0.352v-0.869l0.253,0.958l0.069,0.263h0.271h1.586h0.351v-0.352v-6.563V144.683L73.133,144.683z"/>
			</g>
		</g>
		<g>
			<g>
				<path fill="#ADA9A2" d="M77.956,151.893c-0.954,0-1.672-0.342-1.967-0.933c-0.154-0.316-0.2-0.571-0.2-1.133v-0.493v-0.177
					h0.176h1.429h0.175v0.177v0.601c0,0.503,0.206,0.503,0.316,0.503c0.07,0,0.275,0,0.275-0.325c0-0.348-0.101-0.575-0.733-1.094
					c-1.231-1.022-1.591-1.571-1.591-2.45c0-1.128,0.756-1.828,1.97-1.828c0.982,0,1.742,0.476,1.941,1.21
					c0.064,0.256,0.086,0.525,0.096,1.197v0.18h-0.177h-1.359h-0.156c0.081,0.072,0.174,0.156,0.281,0.248
					c1.177,1.026,1.5,1.56,1.5,2.478C79.933,151.22,79.213,151.893,77.956,151.893L77.956,151.893z M77.856,146.214
					c-0.185,0-0.266,0.084-0.266,0.275c0,0.249,0.043,0.366,0.541,0.816v-0.155v-0.521
					C78.131,146.214,77.941,146.214,77.856,146.214L77.856,146.214z"/>
			</g>
			<g>
				<path fill="#ADA9A2" d="M77.808,144.915c0.905,0,1.593,0.424,1.771,1.082c0.06,0.236,0.08,0.502,0.089,1.153h-1.359v-0.523
					c0-0.383-0.157-0.59-0.452-0.59c-0.285,0-0.444,0.167-0.444,0.452c0,0.376,0.109,0.522,0.906,1.221
					c1.142,0.993,1.438,1.477,1.438,2.343c0,1.063-0.651,1.663-1.802,1.663c-0.886,0-1.546-0.307-1.81-0.837
					c-0.139-0.285-0.179-0.513-0.179-1.053v-0.492h1.428v0.601c0,0.452,0.158,0.679,0.492,0.679c0.286,0,0.452-0.187,0.452-0.501
					c0-0.443-0.175-0.72-0.796-1.23c-1.191-0.985-1.526-1.495-1.526-2.313C76.015,145.535,76.685,144.915,77.808,144.915
					 M77.808,144.564c-1.321,0-2.143,0.768-2.143,2.004c0,0.88,0.345,1.468,1.452,2.415h-1.15h-0.352v0.351v0.492
					c0,0.589,0.051,0.869,0.214,1.207c0.328,0.658,1.103,1.034,2.125,1.034c1.348,0,2.153-0.754,2.153-2.015
					c0-0.966-0.323-1.522-1.494-2.552h1.054h0.357l-0.006-0.356c-0.01-0.694-0.033-0.971-0.1-1.234
					C79.698,145.091,78.871,144.564,77.808,144.564L77.808,144.564z M77.779,146.402c0,0,0.02-0.015,0.078-0.015
					c0.038,0,0.1,0,0.1,0.239v0.269c-0.193-0.205-0.193-0.278-0.193-0.406C77.764,146.422,77.779,146.402,77.779,146.402
					L77.779,146.402z M77.886,150.263c-0.063,0-0.142,0-0.142-0.328v-0.391c0.212,0.23,0.243,0.378,0.243,0.568
					C77.987,150.263,77.947,150.263,77.886,150.263L77.886,150.263z"/>
			</g>
		</g>
		<g>
			<g>
				<path fill="#ADA9A2" d="M84.801,151.893c-0.878,0-1.573-0.362-1.863-0.968c-0.125-0.244-0.185-0.594-0.185-1.098v-4.792v-0.178
					h0.176h1.408h0.178v0.178v4.792c0,0.57,0.106,0.57,0.257,0.57c0.11,0,0.247,0,0.247-0.57v-4.792v-0.178h0.177h1.425h0.177v0.178
					v4.792c0,0.607-0.12,1.111-0.322,1.382C86.134,151.655,85.557,151.893,84.801,151.893L84.801,151.893z"/>
			</g>
			<g>
				<path fill="#ADA9A2" d="M86.622,145.034v4.792c0,0.58-0.107,1.043-0.286,1.278c-0.305,0.396-0.835,0.611-1.535,0.611
					c-0.807,0-1.446-0.326-1.703-0.866c-0.118-0.228-0.168-0.562-0.168-1.023v-4.792h1.407v4.792c0,0.571,0.11,0.747,0.434,0.747
					c0.305,0,0.423-0.207,0.423-0.747v-4.792H86.622 M86.972,144.683h-0.351h-1.428h-0.352v0.352v4.792
					c0,0.332-0.052,0.405-0.054,0.407l-0.073-0.016c0.007-0.006-0.027-0.096-0.027-0.392v-4.792v-0.352h-0.352H82.93H82.58v0.352
					v4.792c0,0.544,0.063,0.91,0.207,1.186c0.312,0.656,1.066,1.056,2.014,1.056c0.81,0,1.437-0.259,1.813-0.748
					c0.232-0.306,0.358-0.836,0.358-1.493v-4.792V144.683L86.972,144.683z"/>
			</g>
		</g>
		<g>
			<g>
				<path fill="#ADA9A2" d="M93.89,151.774h-0.206h-1.437h-0.176v-0.177v-1.852c0-0.055-0.038-0.415-0.046-0.464
					c-0.027-0.155-0.078-0.295-0.447-0.305v2.62v0.177h-0.177h-1.387h-0.177v-0.177v-6.565v-0.178h0.177h2.115
					c0.521,0,0.889,0.097,1.124,0.288c0.376,0.302,0.567,0.825,0.567,1.562c0,0.586-0.089,1.017-0.266,1.28
					c-0.064,0.102-0.145,0.174-0.25,0.241c0.136,0.101,0.244,0.229,0.307,0.408c0.101,0.229,0.2,0.683,0.2,0.928v1.388
					c0,0.288,0.005,0.385,0.046,0.619L93.89,151.774L93.89,151.774z M91.578,147.582h0.058c0.308,0,0.435,0,0.435-0.709
					c0-0.6-0.119-0.6-0.336-0.6h-0.156V147.582L91.578,147.582z"/>
			</g>
			<g>
				<path fill="#ADA9A2" d="M92.129,145.034c0.473,0,0.808,0.076,1.013,0.243c0.335,0.268,0.502,0.739,0.502,1.428
					c0,0.542-0.079,0.946-0.236,1.182c-0.088,0.139-0.217,0.217-0.472,0.325c0.286,0.137,0.433,0.266,0.51,0.483
					c0.099,0.226,0.188,0.658,0.188,0.863v1.391c0,0.304,0.01,0.402,0.048,0.648h-1.436v-1.852c0-0.049-0.04-0.442-0.049-0.49
					c-0.049-0.316-0.247-0.454-0.65-0.454c-0.039,0-0.079,0-0.147,0.02v2.776h-1.387v-6.563H92.129 M91.4,147.76h0.236
					c0.482,0,0.611-0.178,0.611-0.887c0-0.6-0.118-0.777-0.514-0.777H91.4V147.76 M92.129,144.683h-2.116h-0.351v0.352v6.563v0.352
					h0.351H91.4h0.352v-0.352v-2.419c0.083,0.025,0.089,0.071,0.099,0.131c0.011,0.068,0.043,0.381,0.045,0.443v1.845v0.352h0.351
					h1.436h0.411l-0.063-0.406c-0.036-0.227-0.044-0.31-0.044-0.594v-1.391c0-0.266-0.104-0.746-0.218-1.005
					c-0.046-0.128-0.112-0.231-0.191-0.319c0.047-0.047,0.09-0.099,0.128-0.159c0.192-0.288,0.29-0.752,0.29-1.37
					c0-0.795-0.212-1.366-0.635-1.701C93.093,144.785,92.701,144.683,92.129,144.683L92.129,144.683z M91.752,147.402v-0.955
					c0.078,0.001,0.103,0.014,0.103,0.014c0,0.005,0.042,0.078,0.042,0.412c0,0.421-0.052,0.499-0.063,0.51
					C91.833,147.383,91.816,147.396,91.752,147.402L91.752,147.402z"/>
			</g>
		</g>
		<g>
			<g>
				<path fill="#ADA9A2" d="M100.959,151.774h-0.211h-1.446h-0.154l-0.02-0.153l-0.149-1.046h-0.718l-0.157,1.049l-0.023,0.15h-0.15
					h-1.397h-0.211l0.038-0.209l1.211-6.564l0.028-0.146h0.145h1.771h0.145l0.029,0.146l1.232,6.564L100.959,151.774
					L100.959,151.774z M98.406,149.118h0.429l-0.22-1.641L98.406,149.118L98.406,149.118z"/>
			</g>
			<g>
				<path fill="#ADA9A2" d="M99.517,145.034l1.231,6.563h-1.446l-0.167-1.2h-1.025l-0.178,1.2h-1.397l1.21-6.563H99.517
					 M98.208,149.295h0.828l-0.423-3.169L98.208,149.295 M99.808,144.683h-0.291h-1.772h-0.292l-0.053,0.288l-1.211,6.563
					l-0.076,0.415h0.422h1.397h0.303l0.044-0.3l0.134-0.901h0.415l0.126,0.897l0.041,0.304h0.307h1.446h0.423l-0.078-0.417
					l-1.231-6.563L99.808,144.683L99.808,144.683z M98.607,148.943l0.013-0.104l0.013,0.104H98.607L98.607,148.943z"/>
			</g>
		</g>
		<g>
			<g>
				<polygon fill="#ADA9A2" points="107.839,151.774 107.662,151.774 106.078,151.774 105.941,151.774 105.907,151.64 
					105.31,149.384 105.31,151.598 105.31,151.774 105.134,151.774 103.755,151.774 103.578,151.774 103.578,151.598 
					103.578,145.032 103.578,144.854 103.755,144.854 105.31,144.854 105.443,144.854 105.48,144.985 106.078,147.204 
					106.078,145.032 106.078,144.854 106.254,144.854 107.662,144.854 107.839,144.854 107.839,145.032 107.839,151.598 
					107.839,151.774 				"/>
			</g>
			<g>
				<path fill="#ADA9A2" d="M107.661,145.034v6.563h-1.583l-0.945-3.572v3.572h-1.378v-6.563h1.555l0.943,3.513v-3.513H107.661
					 M108.013,144.683h-0.352h-1.408h-0.351v0.352v0.852l-0.253-0.942l-0.069-0.261h-0.27h-1.555h-0.352v0.352v6.563v0.352h0.352
					h1.378h0.351v-0.352v-0.873l0.255,0.962l0.069,0.263h0.27h1.583h0.352v-0.352v-6.563V144.683L108.013,144.683z"/>
			</g>
		</g>
		<g>
			<g>
				<path fill="#ADA9A2" d="M112.874,151.893c-0.904,0-1.555-0.394-1.834-1.107c-0.124-0.298-0.182-0.691-0.182-1.272v-2.799
					c0-0.575,0.196-1.104,0.527-1.424c0.359-0.348,0.892-0.55,1.46-0.55c1.205,0,2.048,0.732,2.048,1.777v0.829v0.178h-0.177h-1.407
					h-0.177v-0.178v-0.633c0-0.529-0.148-0.529-0.268-0.529c-0.113,0-0.197,0.079-0.22,0.209c-0.008,0.05-0.008,0.05-0.026,0.604
					v2.562c0,0.889,0.087,0.889,0.274,0.889c0.166,0,0.239,0,0.239-0.533v-0.954v-0.176h0.177h1.407h0.177v0.176v1.085
					c0,0.558-0.171,1.014-0.494,1.309C114.032,151.697,113.488,151.893,112.874,151.893L112.874,151.893z"/>
			</g>
			<g>
				<path fill="#ADA9A2" d="M112.845,144.915c1.102,0,1.871,0.659,1.871,1.603v0.829h-1.408v-0.631c0-0.502-0.128-0.707-0.442-0.707
					c-0.198,0-0.354,0.137-0.396,0.353c-0.008,0.059-0.008,0.059-0.028,0.63v2.567c0,0.876,0.078,1.063,0.453,1.063
					c0.325,0,0.414-0.146,0.414-0.708v-0.954h1.408v1.082c0,0.503-0.148,0.916-0.434,1.181c-0.335,0.315-0.837,0.493-1.408,0.493
					c-0.836,0-1.417-0.345-1.671-0.994c-0.118-0.287-0.168-0.669-0.168-1.212v-2.794c0-0.532,0.177-1.014,0.473-1.299
					C111.831,145.103,112.323,144.915,112.845,144.915 M112.845,144.564c-0.613,0-1.19,0.218-1.583,0.6
					c-0.367,0.354-0.579,0.92-0.579,1.552v2.794c0,0.606,0.06,1.02,0.194,1.346c0.306,0.778,1.016,1.212,1.996,1.212
					c0.661,0,1.247-0.209,1.649-0.589c0.356-0.329,0.544-0.826,0.544-1.437v-1.082v-0.352h-0.351h-1.408h-0.351v0.352v0.954
					c0,0.297-0.029,0.371-0.038,0.388c-0.078-0.029-0.096-0.035-0.096-0.035c0.004-0.021-0.03-0.185-0.03-0.708v-2.567
					c0.02-0.524,0.018-0.524,0.026-0.58c0.01-0.052,0.038-0.052,0.047-0.052c0.041,0,0.091,0.064,0.091,0.356v0.631v0.351h0.351
					h1.408h0.351v-0.351v-0.829C115.067,145.387,114.132,144.564,112.845,144.564L112.845,144.564z"/>
			</g>
		</g>
		<g>
			<g>
				<polygon fill="#ADA9A2" points="121.431,151.774 121.256,151.774 118.037,151.774 117.86,151.774 117.86,151.598 
					117.86,145.032 117.86,144.854 118.037,144.854 121.078,144.854 121.256,144.854 121.256,145.032 121.256,146.195 
					121.256,146.37 121.078,146.37 119.612,146.37 119.612,147.446 120.909,147.446 121.087,147.446 121.087,147.622 
					121.087,148.793 121.087,148.969 120.909,148.969 119.612,148.969 119.612,150.25 121.256,150.25 121.431,150.25 
					121.431,150.427 121.431,151.598 121.431,151.774 				"/>
			</g>
			<g>
				<path fill="#ADA9A2" d="M121.078,145.034v1.161h-1.643v1.427h1.476v1.171h-1.476v1.634h1.82v1.171h-3.219v-6.563H121.078
					 M121.43,144.683h-0.352h-3.041h-0.351v0.352v6.563v0.352h0.351h3.219h0.352v-0.352v-1.171v-0.352h-0.352h-1.468v-0.932h1.124
					h0.351v-0.351v-1.171v-0.352h-0.351h-1.124v-0.725h1.291h0.352v-0.351v-1.161V144.683L121.43,144.683z"/>
			</g>
		</g>
		<g>
			<g>
				<path fill="#ADA9A2" d="M130.942,151.774h-0.177h-1.416h-0.178v-0.177v-6.565v-0.178h0.178h2.008
					c0.547,0,1.04,0.138,1.285,0.353c0.365,0.307,0.546,0.88,0.546,1.755c0,1.576-0.438,2.135-1.672,2.135h-0.574v2.501V151.774
					L130.942,151.774z M130.942,147.669h0.053c0.319,0,0.402,0,0.402-0.728c0-0.66-0.112-0.66-0.385-0.66h-0.07V147.669
					L130.942,147.669z"/>
			</g>
			<g>
				<path fill="#ADA9A2" d="M131.357,145.034c0.502,0,0.956,0.118,1.171,0.305c0.325,0.273,0.483,0.807,0.483,1.623
					c0,1.477-0.375,1.959-1.496,1.959h-0.748v2.677h-1.418v-6.563H131.357 M130.768,147.847h0.227c0.48,0,0.58-0.156,0.58-0.905
					c0-0.668-0.118-0.836-0.562-0.836h-0.245V147.847 M131.357,144.683h-2.008h-0.352v0.352v6.563v0.352h0.352h1.418h0.351v-0.352
					v-2.326h0.397c1.533,0,1.846-0.923,1.846-2.31c0-0.928-0.197-1.547-0.607-1.892
					C132.476,144.828,131.951,144.683,131.357,144.683L131.357,144.683z M131.118,147.489v-1.026
					c0.044,0.005,0.056,0.013,0.058,0.013c0.002,0.006,0.047,0.086,0.047,0.466c0,0.413-0.037,0.518-0.053,0.544l-0.002-0.002
					C131.162,147.483,131.146,147.487,131.118,147.489L131.118,147.489z"/>
			</g>
		</g>
		<g>
			<g>
				<path fill="#ADA9A2" d="M140.022,151.774h-0.206h-1.437h-0.177v-0.177v-1.852c0-0.052-0.032-0.396-0.043-0.455
					c-0.025-0.167-0.078-0.306-0.45-0.313v2.62v0.177h-0.175h-1.389h-0.177v-0.177v-6.565v-0.178h0.177h2.119
					c0.516,0,0.885,0.097,1.122,0.288c0.377,0.302,0.567,0.825,0.567,1.562c0,0.586-0.09,1.017-0.268,1.28
					c-0.062,0.102-0.143,0.178-0.247,0.241c0.136,0.104,0.241,0.229,0.306,0.408c0.108,0.25,0.197,0.706,0.197,0.928v1.388
					c0,0.291,0.008,0.385,0.047,0.622L140.022,151.774L140.022,151.774z M137.71,147.582h0.062c0.306,0,0.431,0,0.431-0.709
					c0-0.6-0.109-0.6-0.334-0.6h-0.159V147.582L137.71,147.582z"/>
			</g>
			<g>
				<path fill="#ADA9A2" d="M138.264,145.034c0.473,0,0.807,0.076,1.014,0.243c0.334,0.268,0.502,0.739,0.502,1.428
					c0,0.542-0.079,0.946-0.236,1.182c-0.089,0.139-0.217,0.217-0.473,0.325c0.285,0.137,0.432,0.266,0.512,0.483
					c0.1,0.226,0.187,0.658,0.187,0.863v1.391c0,0.304,0.011,0.402,0.05,0.648h-1.438v-1.852c0-0.049-0.039-0.442-0.049-0.49
					c-0.049-0.316-0.246-0.454-0.648-0.454c-0.041,0-0.08,0-0.148,0.02v2.776h-1.389v-6.563H138.264 M137.535,147.76h0.235
					c0.482,0,0.61-0.178,0.61-0.887c0-0.6-0.117-0.777-0.512-0.777h-0.334V147.76 M138.264,144.683h-2.117h-0.351v0.352v6.563v0.352
					h0.351h1.389h0.35v-0.352v-2.419c0.083,0.024,0.09,0.07,0.1,0.128c0.012,0.071,0.043,0.384,0.045,0.446v1.845v0.352h0.352h1.438
					h0.409l-0.062-0.405c-0.036-0.234-0.046-0.318-0.046-0.595v-1.391c0-0.268-0.104-0.747-0.216-1.005
					c-0.048-0.128-0.112-0.231-0.191-0.319c0.047-0.047,0.089-0.098,0.127-0.156c0.193-0.291,0.292-0.755,0.292-1.373
					c0-0.795-0.215-1.366-0.635-1.701C139.227,144.785,138.834,144.683,138.264,144.683L138.264,144.683z M137.885,147.402v-0.955
					c0.08,0.001,0.104,0.014,0.104,0.014c-0.001,0.003,0.041,0.077,0.041,0.412c0,0.421-0.052,0.499-0.062,0.51
					C137.967,147.383,137.949,147.396,137.885,147.402L137.885,147.402z"/>
			</g>
		</g>
		<g>
			<g>
				<path fill="#ADA9A2" d="M144.884,151.893c-0.905,0-1.599-0.375-1.857-0.997c-0.091-0.246-0.159-0.897-0.159-1.492v-2.372
					c0-0.903,0.133-1.414,0.461-1.762c0.312-0.333,0.897-0.529,1.563-0.529c1.231,0,1.996,0.752,1.996,1.967v0.312v2.384
					c0,0.91-0.046,1.301-0.304,1.682C146.236,151.596,145.615,151.893,144.884,151.893L144.884,151.893z M144.884,146.174
					c-0.103,0-0.195,0.053-0.218,0.124c-0.041,0.137-0.041,0.14-0.049,0.725v2.381c0.008,0.771,0.008,0.773,0.055,0.887
					c0.039,0.102,0.104,0.147,0.203,0.147c0.078,0,0.211-0.02,0.24-0.165c0.034-0.147,0.037-0.197,0.054-0.796v-2.445
					C145.169,146.174,145.068,146.174,144.884,146.174L144.884,146.174z"/>
			</g>
			<g>
				<path fill="#ADA9A2" d="M144.892,144.915c1.132,0,1.821,0.679,1.821,1.79v0.315v2.383c0,0.934-0.059,1.26-0.275,1.584
					c-0.314,0.463-0.886,0.729-1.556,0.729c-0.825,0-1.466-0.335-1.692-0.886c-0.078-0.217-0.146-0.846-0.146-1.427v-2.372
					c0-0.856,0.118-1.329,0.412-1.645C143.74,145.091,144.282,144.915,144.892,144.915 M144.874,150.613
					c0.217,0,0.372-0.118,0.411-0.305c0.041-0.167,0.041-0.217,0.061-0.905v-2.372c0-0.836-0.09-1.034-0.464-1.034
					c-0.176,0-0.334,0.099-0.383,0.247c-0.05,0.167-0.05,0.187-0.06,0.787v2.372c0.01,0.796,0.01,0.808,0.068,0.955
					C144.576,150.526,144.706,150.613,144.874,150.613 M144.892,144.564c-0.71,0-1.341,0.217-1.69,0.58
					c-0.363,0.388-0.51,0.932-0.51,1.887v2.372c0,0.524,0.06,1.245,0.168,1.547c0.289,0.705,1.044,1.117,2.022,1.117
					c0.792,0,1.465-0.321,1.847-0.883c0.288-0.431,0.334-0.879,0.334-1.781v-2.383v-0.315
					C147.062,145.404,146.211,144.564,144.892,144.564L144.892,144.564z M144.874,150.263c-0.015,0-0.021-0.003-0.021-0.003
					c-0.053-0.115-0.053-0.118-0.062-0.855v-2.373c0.01-0.567,0.01-0.567,0.045-0.688c0.1,0.005,0.119,0.012,0.119,0.012
					c-0.002,0.017,0.039,0.154,0.039,0.676v2.372l-0.002,0.062c-0.018,0.616-0.018,0.638-0.048,0.76
					C144.938,150.255,144.914,150.263,144.874,150.263L144.874,150.263z"/>
			</g>
		</g>
		<g>
			<g>
				<path fill="#ADA9A2" d="M151.426,151.893c-0.531,0-1.021-0.245-1.281-0.644c-0.192-0.3-0.305-0.805-0.305-1.344v-3.031
					c0-0.707,0.141-1.229,0.416-1.544c0.36-0.388,0.93-0.591,1.65-0.591c1.275,0,1.98,0.74,1.98,2.082v0.418v0.177h-0.178h-1.408
					h-0.177v-0.177v-0.673c0-0.383-0.186-0.383-0.268-0.383c-0.179,0-0.274,0-0.274,0.826v2.599
					c0.039,0.618,0.039,0.618,0.072,0.696c0.057,0.104,0.17,0.122,0.232,0.122s0.257,0,0.257-0.521v-0.571h-0.345h-0.176v-0.177
					v-1.133v-0.178h0.176h1.91h0.178v0.178v3.573v0.177h-0.178h-1.289h-0.18v-0.119
					C151.999,151.814,151.735,151.893,151.426,151.893L151.426,151.893z"/>
			</g>
			<g>
				<path fill="#ADA9A2" d="M151.906,144.915c1.171,0,1.803,0.668,1.803,1.908v0.414h-1.408v-0.669c0-0.364-0.158-0.56-0.444-0.56
					c-0.362,0-0.451,0.195-0.451,1.003v2.597c0.038,0.661,0.038,0.661,0.089,0.77c0.078,0.148,0.227,0.225,0.393,0.225
					c0.285,0,0.434-0.236,0.434-0.697v-0.749h-0.521v-1.131h1.91v3.572h-1.289v-0.325c-0.287,0.305-0.592,0.443-0.994,0.443
					c-0.473,0-0.906-0.216-1.133-0.562c-0.168-0.267-0.276-0.738-0.276-1.249v-3.032c0-0.678,0.129-1.151,0.374-1.428
					C150.705,145.103,151.227,144.915,151.906,144.915 M151.906,144.564c-0.773,0-1.387,0.222-1.774,0.644
					c-0.315,0.357-0.466,0.9-0.466,1.665v3.032c0,0.571,0.123,1.108,0.329,1.436c0.296,0.45,0.841,0.727,1.431,0.727
					c0.234,0,0.445-0.039,0.641-0.119v0.001h0.354h1.289h0.351v-0.352v-3.572v-0.352h-0.351h-1.91h-0.041v-0.662
					c0-0.499,0.039-0.633,0.062-0.668c0.078,0.016,0.129,0.016,0.129,0.225v0.669v0.352h0.352h1.408h0.351v-0.352v-0.414
					C154.06,145.387,153.274,144.564,151.906,144.564L151.906,144.564z M151.758,149.507h0.041h0.17v0.398
					c0,0.236-0.048,0.331-0.064,0.347c-0.08,0-0.095-0.028-0.101-0.038c-0.014-0.05-0.026-0.266-0.046-0.625V149.507
					L151.758,149.507z"/>
			</g>
		</g>
		<g>
			<g>
				<path fill="#ADA9A2" d="M160.977,151.774h-0.206h-1.438h-0.178v-0.177v-1.851c0-0.052-0.03-0.395-0.043-0.454
					c-0.029-0.172-0.078-0.308-0.445-0.313v2.618v0.177h-0.178H157.1h-0.177v-0.177v-6.565v-0.178h0.177h2.113
					c0.523,0,0.892,0.097,1.125,0.289c0.381,0.297,0.568,0.809,0.568,1.562c0,0.586-0.09,1.016-0.266,1.279
					c-0.064,0.102-0.146,0.174-0.25,0.24c0.137,0.102,0.242,0.229,0.31,0.409c0.108,0.25,0.198,0.705,0.198,0.925v1.388
					c0,0.291,0.006,0.387,0.047,0.622L160.977,151.774L160.977,151.774z M158.666,147.58h0.057c0.308,0,0.432,0,0.432-0.706
					c0-0.6-0.118-0.6-0.332-0.6h-0.156V147.58L158.666,147.58z"/>
			</g>
			<g>
				<path fill="#ADA9A2" d="M159.215,145.034c0.473,0,0.807,0.076,1.014,0.243c0.334,0.268,0.502,0.739,0.502,1.428
					c0,0.542-0.078,0.946-0.235,1.182c-0.089,0.139-0.218,0.217-0.474,0.325c0.285,0.137,0.434,0.266,0.514,0.483
					c0.098,0.226,0.186,0.658,0.186,0.863v1.391c0,0.304,0.01,0.402,0.05,0.648h-1.438v-1.852c0-0.049-0.039-0.442-0.049-0.49
					c-0.048-0.316-0.245-0.454-0.648-0.454c-0.041,0-0.08,0-0.148,0.02v2.776h-1.389v-6.563H159.215 M158.486,147.76h0.236
					c0.484,0,0.609-0.178,0.609-0.887c0-0.6-0.117-0.777-0.51-0.777h-0.336V147.76 M159.215,144.683h-2.117h-0.35v0.352v6.563v0.352
					h0.35h1.389h0.353v-0.352v-2.419c0.08,0.025,0.087,0.07,0.097,0.129c0.014,0.08,0.043,0.384,0.045,0.445v1.845v0.352h0.352
					h1.438h0.413l-0.066-0.408c-0.037-0.225-0.045-0.307-0.045-0.592v-1.391c0-0.268-0.103-0.747-0.217-1.005
					c-0.047-0.128-0.111-0.231-0.191-0.319c0.046-0.047,0.088-0.098,0.126-0.156c0.195-0.292,0.292-0.743,0.292-1.373
					c0-0.795-0.215-1.366-0.636-1.701C160.178,144.785,159.785,144.683,159.215,144.683L159.215,144.683z M158.839,147.402v-0.955
					c0.076,0.001,0.101,0.013,0.103,0.014c-0.004,0.003,0.039,0.077,0.039,0.412c0,0.421-0.052,0.499-0.062,0.511
					C158.918,147.384,158.901,147.396,158.839,147.402L158.839,147.402z"/>
			</g>
		</g>
		<g>
			<g>
				<path fill="#ADA9A2" d="M168.043,151.774h-0.212h-1.444h-0.154l-0.021-0.155l-0.147-1.044h-0.72l-0.153,1.047l-0.023,0.152
					h-0.151h-1.398h-0.212l0.039-0.21l1.209-6.562l0.029-0.146h0.145h1.775h0.145l0.031,0.146l1.227,6.562L168.043,151.774
					L168.043,151.774z M165.493,149.119h0.427l-0.222-1.634L165.493,149.119L165.493,149.119z"/>
			</g>
			<g>
				<path fill="#ADA9A2" d="M166.604,145.034l1.228,6.563h-1.444l-0.168-1.2h-1.023l-0.178,1.2h-1.398l1.21-6.563H166.604
					 M165.294,149.295h0.827l-0.424-3.169L165.294,149.295 M166.896,144.683h-0.292h-1.774h-0.292l-0.053,0.288l-1.211,6.563
					l-0.076,0.415h0.422h1.398h0.305l0.042-0.301l0.134-0.9h0.414l0.125,0.897l0.043,0.304h0.307h1.444h0.425l-0.076-0.417
					l-1.23-6.563L166.896,144.683L166.896,144.683z M165.693,148.943l0.012-0.1l0.014,0.1H165.693L165.693,148.943z"/>
			</g>
		</g>
		<g>
			<g>
				<polygon fill="#ADA9A2" points="176.126,151.774 175.949,151.774 174.582,151.774 174.404,151.774 174.404,151.596 
					174.404,149.267 173.987,151.629 173.961,151.774 173.812,151.774 172.947,151.774 172.799,151.774 172.771,151.626 
					172.375,149.318 172.375,151.596 172.375,151.774 172.197,151.774 170.84,151.774 170.662,151.774 170.662,151.596 
					170.662,145.032 170.662,144.854 170.84,144.854 172.908,144.854 173.056,144.854 173.081,145.004 173.409,146.889 
					173.745,145.001 173.771,144.854 173.92,144.854 175.949,144.854 176.126,144.854 176.126,145.032 176.126,151.596 
					176.126,151.774 				"/>
			</g>
			<g>
				<path fill="#ADA9A2" d="M175.949,145.034v6.563h-1.367v-4.351l-0.77,4.351h-0.865l-0.747-4.351v4.351h-1.358v-6.563h2.066
					l0.501,2.873l0.513-2.873H175.949 M176.301,144.683h-0.352h-2.027h-0.293l-0.055,0.289l-0.162,0.914l-0.158-0.912l-0.051-0.291
					h-0.295h-2.066h-0.353v0.352v6.563v0.352h0.353h1.358h0.35v-0.352v-0.233l0.052,0.293l0.049,0.292h0.297h0.865h0.295
					l0.051-0.289l0.072-0.404v0.342v0.352h0.352h1.367h0.352v-0.352v-6.563V144.683L176.301,144.683z"/>
			</g>
		</g>
	</g>
	<g>
		<rect x="107.241" y="122.682" fill="#ADA9A2" width="0.937" height="1.229"/>
	</g>
	<g>
		<rect x="171.646" y="122.684" fill="#ADA9A2" width="1.23" height="1.229"/>
	</g>
</g>
</svg>
