<?xml version="1.0" encoding="utf-8"?>
<!-- Generator: Adobe Illustrator 16.0.0, SVG Export Plug-In . SVG Version: 6.00 Build 0)  -->
<!DOCTYPE svg PUBLIC "-//W3C//DTD SVG 1.1//EN" "http://www.w3.org/Graphics/SVG/1.1/DTD/svg11.dtd">
<svg version="1.1" id="Layer_1" xmlns="http://www.w3.org/2000/svg" xmlns:xlink="http://www.w3.org/1999/xlink" x="0px" y="0px"
	 width="240px" height="239px" viewBox="0 0 240 239" enable-background="new 0 0 240 239" xml:space="preserve">
<g>
	<g>
		<path fill="#ADA9A2" d="M76.337,127.944c0-7.665-4.964-11.037-11.45-14.012c-2.051-0.924-8.473-3.437-9.665-5.418
			c-0.395-0.596-0.462-1.322-0.462-2.049c0-2.315,2.117-3.834,4.302-3.834c3.179,0,4.105,2.048,4.502,4.758h12.375
			c-0.132-3.833-0.727-6.542-3.242-9.649c-3.112-3.767-8.473-5.552-13.239-5.552c-8.339,0-17.142,5.287-17.142,14.408
			c0,7.667,5.626,11.37,11.98,14.013c1.455,0.595,2.912,1.189,4.367,1.851c2.583,1.123,5.229,2.182,5.229,5.354
			c0,2.645-2.185,4.692-4.764,4.692c-3.641,0-5.097-3.502-5.097-6.675H41.589v1.585c0,10.442,7.809,15.532,17.673,15.532
			C68.926,142.949,76.337,138.19,76.337,127.944z"/>
		<path fill="#ADA9A2" d="M92.158,142.024V93.114h-12.51v48.911H92.158z"/>
		<path fill="#ADA9A2" d="M133.461,142.024l-13.304-16.656c7.744-1.255,12.179-7.865,12.179-15.399
			c0-5.09-1.984-10.114-6.021-13.353c-4.237-3.369-9.929-3.502-15.094-3.502H95.732v48.911h11.979v-15.797h0.133l11.318,15.797
			H133.461z M120.354,110.695c0,5.022-3.507,7.006-8.206,7.006h-4.437v-13.615h4.568
			C116.583,104.086,120.354,105.87,120.354,110.695z"/>
	</g>
	<g>
		<polyline fill="#ADA9A2" points="175.817,117.562 193.382,93.112 177.701,93.112 167.979,106.647 		"/>
		<polygon fill="#ADA9A2" points="168.068,128.483 168.068,128.484 168.069,128.483 177.791,142.018 193.47,142.018 
			175.906,117.568 		"/>
		<g>
			<polyline fill="#ADA9A2" points="142.662,142.012 148.817,133.443 148.817,101.683 142.662,93.114 136.308,93.114 
				136.308,142.024 			"/>
			<polygon fill="#ADA9A2" points="158.253,93.107 142.57,93.107 142.575,93.114 148.729,101.683 160.137,117.562 175.816,117.562 
				175.817,117.562 			"/>
			<polygon fill="#ADA9A2" points="160.137,117.562 160.135,117.563 148.729,133.443 142.575,142.012 148.729,142.012 
				158.253,142.012 167.975,128.48 175.816,117.562 175.816,117.562 			"/>
		</g>
	</g>
</g>
</svg>
