<?xml version="1.0" encoding="utf-8"?>
<!-- Generator: Adobe Illustrator 16.0.0, SVG Export Plug-In . SVG Version: 6.00 Build 0)  -->
<!DOCTYPE svg PUBLIC "-//W3C//DTD SVG 1.1//EN" "http://www.w3.org/Graphics/SVG/1.1/DTD/svg11.dtd">
<svg version="1.1" id="Layer_1" xmlns="http://www.w3.org/2000/svg" xmlns:xlink="http://www.w3.org/1999/xlink" x="0px" y="0px"
	 width="240px" height="239px" viewBox="0 0 240 239" enable-background="new 0 0 240 239" xml:space="preserve">
<g>
	<path fill="#AFABA4" d="M20.098,117.59l3.41-15.853l5.773-4.437l-4.952,0.132l1.053-4.403h6.546c2.179,0,4.028,0.148,5.556,0.446
		c1.525,0.298,2.782,0.943,3.767,1.937c0.985,0.993,1.479,2.447,1.479,4.369c0,1.971-0.489,3.65-1.458,5.039
		c-0.969,1.388-2.289,2.435-3.953,3.136c-1.663,0.699-3.496,1.053-5.502,1.053h-3.341l-1.832,8.581H20.098z M30.874,97.678
		l-1.411,6.682h1.763c1.46,0,2.651-0.299,3.573-0.898c0.923-0.598,1.383-1.577,1.383-2.94c0-1.897-1.125-2.843-3.376-2.843H30.874z"
		/>
	<path fill="#AFABA4" d="M66.942,102.633c0,2.343-0.305,4.456-0.911,6.334c-0.607,1.877-1.516,3.493-2.728,4.848
		c-1.209,1.356-2.714,2.394-4.514,3.115c-1.794,0.723-3.862,1.083-6.2,1.083c-2.52,0-4.597-0.466-6.235-1.393
		c-1.637-0.928-2.827-2.144-3.563-3.651c-0.74-1.506-1.11-3.155-1.11-4.947c0-3.118,0.543-5.838,1.63-8.158
		c1.083-2.323,2.705-4.113,4.861-5.37c2.155-1.256,4.775-1.886,7.862-1.886c1.92,0,3.578,0.272,4.986,0.816
		c1.405,0.543,2.543,1.288,3.414,2.229c0.868,0.94,1.506,2.009,1.907,3.196C66.741,100.038,66.942,101.298,66.942,102.633
		 M60.19,103.165c0-1.09-0.151-2.059-0.453-2.916c-0.3-0.856-0.792-1.533-1.474-2.036c-0.681-0.501-1.564-0.75-2.653-0.75
		c-1.197,0-2.256,0.309-3.175,0.934c-0.919,0.621-1.672,1.433-2.26,2.437c-0.587,1.005-1.024,2.091-1.312,3.258
		c-0.284,1.163-0.426,2.298-0.426,3.395c0,1.698,0.362,3.065,1.085,4.108c0.724,1.044,1.886,1.563,3.483,1.563
		c1.581,0,2.913-0.516,4-1.559c1.086-1.039,1.888-2.329,2.406-3.875C59.929,106.183,60.19,104.663,60.19,103.165"/>
	<path fill="#AFABA4" d="M92.564,102.633c0,2.343-0.303,4.456-0.911,6.334c-0.606,1.877-1.516,3.493-2.726,4.848
		c-1.212,1.356-2.717,2.394-4.515,3.115c-1.798,0.723-3.865,1.083-6.201,1.083c-2.519,0-4.597-0.466-6.234-1.393
		c-1.637-0.928-2.827-2.144-3.566-3.651c-0.737-1.506-1.106-3.155-1.106-4.947c0-3.118,0.542-5.838,1.629-8.158
		c1.083-2.323,2.705-4.113,4.859-5.37c2.157-1.256,4.775-1.886,7.864-1.886c1.917,0,3.58,0.272,4.984,0.816
		c1.407,0.543,2.544,1.288,3.416,2.229c0.87,0.94,1.506,2.009,1.907,3.196C92.365,100.038,92.564,101.298,92.564,102.633
		 M85.81,103.165c0-1.09-0.15-2.059-0.451-2.916c-0.301-0.856-0.792-1.533-1.473-2.036c-0.682-0.501-1.567-0.75-2.656-0.75
		c-1.197,0-2.254,0.309-3.172,0.934c-0.919,0.621-1.674,1.433-2.261,2.437c-0.588,1.005-1.023,2.091-1.31,3.258
		c-0.289,1.163-0.43,2.298-0.43,3.395c0,1.698,0.362,3.065,1.085,4.108c0.725,1.044,1.887,1.563,3.485,1.563
		c1.582,0,2.916-0.516,3.999-1.559c1.086-1.039,1.888-2.329,2.407-3.875C85.551,106.183,85.81,104.663,85.81,103.165"/>
	<polygon fill="#AFABA4" points="91.507,117.59 96.61,93.029 103.27,93.029 99.181,112.739 109.456,112.739 108.442,117.59 	"/>
	<path fill="#AFABA4" d="M130.887,93.698l-1.584,4.89c-1.597-0.752-3.403-1.125-5.42-1.125c-1.501,0-2.662,0.167-3.482,0.497
		c-0.822,0.331-1.232,0.951-1.232,1.863c0,0.739,0.566,1.38,1.704,1.929c1.136,0.54,2.298,1.067,3.483,1.576
		c1.188,0.512,2.207,1.24,3.062,2.185c0.857,0.945,1.287,2.261,1.287,3.953c0,2.119-0.572,3.813-1.716,5.09
		c-1.142,1.274-2.614,2.169-4.418,2.686c-1.8,0.516-11.798,0.26-13.116,0.349l0.942-4.937c0.783-0.044,8.926,0.296,9.977-0.118
		c1.051-0.416,1.576-1.181,1.576-2.299c0-0.857-0.315-1.473-0.945-1.843c-0.628-0.37-1.794-0.908-3.495-1.611
		c-1.703-0.705-2.977-1.483-3.825-2.334c-0.847-0.857-1.271-2.06-1.271-3.61c0-2.915,1.046-5.015,3.141-6.301
		c2.091-1.286,4.694-1.932,7.804-1.932C126.826,92.605,129.333,92.972,130.887,93.698"/>
	<path fill="#AFABA4" d="M213.902,93.698l-1.581,4.89c-1.597-0.752-3.404-1.125-5.423-1.125c-1.499,0-2.661,0.167-3.482,0.497
		c-0.82,0.331-1.232,0.951-1.232,1.863c0,0.739,0.566,1.38,1.705,1.929c1.137,0.54,2.297,1.067,3.483,1.576
		c1.187,0.512,2.206,1.24,3.062,2.185c0.858,0.945,1.286,2.261,1.286,3.953c0,2.119-0.572,3.813-1.716,5.09
		c-1.14,1.274-2.612,2.169-4.418,2.686c-1.798,0.516-11.797,0.26-13.113,0.349l0.938-4.937c0.785-0.044,8.928,0.296,9.979-0.118
		c1.05-0.416,1.576-1.181,1.576-2.299c0-0.857-0.314-1.473-0.944-1.843c-0.631-0.37-1.796-0.908-3.497-1.611
		c-1.701-0.705-2.977-1.483-3.824-2.334c-0.847-0.857-1.271-2.06-1.271-3.61c0-2.915,1.047-5.015,3.141-6.301
		c2.093-1.286,4.697-1.932,7.805-1.932C209.842,92.605,212.351,92.972,213.902,93.698"/>
	<path fill="#AFABA4" d="M138.062,117.59l3.452-15.622l5.562-4.402l-4.785-0.02l0.951-4.517h7.844
		c1.543,0.011,2.861,0.066,3.965,0.171c1.099,0.103,2.129,0.349,3.099,0.74c0.968,0.386,1.752,1.015,2.349,1.879
		c0.601,0.865,0.9,2.021,0.9,3.473c0,2-0.654,3.48-1.957,4.451c-1.303,0.965-3.031,1.582-5.186,1.845v0.071
		c0.844,0.073,1.477,0.524,1.9,1.352c0.425,0.828,0.766,1.833,1.023,3.01l1.752,7.569h-6.537l-1.271-6.262
		c-0.234-1.169-0.449-1.967-0.646-2.397c-0.194-0.428-0.507-0.71-0.932-0.848c-0.428-0.133-1.167-0.199-2.221-0.199h-0.705
		l-1.977,9.706H138.062z M148.689,97.678l-1.123,5.557h2.215c3.38,0,5.07-1.008,5.07-3.022c0-1.658-1.01-2.501-3.025-2.534H148.689z
		"/>
	<path fill="#AFABA4" d="M195.174,93.029l-2.387,11.433c-0.476,2.306-0.967,4.218-1.473,5.747c-0.509,1.525-1.203,2.88-2.09,4.065
		c-0.885,1.188-2.051,2.107-3.501,2.757c-1.448,0.653-3.245,0.981-5.396,0.981c-1.947,0-3.656-0.255-5.119-0.759
		c-1.467-0.511-2.623-1.339-3.467-2.497c-0.846-1.157-1.268-2.651-1.268-4.486c0-1.464,0.174-3.016,0.523-4.647l1.145-4.51
		l6.162-4.274l-5.379,0.059l0.855-3.868h6.65l-2.956,13.9c-0.304,1.416-0.456,2.304-0.456,2.67c0,1.045,0.303,1.896,0.904,2.562
		c0.602,0.664,1.459,0.996,2.578,0.996c0.996,0,1.826-0.264,2.494-0.795c0.668-0.529,1.195-1.226,1.585-2.082
		c0.388-0.859,0.674-1.672,0.85-2.435c0.178-0.759,0.447-1.993,0.81-3.7l2.43-11.117H195.174z"/>
	<path fill="#AFABA4" d="M202.156,123.568c-5.047,1.395-10.262,3.551-15.581,6.402c-5.34,2.834-10.702,6.358-16.05,10.116
		c-5.31,3.772-10.586,7.739-15.617,11.433c-2.519,1.85-5,3.594-7.387,5.263c-2.405,1.64-4.742,3.142-6.98,4.522
		c-4.498,2.701-8.633,4.796-12.328,6.163c-0.919,0.35-1.812,0.663-2.67,0.945c-0.869,0.264-1.702,0.49-2.498,0.685
		c-1.604,0.393-3.076,0.66-4.402,0.84c-2.66,0.329-4.76,0.248-6.185,0.162c-1.425-0.101-2.19-0.229-2.19-0.222
		c0.005-0.007,0.765,0.171,2.203,0.368c1.43,0.18,3.544,0.403,6.232,0.244c1.341-0.096,2.831-0.273,4.453-0.572
		c0.812-0.148,1.657-0.327,2.532-0.543c0.875-0.233,1.777-0.504,2.717-0.805c3.756-1.188,7.98-3.125,12.602-5.748
		c2.298-1.34,4.707-2.825,7.189-4.471c2.473-1.677,5.043-3.453,7.661-5.36c5.237-3.819,10.769-8.025,16.384-12.104
		c5.645-4.066,11.371-7.954,17.127-11.116c5.74-3.17,11.438-5.587,17.019-7.087C211.919,121.172,207.144,122.164,202.156,123.568"/>
	<path fill="#AFABA4" d="M213.902,120.668c-2.932,0.036-6.357,0.265-10.322,0.962c-4.002,0.69-8.472,1.862-13.287,3.693
		c-4.869,1.817-10.082,4.296-15.484,7.312c-5.455,2.996-11.068,6.52-16.772,10.103c-5.713,3.554-11.442,7.192-17.126,10.228
		c-5.651,3.09-11.248,5.542-16.574,7.091c-2.67,0.77-5.289,1.258-7.822,1.569c-2.542,0.267-5.016,0.272-7.381,0.084
		c-4.754-0.454-9.13-1.822-13.038-3.85c-0.972-0.496-1.923-1.021-2.829-1.576c-0.915-0.567-1.797-1.159-2.647-1.764
		c-1.692-1.212-3.253-2.478-4.662-3.721c-2.813-2.515-5.04-4.967-6.555-6.7c-1.512-1.751-2.321-2.793-2.321-2.787
		c0-0.006,0.808,1.055,2.326,2.858c1.517,1.788,3.752,4.33,6.588,6.989c1.422,1.325,2.995,2.681,4.704,3.994
		c0.854,0.656,1.749,1.302,2.672,1.928c0.922,0.61,1.884,1.202,2.871,1.762c3.957,2.282,8.417,3.952,13.285,4.687
		c2.425,0.321,4.961,0.446,7.578,0.299c2.606-0.201,5.312-0.595,8.08-1.296c5.522-1.411,11.361-3.843,17.309-7.061
		c5.983-3.161,12.067-7.074,18.198-10.995c6.125-3.945,12.226-7.912,18.231-11.322c5.961-3.426,11.8-6.267,17.355-8.313
		c5.516-2.051,10.74-3.311,15.541-3.969C209.199,120.895,211.229,120.957,213.902,120.668"/>
</g>
<polygon fill="#AFABA4" points="327.635,110.26 327.715,110.405 330.693,110.405 330.612,110.26 "/>
</svg>
