<?xml version="1.0" encoding="utf-8"?>
<!-- Generator: Adobe Illustrator 16.0.0, SVG Export Plug-In . SVG Version: 6.00 Build 0)  -->
<!DOCTYPE svg PUBLIC "-//W3C//DTD SVG 1.1//EN" "http://www.w3.org/Graphics/SVG/1.1/DTD/svg11.dtd">
<svg version="1.1" id="Layer_1" xmlns="http://www.w3.org/2000/svg" xmlns:xlink="http://www.w3.org/1999/xlink" x="0px" y="0px"
	 width="240px" height="239px" viewBox="0 0 240 239" enable-background="new 0 0 240 239" xml:space="preserve">
<g>
	<path fill="#ACA8A1" d="M64.292,132.195c-1.466-0.322-2.954-0.57-4.391-0.993c-0.782-0.229-1.551-0.66-2.195-1.168
		c-1.883-1.482-2.087-3.924-0.487-5.706c0.569-0.635,1.294-1.137,1.97-1.667c0.397-0.312,0.843-0.563,1.338-0.886
		c-0.226-0.125-0.358-0.206-0.496-0.274c-1.805-0.906-2.375-2.569-1.337-4.31c0.516-0.868,1.278-1.59,1.951-2.358
		c0.276-0.316,0.606-0.584,0.855-0.818c-0.83-0.767-1.704-1.388-2.336-2.196c-2.438-3.108-1.485-7.542,1.957-9.471
		c3.264-1.828,6.68-1.868,10.197-0.927c0.642,0.171,1.314,0.285,1.976,0.303c1.619,0.042,3.24,0.033,4.859,0.005
		c0.594-0.013,0.866,0.109,0.853,0.794c-0.03,1.581,0.007,1.581-1.589,1.583c-0.81,0.001-1.619,0.007-2.429,0.016
		c-0.049,0-0.098,0.035-0.02,0.006c0.349,0.971,0.856,1.906,1.009,2.898c0.479,3.077-1.082,5.766-3.934,6.983
		c-2.534,1.084-5.162,1.288-7.854,0.761c-0.769-0.151-1.693,0.56-1.999,1.557c-0.24,0.783,0.029,1.438,0.943,1.675
		c1.536,0.392,3.11,0.643,4.674,0.916c2.256,0.396,4.542,0.662,6.773,1.165c1.957,0.443,3.589,1.456,3.939,3.676
		c0.384,2.438-0.501,4.406-2.442,5.885c-2.068,1.576-4.498,2.145-7.025,2.401c-0.398,0.041-0.795,0.101-1.194,0.151
		C66.669,132.195,65.479,132.195,64.292,132.195z M67.572,129.952c0.572-0.07,1.677-0.147,2.756-0.357
		c1.334-0.263,2.597-0.741,3.52-1.824c1.308-1.534,0.765-3.324-1.164-3.854c-0.208-0.055-0.417-0.108-0.63-0.144
		c-2.766-0.438-5.542-0.825-8.294-1.336c-0.858-0.157-1.463,0.076-2.049,0.587c-0.344,0.299-0.684,0.615-0.978,0.965
		c-1.563,1.835-1.138,3.942,1.025,5.001C63.421,129.806,65.225,129.914,67.572,129.952z M71.629,108.183
		c-0.012-1.765-0.409-3.115-1.552-4.131c-1.475-1.312-3.203-1.559-4.983-0.82c-1.895,0.786-2.704,2.396-2.798,4.372
		c-0.091,1.949,0.436,3.667,2.227,4.705c1.592,0.919,3.27,0.905,4.858-0.015C71.047,111.334,71.596,109.735,71.629,108.183z"/>
	<path fill="#ACA8A1" d="M16,110.642c0.188-0.779,0.333-1.569,0.57-2.33c1.547-4.989,5.958-7.919,11.224-7.486
		c5.205,0.432,8.941,3.946,9.666,9.182c0.495,3.57-0.005,6.967-2.231,9.919c-2.172,2.882-5.205,4.048-8.719,3.908
		c-5.856-0.235-9.633-3.811-10.368-9.665c-0.021-0.154-0.094-0.301-0.143-0.449C16,112.694,16,111.668,16,110.642z M32.636,112.341
		c-0.033-2.042-0.309-4.039-1.238-5.89c-0.944-1.881-2.315-3.19-4.565-3.205c-2.238-0.013-3.761,1.179-4.603,3.124
		c-1.738,4.018-1.694,8.093,0.102,12.082c0.864,1.912,2.424,2.994,4.624,2.942c2.204-0.051,3.695-1.137,4.593-3.126
		C32.404,116.38,32.556,114.367,32.636,112.341z"/>
	<path fill="#ACA8A1" d="M149.045,83.58c0.006,1.538,0.036,3.079-0.002,4.616c-0.008,0.28-0.226,0.673-0.464,0.812
		c-4.169,2.442-8.353,4.863-12.554,7.254c-0.235,0.136-0.688,0.116-0.931-0.023c-4.853-2.771-9.682-5.584-14.538-8.349
		c-0.735-0.419-0.439-0.987-0.51-1.674c0.348,0.181,0.604,0.3,0.848,0.442c2.549,1.472,5.135,2.881,7.632,4.436
		c2.486,1.546,4.874,1.565,7.387,0.083c4.21-2.48,8.463-4.89,12.693-7.334c0.107-0.062,0.185-0.174,0.276-0.264
		C148.937,83.58,148.991,83.58,149.045,83.58z"/>
	<path fill="#ACA8A1" d="M105.061,138.538c1.345-1.615,2.798-2.87,4.637-3.539c2.571-0.933,5.103-0.997,7.308,0.928
		c1.325,1.157,1.747,2.781,1.772,4.464c0.06,3.914,0.033,7.829,0.041,11.745c0.005,2.049,0.038,2.086,2.083,2.086
		c1.538,0,1.538,0,1.536,1.541c-0.001,0.32-0.001,0.641-0.001,1.03c-3.751,0-7.433,0-11.241,0c0-0.741-0.024-1.484,0.027-2.226
		c0.008-0.124,0.324-0.311,0.512-0.33c0.509-0.048,1.024-0.015,1.536-0.025c0.639-0.012,1.027-0.308,1.024-0.982
		c-0.019-4.022,0.068-8.05-0.099-12.065c-0.114-2.8-2.03-3.926-4.692-3.028c-1.708,0.574-2.954,1.755-3.984,3.179
		c-0.14,0.195-0.16,0.51-0.16,0.768c-0.01,3.565-0.01,7.128,0,10.692c0.006,1.242,0.216,1.432,1.487,1.442
		c0.539,0.005,1.076,0.002,1.691,0.002c0,0.867,0,1.687,0,2.582c-0.208,0.019-0.44,0.051-0.671,0.051
		c-3.161,0.006-6.32-0.014-9.477,0.019c-0.638,0.006-0.835-0.171-0.829-0.816c0.02-1.813-0.009-1.813,1.833-1.835
		c1.21-0.016,1.453-0.213,1.456-1.403c0.014-3.591,0.002-7.184-0.014-10.772c-0.003-0.456-0.062-0.92-0.147-1.368
		c-0.434-2.311-2.2-3.367-4.451-2.644c-1.802,0.578-3.055,1.889-4.204,3.304c-0.148,0.178-0.157,0.506-0.157,0.764
		c-0.008,3.538-0.011,7.075,0,10.612c0.005,1.312,0.208,1.498,1.509,1.508c1.622,0.011,1.574,0.014,1.639,1.63
		c0.033,0.831-0.216,1.041-1.035,1.027c-3.078-0.051-6.158-0.021-9.235-0.021c-0.292,0-0.584,0-0.928,0c0-0.894,0-1.714,0-2.638
		c0.781,0,1.53,0.013,2.276-0.005c0.973-0.021,1.244-0.249,1.247-1.184c0.017-4.644,0.017-9.29,0.001-13.934
		c-0.003-0.953-0.272-1.193-1.219-1.213c-0.728-0.016-1.46-0.019-2.188,0c-0.412,0.012-0.592-0.137-0.578-0.56
		c0.018-0.645,0.004-1.291,0.004-2.008c2.797,0,5.525,0,8.358,0c0,0.983,0,1.935,0,2.886c0.059,0.023,0.118,0.046,0.178,0.068
		c0.191-0.209,0.38-0.421,0.577-0.621c2.119-2.157,4.564-3.521,7.712-3.185c2.134,0.228,3.704,1.234,4.529,3.278
		C104.81,137.961,104.906,138.177,105.061,138.538z"/>
	<path fill="#ACA8A1" d="M114.158,120.641c0,0.908,0,1.729,0,2.584c-3.803,0-7.565,0-11.415,0c0-0.749-0.032-1.444,0.024-2.137
		c0.013-0.159,0.314-0.41,0.5-0.426c0.67-0.054,1.349-0.029,2.024-0.026c0.737,0.008,1.083-0.381,1.116-1.089
		c0.01-0.215,0.016-0.432,0.016-0.647c0-4.292,0.004-8.586-0.001-12.879c-0.001-1.564-0.166-1.721-1.71-1.722
		c-0.725,0-1.45,0-2.244,0c0-0.878,0-1.697,0-2.575c2.694,0,5.381,0,8.179,0c0,0.984,0,1.987,0,2.992
		c0.062,0.024,0.125,0.047,0.188,0.073c0.189-0.204,0.379-0.406,0.57-0.61c2.103-2.229,4.589-3.545,7.749-3.323
		c3.604,0.254,5.937,2.51,6.049,6.13c0.117,3.777,0.05,7.557,0.065,11.34c0.002,0.432,0.021,0.863,0.036,1.293
		c0.024,0.698,0.405,1.018,1.088,1.018c0.646,0,1.295,0.02,1.943-0.003c0.442-0.012,0.645,0.138,0.625,0.606
		c-0.025,0.64-0.007,1.282-0.007,1.979c-3.827,0-7.566,0-11.369,0c0-0.82,0-1.642,0-2.583c0.667,0,1.306-0.015,1.944,0.007
		c0.791,0.023,1.246-0.317,1.24-1.129c-0.021-3.805,0.088-7.617-0.131-11.412c-0.191-3.308-3.149-4.871-6.097-3.281
		c-1.27,0.685-2.292,1.839-3.39,2.822c-0.18,0.161-0.24,0.535-0.241,0.813c-0.014,3.535-0.019,7.072,0,10.611
		c0.009,1.421,0.188,1.568,1.604,1.572C113.046,120.643,113.579,120.641,114.158,120.641z"/>
	<path fill="#ACA8A1" d="M206.131,156.81c-3.848,0-7.585,0-11.382,0c0-0.854,0-1.673,0-2.593c0.829,0,1.608,0.018,2.384-0.005
		c0.899-0.025,1.179-0.26,1.182-1.167c0.02-4.67,0.02-9.343-0.001-14.012c-0.003-0.9-0.291-1.132-1.199-1.151
		c-0.728-0.016-1.458,0.022-2.185-0.022c-0.2-0.015-0.543-0.228-0.556-0.369c-0.057-0.716-0.025-1.439-0.025-2.198
		c2.79,0,5.474,0,8.265,0c0,1.027,0,2.006,0,2.983c0.06,0.021,0.119,0.041,0.178,0.063c0.189-0.209,0.375-0.42,0.57-0.626
		c2.07-2.175,4.513-3.489,7.607-3.282c3.821,0.257,6.114,2.597,6.182,6.43c0.065,3.724,0.024,7.453,0.03,11.18
		c0,0.322-0.009,0.648,0.011,0.97c0.057,0.934,0.305,1.182,1.247,1.202c0.778,0.018,1.557,0.003,2.394,0.003c0,0.888,0,1.71,0,2.586
		c-3.773,0-7.534,0-11.347,0c0-0.838,0-1.636,0-2.586c0.678,0,1.34,0.017,2-0.003c0.914-0.03,1.173-0.243,1.176-1.165
		c0.009-3.698,0.085-7.399-0.057-11.095c-0.14-3.554-3.229-5.241-6.327-3.464c-1.188,0.68-2.154,1.76-3.179,2.708
		c-0.197,0.184-0.273,0.58-0.276,0.88c-0.017,3.51-0.02,7.019-0.003,10.53c0.006,1.432,0.206,1.603,1.667,1.608
		c1.65,0.005,1.65,0.005,1.645,1.678C206.131,156.168,206.131,156.435,206.131,156.81z"/>
	<path fill="#ACA8A1" d="M93.007,109.555c0.004-1.495,0.184-2.952-0.479-4.276c-0.299-0.599-0.773-1.245-1.341-1.545
		c-1.738-0.919-3.559-0.737-5.299,0.061c-0.874,0.399-1.165,1.254-1.152,2.169c0.008,0.587-0.238,0.709-0.771,0.717
		c-2.301,0.029-2.301,0.043-2.301-2.252c0-2.369-0.001-2.377,2.341-2.925c2.782-0.65,5.591-0.907,8.433-0.473
		c3.151,0.482,4.821,2.218,4.931,5.435c0.137,3.99,0.107,7.987,0.136,11.981c0.015,2.153,0.043,2.196,2.162,2.196
		c0.43,0,0.862,0,1.364,0c0,0.864,0,1.686,0,2.574c-0.178,0.018-0.383,0.059-0.588,0.059c-2.133,0.006-4.266-0.02-6.398,0.019
		c-0.62,0.01-0.812-0.196-0.769-0.791c0.044-0.587,0.009-1.183,0.009-2c-0.338,0.299-0.54,0.479-0.74,0.657
		c-2.508,2.268-5.417,3.169-8.747,2.455c-2.318-0.499-3.819-2.261-4.092-4.649c-0.361-3.16,0.913-5.656,3.703-7.222
		c2.437-1.368,5.124-1.796,7.853-2.054C91.826,109.637,92.386,109.604,93.007,109.555z M93.01,112.007
		c-1.957,0.076-3.748,0.235-5.454,0.922c-2.347,0.942-3.531,3.232-2.897,5.629c0.411,1.555,1.679,2.416,3.279,2.247
		c2.034-0.218,3.526-1.371,4.854-2.804c0.104-0.113,0.209-0.279,0.21-0.421C93.015,115.753,93.01,113.928,93.01,112.007z"/>
	<path fill="#ACA8A1" d="M133.244,157.444c-6.218-0.128-10.453-4.395-10.71-10.77c-0.142-3.546,0.637-6.796,3.276-9.317
		c3.267-3.123,7.19-3.724,11.359-2.342c4.107,1.36,6.184,4.511,6.83,8.669c0.325,2.077,0.175,4.146-0.424,6.175
		C142.169,154.65,138.226,157.546,133.244,157.444z M139.162,145.851c-0.058-2.363-0.429-4.843-1.972-7.014
		c-1.924-2.708-6.028-2.78-7.766,0.045c-2.678,4.354-2.508,8.94-0.398,13.451c0.916,1.959,2.678,2.819,4.88,2.617
		c2.066-0.188,3.393-1.337,4.206-3.197C138.912,149.933,139.068,148.006,139.162,145.851z"/>
	<path fill="#ACA8A1" d="M182.989,157.444c-5.918-0.141-10.007-4.004-10.578-9.915c-0.299-3.08,0.11-5.986,1.856-8.59
		c2.492-3.716,7.015-5.347,11.63-4.255c4.262,1.007,7.245,4.401,7.867,8.954c0.329,2.393,0.165,4.746-0.687,7.016
		C191.432,155.041,187.675,157.553,182.989,157.444z M188.924,145.958c-0.022-2.02-0.293-4.042-1.232-5.923
		c-0.956-1.915-2.358-3.23-4.644-3.208c-2.312,0.022-3.794,1.317-4.623,3.337c-1.604,3.902-1.56,7.851,0.127,11.713
		c0.866,1.986,2.415,3.146,4.688,3.097c2.241-0.049,3.737-1.161,4.629-3.192C188.682,149.933,188.845,147.981,188.924,145.958z"/>
	<path fill="#ACA8A1" d="M161.039,119.357c0,0.923,0.018,1.749-0.015,2.575c-0.005,0.171-0.152,0.413-0.305,0.491
		c-3.199,1.604-9.794,2.482-13.752-0.646c-2.364-1.867-3.576-4.359-3.975-7.271c-0.509-3.709,0.036-7.188,2.654-10.068
		c2.437-2.679,5.606-3.634,9.123-3.619c2.01,0.007,3.977,0.314,5.888,0.97c0.502,0.172,0.741,0.372,0.716,0.955
		c-0.053,1.264-0.016,2.53-0.016,3.86c-1.016,0-1.97,0-2.996,0c-0.022-0.197-0.057-0.398-0.067-0.604
		c-0.081-1.604-0.845-2.467-2.437-2.738c-3.729-0.637-6.378,0.993-7.439,4.801c-0.788,2.828-0.836,5.708,0.171,8.528
		c1.042,2.923,3.447,4.514,6.56,4.387c1.836-0.076,3.568-0.533,5.215-1.339C160.551,119.549,160.746,119.481,161.039,119.357z"/>
	<path fill="#ACA8A1" d="M144.23,137.879c0-0.902,0-1.701,0-2.552c0.17-0.04,0.342-0.099,0.52-0.121
		c2.781-0.35,4.372-1.832,4.892-4.588c0.084-0.45,0.188-0.911,0.166-1.361c-0.036-0.746,0.302-0.887,0.971-0.873
		c1.658,0.031,1.658,0.003,1.658,1.667c0,1.695,0,3.389,0,5.17c1.955,0,3.806,0,5.712,0c0,0.908,0,1.725,0,2.658
		c-1.55,0-3.08,0-4.608,0c-1.104,0.002-1.104,0.002-1.104,1.092c0,3.858-0.006,7.718,0.003,11.579c0,0.564,0.037,1.132,0.091,1.695
		c0.129,1.33,0.812,2.015,2.156,2.021c1.13,0.005,2.258-0.122,3.516-0.199c0,0.746,0.021,1.543-0.018,2.337
		c-0.008,0.146-0.225,0.372-0.381,0.409c-2.061,0.493-4.152,0.762-6.257,0.417c-2.021-0.33-3.091-1.452-3.4-3.471
		c-0.134-0.876-0.175-1.772-0.181-2.66c-0.019-3.968-0.003-7.935-0.012-11.901c-0.003-1.507,0.17-1.302-1.354-1.316
		C145.827,137.873,145.052,137.879,144.23,137.879z"/>
	<path fill="#ACA8A1" d="M38.622,123.225c0-0.741-0.032-1.438,0.023-2.13c0.013-0.163,0.307-0.417,0.489-0.433
		c0.643-0.055,1.294-0.029,1.942-0.026c0.726,0.005,1.109-0.341,1.12-1.074c0.011-0.754,0.022-1.513,0.022-2.268
		c0.001-3.753,0.005-7.505-0.003-11.259c-0.002-1.602-0.15-1.735-1.772-1.736c-0.673,0-1.346,0-2.091,0c0-0.874,0-1.691,0-2.573
		c2.68,0,5.359,0,8.143,0c0,1.074,0,2.106,0,3.14c0.061,0.021,0.12,0.04,0.18,0.062c0.199-0.233,0.395-0.471,0.599-0.701
		c2.092-2.357,4.624-3.673,7.86-3.341c1.106,0.113,1.128,0.118,1.129,1.189c0,1.482,0,2.966,0,4.521c-1.009,0-1.958,0-2.966,0
		c-0.021-0.285-0.037-0.546-0.055-0.81c-0.088-1.297-0.702-1.78-1.989-1.502c-0.439,0.094-0.872,0.287-1.268,0.506
		c-0.399,0.22-0.763,0.51-1.119,0.798c-1.479,1.205-2.401,2.547-2.227,4.684c0.235,2.869,0.052,5.771,0.063,8.663
		c0.006,1.55,0.176,1.705,1.73,1.708c0.724,0,1.447,0,2.237,0c0,0.896,0,1.714,0,2.582C46.67,123.225,42.693,123.225,38.622,123.225
		z"/>
	<path fill="#ACA8A1" d="M172.027,154.22c0,0.9,0,1.698,0,2.567c-3.87,0-7.734,0-11.652,0c0-0.812,0-1.608,0-2.568
		c0.716,0,1.43,0.007,2.141-0.002c1.12-0.014,1.352-0.217,1.354-1.319c0.013-4.562,0.013-9.124,0-13.687
		c-0.002-1.109-0.245-1.32-1.348-1.33c-0.805-0.008-1.608-0.003-2.477-0.003c0-0.896,0-1.711,0-2.583c2.764,0,5.5,0,8.332,0
		c0,0.355,0,0.672,0,0.99c0,5.426-0.003,10.852,0.003,16.277c0,1.514,0.149,1.654,1.676,1.657
		C170.696,154.22,171.336,154.22,172.027,154.22z"/>
	<path fill="#ACA8A1" d="M130.373,101.663c0.266,0,0.555,0,0.842,0c2.077,0,4.153,0,6.232,0c1.191,0,1.191,0.002,1.191,1.153
		c0,5.153,0,10.307,0,15.461c0,0.35-0.004,0.699,0.009,1.052c0.041,1.093,0.251,1.295,1.372,1.311
		c0.724,0.01,1.448,0.001,2.238,0.001c0,0.897,0,1.716,0,2.587c-3.864,0-7.704,0-11.649,0c0-0.756-0.03-1.478,0.026-2.194
		c0.011-0.144,0.351-0.355,0.553-0.374c0.59-0.051,1.187-0.004,1.779-0.023c0.914-0.034,1.155-0.252,1.17-1.174
		c0.029-1.807,0.019-3.615,0.019-5.422c0-2.753,0.008-5.505-0.007-8.257c-0.008-1.297-0.215-1.477-1.526-1.484
		c-0.108,0-0.217,0-0.324,0C130.035,104.299,129.863,104.076,130.373,101.663z"/>
	<path fill="#ACA8A1" d="M163.182,128.167c0.008-1.486,1.218-2.632,2.789-2.639c1.611-0.009,2.859,1.172,2.838,2.684
		c-0.022,1.481-1.251,2.651-2.8,2.666C164.437,130.892,163.173,129.681,163.182,128.167z"/>
</g>
</svg>
