<?xml version="1.0" encoding="utf-8"?>
<!-- Generator: Adobe Illustrator 16.0.0, SVG Export Plug-In . SVG Version: 6.00 Build 0)  -->
<!DOCTYPE svg PUBLIC "-//W3C//DTD SVG 1.1//EN" "http://www.w3.org/Graphics/SVG/1.1/DTD/svg11.dtd">
<svg version="1.1" id="Layer_1" xmlns="http://www.w3.org/2000/svg" xmlns:xlink="http://www.w3.org/1999/xlink" x="0px" y="0px"
	 width="240px" height="239px" viewBox="0 0 240 239" enable-background="new 0 0 240 239" xml:space="preserve">
<g>
	<g>
		<path fill="#ADA9A2" d="M29.818,150.711c-0.009-0.01-0.022-0.025-0.038-0.047c-0.016-0.021-0.031-0.039-0.045-0.055
			c-0.391-0.449-0.896-0.676-1.515-0.676c-0.534,0-1.013,0.131-1.438,0.391c-0.424,0.26-0.769,0.607-1.034,1.041
			c-0.264,0.436-0.444,0.918-0.538,1.451c-0.028,0.225-0.042,0.602-0.042,1.131c0.039,0.322,0.138,0.609,0.297,0.863
			c0.343,0.573,0.908,0.862,1.694,0.862c0.607,0,1.248-0.219,1.922-0.651c0.051-0.047,0.103-0.07,0.155-0.07l-0.183,0.549
			c-0.564,0.342-1.261,0.512-2.092,0.512c-0.854,0-1.514-0.219-1.982-0.654c-0.468-0.435-0.702-1.043-0.702-1.819
			c0-0.209,0.023-0.465,0.069-0.765c0.081-0.442,0.252-0.883,0.516-1.319c0.263-0.438,0.581-0.793,0.954-1.065
			c0.713-0.529,1.547-0.796,2.502-0.796c0.684,0,1.306,0.138,1.867,0.41c-0.108,0.22-0.207,0.451-0.297,0.695L29.818,150.711z"/>
		<path fill="#ADA9A2" d="M35.701,149.916c0.819,0.492,1.229,1.195,1.229,2.109c0,0.223-0.019,0.436-0.055,0.635
			c-0.085,0.496-0.249,0.955-0.492,1.375c-0.243,0.42-0.542,0.775-0.899,1.068s-0.763,0.52-1.218,0.68
			c-0.456,0.162-0.934,0.242-1.436,0.242c-1.468,0-2.387-0.607-2.757-1.822c-0.025-0.113-0.049-0.354-0.069-0.721
			c0.009-0.148,0.032-0.375,0.069-0.681c0.186-0.993,0.667-1.791,1.442-2.389c0.754-0.584,1.58-0.877,2.474-0.877
			C34.7,149.537,35.271,149.664,35.701,149.916z M35.756,150.738c-0.175-0.281-0.414-0.498-0.718-0.648
			c-0.304-0.152-0.64-0.229-1.008-0.229c-0.575,0-1.108,0.16-1.598,0.479c-0.412,0.269-0.742,0.638-0.991,1.103
			c-0.248,0.467-0.417,0.961-0.507,1.486c-0.046,0.27-0.069,0.51-0.069,0.721c0,0.5,0.122,0.924,0.366,1.27
			c0.375,0.549,0.937,0.822,1.684,0.822c0.617,0,1.186-0.207,1.708-0.621s0.895-0.934,1.118-1.557
			c0.108-0.271,0.183-0.541,0.224-0.818c0.058-0.289,0.086-0.576,0.086-0.863C36.053,151.439,35.954,151.059,35.756,150.738z"/>
		<path fill="#ADA9A2" d="M39.176,149.721l1.201-0.027c0.441,0,0.812,0.043,1.109,0.132c0.298,0.09,0.494,0.28,0.588,0.575
			c0.046,0.156,0.069,0.388,0.069,0.689c-0.083,0.492-0.329,0.881-0.738,1.164c-0.41,0.285-0.884,0.473-1.422,0.562l1.453,2.358
			l0.342,0.513l0.127,0.194c-0.066-0.004-0.156-0.012-0.267-0.022c-0.112-0.012-0.197-0.019-0.257-0.019
			c-0.055,0-0.14,0.007-0.255,0.019c-0.115,0.012-0.205,0.02-0.269,0.022c-0.23-0.424-0.366-0.68-0.407-0.762l-0.835-1.388
			l-0.58-0.846h-0.338l-0.128,0.721c-0.009,0.086-0.033,0.218-0.072,0.396l-0.297,1.879c-0.166-0.018-0.302-0.026-0.407-0.026
			c-0.104,0-0.25,0.01-0.438,0.026c0.023-0.146,0.061-0.327,0.114-0.553c0.053-0.226,0.09-0.39,0.111-0.492l0.607-3.168l0.242-1.754
			l0.042-0.224L39.176,149.721z M38.752,152.547c0.046,0,0.114,0.002,0.204,0.006c0.089,0.006,0.159,0.008,0.207,0.008
			c0.269,0,0.523-0.02,0.763-0.055c0.363-0.076,0.672-0.229,0.926-0.457c0.254-0.227,0.408-0.51,0.461-0.846
			c0.019-0.129,0.028-0.223,0.028-0.281c0-0.211-0.061-0.385-0.183-0.521c-0.09-0.116-0.176-0.196-0.259-0.237
			c-0.083-0.043-0.205-0.076-0.366-0.104c-0.113-0.01-0.302-0.014-0.566-0.014c-0.338,0-0.588,0.004-0.749,0.014L38.752,152.547z"/>
		<path fill="#ADA9A2" d="M44.083,153.734c-0.009,0.041-0.021,0.104-0.035,0.19c-0.014,0.089-0.026,0.156-0.038,0.205l-0.252,1.57
			l-0.031,0.194c-0.166-0.018-0.301-0.026-0.407-0.026c-0.053,0-0.129,0.004-0.228,0.008c-0.099,0.004-0.174,0.006-0.224,0.006
			c0.021-0.053,0.039-0.127,0.055-0.228l0.396-1.75l0.507-3.168l0.142-1.03c0.122,0.008,0.306,0.015,0.552,0.015l1.101-0.015
			c0.408,0,0.748,0.017,1.02,0.051c0.272,0.035,0.514,0.127,0.723,0.277c0.209,0.149,0.327,0.385,0.352,0.702
			c0,0.207-0.011,0.361-0.031,0.466c-0.069,0.385-0.215,0.711-0.438,0.979c-0.216,0.254-0.475,0.446-0.776,0.577
			c-0.283,0.127-0.631,0.228-1.045,0.298c-0.122,0.02-0.306,0.026-0.552,0.026c-0.074,0-0.187-0.002-0.338-0.006
			c-0.152-0.007-0.265-0.009-0.338-0.009L44.083,153.734z M44.591,150.811l-0.338,1.904c0.085,0.021,0.231,0.031,0.438,0.031
			c0.108,0,0.264-0.01,0.466-0.031c0.513-0.051,0.904-0.205,1.173-0.465c0.125-0.111,0.235-0.264,0.333-0.461
			s0.162-0.377,0.191-0.541c0-0.426-0.052-0.709-0.155-0.848c-0.115-0.174-0.337-0.277-0.666-0.312
			c-0.164-0.03-0.328-0.045-0.494-0.045c-0.198,0-0.467,0.011-0.808,0.031c0,0.047-0.009,0.116-0.027,0.209L44.591,150.811z"/>
		<path fill="#ADA9A2" d="M53.653,149.916c0.819,0.492,1.229,1.195,1.229,2.109c0,0.223-0.019,0.436-0.055,0.635
			c-0.085,0.496-0.25,0.955-0.492,1.375s-0.542,0.775-0.899,1.068s-0.763,0.52-1.218,0.68c-0.456,0.162-0.934,0.242-1.436,0.242
			c-1.468,0-2.387-0.607-2.757-1.822c-0.025-0.113-0.048-0.354-0.069-0.721c0.009-0.148,0.032-0.375,0.069-0.681
			c0.186-0.993,0.667-1.791,1.442-2.389c0.754-0.584,1.58-0.877,2.474-0.877C52.653,149.537,53.223,149.664,53.653,149.916z
			 M53.708,150.738c-0.175-0.281-0.414-0.498-0.718-0.648c-0.304-0.152-0.64-0.229-1.007-0.229c-0.576,0-1.108,0.16-1.598,0.479
			c-0.412,0.269-0.742,0.638-0.99,1.103c-0.249,0.467-0.418,0.961-0.508,1.486c-0.046,0.27-0.069,0.51-0.069,0.721
			c0,0.5,0.122,0.924,0.366,1.27c0.375,0.549,0.937,0.822,1.685,0.822c0.616,0,1.186-0.207,1.708-0.621s0.895-0.934,1.118-1.557
			c0.108-0.271,0.183-0.541,0.225-0.818c0.057-0.289,0.086-0.576,0.086-0.863C54.005,151.439,53.906,151.059,53.708,150.738z"/>
		<path fill="#ADA9A2" d="M57.271,149.721l1.201-0.027c0.442,0,0.812,0.043,1.109,0.132c0.298,0.09,0.494,0.28,0.588,0.575
			c0.046,0.156,0.069,0.388,0.069,0.689c-0.083,0.492-0.329,0.881-0.739,1.164c-0.41,0.285-0.883,0.473-1.422,0.562l1.453,2.358
			l0.341,0.513L60,155.883c-0.067-0.004-0.156-0.012-0.268-0.023c-0.111-0.012-0.197-0.018-0.257-0.018
			c-0.055,0-0.141,0.006-0.255,0.018c-0.115,0.013-0.205,0.021-0.27,0.023c-0.23-0.424-0.366-0.68-0.407-0.762l-0.835-1.387
			l-0.58-0.846H56.79l-0.127,0.721c-0.009,0.086-0.034,0.217-0.073,0.395l-0.297,1.879c-0.166-0.018-0.301-0.027-0.407-0.027
			c-0.104,0-0.25,0.011-0.438,0.027c0.023-0.145,0.061-0.328,0.114-0.553s0.09-0.389,0.11-0.492l0.607-3.168l0.242-1.754
			l0.042-0.223L57.271,149.721z M56.846,152.547c0.046,0,0.114,0.002,0.204,0.006c0.09,0.006,0.159,0.008,0.207,0.008
			c0.269,0,0.523-0.02,0.763-0.055c0.364-0.076,0.672-0.229,0.927-0.457c0.254-0.227,0.408-0.51,0.461-0.846
			c0.018-0.129,0.027-0.223,0.027-0.281c0-0.211-0.061-0.385-0.183-0.521c-0.089-0.116-0.176-0.196-0.259-0.237
			c-0.083-0.043-0.205-0.076-0.366-0.104c-0.113-0.01-0.301-0.014-0.566-0.014c-0.338,0-0.588,0.004-0.749,0.014L56.846,152.547z"/>
		<path fill="#ADA9A2" d="M64.424,149.578l1.498,5.98l0.1,0.323c-0.207-0.018-0.357-0.026-0.452-0.026
			c-0.226,0-0.39,0.01-0.494,0.026l-0.045-0.268l-0.21-1.074l-0.255-1.072l-1.073-0.03l-1.232,0.03
			c-0.632,1.105-1.071,1.912-1.315,2.414c-0.064-0.019-0.167-0.026-0.311-0.026c-0.073,0-0.186,0.01-0.338,0.026l3.944-6.305
			L64.424,149.578L64.424,149.578z M64.497,153.084l-0.593-2.318l-1.401,2.318h1.087H64.497z"/>
		<path fill="#ADA9A2" d="M70.83,150.158h-0.47h-0.224c-0.007,0.035-0.014,0.072-0.022,0.113c-0.008,0.043-0.014,0.076-0.019,0.102
			l-0.2,0.945l-0.635,3.602l-0.1,0.908v0.055c-0.046-0.004-0.112-0.012-0.197-0.023c-0.085-0.01-0.156-0.018-0.214-0.018
			c-0.177,0-0.337,0.014-0.48,0.041c0.019-0.047,0.038-0.123,0.059-0.227l0.21-0.945l0.68-3.635l0.169-0.932
			c-0.126,0.004-0.317,0.01-0.573,0.018c-0.255,0.006-0.446,0.014-0.573,0.023l-0.891,0.059c0.076-0.205,0.114-0.385,0.114-0.537
			c0.145,0.004,0.352,0.014,0.621,0.027s0.467,0.021,0.594,0.026l1.187,0.019l1.146-0.031l1.115-0.041
			c-0.064,0.17-0.097,0.357-0.097,0.564c-0.115-0.019-0.2-0.027-0.255-0.027L70.83,150.158z"/>
		<path fill="#ADA9A2" d="M75.392,149.721c0.209,0,0.521-0.01,0.935-0.027c-0.007,0.039-0.02,0.084-0.038,0.134
			c-0.019,0.051-0.03,0.096-0.034,0.135c-0.009,0.058-0.014,0.146-0.014,0.271c-0.09-0.004-0.212-0.015-0.367-0.027
			c-0.155-0.014-0.301-0.023-0.437-0.031l-0.89-0.027H73.88l-0.283,1.355c-0.034,0.162-0.057,0.295-0.069,0.398
			c-0.03,0.121-0.063,0.295-0.1,0.52h0.918l0.497-0.027c0.126-0.006,0.27-0.014,0.43-0.021c0.16-0.008,0.285-0.017,0.375-0.021
			c-0.053,0.166-0.081,0.256-0.083,0.271c-0.012,0.055-0.018,0.146-0.018,0.271c-0.317-0.039-0.581-0.06-0.79-0.06l-0.493-0.015
			h-0.397H73.36c-0.023,0.121-0.044,0.24-0.064,0.355c-0.02,0.117-0.041,0.238-0.064,0.365l-0.2,1.133
			c-0.014,0.088-0.033,0.209-0.057,0.359s-0.047,0.295-0.067,0.43c0.541,0,1.087-0.014,1.639-0.041c0.25,0,0.528-0.023,0.832-0.072
			c-0.055,0.172-0.083,0.353-0.083,0.537l-0.622-0.014c-0.492-0.018-0.86-0.027-1.104-0.027c-0.085,0-0.219,0.002-0.4,0.008
			c-0.182,0.004-0.316,0.006-0.404,0.006c-0.081,0-0.205,0.004-0.373,0.009c-0.168,0.004-0.294,0.006-0.38,0.006l0.255-1.131
			l0.566-3.097l0.128-0.791c0.023-0.129,0.046-0.289,0.071-0.481c0.024-0.192,0.052-0.418,0.084-0.677l0.977,0.027h1.298V149.721z"
			/>
	</g>
	<path fill="#ADA9A2" d="M29.539,129.055l2.255,6.676c0.866,2.422,1.758,4.722,2.677,6.896c0.36-0.506,1.23-1.701,2.61-3.582
		l4.373-6.117c0.373-0.506,0.821-1.115,1.344-1.824c0.523-0.711,1.023-1.393,1.499-2.049h0.317L43.9,140.027
		c-0.039,0.752-0.09,1.846-0.153,3.285c-0.064,1.438-0.116,2.524-0.155,3.266c-0.476-0.053-0.844-0.078-1.107-0.078
		c-0.577,0-0.999,0.025-1.262,0.078l0.829-9.189c0.025-0.443,0.058-1.08,0.096-1.908s0.071-1.44,0.097-1.84l-4.691,6.502
		l-1.821,2.609c-0.52,0.791-1.306,2-2.359,3.633h-0.279l-0.867-2.842c-0.378-1.221-0.694-2.195-0.944-2.93
		c-0.25-0.73-0.634-1.834-1.151-3.312c-0.517-1.477-0.936-2.695-1.257-3.66l-2.841,9.863l-0.598,2.523
		c0,0.16-0.025,0.344-0.077,0.551c-0.109,0-0.267-0.008-0.473-0.02c-0.205-0.015-0.362-0.021-0.471-0.021
		c-0.367,0-0.643,0.012-0.828,0.039l0.039-0.242l1.772-5.201l2.841-9.159c0.258-0.759,0.546-1.73,0.868-2.92H29.539L29.539,129.055z
		"/>
	<path fill="#ADA9A2" d="M53.589,134.258l2.926,11.686l0.196,0.636c-0.405-0.037-0.7-0.056-0.883-0.056
		c-0.441,0-0.762,0.019-0.964,0.056l-0.088-0.527l-0.412-2.098l-0.498-2.097l-2.098-0.061l-2.406,0.061
		c-1.237,2.16-2.093,3.734-2.569,4.722c-0.127-0.037-0.329-0.056-0.607-0.056c-0.144,0-0.364,0.019-0.661,0.056l7.707-12.32
		L53.589,134.258L53.589,134.258z M53.73,141.109l-1.16-4.531l-2.737,4.531h2.125H53.73z"/>
	<path fill="#ADA9A2" d="M68.28,134.508c0.184,0,0.442,0.018,0.775,0.055c0.256,0,0.459-0.02,0.607-0.055
		c-0.175,0.203-0.395,0.451-0.657,0.744c-0.263,0.295-0.449,0.506-0.557,0.635c-0.108,0.129-0.218,0.266-0.33,0.416l-2.488,3.119
		c-0.577,0.693-1.054,1.348-1.437,1.965l-0.579,3.586l-0.223,1.605c-0.405-0.037-0.717-0.055-0.938-0.055
		c-0.185,0-0.442,0.018-0.775,0.055c0.009-0.037,0.023-0.096,0.044-0.178c0.021-0.08,0.035-0.142,0.043-0.183l0.385-1.737
		l0.357-1.769l0.195-1.104l-3.067-7.101c0.441,0.035,0.763,0.056,0.972,0.056c0.44,0,0.77-0.021,0.99-0.056
		c0.503,1.479,0.89,2.547,1.16,3.203l0.991,2.461c0.055,0.166,0.101,0.269,0.142,0.304c0.171-0.121,0.391-0.38,0.661-0.775
		c0.777-0.988,1.827-2.434,3.149-4.336L68.28,134.508z"/>
	<path fill="#ADA9A2" d="M69.555,144.258c0.27,0.598,0.594,1.047,0.975,1.346c0.379,0.299,0.893,0.447,1.541,0.447
		c0.71,0,1.344-0.248,1.901-0.744c0.557-0.496,0.899-1.096,1.024-1.797c0-0.621-0.118-1.096-0.354-1.424
		c-0.235-0.328-0.579-0.598-1.028-0.809c-0.211-0.104-0.477-0.228-0.798-0.367c-0.322-0.143-0.603-0.275-0.843-0.398
		c-0.24-0.123-0.466-0.266-0.677-0.428c-0.571-0.453-0.856-1.088-0.856-1.9c0-0.127,0.019-0.303,0.054-0.526
		c0.189-1.082,0.705-1.916,1.548-2.498s1.828-0.873,2.956-0.873c1.075,0,1.875,0.276,2.4,0.83c-0.179,0.276-0.427,0.766-0.741,1.463
		h-0.168c-0.095-0.49-0.308-0.879-0.641-1.166c-0.332-0.287-0.752-0.433-1.26-0.433c-0.414,0-0.809,0.09-1.183,0.271
		c-0.375,0.184-0.692,0.436-0.951,0.76c-0.258,0.324-0.424,0.688-0.496,1.092c0,0.773,0.158,1.316,0.473,1.631
		c0.161,0.164,0.365,0.31,0.606,0.439c0.314,0.162,0.526,0.264,0.634,0.303c0.202,0.086,0.361,0.154,0.479,0.203
		c0.118,0.049,0.206,0.092,0.27,0.127c0.174,0.082,0.323,0.148,0.446,0.199c0.12,0.053,0.222,0.107,0.303,0.166
		c0.53,0.346,0.852,0.602,0.964,0.768c0.314,0.509,0.473,0.986,0.473,1.437c0,0.047-0.021,0.194-0.062,0.444
		c-0.144,0.812-0.461,1.519-0.95,2.123c-0.49,0.604-1.096,1.062-1.817,1.382c-0.721,0.315-1.491,0.475-2.309,0.475
		c-0.49,0-1.006-0.09-1.55-0.271c-0.544-0.18-0.931-0.422-1.161-0.729c0.192-0.346,0.396-0.859,0.607-1.543H69.555z"/>
	<path fill="#ADA9A2" d="M84.826,134.535c0.41,0,1.018-0.018,1.828-0.055c-0.014,0.076-0.038,0.164-0.075,0.264
		c-0.035,0.1-0.059,0.188-0.067,0.262c-0.018,0.109-0.026,0.285-0.026,0.527c-0.176-0.01-0.415-0.027-0.718-0.055
		c-0.304-0.027-0.588-0.047-0.853-0.062l-1.74-0.056h-1.302l-0.553,2.65c-0.068,0.314-0.112,0.574-0.135,0.775
		c-0.058,0.238-0.124,0.578-0.196,1.018h1.793l0.971-0.053c0.248-0.014,0.527-0.029,0.839-0.045
		c0.313-0.014,0.557-0.027,0.732-0.035c-0.104,0.322-0.158,0.498-0.162,0.525c-0.023,0.107-0.034,0.283-0.034,0.525
		c-0.62-0.076-1.135-0.115-1.543-0.115l-0.964-0.025h-0.775h-0.99c-0.046,0.236-0.087,0.471-0.125,0.697
		c-0.038,0.226-0.08,0.463-0.125,0.711l-0.391,2.211c-0.028,0.176-0.064,0.41-0.111,0.705s-0.091,0.574-0.131,0.838
		c1.056,0,2.124-0.025,3.203-0.08c0.49,0,1.032-0.045,1.625-0.141c-0.108,0.338-0.161,0.688-0.161,1.053l-1.214-0.027
		c-0.962-0.037-1.682-0.055-2.158-0.055c-0.167,0-0.427,0.004-0.783,0.014c-0.355,0.01-0.618,0.014-0.788,0.014
		c-0.158,0-0.4,0.004-0.728,0.013c-0.33,0.01-0.576,0.016-0.742,0.016l0.498-2.213l1.105-6.047l0.25-1.545
		c0.044-0.252,0.091-0.565,0.137-0.942c0.047-0.378,0.103-0.818,0.166-1.322l1.908,0.055H84.826L84.826,134.535z"/>
	<path fill="#ADA9A2" d="M88.562,140.145l1.045-5.914h0.303l7.049,9.308l0.107,0.114c0.086-0.325,0.216-0.971,0.391-1.938
		l0.991-5.662l0.196-1.402v-0.143c0.332,0.035,0.588,0.055,0.768,0.055c0.072,0,0.221-0.02,0.445-0.055
		c-0.014,0.031-0.034,0.098-0.064,0.195c-0.029,0.1-0.056,0.172-0.078,0.217l-0.384,1.746l-0.909,4.193l-0.75,3.951l-0.276,1.987
		h-0.242c-0.193-0.26-0.479-0.676-0.856-1.246l-2.355-3.202l-4.005-5.246l-0.303,1.658c-0.058,0.274-0.125,0.635-0.202,1.079
		c-0.077,0.443-0.165,0.959-0.263,1.546c-0.072,0.397-0.156,0.868-0.249,1.405l-0.331,2.099l-0.195,1.688
		c-0.132-0.037-0.333-0.055-0.607-0.055c-0.256,0-0.458,0.018-0.606,0.055c0.233-0.932,0.418-1.705,0.552-2.32L88.562,140.145z"/>
	<path fill="#ADA9A2" d="M109.844,137.168c-0.385-0.752-0.66-1.34-0.823-1.768c-0.165-0.428-0.246-0.914-0.246-1.459
		c0-0.168,0.026-0.404,0.078-0.713c0.224-1.138,0.844-2.084,1.859-2.843c0.725-0.577,1.63-0.866,2.715-0.866
		c0.912,0,1.651,0.237,2.215,0.713c0.419,0.379,0.626,1.021,0.626,1.926c-0.173,0.943-0.63,1.766-1.372,2.461
		c-0.742,0.697-1.704,1.402-2.885,2.115c0.501,0.815,0.939,1.533,1.315,2.151c0.375,0.619,0.753,1.205,1.131,1.759l1.059,1.541
		l0.164-0.164c0.149-0.166,0.462-0.549,0.944-1.146c0.636-0.725,1.176-1.393,1.619-2.002c0.154-0.188,0.296-0.383,0.429-0.588
		c0.131-0.205,0.266-0.404,0.4-0.598c0.179-0.191,0.285-0.351,0.316-0.474c0,0.054,0.026,0.104,0.077,0.156
		c0.007,0.043,0.089,0.2,0.24,0.471c0.103,0.091,0.198,0.17,0.289,0.24c0.09,0.071,0.151,0.121,0.185,0.153
		c-1.748,2.035-3.158,3.574-4.229,4.613l2.533,3.631c-0.693-0.049-1.207-0.076-1.542-0.076c-0.346,0-0.835,0.027-1.464,0.076
		c-0.552-1.053-0.959-1.762-1.222-2.127c-1.753,1.631-3.712,2.445-5.876,2.445c-1.419,0-2.511-0.381-3.275-1.145
		c-0.578-0.715-0.867-1.504-0.867-2.371c0-0.16,0.025-0.396,0.076-0.701c0.231-1.176,0.941-2.311,2.13-3.402
		c0.732-0.623,1.81-1.264,3.235-1.926L109.844,137.168z M106.482,141.982c-0.051,0.322-0.078,0.547-0.078,0.676
		c0,0.719,0.277,1.402,0.829,2.051c0.289,0.367,0.604,0.621,0.944,0.768c0.341,0.146,0.79,0.215,1.348,0.215
		c1.407,0,2.788-0.553,4.143-1.655c0.025-0.025,0.058-0.063,0.096-0.115c0.039-0.051,0.071-0.09,0.096-0.114
		c-1.483-2.212-2.706-4.224-3.669-6.039l-0.23,0.151C107.904,139.074,106.746,140.43,106.482,141.982z M114.929,132.324
		c0-1.426-0.539-2.141-1.618-2.141c-0.674,0-1.265,0.276-1.773,0.83c-0.397,0.37-0.66,0.885-0.789,1.541
		c0,1.354,0.315,2.563,0.944,3.631C113.601,134.99,114.679,133.703,114.929,132.324z"/>
	<path fill="#ADA9A2" d="M130.854,129.242h1.098c0.951,0,1.664,0.027,2.14,0.078c1.072,0.211,1.808,0.514,2.206,0.904
		c0.5,0.514,0.751,1.146,0.751,1.897c0,0.129-0.026,0.354-0.075,0.674c-0.188,1.131-0.722,2.08-1.6,2.853
		c-0.88,0.771-1.939,1.305-3.18,1.598c0.129,0,0.233,0.018,0.318,0.049c0.422,0.096,0.737,0.168,0.942,0.213
		s0.422,0.107,0.649,0.188c0.229,0.08,0.406,0.169,0.535,0.265c0.564,0.354,0.973,0.772,1.223,1.265
		c0.187,0.377,0.279,1.049,0.279,2.014c-0.314,1.752-1.328,3.174-3.045,4.266c-0.718,0.43-1.512,0.701-2.383,0.814
		c-0.869,0.111-1.916,0.168-3.135,0.168h-3.004h-0.629c0.078-0.359,0.197-0.885,0.361-1.576c0.164-0.689,0.28-1.23,0.352-1.621
		l1.57-8.604l0.481-2.994l0.31-2.447c0.422,0.027,1.057,0.039,1.896,0.039L130.854,129.242z M126.434,145.414
		c0.25,0.014,0.615,0.045,1.094,0.094c0.478,0.047,0.892,0.07,1.236,0.07c1.24,0,2.314-0.369,3.228-1.107
		c0.933-0.803,1.5-1.75,1.704-2.842c0.053-0.422,0.078-0.725,0.078-0.904c0-0.918-0.369-1.654-1.106-2.207
		c-0.578-0.449-1.747-0.674-3.507-0.674h-1.463L126.434,145.414z M128.282,134.725l-0.435,2.176h1.188
		c1.29,0,2.344-0.174,3.158-0.521c1.406-0.614,2.234-1.639,2.483-3.071c0.052-0.271,0.078-0.48,0.078-0.636
		c0-0.971-0.354-1.651-1.062-2.051c-0.563-0.313-1.484-0.474-2.764-0.474c-0.199,0-0.498,0.015-0.895,0.037
		c-0.399,0.027-0.708,0.039-0.926,0.039c-0.09,0.379-0.224,1.039-0.396,1.976L128.282,134.725z"/>
	<path fill="#ADA9A2" d="M150.184,134.865c1.6,0.961,2.398,2.336,2.398,4.119c0,0.436-0.035,0.85-0.107,1.24
		c-0.166,0.971-0.485,1.866-0.961,2.688c-0.475,0.82-1.06,1.516-1.756,2.088c-0.697,0.57-1.49,1.014-2.382,1.328
		c-0.89,0.314-1.823,0.471-2.804,0.471c-2.868,0-4.663-1.186-5.387-3.561c-0.051-0.219-0.097-0.689-0.136-1.408
		c0.019-0.289,0.063-0.73,0.136-1.328c0.364-1.941,1.304-3.498,2.817-4.666c1.474-1.143,3.085-1.713,4.834-1.713
		C148.229,134.123,149.342,134.371,150.184,134.865z M150.289,136.469c-0.341-0.547-0.809-0.969-1.4-1.266
		c-0.594-0.297-1.25-0.445-1.971-0.445c-1.123,0-2.163,0.312-3.121,0.936c-0.804,0.527-1.449,1.244-1.936,2.156
		c-0.484,0.908-0.814,1.877-0.99,2.902c-0.09,0.525-0.135,0.994-0.135,1.41c0,0.975,0.236,1.801,0.715,2.48
		c0.73,1.067,1.828,1.604,3.29,1.604c1.204,0,2.317-0.404,3.337-1.213s1.748-1.822,2.186-3.041c0.211-0.525,0.357-1.059,0.438-1.598
		c0.112-0.566,0.168-1.129,0.168-1.687C150.869,137.84,150.677,137.094,150.289,136.469z"/>
	<path fill="#ADA9A2" d="M157.248,134.48l2.348-0.056c0.862,0,1.586,0.089,2.168,0.261c0.58,0.174,0.965,0.549,1.149,1.123
		c0.089,0.307,0.134,0.756,0.134,1.35c-0.162,0.961-0.643,1.721-1.443,2.275c-0.799,0.555-1.725,0.92-2.776,1.096l2.838,4.611
		l0.668,0.998l0.25,0.385c-0.13-0.01-0.306-0.025-0.522-0.049c-0.218-0.021-0.387-0.033-0.502-0.033c-0.107,0-0.273,0.012-0.5,0.033
		c-0.225,0.022-0.398,0.039-0.524,0.049c-0.45-0.832-0.716-1.328-0.796-1.49l-1.633-2.711l-1.133-1.652h-0.66l-0.248,1.41
		c-0.021,0.166-0.066,0.422-0.143,0.768l-0.58,3.676c-0.324-0.037-0.589-0.055-0.796-0.055c-0.2,0-0.487,0.018-0.854,0.055
		c0.045-0.282,0.117-0.645,0.223-1.084c0.104-0.438,0.174-0.758,0.215-0.959l1.188-6.19l0.472-3.424l0.081-0.439L157.248,134.48z
		 M156.419,140.004c0.091,0,0.222,0.004,0.397,0.012c0.177,0.01,0.311,0.014,0.404,0.014c0.526,0,1.022-0.034,1.489-0.106
		c0.711-0.147,1.313-0.444,1.812-0.891c0.496-0.443,0.797-0.994,0.899-1.65c0.036-0.254,0.056-0.438,0.056-0.555
		c0-0.408-0.121-0.748-0.358-1.019c-0.175-0.229-0.343-0.385-0.507-0.465c-0.16-0.08-0.398-0.148-0.713-0.201
		c-0.221-0.018-0.59-0.026-1.106-0.026c-0.661,0-1.147,0.01-1.464,0.026L156.419,140.004z"/>
	<path fill="#ADA9A2" d="M175.703,134.865c1.6,0.961,2.398,2.336,2.398,4.119c0,0.436-0.035,0.85-0.107,1.24
		c-0.165,0.971-0.486,1.866-0.96,2.688c-0.474,0.82-1.062,1.516-1.757,2.088c-0.696,0.57-1.49,1.014-2.379,1.328
		c-0.892,0.314-1.826,0.471-2.806,0.471c-2.868,0-4.663-1.186-5.389-3.561c-0.05-0.219-0.095-0.689-0.136-1.408
		c0.019-0.289,0.064-0.73,0.136-1.328c0.364-1.941,1.305-3.498,2.817-4.666c1.476-1.143,3.086-1.713,4.834-1.713
		C173.747,134.123,174.861,134.371,175.703,134.865z M175.811,136.469c-0.342-0.547-0.81-0.969-1.401-1.266
		c-0.595-0.297-1.25-0.445-1.97-0.445c-1.125,0-2.164,0.312-3.121,0.936c-0.805,0.527-1.449,1.244-1.936,2.156
		c-0.486,0.908-0.816,1.877-0.992,2.902c-0.09,0.525-0.134,0.994-0.134,1.41c0,0.975,0.238,1.801,0.714,2.48
		c0.734,1.067,1.83,1.604,3.291,1.604c1.205,0,2.316-0.404,3.338-1.213c1.021-0.809,1.748-1.822,2.185-3.041
		c0.211-0.525,0.356-1.059,0.438-1.598c0.111-0.566,0.168-1.129,0.168-1.687C176.391,137.84,176.197,137.094,175.811,136.469z"/>
	<path fill="#ADA9A2" d="M190.887,144.48l0.027,0.135h0.143c0.111-0.225,0.252-0.506,0.424-0.84c0.17-0.336,0.369-0.728,0.594-1.176
		l3.236-6.654l0.66-1.492c0.26,0.037,0.463,0.055,0.606,0.055c0.153,0,0.354-0.018,0.606-0.055
		c-0.363,0.627-0.787,1.389-1.269,2.293l-5.084,9.777c-0.106-0.037-0.291-0.056-0.552-0.056c-0.274,0-0.485,0.019-0.635,0.056
		c-0.019-0.037-0.031-0.101-0.041-0.187c-0.009-0.088-0.021-0.153-0.039-0.198l-1.188-8.181l-0.275-1.293l-5.192,9.856h-1.222
		c-0.099-0.959-0.188-1.723-0.275-2.293l-1.438-9.776c0.406,0.036,0.729,0.055,0.974,0.055c0.188,0,0.442-0.019,0.769-0.055
		c0.03,0.213,0.062,0.528,0.102,0.95c0.035,0.423,0.066,0.742,0.095,0.957l0.418,3.588l0.633,4.666h0.136l3.316-6.461
		c0.172-0.282,0.428-0.789,0.77-1.516c0.529-1.047,0.863-1.721,0.998-2.018l0.053-0.168h1.134c0.021,0.109,0.034,0.199,0.049,0.273
		c0.013,0.073,0.022,0.141,0.033,0.198l0.391,2.979L190.887,144.48z"/>
	<path fill="#ADA9A2" d="M196.988,144.203c0.27,0.598,0.594,1.047,0.975,1.346s0.895,0.447,1.54,0.447
		c0.711,0,1.347-0.248,1.903-0.744s0.898-1.096,1.023-1.797c0-0.621-0.119-1.094-0.354-1.424c-0.236-0.328-0.578-0.598-1.028-0.809
		c-0.212-0.104-0.479-0.228-0.798-0.367c-0.322-0.142-0.604-0.273-0.845-0.398c-0.24-0.123-0.467-0.264-0.678-0.428
		c-0.57-0.453-0.856-1.088-0.856-1.9c0-0.127,0.019-0.301,0.055-0.525c0.188-1.084,0.705-1.916,1.548-2.498
		c0.842-0.584,1.827-0.875,2.957-0.875c1.073,0,1.875,0.277,2.399,0.83c-0.181,0.279-0.427,0.767-0.742,1.463h-0.168
		c-0.094-0.489-0.308-0.879-0.642-1.166c-0.332-0.287-0.752-0.432-1.26-0.432c-0.414,0-0.81,0.092-1.186,0.273
		c-0.375,0.182-0.691,0.434-0.949,0.758s-0.424,0.688-0.496,1.094c0,0.771,0.158,1.316,0.473,1.629
		c0.162,0.164,0.363,0.312,0.606,0.441c0.315,0.16,0.525,0.262,0.634,0.301c0.203,0.086,0.363,0.154,0.479,0.203
		c0.116,0.051,0.206,0.094,0.271,0.129c0.176,0.08,0.323,0.146,0.444,0.197c0.123,0.053,0.224,0.107,0.304,0.166
		c0.53,0.346,0.854,0.604,0.965,0.77c0.313,0.508,0.473,0.986,0.473,1.437c0,0.045-0.021,0.192-0.061,0.444
		c-0.146,0.81-0.461,1.517-0.951,2.121s-1.096,1.064-1.816,1.381c-0.723,0.318-1.492,0.478-2.311,0.478
		c-0.49,0-1.008-0.09-1.551-0.271s-0.931-0.422-1.16-0.729c0.192-0.347,0.396-0.858,0.606-1.543L196.988,144.203L196.988,144.203z"
		/>
	<path fill="#ADA9A2" d="M207.818,134.865l0.024-0.412c0.056,0.02,0.13,0.027,0.224,0.027c0.215,0.037,0.383,0.055,0.498,0.055
		c0.082-0.01,0.153-0.016,0.217-0.021c0.062-0.004,0.143-0.01,0.236-0.02c0.094-0.008,0.174-0.016,0.239-0.02
		c0.063-0.007,0.146-0.013,0.244-0.021c-0.026,0.082-0.063,0.248-0.114,0.5l-0.91,4.693c-0.018,0.071-0.026,0.172-0.026,0.303
		c0,0.076,0.038,0.113,0.114,0.113c0.063,0,0.258-0.129,0.58-0.392c0.473-0.377,0.746-0.604,0.823-0.688l1.052-0.854l4.059-3.676
		c0.148,0.021,0.361,0.026,0.635,0.026c0.08,0,0.209-0.004,0.385-0.014c0.176-0.008,0.305-0.014,0.391-0.014l-4.665,3.896
		l-1.767,1.518c0.377,0.545,0.938,1.336,1.685,2.375c0.745,1.037,1.327,1.867,1.739,2.488l1.162,1.684l-0.029,0.109
		c-0.098-0.011-0.246-0.025-0.444-0.049c-0.196-0.021-0.354-0.033-0.471-0.033c-0.108,0-0.274,0.012-0.499,0.033
		c-0.227,0.022-0.398,0.038-0.521,0.049c-0.197-0.328-0.373-0.623-0.529-0.886c-0.153-0.26-0.299-0.479-0.435-0.659l-1.881-2.845
		l-1.187-1.688c-0.004,0-0.037-0.004-0.094-0.014c-0.06-0.008-0.121-0.012-0.184-0.012c-0.027,0.053-0.055,0.137-0.081,0.248
		c-0.065,0.359-0.159,0.977-0.276,1.848l-0.33,1.82l-0.248,1.74l-0.062,0.445c-0.274-0.019-0.715-0.027-1.322-0.027l-0.329,0.027
		c0.026-0.183,0.062-0.338,0.106-0.474l0.661-3.114c0.123-0.701,0.283-1.521,0.471-2.462c0.032-0.188,0.087-0.522,0.163-1.002
		c0.075-0.479,0.149-0.926,0.222-1.344l0.223-1.66L207.818,134.865z"/>
	<path fill="#ADA9A2" d="M219.557,138.377c-0.267,1.322-0.479,2.426-0.635,3.311c-0.076,0.519-0.133,0.877-0.168,1.08l-0.492,3.756
		c-0.369-0.037-0.654-0.055-0.855-0.055c-0.202,0-0.506,0.018-0.911,0.055l0.823-3.811c0.07-0.219,0.142-0.51,0.209-0.869
		c0.066-0.359,0.119-0.633,0.154-0.816c0.035-0.225,0.066-0.401,0.09-0.53c0.025-0.131,0.059-0.297,0.1-0.5
		c0.04-0.203,0.068-0.354,0.087-0.459c0.028-0.229,0.101-0.662,0.217-1.302l0.58-3.756c0.054,0.006,0.131,0.015,0.231,0.027
		c0.102,0.014,0.203,0.025,0.308,0.037s0.183,0.018,0.235,0.018c0.404,0,0.699-0.037,0.884-0.108L219.557,138.377z"/>
	<path fill="#A09B92" d="M91.358,113.576c2.495,2.436,7.61,8.081,10.045,11.971l-5.749,0.301c-1.005-0.426-1.747-0.861-2.055-1.195
		c-0.792-0.924-3.561-4.021-5.736-6.263c-4.748,6.33-9.098,8.703-13.845,8.703c-8.308,0-12.989-6.197-12.989-11.933
		c0-6.132,4.286-8.77,9.89-12.791c-2.967-2.769-4.747-5.604-4.747-9.164c0-5.934,5.011-10.417,10.812-10.417
		c5.34,0,9.758,3.824,9.758,9.099c0,2.703-1.385,4.615-2.769,5.802c-1.253,1.055-2.77,2.308-5.341,4.021
		c2.176,1.847,6.857,5.868,11.077,10.22 M86.348,116.609c-3.494-3.89-7.714-7.912-13.714-12.791c-4.352,3.1-5.999,6.198-5.999,9.429
		c0,6.33,4.812,9.362,9.164,9.362C80.216,122.609,84.171,119.641,86.348,116.609z M70.92,91.622c0,3.429,2.043,5.736,6,8.769
		c3.099-2.308,4.879-4.879,4.879-8.439c0-3.758-2.242-6.922-5.54-6.922C73.228,85.029,70.92,87.666,70.92,91.622z"/>
	<path fill="#ADA9A2" d="M101.919,103.311c6.526,0.988,11.604,3.891,11.604,10.482c0,4.417-2.374,7.848-6.264,9.957
		c-3.362,1.846-7.713,2.637-12.92,2.637h-14.57v-1.846c5.67-0.396,6.064-0.791,6.064-6.264V91.641c0-5.289-0.246-5.835-5.024-6.223
		c-0.166-0.014-0.514-0.063-0.514-0.355c0,0,0-0.928,0-1.194c0-0.266,0.195-0.336,0.475-0.336s16.469,0,16.469,0
		c4.945,0,7.846,0.79,9.889,2.241c2.308,1.582,3.692,4.482,3.692,7.516c0,6.263-5.274,8.835-8.9,9.89L101.919,103.311
		L101.919,103.311z M91.976,102.52c0.526,0,2.561,0,2.561,0c7.185,0,10.217-2.901,10.217-8.439c0-4.482-2.505-8.438-8.767-8.438
		c-1.582,0-3.099,0.263-3.691,0.659c-0.66,0.396-0.858,1.12-0.858,3.297c0,0,0,11.851,0,12.384
		C91.438,102.516,91.449,102.52,91.976,102.52z M91.438,105.459c0,0.66,0,12.685,0,12.685c0,4.749,1.187,6,5.472,6
		c5.339-0.064,10.153-2.769,10.153-9.692c0-6.725-4.616-9.69-12.657-9.69c0,0-1.574,0-2.27,0
		C91.477,104.762,91.438,104.788,91.438,105.459z"/>
	<path fill="#ADA9A2" d="M53.222,115.616L68.02,83.659c0,0,0.044-0.147,0.217-0.147c0.172,0,10.537,0,10.762,0
		c0.298,0,0.298,0.289,0.298,0.289v1.286c0,0.271-0.331,0.301-0.489,0.315c-5.401,0.496-5.769,0.809-5.577,7.406l0.594,23.866
		c0.194,6.835,0.387,7.363,5.762,7.814c0.12,0.012,0.368,0.055,0.368,0.297c0,0,0,1.096,0,1.232c0,0.135,0,0.35-0.323,0.35
		c-2.319,0-16.39,0-16.673,0c-0.308,0-0.343-0.174-0.343-0.328s0-1.209,0-1.209c0-0.287,0.112-0.32,0.476-0.352
		c4.942-0.449,5.128-1.027,5.128-7.805l-0.264-26.9c0,0,0-0.221-0.112-0.221c-0.057,0-0.151,0.221-0.151,0.221l-16.087,36.13
		c-0.224,0.51-1.105,0.51-1.318,0L35.713,91.16c0,0-0.08-0.203-0.18-0.203c-0.165,0-0.171,0.207-0.171,0.207l-0.964,18.324
		c-0.264,5.472-0.264,8.307-0.198,10.944c0.126,3.037,1.529,3.584,5.548,4.031c0.32,0.041,0.519,0.102,0.519,0.301
		c0,0,0,1.209,0,1.336s-0.017,0.269-0.387,0.269c-2.335,0-14.446,0-14.679,0c-0.259,0-0.295-0.113-0.295-0.295
		c0-0.183,0-1.31,0-1.31c0-0.229,0.247-0.27,0.366-0.283c3.603-0.41,4.791-1.235,5.237-3.916c0.396-2.309,0.792-5.142,1.253-12.065
		l0.923-13.713c0.573-8.281,0.285-8.807-5.146-9.369c-0.191-0.02-0.589-0.009-0.59-0.384c0,0,0-1.008,0-1.265
		c0-0.257,0.012-0.257,0.254-0.257c0.242,0,10.229,0,10.406,0c0.176,0,0.228,0.169,0.228,0.169l14.534,31.937
		C52.371,115.617,52.791,116.57,53.222,115.616z"/>
	<path fill="#A09B92" d="M84.366,122.42c-3.449,3.336-6.787,4.672-10.347,4.672c-8.308,0-12.989-6.197-12.989-11.933
		c0-0.292,0.01-0.576,0.029-0.854l5.737,0.876c0.87,5.014,5.121,7.428,9.002,7.428c2.342,0,4.554-0.834,6.44-2.07"/>
</g>
</svg>
