<?xml version="1.0" encoding="utf-8"?>
<!-- Generator: Adobe Illustrator 16.0.0, SVG Export Plug-In . SVG Version: 6.00 Build 0)  -->
<!DOCTYPE svg PUBLIC "-//W3C//DTD SVG 1.1//EN" "http://www.w3.org/Graphics/SVG/1.1/DTD/svg11.dtd">
<svg version="1.1" id="Layer_1" xmlns="http://www.w3.org/2000/svg" xmlns:xlink="http://www.w3.org/1999/xlink" x="0px" y="0px"
	 width="240px" height="239px" viewBox="0 0 240 239" enable-background="new 0 0 240 239" xml:space="preserve">
<g>
	<path fill-rule="evenodd" clip-rule="evenodd" fill="#ACA8A1" d="M119.129,130.525c0.178-16.983,0.354-33.83,0.53-50.677
		c0.031-0.011,0.064-0.022,0.097-0.033c4.934,9.87,9.869,19.739,14.838,29.677c0.156-0.171,0.254-0.262,0.334-0.366
		c1.434-1.873,2.871-3.743,4.291-5.626c0.244-0.322,0.473-0.416,0.894-0.341c3.114,0.56,6.236,1.077,9.355,1.616
		c3.103,0.537,6.202,1.088,9.305,1.627c3.117,0.54,6.238,1.069,9.355,1.608c2.922,0.504,5.843,1.015,8.763,1.523
		c1.681,0.291,3.36,0.583,5.041,0.876c0.178,0.03,0.356,0.065,0.637,0.118c-1.462,0.483-2.826,0.952-4.203,1.385
		c-3.154,0.991-6.318,1.954-9.471,2.954c-0.684,0.216-1.312-0.023-1.953-0.122c-3.022-0.463-6.041-0.959-9.061-1.445
		c-2.565-0.413-5.13-0.834-7.694-1.245c-2.81-0.451-5.62-0.896-8.427-1.346c-2.157-0.346-4.315-0.678-6.465-1.053
		c-0.506-0.089-0.809,0.01-1.12,0.435c-4.902,6.688-9.824,13.364-14.741,20.041C119.362,130.229,119.285,130.323,119.129,130.525z"
		/>
	<path fill-rule="evenodd" clip-rule="evenodd" fill="#ACA8A1" d="M119.457,131.051c16.046-5.25,32.092-10.499,48.138-15.748
		c0.027,0.029,0.055,0.058,0.08,0.085c-0.142,0.158-0.28,0.319-0.428,0.471c-4.591,4.678-9.181,9.354-13.771,14.031
		c-2.96,3.015-5.922,6.027-8.872,9.052c-0.26,0.267-0.475,0.336-0.84,0.217c-7.967-2.61-15.937-5.207-23.907-7.808
		c-0.14-0.045-0.274-0.108-0.411-0.164C119.449,131.141,119.453,131.096,119.457,131.051z"/>
	<path fill-rule="evenodd" clip-rule="evenodd" fill="#ACA8A1" d="M70.643,115.142c2.863-0.468,5.726-0.932,8.588-1.403
		c2.909-0.48,5.815-0.973,8.725-1.451c3.091-0.509,6.186-1.005,9.277-1.509c1.94-0.315,3.882-0.623,5.817-0.964
		c0.415-0.074,0.672-0.018,0.931,0.347c4.843,6.806,9.699,13.6,14.552,20.398c0.069,0.098,0.128,0.203,0.138,0.417
		c-16.018-5.233-32.036-10.467-48.054-15.701C70.625,115.23,70.634,115.187,70.643,115.142z"/>
	<path fill-rule="evenodd" clip-rule="evenodd" fill="#ACA8A1" d="M119.25,131.562c9.772,13.687,19.544,27.37,29.37,41.132
		c-0.194-0.085-0.315-0.128-0.428-0.187c-9.617-4.94-19.233-9.882-28.854-14.814c-0.364-0.186-0.507-0.389-0.501-0.811
		c0.051-3.637,0.073-7.275,0.107-10.913c0.028-2.867,0.055-5.733,0.09-8.601c0.022-1.85,0.058-3.699,0.088-5.549
		c0.002-0.07,0.018-0.144,0.026-0.214C119.183,131.592,119.217,131.578,119.25,131.562z"/>
	<path fill-rule="evenodd" clip-rule="evenodd" fill="#ACA8A1" d="M118.429,131.501c-9.954,13.521-19.909,27.04-29.863,40.561
		c-0.024-0.009-0.048-0.018-0.072-0.028c0.134-0.842,0.265-1.686,0.403-2.526c0.449-2.73,0.901-5.458,1.351-8.188
		c0.389-2.364,0.779-4.729,1.166-7.094c0.448-2.742,0.892-5.488,1.339-8.23c0.338-2.077,0.685-4.152,1.014-6.23
		c0.053-0.335,0.282-0.402,0.536-0.485c2.31-0.755,4.62-1.512,6.929-2.268c5.613-1.835,11.227-3.669,16.84-5.504
		c0.099-0.031,0.199-0.059,0.299-0.087C118.389,131.447,118.408,131.474,118.429,131.501z"/>
	<path fill-rule="evenodd" clip-rule="evenodd" fill="#ACA8A1" d="M158.297,185.644c-1.76-2.4-3.436-4.688-5.112-6.975
		c-1.167-1.591-2.298-3.21-3.521-4.758c-0.572-0.726-0.72-1.527-0.839-2.381c-0.292-2.083-0.604-4.165-0.9-6.248
		c-0.262-1.837-0.508-3.678-0.77-5.515c-0.325-2.277-0.664-4.555-0.989-6.833c-0.324-2.28-0.634-4.565-0.956-6.847
		c-0.308-2.175-0.624-4.35-0.941-6.565c0.098,0.02,0.2,0.027,0.295,0.059c2.395,0.789,4.789,1.585,7.187,2.366
		c0.283,0.092,0.41,0.217,0.454,0.531c0.349,2.588,0.721,5.174,1.092,7.758c0.358,2.494,0.728,4.987,1.081,7.481
		c0.354,2.495,0.691,4.992,1.044,7.488c0.322,2.28,0.661,4.561,0.984,6.842c0.294,2.068,0.573,4.141,0.866,6.208
		c0.324,2.282,0.66,4.561,0.988,6.843C158.278,185.234,158.278,185.372,158.297,185.644z"/>
	<path fill-rule="evenodd" clip-rule="evenodd" fill="#ACA8A1" d="M55.461,110.436c1.398,0.464,2.795,0.926,4.192,1.393
		c3.372,1.124,6.745,2.246,10.112,3.385c0.278,0.095,0.561,0.263,0.767,0.47c7.646,7.703,15.284,15.416,22.922,23.128
		c0.084,0.085,0.164,0.176,0.291,0.312c-0.673,0.25-1.3,0.484-1.93,0.714c-1.793,0.652-3.589,1.297-5.378,1.958
		c-0.327,0.12-0.552,0.098-0.814-0.172c-9.897-10.202-19.804-20.397-29.708-30.594c-0.168-0.174-0.332-0.353-0.498-0.529
		C55.432,110.478,55.447,110.456,55.461,110.436z"/>
	<path fill-rule="evenodd" clip-rule="evenodd" fill="#ACA8A1" d="M103.553,109.271c-0.277-0.415-0.5-0.746-0.722-1.076
		c-1.127-1.675-2.244-3.356-3.388-5.021c-0.219-0.319-0.247-0.553-0.062-0.909c5.98-11.438,11.948-22.885,17.919-34.329
		c0.775-1.487,1.554-2.974,2.4-4.594c0,0.257,0,0.381,0,0.504c-0.004,3.624-0.001,7.247-0.015,10.871
		c-0.005,1.341-0.041,2.681-0.085,4.022c-0.006,0.219-0.087,0.453-0.191,0.65c-3.061,5.787-6.129,11.571-9.195,17.354
		c-2.093,3.947-4.187,7.894-6.281,11.84C103.827,108.785,103.713,108.983,103.553,109.271z"/>
	<path fill-rule="evenodd" clip-rule="evenodd" fill="#ACA8A1" d="M118.859,157.841c0,1.986,0,3.898,0,5.81
		c0,0.478-0.028,0.958,0.008,1.432c0.032,0.405-0.135,0.599-0.483,0.773c-5.972,2.98-11.937,5.975-17.901,8.965
		c-6.938,3.479-13.876,6.957-20.814,10.437c-0.133,0.065-0.268,0.128-0.53,0.254c0.651-0.89,1.22-1.669,1.791-2.445
		c2.445-3.33,4.89-6.66,7.344-9.982c0.148-0.202,0.362-0.386,0.587-0.496c9.875-4.873,19.755-9.739,29.636-14.604
		C118.588,157.936,118.689,157.907,118.859,157.841z"/>
</g>
</svg>
