<?xml version="1.0" encoding="utf-8"?>
<!-- Generator: Adobe Illustrator 16.0.0, SVG Export Plug-In . SVG Version: 6.00 Build 0)  -->
<!DOCTYPE svg PUBLIC "-//W3C//DTD SVG 1.1//EN" "http://www.w3.org/Graphics/SVG/1.1/DTD/svg11.dtd">
<svg version="1.1" id="Layer_1" xmlns="http://www.w3.org/2000/svg" xmlns:xlink="http://www.w3.org/1999/xlink" x="0px" y="0px"
	 width="240px" height="239px" viewBox="0 0 240 239" enable-background="new 0 0 240 239" xml:space="preserve">
<g>
	<path fill="#AEAAA3" d="M730.198,546.938h41.437v19.149c7.137-7.795,15.045-13.641,23.729-17.493
		c8.692-3.851,18.177-5.784,28.433-5.784c10.38,0,19.741,2.548,28.065,7.628c8.33,5.078,15.051,12.489,20.138,22.247
		c6.599-9.758,14.707-17.169,24.312-22.247c9.598-5.08,20.123-7.628,31.492-7.628c11.793,0,22.165,2.732,31.118,8.209
		c8.946,5.464,15.353,12.613,19.287,21.39c3.912,8.809,5.854,23.139,5.854,42.963v96.852h-41.443v-83.67
		c0-18.705-2.363-31.349-7.111-37.991c-4.742-6.613-11.839-9.928-21.312-9.928c-7.236,0-13.702,2.025-19.418,6.062
		c-5.73,4.064-9.982,9.649-12.736,16.784c-2.799,7.104-4.173,18.552-4.173,34.293v74.449h-41.45v-79.85
		c0-14.793-1.098-25.471-3.293-32.1c-2.17-6.612-5.478-11.538-9.865-14.775c-4.373-3.238-9.667-4.864-15.866-4.864
		c-6.927,0-13.201,2.056-18.872,6.138c-5.639,4.099-9.857,9.851-12.674,17.216c-2.793,7.381-4.213,19.012-4.213,34.86v73.375
		h-41.437V546.938H730.198z"/>
	<path fill="#AEAAA3" d="M1230.577,579.928l-33.353,18.166c-6.269-6.565-12.451-11.139-18.564-13.716
		c-6.122-2.579-13.312-3.868-21.527-3.868c-14.975,0-27.09,4.56-36.35,13.58c-9.244,9.038-13.886,20.639-13.886,34.754
		c0,13.748,4.458,24.949,13.355,33.649c8.877,8.7,20.568,12.75,35.015,13.024c24.373,0.508,39.873-15.558,49.838-27.954
		l31.523,21.712c-17.146,22.387-38.206,42.946-80.593,42.946c-28.096,0-50.092-8.316-65.987-25.012
		c-15.911-16.708-23.865-36.194-23.865-58.583c0-15.513,3.864-29.766,11.613-42.839c7.748-13.041,18.543-23.307,32.43-30.795
		c13.871-7.441,29.375-11.187,46.515-11.187c15.896,0,30.167,3.131,42.825,9.392
		C1212.194,559.475,1222.528,568.375,1230.577,579.928L1230.577,579.928z"/>
	<path fill="#AEAAA3" d="M1223.68,543.809h41.345v79.787c0,15.529,1.082,26.299,3.229,32.346
		c2.187,6.046,5.699,10.739,10.501,14.085c4.804,3.346,10.742,5.002,17.77,5.002c7.043,0,13.011-1.656,17.906-4.939
		c4.939-3.283,8.594-8.102,10.971-14.53c1.765-4.771,2.653-14.976,2.653-30.597v-81.151h41.308v69.783
		c0,28.783-2.271,48.473-6.858,59.028c-5.571,12.934-13.78,22.846-24.658,29.781c-10.894,6.874-24.703,10.341-41.46,10.341
		c-18.196,0-32.903-4.021-44.128-12.09c-11.224-8.103-19.142-19.318-23.697-33.772c-3.283-9.958-4.88-28.155-4.88-54.485
		L1223.68,543.809L1223.68,543.809z"/>
	<path fill="#AEAAA3" d="M1459.98,581.34c-12.767,0-23.354,4.389-31.763,13.164c-8.405,8.746-12.612,20.225-12.612,34.34
		c0,14.455,4.207,26.085,12.612,35.031c8.409,8.883,18.996,13.332,31.763,13.332c12.337,0,22.739-4.511,31.193-13.564
		c8.455-9.083,12.69-20.62,12.69-34.646c0-13.932-4.145-25.362-12.444-34.278C1483.119,585.819,1472.609,581.34,1459.98,581.34
		L1459.98,581.34z M1417.662,485.992v80.096c7.336-7.242,15.268-12.675,23.813-16.342c8.532-3.606,17.662-5.416,27.404-5.416
		c21.112,0,39.096,7.979,53.888,23.904c14.808,15.958,22.155,36.412,22.155,61.346c0,24.059-7.595,44.189-22.907,60.363
		c-15.268,16.203-33.418,24.305-54.362,24.305c-9.345,0-17.983-1.643-26.054-4.972c-8.039-3.284-16.021-8.686-23.938-16.157v17.077
		h-40.599V485.992H1417.662L1417.662,485.992z"/>
	<path fill="#AEAAA3" d="M1668.488,608.559c-2.686-8.99-7.918-16.295-15.789-21.91c-7.841-5.614-16.94-8.438-27.297-8.438
		c-11.247,0-21.127,3.161-29.612,9.482c-5.325,3.942-10.265,10.894-14.808,20.866H1668.488L1668.488,608.559z M1708.797,639.922
		h-129.84c1.872,11.6,6.874,20.807,15.007,27.648c8.103,6.845,18.459,10.252,31.087,10.252c15.035,0,27.987-5.342,38.805-16.021
		l33.955,15.987c-8.471,12.062-18.598,20.976-30.428,26.792c-11.752,5.768-25.792,8.684-42.025,8.684
		c-25.209,0-45.739-8.01-61.59-23.938c-15.836-15.957-23.736-35.904-23.736-59.916c0-24.582,7.9-44.988,23.705-61.224
		c15.852-16.25,35.706-24.381,59.564-24.381c25.332,0,45.97,8.103,61.807,24.289c15.88,16.203,23.812,37.577,23.812,64.138
		L1708.797,639.922L1708.797,639.922z"/>
	<path fill="#AEAAA3" d="M1034.835,545.589c0,12.95-12.282,23.477-27.474,23.477c-15.166,0-27.479-10.525-27.479-23.477
		c0-28.064,27.183-59.688,27.479-59.902C1007.577,485.471,1034.835,521.621,1034.835,545.589L1034.835,545.589z M985.459,530.689
		c-3.23,5.231-4.933,14.07-1.934,20.604c2.316,5.064,3.996,6.445,4.741,6.736c2.023,0.677,6.819-1.84,8.354-4.572
		c0.406-0.736-1.096-0.168-5.639-7.84C987.783,540.234,985.459,530.689,985.459,530.689L985.459,530.689z M989.963,559.828
		c-0.131,0.029,3.981,3.94,8.171,5.521c0.16,0.078,4.671-0.767,6.573-6.273c-1.741-1.09-6.727-4.404-6.759-4.357
		C996.415,556.79,992.278,559.429,989.963,559.828L989.963,559.828z"/>
	<g>
		<path fill="#AEAAA3" d="M1761.118,551.266v5.155h-14.53v37.944h-5.892v-37.944h-14.531v-5.155H1761.118z"/>
		<path fill="#AEAAA3" d="M1766.336,551.266h8.379l12.366,36.441l12.306-36.441h8.302v43.101h-5.57v-25.424
			c0-0.892,0.016-2.331,0.062-4.39c0.032-2.023,0.062-4.204,0.062-6.535l-12.305,36.349h-5.771l-12.429-36.349v1.319
			c0,1.058,0.032,2.669,0.092,4.832c0.062,2.149,0.078,3.745,0.078,4.772v25.424h-5.57L1766.336,551.266L1766.336,551.266z"/>
	</g>
</g>
<g>
	<path fill="#AEAAA3" d="M763.096,755.457l-3.239,2.486c-1.789-2.328-3.937-4.095-6.439-5.295c-2.506-1.201-5.258-1.803-8.256-1.803
		c-3.279,0-6.314,0.787-9.107,2.36c-2.795,1.574-4.959,3.688-6.496,6.342c-1.536,2.654-2.305,5.64-2.305,8.955
		c0,5.01,1.718,9.191,5.154,12.543c3.437,3.354,7.771,5.029,13.005,5.029c5.755,0,10.569-2.254,14.444-6.761l3.239,2.458
		c-2.049,2.606-4.604,4.624-7.669,6.049c-3.063,1.425-6.485,2.137-10.267,2.137c-7.189,0-12.861-2.393-17.016-7.18
		c-3.482-4.041-5.224-8.921-5.224-14.64c0-6.016,2.109-11.077,6.328-15.185c4.218-4.106,9.502-6.16,15.854-6.16
		c3.837,0,7.301,0.759,10.393,2.276C758.588,750.591,761.121,752.719,763.096,755.457z"/>
	<path fill="#AEAAA3" d="M790.908,746.796c6.224,0,11.434,2.077,15.626,6.229c4.192,4.153,6.29,9.267,6.29,15.338
		c0,6.017-2.092,11.119-6.275,15.311c-4.185,4.19-9.286,6.285-15.307,6.285c-6.094,0-11.238-2.086-15.433-6.258
		c-4.191-4.172-6.289-9.219-6.289-15.144c0-3.946,0.955-7.606,2.865-10.979s4.516-6.012,7.813-7.921
		S787.068,746.796,790.908,746.796z M791.09,750.791c-3.041,0-5.924,0.792-8.646,2.377c-2.725,1.584-4.852,3.719-6.38,6.402
		c-1.529,2.683-2.296,5.676-2.296,8.975c0,4.885,1.693,9.008,5.078,12.373c3.388,3.364,7.468,5.047,12.244,5.047
		c3.189,0,6.142-0.772,8.855-2.32c2.715-1.548,4.832-3.662,6.352-6.348c1.521-2.684,2.281-5.666,2.281-8.947
		c0-3.262-0.76-6.212-2.281-8.85c-1.52-2.637-3.66-4.748-6.422-6.332C797.115,751.583,794.186,750.791,791.09,750.791z"/>
	<path fill="#AEAAA3" d="M840.637,746.796c6.226,0,11.435,2.077,15.627,6.229c4.193,4.153,6.291,9.267,6.291,15.338
		c0,6.017-2.093,11.119-6.276,15.311c-4.185,4.19-9.285,6.285-15.306,6.285c-6.095,0-11.237-2.086-15.432-6.258
		s-6.29-9.219-6.29-15.144c0-3.946,0.955-7.606,2.865-10.979s4.515-6.012,7.812-7.921S836.797,746.796,840.637,746.796z
		 M840.818,750.791c-3.041,0-5.924,0.792-8.646,2.377c-2.724,1.584-4.851,3.719-6.381,6.402c-1.529,2.684-2.293,5.676-2.293,8.975
		c0,4.885,1.692,9.008,5.078,12.373c3.385,3.364,7.467,5.047,12.242,5.047c3.188,0,6.143-0.772,8.855-2.32
		c2.714-1.548,4.831-3.662,6.354-6.348c1.52-2.684,2.279-5.666,2.279-8.947c0-3.262-0.761-6.212-2.279-8.85
		c-1.521-2.637-3.662-4.748-6.422-6.332C846.844,751.583,843.916,750.791,840.818,750.791z"/>
	<path fill="#AEAAA3" d="M870.796,747.83h4.106v37.129h15.812v3.967h-19.919L870.796,747.83L870.796,747.83z"/>
	<path fill="#AEAAA3" d="M896.638,747.83h4.106v41.096h-4.106V747.83z"/>
	<path fill="#AEAAA3" d="M910.188,788.926V747.83h0.896l27.352,31.502V747.83h4.052v41.096h-0.922l-27.129-31.119v31.119H910.188z"
		/>
	<path fill="#AEAAA3" d="M992.129,754.73l-3.186,3.017c-2.291-2.253-4.802-3.962-7.529-5.126s-5.387-1.746-7.976-1.746
		c-3.224,0-6.29,0.791-9.206,2.375c-2.914,1.582-5.174,3.729-6.774,6.439c-1.603,2.709-2.402,5.572-2.402,8.59
		c0,3.092,0.828,6.031,2.486,8.813c1.657,2.785,3.948,4.974,6.872,6.566c2.924,1.592,6.128,2.389,9.611,2.389
		c4.228,0,7.804-1.191,10.729-3.576c2.924-2.385,4.655-5.477,5.195-9.274h-13.104v-3.968h17.714
		c-0.038,6.352-1.924,11.395-5.657,15.128c-3.734,3.733-8.73,5.602-14.988,5.602c-7.6,0-13.615-2.588-18.049-7.766
		c-3.408-3.986-5.112-8.597-5.112-13.83c0-3.894,0.979-7.516,2.935-10.867s4.638-5.975,8.046-7.865
		c3.408-1.89,7.264-2.835,11.565-2.835c3.482,0,6.762,0.628,9.834,1.886C986.206,749.938,989.205,751.955,992.129,754.73z"/>
	<path fill="#AEAAA3" d="M1014.145,751.854v-4.022h22.519v4.022h-9.164v37.072h-4.19v-37.072H1014.145z"/>
	<path fill="#AEAAA3" d="M1042.612,747.83h23.552v4.021h-19.445v12.881h19.277v4.021h-19.277v16.147h19.277v4.022h-23.384V747.83z"
		/>
	<path fill="#AEAAA3" d="M1111.535,755.457l-3.241,2.486c-1.788-2.328-3.935-4.095-6.438-5.295
		c-2.504-1.201-5.258-1.803-8.256-1.803c-3.278,0-6.313,0.787-9.107,2.36c-2.794,1.574-4.959,3.688-6.495,6.342
		c-1.537,2.654-2.305,5.64-2.305,8.955c0,5.01,1.717,9.191,5.153,12.543c3.437,3.354,7.771,5.029,13.004,5.029
		c5.757,0,10.57-2.254,14.444-6.761l3.241,2.458c-2.049,2.606-4.605,4.624-7.67,6.049c-3.063,1.425-6.486,2.137-10.268,2.137
		c-7.188,0-12.859-2.393-17.015-7.18c-3.482-4.041-5.224-8.921-5.224-14.64c0-6.016,2.108-11.077,6.328-15.185
		c4.218-4.106,9.503-6.16,15.854-6.16c3.836,0,7.301,0.759,10.393,2.276C1107.027,750.591,1109.561,752.719,1111.535,755.457z"/>
	<path fill="#AEAAA3" d="M1119.721,747.83h4.106v17.236h20.925V747.83h4.107v41.096h-4.107V769.09h-20.925v19.836h-4.106V747.83z"/>
	<path fill="#AEAAA3" d="M1158.889,788.926V747.83h0.896l27.352,31.502V747.83h4.052v41.096h-0.922l-27.129-31.119v31.119H1158.889z
		"/>
	<path fill="#AEAAA3" d="M1220.758,746.796c6.225,0,11.435,2.077,15.626,6.229c4.193,4.153,6.29,9.267,6.29,15.338
		c0,6.017-2.092,11.119-6.274,15.311c-4.186,4.19-9.286,6.285-15.308,6.285c-6.094,0-11.238-2.086-15.432-6.258
		c-4.192-4.172-6.289-9.219-6.289-15.144c0-3.946,0.955-7.606,2.865-10.979s4.515-6.012,7.812-7.921
		S1216.918,746.796,1220.758,746.796z M1220.939,750.791c-3.041,0-5.925,0.792-8.647,2.377c-2.724,1.584-4.851,3.719-6.38,6.402
		c-1.529,2.683-2.295,5.676-2.295,8.975c0,4.885,1.692,9.008,5.078,12.373c3.387,3.364,7.467,5.047,12.244,5.047
		c3.188,0,6.141-0.772,8.854-2.32c2.715-1.548,4.832-3.662,6.353-6.348c1.521-2.684,2.28-5.666,2.28-8.947
		c0-3.262-0.76-6.212-2.28-8.85c-1.521-2.637-3.66-4.748-6.423-6.332C1226.965,751.583,1224.035,750.791,1220.939,750.791z"/>
	<path fill="#AEAAA3" d="M1250.916,747.83h4.107v37.129h15.812v3.967h-19.92L1250.916,747.83L1250.916,747.83z"/>
	<path fill="#AEAAA3" d="M1296.916,746.796c6.225,0,11.434,2.077,15.627,6.229c4.193,4.153,6.289,9.267,6.289,15.338
		c0,6.017-2.092,11.119-6.275,15.311c-4.184,4.19-9.287,6.285-15.307,6.285c-6.094,0-11.238-2.086-15.432-6.258
		c-4.192-4.172-6.289-9.219-6.289-15.144c0-3.946,0.955-7.606,2.864-10.979c1.91-3.372,4.516-6.012,7.813-7.921
		S1293.076,746.796,1296.916,746.796z M1297.098,750.791c-3.041,0-5.924,0.792-8.646,2.377c-2.725,1.584-4.852,3.719-6.38,6.402
		c-1.529,2.683-2.295,5.676-2.295,8.975c0,4.885,1.692,9.008,5.077,12.373c3.388,3.364,7.468,5.047,12.244,5.047
		c3.189,0,6.142-0.772,8.855-2.32c2.715-1.548,4.832-3.662,6.352-6.348c1.521-2.684,2.281-5.666,2.281-8.947
		c0-3.262-0.76-6.212-2.281-8.85c-1.52-2.637-3.66-4.748-6.422-6.332C1303.123,751.583,1300.193,750.791,1297.098,750.791z"/>
	<path fill="#AEAAA3" d="M1366.718,754.73l-3.185,3.017c-2.291-2.253-4.803-3.962-7.529-5.126c-2.729-1.164-5.388-1.746-7.977-1.746
		c-3.224,0-6.291,0.791-9.205,2.375c-2.915,1.582-5.174,3.729-6.775,6.439c-1.602,2.709-2.402,5.572-2.402,8.59
		c0,3.092,0.828,6.031,2.486,8.813c1.657,2.785,3.948,4.974,6.873,6.566c2.924,1.592,6.127,2.389,9.61,2.389
		c4.228,0,7.804-1.191,10.728-3.576s4.656-5.477,5.196-9.274h-13.104v-3.968h17.714c-0.038,6.352-1.925,11.395-5.657,15.128
		c-3.734,3.733-8.73,5.602-14.989,5.602c-7.599,0-13.615-2.588-18.048-7.766c-3.408-3.986-5.112-8.597-5.112-13.83
		c0-3.894,0.979-7.516,2.934-10.867c1.956-3.352,4.639-5.975,8.047-7.865c3.407-1.89,7.264-2.835,11.565-2.835
		c3.482,0,6.761,0.628,9.834,1.886C1360.795,749.938,1363.793,751.955,1366.718,754.73z"/>
	<path fill="#AEAAA3" d="M1373.729,747.83h4.727l10.516,16.948l10.351-16.948h4.75l-13.021,21.455v19.641H1387v-19.641
		L1373.729,747.83z"/>
	<path fill="#AEAAA3" d="M1422.425,781.271l3.492-2.097c2.459,4.525,5.299,6.789,8.521,6.789c1.379,0,2.674-0.322,3.884-0.965
		c1.211-0.644,2.133-1.504,2.767-2.584c0.633-1.08,0.949-2.225,0.949-3.437c0-1.379-0.466-2.729-1.396-4.051
		c-1.285-1.826-3.632-4.022-7.04-6.594c-3.428-2.589-5.56-4.461-6.397-5.615c-1.452-1.938-2.179-4.033-2.179-6.287
		c0-1.787,0.428-3.417,1.284-4.889c0.856-1.471,2.062-2.631,3.618-3.479s3.245-1.271,5.07-1.271c1.937,0,3.748,0.479,5.434,1.438
		c1.687,0.959,3.47,2.725,5.352,5.295l-3.354,2.542c-1.546-2.05-2.862-3.399-3.953-4.053c-1.09-0.65-2.276-0.977-3.562-0.977
		c-1.657,0-3.013,0.502-4.064,1.508c-1.053,1.006-1.578,2.244-1.578,3.716c0,0.895,0.187,1.762,0.56,2.6
		c0.372,0.838,1.052,1.75,2.039,2.736c0.54,0.522,2.31,1.892,5.309,4.106c3.558,2.627,5.996,4.965,7.319,7.013
		c1.322,2.05,1.982,4.106,1.982,6.175c0,2.98-1.132,5.568-3.395,7.767c-2.263,2.199-5.015,3.297-8.256,3.297
		c-2.496,0-4.759-0.666-6.788-1.997C1426.011,786.631,1424.139,784.4,1422.425,781.271z"/>
	<path fill="#AEAAA3" d="M1455.141,747.83h8.187c4.694,0,7.86,0.205,9.499,0.613c2.347,0.578,4.265,1.766,5.756,3.562
		c1.489,1.798,2.234,4.058,2.234,6.775c0,2.737-0.728,4.996-2.18,6.773c-1.453,1.779-3.455,2.977-6.007,3.591
		c-1.862,0.446-5.346,0.671-10.448,0.671h-2.934v19.108h-4.107V747.83L1455.141,747.83z M1459.248,751.854v13.939l6.956,0.084
		c2.812,0,4.87-0.256,6.175-0.766c1.303-0.513,2.327-1.339,3.072-2.482c0.745-1.143,1.118-2.421,1.118-3.834
		c0-1.375-0.373-2.635-1.118-3.777c-0.745-1.144-1.729-1.956-2.947-2.438c-1.22-0.484-3.218-0.726-5.992-0.726H1459.248z"/>
	<path fill="#AEAAA3" d="M1489.057,747.83h23.553v4.021h-19.444v12.881h19.277v4.021h-19.277v16.147h19.277v4.022h-23.386V747.83z"
		/>
	<path fill="#AEAAA3" d="M1557.979,755.457l-3.239,2.486c-1.788-2.328-3.937-4.095-6.44-5.295c-2.504-1.201-5.257-1.803-8.255-1.803
		c-3.278,0-6.313,0.787-9.108,2.36c-2.793,1.574-4.959,3.688-6.494,6.342c-1.536,2.654-2.306,5.64-2.306,8.955
		c0,5.01,1.718,9.191,5.154,12.543c3.437,3.354,7.771,5.029,13.005,5.029c5.755,0,10.569-2.254,14.444-6.761l3.239,2.458
		c-2.049,2.606-4.604,4.624-7.668,6.049c-3.064,1.425-6.486,2.137-10.268,2.137c-7.189,0-12.861-2.393-17.015-7.18
		c-3.482-4.041-5.225-8.921-5.225-14.64c0-6.016,2.108-11.077,6.327-15.185s9.504-6.16,15.854-6.16
		c3.837,0,7.302,0.759,10.394,2.276C1553.472,750.591,1556.005,752.719,1557.979,755.457z"/>
	<path fill="#AEAAA3" d="M1565.634,747.83h4.107v41.096h-4.107V747.83z"/>
	<path fill="#AEAAA3" d="M1595.946,747.83l19.166,41.096h-4.438l-6.464-13.521h-17.704l-6.4,13.521h-4.582l19.417-41.096H1595.946z
		 M1595.428,756.561l-7.042,14.877h14.052L1595.428,756.561z"/>
	<path fill="#AEAAA3" d="M1621.48,747.83h4.106v37.129h15.813v3.967h-19.921L1621.48,747.83L1621.48,747.83z"/>
	<path fill="#AEAAA3" d="M1647.324,747.83h4.106v41.096h-4.106V747.83z"/>
	<path fill="#AEAAA3" d="M1656.599,781.271l3.492-2.097c2.459,4.525,5.299,6.789,8.521,6.789c1.378,0,2.673-0.322,3.883-0.965
		c1.211-0.644,2.133-1.504,2.767-2.584c0.633-1.08,0.949-2.225,0.949-3.437c0-1.379-0.466-2.729-1.396-4.051
		c-1.284-1.826-3.632-4.022-7.039-6.594c-3.429-2.589-5.561-4.461-6.398-5.615c-1.452-1.938-2.179-4.033-2.179-6.287
		c0-1.787,0.428-3.417,1.285-4.889c0.855-1.471,2.062-2.631,3.618-3.479c1.555-0.848,3.244-1.271,5.069-1.271
		c1.938,0,3.748,0.479,5.435,1.438c1.686,0.959,3.469,2.725,5.351,5.295l-3.354,2.542c-1.546-2.05-2.862-3.399-3.952-4.053
		c-1.091-0.65-2.277-0.977-3.562-0.977c-1.657,0-3.013,0.502-4.064,1.508c-1.053,1.006-1.578,2.244-1.578,3.716
		c0,0.895,0.187,1.762,0.56,2.6c0.372,0.838,1.052,1.75,2.039,2.736c0.54,0.522,2.31,1.892,5.309,4.106
		c3.558,2.627,5.996,4.965,7.319,7.013c1.322,2.05,1.983,4.106,1.983,6.175c0,2.98-1.132,5.568-3.396,7.767
		c-2.263,2.199-5.015,3.297-8.256,3.297c-2.496,0-4.759-0.666-6.788-1.997C1660.186,786.631,1658.312,784.4,1656.599,781.271z"/>
	<path fill="#AEAAA3" d="M1685.264,751.854v-4.022h22.519v4.022h-9.163v37.072h-4.19v-37.072H1685.264z"/>
</g>
<g>
	<path fill="#AEAAA3" d="M28.128,106.341h7.514v3.472c1.294-1.413,2.728-2.473,4.303-3.172c1.577-0.698,3.296-1.048,5.156-1.048
		c1.882,0,3.58,0.462,5.089,1.382c1.51,0.921,2.729,2.265,3.651,4.035c1.197-1.77,2.667-3.113,4.409-4.035
		c1.74-0.92,3.649-1.382,5.711-1.382c2.138,0,4.02,0.495,5.643,1.489c1.623,0.99,2.784,2.287,3.498,3.878
		c0.709,1.598,1.062,4.196,1.062,7.791v17.563h-7.516v-15.174c0-3.393-0.428-5.685-1.289-6.89c-0.86-1.199-2.147-1.8-3.865-1.8
		c-1.312,0-2.484,0.367-3.521,1.099c-1.04,0.736-1.811,1.75-2.31,3.043c-0.507,1.289-0.757,3.364-0.757,6.22v13.5h-7.517v-14.48
		c0-2.682-0.199-4.618-0.597-5.82c-0.394-1.199-0.993-2.092-1.789-2.679c-0.792-0.587-1.752-0.881-2.876-0.881
		c-1.256,0-2.394,0.372-3.422,1.112c-1.023,0.743-1.788,1.787-2.298,3.122c-0.506,1.338-0.764,3.447-0.764,6.321v13.306h-7.514
		L28.128,106.341L28.128,106.341z"/>
	<path fill="#AEAAA3" d="M118.864,112.323l-6.048,3.294c-1.137-1.19-2.258-2.02-3.367-2.487c-1.11-0.467-2.414-0.701-3.904-0.701
		c-2.715,0-4.912,0.827-6.591,2.462c-1.676,1.639-2.518,3.743-2.518,6.302c0,2.492,0.809,4.524,2.422,6.102
		c1.61,1.578,3.73,2.312,6.35,2.362c4.419,0.093,7.23-2.82,9.037-5.068l5.716,3.937c-3.109,4.061-6.928,7.789-14.614,7.789
		c-5.095,0-9.083-1.51-11.966-4.535c-2.885-3.03-4.328-6.563-4.328-10.625c0-2.812,0.701-5.396,2.106-7.767
		c1.405-2.365,3.362-4.227,5.88-5.584c2.516-1.349,5.327-2.028,8.435-2.028c2.883,0,5.47,0.568,7.766,1.703
		C115.53,108.614,117.404,110.228,118.864,112.323L118.864,112.323z"/>
	<path fill="#AEAAA3" d="M117.613,105.772h7.497v14.469c0,2.815,0.197,4.769,0.586,5.864c0.396,1.098,1.035,1.949,1.904,2.556
		c0.871,0.606,1.949,0.905,3.224,0.905c1.276,0,2.358-0.299,3.245-0.896c0.896-0.595,1.56-1.468,1.99-2.634
		c0.32-0.865,0.48-2.717,0.48-5.549v-14.716h7.49v12.655c0,5.22-0.411,8.79-1.242,10.705c-1.012,2.345-2.499,4.142-4.473,5.399
		c-1.976,1.246-4.479,1.875-7.519,1.875c-3.301,0-5.967-0.729-8.002-2.192c-2.035-1.469-3.471-3.503-4.297-6.124
		c-0.595-1.805-0.885-5.105-0.885-9.88L117.613,105.772L117.613,105.772z"/>
	<path fill="#AEAAA3" d="M160.463,112.578c-2.314,0-4.234,0.796-5.76,2.388c-1.523,1.586-2.287,3.668-2.287,6.228
		c0,2.621,0.764,4.729,2.287,6.353c1.523,1.611,3.443,2.418,5.76,2.418c2.237,0,4.123-0.817,5.655-2.46
		c1.534-1.646,2.302-3.738,2.302-6.281c0-2.527-0.752-4.6-2.256-6.217C164.658,113.391,162.752,112.578,160.463,112.578
		L160.463,112.578z M152.789,95.289v14.524c1.33-1.312,2.768-2.297,4.316-2.962c1.549-0.655,3.203-0.982,4.971-0.982
		c3.828,0,7.09,1.447,9.771,4.334c2.686,2.894,4.018,6.603,4.018,11.124c0,4.362-1.377,8.014-4.154,10.946
		c-2.77,2.938-6.061,4.406-9.857,4.406c-1.693,0-3.261-0.298-4.724-0.902c-1.459-0.594-2.905-1.573-4.341-2.928v3.096h-7.362V95.289
		H152.789L152.789,95.289z"/>
	<path fill="#AEAAA3" d="M198.271,117.515c-0.486-1.631-1.436-2.955-2.862-3.973c-1.423-1.018-3.071-1.531-4.95-1.531
		c-2.039,0-3.831,0.574-5.37,1.72c-0.966,0.715-1.86,1.975-2.685,3.784H198.271L198.271,117.515z M205.581,123.202h-23.545
		c0.34,2.103,1.247,3.772,2.722,5.014c1.471,1.241,3.348,1.858,5.639,1.858c2.727,0,5.074-0.969,7.035-2.904l6.158,2.898
		c-1.537,2.188-3.373,3.804-5.52,4.857c-2.131,1.047-4.676,1.574-7.619,1.574c-4.571,0-8.295-1.452-11.169-4.341
		c-2.871-2.894-4.306-6.511-4.306-10.864c0-4.458,1.435-8.158,4.299-11.102c2.875-2.947,6.476-4.422,10.803-4.422
		c4.594,0,8.336,1.47,11.207,4.404c2.881,2.938,4.318,6.814,4.318,11.632L205.581,123.202L205.581,123.202z"/>
	<path fill="#AEAAA3" d="M83.369,106.096c0,2.348-2.228,4.257-4.982,4.257c-2.75,0-4.983-1.909-4.983-4.257
		c0-5.09,4.929-10.824,4.983-10.862C78.426,95.194,83.369,101.75,83.369,106.096L83.369,106.096z M74.416,103.394
		c-0.586,0.949-0.895,2.552-0.351,3.736c0.42,0.918,0.725,1.169,0.86,1.221c0.367,0.123,1.236-0.333,1.515-0.829
		c0.074-0.133-0.199-0.031-1.023-1.422C74.836,105.125,74.416,103.394,74.416,103.394L74.416,103.394z M75.232,108.678
		c-0.023,0.005,0.722,0.715,1.481,1.001c0.029,0.014,0.848-0.139,1.192-1.137c-0.316-0.198-1.22-0.799-1.226-0.791
		C76.402,108.127,75.652,108.605,75.232,108.678L75.232,108.678z"/>
	<g>
		<path fill="#AEAAA3" d="M215.068,107.125v0.934h-2.635v6.881h-1.068v-6.881h-2.635v-0.934H215.068z"/>
		<path fill="#AEAAA3" d="M216.016,107.125h1.521l2.241,6.608l2.23-6.608h1.506v7.815h-1.011v-4.61c0-0.162,0.004-0.423,0.013-0.796
			c0.006-0.367,0.01-0.763,0.01-1.186l-2.23,6.591h-1.046l-2.254-6.591v0.24c0,0.192,0.006,0.484,0.019,0.876
			c0.01,0.39,0.014,0.679,0.014,0.866v4.61h-1.01v-7.815H216.016z"/>
	</g>
</g>
<g>
	<path fill="#AEAAA3" d="M34.093,144.152l-0.588,0.451c-0.324-0.422-0.713-0.744-1.167-0.961c-0.455-0.219-0.953-0.326-1.497-0.326
		c-0.595,0-1.145,0.143-1.652,0.428c-0.506,0.285-0.899,0.669-1.178,1.15c-0.279,0.479-0.418,1.021-0.418,1.623
		c0,0.908,0.312,1.666,0.935,2.273s1.41,0.913,2.358,0.913c1.043,0,1.917-0.409,2.619-1.228l0.588,0.446
		c-0.372,0.474-0.835,0.838-1.391,1.097c-0.556,0.258-1.176,0.387-1.862,0.387c-1.304,0-2.332-0.434-3.085-1.301
		c-0.632-0.732-0.947-1.617-0.947-2.654c0-1.092,0.383-2.01,1.147-2.754c0.765-0.744,1.723-1.116,2.875-1.116
		c0.696,0,1.324,0.138,1.885,0.412C33.276,143.27,33.735,143.654,34.093,144.152z"/>
	<path fill="#AEAAA3" d="M39.137,142.582c1.128,0,2.073,0.376,2.833,1.129c0.761,0.754,1.141,1.682,1.141,2.782
		c0,1.09-0.38,2.016-1.139,2.774c-0.758,0.762-1.683,1.141-2.775,1.141c-1.105,0-2.038-0.379-2.798-1.135
		c-0.76-0.756-1.141-1.672-1.141-2.746c0-0.715,0.173-1.379,0.52-1.99c0.347-0.611,0.819-1.09,1.417-1.438
		C37.793,142.753,38.44,142.582,39.137,142.582z M39.169,143.307c-0.552,0-1.074,0.145-1.568,0.43
		c-0.494,0.289-0.879,0.676-1.157,1.162c-0.277,0.486-0.416,1.028-0.416,1.627c0,0.887,0.307,1.634,0.921,2.244
		c0.614,0.609,1.354,0.914,2.22,0.914c0.578,0,1.114-0.14,1.606-0.42c0.492-0.279,0.876-0.664,1.152-1.15
		c0.276-0.486,0.414-1.027,0.414-1.622c0-0.593-0.138-1.127-0.414-1.604c-0.276-0.479-0.664-0.861-1.165-1.148
		C40.262,143.45,39.731,143.307,39.169,143.307z"/>
	<path fill="#AEAAA3" d="M48.154,142.582c1.129,0,2.073,0.376,2.834,1.129c0.76,0.754,1.141,1.682,1.141,2.782
		c0,1.09-0.379,2.016-1.138,2.774c-0.759,0.762-1.684,1.141-2.775,1.141c-1.105,0-2.038-0.379-2.798-1.135
		c-0.76-0.756-1.14-1.672-1.14-2.746c0-0.715,0.173-1.379,0.519-1.99c0.347-0.611,0.819-1.09,1.417-1.438
		C46.812,142.753,47.458,142.582,48.154,142.582z M48.187,143.307c-0.552,0-1.074,0.145-1.568,0.43
		c-0.494,0.289-0.879,0.676-1.157,1.162c-0.277,0.486-0.416,1.028-0.416,1.627c0,0.887,0.307,1.634,0.921,2.244
		c0.613,0.609,1.354,0.914,2.22,0.914c0.579,0,1.114-0.14,1.605-0.42c0.493-0.279,0.876-0.664,1.152-1.15
		c0.276-0.486,0.414-1.027,0.414-1.622c0-0.593-0.138-1.127-0.414-1.604c-0.275-0.479-0.664-0.861-1.164-1.148
		C49.28,143.45,48.749,143.307,48.187,143.307z"/>
	<path fill="#AEAAA3" d="M53.623,142.77h0.745v6.732h2.867v0.719h-3.612V142.77z"/>
	<path fill="#AEAAA3" d="M58.309,142.77h0.744v7.451h-0.744V142.77z"/>
	<path fill="#AEAAA3" d="M60.766,150.221v-7.451h0.162l4.959,5.713v-5.713h0.734v7.451h-0.167l-4.919-5.643v5.643H60.766z"/>
	<path fill="#AEAAA3" d="M75.625,144.021l-0.578,0.547c-0.415-0.409-0.87-0.719-1.365-0.93c-0.495-0.212-0.977-0.316-1.446-0.316
		c-0.584,0-1.141,0.144-1.669,0.431c-0.529,0.287-0.938,0.677-1.229,1.168s-0.436,1.011-0.436,1.558c0,0.561,0.15,1.095,0.451,1.6
		c0.3,0.504,0.716,0.9,1.246,1.189c0.53,0.289,1.111,0.434,1.743,0.434c0.767,0,1.415-0.217,1.946-0.648
		c0.53-0.432,0.844-0.992,0.942-1.682h-2.376v-0.721h3.212c-0.007,1.151-0.349,2.066-1.026,2.744
		c-0.677,0.678-1.583,1.016-2.718,1.016c-1.378,0-2.469-0.469-3.273-1.407c-0.618-0.724-0.927-1.56-0.927-2.508
		c0-0.706,0.177-1.363,0.532-1.972c0.354-0.607,0.841-1.084,1.459-1.426c0.618-0.344,1.317-0.515,2.098-0.515
		c0.631,0,1.226,0.112,1.783,0.342C74.551,143.15,75.095,143.518,75.625,144.021z"/>
	<path fill="#AEAAA3" d="M79.617,143.499v-0.729H83.7v0.729h-1.662v6.722h-0.76v-6.722H79.617z"/>
	<path fill="#AEAAA3" d="M84.779,142.77h4.271v0.729h-3.526v2.335h3.496v0.729h-3.496v2.929h3.496v0.729h-4.24L84.779,142.77
		L84.779,142.77z"/>
	<path fill="#AEAAA3" d="M97.277,144.152l-0.588,0.451c-0.324-0.422-0.713-0.744-1.167-0.961c-0.455-0.219-0.953-0.326-1.497-0.326
		c-0.595,0-1.145,0.143-1.652,0.428c-0.506,0.285-0.899,0.669-1.178,1.15c-0.279,0.479-0.418,1.021-0.418,1.623
		c0,0.908,0.312,1.666,0.935,2.273s1.409,0.913,2.358,0.913c1.043,0,1.917-0.409,2.619-1.228l0.588,0.446
		c-0.372,0.474-0.835,0.838-1.391,1.097c-0.556,0.258-1.176,0.387-1.862,0.387c-1.304,0-2.332-0.434-3.085-1.301
		c-0.631-0.732-0.947-1.617-0.947-2.654c0-1.092,0.383-2.01,1.147-2.754c0.765-0.744,1.723-1.116,2.875-1.116
		c0.696,0,1.324,0.138,1.885,0.412C96.459,143.27,96.919,143.654,97.277,144.152z"/>
	<path fill="#AEAAA3" d="M98.761,142.77h0.745v3.125h3.795v-3.125h0.745v7.451h-0.745v-3.597h-3.795v3.597h-0.745V142.77z"/>
	<path fill="#AEAAA3" d="M105.864,150.221v-7.451h0.162l4.959,5.713v-5.713h0.735v7.451h-0.167l-4.919-5.643v5.643H105.864z"/>
	<path fill="#AEAAA3" d="M117.083,142.582c1.129,0,2.073,0.376,2.833,1.129c0.76,0.754,1.141,1.682,1.141,2.782
		c0,1.09-0.379,2.016-1.138,2.774c-0.759,0.762-1.684,1.141-2.776,1.141c-1.105,0-2.038-0.379-2.798-1.135
		c-0.76-0.756-1.14-1.672-1.14-2.746c0-0.715,0.173-1.379,0.52-1.99c0.346-0.611,0.818-1.09,1.417-1.438
		C115.739,142.754,116.387,142.582,117.083,142.582z M117.116,143.307c-0.551,0-1.074,0.145-1.568,0.43
		c-0.494,0.289-0.88,0.676-1.157,1.162c-0.277,0.486-0.417,1.028-0.417,1.627c0,0.887,0.308,1.634,0.921,2.244
		c0.614,0.609,1.354,0.914,2.22,0.914c0.578,0,1.114-0.14,1.606-0.42c0.493-0.279,0.876-0.664,1.152-1.15s0.414-1.027,0.414-1.622
		c0-0.593-0.138-1.127-0.414-1.604c-0.276-0.479-0.664-0.861-1.165-1.148C118.208,143.45,117.677,143.307,117.116,143.307z"/>
	<path fill="#AEAAA3" d="M122.552,142.77h0.745v6.732h2.868v0.719h-3.612L122.552,142.77L122.552,142.77z"/>
	<path fill="#AEAAA3" d="M130.893,142.582c1.129,0,2.074,0.376,2.834,1.129c0.76,0.754,1.142,1.682,1.142,2.782
		c0,1.09-0.379,2.016-1.138,2.774c-0.76,0.762-1.686,1.141-2.776,1.141c-1.104,0-2.037-0.379-2.798-1.135
		c-0.76-0.756-1.141-1.672-1.141-2.746c0-0.715,0.172-1.379,0.521-1.99c0.346-0.611,0.817-1.09,1.416-1.438
		C129.55,142.754,130.197,142.582,130.893,142.582z M130.926,143.307c-0.551,0-1.074,0.145-1.566,0.43
		c-0.494,0.289-0.881,0.676-1.157,1.162c-0.277,0.486-0.416,1.028-0.416,1.627c0,0.887,0.308,1.634,0.921,2.244
		c0.613,0.609,1.354,0.914,2.22,0.914c0.578,0,1.113-0.14,1.605-0.42c0.493-0.279,0.877-0.664,1.151-1.15
		c0.275-0.486,0.414-1.027,0.414-1.622c0-0.593-0.139-1.127-0.414-1.604c-0.274-0.479-0.664-0.861-1.164-1.148
		C132.02,143.45,131.488,143.307,130.926,143.307z"/>
	<path fill="#AEAAA3" d="M143.55,144.021l-0.575,0.547c-0.416-0.409-0.871-0.719-1.365-0.93c-0.496-0.212-0.979-0.316-1.447-0.316
		c-0.584,0-1.141,0.144-1.669,0.431c-0.529,0.287-0.938,0.677-1.229,1.168s-0.436,1.011-0.436,1.558c0,0.561,0.15,1.095,0.451,1.6
		c0.301,0.504,0.715,0.9,1.246,1.189c0.529,0.289,1.11,0.434,1.742,0.434c0.768,0,1.416-0.217,1.944-0.648
		c0.53-0.432,0.845-0.992,0.942-1.682h-2.377v-0.721h3.213c-0.008,1.151-0.35,2.066-1.025,2.744
		c-0.678,0.678-1.583,1.016-2.718,1.016c-1.379,0-2.47-0.469-3.272-1.407c-0.619-0.724-0.929-1.56-0.929-2.508
		c0-0.706,0.179-1.363,0.533-1.972c0.354-0.607,0.841-1.084,1.459-1.426c0.618-0.344,1.315-0.515,2.097-0.515
		c0.633,0,1.227,0.112,1.783,0.342C142.477,143.15,143.021,143.518,143.55,144.021z"/>
	<path fill="#AEAAA3" d="M144.822,142.77h0.855l1.907,3.073l1.877-3.073h0.86l-2.36,3.891v3.562h-0.733v-3.562L144.822,142.77z"/>
	<path fill="#AEAAA3" d="M153.652,148.833l0.633-0.38c0.445,0.82,0.961,1.23,1.546,1.23c0.25,0,0.483-0.06,0.704-0.175
		c0.219-0.116,0.386-0.272,0.501-0.469c0.114-0.196,0.173-0.404,0.173-0.624c0-0.249-0.085-0.494-0.253-0.732
		c-0.233-0.332-0.659-0.729-1.278-1.197c-0.619-0.469-1.007-0.809-1.158-1.018c-0.264-0.352-0.396-0.73-0.396-1.141
		c0-0.324,0.078-0.619,0.232-0.887c0.156-0.268,0.375-0.479,0.656-0.631c0.282-0.153,0.59-0.229,0.92-0.229
		c0.352,0,0.68,0.087,0.985,0.261s0.629,0.494,0.97,0.96l-0.607,0.46c-0.279-0.371-0.52-0.615-0.717-0.732
		c-0.197-0.118-0.414-0.178-0.646-0.178c-0.301,0-0.547,0.092-0.736,0.272c-0.191,0.183-0.287,0.407-0.287,0.674
		c0,0.162,0.033,0.319,0.103,0.472c0.067,0.151,0.19,0.317,0.369,0.496c0.098,0.096,0.419,0.344,0.963,0.744
		c0.646,0.477,1.087,0.9,1.328,1.271c0.237,0.371,0.358,0.744,0.358,1.119c0,0.541-0.205,1.011-0.615,1.41
		c-0.41,0.396-0.909,0.597-1.498,0.597c-0.451,0-0.862-0.12-1.229-0.361C154.303,149.805,153.963,149.4,153.652,148.833z"/>
	<path fill="#AEAAA3" d="M159.585,142.77h1.483c0.853,0,1.426,0.037,1.724,0.111c0.425,0.104,0.772,0.319,1.043,0.646
		c0.271,0.326,0.405,0.736,0.405,1.229c0,0.497-0.133,0.906-0.395,1.229c-0.265,0.324-0.628,0.541-1.091,0.651
		c-0.337,0.08-0.97,0.121-1.896,0.121h-0.531v3.466h-0.744L159.585,142.77L159.585,142.77z M160.329,143.499v2.526l1.263,0.016
		c0.51,0,0.883-0.046,1.119-0.139c0.234-0.092,0.422-0.242,0.559-0.449c0.133-0.208,0.201-0.439,0.201-0.695
		c0-0.25-0.068-0.479-0.201-0.686c-0.137-0.207-0.313-0.354-0.535-0.441c-0.223-0.089-0.584-0.132-1.086-0.132H160.329
		L160.329,143.499z"/>
	<path fill="#AEAAA3" d="M165.734,142.77h4.271v0.729h-3.525v2.335h3.494v0.729h-3.494v2.929h3.494v0.729h-4.238v-7.451H165.734z"/>
	<path fill="#AEAAA3" d="M178.232,144.152l-0.588,0.451c-0.324-0.422-0.713-0.744-1.168-0.961c-0.453-0.219-0.953-0.326-1.496-0.326
		c-0.596,0-1.146,0.143-1.651,0.428s-0.899,0.669-1.179,1.15c-0.277,0.479-0.418,1.021-0.418,1.623c0,0.908,0.312,1.666,0.936,2.273
		c0.622,0.607,1.408,0.913,2.357,0.913c1.043,0,1.916-0.409,2.619-1.228l0.588,0.446c-0.371,0.474-0.836,0.838-1.391,1.097
		c-0.556,0.258-1.176,0.387-1.861,0.387c-1.305,0-2.332-0.434-3.086-1.301c-0.631-0.732-0.947-1.617-0.947-2.654
		c0-1.092,0.384-2.01,1.148-2.754c0.764-0.744,1.723-1.116,2.875-1.116c0.695,0,1.322,0.138,1.885,0.412
		C177.415,143.27,177.875,143.654,178.232,144.152z"/>
	<path fill="#AEAAA3" d="M179.621,142.77h0.745v7.451h-0.745V142.77z"/>
	<path fill="#AEAAA3" d="M185.117,142.77l3.476,7.451h-0.804l-1.173-2.451h-3.21l-1.16,2.451h-0.832l3.521-7.451H185.117z
		 M185.023,144.354l-1.276,2.696h2.547L185.023,144.354z"/>
	<path fill="#AEAAA3" d="M189.749,142.77h0.744v6.732h2.866v0.719h-3.61V142.77z"/>
	<path fill="#AEAAA3" d="M194.436,142.77h0.744v7.451h-0.744V142.77z"/>
	<path fill="#AEAAA3" d="M196.116,148.833l0.634-0.38c0.445,0.82,0.96,1.23,1.544,1.23c0.25,0,0.485-0.06,0.704-0.175
		c0.22-0.116,0.389-0.272,0.503-0.469s0.171-0.404,0.171-0.624c0-0.249-0.084-0.494-0.253-0.732
		c-0.231-0.332-0.657-0.729-1.276-1.197c-0.621-0.469-1.008-0.809-1.16-1.018c-0.264-0.352-0.395-0.73-0.395-1.141
		c0-0.324,0.076-0.619,0.232-0.887c0.154-0.268,0.373-0.479,0.656-0.631c0.28-0.153,0.588-0.229,0.918-0.229
		c0.353,0,0.681,0.087,0.985,0.261c0.308,0.174,0.629,0.494,0.972,0.96l-0.608,0.46c-0.28-0.371-0.519-0.615-0.718-0.732
		c-0.196-0.118-0.412-0.178-0.646-0.178c-0.301,0-0.547,0.092-0.737,0.272c-0.19,0.183-0.285,0.407-0.285,0.674
		c0,0.162,0.033,0.319,0.102,0.472c0.066,0.151,0.189,0.317,0.37,0.496c0.099,0.096,0.418,0.344,0.962,0.744
		c0.645,0.477,1.088,0.9,1.327,1.271s0.36,0.744,0.36,1.119c0,0.541-0.207,1.011-0.617,1.41c-0.409,0.396-0.908,0.597-1.496,0.597
		c-0.453,0-0.862-0.12-1.23-0.361C196.768,149.805,196.427,149.4,196.116,148.833z"/>
	<path fill="#AEAAA3" d="M201.312,143.499v-0.729h4.084v0.729h-1.662v6.722h-0.76v-6.722H201.312z"/>
</g>
</svg>
