<?xml version="1.0" encoding="utf-8"?>
<!-- Generator: Adobe Illustrator 16.0.0, SVG Export Plug-In . SVG Version: 6.00 Build 0)  -->
<!DOCTYPE svg PUBLIC "-//W3C//DTD SVG 1.1//EN" "http://www.w3.org/Graphics/SVG/1.1/DTD/svg11.dtd">
<svg version="1.1" id="Layer_1" xmlns="http://www.w3.org/2000/svg" xmlns:xlink="http://www.w3.org/1999/xlink" x="0px" y="0px"
	 width="240px" height="239px" viewBox="0 0 240 239" enable-background="new 0 0 240 239" xml:space="preserve">
<g>
	<path fill-rule="evenodd" clip-rule="evenodd" fill="#AEAAA3" d="M68.345,105.711c1.625,10.037,1.844,23.348,0.078,33.386
		C66.897,129.005,67.185,115.973,68.345,105.711"/>
	<path fill-rule="evenodd" clip-rule="evenodd" fill="#AEAAA3" d="M109.527,121.46c-0.47,0.49-1.354,0.192-2.127,0.157
		c-1.126-0.052-2.463,0.247-3.386-0.077c0.176-0.586,1.136-0.388,1.34-0.945c0.001-1.004-0.51-1.596-0.866-2.442
		c-0.295-0.698-0.509-1.864-1.104-2.125c-0.769-0.341-2.185-0.08-3.15-0.08c-0.8,0-2.326-0.189-2.914,0.236
		c-0.344,0.251-0.752,1.264-1.023,1.811c-0.441,0.9-1.071,1.943-0.55,2.678c0.345,0.49,0.856,0.256,1.338,0.708
		c-0.234,0.618-1.19,0.271-1.89,0.236c-0.854-0.042-2.019,0.263-2.676-0.077c0.058-0.559,0.723-0.441,1.101-0.709
		c0.772-0.549,1.356-2.323,1.89-3.387c0.625-1.243,1.293-2.417,1.812-3.465c1.325-2.678,2.547-5.172,3.781-7.165
		c0.022,0.007,0.055-0.008,0.077,0c0.674,0.258,1.333,2.47,1.732,3.386c1.116,2.553,2.035,4.553,3.152,7.087
		c0.435,0.992,0.907,2.771,1.653,3.386C108.334,121.184,109.054,120.765,109.527,121.46 M97.951,114.924
		c1.526,0.132,3.594,0.132,5.118,0c-0.817-1.779-1.443-3.751-2.518-5.275C99.73,111.453,98.689,113.038,97.951,114.924"/>
	<path fill-rule="evenodd" clip-rule="evenodd" fill="#AEAAA3" d="M182.362,121.46c-0.464,0.49-1.354,0.192-2.126,0.157
		c-1.097-0.051-2.428,0.247-3.308-0.077c0.14-0.65,1.164-0.411,1.338-1.024c-0.219-0.944-0.546-1.694-0.865-2.442
		c-0.229-0.535-0.662-1.824-1.182-2.046c-0.724-0.315-1.979-0.08-2.913-0.08c-0.952,0-2.084-0.198-2.835,0.08
		c-0.691,0.255-1.048,1.525-1.259,1.967c-0.289,0.604-0.982,1.551-0.787,2.362c0.187,0.77,1.067,0.534,1.573,1.104
		c-0.666,0.5-1.879,0.117-2.912,0.157c-0.589,0.022-1.255,0.271-1.652-0.077c0.011-0.569,0.665-0.457,1.021-0.709
		c0.644-0.454,1.431-2.276,1.971-3.308c1.226-2.343,2.377-4.691,3.543-7.009c0.666-1.325,1.347-2.985,2.047-3.7
		c0.021,0.008,0.061-0.012,0.08,0c0.626,0.357,1.312,2.518,1.73,3.464c1.123,2.532,2.024,4.715,3.152,7.246
		c0.441,1.002,1.023,2.836,1.889,3.308C181.449,121.148,181.951,120.799,182.362,121.46 M170.865,115.002
		c1.657-0.051,3.516,0.104,5.04-0.078c-0.672-1.821-1.53-3.455-2.282-5.197c-0.103-0.005-0.11-0.101-0.237-0.079
		C172.601,111.438,171.39,113.215,170.865,115.002"/>
	<path fill-rule="evenodd" clip-rule="evenodd" fill="#AEAAA3" d="M84.96,107.286c-0.202,0.591-1.055,0.346-1.417,0.866
		c-0.643,0.921-0.238,4.576-0.238,6.065c0,2.356-0.058,4.505,0.08,6.14c1.917,0.865,4.748,0.274,6.299-0.551
		c0.643-0.342,1.04-0.899,1.654-1.101c0.032,1.247-0.995,2.844-2.283,2.991c-0.877,0.101-2.138,0.049-3.307,0
		c-2.135-0.091-4.407,0.077-5.906-0.156c0.186-0.646,1.104-0.469,1.417-1.024c0.562-0.992,0.159-4.459,0.159-5.906v-6.063
		c-0.263-0.735-1.578-0.417-1.812-1.181c-0.004-0.135,0.059-0.204,0.157-0.238c0.58-0.068,1.815,0,2.836,0
		C83.521,107.127,84.46,106.923,84.96,107.286"/>
	<path fill-rule="evenodd" clip-rule="evenodd" fill="#AEAAA3" d="M123.937,118.625c-0.574-2.74,1.097-9.228-0.788-10.551
		c-0.516-0.364-1.206-0.185-1.731-0.708c0.351-0.523,1.494-0.238,2.361-0.238c0.97,0,1.948-0.123,2.521,0.08
		c-0.047,0.61-0.934,0.63-1.182,1.103c-0.351,0.671-0.156,2.183-0.156,3.307c0,3.235,0.062,7.365-0.078,10.159
		c-1.298-0.438-2.015-1.699-2.916-2.598c-2.713-2.713-5.389-5.616-8.268-8.269c-0.139,1.22-0.078,2.999-0.078,4.881
		c0,1.609-0.343,3.881,0.237,4.726c0.463,0.676,1.291,0.27,1.731,0.944c-0.352,0.494-1.117,0.186-1.731,0.157
		c-1.155-0.052-2.453,0.25-3.308-0.077c0.598-0.819,1.734-0.667,1.969-1.969c0.184-1.021,0-2.755,0-4.646
		c0-2.797,0.411-5.972-1.182-6.929c-0.626-0.376-1.45-0.076-1.496-0.788c0.192-0.009,1.991-0.282,2.521-0.155
		c0.64,0.15,2.522,2.317,2.991,2.832C118.076,112.86,121.322,115.899,123.937,118.625"/>
	<path fill-rule="evenodd" clip-rule="evenodd" fill="#AEAAA3" d="M128.817,121.617c0.163-0.561,1.176-0.534,1.497-1.261
		c0.531-1.197,0.157-3.949,0.157-5.982c0-2.058,0.404-4.866-0.157-5.985c-0.404-0.804-1.667-0.462-1.654-1.262
		c2.017,0.106,4.97-0.131,7.167-0.075c4.132,0.1,7.503,2.381,7.874,5.983c0.54,5.229-2.53,8.349-7.562,8.661
		C133.842,121.838,131.513,121.533,128.817,121.617 M132.441,120.121c3.007,2.094,7.238,0.644,8.66-1.574
		c1.208-1.883,1.129-5.191,0.156-7.166c-0.974-1.987-3.373-3.519-5.904-3.702c-1.067-0.077-2.313-0.056-2.835,0.315
		C132.207,111.701,132.36,116.286,132.441,120.121"/>
	<path fill-rule="evenodd" clip-rule="evenodd" fill="#AEAAA3" d="M148.19,107.052c2.226,3.7,3.885,7.975,6.14,11.653
		c2.399-3.691,4.128-8.051,6.613-11.653c0.733,0.289,2.038-0.231,2.442,0.233c-0.462,0.674-1.54,0.504-1.731,1.734
		c-0.154,0.975,0.013,2.516,0.078,4.016c0.086,1.971,0.173,4.067,0.235,5.434c0.034,0.756-0.006,1.599,0.157,1.888
		c0.35,0.617,1.452,0.426,1.654,1.024c-0.537,0.629-2.025,0.186-3.148,0.236c-0.651,0.028-1.372,0.268-1.812-0.077
		c0.037-0.698,1.062-0.409,1.259-0.945c0.087-3.029,0.013-6.571-0.235-9.528c-0.813,0.549-1.206,1.588-1.653,2.441
		c-1.354,2.573-2.651,5.494-4.33,7.873c-1.177-1.429-1.883-3.266-2.756-4.961c-0.886-1.708-1.659-3.43-2.68-4.958
		c-0.03,1.778-0.702,5.892-0.394,8.03c0.061,0.419,0.334,1.033,0.63,1.26c0.45,0.347,1.067,0.067,1.339,0.709
		c-0.347,0.489-1.148,0.187-1.809,0.157c-0.988-0.044-2.222,0.239-2.996-0.077c0.111-0.593,1.062-0.461,1.418-1.024
		c0.369-0.581,0.36-2.474,0.474-3.859c0.2-2.446,0.902-6.768-0.474-8.347c-0.424-0.486-1.387-0.415-1.418-1.103
		C145.891,106.902,147.275,107.305,148.19,107.052"/>
	<path fill-rule="evenodd" clip-rule="evenodd" fill="#AEAAA3" d="M191.34,114.295c0.734,1.062,1.548,2.234,2.44,3.464
		c1.077,1.486,1.981,3.125,3.936,3.622c-0.746,0.569-2.242,0.341-2.753,0.159c-1.472-0.528-2.234-2.255-3.229-3.701
		c-0.363-0.527-1.601-2.665-2.206-2.915c-0.694-0.287-1.672,0.055-2.44-0.078c-0.032,1.382-0.558,4.488,0,5.51
		c0.495,0.911,1.753,0.27,2.126,1.261c-1.731-0.04-4.123,0.19-5.748-0.077c0.118-0.622,1.1-0.57,1.419-1.184
		c0.524-1.015,0.157-3.733,0.157-5.906c0-2.059,0.348-5.276-0.239-6.141c-0.427-0.63-1.582-0.376-1.65-1.103
		c1.115-0.221,3.307-0.012,4.801-0.08c2.176-0.092,4.411,0.038,5.434,1.262C194.973,110.287,193.867,113.48,191.34,114.295
		 M192.048,109.649c-0.622-1.33-3.019-2.211-4.961-1.654c-0.257,1.597-0.264,4.231,0,5.827
		C190.865,114.779,193.357,112.451,192.048,109.649"/>
	<path fill-rule="evenodd" clip-rule="evenodd" fill="#AEAAA3" d="M203.701,107.207c-0.166,0.704-0.781,0.429-1.104,1.026
		c-0.68,1.264,0.184,3.821-0.156,5.51c1.133-0.634,2.231-1.601,3.309-2.52c1.079-0.917,2.289-1.766,3.069-2.914
		c-0.1-0.686-1.205-0.369-1.259-1.103c0.933-0.219,2.646-0.038,3.937-0.08c0.479-0.014,1.017-0.272,1.261,0.158
		c-0.25,0.511-0.874,0.461-1.261,0.631c-1.205,0.527-2.218,1.601-3.227,2.441c-1.37,1.14-2.81,2.164-4.096,3.385
		c1.69,1.79,3.635,3.679,5.59,5.512c0.639,0.597,1.32,1.39,2.049,1.655c0.41,0.149,1.114-0.093,1.258,0.551
		c-0.377,0.483-1.183,0.146-1.891,0.157c-0.485,0.008-0.958,0.147-1.416,0.079c-1.126-1.179-2.392-2.317-3.621-3.464
		c-1.201-1.121-2.207-2.538-3.622-3.23c0.228,1.627-0.716,4.51,0.236,5.592c0.507,0.576,1.312,0.208,1.891,0.786
		c-0.279,0.605-1.081,0.266-1.733,0.236c-1.315-0.061-3.05,0.32-3.938-0.157c0.126-0.545,1.212-0.392,1.499-1.104
		c0.441-1.102,0.077-3.714,0.077-5.747c0-2.278,0.456-5.242-0.235-6.3c-0.39-0.596-1.456-0.441-1.655-1.103
		C199.94,107.037,202.435,107.074,203.701,107.207"/>
	<path fill-rule="evenodd" clip-rule="evenodd" fill="#AEAAA3" d="M60.865,112.012c-1.958,1.475-4.155,3.878-7.558,2.676
		c-1.885-0.666-3.833-1.926-5.827-2.915c-2.055-1.013-4.072-2.043-5.828-2.912c1.174-0.668,2.564-1.394,3.7-1.968
		c0.964-0.487,2.689,0.829,3.701,1.339c2.023,1.015,3.947,1.929,5.984,2.912C56.917,112.053,58.578,113.277,60.865,112.012"/>
	<path fill-rule="evenodd" clip-rule="evenodd" fill="#AEAAA3" d="M56.376,115.868c-0.479,0.736-1.417,1.482-2.363,2.126
		c-1.277,0.87-3.177,1.808-5.196,1.183c-1.119-0.347-2.287-1.163-3.465-1.733c-3.378-1.631-7.19-3.348-10.474-4.96
		c1.198-0.888,2.932-1.577,4.174-2.207c1.097-0.554,3.218,0.865,4.41,1.418c2.959,1.375,5.672,2.648,8.661,4.016
		C53.402,116.297,54.93,117.096,56.376,115.868"/>
	<path fill-rule="evenodd" clip-rule="evenodd" fill="#AEAAA3" d="M28.738,111.538c2.296,0.838,5.332,2.109,5.749,5.119
		c0.282,2.051,0,4.436,0,6.694v6.615c-0.715-0.417-1.328-0.821-2.048-1.339c-0.388-0.282-1.527-1.006-1.732-1.574
		c-0.203-0.566-0.048-1.33-0.078-2.128c-0.059-1.555-0.08-3.59-0.08-5.59C30.548,115.663,30.983,112.661,28.738,111.538"/>
	<path fill-rule="evenodd" clip-rule="evenodd" fill="#AEAAA3" d="M34.17,113.508c2.435,0.762,5.919,2.069,6.378,5.118
		c0.182,1.191,0.08,2.603,0.08,3.936c0,3.747,0.277,7.801,0.235,11.577c-0.362,0.114-0.755-0.297-1.102-0.553
		c-0.343-0.254-0.739-0.524-1.102-0.786c-0.553-0.403-1.762-1.087-2.048-1.733c-0.325-0.733-0.208-2.493-0.236-3.777
		c-0.028-1.293-0.111-2.568-0.157-3.782C36.052,119.072,36.797,114.826,34.17,113.508"/>
	<path fill-rule="evenodd" clip-rule="evenodd" fill="#AEAAA3" d="M42.99,134.847c-0.958-2.553-1.04-5.881,0.394-7.718
		c0.661-0.844,2.122-1.6,3.229-2.363c3.15-2.166,7.155-4.99,10-6.927c-0.162,1.763,0.334,3.63-0.236,5.117
		c-0.32,0.838-2.116,1.763-3.07,2.442c-2.203,1.561-4.271,3.054-6.378,4.567C45.221,131.188,42.756,132.195,42.99,134.847"/>
	<path fill-rule="evenodd" clip-rule="evenodd" fill="#AEAAA3" d="M55.825,125.555c-0.041,1.002,0.317,3.351,0,4.489
		c-0.194,0.698-1.971,1.697-2.678,2.203c-2.031,1.466-3.68,2.583-5.667,4.015c-1.582,1.142-3.535,1.901-3.466,4.569
		c-0.773-2.559-0.768-5.556,0.551-7.245c0.6-0.769,1.75-1.353,2.756-2.047C50.015,129.682,53.37,127.253,55.825,125.555"/>
	<g>
		<path fill="#AEAAA3" d="M84.002,127.687h0.206v2.463H83.99c-0.049-0.68-0.221-1.212-0.515-1.594
			c-0.294-0.383-0.663-0.574-1.107-0.574c-0.395,0-0.714,0.145-0.955,0.432c-0.241,0.286-0.361,0.668-0.361,1.146
			c0,0.443,0.1,0.846,0.3,1.208c0.199,0.368,0.632,0.835,1.297,1.409c0.775,0.662,1.294,1.24,1.56,1.735
			c0.267,0.495,0.399,1.062,0.399,1.701c0,0.823-0.203,1.531-0.61,2.115s-0.897,0.878-1.47,0.878c-0.333,0-0.756-0.133-1.272-0.396
			c-0.211-0.107-0.346-0.162-0.404-0.162c-0.121,0-0.214,0.134-0.28,0.403h-0.218v-2.839h0.218c0.004,0.784,0.182,1.411,0.532,1.882
			c0.351,0.472,0.761,0.708,1.231,0.708c0.443,0,0.799-0.172,1.067-0.513c0.268-0.339,0.402-0.793,0.402-1.36
			c0-0.426-0.111-0.83-0.331-1.221c-0.22-0.39-0.681-0.888-1.38-1.5c-0.57-0.508-0.952-0.906-1.142-1.198
			c-0.191-0.293-0.332-0.613-0.424-0.963c-0.09-0.352-0.137-0.734-0.137-1.152c0-0.808,0.185-1.46,0.553-1.963
			c0.368-0.501,0.847-0.753,1.438-0.753c0.325,0,0.678,0.092,1.061,0.278c0.178,0.085,0.303,0.124,0.374,0.124
			c0.058,0,0.098-0.017,0.119-0.053C83.956,127.893,83.978,127.812,84.002,127.687z"/>
		<path fill="#AEAAA3" d="M90.062,131.814h0.218v2.555h-0.218c-0.079-0.447-0.175-0.729-0.288-0.844
			c-0.112-0.111-0.357-0.168-0.735-0.168h-1.816v3.76c0,0.265,0.041,0.448,0.122,0.556c0.081,0.106,0.219,0.161,0.415,0.161h1.279
			c0.458,0,0.773-0.034,0.948-0.106c0.174-0.072,0.322-0.204,0.443-0.398c0.121-0.193,0.25-0.51,0.386-0.945h0.219l-0.336,1.959
			h-5.273v-0.302c0.329,0,0.55-0.122,0.662-0.363c0.113-0.244,0.169-0.671,0.169-1.286v-6.571c0-0.64-0.059-1.079-0.175-1.319
			c-0.117-0.238-0.334-0.358-0.655-0.358v-0.302h5.273v1.753h-0.138c-0.075-0.5-0.182-0.834-0.322-0.997
			c-0.139-0.165-0.441-0.247-0.907-0.247h-2.109v4.495h2.046c0.278,0,0.469-0.07,0.571-0.214
			C89.942,132.486,90.016,132.216,90.062,131.814z"/>
		<path fill="#AEAAA3" d="M98.709,127.687v3.136h-0.218c-0.175-0.975-0.454-1.691-0.839-2.149c-0.385-0.461-0.898-0.691-1.539-0.691
			c-0.832,0-1.491,0.432-1.978,1.292c-0.486,0.857-0.729,2.005-0.729,3.437c0,1.572,0.256,2.835,0.77,3.793
			c0.514,0.96,1.187,1.438,2.019,1.438c1.152,0,2.002-0.771,2.552-2.312l0.193,0.263c-0.246,0.835-0.642,1.495-1.188,1.982
			c-0.547,0.488-1.171,0.731-1.87,0.731c-0.661,0-1.273-0.224-1.836-0.672c-0.564-0.447-1-1.064-1.305-1.851
			c-0.306-0.786-0.459-1.686-0.459-2.709c0-1.671,0.359-3.057,1.074-4.151c0.716-1.097,1.619-1.644,2.708-1.644
			c0.366,0,0.83,0.092,1.392,0.278c0.316,0.107,0.535,0.162,0.655,0.162c0.188,0,0.318-0.111,0.394-0.333H98.709z"/>
		<path fill="#AEAAA3" d="M105.598,136.141v-6.32c0-0.617-0.057-1.045-0.171-1.286c-0.114-0.24-0.318-0.374-0.607-0.392v-0.302
			h2.583v0.302c-0.312,0-0.529,0.124-0.649,0.369c-0.121,0.244-0.181,0.683-0.181,1.309v6.552c0,0.615,0.059,1.049,0.178,1.296
			c0.119,0.249,0.336,0.373,0.652,0.373v0.302h-1.804v-1.466c-0.687,1.151-1.499,1.729-2.44,1.729c-0.773,0-1.382-0.331-1.824-0.995
			c-0.444-0.662-0.665-1.537-0.665-2.624v-5.166c0-0.63-0.058-1.064-0.172-1.309c-0.115-0.245-0.334-0.369-0.658-0.369v-0.302h2.646
			v0.302c-0.329,0-0.552,0.12-0.668,0.358c-0.117,0.24-0.174,0.672-0.174,1.299v5.321c0,0.86,0.164,1.533,0.492,2.029
			c0.329,0.492,0.786,0.738,1.373,0.738C104.377,137.889,105.074,137.308,105.598,136.141z"/>
		<path fill="#AEAAA3" d="M110.714,133.481h-0.592v2.891c0,0.621,0.061,1.055,0.184,1.301c0.122,0.246,0.34,0.368,0.652,0.368v0.302
			h-2.633v-0.302c0.324,0,0.543-0.122,0.658-0.368c0.114-0.246,0.171-0.68,0.171-1.301v-6.587c0-0.622-0.057-1.052-0.169-1.288
			c-0.112-0.234-0.333-0.354-0.661-0.354v-0.302h3.001c0.74,0,1.332,0.256,1.775,0.773c0.442,0.517,0.665,1.173,0.665,1.975
			c0,1.29-0.504,2.149-1.511,2.579c0.221,0.204,0.437,0.482,0.648,0.839c0.21,0.352,0.486,0.944,0.828,1.771
			c0.382,0.912,0.682,1.513,0.897,1.797c0.215,0.286,0.438,0.44,0.672,0.466v0.302h-1.498c-0.307-0.528-0.68-1.31-1.116-2.34
			c-0.466-1.081-0.832-1.773-1.096-2.07C111.327,133.631,111.035,133.481,110.714,133.481z M110.889,128.243h-0.767v4.801h0.898
			c0.536,0,0.958-0.221,1.264-0.665c0.305-0.44,0.458-1.026,0.458-1.753c0-0.711-0.169-1.286-0.509-1.727
			C111.895,128.461,111.447,128.243,110.889,128.243z"/>
		<path fill="#AEAAA3" d="M118.458,127.841v0.302c-0.312,0-0.528,0.124-0.649,0.369c-0.121,0.244-0.181,0.683-0.181,1.309v6.552
			c0,0.628,0.06,1.062,0.181,1.306c0.121,0.241,0.337,0.363,0.649,0.363v0.302h-2.633v-0.302c0.32,0,0.538-0.119,0.655-0.358
			c0.116-0.239,0.174-0.676,0.174-1.311v-6.552c0-0.647-0.058-1.087-0.171-1.323c-0.115-0.234-0.334-0.354-0.658-0.354v-0.302
			H118.458z"/>
		<path fill="#AEAAA3" d="M123.974,128.35h-1.11v8.077c0,0.634,0.054,1.062,0.161,1.28c0.108,0.224,0.318,0.334,0.631,0.334v0.302
			h-2.589v-0.302c0.321,0,0.541-0.127,0.654-0.381c0.118-0.254,0.175-0.684,0.175-1.288v-8.022h-1.061
			c-0.507,0-0.876,0.117-1.107,0.35c-0.231,0.232-0.361,0.619-0.39,1.156h-0.219v-2.41h0.219c0.196,0.264,0.562,0.396,1.098,0.396
			h3.838c0.553,0,0.94-0.132,1.159-0.396h0.232v2.41h-0.144c-0.092-0.58-0.256-0.977-0.491-1.187
			C124.797,128.458,124.443,128.35,123.974,128.35z"/>
		<path fill="#AEAAA3" d="M131.704,129.335l-1.646,3.727v3.311c0,0.639,0.057,1.076,0.171,1.312
			c0.113,0.237,0.326,0.356,0.635,0.356v0.302h-2.672v-0.302c0.362,0,0.602-0.127,0.721-0.379c0.118-0.249,0.178-0.681,0.178-1.29
			v-3.311l-1.561-3.485c-0.258-0.58-0.468-0.957-0.629-1.136c-0.164-0.181-0.388-0.28-0.676-0.298v-0.302h2.865v0.302
			c-0.503,0-0.755,0.165-0.755,0.493c0,0.15,0.05,0.335,0.149,0.555l1.447,3.185l1.159-2.64c0.171-0.394,0.257-0.729,0.257-1.01
			c0-0.388-0.163-0.583-0.484-0.583v-0.302h2.009v0.302c-0.271,0.026-0.48,0.11-0.628,0.257
			C132.096,128.544,131.917,128.858,131.704,129.335z"/>
		<g>
			<path fill="#AEAAA3" d="M141.69,127.669h0.217v2.37h-0.231c-0.054-0.654-0.232-1.167-0.542-1.536
				c-0.311-0.364-0.701-0.549-1.171-0.549c-0.419,0-0.754,0.137-1.009,0.413c-0.255,0.277-0.384,0.646-0.384,1.104
				c0,0.424,0.107,0.812,0.318,1.162c0.21,0.351,0.667,0.803,1.37,1.353c0.817,0.639,1.367,1.197,1.648,1.675
				c0.281,0.475,0.421,1.021,0.421,1.636c0,0.793-0.213,1.473-0.643,2.035c-0.432,0.563-0.949,0.846-1.556,0.846
				c-0.35,0-0.797-0.127-1.342-0.38c-0.224-0.106-0.366-0.155-0.429-0.155c-0.127,0-0.226,0.129-0.295,0.388h-0.23v-2.733h0.23
				c0.004,0.753,0.191,1.355,0.562,1.811c0.369,0.455,0.804,0.682,1.298,0.682c0.471,0,0.847-0.163,1.13-0.491
				c0.283-0.329,0.424-0.768,0.424-1.312c0-0.408-0.116-0.8-0.35-1.174c-0.231-0.373-0.716-0.856-1.456-1.445
				c-0.605-0.487-1.005-0.871-1.207-1.151c-0.204-0.284-0.353-0.593-0.449-0.928c-0.095-0.336-0.145-0.707-0.145-1.109
				c0-0.775,0.195-1.405,0.585-1.889c0.388-0.482,0.895-0.724,1.519-0.724c0.343,0,0.717,0.087,1.121,0.267
				c0.189,0.079,0.32,0.121,0.395,0.121c0.062,0,0.104-0.018,0.126-0.052C141.64,127.867,141.663,127.791,141.69,127.669z"/>
			<path fill="#AEAAA3" d="M148.091,131.643h0.231v2.456h-0.231c-0.083-0.431-0.184-0.7-0.303-0.81
				c-0.119-0.108-0.378-0.163-0.778-0.163h-1.918v3.618c0,0.254,0.043,0.435,0.129,0.535c0.086,0.105,0.23,0.154,0.438,0.154h1.352
				c0.482,0,0.818-0.032,1.001-0.102c0.187-0.07,0.342-0.196,0.471-0.384c0.126-0.187,0.262-0.489,0.407-0.91h0.23l-0.356,1.888
				h-5.57v-0.293c0.348,0,0.58-0.117,0.699-0.349c0.118-0.233,0.179-0.646,0.179-1.238v-6.322c0-0.616-0.063-1.04-0.186-1.268
				c-0.123-0.232-0.354-0.348-0.692-0.348v-0.293h5.57v1.689h-0.144c-0.081-0.482-0.193-0.801-0.34-0.961
				c-0.147-0.16-0.466-0.236-0.96-0.236h-2.228v4.326h2.162c0.293,0,0.494-0.067,0.604-0.207
				C147.963,132.29,148.043,132.029,148.091,131.643z"/>
			<path fill="#AEAAA3" d="M152.602,133.244h-0.628v2.785c0,0.596,0.065,1.014,0.194,1.25c0.13,0.236,0.36,0.354,0.688,0.354v0.293
				h-2.778v-0.293c0.341,0,0.573-0.117,0.694-0.354c0.12-0.236,0.181-0.65,0.181-1.25v-6.342c0-0.598-0.061-1.013-0.178-1.238
				c-0.119-0.226-0.353-0.341-0.697-0.341v-0.293h3.17c0.782,0,1.407,0.249,1.874,0.746c0.47,0.498,0.702,1.131,0.702,1.9
				c0,1.241-0.532,2.069-1.596,2.482c0.233,0.196,0.462,0.464,0.686,0.806c0.222,0.342,0.514,0.91,0.875,1.704
				c0.404,0.88,0.722,1.459,0.948,1.732c0.228,0.274,0.463,0.424,0.709,0.446v0.293h-1.581c-0.326-0.513-0.719-1.263-1.181-2.254
				c-0.492-1.041-0.878-1.705-1.158-1.993C153.247,133.39,152.938,133.244,152.602,133.244z M152.784,128.203h-0.811v4.62h0.95
				c0.566,0,1.011-0.212,1.335-0.637c0.322-0.427,0.483-0.988,0.483-1.69c0-0.683-0.179-1.234-0.537-1.659
				C153.847,128.415,153.374,128.203,152.784,128.203z"/>
			<path fill="#AEAAA3" d="M164.124,127.815v0.311c-0.567,0-1.036,0.655-1.405,1.965l-2.282,7.974h-0.218l-2.396-8.207
				c-0.226-0.756-0.419-1.236-0.582-1.435c-0.163-0.197-0.396-0.301-0.698-0.314v-0.293h2.809v0.293
				c-0.451,0-0.677,0.228-0.677,0.682c0,0.149,0.027,0.319,0.083,0.508l1.895,6.527l1.797-6.303c0.077-0.27,0.113-0.504,0.113-0.696
				c0-0.479-0.232-0.718-0.694-0.718v-0.293H164.124z"/>
			<path fill="#AEAAA3" d="M167.451,127.815v0.293c-0.328,0-0.557,0.117-0.683,0.353c-0.128,0.238-0.192,0.657-0.192,1.263v6.306
				c0,0.604,0.064,1.021,0.192,1.255c0.126,0.231,0.354,0.349,0.683,0.349v0.293h-2.781v-0.293c0.339,0,0.571-0.115,0.693-0.344
				c0.124-0.23,0.185-0.651,0.185-1.26v-6.306c0-0.622-0.061-1.049-0.181-1.274c-0.122-0.226-0.354-0.341-0.697-0.341v-0.293
				H167.451z"/>
			<path fill="#AEAAA3" d="M175.43,127.669v3.017h-0.23c-0.187-0.935-0.48-1.626-0.888-2.069c-0.406-0.443-0.947-0.662-1.624-0.662
				c-0.88,0-1.575,0.413-2.09,1.24c-0.514,0.827-0.771,1.932-0.771,3.31c0,1.512,0.272,2.729,0.813,3.652
				c0.543,0.922,1.254,1.383,2.133,1.383c1.219,0,2.117-0.742,2.695-2.225l0.205,0.252c-0.259,0.803-0.677,1.44-1.255,1.907
				c-0.579,0.468-1.234,0.704-1.974,0.704c-0.698,0-1.348-0.217-1.942-0.647c-0.596-0.432-1.055-1.024-1.379-1.781
				c-0.321-0.756-0.482-1.623-0.482-2.605c0-1.609,0.377-2.943,1.133-3.995c0.756-1.056,1.711-1.582,2.862-1.582
				c0.386,0,0.875,0.087,1.47,0.267c0.333,0.104,0.564,0.153,0.691,0.153c0.198,0,0.336-0.104,0.414-0.317H175.43z"/>
			<path fill="#AEAAA3" d="M181.482,131.643h0.231v2.456h-0.231c-0.084-0.431-0.185-0.7-0.304-0.81
				c-0.119-0.108-0.377-0.163-0.777-0.163h-1.918v3.618c0,0.254,0.042,0.435,0.127,0.535c0.087,0.105,0.232,0.154,0.439,0.154h1.352
				c0.482,0,0.817-0.032,1-0.102c0.187-0.07,0.343-0.196,0.47-0.384c0.129-0.187,0.264-0.489,0.408-0.91h0.23l-0.354,1.888h-5.573
				v-0.293c0.35,0,0.582-0.117,0.7-0.349c0.119-0.233,0.179-0.646,0.179-1.238v-6.322c0-0.616-0.062-1.04-0.186-1.268
				c-0.123-0.232-0.354-0.348-0.693-0.348v-0.293h5.573v1.689h-0.146c-0.079-0.482-0.192-0.801-0.341-0.961
				c-0.146-0.16-0.467-0.236-0.958-0.236h-2.228v4.326h2.161c0.294,0,0.495-0.067,0.604-0.207
				C181.355,132.29,181.434,132.029,181.482,131.643z"/>
			<path fill="#AEAAA3" d="M187.593,127.669h0.218v2.37h-0.23c-0.053-0.654-0.235-1.167-0.545-1.536
				c-0.309-0.364-0.699-0.549-1.169-0.549c-0.418,0-0.754,0.137-1.01,0.413c-0.255,0.277-0.381,0.646-0.381,1.104
				c0,0.424,0.104,0.812,0.315,1.162c0.212,0.351,0.669,0.803,1.369,1.353c0.82,0.639,1.369,1.197,1.65,1.675
				c0.282,0.475,0.422,1.021,0.422,1.636c0,0.793-0.216,1.473-0.646,2.035c-0.429,0.563-0.947,0.846-1.551,0.846
				c-0.354,0-0.802-0.127-1.345-0.38c-0.224-0.106-0.366-0.155-0.427-0.155c-0.128,0-0.228,0.129-0.297,0.388h-0.231v-2.733h0.231
				c0.006,0.753,0.192,1.355,0.562,1.811c0.371,0.455,0.805,0.682,1.301,0.682c0.468,0,0.845-0.163,1.127-0.491
				c0.283-0.329,0.426-0.768,0.426-1.312c0-0.408-0.117-0.8-0.35-1.174c-0.232-0.373-0.718-0.856-1.457-1.445
				c-0.604-0.487-1.006-0.871-1.208-1.151c-0.201-0.284-0.351-0.593-0.447-0.928c-0.097-0.336-0.146-0.707-0.146-1.109
				c0-0.775,0.196-1.405,0.583-1.889c0.391-0.482,0.897-0.724,1.522-0.724c0.341,0,0.714,0.087,1.118,0.267
				c0.19,0.079,0.322,0.121,0.396,0.121c0.062,0,0.104-0.018,0.125-0.052C187.541,127.867,187.566,127.791,187.593,127.669z"/>
		</g>
		<g>
			<path fill="#AEAAA3" d="M199.847,135.929h0.203l-0.417,2.199h-4.937v-0.291c0.28,0,0.479-0.13,0.596-0.389
				c0.118-0.256,0.177-0.688,0.177-1.298v-6.346c0-0.543-0.054-0.926-0.166-1.14c-0.109-0.216-0.312-0.322-0.606-0.322v-0.294h2.438
				v0.294c-0.271,0-0.465,0.124-0.583,0.371c-0.117,0.245-0.178,0.651-0.178,1.219v6.734c0,0.374,0.055,0.631,0.161,0.767
				c0.105,0.137,0.311,0.206,0.613,0.206h1.354c0.417,0,0.708-0.109,0.875-0.323C199.542,137.103,199.7,136.64,199.847,135.929z"/>
			<path fill="#AEAAA3" d="M204.114,128.542h-1.032v7.747c0,0.607,0.05,1.019,0.149,1.229c0.102,0.212,0.296,0.319,0.589,0.319
				v0.291h-2.411v-0.291c0.301,0,0.502-0.121,0.611-0.365c0.107-0.244,0.161-0.653,0.161-1.234v-7.695h-0.986
				c-0.473,0-0.816,0.108-1.031,0.333c-0.216,0.225-0.336,0.595-0.363,1.109h-0.202v-2.311h0.202
				c0.183,0.251,0.522,0.375,1.021,0.375h3.571c0.515,0,0.875-0.124,1.08-0.375h0.215v2.311h-0.134
				c-0.085-0.558-0.235-0.936-0.456-1.14C204.881,128.641,204.552,128.542,204.114,128.542z"/>
			<path fill="#AEAAA3" d="M206.368,138.128v-0.291c0.292,0,0.494-0.119,0.604-0.356c0.112-0.239,0.167-0.654,0.167-1.243v-6.285
				c0-0.602-0.055-1.022-0.167-1.255c-0.11-0.238-0.312-0.354-0.604-0.354v-0.294h3.148c1.165,0,2.097,0.493,2.793,1.472
				c0.7,0.979,1.049,2.225,1.049,3.737c0,1.483-0.33,2.667-0.992,3.547c-0.661,0.882-1.582,1.323-2.762,1.323H206.368z
				 M209.336,128.438h-1.297v7.438c0,0.718,0.06,1.207,0.174,1.471c0.117,0.264,0.349,0.396,0.698,0.396h0.703
				c0.836,0,1.494-0.4,1.974-1.198c0.479-0.799,0.72-1.888,0.72-3.269c0-1.468-0.262-2.639-0.786-3.521
				C210.996,128.877,210.269,128.438,209.336,128.438z"/>
		</g>
	</g>
</g>
</svg>
