<?xml version="1.0" encoding="utf-8"?>
<!-- Generator: Adobe Illustrator 16.0.0, SVG Export Plug-In . SVG Version: 6.00 Build 0)  -->
<!DOCTYPE svg PUBLIC "-//W3C//DTD SVG 1.1//EN" "http://www.w3.org/Graphics/SVG/1.1/DTD/svg11.dtd">
<svg version="1.1" id="Layer_1" xmlns="http://www.w3.org/2000/svg" xmlns:xlink="http://www.w3.org/1999/xlink" x="0px" y="0px"
	 width="240px" height="239px" viewBox="0 0 240 239" enable-background="new 0 0 240 239" xml:space="preserve">
<polygon fill="#FFFFFF" points="170.018,153.722 170.098,153.868 173.076,153.868 172.995,153.722 "/>
<g>
	<g>
		<defs>
			<rect id="SVGID_1_" x="71.156" y="70" width="101.919" height="101.792"/>
		</defs>
		<clipPath id="SVGID_2_">
			<use xlink:href="#SVGID_1_"  overflow="visible"/>
		</clipPath>
		<path clip-path="url(#SVGID_2_)" fill="#AEAAA3" d="M83.091,168.503v-1.077h-0.625v-3.52h0.625v-1.077h-2.336v1.077h0.626v3.52
			h-0.626v1.077H83.091z M94.836,169.032v-6.203h-1.79v1.077h0.705v2.675l-4.521-4.128v6.05h1.085v-3.598L94.836,169.032z
			 M104.914,163.923v-1.086h-4.303v1.086h1.623v4.58h1.085v-4.58H104.914z M114.123,168.503v-1.077h-2.119v-1.238h2.119v-1.076
			h-2.119v-1.205h2.119v-1.077h-3.91v1.077h0.714v4.597H114.123L114.123,168.503z M125.146,168.503l-1.563-2.223
			c0.355-0.15,0.632-0.37,0.828-0.653c0.205-0.283,0.307-0.626,0.307-1.02c0-0.29-0.059-0.547-0.167-0.766
			c-0.108-0.22-0.256-0.4-0.437-0.554c-0.19-0.15-0.4-0.26-0.641-0.343c-0.25-0.079-0.502-0.116-0.771-0.116h-2.906v1.077h0.713
			v4.597h1.077v-2.055c0.125,0.023,0.25,0.043,0.373,0.059c0.123,0.017,0.239,0.017,0.371,0.017h0.029h0.073l1.39,1.979H125.146
			L125.146,168.503z M133.059,168.503v-1.077h-0.625v-3.52h0.625v-1.077h-2.336v1.077h0.635v3.52h-0.635v1.077H133.059z
			 M144.572,165.654c0-0.406-0.072-0.794-0.232-1.15c-0.155-0.354-0.364-0.669-0.627-0.932c-0.27-0.259-0.576-0.474-0.933-0.627
			c-0.355-0.151-0.735-0.233-1.143-0.233c-0.4,0-0.787,0.082-1.136,0.233c-0.355,0.161-0.671,0.372-0.94,0.637
			c-0.262,0.26-0.474,0.575-0.626,0.93c-0.152,0.356-0.232,0.735-0.232,1.143c0,0.401,0.08,0.786,0.232,1.145
			c0.152,0.357,0.364,0.669,0.626,0.932c0.27,0.271,0.585,0.479,0.94,0.634c0.349,0.153,0.735,0.233,1.136,0.233
			c0.406,0,0.787-0.08,1.143-0.233c0.356-0.155,0.663-0.364,0.933-0.634c0.263-0.263,0.472-0.574,0.627-0.932
			C144.5,166.44,144.572,166.055,144.572,165.654 M155.114,168.503l-1.565-2.223c0.352-0.15,0.633-0.37,0.83-0.653
			c0.196-0.283,0.298-0.626,0.298-1.02c0-0.29-0.05-0.547-0.16-0.766c-0.107-0.22-0.263-0.4-0.445-0.554
			c-0.182-0.15-0.398-0.26-0.64-0.343c-0.248-0.079-0.495-0.116-0.764-0.116h-2.913v1.077h0.712v4.597h1.087v-2.055
			c0.124,0.023,0.239,0.043,0.364,0.059c0.123,0.017,0.246,0.017,0.372,0.017h0.026h0.074l1.397,1.979H155.114L155.114,168.503z
			 M164.295,166.768c0-0.238-0.043-0.464-0.13-0.676c-0.096-0.205-0.22-0.387-0.371-0.547c-0.154-0.151-0.336-0.277-0.549-0.363
			c-0.209-0.096-0.435-0.139-0.677-0.139H162.4c-0.086,0-0.18-0.008-0.273-0.029c-0.097-0.021-0.192-0.05-0.271-0.096
			c-0.087-0.05-0.16-0.108-0.212-0.175c-0.051-0.078-0.08-0.161-0.08-0.269c0-0.145,0.036-0.26,0.101-0.348
			c0.068-0.08,0.154-0.152,0.256-0.196c0.104-0.052,0.221-0.082,0.345-0.096c0.122-0.013,0.245-0.021,0.362-0.021
			c0.107,0,0.224,0.008,0.343,0.013c0.116,0.009,0.225,0.021,0.327,0.039c0.103,0.007,0.195,0.019,0.269,0.041
			c0.08,0.018,0.138,0.031,0.183,0.045l0.365-1.021c-0.082-0.024-0.182-0.058-0.3-0.077c-0.109-0.022-0.24-0.045-0.37-0.058
			c-0.133-0.015-0.271-0.03-0.408-0.045c-0.139-0.005-0.276-0.013-0.408-0.013c-0.275,0-0.538,0.034-0.801,0.093
			c-0.255,0.064-0.479,0.166-0.685,0.308c-0.195,0.137-0.356,0.318-0.472,0.537c-0.125,0.219-0.19,0.487-0.19,0.8
			c0,0.27,0.059,0.503,0.166,0.708c0.103,0.205,0.25,0.379,0.425,0.516c0.182,0.142,0.385,0.24,0.61,0.314
			c0.227,0.071,0.467,0.11,0.714,0.11h0.168c0.183,0,0.334,0.065,0.465,0.188c0.123,0.122,0.19,0.278,0.19,0.458
			c0,0.183-0.067,0.335-0.197,0.466c-0.124,0.123-0.284,0.19-0.466,0.19h-1.632v1.079h1.632c0.249,0,0.474-0.045,0.685-0.135
			c0.211-0.092,0.394-0.218,0.555-0.37c0.152-0.161,0.275-0.341,0.364-0.554C164.252,167.234,164.295,167.008,164.295,166.768
			 M173.047,171.792H71.29v-12.624h101.756L173.047,171.792L173.047,171.792z"/>
	</g>
	<g>
		<defs>
			<rect id="SVGID_3_" x="71.156" y="70" width="101.919" height="101.792"/>
		</defs>
		<clipPath id="SVGID_4_">
			<use xlink:href="#SVGID_3_"  overflow="visible"/>
		</clipPath>
		<path clip-path="url(#SVGID_4_)" fill="#FFFFFF" d="M164.163,166.094c0.087,0.209,0.132,0.434,0.132,0.677
			c0,0.239-0.044,0.466-0.139,0.678c-0.087,0.207-0.212,0.392-0.364,0.551c-0.159,0.155-0.342,0.276-0.554,0.373
			c-0.21,0.087-0.437,0.13-0.684,0.13h-1.631v-1.078h1.631c0.181,0,0.341-0.062,0.465-0.187c0.132-0.133,0.197-0.284,0.197-0.467
			c0-0.184-0.066-0.336-0.189-0.459c-0.133-0.125-0.284-0.19-0.467-0.19h-0.166c-0.249,0-0.487-0.037-0.715-0.109
			c-0.226-0.072-0.429-0.174-0.61-0.312c-0.176-0.141-0.321-0.314-0.423-0.519c-0.109-0.202-0.167-0.436-0.167-0.706
			c0-0.312,0.064-0.582,0.189-0.8c0.117-0.219,0.275-0.4,0.473-0.541c0.203-0.136,0.431-0.237,0.686-0.304
			c0.263-0.058,0.523-0.097,0.801-0.097c0.129,0,0.268,0.007,0.405,0.016c0.141,0.016,0.277,0.029,0.41,0.043
			c0.131,0.016,0.261,0.038,0.369,0.059c0.117,0.023,0.219,0.052,0.298,0.082l-0.363,1.019c-0.043-0.015-0.103-0.03-0.181-0.044
			c-0.073-0.021-0.167-0.039-0.271-0.044c-0.103-0.015-0.211-0.028-0.327-0.037c-0.117-0.007-0.233-0.015-0.343-0.015
			c-0.115,0-0.241,0.01-0.363,0.023c-0.124,0.014-0.24,0.044-0.343,0.093c-0.104,0.044-0.19,0.118-0.256,0.198
			c-0.064,0.086-0.103,0.203-0.103,0.349c0,0.109,0.03,0.188,0.081,0.27c0.052,0.065,0.125,0.123,0.212,0.175
			c0.079,0.044,0.175,0.071,0.269,0.095c0.095,0.021,0.189,0.028,0.276,0.028h0.168c0.24,0,0.465,0.045,0.677,0.138
			c0.213,0.088,0.394,0.211,0.547,0.366C163.944,165.707,164.069,165.888,164.163,166.094"/>
	</g>
	<g>
		<defs>
			<rect id="SVGID_5_" x="71.156" y="70" width="101.919" height="101.792"/>
		</defs>
		<clipPath id="SVGID_6_">
			<use xlink:href="#SVGID_5_"  overflow="visible"/>
		</clipPath>
		<polygon clip-path="url(#SVGID_6_)" fill="#FFFFFF" points="159.067,153.723 158.986,153.866 161.994,153.866 162.073,153.723 		
			"/>
	</g>
	<g>
		<defs>
			<rect id="SVGID_7_" x="71.156" y="70" width="101.919" height="101.792"/>
		</defs>
		<clipPath id="SVGID_8_">
			<use xlink:href="#SVGID_7_"  overflow="visible"/>
		</clipPath>
		<path clip-path="url(#SVGID_8_)" fill="#FFFFFF" d="M153.6,164.607c0-0.132-0.029-0.24-0.082-0.336
			c-0.056-0.087-0.12-0.161-0.21-0.212c-0.096-0.05-0.188-0.086-0.306-0.115c-0.108-0.021-0.224-0.036-0.334-0.036h-1.115v1.434
			c0.256,0.064,0.519,0.095,0.778,0.095c0.133,0,0.278-0.015,0.424-0.037c0.153-0.021,0.29-0.064,0.415-0.123
			c0.122-0.058,0.226-0.137,0.306-0.248C153.556,164.921,153.6,164.783,153.6,164.607 M153.548,166.282l1.565,2.221h-1.327
			l-1.396-1.98h-0.073h-0.027c-0.125,0-0.248,0-0.373-0.015c-0.124-0.014-0.24-0.038-0.363-0.058v2.053h-1.086v-4.594h-0.713v-1.078
			h2.914c0.267,0,0.516,0.037,0.763,0.117c0.242,0.079,0.458,0.188,0.642,0.341c0.184,0.153,0.335,0.337,0.444,0.555
			c0.107,0.217,0.16,0.472,0.16,0.764c0,0.394-0.103,0.735-0.299,1.019S153.898,166.13,153.548,166.282"/>
	</g>
	<g>
		<defs>
			<rect id="SVGID_9_" x="71.156" y="70" width="101.919" height="101.792"/>
		</defs>
		<clipPath id="SVGID_10_">
			<use xlink:href="#SVGID_9_"  overflow="visible"/>
		</clipPath>
		<path clip-path="url(#SVGID_10_)" fill="#AEAAA3" d="M153.52,164.272c0.051,0.095,0.08,0.202,0.08,0.336
			c0,0.175-0.044,0.312-0.124,0.422c-0.081,0.109-0.185,0.188-0.308,0.248c-0.123,0.058-0.261,0.101-0.413,0.125
			c-0.147,0.021-0.292,0.033-0.423,0.033c-0.263,0-0.525-0.027-0.779-0.093v-1.436h1.114c0.108,0,0.226,0.015,0.334,0.037
			c0.116,0.028,0.212,0.066,0.307,0.117C153.395,164.112,153.46,164.185,153.52,164.272"/>
	</g>
	<g>
		<defs>
			<rect id="SVGID_11_" x="71.156" y="70" width="101.919" height="101.792"/>
		</defs>
		<clipPath id="SVGID_12_">
			<use xlink:href="#SVGID_11_"  overflow="visible"/>
		</clipPath>
		<path clip-path="url(#SVGID_12_)" fill="#FFFFFF" d="M152.667,153.723v0.144h-3.042c-0.555,0-1.086-0.049-1.604-0.144H152.667z"/>
	</g>
	<g>
		<defs>
			<rect id="SVGID_13_" x="71.156" y="70" width="101.919" height="101.792"/>
		</defs>
		<clipPath id="SVGID_14_">
			<use xlink:href="#SVGID_13_"  overflow="visible"/>
		</clipPath>
		<path clip-path="url(#SVGID_14_)" fill="#FFFFFF" d="M143.494,165.655c0-0.255-0.053-0.496-0.147-0.722
			c-0.095-0.232-0.225-0.421-0.394-0.598c-0.173-0.165-0.37-0.299-0.596-0.399c-0.225-0.094-0.457-0.139-0.721-0.139
			c-0.254,0-0.496,0.045-0.722,0.139c-0.224,0.101-0.421,0.233-0.589,0.399c-0.167,0.177-0.299,0.365-0.4,0.598
			c-0.096,0.225-0.14,0.466-0.14,0.722c0,0.262,0.044,0.496,0.14,0.729c0.102,0.226,0.232,0.419,0.4,0.587s0.365,0.31,0.589,0.401
			c0.226,0.096,0.468,0.14,0.722,0.14c0.264,0,0.495-0.044,0.721-0.14c0.226-0.092,0.423-0.232,0.596-0.401
			c0.168-0.168,0.299-0.361,0.394-0.587C143.441,166.152,143.494,165.917,143.494,165.655 M144.338,164.505
			c0.161,0.358,0.232,0.743,0.232,1.151c0,0.4-0.072,0.788-0.232,1.142c-0.154,0.358-0.363,0.672-0.625,0.934
			c-0.271,0.269-0.576,0.48-0.933,0.634c-0.356,0.152-0.735,0.233-1.144,0.233c-0.4,0-0.786-0.081-1.135-0.233
			c-0.357-0.153-0.672-0.365-0.94-0.634c-0.262-0.262-0.474-0.575-0.627-0.934c-0.151-0.354-0.233-0.741-0.233-1.142
			c0-0.407,0.082-0.786,0.233-1.144c0.153-0.356,0.365-0.669,0.627-0.934c0.269-0.262,0.583-0.471,0.94-0.631
			c0.349-0.155,0.734-0.233,1.135-0.233c0.407,0,0.787,0.078,1.144,0.233c0.356,0.152,0.661,0.363,0.933,0.624
			C143.975,163.836,144.184,164.147,144.338,164.505"/>
	</g>
	<g>
		<defs>
			<rect id="SVGID_15_" x="71.156" y="70" width="101.919" height="101.792"/>
		</defs>
		<clipPath id="SVGID_16_">
			<use xlink:href="#SVGID_15_"  overflow="visible"/>
		</clipPath>
		<path clip-path="url(#SVGID_16_)" fill="#AEAAA3" d="M143.348,164.936c0.094,0.227,0.146,0.467,0.146,0.719
			c0,0.265-0.053,0.496-0.146,0.729c-0.096,0.225-0.224,0.424-0.394,0.592c-0.173,0.167-0.371,0.305-0.597,0.401
			c-0.225,0.094-0.459,0.135-0.721,0.135c-0.254,0-0.494-0.042-0.72-0.135c-0.226-0.097-0.423-0.233-0.593-0.401
			c-0.165-0.168-0.297-0.367-0.398-0.592c-0.096-0.231-0.139-0.464-0.139-0.729c0-0.252,0.043-0.492,0.139-0.719
			c0.102-0.234,0.232-0.424,0.398-0.597c0.17-0.167,0.367-0.299,0.593-0.401c0.226-0.096,0.466-0.138,0.72-0.138
			c0.262,0,0.495,0.042,0.721,0.138c0.226,0.103,0.424,0.233,0.597,0.401C143.123,164.512,143.252,164.7,143.348,164.936"/>
	</g>
	<g>
		<defs>
			<rect id="SVGID_17_" x="71.156" y="70" width="101.919" height="101.792"/>
		</defs>
		<clipPath id="SVGID_18_">
			<use xlink:href="#SVGID_17_"  overflow="visible"/>
		</clipPath>
		<rect x="130.773" y="153.722" clip-path="url(#SVGID_18_)" fill="#FFFFFF" width="2.688" height="0.378"/>
	</g>
	<g>
		<defs>
			<rect id="SVGID_19_" x="71.156" y="70" width="101.919" height="101.792"/>
		</defs>
		<clipPath id="SVGID_20_">
			<use xlink:href="#SVGID_19_"  overflow="visible"/>
		</clipPath>
		<polygon clip-path="url(#SVGID_20_)" fill="#FFFFFF" points="133.059,167.424 133.059,168.503 130.723,168.503 130.723,167.424 
			131.356,167.424 131.356,163.909 130.723,163.909 130.723,162.831 133.059,162.831 133.059,163.909 132.434,163.909 
			132.434,167.424 		"/>
	</g>
	<g>
		<defs>
			<rect id="SVGID_21_" x="71.156" y="70" width="101.919" height="101.792"/>
		</defs>
		<clipPath id="SVGID_22_">
			<use xlink:href="#SVGID_21_"  overflow="visible"/>
		</clipPath>
		<path clip-path="url(#SVGID_22_)" fill="#FFFFFF" d="M123.631,164.607c0-0.132-0.021-0.24-0.08-0.336
			c-0.051-0.087-0.123-0.161-0.209-0.212c-0.09-0.05-0.191-0.086-0.3-0.115c-0.116-0.021-0.228-0.036-0.336-0.036h-1.12v1.434
			c0.262,0.064,0.516,0.095,0.779,0.095c0.131,0,0.275-0.015,0.428-0.037c0.146-0.021,0.285-0.064,0.409-0.123
			c0.13-0.058,0.231-0.137,0.312-0.248C123.594,164.921,123.631,164.783,123.631,164.607 M123.581,166.282l1.563,2.221h-1.324
			l-1.391-1.98h-0.074h-0.027c-0.133,0-0.249,0-0.373-0.015c-0.123-0.014-0.246-0.038-0.371-0.058v2.053h-1.078v-4.594h-0.713
			v-1.078h2.903c0.271,0,0.525,0.037,0.772,0.117c0.24,0.079,0.453,0.188,0.641,0.341c0.184,0.153,0.329,0.337,0.439,0.555
			c0.107,0.217,0.166,0.472,0.166,0.764c0,0.394-0.102,0.735-0.307,1.019C124.214,165.909,123.938,166.13,123.581,166.282"/>
	</g>
	<g>
		<defs>
			<rect id="SVGID_23_" x="71.156" y="70" width="101.919" height="101.792"/>
		</defs>
		<clipPath id="SVGID_24_">
			<use xlink:href="#SVGID_23_"  overflow="visible"/>
		</clipPath>
		<path clip-path="url(#SVGID_24_)" fill="#AEAAA3" d="M123.553,164.272c0.057,0.095,0.08,0.202,0.08,0.336
			c0,0.175-0.039,0.312-0.119,0.422s-0.181,0.188-0.313,0.248c-0.124,0.058-0.261,0.101-0.407,0.125
			c-0.152,0.021-0.299,0.033-0.43,0.033c-0.262,0-0.518-0.027-0.778-0.093v-1.436h1.121c0.108,0,0.219,0.015,0.334,0.037
			c0.108,0.028,0.212,0.066,0.3,0.117C123.428,164.112,123.502,164.185,123.553,164.272"/>
	</g>
	<g>
		<defs>
			<rect id="SVGID_25_" x="71.156" y="70" width="101.919" height="101.792"/>
		</defs>
		<clipPath id="SVGID_26_">
			<use xlink:href="#SVGID_25_"  overflow="visible"/>
		</clipPath>
		<rect x="115.462" y="153.723" clip-path="url(#SVGID_26_)" fill="#FFFFFF" width="2.724" height="0.146"/>
	</g>
	<g>
		<defs>
			<rect id="SVGID_27_" x="71.156" y="70" width="101.919" height="101.792"/>
		</defs>
		<clipPath id="SVGID_28_">
			<use xlink:href="#SVGID_27_"  overflow="visible"/>
		</clipPath>
		<polygon clip-path="url(#SVGID_28_)" fill="#FFFFFF" points="114.123,167.424 114.123,168.503 110.926,168.503 110.926,163.909 
			110.212,163.909 110.212,162.831 114.123,162.831 114.123,163.909 112.001,163.909 112.001,165.111 114.123,165.111 
			114.123,166.188 112.001,166.188 112.001,167.424 		"/>
	</g>
	<g>
		<defs>
			<rect id="SVGID_29_" x="71.156" y="70" width="101.919" height="101.792"/>
		</defs>
		<clipPath id="SVGID_30_">
			<use xlink:href="#SVGID_29_"  overflow="visible"/>
		</clipPath>
		<polygon clip-path="url(#SVGID_30_)" fill="#FFFFFF" points="101.549,153.723 101.673,153.866 105.022,153.866 104.897,153.723 		
			"/>
	</g>
	<g>
		<defs>
			<rect id="SVGID_31_" x="71.156" y="70" width="101.919" height="101.792"/>
		</defs>
		<clipPath id="SVGID_32_">
			<use xlink:href="#SVGID_31_"  overflow="visible"/>
		</clipPath>
		<polygon clip-path="url(#SVGID_32_)" fill="#FFFFFF" points="104.912,162.838 104.912,163.923 103.318,163.923 103.318,168.503 
			102.233,168.503 102.233,163.923 100.609,163.923 100.609,162.838 		"/>
	</g>
	<g>
		<defs>
			<rect id="SVGID_33_" x="71.156" y="70" width="101.919" height="101.792"/>
		</defs>
		<clipPath id="SVGID_34_">
			<use xlink:href="#SVGID_33_"  overflow="visible"/>
		</clipPath>
		<rect x="93.249" y="153.723" clip-path="url(#SVGID_34_)" fill="#FFFFFF" width="2.722" height="0.146"/>
	</g>
	<g>
		<defs>
			<rect id="SVGID_35_" x="71.156" y="70" width="101.919" height="101.792"/>
		</defs>
		<clipPath id="SVGID_36_">
			<use xlink:href="#SVGID_35_"  overflow="visible"/>
		</clipPath>
		<polygon clip-path="url(#SVGID_36_)" fill="#FFFFFF" points="94.836,162.831 94.836,169.032 90.314,164.905 90.314,168.503 
			89.23,168.503 89.23,162.452 93.751,166.581 93.751,163.909 93.044,163.909 93.044,162.831 		"/>
	</g>
	<g>
		<defs>
			<rect id="SVGID_37_" x="71.156" y="70" width="101.919" height="101.792"/>
		</defs>
		<clipPath id="SVGID_38_">
			<use xlink:href="#SVGID_37_"  overflow="visible"/>
		</clipPath>
		<polygon clip-path="url(#SVGID_38_)" fill="#FFFFFF" points="82.189,153.723 82.27,153.866 85.239,153.866 85.16,153.723 		"/>
	</g>
	<g>
		<defs>
			<rect id="SVGID_39_" x="71.156" y="70" width="101.919" height="101.792"/>
		</defs>
		<clipPath id="SVGID_40_">
			<use xlink:href="#SVGID_39_"  overflow="visible"/>
		</clipPath>
		<polygon clip-path="url(#SVGID_40_)" fill="#FFFFFF" points="83.091,167.424 83.091,168.503 80.755,168.503 80.755,167.424 
			81.381,167.424 81.381,163.909 80.755,163.909 80.755,162.831 83.091,162.831 83.091,163.909 82.465,163.909 82.465,167.424 		"/>
	</g>
	<g>
		<defs>
			<rect id="SVGID_41_" x="71.156" y="70" width="101.919" height="101.792"/>
		</defs>
		<clipPath id="SVGID_42_">
			<use xlink:href="#SVGID_41_"  overflow="visible"/>
		</clipPath>
		<path clip-path="url(#SVGID_42_)" fill="#AEAAA3" d="M173.045,70.044v83.678h-0.049l-6.962-12.646l-6.967,12.646h-6.399v-2.179
			h-3.045c-0.641,0-1.229-0.099-1.775-0.296c-0.554-0.204-1.035-0.479-1.45-0.84c-0.423-0.354-0.748-0.762-0.981-1.229
			c-0.24-0.467-0.357-0.96-0.357-1.5c0-0.532,0.117-1.024,0.357-1.5c0.233-0.466,0.559-0.881,0.981-1.237
			c0.415-0.352,0.896-0.627,1.45-0.829c0.547-0.199,1.135-0.298,1.775-0.298c0.874,0,1.697,0.201,2.453,0.617l1.481-1.95
			c-1.203-0.666-2.513-0.992-3.935-0.992c-1.004,0-1.941,0.159-2.832,0.487c-0.888,0.329-1.66,0.773-2.322,1.327
			c-0.663,0.559-1.188,1.215-1.566,1.963c-0.379,0.76-0.566,1.562-0.566,2.411c0,0.847,0.188,1.653,0.566,2.403
			c0.379,0.758,0.903,1.412,1.566,1.972c0.662,0.569,1.433,1.006,2.322,1.335c0.4,0.145,0.809,0.253,1.23,0.334h-14.562v-11.991
			h-2.684v11.991h-12.589v-9.683h4.04v-2.323h-10.862v2.323h4.099v9.683h-10.566l-3.837-4.609c0.889-0.326,1.588-0.8,2.09-1.404
			c0.51-0.611,0.756-1.339,0.756-2.192c0-0.616-0.137-1.158-0.415-1.63c-0.275-0.473-0.646-0.865-1.113-1.188
			c-0.473-0.319-1.014-0.565-1.623-0.733c-0.619-0.161-1.268-0.249-1.945-0.249h-5.569l0.006,12.006H85.16l-6.96-12.646
			l-6.912,12.55V70.044H173.045z"/>
	</g>
	<g>
		<defs>
			<rect id="SVGID_43_" x="71.156" y="70" width="101.919" height="101.792"/>
		</defs>
		<clipPath id="SVGID_44_">
			<use xlink:href="#SVGID_43_"  overflow="visible"/>
		</clipPath>
		<polygon clip-path="url(#SVGID_44_)" fill="#F7941F" points="173.045,70 173.045,70.044 71.288,70.044 71.288,153.628 
			71.239,153.723 71.239,70 		"/>
	</g>
	<g>
		<defs>
			<rect id="SVGID_45_" x="71.156" y="70" width="101.919" height="101.792"/>
		</defs>
		<clipPath id="SVGID_46_">
			<use xlink:href="#SVGID_45_"  overflow="visible"/>
		</clipPath>
		<polygon clip-path="url(#SVGID_46_)" fill="#FFFFFF" points="166.036,141.076 172.995,153.722 170.018,153.722 166.036,146.535 
			162.073,153.722 159.067,153.722 		"/>
	</g>
	<g>
		<defs>
			<rect id="SVGID_47_" x="71.156" y="70" width="101.919" height="101.792"/>
		</defs>
		<clipPath id="SVGID_48_">
			<use xlink:href="#SVGID_47_"  overflow="visible"/>
		</clipPath>
		<polygon clip-path="url(#SVGID_48_)" fill="#AEAAA3" points="166.036,146.535 170.018,153.725 162.073,153.725 		"/>
	</g>
	<g>
		<defs>
			<rect id="SVGID_49_" x="71.156" y="70" width="101.919" height="101.792"/>
		</defs>
		<clipPath id="SVGID_50_">
			<use xlink:href="#SVGID_49_"  overflow="visible"/>
		</clipPath>
		<path clip-path="url(#SVGID_50_)" fill="#FFFFFF" d="M153.556,142.482l-1.478,1.95c-0.756-0.415-1.581-0.62-2.452-0.62
			c-0.644,0-1.233,0.104-1.778,0.3c-0.555,0.205-1.035,0.48-1.452,0.828c-0.42,0.358-0.749,0.773-0.981,1.239
			c-0.238,0.473-0.355,0.968-0.355,1.5c0,0.54,0.117,1.034,0.355,1.5c0.232,0.467,0.562,0.874,0.981,1.231
			c0.417,0.354,0.897,0.633,1.452,0.837c0.545,0.195,1.135,0.298,1.778,0.298h3.041v2.177h-4.646
			c-0.422-0.08-0.828-0.189-1.23-0.335c-0.888-0.326-1.66-0.765-2.322-1.332c-0.663-0.561-1.188-1.218-1.565-1.975
			c-0.378-0.748-0.567-1.558-0.567-2.402c0-0.851,0.189-1.653,0.567-2.409c0.378-0.75,0.902-1.405,1.565-1.967
			c0.662-0.553,1.435-0.997,2.322-1.323c0.888-0.329,1.829-0.49,2.835-0.49C151.045,141.49,152.354,141.819,153.556,142.482"/>
	</g>
	<g>
		<defs>
			<rect id="SVGID_51_" x="71.156" y="70" width="101.919" height="101.792"/>
		</defs>
		<clipPath id="SVGID_52_">
			<use xlink:href="#SVGID_51_"  overflow="visible"/>
		</clipPath>
		<rect x="130.773" y="141.729" clip-path="url(#SVGID_52_)" fill="#FFFFFF" width="2.688" height="11.992"/>
	</g>
	<g>
		<defs>
			<rect id="SVGID_53_" x="71.156" y="70" width="101.919" height="101.792"/>
		</defs>
		<clipPath id="SVGID_54_">
			<use xlink:href="#SVGID_53_"  overflow="visible"/>
		</clipPath>
		<polygon clip-path="url(#SVGID_54_)" fill="#FFFFFF" points="122.227,141.717 122.227,144.04 118.186,144.04 118.186,153.723 
			115.462,153.723 115.462,144.04 111.363,144.04 111.363,141.717 		"/>
	</g>
	<g>
		<defs>
			<rect id="SVGID_55_" x="71.156" y="70" width="101.919" height="101.792"/>
		</defs>
		<clipPath id="SVGID_56_">
			<use xlink:href="#SVGID_55_"  overflow="visible"/>
		</clipPath>
		<path clip-path="url(#SVGID_56_)" fill="#FFFFFF" d="M101.192,145.517c0-0.276-0.074-0.517-0.211-0.698
			c-0.132-0.19-0.314-0.343-0.54-0.459c-0.225-0.109-0.479-0.191-0.771-0.241c-0.284-0.051-0.57-0.081-0.86-0.081h-2.839v3.038
			c0.656,0.131,1.317,0.202,1.988,0.202c0.335,0,0.699-0.028,1.077-0.079c0.386-0.05,0.735-0.137,1.056-0.263
			c0.321-0.123,0.583-0.298,0.793-0.523C101.083,146.179,101.192,145.89,101.192,145.517 M101.061,149.113l3.837,4.608h-3.349
			l-3.429-4.121h-0.189h-0.082c-0.312,0.009-0.625,0-0.938-0.028c-0.314-0.021-0.625-0.072-0.94-0.123v4.272h-2.722l-0.007-12.005
			h5.569c0.677,0,1.327,0.087,1.945,0.245c0.61,0.168,1.15,0.418,1.621,0.736c0.468,0.32,0.839,0.714,1.114,1.187
			c0.277,0.475,0.415,1.013,0.415,1.632c0,0.853-0.246,1.579-0.756,2.192C102.648,148.312,101.95,148.785,101.061,149.113"/>
	</g>
	<g>
		<defs>
			<rect id="SVGID_57_" x="71.156" y="70" width="101.919" height="101.792"/>
		</defs>
		<clipPath id="SVGID_58_">
			<use xlink:href="#SVGID_57_"  overflow="visible"/>
		</clipPath>
		<path clip-path="url(#SVGID_58_)" fill="#AEAAA3" d="M98.12,149.602l3.429,4.121h-5.578v-4.274
			c0.314,0.052,0.626,0.103,0.94,0.124c0.312,0.03,0.627,0.036,0.938,0.03h0.082L98.12,149.602L98.12,149.602z"/>
	</g>
	<g>
		<defs>
			<rect id="SVGID_59_" x="71.156" y="70" width="101.919" height="101.792"/>
		</defs>
		<clipPath id="SVGID_60_">
			<use xlink:href="#SVGID_59_"  overflow="visible"/>
		</clipPath>
		<path clip-path="url(#SVGID_60_)" fill="#AEAAA3" d="M100.981,144.818c0.137,0.182,0.211,0.422,0.211,0.698
			c0,0.373-0.109,0.663-0.307,0.896c-0.21,0.225-0.473,0.4-0.793,0.524c-0.321,0.123-0.67,0.211-1.056,0.261
			c-0.377,0.051-0.741,0.079-1.077,0.079c-0.671,0-1.333-0.071-1.988-0.202v-3.038h2.839c0.29,0,0.576,0.03,0.86,0.081
			c0.292,0.049,0.547,0.132,0.772,0.241C100.669,144.478,100.849,144.628,100.981,144.818"/>
	</g>
	<g>
		<defs>
			<rect id="SVGID_61_" x="71.156" y="70" width="101.919" height="101.792"/>
		</defs>
		<clipPath id="SVGID_62_">
			<use xlink:href="#SVGID_61_"  overflow="visible"/>
		</clipPath>
		<polygon clip-path="url(#SVGID_62_)" fill="#FFFFFF" points="78.198,141.076 85.159,153.722 82.189,153.722 78.198,146.535 
			74.238,153.722 71.288,153.722 71.288,153.627 		"/>
	</g>
	<g>
		<defs>
			<rect id="SVGID_63_" x="71.156" y="70" width="101.919" height="101.792"/>
		</defs>
		<clipPath id="SVGID_64_">
			<use xlink:href="#SVGID_63_"  overflow="visible"/>
		</clipPath>
		<polygon clip-path="url(#SVGID_64_)" fill="#AEAAA3" points="78.198,146.535 82.189,153.725 74.238,153.725 		"/>
	</g>
	<g>
		<defs>
			<rect id="SVGID_65_" x="71.156" y="70" width="101.919" height="101.792"/>
		</defs>
		<clipPath id="SVGID_66_">
			<use xlink:href="#SVGID_65_"  overflow="visible"/>
		</clipPath>
		<polygon clip-path="url(#SVGID_66_)" fill="#FFFFFF" points="71.29,153.723 71.29,153.866 74.157,153.866 74.239,153.723 		"/>
	</g>
	<g>
		<defs>
			<rect id="SVGID_67_" x="71.156" y="70" width="101.919" height="101.792"/>
		</defs>
		<clipPath id="SVGID_68_">
			<use xlink:href="#SVGID_67_"  overflow="visible"/>
		</clipPath>
		<rect x="71.274" y="159.168" clip-path="url(#SVGID_68_)" width="0.016" height="12.624"/>
	</g>
	<g>
		<defs>
			<rect id="SVGID_69_" x="71.156" y="70" width="101.919" height="101.792"/>
		</defs>
		<clipPath id="SVGID_70_">
			<use xlink:href="#SVGID_69_"  overflow="visible"/>
		</clipPath>
		<polygon clip-path="url(#SVGID_70_)" fill="#FFFFFF" points="71.239,153.723 71.158,153.866 71.29,153.866 71.29,153.723 		"/>
	</g>
	<g>
		<defs>
			<rect id="SVGID_71_" x="71.156" y="70" width="101.919" height="101.792"/>
		</defs>
		<clipPath id="SVGID_72_">
			<use xlink:href="#SVGID_71_"  overflow="visible"/>
		</clipPath>
		<polygon clip-path="url(#SVGID_72_)" fill="#FFFFFF" points="71.239,153.723 71.29,153.723 71.29,153.628 		"/>
	</g>
</g>
</svg>
