<?xml version="1.0" encoding="utf-8"?>
<!-- Generator: Adobe Illustrator 16.0.0, SVG Export Plug-In . SVG Version: 6.00 Build 0)  -->
<!DOCTYPE svg PUBLIC "-//W3C//DTD SVG 1.1//EN" "http://www.w3.org/Graphics/SVG/1.1/DTD/svg11.dtd">
<svg version="1.1" id="Layer_1" xmlns="http://www.w3.org/2000/svg" xmlns:xlink="http://www.w3.org/1999/xlink" x="0px" y="0px"
	 width="240px" height="239px" viewBox="0 0 240 239" enable-background="new 0 0 240 239" xml:space="preserve">
<g>
	<g>
		<g>
			<path id="SVGID_1_" fill="#ADA9A2" d="M104.241,67.908h26.663c5.279,0,9.601,4.322,9.601,9.601v45.921
				c0,5.278-4.319,9.603-9.601,9.603h-26.663c-5.281,0-9.601-4.32-9.601-9.603V77.509C94.641,72.229,98.961,67.908,104.241,67.908
				L104.241,67.908z M130.404,72.84H104.74c-2.762,0-5.024,2.262-5.024,5.024v36.968c0,2.762,2.261,5.023,5.024,5.023h25.664
				c2.763,0,5.021-2.26,5.021-5.023V77.864C135.427,75.101,133.167,72.84,130.404,72.84L130.404,72.84z M117.573,123.48
				c1.61,0,2.917,1.307,2.917,2.918c0,1.609-1.307,2.918-2.917,2.918c-1.612,0-2.919-1.309-2.919-2.918
				C114.654,124.787,115.96,123.48,117.573,123.48L117.573,123.48z"/>
		</g>
	</g>
	<path fill="#ADA9A2" d="M117.573,124.382c1.112,0,2.015,0.902,2.015,2.019c0,1.113-0.902,2.017-2.015,2.017
		c-1.114,0-2.017-0.901-2.017-2.017C115.557,125.284,116.459,124.382,117.573,124.382L117.573,124.382z"/>
	<polygon fill="#ADA9A2" points="122.979,78.238 126.711,78.238 126.711,82.214 130.688,82.214 130.688,85.946 126.711,85.946 
		126.711,89.922 122.979,89.922 122.979,85.946 119.004,85.946 119.004,82.214 122.979,82.214 	"/>
	<path fill="#ADA9A2" d="M105.617,115.277l2.574-3.752c-2.965-1.518-4.996-4.604-4.996-8.162c0-5.062,4.104-9.167,9.166-9.167
		s9.167,4.104,9.167,9.167c0,4.064-2.647,7.514-6.312,8.713l0.035,0.004L105.617,115.277L105.617,115.277z M112.361,96.246
		c-3.93,0-7.116,3.188-7.116,7.117c0,3.929,3.187,7.115,7.116,7.115c3.931,0,7.115-3.187,7.115-7.115
		C119.477,99.434,116.292,96.246,112.361,96.246L112.361,96.246z"/>
	<path fill="#ADA9A2" d="M128.402,113.374l-3.771-5.494c4.344-2.224,7.316-6.741,7.316-11.957c0-3.415-1.277-6.533-3.379-8.901
		h-0.782v2.899v1.075h-0.076c0.788,1.468,1.233,3.144,1.233,4.926c0,4.592-2.969,8.488-7.09,9.877
		c-0.311,1.207-0.842,2.324-1.555,3.307c-0.318,0.438-0.671,0.848-1.056,1.229L128.402,113.374L128.402,113.374z M118.122,106.337
		c-4.774-0.183-8.726-3.573-9.757-8.079c-0.206,0.161-0.402,0.335-0.586,0.52v0.002c-0.698,0.699-1.239,1.558-1.561,2.517
		c1.522,3.483,4.482,6.196,8.129,7.39l-0.051,0.008l1.143,0.379c0.557-0.301,1.063-0.68,1.506-1.122v-0.003
		C117.415,107.477,117.812,106.934,118.122,106.337L118.122,106.337z M108.201,94.488c0.672-4.884,4.729-8.688,9.729-8.969v-3.005
		c-7.139,0.312-12.828,6.196-12.828,13.41c0,0.279,0.008,0.555,0.024,0.83c0.101-0.107,0.202-0.215,0.308-0.318l0,0
		C106.232,95.636,107.167,94.974,108.201,94.488L108.201,94.488z"/>
	<g>
		<path fill="#ADA9A2" d="M54.971,174.514l-1.887-14.896h-0.069l-6.211,14.896h-2.677l-5.938-14.896h-0.068l-2.163,14.896h-6.692
			l4.394-25.877h6.623l5.251,13.83l5.56-13.83h6.692l3.913,25.877H54.971z"/>
		<path fill="#ADA9A2" d="M64.546,174.514v-25.877H79.27v5.697h-7.997v4.325h7.584v5.354h-7.584v4.803h7.997v5.699H64.546V174.514z"
			/>
		<path fill="#ADA9A2" d="M106.005,161.574c0,1.763-0.351,3.428-1.048,4.994c-0.695,1.566-1.652,2.939-2.865,4.119
			c-1.212,1.178-2.632,2.109-4.255,2.797c-1.626,0.686-3.364,1.029-5.218,1.029h-9.3v-25.879h9.3c1.878,0,3.627,0.344,5.251,1.03
			c1.625,0.687,3.037,1.625,4.239,2.812c1.199,1.19,2.15,2.563,2.848,4.119C105.654,158.154,106.005,159.812,106.005,161.574z
			 M99.003,161.574c0-2.195-0.63-3.952-1.888-5.268c-1.26-1.315-3.055-1.975-5.387-1.975h-1.684v14.48h1.684
			c1.144,0,2.161-0.17,3.053-0.515c0.893-0.342,1.652-0.827,2.283-1.458c0.629-0.628,1.107-1.389,1.441-2.281
			C98.836,163.669,99.003,162.674,99.003,161.574z"/>
		<path fill="#ADA9A2" d="M109.16,174.514v-25.877h6.729v25.877H109.16z"/>
	</g>
	<g>
		<path fill="#ADA9A2" d="M133.984,153.305v21.209h-5.424v-21.209h-5.867v-4.668h17.125v4.668H133.984z"/>
		<path fill="#ADA9A2" d="M148.88,161.473c-1.418,0-2.407,0.479-2.968,1.44c-0.562,0.962-0.842,2.334-0.842,4.118v7.482h-5.079
			V157.25h5.079v2.711h0.103c0.503-0.96,1.196-1.704,2.076-2.23c0.881-0.524,1.905-0.789,3.071-0.789
			c0.229,0,0.445,0.013,0.65,0.033c0.205,0.022,0.411,0.06,0.617,0.104l-0.171,4.942
			C150.618,161.654,149.771,161.473,148.88,161.473z"/>
		<path fill="#ADA9A2" d="M166.451,174.514v-2.127h-0.07c-0.455,0.777-1.195,1.412-2.227,1.903
			c-1.025,0.491-2.178,0.739-3.455,0.739c-1.074,0-2.111-0.219-3.115-0.653c-1.006-0.435-1.891-1.047-2.652-1.835
			c-0.768-0.791-1.375-1.751-1.834-2.883c-0.455-1.133-0.684-2.397-0.684-3.793c0-1.236,0.217-2.408,0.65-3.52
			c0.434-1.109,1.033-2.074,1.795-2.898c0.769-0.824,1.668-1.481,2.707-1.973c1.037-0.494,2.148-0.738,3.338-0.738
			c1.188,0,2.248,0.212,3.185,0.635c0.937,0.424,1.698,1.035,2.292,1.835h0.07v-1.955h5.078v17.263H166.451L166.451,174.514z
			 M166.622,165.832c0-0.643-0.106-1.254-0.326-1.838c-0.214-0.582-0.528-1.098-0.938-1.545c-0.412-0.445-0.904-0.805-1.485-1.08
			c-0.582-0.273-1.238-0.412-1.968-0.412c-0.706,0-1.355,0.139-1.948,0.412c-0.595,0.275-1.095,0.635-1.504,1.08
			c-0.412,0.447-0.729,0.969-0.957,1.562c-0.229,0.597-0.345,1.226-0.345,1.888c0,0.643,0.113,1.261,0.345,1.854
			c0.228,0.597,0.551,1.121,0.976,1.578c0.422,0.459,0.928,0.819,1.521,1.082c0.594,0.264,1.241,0.396,1.948,0.396
			c0.729,0,1.386-0.139,1.965-0.41c0.582-0.274,1.072-0.644,1.473-1.101s0.708-0.983,0.922-1.577
			C166.516,167.123,166.622,166.494,166.622,165.832z"/>
		<path fill="#ADA9A2" d="M186.34,174.721c-0.768,0.205-1.632,0.309-2.592,0.309c-1.327,0-2.562-0.219-3.707-0.651
			c-1.145-0.437-2.145-1.047-3.002-1.835c-0.859-0.791-1.534-1.751-2.025-2.883c-0.49-1.135-0.736-2.389-0.736-3.76
			c0-1.35,0.234-2.586,0.703-3.707c0.469-1.119,1.127-2.082,1.975-2.885c0.848-0.799,1.854-1.429,3.021-1.887
			c1.166-0.457,2.445-0.686,3.842-0.686c0.938,0,1.797,0.113,2.574,0.342c0.775,0.229,1.487,0.538,2.127,0.927v4.702
			c-0.502-0.457-1.146-0.863-1.938-1.217c-0.789-0.355-1.606-0.533-2.453-0.533c-1.465,0-2.678,0.432-3.637,1.291
			c-0.964,0.861-1.441,2.039-1.441,3.531c0,0.734,0.13,1.406,0.394,2.015c0.265,0.608,0.632,1.131,1.101,1.567
			c0.468,0.436,1.019,0.773,1.646,1.016c0.627,0.24,1.311,0.361,2.041,0.361c0.871,0,1.688-0.157,2.453-0.473
			c0.769-0.315,1.403-0.709,1.905-1.176v4.701C187.854,174.205,187.105,174.514,186.34,174.721z"/>
		<path fill="#ADA9A2" d="M203.206,174.514l-6.04-7.447l-0.241,0.205v7.242h-5.077v-28.416h5.077v17.639l6.042-6.484h6.041
			l-7.824,7.857l8.168,9.404H203.206L203.206,174.514z"/>
	</g>
</g>
</svg>
