<?xml version="1.0" encoding="utf-8"?>
<!-- Generator: Adobe Illustrator 16.0.0, SVG Export Plug-In . SVG Version: 6.00 Build 0)  -->
<!DOCTYPE svg PUBLIC "-//W3C//DTD SVG 1.1//EN" "http://www.w3.org/Graphics/SVG/1.1/DTD/svg11.dtd">
<svg version="1.1" id="Layer_1" xmlns="http://www.w3.org/2000/svg" xmlns:xlink="http://www.w3.org/1999/xlink" x="0px" y="0px"
	 width="240px" height="239px" viewBox="0 0 240 239" enable-background="new 0 0 240 239" xml:space="preserve">
<path fill="#ADA9A2" d="M36.627,149.147c-3.958,0-4.061-3.072-4.061-7.508c0-3.866-0.041-7.772,4.244-7.772
	c2.775,0,3.673,1.587,3.673,3.928v0.345h-1.265c0-0.102,0-0.184,0-0.284c0-1.587-0.449-2.89-2.428-2.89
	c-2.836,0-2.917,2.768-2.917,6.674c0,4.231,0.122,6.449,2.775,6.449c2.102,0,2.673-1.323,2.673-3.133c0-0.081-0.021-0.184,0-0.266
	h1.285v0.266C40.606,147.561,39.361,149.147,36.627,149.147z"/>
<path fill="#ADA9A2" d="M50.725,146.725c-0.531,1.404-1.51,2.422-3.672,2.422c-2.204,0-3.143-0.936-3.694-2.26
	c-0.428-1.058-0.551-1.791-0.551-5.373c0-3.5,0.102-4.864,1.041-6.188c0.633-0.895,1.775-1.465,3.204-1.465
	c1.734,0,2.53,0.53,3.162,1.363c0.938,1.242,1.061,2.932,1.061,6.271C51.276,144.466,51.174,145.564,50.725,146.725z
	 M49.705,137.261c-0.265-1.304-0.918-2.342-2.652-2.342c-1.755,0-2.49,1.181-2.735,2.668c-0.204,1.2-0.204,2.686-0.204,3.908
	c0,1.302-0.041,2.768,0.204,4.049c0.306,1.567,0.939,2.545,2.735,2.545c1.673,0,2.325-1.059,2.652-2.382
	c0.347-1.384,0.265-3.053,0.265-4.193C49.97,140.171,49.99,138.583,49.705,137.261z"/>
<path fill="#ADA9A2" d="M60.374,149.158c-0.061-0.381-0.122-0.677-0.122-1.186c0-0.677-0.061-1.375-0.082-2.031
	c-0.122-3.024,0.225-4.23-2.53-4.23h-2.061v7.447h-1.224v-15.297h3.571c2.53,0,3.693,1.058,3.693,3.681
	c0,1.842-0.429,3.09-2.244,3.64c1.449,0.169,1.795,0.974,1.918,1.735c0.122,0.804,0.082,1.799,0.122,2.962
	c0.021,0.847,0.082,1.65,0.082,2.159c0,0.357,0.082,0.739,0.122,1.12H60.374z M57.885,134.982h-2.306v5.627h1.633
	c2.326,0,3.142-0.57,3.142-3.067C60.354,135.617,59.578,134.982,57.885,134.982z"/>
<path fill="#ADA9A2" d="M67.126,142.015c0,0-0.775,0-1.183,0v7.144h-1.225v-15.28h2.918c2.754,0,4.02,0.866,4.02,3.932
	C71.656,141.593,69.901,142.015,67.126,142.015z M67.554,134.977h-1.611v5.939h1.448c2.224,0,2.959-0.762,2.959-3.086
	C70.35,135.631,69.615,134.977,67.554,134.977z"/>
<path fill="#ADA9A2" d="M81.652,146.73c-0.53,1.404-1.51,2.424-3.673,2.424c-2.203,0-3.143-0.937-3.693-2.261
	c-0.429-1.059-0.551-1.792-0.551-5.376c0-3.503,0.102-4.867,1.041-6.19c0.632-0.896,1.775-1.466,3.203-1.466
	c1.734,0,2.53,0.53,3.163,1.364c0.938,1.242,1.061,2.933,1.061,6.272C82.203,144.47,82.101,145.569,81.652,146.73z M80.632,137.262
	c-0.265-1.304-0.918-2.342-2.653-2.342c-1.755,0-2.489,1.182-2.734,2.667c-0.204,1.203-0.204,2.688-0.204,3.911
	c0,1.303-0.041,2.769,0.204,4.051c0.306,1.569,0.938,2.545,2.734,2.545c1.673,0,2.326-1.058,2.653-2.382
	c0.347-1.384,0.265-3.054,0.265-4.194C80.897,140.174,80.918,138.585,80.632,137.262z"/>
<path fill="#ADA9A2" d="M91.302,149.151c-0.062-0.381-0.123-0.677-0.123-1.185c0-0.677-0.061-1.375-0.081-2.03
	c-0.123-3.024,0.225-4.229-2.53-4.229h-2.061v7.444h-1.225v-15.29h3.57c2.53,0,3.693,1.056,3.693,3.68
	c0,1.84-0.428,3.087-2.244,3.637c1.449,0.169,1.795,0.973,1.918,1.734c0.123,0.805,0.082,1.798,0.123,2.961
	c0.02,0.846,0.081,1.649,0.081,2.157c0,0.359,0.082,0.74,0.123,1.121H91.302z M88.812,134.981h-2.306v5.625h1.632
	c2.326,0,3.143-0.57,3.143-3.065C91.281,135.615,90.506,134.981,88.812,134.981z"/>
<path fill="#ADA9A2" d="M103.236,149.144l-1.123-4.035h-5.468l-1.143,4.035h-1.225l4.428-15.276h1.428l4.387,15.276H103.236z
	 M99.379,135.262l-2.387,8.748h4.775L99.379,135.262z"/>
<path fill="#ADA9A2" d="M108.499,134.992v14.151h-1.225v-14.151h-3.407v-1.119h8.06v1.119H108.499z"/>
<path fill="#ADA9A2" d="M113.822,149.144v-15.272h6.326v1.119h-5.102v5.788h4.877v1.078h-4.877v6.168h5.244v1.119H113.822z"/>
<path fill="#ADA9A2" d="M127.286,149.151v-15.28h6.325v1.12h-5.1v5.79h4.876v1.078h-4.876v6.172h5.242v1.12H127.286z"/>
<path fill="#ADA9A2" d="M136.303,149.151v-15.288h1.225v14.167h4.652v1.121H136.303z"/>
<path fill="#ADA9A2" d="M144.361,149.151v-15.288h6.326v1.121h-5.102v5.794h4.877v1.078h-4.877v6.174h5.244v1.121H144.361z"/>
<path fill="#ADA9A2" d="M157.378,149.151h-1.51l-3.897-15.28h1.306l3.387,14.055l3.408-14.055h1.203L157.378,149.151z"/>
<path fill="#ADA9A2" d="M170.23,149.151l-1.123-4.039h-5.467l-1.143,4.039h-1.225l4.428-15.288h1.428l4.387,15.288H170.23z
	 M166.374,135.26l-2.388,8.754h4.775L166.374,135.26z"/>
<path fill="#ADA9A2" d="M175.473,134.984v14.167h-1.225v-14.167h-3.407v-1.121h8.06v1.121H175.473z"/>
<path fill="#ADA9A2" d="M180.797,149.144v-15.28h1.225v15.28H180.797z"/>
<path fill="#ADA9A2" d="M193.018,146.725c-0.529,1.404-1.51,2.422-3.672,2.422c-2.203,0-3.143-0.937-3.693-2.26
	c-0.43-1.058-0.551-1.791-0.551-5.373c0-3.5,0.102-4.863,1.04-6.188c0.634-0.895,1.776-1.465,3.204-1.465
	c1.734,0,2.53,0.53,3.162,1.363c0.938,1.242,1.062,2.932,1.062,6.271C193.569,144.466,193.467,145.564,193.018,146.725z
	 M191.998,137.261c-0.266-1.304-0.918-2.342-2.652-2.342c-1.755,0-2.489,1.181-2.734,2.667c-0.203,1.201-0.203,2.687-0.203,3.909
	c0,1.302-0.042,2.768,0.203,4.049c0.306,1.567,0.939,2.544,2.734,2.544c1.674,0,2.326-1.058,2.652-2.381
	c0.348-1.385,0.266-3.053,0.266-4.193C192.264,140.171,192.283,138.583,191.998,137.261z"/>
<path fill="#ADA9A2" d="M204.562,149.151l-5.747-14.146v14.146h-1.167v-15.288h1.944l5.748,14.146v-14.146h1.165v15.288H204.562z"/>
<path fill="#ADA9A2" d="M37.728,156.381v15.348h-1.376v-15.348h-3.83v-1.213h9.06v1.213H37.728z"/>
<path fill="#ADA9A2" d="M50.42,171.729c-0.068-0.411-0.137-0.731-0.137-1.28c0-0.731-0.068-1.486-0.091-2.197
	c-0.137-3.271,0.25-4.576-2.825-4.576h-2.301v8.054h-1.367v-16.54h3.987c2.825,0,4.124,1.145,4.124,3.98
	c0,1.991-0.479,3.34-2.506,3.935c1.618,0.184,2.005,1.053,2.142,1.877c0.136,0.87,0.091,1.944,0.136,3.202
	c0.023,0.915,0.091,1.786,0.091,2.334c0,0.389,0.091,0.801,0.137,1.212H50.42z M47.641,156.401h-2.575v6.084h1.823
	c2.597,0,3.508-0.616,3.508-3.316C50.397,157.086,49.531,156.401,47.641,156.401z"/>
<path fill="#ADA9A2" d="M63.747,171.729l-1.253-4.373h-6.106l-1.276,4.373h-1.367l4.944-16.556h1.595l4.898,16.556H63.747z
	 M59.441,156.684l-2.666,9.48h5.332L59.441,156.684z"/>
<path fill="#ADA9A2" d="M67.528,171.729v-16.574h1.367v16.574H67.528z"/>
<path fill="#ADA9A2" d="M80.469,171.729l-6.403-15.32v15.32h-1.299v-16.556h2.165l6.402,15.321v-15.321h1.299v16.556H80.469z"/>
<path fill="#ADA9A2" d="M86.505,171.729v-16.535h1.367v16.535H86.505z"/>
<path fill="#ADA9A2" d="M99.446,171.729l-6.402-15.32v15.32h-1.299v-16.556h2.165l6.402,15.321v-15.321h1.298v16.556H99.446z"/>
<path fill="#ADA9A2" d="M112.864,159.528c0.022-0.088,0-0.199,0-0.287c0-1.761-0.775-2.927-2.849-2.927
	c-3.577,0-3.508,3.896-3.508,7.396c0,2.972-0.273,6.825,3.623,6.825c0.911,0,1.823-0.133,2.643-0.508v-5.81h-3.19v-1.146h4.534
	v7.926c-1.23,0.439-2.666,0.704-3.964,0.704c-4.831,0-5.104-3.521-5.104-8.034c0-4.821,0.479-8.498,4.944-8.498
	c3.122,0,4.283,1.541,4.283,4.139c0,0.045,0,0.176,0,0.221H112.864z"/>
<path fill="#ADA9A2" d="M122.59,171.689v-16.519h1.368v16.519H122.59z"/>
<path fill="#ADA9A2" d="M135.531,171.698l-6.402-15.304v15.304h-1.299V155.16h2.165l6.401,15.305V155.16h1.299v16.538H135.531z"/>
<path fill="#ADA9A2" d="M145.121,171.698c-3.076,0-4.351-1.56-4.351-4.438v-0.176h1.435v0.176c0,1.934,0.593,3.297,2.894,3.297
	c2.005,0,2.735-1.12,2.735-2.88c0-2.174-1.277-2.767-2.713-3.603c-2.323-1.36-4.146-2.263-4.146-5.03
	c0-2.417,1.754-3.846,4.193-3.846c2.552,0,4.032,1.187,4.032,3.735v0.482h-1.413c0-0.109,0-0.352,0-0.352
	c0-1.646-0.546-2.724-2.666-2.724c-1.686,0-2.688,1.011-2.688,2.658c0,2.329,1.641,2.812,3.395,3.889
	c1.869,1.143,3.464,1.846,3.464,4.724C149.292,170.205,147.674,171.698,145.121,171.698z"/>
<path fill="#ADA9A2" d="M155.555,156.41v15.318h-1.367V156.41h-3.805v-1.21h9v1.21H155.555z"/>
<path fill="#ADA9A2" d="M161.502,171.729v-16.472h1.366v16.472H161.502z"/>
<path fill="#ADA9A2" d="M170.157,156.41v15.318h-1.366V156.41h-3.805v-1.21h9v1.21H170.157z"/>
<path fill="#ADA9A2" d="M180.592,171.698c-3.873,0-4.579-2.463-4.579-5.799V155.2h1.367v10.722c0,2.419,0.341,4.591,3.212,4.591
	c2.824,0,3.145-2.172,3.145-4.5V155.2h1.367v10.812C185.104,169.55,184.146,171.698,180.592,171.698z"/>
<path fill="#ADA9A2" d="M192.301,156.384v15.345h-1.367v-15.345h-3.805v-1.213h9v1.213H192.301z"/>
<path fill="#ADA9A2" d="M199.248,171.729v-16.587h7.062v1.215h-5.696v6.288h5.445v1.17h-5.445v6.698h5.854v1.216H199.248z"/>
<g>
	<rect x="32.532" y="151.731" fill="#ADA9A2" width="172.976" height="0.927"/>
</g>
<g>
	<rect x="32.589" y="174.255" fill="#ADA9A2" width="172.919" height="0.927"/>
</g>
<g>
	<rect x="32.57" y="130.486" fill="#ADA9A2" width="172.938" height="0.927"/>
</g>
<g>
	<rect x="32.493" y="68" fill="#ADA9A2" width="172.991" height="0.927"/>
</g>
<g>
	<path fill="#ADA9A2" d="M79.08,110.227c0-0.05-0.055,0.626-0.164,2.024c-0.221,2.803-0.33,5.604-0.33,8.404
		c0,0.351,0.053,0.989,0.164,1.914c0.11,0.926,0.166,2.039,0.166,3.338v0.677c0,0.648-0.221,0.976-0.66,0.976
		c-0.441,0-0.824-0.375-1.153-1.126c-0.771-1.749-1.539-2.826-2.307-3.226c-3.956,3.15-8.707,4.727-14.253,4.727
		c-8.073,0-14.76-2.562-20.061-7.691c-5.301-5.128-7.95-11.593-7.95-19.397c0-7.854,2.431-14.268,7.292-19.246
		c4.86-4.977,11.134-7.467,18.824-7.467c2.801,0,5.038,0.214,6.714,0.639c1.675,0.426,3.75,1.288,6.221,2.588
		c1.208,0.651,2.113,0.977,2.719,0.977c0.495,0,0.959-0.4,1.4-1.201c0.714-1.4,1.29-2.102,1.73-2.102
		c0.439,0,0.659,0.201,0.659,0.602c0,0.199-0.055,0.524-0.165,0.975c-0.604,2.401-0.906,6.904-0.906,13.507
		c0,0.95-0.083,1.5-0.247,1.65s-0.385,0.225-0.659,0.225c-0.549,0-0.906-0.475-1.071-1.425c-0.714-4.002-1.73-6.979-3.047-8.93
		c-2.692-4.001-6.92-6.002-12.687-6.002c-4.45,0-7.965,1.351-10.546,4.052c-4.669,4.852-7.002,11.957-7.002,21.31
		c0,8.354,1.922,14.833,5.767,19.435c3.35,4.003,7.798,6.003,13.347,6.003c2.855,0,5.464-0.649,7.826-1.95
		c2.361-1.301,4.188-3.089,5.479-5.366c1.29-2.274,2.293-5.013,3.007-8.217c0.275-1.199,0.63-1.8,1.071-1.8
		C78.804,109.101,79.08,109.475,79.08,110.227"/>
</g>
<g>
	<path fill="#ADA9A2" d="M126.3,114.974c0,0.202-0.055,1.443-0.165,3.723c-0.111,2.279-0.165,4.458-0.165,6.532v2.508
		c-5.383-0.305-16.038-0.457-31.964-0.457h-5.685h-3.79h-0.824c-1.043,0-1.565-0.202-1.565-0.611c0-0.271,0.165-0.431,0.494-0.475
		c0.165,0,1.207-0.067,3.13-0.205c1.428-0.101,2.293-0.38,2.596-0.838c0.301-0.457,0.453-1.651,0.453-3.581v-42.82
		c0-1.474-0.234-2.349-0.7-2.629c-0.468-0.278-1.964-0.419-4.49-0.419c-0.88,0-1.319-0.215-1.319-0.646
		c0-0.43,0.604-0.646,1.812-0.646h14.087h9.31h11.533c1.647,0,3.158-0.1,4.53-0.304c0.111,2.178,0.357,5.191,0.742,9.041l0.33,3.265
		c0.054,0.255,0.083,0.584,0.083,0.988c0,0.507-0.248,0.759-0.742,0.759c-0.605,0-1.044-0.636-1.318-1.91
		c-1.044-4.587-2.747-7.492-5.107-8.716c-1.759-0.916-6.372-1.376-13.841-1.376h-6.756V98.49h1.978
		c6.151,0,9.899-0.431,11.246-1.292c1.345-0.861,2.265-3.367,2.759-7.52c0.11-1.064,0.412-1.596,0.906-1.596
		c0.604,0,0.906,0.456,0.906,1.367s-0.055,2.254-0.164,4.025c-0.111,1.773-0.165,3.114-0.165,4.026
		c0,5.419,0.088,9.143,0.264,11.168c0.044,0.506,0.065,0.936,0.065,1.29c0,0.659-0.301,0.987-0.902,0.987
		c-0.384,0-0.642-0.215-0.779-0.646c-0.137-0.429-0.37-1.835-0.696-4.216c-0.438-2.988-1.778-4.835-4.019-5.546
		c-0.985-0.303-3.555-0.456-7.708-0.456h-3.691v25.449c12.083,0,19.168-0.225,21.255-0.676c3.625-0.75,5.684-3.951,6.178-9.604
		c0.109-1.249,0.467-1.874,1.072-1.874C126.023,113.379,126.3,113.911,126.3,114.974"/>
</g>
<g>
	<path fill="#ADA9A2" d="M174.931,87.893c0,0.668-0.329,1.001-0.989,1.001c-0.658,0-1.126-0.667-1.4-2.001
		c-0.111-0.924-0.219-1.847-0.33-2.771c-0.383-1.847-1.016-3.41-1.895-4.693c-1.152-1.693-3.048-2.771-5.684-3.232
		c-1.703-0.308-3.077-0.436-4.119-0.385c-2.583,0.069-4.148,0.12-4.696,0.155v46.47c0,1.851,0.522,3.006,1.566,3.469
		c0.547,0.257,2.087,0.411,4.612,0.461c0.658,0.049,0.989,0.268,0.989,0.654c0,0.437-0.44,0.654-1.318,0.654
		c-0.44,0-0.824-0.026-1.153-0.076c-3.295-0.103-5.63-0.154-7.002-0.154c-1.812,0-3.516,0.038-5.109,0.115
		c-1.592,0.077-3.624,0.115-6.097,0.115c-1.263,0-1.894-0.205-1.894-0.615c0-0.463,1.18-0.72,3.542-0.772
		c1.702,0,2.801-0.332,3.296-1.001c0.273-0.412,0.412-1.464,0.412-3.161V75.967c-5.438,0.051-8.816,0.308-10.135,0.77
		c-3.459,1.18-5.492,4.334-6.096,9.463c-0.164,1.54-0.549,2.309-1.152,2.309c-0.66,0-0.989-0.538-0.989-1.615
		c0-0.564,0.027-1.128,0.083-1.693l0.164-1.769c0.164-2.36,0.412-5.464,0.742-9.312h3.706l16.808,0.23
		c1.977,0.053,5.053,0.053,9.226,0l13.677-0.23c0.109,2.873,0.465,7.131,1.07,12.773c0,0.153,0.026,0.347,0.082,0.577
		C174.902,87.7,174.931,87.842,174.931,87.893"/>
</g>
<g>
	<path fill="#ADA9A2" d="M205.434,126.948c0,0.434-0.358,0.65-1.07,0.65c-0.386,0-0.742-0.026-1.072-0.076
		c-3.295-0.153-6.125-0.23-8.485-0.23c-2.472,0-6.097,0.077-10.874,0.23c-1.594,0.05-2.775,0.076-3.543,0.076
		c-0.824,0-1.236-0.229-1.236-0.688c0-0.255,0.152-0.408,0.453-0.46c0.302-0.05,1.359-0.102,3.173-0.154
		c1.702-0.306,2.689-0.777,2.966-1.417c0.273-0.638,0.412-2.692,0.412-6.166V96.268v-2.834c-0.055-0.92-0.082-1.353-0.082-1.303
		c0-1.275-1.374-1.915-4.121-1.915c-1.537,0-2.307-0.178-2.307-0.536c0-0.356,0.109-0.562,0.33-0.611
		c0.219-0.052,0.934-0.077,2.143-0.077h2.966h6.507h4.203h3.748h3.419h0.823c0.715,0,1.07,0.193,1.07,0.579
		c0,0.289-0.123,0.47-0.369,0.542c-0.247,0.072-1.085,0.134-2.513,0.182c-1.704,0.102-2.747,0.434-3.132,0.993l-0.246,1.453v28.814
		c0,2.192,0.26,3.494,0.781,3.9c0.522,0.408,2.293,0.688,5.315,0.841C205.188,126.353,205.434,126.569,205.434,126.948"/>
</g>
<g>
	<path fill="#ADA9A2" d="M200.808,79.395c0,4.348-3.812,7.873-8.516,7.873c-4.701,0-8.514-3.525-8.514-7.873
		c0-4.349,3.812-7.873,8.514-7.873C196.995,71.521,200.808,75.046,200.808,79.395"/>
</g>
</svg>
