<?xml version="1.0" encoding="utf-8"?>
<!-- Generator: Adobe Illustrator 16.0.0, SVG Export Plug-In . SVG Version: 6.00 Build 0)  -->
<!DOCTYPE svg PUBLIC "-//W3C//DTD SVG 1.1//EN" "http://www.w3.org/Graphics/SVG/1.1/DTD/svg11.dtd">
<svg version="1.1" id="Layer_1" xmlns="http://www.w3.org/2000/svg" xmlns:xlink="http://www.w3.org/1999/xlink" x="0px" y="0px"
	 width="240px" height="239px" viewBox="0 0 240 239" enable-background="new 0 0 240 239" xml:space="preserve">
<g>
	<path fill-rule="evenodd" clip-rule="evenodd" fill="#ACA8A1" d="M148.618,84.84c0.006,4.009,0.017,8.018,0.019,12.027
		c0.003,6.798-0.007,13.597,0.013,20.395c0.002,0.6-0.136,0.938-0.749,1.136c-2.647,0.855-5.28,1.757-7.919,2.639
		c-0.16,0.054-0.33,0.075-0.682,0.153c0.442-0.496,0.782-0.846,1.086-1.224c1.291-1.609,2.638-3.182,3.828-4.862
		c0.604-0.854,1.05-1.874,1.345-2.885c0.548-1.874-0.742-3.602-2.673-3.435c-1.561,0.136-3.177,0.468-4.611,1.082
		c-4.157,1.775-8.235,3.737-12.344,5.627c-0.247,0.113-0.488,0.24-0.831,0.288c0.152-0.197,0.307-0.394,0.457-0.594
		c1.886-2.504,3.796-4.99,5.641-7.525c0.55-0.756,0.984-1.618,1.345-2.484c0.546-1.313-0.083-2.503-1.453-2.907
		c-1.262-0.371-2.516-0.19-3.753,0.132c-3.465,0.903-6.55,2.632-9.505,4.572c-2.808,1.841-5.508,3.844-8.255,5.776
		c-0.195,0.137-0.387,0.278-0.679,0.324c0.456-0.601,0.93-1.188,1.366-1.804c2.403-3.389,4.806-6.779,7.185-10.184
		c0.368-0.525,0.652-1.118,0.916-1.707c0.943-2.11,0.02-3.671-2.3-3.971c-1.912-0.247-3.71,0.239-5.477,0.849
		c-4.586,1.583-8.793,3.949-12.943,6.416c-2.352,1.398-4.65,2.887-6.972,4.334c-0.188,0.117-0.38,0.229-0.731,0.442
		c0-0.397,0-0.676,0-0.954c0-6.898,0.001-13.797-0.002-20.694c0-0.321-0.039-0.642-0.059-0.963
		C109.459,84.84,129.039,84.84,148.618,84.84z"/>
	<path fill-rule="evenodd" clip-rule="evenodd" fill="#ACA8A1" d="M89.977,143.5c-0.012-0.272-0.034-0.539-0.034-0.805
		c-0.001-9.94-0.006-19.879,0.017-29.817c0-0.338,0.168-0.822,0.423-0.992c5.949-3.958,11.961-7.813,18.498-10.754
		c1.593-0.718,3.267-1.258,4.904-1.879c0.051,0.083,0.103,0.166,0.153,0.25c-0.886,1.284-1.714,2.613-2.669,3.846
		c-5.928,7.659-11.884,15.295-17.832,22.938c-0.107,0.138-0.222,0.27-0.331,0.405c-0.806,1.014-0.796,2.119,0.023,2.873
		c0.825,0.759,1.888,0.679,2.868-0.212c1.086-0.988,2.163-1.988,3.265-2.959c6.771-5.962,13.721-11.7,21.354-16.543
		c1.883-1.195,3.92-2.149,5.891-3.205c0.232-0.124,0.495-0.193,0.847-0.159c-0.543,0.724-1.06,1.469-1.631,2.168
		c-3.392,4.143-6.807,8.265-10.173,12.427c-0.359,0.445-0.651,1.116-0.627,1.668c0.062,1.445,1.604,2.146,2.952,1.427
		c2.413-1.292,4.778-2.679,7.238-3.873c4.783-2.322,9.617-4.542,14.435-6.794c0.4-0.188,0.836-0.297,1.36-0.339
		c-0.248,0.342-0.483,0.694-0.746,1.025c-2.673,3.362-5.736,6.355-8.86,9.289c-0.146,0.137-0.298,0.263-0.439,0.404
		c-0.707,0.705-0.861,1.581-0.425,2.376c0.449,0.817,1.325,1.209,2.293,0.917c4.97-1.506,9.934-3.035,14.898-4.559
		c0.303-0.094,0.604-0.197,0.968-0.316c0,7.097,0,14.112,0,21.193C129.067,143.5,109.556,143.5,89.977,143.5z"/>
</g>
<g>
	<path fill-rule="evenodd" clip-rule="evenodd" fill="#ACA8A1" d="M33.715,164.389c-1.345,0.036-2.688,0.038-4.061-0.152
		c0.402-0.856,0.088-1.661,0.025-2.455c-0.16-2.028-0.383-4.053-0.583-6.078c-0.058-0.581-0.121-1.161-0.273-1.774
		c-0.066,0.109-0.14,0.215-0.196,0.33c-1.548,3.165-3.091,6.333-4.647,9.495c-0.112,0.229-0.31,0.416-0.468,0.622
		c-0.18-0.203-0.413-0.38-0.533-0.614c-1.563-3.071-3.111-6.15-4.662-9.228c-0.062-0.123-0.125-0.246-0.276-0.372
		c-0.035,0.174-0.086,0.347-0.102,0.522c-0.191,2.168-0.378,4.336-0.561,6.505c-0.059,0.701-0.116,1.403-0.146,2.105
		c-0.021,0.502,0.146,0.686,0.64,0.799c0.227,0.053,0.456,0.094,0.684,0.141c-0.005,0.038-0.01,0.077-0.014,0.115
		c-1.311,0-2.621,0-3.931,0c-0.005-0.036-0.011-0.072-0.016-0.107c0.152-0.039,0.302-0.087,0.457-0.112
		c0.572-0.097,0.793-0.269,0.883-0.848c0.132-0.847,0.221-1.7,0.32-2.553c0.276-2.353,0.548-4.705,0.82-7.057
		c0.113-0.979,0.223-1.959,0.334-2.938c0.004-0.039-0.004-0.082,0.011-0.115c0.077-0.176,0.16-0.352,0.24-0.527
		c0.152,0.139,0.361,0.248,0.448,0.42c1.329,2.616,2.641,5.241,3.96,7.862c0.53,1.054,1.065,2.104,1.6,3.154
		c0.057,0.111,0.128,0.213,0.241,0.398c0.244-0.488,0.458-0.905,0.662-1.326c1.63-3.354,3.257-6.708,4.886-10.063
		c0.034-0.068,0.056-0.15,0.107-0.202c0.092-0.092,0.202-0.166,0.305-0.248c0.068,0.114,0.182,0.224,0.198,0.345
		c0.116,0.876,0.215,1.754,0.317,2.631c0.298,2.582,0.594,5.164,0.895,7.745c0.074,0.636,0.128,1.276,0.25,1.902
		c0.186,0.953,0.587,1.291,1.554,1.418c0.218,0.028,0.434,0.071,0.651,0.107C33.727,164.286,33.721,164.338,33.715,164.389z"/>
	<path fill-rule="evenodd" clip-rule="evenodd" fill="#ACA8A1" d="M199.195,161.814c0-0.523,0.006-0.929-0.001-1.335
		c-0.029-1.717-0.055-3.434-0.097-5.149c-0.029-1.229-0.06-2.459-0.134-3.686c-0.045-0.734-0.309-0.945-1.048-1.016
		c-0.228-0.021-0.452-0.062-0.679-0.096c0.005-0.045,0.008-0.09,0.012-0.136c1.416,0,2.831,0,4.246,0
		c0.006,0.038,0.011,0.075,0.016,0.114c-0.177,0.039-0.354,0.083-0.532,0.116c-0.481,0.089-0.707,0.255-0.737,0.744
		c-0.059,0.933-0.065,1.868-0.069,2.803c-0.01,2.577-0.003,5.154-0.011,7.73c-0.003,0.756-0.029,1.512-0.057,2.267
		c-0.005,0.117-0.07,0.231-0.108,0.348c-0.115-0.041-0.258-0.052-0.343-0.127c-0.661-0.587-1.343-1.154-1.959-1.786
		c-2.872-2.945-5.725-5.91-8.583-8.868c-0.183-0.189-0.357-0.385-0.615-0.662c0,0.818-0.009,1.516,0.003,2.212
		c0.016,0.974,0.044,1.946,0.073,2.92c0.043,1.459,0.09,2.919,0.141,4.378c0.006,0.179,0.039,0.356,0.07,0.532
		c0.123,0.692,0.363,0.916,1.058,1.005c0.222,0.028,0.44,0.067,0.661,0.102c-0.004,0.039-0.007,0.078-0.011,0.117
		c-1.464,0-2.927,0-4.391,0c-0.008-0.029-0.016-0.06-0.022-0.089c0.167-0.041,0.334-0.093,0.504-0.122
		c0.617-0.105,0.776-0.228,0.855-0.848c0.064-0.506,0.068-1.021,0.069-1.533c0.005-3.564,0.002-7.128,0.005-10.692
		c0-0.216,0.016-0.437,0.055-0.647c0.065-0.357,0.222-0.429,0.489-0.188c0.428,0.386,0.827,0.803,1.227,1.219
		c1.723,1.793,3.444,3.586,5.159,5.387c1.477,1.55,2.941,3.108,4.413,4.662C198.933,161.571,199.018,161.646,199.195,161.814z"/>
	<path fill-rule="evenodd" clip-rule="evenodd" fill="#ACA8A1" d="M165.053,164.656c-1.516,0.031-2.938-0.29-4.221-1.102
		c-1.951-1.237-2.982-3.067-3.238-5.324c-0.242-2.117,0.371-4.007,1.75-5.633c1.229-1.445,2.818-2.244,4.684-2.457
		c1.84-0.209,3.635-0.008,5.293,0.892c2.174,1.178,3.309,3.025,3.467,5.48c0.107,1.653-0.197,3.224-1.093,4.635
		C170.153,163.577,167.871,164.636,165.053,164.656z M170.9,157.332c-0.035-0.305-0.07-0.895-0.173-1.473
		c-0.266-1.492-0.874-2.82-2.054-3.814c-1.416-1.193-3.057-1.547-4.863-1.201c-1.861,0.356-3.158,1.408-3.84,3.18
		c-0.563,1.463-0.605,2.977-0.34,4.506c0.506,2.899,2.449,5.147,5.469,5.393c1.812,0.147,3.376-0.411,4.519-1.879
		C170.628,160.746,170.867,159.208,170.9,157.332z"/>
	<path fill-rule="evenodd" clip-rule="evenodd" fill="#ACA8A1" d="M223.161,156.131c-0.087,0.833-0.176,1.684-0.265,2.534
		c-0.041,0.004-0.083,0.006-0.124,0.009c-0.035-0.127-0.079-0.252-0.102-0.38c-0.103-0.572-0.244-0.768-0.828-0.848
		c-0.619-0.086-1.25-0.095-1.876-0.122c-0.371-0.017-0.743,0-1.115-0.009c-0.241-0.006-0.362,0.104-0.359,0.341
		c0.017,1.652,0.012,3.305,0.067,4.956c0.022,0.646,0.351,0.979,0.996,1.02c0.929,0.056,1.866,0.06,2.795-0.006
		c0.708-0.051,1.152-0.508,1.294-1.226c0.028-0.139,0.085-0.272,0.128-0.409c0.039,0.003,0.079,0.005,0.118,0.008
		c0.019,0.123,0.064,0.251,0.05,0.37c-0.066,0.533-0.144,1.065-0.231,1.595c-0.056,0.341-0.28,0.514-0.621,0.507
		c-1.588-0.034-3.175-0.086-4.763-0.106c-0.807-0.012-1.612,0.029-2.419,0.04c-0.143,0.002-0.286-0.028-0.43-0.044
		c-0.004-0.036-0.009-0.074-0.013-0.111c0.147-0.043,0.293-0.111,0.442-0.122c0.453-0.033,0.676-0.302,0.718-0.714
		c0.076-0.764,0.168-1.529,0.174-2.295c0.021-2.833,0.011-5.666,0.005-8.498c-0.001-0.371-0.037-0.742-0.07-1.112
		c-0.05-0.563-0.313-0.818-0.88-0.878c-0.22-0.024-0.439-0.06-0.659-0.091c-0.002-0.045-0.003-0.09-0.005-0.135
		c0.146-0.021,0.293-0.062,0.438-0.061c1.857,0.018,3.714,0.055,5.572,0.057c0.737,0,1.475-0.078,2.283-0.125
		c-0.162,0.746-0.104,1.547-0.324,2.306c-0.047-0.001-0.094-0.002-0.141-0.003c-0.027-0.156-0.054-0.312-0.083-0.467
		c-0.103-0.555-0.281-0.777-0.836-0.851c-0.696-0.092-1.4-0.126-2.104-0.167c-0.369-0.021-0.743,0.001-1.114-0.012
		c-0.257-0.008-0.389,0.1-0.389,0.355c-0.002,1.603-0.002,3.204,0,4.807c0,0.204,0.078,0.346,0.317,0.34
		c1.127-0.024,2.255-0.021,3.379-0.084C222.504,156.483,222.809,156.271,223.161,156.131z"/>
	<path fill-rule="evenodd" clip-rule="evenodd" fill="#ACA8A1" d="M96.867,150.234c-0.167,0.79-0.124,1.589-0.3,2.357
		c-0.055-0.002-0.11-0.004-0.165-0.005c-0.024-0.128-0.054-0.256-0.072-0.385c-0.089-0.636-0.245-0.882-0.87-0.941
		c-1.094-0.105-2.196-0.125-3.295-0.169c-0.303-0.013-0.292,0.234-0.293,0.439c-0.004,1.179-0.003,2.358-0.003,3.538
		c0,0.385,0,0.769,0.004,1.153c0.002,0.194,0.045,0.364,0.295,0.359c1.114-0.019,2.229-0.013,3.341-0.073
		c0.331-0.019,0.65-0.227,1.027-0.366c-0.083,0.818-0.169,1.671-0.256,2.524c-0.042,0.004-0.083,0.008-0.124,0.011
		c-0.037-0.137-0.081-0.271-0.11-0.41c-0.114-0.562-0.268-0.776-0.851-0.825c-1.007-0.082-2.02-0.095-3.031-0.108
		c-0.096-0.001-0.278,0.202-0.278,0.311c-0.001,1.652,0.002,3.306,0.047,4.958c0.017,0.596,0.33,0.97,0.92,1.007
		c0.99,0.062,1.991,0.059,2.981-0.011c0.692-0.049,1.069-0.546,1.198-1.223c0.024-0.129,0.075-0.252,0.114-0.378
		c0.039,0.001,0.078,0.002,0.117,0.002c0.019,0.11,0.066,0.224,0.053,0.329c-0.068,0.546-0.146,1.09-0.233,1.634
		c-0.055,0.342-0.275,0.515-0.618,0.508c-1.588-0.034-3.176-0.085-4.764-0.106c-0.806-0.011-1.613,0.029-2.419,0.04
		c-0.144,0.002-0.288-0.026-0.431-0.04c-0.005-0.037-0.01-0.075-0.015-0.112c0.121-0.04,0.24-0.095,0.364-0.118
		c0.605-0.113,0.76-0.217,0.814-0.83c0.09-1.006,0.154-2.018,0.162-3.027c0.019-2.641,0.003-5.281-0.003-7.923
		c-0.001-0.255-0.038-0.511-0.061-0.766c-0.062-0.685-0.298-0.908-0.997-0.967c-0.173-0.015-0.345-0.064-0.509-0.18
		C91.337,150.287,94.069,150.611,96.867,150.234z"/>
	<path fill-rule="evenodd" clip-rule="evenodd" fill="#ACA8A1" d="M111.721,161.249c0.018,0.131,0.045,0.26,0.055,0.391
		c0.061,0.863,0.459,1.519,1.239,1.899c1.076,0.523,2.198,0.597,3.32,0.172c1.478-0.56,2.024-2.489,1.032-3.744
		c-0.415-0.525-0.955-0.96-1.476-1.391c-0.81-0.668-1.668-1.277-2.471-1.953c-0.378-0.317-0.702-0.711-1.005-1.104
		c-1.178-1.528-0.922-4.41,1.827-5.228c1.211-0.361,2.43-0.288,3.651-0.059c0.189,0.036,0.378,0.105,0.566,0.103
		c0.326-0.005,0.421,0.134,0.399,0.443c-0.041,0.574-0.049,1.15-0.078,1.726c-0.005,0.103-0.042,0.203-0.09,0.413
		c-0.102-0.172-0.172-0.238-0.181-0.312c-0.128-1.167-0.917-1.648-1.951-1.773c-0.598-0.074-1.239-0.075-1.821,0.06
		c-1.593,0.368-2.204,2.068-1.157,3.323c0.563,0.676,1.332,1.184,2.024,1.746c0.813,0.661,1.692,1.25,2.455,1.963
		c0.994,0.928,1.427,2.123,1.218,3.487c-0.243,1.581-1.363,2.752-2.945,3.068c-1.438,0.287-2.878,0.278-4.293-0.159
		c-0.611-0.189-0.649-0.242-0.635-0.867c0.015-0.64,0.056-1.278,0.093-1.917c0.005-0.101,0.05-0.198,0.077-0.298
		C111.623,161.242,111.671,161.246,111.721,161.249z"/>
	<path fill-rule="evenodd" clip-rule="evenodd" fill="#ACA8A1" d="M141.805,164.355c-1.613,0-3.227,0-4.84,0
		c-0.007-0.033-0.014-0.068-0.02-0.102c0.158-0.041,0.315-0.095,0.477-0.119c0.395-0.059,0.637-0.289,0.691-0.669
		c0.073-0.506,0.145-1.018,0.146-1.526c0.016-3.435,0.007-6.869,0.021-10.303c0.001-0.368-0.106-0.497-0.479-0.481
		c-1.036,0.043-2.074,0.056-3.11,0.081c-0.703,0.019-1.183,0.355-1.444,1.01c-0.043,0.107-0.127,0.197-0.191,0.296
		c-0.036-0.009-0.072-0.017-0.107-0.025c-0.009-0.1-0.04-0.204-0.021-0.299c0.115-0.578,0.238-1.154,0.363-1.729
		c0.067-0.313,0.195-0.399,0.564-0.334c0.803,0.144,1.623,0.23,2.438,0.242c2.152,0.031,4.306,0.023,6.459,0.003
		c0.688-0.007,1.377-0.095,2.064-0.16c0.182-0.018,0.352-0.058,0.344,0.202c-0.021,0.704-0.051,1.407-0.082,2.11
		c-0.002,0.043-0.047,0.084-0.121,0.208c-0.066-0.17-0.135-0.271-0.141-0.375c-0.035-0.538-0.34-0.859-0.83-0.979
		c-0.457-0.112-0.93-0.194-1.399-0.22c-0.716-0.04-1.436-0.01-2.152-0.028c-0.302-0.008-0.436,0.075-0.435,0.407
		c0.014,3.575,0.014,7.151,0.023,10.727c0,0.268,0.043,0.535,0.07,0.803c0.072,0.703,0.307,0.938,1.011,1.021
		c0.238,0.029,0.477,0.066,0.714,0.101C141.812,164.263,141.809,164.31,141.805,164.355z"/>
	<path fill-rule="evenodd" clip-rule="evenodd" fill="#ACA8A1" d="M75.146,161.906c0.025,0.098,0.083,0.2,0.07,0.293
		c-0.075,0.559-0.147,1.118-0.258,1.669c-0.095,0.472-0.256,0.593-0.75,0.6c-0.858,0.012-1.717,0.008-2.576-0.001
		c-1.586-0.016-3.172-0.041-4.758-0.061c-0.259-0.004-0.518,0-0.776,0c-0.006-0.053-0.013-0.105-0.019-0.157
		c0.133-0.038,0.263-0.089,0.398-0.115c0.528-0.102,0.687-0.224,0.761-0.761c0.085-0.607,0.158-1.222,0.161-1.833
		c0.016-3.075,0.009-6.151,0.004-9.227c0-0.268-0.034-0.536-0.064-0.804c-0.068-0.593-0.318-0.825-0.916-0.884
		c-0.201-0.02-0.399-0.063-0.598-0.097c0.006-0.045,0.012-0.091,0.018-0.137c1.574,0,3.149,0,4.723,0
		c0.005,0.036,0.009,0.073,0.015,0.11c-0.188,0.036-0.376,0.078-0.565,0.108c-0.608,0.096-0.822,0.317-0.857,0.936
		c-0.032,0.536-0.058,1.073-0.06,1.611c-0.006,2.216-0.015,4.434,0.004,6.649c0.007,0.883,0.057,1.766,0.135,2.645
		c0.068,0.771,0.296,1.065,1.058,1.131c1.052,0.09,2.119,0.104,3.173,0.047c0.757-0.04,1.192-0.581,1.396-1.298
		c0.04-0.142,0.091-0.281,0.138-0.421C75.052,161.909,75.099,161.908,75.146,161.906z"/>
	<path fill-rule="evenodd" clip-rule="evenodd" fill="#ACA8A1" d="M51.861,164.346c-1.676,0-3.269,0-4.861,0
		c-0.006-0.032-0.013-0.063-0.019-0.096c0.161-0.044,0.319-0.104,0.482-0.129c0.365-0.057,0.581-0.262,0.637-0.619
		c0.062-0.392,0.139-0.786,0.143-1.18c0.033-2.92,0.054-5.84,0.069-8.76c0.003-0.589-0.03-1.177-0.057-1.765
		c-0.042-0.921-0.343-1.177-1.032-1.191c-0.101-0.001-0.201-0.064-0.301-0.099c0.005-0.035,0.011-0.07,0.016-0.105
		c1.441,0,2.883,0,4.324,0c0.007,0.032,0.013,0.064,0.02,0.097c-0.134,0.04-0.266,0.096-0.403,0.12
		c-0.574,0.104-0.748,0.252-0.815,0.843c-0.054,0.469-0.06,0.944-0.061,1.417c-0.002,2.935-0.003,5.868,0.011,8.802
		c0.002,0.536,0.048,1.075,0.124,1.605c0.084,0.591,0.291,0.753,0.884,0.825c0.229,0.027,0.457,0.06,0.684,0.096
		C51.734,164.212,51.758,164.252,51.861,164.346z"/>
</g>
</svg>
