<?xml version="1.0" encoding="utf-8"?>
<!-- Generator: Adobe Illustrator 16.0.0, SVG Export Plug-In . SVG Version: 6.00 Build 0)  -->
<!DOCTYPE svg PUBLIC "-//W3C//DTD SVG 1.1//EN" "http://www.w3.org/Graphics/SVG/1.1/DTD/svg11.dtd">
<svg version="1.1" id="Layer_1" xmlns="http://www.w3.org/2000/svg" xmlns:xlink="http://www.w3.org/1999/xlink" x="0px" y="0px"
	 width="240px" height="239px" viewBox="0 0 240 239" enable-background="new 0 0 240 239" xml:space="preserve">
<g>
	<path fill="#ADA9A2" d="M116.11,74.323c-10.036,0-18.171,8.136-18.171,18.171c0,10.035,8.135,18.171,18.171,18.171
		s18.171-8.136,18.171-18.171C134.281,82.458,126.146,74.323,116.11,74.323 M140.1,92.494c0,13.25-10.74,23.988-23.989,23.988
		s-23.988-10.738-23.988-23.988c0-13.249,10.739-23.989,23.988-23.989S140.1,79.246,140.1,92.494"/>
	<path fill="#ADA9A2" d="M116.111,86.03c-3.57,0-6.465,2.893-6.465,6.464c0,3.57,2.895,6.463,6.465,6.463
		c3.569,0,6.463-2.893,6.463-6.463C122.574,88.923,119.681,86.03,116.111,86.03 M128.32,92.494c0,6.743-5.466,12.21-12.209,12.21
		c-6.744,0-12.211-5.467-12.211-12.21c0-6.744,5.467-12.21,12.211-12.21C122.854,80.284,128.32,85.75,128.32,92.494"/>
	<polygon fill="#ADA9A2" points="56.979,134.061 56.979,135.995 47.373,135.995 47.373,120.033 49.607,120.033 49.607,134.061 
		56.979,134.061 	"/>
	<path fill="#ADA9A2" d="M66.008,128.855c0.015-0.968-0.226-1.762-0.726-2.385c-0.5-0.621-1.186-0.932-2.062-0.932
		c-0.491,0-0.924,0.096-1.301,0.287s-0.694,0.441-0.955,0.749c-0.262,0.308-0.465,0.659-0.611,1.06
		c-0.147,0.398-0.242,0.805-0.289,1.221H66.008L66.008,128.855z M57.785,130.029c0-1.06,0.153-1.984,0.46-2.775
		c0.307-0.791,0.714-1.447,1.221-1.969c0.506-0.522,1.09-0.914,1.75-1.176c0.66-0.26,1.336-0.391,2.027-0.391
		c1.613,0,2.849,0.504,3.709,1.509c0.859,1.005,1.29,2.538,1.29,4.595v0.356c0,0.146-0.008,0.281-0.023,0.403H60.02
		c0.092,1.244,0.452,2.189,1.083,2.834c0.629,0.645,1.612,0.968,2.948,0.968c0.752,0,1.385-0.065,1.9-0.196
		c0.515-0.13,0.902-0.257,1.164-0.381l0.3,1.797c-0.263,0.139-0.718,0.286-1.371,0.438c-0.654,0.153-1.394,0.23-2.223,0.23
		c-1.045,0-1.947-0.158-2.707-0.473c-0.76-0.314-1.386-0.748-1.877-1.302c-0.492-0.552-0.856-1.208-1.095-1.97
		C57.903,131.77,57.785,130.937,57.785,130.029"/>
	<path fill="#ADA9A2" d="M72.872,124.018h4.538v1.797h-4.538v5.528c0,0.6,0.046,1.095,0.14,1.486
		c0.091,0.391,0.229,0.699,0.413,0.921c0.185,0.223,0.416,0.38,0.691,0.473c0.277,0.092,0.599,0.139,0.968,0.139
		c0.645,0,1.164-0.074,1.555-0.219c0.392-0.146,0.664-0.25,0.817-0.312l0.415,1.773c-0.215,0.108-0.59,0.242-1.127,0.404
		c-0.539,0.161-1.153,0.241-1.843,0.241c-0.814,0-1.486-0.104-2.017-0.311c-0.53-0.207-0.956-0.519-1.278-0.933
		c-0.322-0.415-0.549-0.926-0.68-1.532c-0.13-0.606-0.195-1.309-0.195-2.107v-10.688l2.142-0.369V124.018L72.872,124.018z"/>
	<path fill="#ADA9A2" d="M81.672,124.018h4.538v1.797h-4.538v5.528c0,0.6,0.046,1.095,0.139,1.486
		c0.092,0.391,0.23,0.699,0.413,0.921c0.186,0.223,0.415,0.38,0.692,0.473c0.276,0.092,0.598,0.139,0.968,0.139
		c0.645,0,1.163-0.074,1.554-0.219c0.393-0.146,0.664-0.25,0.818-0.312l0.415,1.773c-0.215,0.108-0.592,0.242-1.129,0.404
		c-0.538,0.161-1.151,0.241-1.843,0.241c-0.814,0-1.485-0.104-2.017-0.311c-0.528-0.207-0.955-0.519-1.277-0.933
		c-0.323-0.415-0.55-0.926-0.68-1.532c-0.131-0.606-0.195-1.309-0.195-2.107v-10.688l2.142-0.369V124.018L81.672,124.018z"/>
	<path fill="#ADA9A2" d="M90.61,135.996h-2.144v-11.979h2.144V135.996L90.61,135.996z M89.526,121.852
		c-0.384,0-0.71-0.126-0.979-0.379c-0.268-0.254-0.402-0.595-0.402-1.025c0-0.43,0.135-0.772,0.402-1.025
		c0.27-0.253,0.596-0.38,0.979-0.38s0.71,0.127,0.979,0.38c0.268,0.253,0.402,0.595,0.402,1.025c0,0.431-0.135,0.771-0.402,1.025
		C90.236,121.726,89.91,121.852,89.526,121.852"/>
	<path fill="#ADA9A2" d="M93.834,124.363c0.491-0.123,1.145-0.253,1.959-0.392c0.812-0.138,1.749-0.208,2.809-0.208
		c0.952,0,1.744,0.136,2.373,0.404c0.63,0.27,1.133,0.645,1.509,1.129c0.376,0.483,0.641,1.062,0.795,1.738
		c0.153,0.676,0.23,1.42,0.23,2.234v6.727h-2.143v-6.266c0-0.736-0.049-1.366-0.149-1.889c-0.1-0.522-0.265-0.944-0.494-1.268
		c-0.231-0.322-0.539-0.557-0.923-0.702s-0.859-0.22-1.428-0.22c-0.229,0-0.47,0.009-0.714,0.024
		c-0.246,0.015-0.48,0.034-0.703,0.058c-0.224,0.022-0.423,0.049-0.599,0.08c-0.178,0.031-0.304,0.055-0.381,0.068v10.113h-2.142
		V124.363L93.834,124.363z"/>
	<path fill="#ADA9A2" d="M114.082,125.906c-0.217-0.061-0.504-0.119-0.864-0.172c-0.361-0.055-0.849-0.082-1.462-0.082
		c-1.152,0-2.04,0.377-2.662,1.129c-0.622,0.754-0.933,1.751-0.933,2.995c0,0.69,0.089,1.282,0.266,1.773
		c0.176,0.492,0.414,0.898,0.714,1.222c0.298,0.322,0.646,0.561,1.036,0.713c0.391,0.154,0.795,0.23,1.209,0.23
		c0.569,0,1.091-0.08,1.567-0.241c0.476-0.161,0.853-0.35,1.129-0.564V125.906L114.082,125.906z M114.104,134.799
		c-0.184,0.122-0.54,0.279-1.07,0.472c-0.529,0.192-1.147,0.287-1.854,0.287c-0.722,0-1.401-0.115-2.038-0.345
		c-0.638-0.23-1.195-0.587-1.669-1.07c-0.478-0.484-0.854-1.088-1.13-1.81c-0.277-0.721-0.415-1.581-0.415-2.579
		c0-0.877,0.131-1.678,0.392-2.408c0.262-0.729,0.641-1.358,1.141-1.889c0.498-0.529,1.108-0.943,1.831-1.244
		c0.722-0.299,1.535-0.449,2.442-0.449c0.998,0,1.869,0.072,2.614,0.22c0.744,0.146,1.371,0.28,1.876,0.403v10.688
		c0,1.844-0.475,3.179-1.427,4.009c-0.952,0.829-2.396,1.243-4.331,1.243c-0.752,0-1.463-0.061-2.131-0.184s-1.248-0.27-1.739-0.438
		l0.393-1.866c0.429,0.169,0.956,0.318,1.577,0.45c0.622,0.129,1.271,0.194,1.946,0.194c1.275,0,2.192-0.253,2.753-0.76
		c0.561-0.508,0.84-1.312,0.84-2.418V134.799L114.104,134.799z"/>
	<path fill="#ADA9A2" d="M126.602,129.039c-0.309,1.167-0.635,2.327-0.98,3.479c-0.344,1.151-0.709,2.312-1.094,3.479h-2.672
		c-0.277-0.646-0.577-1.413-0.901-2.304c-0.323-0.89-0.659-1.862-1.005-2.914c-0.347-1.052-0.701-2.165-1.062-3.339
		c-0.362-1.176-0.713-2.362-1.051-3.56h3.616c0.123,0.554,0.259,1.155,0.405,1.808s0.302,1.324,0.464,2.016s0.332,1.387,0.51,2.086
		c0.178,0.697,0.358,1.369,0.544,2.015c0.2-0.676,0.396-1.367,0.588-2.073c0.191-0.705,0.376-1.4,0.553-2.086
		c0.177-0.682,0.347-1.343,0.508-1.98c0.16-0.637,0.303-1.23,0.426-1.784h2.487c0.123,0.554,0.262,1.147,0.415,1.784
		c0.152,0.638,0.314,1.299,0.484,1.98c0.168,0.686,0.344,1.381,0.529,2.086c0.185,0.706,0.376,1.397,0.575,2.073
		c0.186-0.646,0.371-1.317,0.557-2.015c0.185-0.699,0.359-1.395,0.521-2.086s0.316-1.363,0.463-2.016
		c0.147-0.652,0.282-1.254,0.405-1.808h3.571c-0.34,1.197-0.688,2.384-1.052,3.56c-0.362,1.174-0.716,2.287-1.062,3.339
		s-0.686,2.024-1.017,2.914c-0.331,0.891-0.636,1.658-0.911,2.304h-2.674c-0.384-1.167-0.76-2.327-1.129-3.479
		C127.246,131.366,126.907,130.206,126.602,129.039"/>
	<path fill="#ADA9A2" d="M144.028,128.717c-0.018-0.291-0.067-0.576-0.151-0.852c-0.085-0.277-0.216-0.522-0.392-0.738
		c-0.177-0.215-0.398-0.391-0.668-0.529c-0.269-0.137-0.603-0.207-1.003-0.207c-0.384,0-0.714,0.065-0.989,0.195
		c-0.276,0.131-0.508,0.304-0.691,0.518c-0.186,0.217-0.326,0.466-0.426,0.75c-0.101,0.283-0.172,0.572-0.22,0.863H144.028
		L144.028,128.717z M135.965,130.029c0-1.074,0.165-2.016,0.495-2.822c0.33-0.806,0.764-1.477,1.303-2.016
		c0.536-0.535,1.153-0.943,1.853-1.22s1.418-0.414,2.154-0.414c1.72,0,3.079,0.524,4.077,1.577c0.999,1.053,1.496,2.6,1.496,4.643
		c0,0.199-0.007,0.418-0.022,0.655c-0.015,0.238-0.03,0.45-0.045,0.634h-7.787c0.076,0.707,0.407,1.268,0.991,1.682
		c0.584,0.415,1.366,0.622,2.35,0.622c0.629,0,1.248-0.057,1.854-0.173c0.606-0.115,1.101-0.257,1.484-0.426l0.462,2.787
		c-0.186,0.092-0.43,0.184-0.737,0.276c-0.307,0.093-0.648,0.173-1.024,0.241c-0.377,0.069-0.78,0.128-1.21,0.173
		c-0.431,0.047-0.86,0.069-1.29,0.069c-1.091,0-2.039-0.161-2.845-0.483c-0.806-0.323-1.475-0.764-2.004-1.325
		c-0.53-0.56-0.921-1.224-1.175-1.992C136.092,131.75,135.965,130.921,135.965,130.029"/>
	<path fill="#ADA9A2" d="M157.295,129.846c0-2.212-0.813-3.317-2.442-3.317c-0.354,0-0.701,0.046-1.048,0.139
		c-0.345,0.092-0.625,0.208-0.841,0.345v6.243c0.169,0.031,0.385,0.058,0.646,0.08c0.262,0.023,0.545,0.035,0.854,0.035
		c0.937,0,1.642-0.323,2.119-0.967C157.057,131.758,157.295,130.904,157.295,129.846 M160.797,129.938
		c0,0.967-0.143,1.843-0.427,2.626c-0.283,0.783-0.695,1.452-1.232,2.005c-0.537,0.552-1.198,0.979-1.981,1.277
		c-0.782,0.3-1.674,0.45-2.672,0.45c-0.414,0-0.849-0.021-1.301-0.059c-0.454-0.037-0.898-0.088-1.335-0.149
		c-0.438-0.062-0.858-0.135-1.256-0.219c-0.401-0.084-0.753-0.172-1.062-0.265v-16.931l3.433-0.553v6.035
		c0.385-0.169,0.783-0.3,1.198-0.393c0.415-0.091,0.86-0.137,1.336-0.137c0.859,0,1.621,0.148,2.28,0.449
		c0.66,0.298,1.214,0.725,1.659,1.277s0.783,1.219,1.015,1.992C160.681,128.121,160.797,128.986,160.797,129.938"/>
	<path fill="#ADA9A2" d="M165.748,134.752c0,0.414-0.138,0.775-0.415,1.083c-0.276,0.306-0.65,0.461-1.129,0.461
		c-0.475,0-0.852-0.155-1.129-0.461c-0.275-0.308-0.412-0.669-0.412-1.083c0-0.415,0.137-0.775,0.412-1.083
		c0.277-0.307,0.654-0.461,1.129-0.461c0.479,0,0.853,0.154,1.129,0.461C165.61,133.977,165.748,134.337,165.748,134.752"/>
	<path fill="#ADA9A2" d="M173.627,136.272c-0.968,0-1.816-0.154-2.546-0.461s-1.344-0.737-1.843-1.29
		c-0.5-0.553-0.871-1.208-1.118-1.97c-0.246-0.76-0.367-1.602-0.367-2.522s0.134-1.766,0.403-2.533
		c0.268-0.768,0.646-1.432,1.139-1.992c0.491-0.562,1.095-0.998,1.809-1.312c0.715-0.316,1.51-0.473,2.384-0.473
		c0.537,0,1.075,0.045,1.612,0.137c0.538,0.094,1.052,0.239,1.544,0.438l-0.483,1.819c-0.322-0.152-0.696-0.275-1.117-0.367
		c-0.423-0.093-0.872-0.139-1.349-0.139c-1.198,0-2.115,0.377-2.752,1.129c-0.638,0.752-0.956,1.851-0.956,3.293
		c0,0.646,0.072,1.237,0.219,1.774c0.146,0.538,0.377,0.999,0.691,1.382c0.313,0.385,0.718,0.68,1.209,0.887
		c0.491,0.208,1.09,0.312,1.798,0.312c0.568,0,1.081-0.054,1.543-0.161c0.46-0.107,0.821-0.223,1.082-0.346l0.3,1.796
		c-0.123,0.077-0.3,0.15-0.529,0.219c-0.23,0.07-0.491,0.131-0.784,0.185c-0.291,0.055-0.603,0.101-0.933,0.139
		C174.252,136.254,173.934,136.272,173.627,136.272"/>
	<path fill="#ADA9A2" d="M186.71,130.007c0-1.352-0.304-2.422-0.91-3.214c-0.606-0.791-1.431-1.186-2.475-1.186
		c-1.045,0-1.87,0.395-2.477,1.186c-0.607,0.792-0.912,1.862-0.912,3.214s0.305,2.422,0.912,3.213
		c0.606,0.792,1.432,1.187,2.477,1.187c1.044,0,1.868-0.395,2.475-1.187C186.406,132.429,186.71,131.358,186.71,130.007
		 M188.944,130.007c0,0.952-0.139,1.812-0.415,2.58c-0.275,0.769-0.664,1.428-1.162,1.981c-0.499,0.552-1.096,0.979-1.785,1.277
		c-0.691,0.3-1.444,0.45-2.257,0.45c-0.815,0-1.567-0.15-2.258-0.45c-0.691-0.299-1.286-0.726-1.786-1.277
		c-0.499-0.554-0.887-1.213-1.163-1.981c-0.275-0.768-0.415-1.628-0.415-2.58c0-0.937,0.14-1.793,0.415-2.568
		c0.276-0.774,0.664-1.439,1.163-1.993c0.5-0.553,1.095-0.979,1.786-1.277c0.69-0.3,1.442-0.449,2.258-0.449
		c0.812,0,1.565,0.149,2.257,0.449c0.689,0.299,1.286,0.725,1.785,1.277c0.498,0.554,0.887,1.219,1.162,1.993
		C188.806,128.214,188.944,129.07,188.944,130.007"/>
	<path fill="#ADA9A2" d="M191.502,124.363c0.49-0.123,1.14-0.253,1.946-0.392c0.806-0.138,1.739-0.208,2.797-0.208
		c0.769,0,1.414,0.104,1.938,0.312c0.521,0.206,0.957,0.51,1.312,0.908c0.107-0.076,0.277-0.184,0.507-0.322
		c0.231-0.138,0.515-0.271,0.853-0.402c0.337-0.131,0.714-0.246,1.129-0.346c0.414-0.1,0.86-0.15,1.336-0.15
		c0.922,0,1.674,0.136,2.258,0.404c0.582,0.27,1.04,0.648,1.37,1.139c0.329,0.492,0.553,1.076,0.667,1.752
		c0.116,0.676,0.174,1.412,0.174,2.211v6.727h-2.142v-6.266c0-0.705-0.034-1.312-0.104-1.82c-0.069-0.506-0.2-0.928-0.393-1.267
		c-0.191-0.338-0.453-0.587-0.782-0.749c-0.332-0.16-0.757-0.242-1.28-0.242c-0.722,0-1.316,0.098-1.784,0.289
		c-0.469,0.192-0.787,0.364-0.956,0.519c0.123,0.399,0.215,0.837,0.276,1.313c0.062,0.475,0.093,0.975,0.093,1.496v6.727h-2.143
		v-6.266c0-0.705-0.039-1.312-0.114-1.82c-0.078-0.506-0.213-0.928-0.404-1.267c-0.192-0.338-0.453-0.587-0.783-0.749
		c-0.331-0.16-0.748-0.242-1.255-0.242c-0.215,0-0.446,0.009-0.691,0.024c-0.246,0.015-0.48,0.034-0.702,0.058
		c-0.224,0.022-0.427,0.049-0.61,0.08s-0.308,0.055-0.37,0.068v10.113h-2.141V124.363L191.502,124.363z"/>
	<path fill="#ADA9A2" d="M79.767,148.867h1.227v-2.364c0-0.158-0.006-0.309-0.017-0.449c-0.011-0.14-0.036-0.272-0.074-0.399
		c0.077-0.049,0.174-0.09,0.292-0.123c0.118-0.033,0.21-0.049,0.276-0.049c0.247,0,0.421,0.082,0.523,0.246
		c0.102,0.165,0.152,0.445,0.152,0.841v2.298h1.227v-2.446c0-0.297-0.025-0.565-0.074-0.807c-0.049-0.242-0.14-0.451-0.271-0.626
		c-0.132-0.177-0.309-0.312-0.531-0.408c-0.223-0.096-0.506-0.144-0.853-0.144c-0.192,0-0.402,0.035-0.63,0.106
		c-0.228,0.071-0.43,0.17-0.605,0.297c-0.126-0.11-0.287-0.205-0.481-0.285c-0.195-0.078-0.449-0.118-0.762-0.118
		c-0.16,0-0.321,0.006-0.486,0.021c-0.165,0.014-0.326,0.033-0.482,0.058c-0.156,0.024-0.304,0.052-0.444,0.082
		s-0.262,0.059-0.367,0.087v4.184h1.228v-3.344c0.076-0.012,0.156-0.021,0.239-0.029c0.082-0.008,0.162-0.012,0.239-0.012
		c0.247,0,0.421,0.082,0.523,0.246c0.101,0.165,0.152,0.445,0.152,0.841V148.867L79.767,148.867z M85.61,147.899
		c-0.129-0.074-0.193-0.208-0.193-0.399c0-0.1,0.022-0.182,0.066-0.248c0.044-0.064,0.104-0.117,0.181-0.156
		c0.077-0.038,0.166-0.064,0.268-0.078c0.101-0.013,0.21-0.021,0.325-0.021c0.082,0,0.173,0.006,0.271,0.017
		s0.173,0.021,0.222,0.033v0.931c-0.066,0.011-0.153,0.019-0.264,0.024c-0.109,0.006-0.225,0.009-0.345,0.009
		C85.916,148.011,85.739,147.973,85.61,147.899L85.61,147.899z M85.619,144.44c-0.14,0.014-0.273,0.03-0.399,0.05
		c-0.127,0.019-0.244,0.04-0.35,0.064c-0.107,0.025-0.197,0.049-0.268,0.07l0.157,0.989c0.148-0.056,0.324-0.098,0.527-0.128
		s0.409-0.045,0.618-0.045c0.313,0,0.532,0.062,0.659,0.188c0.126,0.127,0.189,0.294,0.189,0.503v0.115
		c-0.077-0.021-0.177-0.04-0.3-0.054c-0.124-0.014-0.265-0.021-0.424-0.021c-0.236,0-0.464,0.023-0.683,0.07
		c-0.22,0.046-0.415,0.122-0.585,0.226c-0.17,0.105-0.306,0.244-0.408,0.421c-0.102,0.176-0.152,0.39-0.152,0.642
		c0,0.264,0.043,0.486,0.132,0.667c0.087,0.182,0.214,0.329,0.379,0.441c0.165,0.112,0.361,0.193,0.588,0.242
		c0.228,0.05,0.482,0.074,0.762,0.074c0.445,0,0.823-0.025,1.136-0.078c0.313-0.052,0.558-0.098,0.733-0.136v-2.553
		c0-0.27-0.03-0.514-0.09-0.733s-0.164-0.406-0.309-0.56c-0.145-0.154-0.339-0.272-0.581-0.354s-0.543-0.123-0.906-0.123
		C85.9,144.42,85.758,144.427,85.619,144.44L85.619,144.44z M90.267,142.476l-1.227,0.198v6.193h1.227v-1.899
		c0.137,0.11,0.276,0.245,0.415,0.405c0.14,0.159,0.273,0.326,0.398,0.499c0.126,0.173,0.246,0.347,0.358,0.52
		c0.113,0.174,0.212,0.332,0.3,0.476h1.411c-0.093-0.182-0.208-0.383-0.346-0.603s-0.288-0.44-0.453-0.66
		c-0.165-0.22-0.335-0.433-0.51-0.639c-0.176-0.207-0.346-0.385-0.511-0.532c0.33-0.324,0.633-0.637,0.91-0.941
		c0.277-0.304,0.561-0.623,0.852-0.957h-1.459c-0.077,0.093-0.168,0.202-0.275,0.327c-0.107,0.126-0.221,0.258-0.341,0.397
		c-0.121,0.139-0.246,0.279-0.375,0.421c-0.129,0.143-0.253,0.279-0.375,0.41V142.476L90.267,142.476z M95.036,144.535h-1.228v4.332
		h1.228V144.535L95.036,144.535z M94.933,142.752c-0.146-0.129-0.317-0.193-0.515-0.193s-0.37,0.064-0.515,0.193
		s-0.218,0.306-0.218,0.531c0,0.225,0.072,0.402,0.218,0.531s0.318,0.193,0.515,0.193s0.369-0.064,0.515-0.193
		s0.218-0.307,0.218-0.531C95.151,143.058,95.078,142.881,94.933,142.752L94.933,142.752z M96.188,148.867h1.227v-3.344
		c0.077-0.012,0.165-0.021,0.264-0.029c0.098-0.008,0.192-0.012,0.28-0.012c0.285,0,0.48,0.082,0.584,0.246
		c0.104,0.165,0.156,0.445,0.156,0.841v2.298h1.228v-2.446c0-0.297-0.031-0.565-0.091-0.807c-0.061-0.242-0.162-0.451-0.305-0.626
		c-0.143-0.177-0.336-0.312-0.581-0.408c-0.244-0.096-0.55-0.144-0.918-0.144c-0.362,0-0.708,0.025-1.038,0.078
		c-0.33,0.052-0.599,0.108-0.807,0.169V148.867L96.188,148.867z M102.324,145.745c0.159-0.214,0.4-0.321,0.725-0.321
		c0.11,0,0.206,0.004,0.288,0.013c0.083,0.009,0.154,0.018,0.214,0.029v1.96c-0.077,0.043-0.17,0.082-0.28,0.115
		c-0.11,0.032-0.228,0.05-0.354,0.05c-0.554,0-0.831-0.344-0.831-1.029C102.085,146.231,102.165,145.96,102.324,145.745
		L102.324,145.745z M104.778,144.684c-0.109-0.033-0.234-0.064-0.375-0.095c-0.139-0.03-0.287-0.057-0.44-0.078
		c-0.154-0.022-0.309-0.04-0.465-0.054c-0.157-0.015-0.309-0.021-0.458-0.021c-0.346,0-0.656,0.05-0.93,0.152
		c-0.275,0.101-0.507,0.245-0.695,0.432c-0.189,0.187-0.334,0.411-0.433,0.672s-0.148,0.55-0.148,0.869
		c0,0.636,0.159,1.132,0.478,1.485c0.318,0.354,0.777,0.531,1.375,0.531c0.164,0,0.317-0.015,0.457-0.045
		c0.14-0.029,0.275-0.075,0.407-0.136v0.156c0,0.241-0.073,0.439-0.218,0.593c-0.146,0.154-0.395,0.23-0.745,0.23
		c-0.27,0-0.51-0.021-0.721-0.065s-0.413-0.104-0.605-0.182l-0.215,1.03c0.225,0.076,0.47,0.138,0.734,0.185
		c0.263,0.047,0.526,0.07,0.79,0.07c0.752,0,1.308-0.171,1.668-0.515c0.36-0.343,0.539-0.869,0.539-1.577V144.684L104.778,144.684z
		 M109.81,147.937c-0.148-0.011-0.266-0.036-0.354-0.074c-0.089-0.039-0.155-0.088-0.202-0.148s-0.078-0.135-0.095-0.223
		c-0.017-0.087-0.024-0.187-0.024-0.296v-4.72l-1.227,0.198v4.769c0,0.23,0.023,0.438,0.069,0.622
		c0.047,0.183,0.135,0.34,0.264,0.469c0.129,0.129,0.305,0.229,0.527,0.301c0.222,0.071,0.512,0.109,0.869,0.115L109.81,147.937
		L109.81,147.937z M110.44,147.623c0.09,0.274,0.23,0.512,0.42,0.713c0.189,0.2,0.428,0.358,0.716,0.474
		c0.289,0.114,0.628,0.172,1.018,0.172c0.153,0,0.307-0.008,0.461-0.024c0.154-0.016,0.298-0.037,0.433-0.062
		s0.257-0.054,0.366-0.086c0.109-0.033,0.197-0.066,0.264-0.099l-0.165-0.997c-0.137,0.061-0.314,0.111-0.53,0.152
		c-0.217,0.041-0.438,0.062-0.664,0.062c-0.352,0-0.631-0.074-0.84-0.223c-0.208-0.148-0.327-0.349-0.354-0.601h2.783
		c0.006-0.065,0.011-0.142,0.016-0.227c0.007-0.085,0.009-0.164,0.009-0.234c0-0.73-0.179-1.284-0.535-1.659
		c-0.357-0.377-0.843-0.564-1.458-0.564c-0.263,0-0.52,0.049-0.77,0.147c-0.25,0.1-0.471,0.244-0.662,0.437
		c-0.193,0.192-0.349,0.433-0.466,0.721c-0.119,0.289-0.178,0.625-0.178,1.01C110.304,147.053,110.349,147.349,110.44,147.623
		L110.44,147.623z M111.564,146.265c0.016-0.104,0.042-0.207,0.078-0.31c0.035-0.102,0.086-0.19,0.152-0.267
		c0.065-0.078,0.147-0.139,0.247-0.187c0.098-0.046,0.217-0.069,0.354-0.069c0.143,0,0.262,0.024,0.358,0.074
		c0.096,0.049,0.176,0.112,0.238,0.189c0.063,0.076,0.11,0.165,0.141,0.264s0.048,0.2,0.054,0.305H111.564L111.564,146.265z
		 M115.278,147.096c0,0.28,0.026,0.535,0.078,0.767c0.052,0.23,0.145,0.427,0.276,0.589c0.132,0.161,0.307,0.288,0.526,0.378
		c0.22,0.091,0.497,0.137,0.832,0.137c0.264,0,0.485-0.022,0.667-0.066c0.181-0.044,0.347-0.096,0.494-0.156l-0.173-0.955
		c-0.115,0.044-0.243,0.078-0.383,0.103c-0.141,0.025-0.276,0.037-0.407,0.037c-0.275,0-0.458-0.076-0.548-0.23
		c-0.091-0.154-0.137-0.359-0.137-0.618v-1.523h1.475v-1.021h-1.475v-1.276l-1.227,0.197V147.096L115.278,147.096z M118.935,147.096
		c0,0.28,0.026,0.535,0.078,0.767c0.053,0.23,0.145,0.427,0.276,0.589c0.132,0.161,0.307,0.288,0.526,0.378
		c0.22,0.091,0.497,0.137,0.833,0.137c0.264,0,0.485-0.022,0.666-0.066c0.182-0.044,0.347-0.096,0.494-0.156l-0.173-0.955
		c-0.115,0.044-0.242,0.078-0.383,0.103c-0.141,0.025-0.275,0.037-0.407,0.037c-0.274,0-0.457-0.076-0.548-0.23
		s-0.136-0.359-0.136-0.618v-1.523h1.474v-1.021h-1.474v-1.276l-1.228,0.197V147.096L118.935,147.096z M123.859,144.535h-1.227
		v4.332h1.227V144.535L123.859,144.535z M123.757,142.752c-0.146-0.129-0.317-0.193-0.515-0.193c-0.198,0-0.37,0.064-0.516,0.193
		c-0.145,0.129-0.218,0.306-0.218,0.531c0,0.225,0.073,0.402,0.218,0.531c0.146,0.129,0.317,0.193,0.516,0.193
		c0.197,0,0.368-0.064,0.515-0.193c0.146-0.129,0.218-0.307,0.218-0.531C123.975,143.058,123.902,142.881,123.757,142.752
		L123.757,142.752z M125.013,148.867h1.227v-3.344c0.077-0.012,0.165-0.021,0.264-0.029s0.191-0.012,0.28-0.012
		c0.285,0,0.48,0.082,0.584,0.246c0.104,0.165,0.157,0.445,0.157,0.841v2.298h1.228v-2.446c0-0.297-0.03-0.565-0.092-0.807
		c-0.06-0.242-0.162-0.451-0.305-0.626c-0.143-0.177-0.336-0.312-0.579-0.408c-0.245-0.096-0.552-0.144-0.92-0.144
		c-0.362,0-0.707,0.025-1.037,0.078c-0.33,0.052-0.599,0.108-0.807,0.169V148.867L125.013,148.867z M131.147,145.745
		c0.159-0.214,0.4-0.321,0.725-0.321c0.11,0,0.207,0.004,0.289,0.013c0.081,0.009,0.153,0.018,0.214,0.029v1.96
		c-0.077,0.043-0.171,0.082-0.28,0.115c-0.109,0.032-0.228,0.05-0.354,0.05c-0.554,0-0.831-0.344-0.831-1.029
		C130.909,146.231,130.988,145.96,131.147,145.745L131.147,145.745z M133.602,144.684c-0.109-0.033-0.234-0.064-0.374-0.095
		s-0.287-0.057-0.44-0.078c-0.155-0.022-0.309-0.04-0.467-0.054c-0.155-0.015-0.308-0.021-0.456-0.021
		c-0.347,0-0.657,0.05-0.93,0.152c-0.274,0.101-0.507,0.245-0.696,0.432s-0.334,0.411-0.433,0.672
		c-0.1,0.261-0.148,0.55-0.148,0.869c0,0.636,0.159,1.132,0.478,1.485c0.318,0.354,0.776,0.531,1.375,0.531
		c0.165,0,0.317-0.015,0.457-0.045c0.141-0.029,0.275-0.075,0.408-0.136v0.156c0,0.241-0.073,0.439-0.218,0.593
		c-0.146,0.154-0.395,0.23-0.746,0.23c-0.269,0-0.509-0.021-0.721-0.065c-0.211-0.044-0.413-0.104-0.605-0.182l-0.214,1.03
		c0.226,0.076,0.47,0.138,0.733,0.185s0.526,0.07,0.79,0.07c0.752,0,1.308-0.171,1.668-0.515c0.359-0.343,0.539-0.869,0.539-1.577
		V144.684L133.602,144.684z M139.252,147.582c-0.171,0.231-0.423,0.346-0.759,0.346c-0.109,0-0.211-0.004-0.305-0.012
		c-0.093-0.009-0.17-0.019-0.229-0.029v-2.232c0.076-0.049,0.177-0.09,0.3-0.123c0.124-0.033,0.248-0.049,0.375-0.049
		c0.582,0,0.873,0.395,0.873,1.186C139.507,147.047,139.422,147.352,139.252,147.582L139.252,147.582z M140.636,145.774
		c-0.083-0.277-0.204-0.515-0.363-0.712c-0.158-0.198-0.356-0.351-0.593-0.458c-0.236-0.106-0.508-0.16-0.815-0.16
		c-0.17,0-0.329,0.017-0.478,0.05c-0.147,0.032-0.291,0.079-0.428,0.14v-2.158l-1.228,0.198v6.053
		c0.109,0.033,0.236,0.064,0.379,0.095s0.293,0.057,0.448,0.078c0.157,0.022,0.316,0.04,0.479,0.054s0.317,0.021,0.465,0.021
		c0.356,0,0.676-0.054,0.956-0.16c0.279-0.107,0.516-0.26,0.707-0.458c0.193-0.197,0.34-0.436,0.441-0.716
		c0.102-0.279,0.152-0.593,0.152-0.939C140.759,146.36,140.718,146.052,140.636,145.774L140.636,145.774z M141.636,147.623
		c0.091,0.274,0.23,0.512,0.42,0.713c0.189,0.2,0.429,0.358,0.716,0.474c0.289,0.114,0.628,0.172,1.018,0.172
		c0.154,0,0.308-0.008,0.461-0.024c0.153-0.016,0.298-0.037,0.433-0.062s0.257-0.054,0.367-0.086
		c0.109-0.033,0.196-0.066,0.263-0.099l-0.165-0.997c-0.138,0.061-0.314,0.111-0.531,0.152c-0.216,0.041-0.438,0.062-0.662,0.062
		c-0.352,0-0.631-0.074-0.84-0.223s-0.328-0.349-0.354-0.601h2.784c0.005-0.065,0.011-0.142,0.016-0.227
		c0.006-0.085,0.008-0.164,0.008-0.234c0-0.73-0.179-1.284-0.534-1.659c-0.357-0.377-0.843-0.564-1.459-0.564
		c-0.262,0-0.52,0.049-0.769,0.147c-0.251,0.1-0.472,0.244-0.664,0.437s-0.347,0.433-0.465,0.721
		c-0.118,0.289-0.178,0.625-0.178,1.01C141.499,147.053,141.545,147.349,141.636,147.623L141.636,147.623z M142.76,146.265
		c0.017-0.104,0.042-0.207,0.078-0.31c0.036-0.102,0.086-0.19,0.152-0.267c0.066-0.078,0.148-0.139,0.247-0.187
		c0.099-0.046,0.218-0.069,0.354-0.069c0.143,0,0.262,0.024,0.357,0.074c0.097,0.049,0.177,0.112,0.239,0.189
		c0.063,0.076,0.11,0.165,0.141,0.264c0.029,0.099,0.048,0.2,0.053,0.305H142.76L142.76,146.265z M146.474,147.096
		c0,0.28,0.026,0.535,0.078,0.767c0.053,0.23,0.145,0.427,0.276,0.589c0.132,0.161,0.307,0.288,0.527,0.378
		c0.219,0.091,0.497,0.137,0.832,0.137c0.263,0,0.485-0.022,0.666-0.066c0.182-0.044,0.347-0.096,0.494-0.156l-0.173-0.955
		c-0.114,0.044-0.242,0.078-0.383,0.103c-0.14,0.025-0.275,0.037-0.407,0.037c-0.274,0-0.457-0.076-0.547-0.23
		c-0.092-0.154-0.137-0.359-0.137-0.618v-1.523h1.474v-1.021h-1.474v-1.276l-1.228,0.197V147.096L146.474,147.096z M150.131,147.096
		c0,0.28,0.025,0.535,0.078,0.767c0.052,0.23,0.144,0.427,0.276,0.589c0.132,0.161,0.307,0.288,0.526,0.378
		c0.219,0.091,0.496,0.137,0.832,0.137c0.264,0,0.485-0.022,0.667-0.066c0.181-0.044,0.346-0.096,0.494-0.156l-0.173-0.955
		c-0.115,0.044-0.243,0.078-0.384,0.103c-0.14,0.025-0.276,0.037-0.406,0.037c-0.274,0-0.458-0.076-0.549-0.23
		s-0.135-0.359-0.135-0.618v-1.523h1.474v-1.021h-1.474v-1.276l-1.228,0.197V147.096L150.131,147.096z M153.593,147.623
		c0.092,0.274,0.231,0.512,0.421,0.713c0.189,0.2,0.429,0.358,0.716,0.474c0.289,0.114,0.628,0.172,1.018,0.172
		c0.154,0,0.308-0.008,0.461-0.024c0.153-0.016,0.298-0.037,0.433-0.062s0.257-0.054,0.366-0.086
		c0.11-0.033,0.197-0.066,0.264-0.099l-0.165-0.997c-0.138,0.061-0.314,0.111-0.531,0.152s-0.438,0.062-0.662,0.062
		c-0.352,0-0.631-0.074-0.84-0.223s-0.328-0.349-0.355-0.601h2.784c0.006-0.065,0.012-0.142,0.017-0.227
		c0.006-0.085,0.008-0.164,0.008-0.234c0-0.73-0.178-1.284-0.534-1.659c-0.357-0.377-0.843-0.564-1.458-0.564
		c-0.265,0-0.521,0.049-0.77,0.147c-0.251,0.1-0.473,0.244-0.664,0.437c-0.192,0.192-0.347,0.433-0.465,0.721
		c-0.118,0.289-0.177,0.625-0.177,1.01C153.458,147.053,153.503,147.349,153.593,147.623L153.593,147.623z M154.717,146.265
		c0.018-0.104,0.043-0.207,0.079-0.31c0.036-0.102,0.087-0.19,0.152-0.267c0.066-0.078,0.147-0.139,0.247-0.187
		c0.099-0.046,0.216-0.069,0.354-0.069c0.144,0,0.263,0.024,0.359,0.074c0.095,0.049,0.176,0.112,0.238,0.189
		c0.062,0.076,0.11,0.165,0.141,0.264c0.029,0.099,0.048,0.2,0.053,0.305H154.717L154.717,146.265z M161.289,144.609
		c-0.065-0.028-0.146-0.051-0.238-0.07c-0.094-0.019-0.188-0.036-0.279-0.049c-0.094-0.014-0.188-0.025-0.281-0.033
		c-0.093-0.009-0.172-0.013-0.238-0.013c-0.368,0-0.701,0.034-1.001,0.103c-0.299,0.069-0.558,0.142-0.778,0.219v4.102h1.228v-3.312
		c0.055-0.016,0.137-0.031,0.243-0.045s0.198-0.021,0.276-0.021c0.169,0,0.328,0.016,0.477,0.046
		c0.149,0.029,0.277,0.059,0.388,0.086L161.289,144.609L161.289,144.609z"/>
</g>
</svg>
