<?xml version="1.0" encoding="utf-8"?>
<!-- Generator: Adobe Illustrator 16.0.0, SVG Export Plug-In . SVG Version: 6.00 Build 0)  -->
<!DOCTYPE svg PUBLIC "-//W3C//DTD SVG 1.1//EN" "http://www.w3.org/Graphics/SVG/1.1/DTD/svg11.dtd">
<svg version="1.1" id="Layer_1" xmlns="http://www.w3.org/2000/svg" xmlns:xlink="http://www.w3.org/1999/xlink" x="0px" y="0px"
	 width="240px" height="239px" viewBox="0 0 240 239" enable-background="new 0 0 240 239" xml:space="preserve">
<g id="w9cZ5g_1_">
	<g>
		<path fill="#ADA9A2" d="M137.292,149.629c-0.2-0.038-0.397-0.102-0.599-0.107c-2.894-0.103-5.789-0.145-8.678-0.307
			c-3.052-0.171-6.1-0.418-9.144-0.699c-3.104-0.287-6.206-0.603-9.296-1.004c-3.944-0.514-7.883-1.082-11.812-1.703
			c-8.656-1.371-17.232-3.149-25.748-5.211c-4.068-0.986-8.114-2.062-12.168-3.099c-0.174-0.045-0.34-0.119-0.504-0.179
			c0.222-1.047,0.372-1.117,1.347-0.928c6.682,1.31,13.354,2.678,20.056,3.879c4.964,0.889,9.961,1.604,14.958,2.304
			c3.898,0.548,7.813,0.983,11.728,1.409c3.711,0.401,7.428,0.761,11.146,1.072c2.801,0.233,5.61,0.354,8.416,0.541
			c7.629,0.508,15.269,0.62,22.903,0.436c4.963-0.12,9.922-0.453,14.873-0.82c6.943-0.514,13.816-1.561,20.611-3.084
			c8.51-1.911,16.74-4.607,24.391-8.878c1.877-1.048,3.682-2.224,5.557-3.315c-0.161,0.133-0.316,0.271-0.48,0.396
			c-5.623,4.271-11.855,7.424-18.395,10.007c-7.895,3.119-16.062,5.248-24.414,6.7c-4.812,0.837-9.648,1.507-14.521,1.833
			c-4.033,0.271-8.072,0.427-12.109,0.64c-0.324,0.018-0.645,0.078-0.969,0.118C142.059,149.629,139.676,149.629,137.292,149.629z"
			/>
		<path fill="#ADA9A2" d="M18.098,101.311c1.298-0.18,2.595-0.368,3.896-0.533c0.65-0.082,1.306-0.165,1.96-0.169
			c3.286-0.02,6.571-0.003,9.856-0.027c0.535-0.004,0.749,0.192,0.766,0.696c0.047,1.354,0.095,2.707,0.157,4.062
			c0.016,0.359-0.127,0.503-0.479,0.563c-0.384,0.065-0.446-0.146-0.522-0.429c-0.116-0.436-0.265-0.862-0.4-1.293
			c-0.417-1.324-1.354-1.982-2.708-2.009c-1.888-0.037-3.778-0.018-5.667-0.027c-0.451-0.002-0.609,0.225-0.608,0.653
			c0.006,2.588,0.01,5.175-0.005,7.763c-0.003,0.479,0.247,0.532,0.622,0.513c2.172-0.112,4.344-0.23,6.517-0.312
			c0.355-0.014,1.008,0.104,1.025,0.231c0.079,0.57-0.005,1.167-0.082,1.748c-0.008,0.059-0.363,0.105-0.555,0.1
			c-2.277-0.067-4.555-0.132-6.83-0.232c-0.55-0.024-0.708,0.153-0.703,0.692c0.024,2.504,0.009,5.01,0.017,7.516
			c0.003,0.895,0.204,1.113,1.079,1.104c1.989-0.021,3.98-0.035,5.967-0.123c1.097-0.048,1.939-0.646,2.492-1.592
			c0.373-0.636,0.702-1.301,1.004-1.973c0.153-0.343,0.321-0.462,0.698-0.38c0.394,0.087,0.428,0.312,0.364,0.632
			c-0.291,1.446-0.57,2.895-0.876,4.338c-0.118,0.559-0.498,0.797-1.078,0.795c-4.189-0.018-8.378-0.025-12.567-0.02
			c-0.642,0.002-0.731-0.342-0.73-0.865c0.008-5.872,0.005-11.746,0.005-17.617c0-0.349,0.002-0.698-0.001-1.048
			c-0.011-1.269-0.557-1.797-1.825-1.766c-0.182,0.004-0.363,0.019-0.557,0.028c-0.082-0.271-0.156-0.521-0.231-0.771
			C18.098,101.475,18.098,101.393,18.098,101.311z"/>
		<path fill="#ADA9A2" d="M53.049,123.55c0.579,0.104,1.097,0.193,1.613,0.293c1.778,0.345,3.004,1.347,3.621,3.063
			c0.256,0.714,0.489,1.437,0.76,2.145c0.488,1.277,1.065,2.471,2.723,2.309c0.242,1.033,0.245,1.052-0.716,1.201
			c-0.628,0.097-1.264,0.146-1.897,0.194c-1.57,0.122-2.719-0.567-3.41-1.94c-0.497-0.985-0.936-2.014-1.284-3.061
			c-0.87-2.611-2.32-3.416-4.952-3.479c-1.571-0.039-3.118-0.155-4.608-0.672c-3.367-1.17-5.546-3.515-6.59-6.886
			c-0.942-3.042-0.918-6.131,0.046-9.156c1.357-4.258,4.438-6.572,8.738-7.365c2.099-0.387,4.207-0.407,6.296,0.103
			c3.54,0.862,5.99,2.989,7.212,6.422c1.071,3.005,1.129,6.09,0.24,9.145c-1.076,3.695-3.532,6.123-7.155,7.387
			c-0.174,0.062-0.35,0.117-0.523,0.18C53.145,123.436,53.134,123.459,53.049,123.55z M57.284,112.711
			c-0.008-2.967-0.624-5.503-1.81-7.438c-1.732-2.83-4.826-4.146-8.049-3.387c-2.563,0.604-4.061,2.356-4.898,4.74
			c-0.812,2.312-0.891,4.699-0.567,7.108c0.262,1.951,0.773,3.82,1.893,5.472c1.614,2.38,3.874,3.485,6.735,3.257
			c2.84-0.227,4.639-1.873,5.719-4.405C57.035,116.353,57.275,114.551,57.284,112.711z"/>
		<path fill="#ADA9A2" d="M78.101,121.854c-1.216,0.508-2.366,1.045-3.557,1.473c-2.097,0.753-4.254,1.097-6.467,0.588
			c-2.872-0.659-4.485-2.708-4.496-5.724c-0.016-4.62-0.004-9.239-0.004-13.86c0-0.061-0.002-0.123,0-0.185
			c0.068-1.753-0.3-2.404-2.157-2.216c-0.076,0.008-0.156-0.022-0.28-0.042c-0.036-0.331-0.07-0.651-0.116-1.08
			c0.544-0.097,1.076-0.207,1.613-0.281c1.157-0.159,2.315-0.321,3.477-0.443c1.079-0.112,1.219,0.034,1.219,1.113
			c0.001,5.011-0.01,10.021,0.011,15.03c0.003,0.732,0.068,1.487,0.253,2.192c0.527,2.01,2.156,3.105,4.578,3.206
			c2.037,0.084,3.87-0.606,5.65-1.479c0.154-0.074,0.27-0.388,0.272-0.59c0.02-2.032,0.012-4.064,0.012-6.098
			c0-3.983,0-7.967,0-11.95c0-0.809,0.077-0.924,0.882-1.026c0.711-0.091,1.432-0.112,2.146-0.176
			c0.541-0.047,0.758,0.207,0.718,0.726c-0.006,0.082-0.001,0.165-0.001,0.247c0,7.104,0,14.209,0,21.313
			c0,0.949-0.042,1.02-0.963,1.139c-0.65,0.082-1.308,0.105-1.962,0.156c-0.467,0.037-0.673-0.191-0.7-0.646
			C78.203,122.775,78.146,122.312,78.101,121.854z"/>
		<path fill="#ADA9A2" d="M158.052,101.702c-0.038-0.332-0.071-0.61-0.114-0.982c1.301-0.166,2.553-0.405,3.812-0.469
			c2.189-0.11,4.387-0.204,6.573-0.122c1.229,0.045,2.485,0.333,3.659,0.723c4.466,1.479,4.058,6.368,2.135,8.552
			c-0.809,0.915-1.807,1.539-2.913,2.013c-0.237,0.102-0.472,0.21-0.877,0.393c0.353,0.13,0.526,0.206,0.708,0.26
			c1.703,0.5,2.842,1.574,3.382,3.279c0.508,1.604,1.028,3.205,1.556,4.801c0.147,0.449,0.327,0.887,0.516,1.318
			c0.298,0.688,0.783,1.123,1.57,1.217c0.164,0.019,0.365,0.315,0.414,0.518c0.03,0.124-0.179,0.433-0.309,0.449
			c-0.975,0.129-1.955,0.281-2.934,0.277c-1.152-0.004-1.978-0.636-2.42-1.701c-0.25-0.604-0.455-1.229-0.646-1.857
			c-0.405-1.335-0.792-2.675-1.179-4.016c-0.781-2.71-1.668-3.423-4.48-3.589c-0.082-0.005-0.164-0.005-0.246-0.008
			c-0.888-0.026-0.888-0.026-0.904-0.985c0.771-0.146,1.559-0.258,2.326-0.448c3.129-0.777,4.705-3.821,3.568-6.854
			c-0.412-1.101-1.202-1.845-2.254-2.324c-1.268-0.577-2.609-0.695-3.977-0.596c-0.713,0.053-0.892,0.297-0.892,1.119
			c-0.003,6.573-0.001,13.146-0.002,19.719c0,1.112,0.001,1.125-1.078,1.286c-0.547,0.082-1.103,0.121-1.653,0.153
			c-0.795,0.047-0.903-0.059-0.903-0.846c-0.003-4.746-0.001-9.489-0.001-14.233c0-1.705,0.001-3.409-0.002-5.114
			c0-1.544-0.521-2.03-2.062-1.932C158.325,101.707,158.225,101.702,158.052,101.702z"/>
		<path fill="#ADA9A2" d="M104.297,123.876c-1.321,0.024-1.32,0.024-1.683-0.923c-0.911-2.375-1.832-4.745-2.725-7.127
			c-0.159-0.424-0.354-0.595-0.833-0.582c-2.566,0.067-5.134,0.105-7.701,0.125c-0.399,0.003-0.522,0.188-0.638,0.504
			c-0.884,2.406-1.799,4.801-2.653,7.218c-0.202,0.571-0.522,0.785-1.078,0.779c-0.328-0.002-0.657,0.015-0.985,0.015
			c-0.735,0.001-0.78-0.055-0.504-0.722c0.737-1.781,1.482-3.56,2.225-5.339c2.118-5.074,4.227-10.15,6.363-15.215
			c0.254-0.604,0.346-1.13,0.063-1.754c-0.301-0.667-0.178-0.832,0.539-0.929c0.691-0.093,1.388-0.144,2.079-0.236
			c0.61-0.083,0.931,0.167,1.151,0.744c1.258,3.295,2.549,6.578,3.828,9.866c1.606,4.128,3.211,8.257,4.816,12.388
			c0.298,0.77,0.246,0.883-0.566,1.004C105.326,123.791,104.649,123.839,104.297,123.876z M95.328,103.993
			c-0.051-0.006-0.102-0.012-0.152-0.018c-1.188,3.19-2.377,6.381-3.583,9.618c2.501,0,4.915,0,7.422,0
			C97.772,110.359,96.55,107.176,95.328,103.993z"/>
		<path fill="#ADA9A2" d="M197.225,123.87c-0.356,0.081-0.613-0.243-0.804-0.75c-0.919-2.438-1.87-4.865-2.784-7.304
			c-0.169-0.449-0.39-0.637-0.894-0.623c-2.544,0.065-5.089,0.105-7.634,0.126c-0.447,0.003-0.65,0.168-0.799,0.574
			c-0.854,2.352-1.752,4.688-2.588,7.048c-0.201,0.567-0.488,0.791-1.084,0.854c-1.688,0.174-1.721,0.157-1.08-1.377
			c2.797-6.703,5.59-13.408,8.409-20.102c0.232-0.551,0.091-0.981-0.085-1.467c-0.234-0.642-0.136-0.787,0.555-0.871
			c0.631-0.075,1.269-0.113,1.895-0.215c0.636-0.104,0.977,0.119,1.21,0.729c1.938,5.035,3.903,10.06,5.86,15.089
			c0.916,2.352,1.828,4.704,2.74,7.058c0.312,0.807,0.289,0.867-0.543,0.981C198.891,123.718,198.174,123.771,197.225,123.87z
			 M192.781,113.62c-1.283-3.336-2.526-6.565-3.77-9.794c-0.062,0.006-0.123,0.013-0.186,0.02c-1.203,3.231-2.406,6.463-3.641,9.774
			C187.752,113.62,190.2,113.62,192.781,113.62z"/>
		<path fill="#ADA9A2" d="M202.137,111.957c-0.041-6.086,3.619-10.445,9.668-11.612c3.125-0.604,6.205-0.32,9.283,0.302
			c0.424,0.086,0.659,0.307,0.68,0.739c0.064,1.354,0.141,2.704,0.168,4.058c0.002,0.145-0.263,0.357-0.442,0.421
			c-0.112,0.039-0.417-0.122-0.44-0.233c-0.492-2.408-2.205-3.476-4.4-3.9c-2.75-0.534-5.369-0.204-7.61,1.658
			c-1.722,1.428-2.507,3.37-2.834,5.516c-0.362,2.374-0.149,4.712,0.664,6.976c1.351,3.758,4.753,6.165,8.739,6.295
			c2.106,0.068,4.135-0.254,6.096-0.987c0.537-0.201,0.753-0.054,0.971,0.438c0.247,0.559-0.099,0.686-0.466,0.848
			c-2.16,0.963-4.435,1.441-6.782,1.65c-2.521,0.225-4.923-0.173-7.147-1.368c-3.897-2.095-5.819-5.463-6.14-9.812
			C202.115,112.615,202.137,112.285,202.137,111.957z"/>
		<path fill="#ADA9A2" d="M135.865,106.009c0.117-1.721,0.22-3.417,0.371-5.11c0.015-0.154,0.346-0.389,0.537-0.396
			c0.592-0.024,1.188,0.069,1.783,0.07c5.215,0.007,10.432,0.007,15.646,0c0.574-0.001,1.148-0.053,1.722-0.093
			c0.38-0.025,0.578,0.121,0.595,0.517c0.068,1.557,0.15,3.113,0.215,4.671c0.027,0.619-0.484,0.393-0.854,0.54
			c-0.158-0.541-0.299-1.047-0.457-1.546c-0.624-1.964-1.339-2.492-3.402-2.512c-1.047-0.009-2.097,0.024-3.144-0.018
			c-0.587-0.023-0.774,0.16-0.772,0.76c0.022,4.415,0.013,8.831,0.013,13.246c0,2.136,0.001,4.271-0.001,6.407
			c0,0.941,0.002,0.963-0.904,1.098c-0.648,0.099-1.306,0.129-1.959,0.192c-0.531,0.054-0.758-0.212-0.758-0.718
			c0-0.227-0.004-0.451-0.004-0.678c0-6.469,0-12.938,0-19.406c0-0.888-0.004-0.901-0.867-0.887
			c-1.352,0.022-2.707,0.03-4.057,0.113c-0.942,0.059-1.599,0.626-1.973,1.473c-0.246,0.56-0.435,1.149-0.609,1.738
			C136.76,106.226,136.777,106.23,135.865,106.009z"/>
		<path fill="#ADA9A2" d="M108.272,100.713c1.95-0.225,3.798-0.451,5.65-0.646c0.533-0.056,0.709,0.299,0.707,0.783
			c-0.004,1.561,0,3.121,0,4.681c0,5.03-0.001,10.061,0.002,15.09c0,1.098,0.143,1.257,1.238,1.247
			c1.601-0.015,3.201-0.05,4.801-0.101c1.297-0.041,2.264-0.672,2.908-1.777c0.422-0.726,0.787-1.483,1.184-2.233
			c1.014-0.001,1.086,0.078,0.883,1.082c-0.258,1.267-0.506,2.532-0.797,3.789c-0.203,0.878-0.496,1.086-1.379,1.081
			c-3.941-0.02-7.882-0.043-11.823-0.068c-0.688-0.005-0.762-0.091-0.763-0.871c-0.001-6.181-0.001-12.358-0.001-18.539
			c0-0.205,0.004-0.411-0.002-0.616c-0.036-1.291-0.493-1.727-1.78-1.699c-0.202,0.005-0.405,0-0.652,0
			C108.395,101.557,108.346,101.221,108.272,100.713z"/>
		<path fill="#ADA9A2" d="M126.686,101.917c-0.051-0.373-0.097-0.711-0.154-1.151c1.393-0.199,2.726-0.396,4.06-0.576
			c0.466-0.063,0.938-0.106,1.408-0.123c0.692-0.025,0.858,0.154,0.873,0.864c0.002,0.103,0,0.205,0,0.308c0,7.104,0,14.207,0,21.31
			c0,0.988-0.065,1.077-1.049,1.192c-0.591,0.069-1.187,0.12-1.778,0.14c-0.873,0.029-0.919-0.025-0.919-0.885
			c-0.002-3.429,0-6.856,0-10.285c0-2.915,0-5.83-0.004-8.745c0-0.286-0.009-0.577-0.058-0.857c-0.148-0.851-0.51-1.155-1.373-1.188
			C127.387,101.907,127.08,101.917,126.686,101.917z"/>
	</g>
</g>
</svg>
