<?xml version="1.0" encoding="utf-8"?>
<!-- Generator: Adobe Illustrator 16.0.0, SVG Export Plug-In . SVG Version: 6.00 Build 0)  -->
<!DOCTYPE svg PUBLIC "-//W3C//DTD SVG 1.1//EN" "http://www.w3.org/Graphics/SVG/1.1/DTD/svg11.dtd">
<svg version="1.1" id="Layer_1" xmlns="http://www.w3.org/2000/svg" xmlns:xlink="http://www.w3.org/1999/xlink" x="0px" y="0px"
	 width="240px" height="239px" viewBox="0 0 240 239" enable-background="new 0 0 240 239" xml:space="preserve">
<g>
	<path fill="#ADA9A2" d="M36.029,145.924c0.997-0.058,1.956-0.107,2.915-0.167c1.56-0.1,3.12-0.256,4.68-0.292
		c3.141-0.069,6.154,0.453,8.848,2.198c2.104,1.365,3.52,3.257,4.192,5.679c0.658,2.365,0.739,4.771,0.067,7.132
		c-1.131,3.974-3.81,6.396-7.798,7.386c-1.093,0.273-2.216,0.354-3.341,0.355c-3.008,0.007-6.018,0.003-9.026,0.001
		c-0.176,0-0.355-0.018-0.516-0.028c-0.142-0.261-0.106-0.454,0.112-0.602c0.894-0.604,1.126-1.482,1.124-2.51
		c-0.016-5.456-0.008-10.911-0.008-16.367c0-0.162,0.002-0.321-0.003-0.481c-0.023-0.716-0.307-1.289-0.966-1.613
		C36,146.462,35.879,146.277,36.029,145.924z M42.181,156.479c0,2.366-0.006,4.734,0.007,7.101c0.002,0.52,0.056,1.042,0.132,1.556
		c0.111,0.753,0.529,1.266,1.311,1.357c0.613,0.072,1.239,0.122,1.855,0.091c2.05-0.108,3.638-1.018,4.671-2.822
		c0.743-1.296,1.051-2.72,1.215-4.187c0.196-1.762,0.156-3.525-0.016-5.285c-0.117-1.179-0.324-2.345-0.75-3.458
		c-0.697-1.814-1.914-3.104-3.833-3.596c-0.712-0.184-1.462-0.243-2.198-0.278c-0.43-0.022-0.876,0.087-1.301,0.196
		c-0.55,0.143-0.901,0.518-0.996,1.086c-0.056,0.336-0.095,0.677-0.096,1.017C42.178,151.664,42.181,154.072,42.181,156.479z"/>
	<path fill="#ADA9A2" d="M105.195,151.721c-0.011,0.192-0.033,0.384-0.033,0.576c-0.002,3.57-0.021,7.144,0.015,10.714
		c0.008,0.813,0.151,1.637,0.312,2.438c0.185,0.907,0.617,1.688,1.419,2.228c0.128,0.084,0.201,0.253,0.373,0.482
		c-0.303,0.033-0.472,0.072-0.639,0.072c-1.688,0.006-3.372,0.003-5.057,0.003c-0.041,0-0.084,0.011-0.123-0.003
		c-0.141-0.047-0.281-0.102-0.422-0.153c0.064-0.154,0.086-0.357,0.2-0.454c1.231-1.062,1.708-2.436,1.708-4.014
		c0.002-4.517-0.008-9.031,0.011-13.547c0.005-1.331-0.61-2.334-1.527-3.21c-0.345-0.329-0.337-0.335-0.249-0.823
		c0.198-0.012,0.416-0.031,0.632-0.034c1.544-0.002,3.09,0.025,4.634-0.016c0.529-0.012,0.833,0.183,1.13,0.599
		c3.069,4.34,6.158,8.668,9.242,12.998c0.156,0.22,0.322,0.432,0.483,0.646c0.041-0.016,0.082-0.028,0.121-0.044
		c0.024-0.146,0.065-0.295,0.065-0.443c0.003-3.007,0.008-6.02-0.002-9.029c-0.006-0.973-0.209-1.911-0.594-2.806
		c-0.27-0.626-0.619-1.17-1.333-1.374c-0.091-0.029-0.212-0.204-0.196-0.291c0.016-0.09,0.175-0.162,0.279-0.232
		c0.027-0.02,0.075-0.009,0.117-0.009c1.783,0.002,3.57,0.005,5.356,0.009c0.059,0,0.117,0.023,0.198,0.041
		c0.125,0.206,0.163,0.406-0.107,0.538c-1.324,0.648-1.579,1.884-1.71,3.169c-0.058,0.537-0.033,1.083-0.033,1.623
		c-0.002,5.339-0.001,10.676-0.004,16.014c0,0.254-0.028,0.508-0.047,0.831c-0.707,0-1.364,0.028-2.019-0.02
		c-0.168-0.012-0.354-0.238-0.476-0.408c-1.025-1.412-2.036-2.835-3.05-4.255c-2.698-3.771-5.391-7.541-8.088-11.312
		c-0.138-0.19-0.285-0.372-0.43-0.561C105.302,151.688,105.25,151.705,105.195,151.721z"/>
	<path fill="#ADA9A2" d="M76.805,162.641c-0.252-0.123-0.427-0.209-0.602-0.295c-2.548-1.241-3.581-4.908-2.029-7.261
		c0.804-1.218,1.95-2.003,3.317-2.47c1.304-0.44,2.639-0.487,3.979-0.227c0.388,0.075,0.765,0.237,1.13,0.401
		c0.489,0.225,0.973,0.475,1.442,0.743c0.287,0.162,0.511,0.139,0.761-0.071c0.273-0.233,0.555-0.471,0.869-0.641
		c0.454-0.247,0.921-0.51,1.415-0.632c1.047-0.26,2.074,0.405,2.244,1.378c0.099,0.575-0.12,1.033-0.583,1.357
		c-0.474,0.331-0.988,0.455-1.514,0.1c-0.197-0.135-0.394-0.282-0.556-0.456c-0.415-0.442-0.49-0.469-1.018-0.177
		c-0.117,0.066-0.224,0.151-0.348,0.237c0.265,0.611,0.554,1.184,0.763,1.786c0.633,1.846,0.227,3.481-1.108,4.88
		c-0.899,0.941-2.031,1.491-3.3,1.75c-1.05,0.214-2.109,0.218-3.168,0.039c-0.485-0.081-1.312,0.487-1.419,0.973
		c-0.057,0.257,0.056,0.443,0.267,0.55c0.302,0.157,0.607,0.325,0.931,0.41c1.164,0.302,2.34,0.558,3.503,0.855
		c0.834,0.214,1.677,0.417,2.479,0.72c0.632,0.237,1.25,0.561,1.803,0.946c1.927,1.356,1.906,4.149-0.131,5.484
		c-0.895,0.586-1.88,0.895-2.91,1.089c-2.839,0.539-5.633,0.299-8.371-0.585c-0.548-0.178-1.072-0.451-1.574-0.736
		c-0.288-0.164-0.547-0.413-0.755-0.677c-0.492-0.623-0.524-1.378-0.026-1.998c0.333-0.414,0.753-0.779,1.197-1.073
		c0.464-0.307,0.999-0.505,1.507-0.748c0.173-0.082,0.352-0.152,0.655-0.284c-0.299-0.127-0.471-0.206-0.645-0.273
		c-0.468-0.183-0.957-0.315-1.397-0.548c-1.099-0.568-1.253-1.45-0.391-2.327c0.403-0.411,0.886-0.753,1.373-1.065
		c0.506-0.319,1.062-0.563,1.594-0.84C76.373,162.867,76.546,162.776,76.805,162.641z M82.436,157.58
		c-0.039-0.004-0.075-0.007-0.114-0.012c0-0.399,0.025-0.804-0.006-1.2c-0.055-0.72-0.169-1.427-0.552-2.068
		c-0.696-1.169-2.77-1.525-3.611,0.092c-0.198,0.386-0.343,0.812-0.444,1.237c-0.266,1.119-0.319,2.265-0.201,3.402
		c0.066,0.646,0.23,1.307,0.478,1.905c0.323,0.786,0.985,1.18,1.852,1.199c0.868,0.02,1.502-0.365,1.907-1.12
		c0.149-0.279,0.292-0.581,0.346-0.89C82.229,159.281,82.323,158.429,82.436,157.58z M79.951,173.356
		c0.628-0.071,1.136-0.075,1.617-0.195c0.575-0.146,1.156-0.334,1.679-0.613c0.706-0.378,1.095-1.366,0.06-2.029
		c-0.519-0.331-1.074-0.643-1.658-0.823c-1.472-0.449-2.966-0.816-4.45-1.221c-0.298-0.082-0.549-0.008-0.782,0.184
		c-0.479,0.39-0.815,0.882-0.99,1.473c-0.256,0.856,0.011,1.726,0.749,2.232c0.389,0.263,0.84,0.495,1.294,0.597
		C78.323,173.151,79.201,173.241,79.951,173.356z"/>
	<path fill="#ADA9A2" d="M186.375,166.095c0.114,0.214,0.206,0.383,0.32,0.596c-1.226,1.093-2.478,2.026-4.217,1.906
		c-0.973-0.067-1.68-0.701-1.86-1.668c-0.033-0.177-0.057-0.355-0.09-0.533c-0.008-0.032-0.048-0.061-0.11-0.142
		c-0.133,0.101-0.269,0.199-0.398,0.307c-1.108,0.889-2.329,1.572-3.711,1.92c-2.33,0.589-4.282-0.911-4.39-3.308
		c-0.056-1.268,0.389-2.314,1.233-3.219c0.582-0.617,1.24-1.146,2.01-1.51c1.287-0.61,2.586-1.197,3.878-1.794
		c0.38-0.178,0.76-0.36,1.148-0.527c0.251-0.106,0.367-0.289,0.381-0.555c0.049-0.968,0.037-1.929-0.246-2.864
		c-0.09-0.298-0.246-0.603-0.446-0.84c-0.659-0.783-1.865-0.709-2.428,0.144c-0.174,0.264-0.281,0.577-0.377,0.879
		c-0.18,0.553-0.315,1.119-0.487,1.675c-0.304,0.977-1.122,1.459-2.154,1.283c-0.955-0.162-1.564-0.936-1.513-1.94
		c0.039-0.688,0.318-1.275,0.793-1.774c0.666-0.705,1.501-1.144,2.399-1.45c1.919-0.653,3.867-0.638,5.795-0.045
		c1.697,0.521,2.501,1.684,2.503,3.468c0.006,2.708-0.002,5.416,0.008,8.126c0,0.378,0.025,0.766,0.104,1.135
		c0.187,0.859,0.666,1.113,1.499,0.845C186.111,166.18,186.203,166.149,186.375,166.095z M180.465,159.112
		c-0.185,0.057-0.323,0.076-0.44,0.141c-0.787,0.438-1.588,0.855-2.345,1.344c-0.433,0.279-0.816,0.651-1.157,1.04
		c-0.608,0.693-0.867,1.521-0.785,2.45c0.082,0.932,0.738,1.701,1.646,1.918c1.03,0.245,1.883-0.129,2.687-0.726
		c0.312-0.235,0.461-0.5,0.456-0.911c-0.025-1.564-0.008-3.128-0.013-4.693C180.513,159.503,180.484,159.331,180.465,159.112z"/>
	<path fill="#ADA9A2" d="M159.164,168.192c-1.558,0-3.114,0-4.729,0c-0.14-0.716,0.005-1.44-0.109-2.253
		c-0.237,0.128-0.427,0.215-0.599,0.326c-0.758,0.49-1.512,0.989-2.269,1.479c-0.698,0.448-1.45,0.754-2.28,0.89
		c-0.574,0.094-1.122,0.033-1.658-0.14c-0.966-0.317-1.346-1.084-1.46-2.018c-0.045-0.357-0.028-0.721-0.028-1.082
		c-0.002-2.63-0.002-5.259-0.002-7.889c0-0.24-0.008-0.48-0.022-0.723c-0.035-0.651-0.292-1.159-0.938-1.408
		c-0.02-0.007-0.042-0.014-0.052-0.027c-0.086-0.122-0.171-0.239-0.256-0.359c0.106-0.074,0.206-0.185,0.32-0.208
		c0.854-0.186,1.644-0.528,2.405-0.937c0.492-0.266,0.971-0.563,1.432-0.882c0.269-0.185,0.524-0.284,0.896-0.133
		c0.014,0.291,0.034,0.605,0.033,0.918c-0.003,3.271-0.012,6.544-0.012,9.816c0,0.339,0.012,0.687,0.083,1.015
		c0.245,1.101,0.96,1.583,2.076,1.401c0.835-0.137,1.524-0.604,2.204-1.063c0.122-0.082,0.16-0.354,0.164-0.537
		c0.016-0.922,0.008-1.847,0.008-2.769c0-1.426-0.015-2.852,0.005-4.274c0.011-0.829-0.227-1.505-0.983-1.921
		c-0.245-0.134-0.276-0.312-0.177-0.577c0.125-0.038,0.254-0.091,0.389-0.118c1.351-0.253,2.532-0.873,3.625-1.683
		c0.284-0.208,0.563-0.392,0.993-0.21c0.015,0.142,0.045,0.313,0.045,0.486c-0.003,4.094-0.008,8.189-0.014,12.283
		c0,0.14,0.003,0.281-0.002,0.421c-0.025,0.665,0.214,1.21,0.72,1.647c0.119,0.103,0.195,0.254,0.294,0.383
		C159.234,168.098,159.199,168.147,159.164,168.192z"/>
	<path fill="#ADA9A2" d="M135.163,166.125c0.441,0.492,0.469,0.568-0.003,0.91c-0.631,0.456-1.292,0.873-1.972,1.254
		c-0.495,0.276-1.063,0.337-1.633,0.321c-1.181-0.031-1.907-0.655-2.114-1.82c-0.027-0.154-0.047-0.312-0.072-0.461
		c-0.281-0.101-0.374,0.135-0.518,0.249c-1.111,0.882-2.33,1.56-3.714,1.906c-2.279,0.57-4.271-0.938-4.379-3.275
		c-0.049-1.116,0.29-2.094,0.994-2.948c0.673-0.814,1.483-1.47,2.443-1.915c1.508-0.702,3.015-1.408,4.541-2.065
		c0.529-0.225,0.745-0.535,0.694-1.093c-0.061-0.679-0.045-1.364-0.142-2.034c-0.058-0.384-0.213-0.784-0.424-1.111
		c-0.655-1.007-2.03-0.954-2.633,0.086c-0.156,0.274-0.251,0.587-0.345,0.894c-0.161,0.517-0.294,1.039-0.445,1.56
		c-0.198,0.673-0.636,1.124-1.328,1.25c-0.753,0.136-1.452-0.016-1.956-0.646c-0.503-0.63-0.43-1.352-0.211-2.062
		c0.183-0.595,0.583-1.05,1.078-1.413c1.177-0.862,2.491-1.365,3.951-1.453c1.144-0.066,2.289-0.064,3.401,0.256
		c0.421,0.121,0.844,0.279,1.223,0.49c1.002,0.556,1.571,1.427,1.626,2.575c0.043,0.96,0.008,1.924,0.011,2.888
		c0.005,1.824,0.003,3.649,0.019,5.478c0.001,0.417,0.028,0.843,0.091,1.256c0.038,0.252,0.133,0.509,0.264,0.724
		c0.229,0.37,0.604,0.475,1.051,0.352C134.833,166.227,135.004,166.174,135.163,166.125z M129.373,159.085
		c-0.206,0.064-0.327,0.082-0.425,0.137c-0.788,0.437-1.591,0.85-2.352,1.335c-0.432,0.279-0.817,0.645-1.172,1.023
		c-0.475,0.51-0.751,1.138-0.833,1.834c-0.22,1.899,1.303,2.922,2.703,2.627c0.607-0.128,1.124-0.397,1.622-0.748
		c0.359-0.252,0.51-0.563,0.503-1.015c-0.023-1.502-0.006-3.009-0.01-4.512C129.41,159.571,129.389,159.373,129.373,159.085z"/>
	<path fill="#ADA9A2" d="M65.165,152.241c2.312,0.007,3.991,0.864,5.331,2.424c1.531,1.784,2.132,3.878,1.994,6.196
		c-0.103,1.741-0.657,3.328-1.648,4.773c-2.743,4.008-8.216,3.74-10.862,0.425c-1.52-1.906-2.117-4.058-1.9-6.465
		c0.194-2.157,1.143-3.949,2.657-5.455C62.019,152.866,63.564,152.199,65.165,152.241z M68.123,161.316
		c-0.046-1.261-0.063-2.444-0.14-3.625c-0.065-1.045-0.253-2.074-0.747-3.019c-0.394-0.753-0.963-1.27-1.879-1.285
		c-0.935-0.019-1.577,0.456-1.968,1.244c-0.266,0.531-0.496,1.109-0.595,1.692c-0.433,2.506-0.483,5.032-0.122,7.551
		c0.13,0.896,0.348,1.775,0.854,2.548c0.48,0.737,1.152,1.1,2.041,1.003c0.707-0.078,1.229-0.456,1.613-1.039
		c0.372-0.562,0.611-1.187,0.685-1.847C67.99,163.446,68.045,162.341,68.123,161.316z"/>
	<path fill="#ADA9A2" d="M210.563,152.78c1.656,0,3.312,0,4.947,0c0.131,0.206,0.073,0.333-0.081,0.44
		c-0.735,0.517-1.197,1.252-1.525,2.053c-0.559,1.37-1.085,2.758-1.555,4.164c-1.103,3.31-2.164,6.63-3.241,9.947
		c-0.354,1.09-0.784,2.146-1.411,3.115c-0.431,0.662-0.938,1.253-1.605,1.688c-1.297,0.853-2.911,0.865-4.074,0.043
		c-0.897-0.634-1.291-1.77-0.921-2.761c0.467-1.253,1.61-1.497,2.656-1.118c0.361,0.13,0.583,0.413,0.685,0.787
		c0.112,0.405,0.221,0.812,0.35,1.213c0.188,0.584,0.532,0.662,0.962,0.216c0.18-0.188,0.333-0.403,0.473-0.623
		c0.15-0.234,0.286-0.482,0.409-0.736c0.864-1.834,0.861-1.834,0.159-3.741c-1.494-4.063-2.982-8.129-4.48-12.192
		c-0.16-0.43-0.345-0.856-0.56-1.261c-0.197-0.376-0.474-0.692-0.897-0.852c-0.085-0.031-0.14-0.153-0.208-0.237
		c0.09-0.059,0.175-0.138,0.273-0.172c0.09-0.029,0.197-0.011,0.299-0.011c1.705,0,3.411-0.001,5.116,0
		c0.1,0,0.205-0.015,0.301,0.011c0.086,0.026,0.224,0.089,0.227,0.142c0.008,0.101-0.062,0.21-0.109,0.31
		c-0.016,0.03-0.065,0.043-0.1,0.065c-0.534,0.281-0.657,0.745-0.49,1.277c0.437,1.373,0.878,2.749,1.358,4.107
		c0.454,1.286,0.956,2.554,1.44,3.827c0.083,0.221,0.184,0.436,0.306,0.73c0.115-0.158,0.205-0.237,0.236-0.334
		c0.668-2.078,1.496-4.108,1.885-6.271c0.098-0.548,0.154-1.111,0.181-1.669c0.03-0.681-0.206-1.257-0.795-1.653
		C210.621,153.188,210.446,153.101,210.563,152.78z"/>
	<path fill="#ADA9A2" d="M100.45,153.836c-0.341,1.14-0.656,2.209-0.969,3.26c-0.676,0.054-0.703,0.042-0.886-0.499
		c-0.416-1.241-1.217-2.158-2.379-2.745c-0.677-0.342-1.401-0.51-2.155-0.308c-0.305,0.082-0.61,0.214-0.867,0.394
		c-0.849,0.598-0.941,1.574-0.238,2.34c0.54,0.585,1.23,0.954,1.94,1.297c1.28,0.62,2.576,1.22,3.844,1.866
		c0.477,0.242,0.926,0.561,1.343,0.902c2.182,1.778,1.769,4.772,0.324,6.272c-1.092,1.129-2.423,1.791-3.967,1.956
		c-2.634,0.281-5.096-0.349-7.423-1.574c-0.067-0.035-0.122-0.098-0.25-0.199c0.412-1.297,0.825-2.604,1.244-3.924
		c0.498,0.017,0.723,0.231,0.855,0.654c0.396,1.269,1.174,2.279,2.267,3.029c0.91,0.626,1.918,0.902,3.024,0.637
		c0.749-0.181,1.317-0.586,1.573-1.346c0.267-0.807,0.043-1.5-0.527-2.099c-0.493-0.518-1.093-0.879-1.734-1.178
		c-1.291-0.603-2.595-1.176-3.872-1.799c-1.208-0.593-2.133-1.475-2.363-2.856c-0.219-1.321,0.069-2.561,0.937-3.617
		c0.978-1.187,2.264-1.82,3.77-2.047c1.599-0.24,3.111,0.026,4.565,0.712C99.121,153.259,99.747,153.523,100.45,153.836z"/>
	<path fill="#ADA9A2" d="M144.254,154.369c-1.154,0-2.249,0-3.406,0c-0.023,0.276-0.06,0.488-0.06,0.698
		c-0.003,3.009-0.012,6.018,0.011,9.025c0.002,0.473,0.079,0.968,0.234,1.411c0.288,0.821,0.965,1.069,1.734,0.678
		c0.338-0.172,0.642-0.405,1.008-0.64c0.112,0.055,0.269,0.129,0.421,0.202c-0.008,0.094,0.006,0.164-0.021,0.206
		c-0.599,0.899-1.353,1.632-2.317,2.136c-0.819,0.425-1.699,0.485-2.582,0.346c-0.863-0.14-1.486-0.663-1.907-1.426
		c-0.349-0.631-0.478-1.309-0.478-2.024c-0.001-3.109-0.009-6.218-0.017-9.328c0-0.239,0.005-0.479-0.008-0.722
		c-0.026-0.508-0.065-0.545-0.563-0.559c-0.38-0.009-0.759,0-1.142-0.006c-0.115,0-0.233-0.022-0.337-0.033
		c-0.188-0.595-0.178-0.67,0.247-0.91c1.265-0.712,2.175-1.773,2.861-3.019c0.569-1.034,1.054-2.116,1.562-3.186
		c0.313-0.656,0.337-0.678,1.17-0.506c0.015,0.214,0.045,0.446,0.045,0.678c0.004,1.524,0,3.049,0.005,4.573
		c0.001,0.233,0.04,0.468,0.067,0.763c1.163,0,2.279,0,3.445,0C144.334,153.275,144.301,153.766,144.254,154.369z"/>
	<path fill="#ADA9A2" d="M194.61,168.138c0.014-0.108,0.008-0.14,0.019-0.147c0.804-0.59,0.921-1.447,0.918-2.355
		c0-3.31-0.005-6.622,0.003-9.932c0.005-1.184,0.07-2.365,0.06-3.549c-0.002-0.517-0.078-1.041-0.194-1.544
		c-0.137-0.586-0.473-1.057-1.036-1.333c-0.17-0.082-0.36-0.186-0.274-0.396c0.05-0.117,0.214-0.217,0.349-0.261
		c0.627-0.207,1.271-0.362,1.891-0.594c0.835-0.309,1.613-0.729,2.2-1.42c0.239-0.284,0.503-0.271,0.861-0.163
		c0.013,0.189,0.035,0.383,0.035,0.578c0.003,5.6,0.006,11.201-0.002,16.799c0,0.439-0.077,0.881-0.071,1.319
		c0.008,0.479,0.039,0.963,0.115,1.437c0.083,0.503,0.292,0.958,0.756,1.245c0.077,0.048,0.127,0.14,0.226,0.257
		c-0.145,0.066-0.241,0.147-0.339,0.147c-1.746,0.009-3.49,0.006-5.238,0.001C194.799,168.226,194.71,168.172,194.61,168.138z"/>
	<path fill="#ADA9A2" d="M192.999,168.125c-0.186,0.047-0.312,0.098-0.439,0.106c-1.602,0.099-4.954,0.027-5.413-0.117
		c0.023-0.069,0.026-0.169,0.073-0.2c0.677-0.427,0.802-1.114,0.858-1.826c0.023-0.3,0.01-0.601,0.01-0.902
		c0.006-3.972,0.011-7.939,0.014-11.91c0-0.681,0.036-1.362-0.019-2.037c-0.067-0.855-0.386-1.591-1.221-2.005
		c-0.109-0.055-0.206-0.237-0.211-0.365c-0.005-0.074,0.172-0.194,0.287-0.231c0.532-0.169,1.082-0.294,1.608-0.48
		c0.974-0.342,1.892-0.785,2.581-1.59c0.223-0.262,0.489-0.215,0.818-0.135c0.015,0.17,0.041,0.345,0.041,0.519
		c0.003,5.634,0.003,11.27-0.003,16.903c0,0.36-0.073,0.722-0.067,1.081c0.008,0.52,0.023,1.041,0.094,1.554
		c0.071,0.528,0.273,1.006,0.751,1.319C192.847,167.863,192.895,167.98,192.999,168.125z"/>
	<path fill="#ADA9A2" d="M165.6,152.841c0.118,0.87-0.028,1.793,0.099,2.834c0.23-0.197,0.368-0.295,0.48-0.415
		c0.455-0.482,0.893-0.98,1.354-1.458c0.549-0.569,1.175-1.029,1.967-1.219c0.887-0.213,1.82,0.161,2.357,0.949
		c0.507,0.744,0.51,1.758,0.003,2.494c-0.531,0.773-1.482,1.157-2.368,0.918c-0.443-0.122-0.868-0.312-1.307-0.453
		c-1.349-0.436-2.078-0.033-2.371,1.351c-0.11,0.526-0.156,1.074-0.161,1.611c-0.019,1.968-0.013,3.934-0.004,5.899
		c0.003,0.361,0.044,0.723,0.102,1.08c0.085,0.529,0.309,0.988,0.771,1.309c0.112,0.08,0.193,0.205,0.259,0.381
		c-0.673,0.156-1.328,0.101-1.976,0.109c-0.683,0.011-1.363,0.011-2.046,0c-0.649-0.008-1.307,0.045-2.1-0.052
		c0.175-0.232,0.242-0.37,0.352-0.451c0.605-0.45,0.814-1.07,0.814-1.789c0-2.047,0-4.095,0-6.142c0-0.603,0.01-1.205-0.006-1.808
		c-0.009-0.34-0.052-0.679-0.097-1.016c-0.074-0.56-0.386-0.954-0.868-1.229c-0.18-0.102-0.467-0.104-0.454-0.404
		c0.012-0.325,0.321-0.321,0.524-0.416c0.694-0.314,1.408-0.585,2.089-0.925c0.626-0.31,1.224-0.681,1.823-1.043
		C165.062,152.821,165.269,152.665,165.6,152.841z"/>
	<path fill="#ADA9A2" d="M123.615,67.305c-0.236,0.513-0.458,0.898-0.599,1.311c-0.532,1.556-1.035,3.12-1.556,4.679
		c-0.643,1.92-1.228,3.863-1.951,5.751c-1.906,4.978-5.49,8.242-10.473,10.022c-0.471,0.168-0.954,0.311-1.431,0.46
		c-0.051,0.017-0.113-0.008-0.256-0.021c3.687-4.107,6.479-8.762,9.354-13.429c-0.324-0.086-0.426,0.112-0.541,0.246
		c-0.767,0.875-1.561,1.73-2.278,2.645c-2.561,3.271-5.096,6.563-7.641,9.846c-0.12,0.156-0.249,0.307-0.366,0.453
		c-0.94-0.339-2.25-0.204-3.371,0.348c0.094,0.105,0.164,0.225,0.269,0.294c0.485,0.321,0.976,0.634,1.476,0.929
		c0.128,0.076,0.306,0.111,0.454,0.103c0.54-0.032,1.03,0.116,1.509,0.341c0.271,0.13,0.544,0.258,0.81,0.396
		c0.531,0.278,1.087,0.403,1.687,0.333c0.565-0.065,1.118,0.004,1.66,0.188c0.923,0.312,1.877,0.417,2.845,0.417
		c2.587,0.001,5.178-0.001,7.767,0c0.301,0,0.612-0.022,0.899,0.042c1.062,0.232,1.925-0.12,2.707-0.812
		c0.874-0.771,1.898-1.181,3.075-1.191c0.222-0.001,0.44-0.017,0.662-0.028c0.934-0.051,1.817-0.3,2.673-0.656
		c1.672-0.693,3.391-1.241,5.144-1.675c0.571-0.142,1.038-0.398,1.382-0.886c0.438-0.617,1.09-0.918,1.771-1.185
		c1.908-0.742,3.8-1.516,5.709-2.251c0.556-0.214,0.812-0.572,0.89-1.155c0.067-0.531,0.175-1.078,0.386-1.565
		c0.186-0.429,0.495-0.825,0.827-1.162c0.386-0.394,0.681-0.35,0.992,0.098c0.251,0.361,0.457,0.753,0.653,1.147
		c0.286,0.576,0.537,1.167,0.818,1.744c0.269,0.544,0.488,0.613,0.996,0.291c1.104-0.702,2.137-1.494,2.963-2.528
		c0.124-0.154,0.264-0.311,0.427-0.417c0.323-0.204,0.603-0.055,0.619,0.326c0.008,0.196-0.036,0.396-0.062,0.594
		c-0.121,0.975-0.253,1.947-0.365,2.923c-0.043,0.385,0.136,0.697,0.394,0.974c0.313,0.338,0.621,0.681,0.929,1.025
		c0.454,0.507,0.65,1.098,0.561,1.777c-0.016,0.12-0.013,0.242-0.016,0.362c-0.007,0.387,0.178,0.68,0.532,0.793
		c0.759,0.244,1.392,0.702,2.055,1.115c0.321,0.2,0.663,0.367,0.929,0.513c0,0.471-0.024,0.887,0.003,1.298
		c0.106,1.49-1.038,2.149-2.334,1.807c-0.66-0.175-1.313-0.345-1.983-0.464c-0.312-0.058-0.612-0.189-0.909-0.307
		c-0.167-0.066-0.345-0.094-0.417,0.075c-0.05,0.114,0.016,0.289,0.057,0.427c0.021,0.068,0.106,0.118,0.167,0.168
		c0.629,0.531,0.973,1.206,1.067,2.022c0.06,0.498,0.429,0.805,0.945,0.834c0.09,0.005,0.181-0.018,0.32-0.033
		c-0.272,0.518-0.752,0.243-1.186,0.418c0.197,0.222,0.354,0.412,0.528,0.584c0.296,0.292,0.279,0.477-0.075,0.696
		c-0.698,0.426-1.946,0.269-2.501-0.361c-0.531-0.601-1.019-1.24-1.53-1.861c-0.134-0.162-0.278-0.315-0.414-0.468
		c-0.092,0.062-0.146,0.082-0.15,0.107c-0.12,0.687-0.454,1.188-1.154,1.396c-0.104,0.031-0.211,0.133-0.269,0.23
		c-0.308,0.539-0.806,0.847-1.351,1.055c-0.565,0.216-0.786,0.609-0.854,1.179c-0.055,0.454-0.142,0.918-0.316,1.338
		c-0.141,0.339-0.506,0.588-0.633,0.93c-0.117,0.322-0.029,0.713-0.074,1.068c-0.024,0.194-0.12,0.381-0.203,0.563
		c-0.227,0.5-0.112,0.952,0.223,1.343c0.247,0.289,0.517,0.566,0.815,0.798c0.632,0.494,1.28,0.967,1.94,1.426
		c2.743,1.922,5.5,3.831,8.238,5.76c1.317,0.927,2.698,1.736,4.178,2.375c0.294,0.128,0.59,0.264,0.849,0.449
		c0.459,0.326,0.514,0.824,0.143,1.252c-0.404,0.461-0.927,0.696-1.547,0.681c-1.056-0.027-2.051-0.334-3.041-0.668
		c-0.305-0.102-0.594-0.238-0.896-0.349c-0.56-0.204-0.995-0.538-1.369-1.021c-0.879-1.136-2.107-1.694-3.505-1.908
		c-0.034-0.005-0.072,0.028-0.175,0.076c0.067,0.248,0.125,0.514,0.21,0.769c0.692,2.118,1.054,4.281,0.927,6.515
		c-0.073,1.312-0.345,2.581-0.771,3.817c-0.209,0.613-0.206,0.715,0.348,1.016c0.396,0.216,0.854,0.317,1.286,0.471
		c0.413,0.146,0.856,0.235,1.23,0.449c0.685,0.389,0.719,1.026,0.1,1.507c-0.547,0.424-1.175,0.688-1.872,0.762
		c-0.876,0.096-1.724-0.023-2.525-0.392c-0.312-0.143-0.502-0.106-0.711,0.175c-1.837,2.485-4.271,4.21-7.06,5.47
		c-2.501,1.132-5.116,1.872-7.839,2.224c-2.11,0.274-4.223,0.512-6.354,0.463c-3.7-0.087-7.351-0.554-10.953-1.417
		c-8.015-1.918-15.313-5.339-21.834-10.393c-1.922-1.489-3.697-3.146-5.319-4.963c-0.119-0.135-0.194-0.307-0.285-0.449
		c-0.477,0.29-0.809,0.514-1.161,0.698c-0.695,0.366-1.428,0.511-2.209,0.291c-0.51-0.144-0.843-0.465-0.975-0.968
		c-0.134-0.508,0.101-0.908,0.482-1.213c0.312-0.25,0.661-0.454,0.989-0.683c0.243-0.169,0.48-0.347,0.77-0.556
		c-0.503-0.761-0.976-1.479-1.45-2.194c-0.135-0.205-0.319-0.227-0.524-0.121c-0.428,0.219-0.896,0.387-1.271,0.677
		c-0.887,0.687-1.727,1.432-2.588,2.153c-0.276,0.23-0.531,0.493-0.835,0.685c-0.499,0.309-0.993,0.223-1.424-0.184
		c-0.497-0.469-0.739-0.988-0.406-1.664c0.211-0.433,0.365-0.894,0.587-1.318c0.372-0.708,0.92-1.253,1.616-1.66
		c0.27-0.156,0.521-0.368,0.731-0.6c0.258-0.285,0.548-0.466,0.926-0.503c0.564-0.055,1.009-0.339,1.444-0.733
		c-0.102-0.264-0.19-0.503-0.287-0.743c-0.891-2.199-1.421-4.47-1.412-6.85c0.013-4.289,1.618-7.89,4.752-10.795
		c0.731-0.679,1.571-1.242,2.371-1.844c0.239-0.18,0.5-0.327,0.537-0.719c-0.177-0.023-0.327-0.052-0.478-0.056
		c-0.266-0.007-0.553,0.156-0.779-0.119c-0.026-0.029-0.128-0.031-0.172-0.007c-0.468,0.255-0.737-0.036-1.016-0.343
		c-0.504-0.561-1.675-0.506-2.404-0.006c-0.148,0.103-0.28,0.228-0.451,0.369c-0.067-0.08-0.135-0.161-0.233-0.278
		c-0.115,0.099-0.25,0.181-0.342,0.297c-0.329,0.406-0.64,0.825-0.962,1.237c-0.121,0.156-0.168,0.379-0.496,0.287
		c-0.118-0.033-0.336,0.287-0.566,0.497c0.063-0.251,0.113-0.447,0.182-0.711c-0.148,0.032-0.25,0.056-0.399,0.088
		c0.149-0.317,0.288-0.611,0.429-0.909c-0.022-0.028-0.044-0.056-0.067-0.083c-0.194,0.092-0.39,0.186-0.678,0.323
		c0.118-0.419,0.2-0.765,0.318-1.097c0.121-0.337,0.237-0.655-0.206-0.899c0.227-0.429,0.416-0.826,0.641-1.2
		c0.401-0.678,0.354-0.785-0.52-0.869c0.16-0.124,0.285-0.203,0.387-0.305c0.22-0.222,0.644-0.301,0.533-0.764
		c-0.011-0.048,0.122-0.149,0.205-0.196c1.685-0.925,3.318-1.962,5.262-2.302c2.215-0.39,4.355-0.307,6.343,0.9
		c0.76,0.463,1.396,1.069,2.033,1.685c0.531,0.512,1.139,0.943,1.72,1.4c0.196,0.154,0.42,0.197,0.681,0.144
		c0.451-0.093,0.91-0.143,1.364-0.219c0.214-0.036,0.425-0.089,0.756-0.162c-0.239-0.208-0.394-0.352-0.555-0.483
		c-2.197-1.785-3.419-4.104-3.751-6.9c-0.335-2.837,0.229-5.552,1.167-8.207c0.334-0.945,0.736-1.865,1.112-2.794
		c0.064-0.159,0.163-0.303,0.295-0.541c0.128,0.223,0.22,0.347,0.274,0.486c0.44,1.129,1.06,2.16,1.727,3.164
		c0.521,0.786,1.057,1.562,1.567,2.357c0.215,0.336,0.375,0.706,0.565,1.059c0.211,0.392,0.172,0.748-0.062,1.127
		c-0.531,0.854-0.983,1.749-1.21,2.865c-0.112-0.228-0.189-0.355-0.232-0.493c-0.217-0.668-0.417-1.341-0.638-2.007
		c-0.082-0.254-0.208-0.496-0.314-0.741c-0.044,0.01-0.088,0.02-0.133,0.029c-0.006,0.121-0.04,0.247-0.019,0.362
		c0.189,0.922,0.346,1.855,0.594,2.764c0.335,1.227,0.291,2.448,0.179,3.698c-0.089,0.992-0.011,1.998,0,2.998
		c0.003,0.2,0.028,0.4,0.047,0.599c0.044,0.482,0.143,0.596,0.642,0.583c0.397-0.012,0.796-0.077,1.19-0.139
		c0.294-0.047,0.376-0.243,0.335-0.531c-0.058-0.417-0.091-0.836-0.12-1.255c-0.269-4.009,1.072-7.447,3.725-10.409
		c1.6-1.784,3.545-3.126,5.602-4.323c2.406-1.401,4.965-2.438,7.641-3.191c0.348-0.098,0.689-0.216,1.033-0.313
		C123.227,67.354,123.363,67.346,123.615,67.305z M94.238,115.393c0.258,0.304,0.467,0.568,0.696,0.813
		c1.408,1.518,2.949,2.894,4.582,4.165c4.089,3.179,8.611,5.571,13.438,7.414c3.991,1.525,8.11,2.532,12.354,2.978
		c2.054,0.215,4.115,0.309,6.188,0.177c2.473-0.156,4.9-0.525,7.271-1.24c2.834-0.859,5.353-2.258,7.407-4.423
		c0.189-0.198,0.353-0.417,0.548-0.654c-0.23-0.267-0.4-0.524-0.625-0.712c-0.872-0.735-1.74-1.485-2.656-2.165
		c-1.729-1.283-3.409-2.613-4.762-4.308c-0.3-0.373-0.589-0.772-0.787-1.202c-0.167-0.363-0.204-0.78-0.641-0.952
		c-0.032-0.013-0.077-0.068-0.071-0.086c0.208-0.498-0.298-0.451-0.488-0.642c-0.054-0.052-0.114-0.096-0.183-0.152
		c0.107-0.093,0.191-0.167,0.337-0.296c-0.245-0.08-0.334-0.194-0.232-0.436c0.055-0.13-0.027-0.344-0.102-0.493
		c-0.076-0.158-0.206-0.294-0.329-0.425c-0.302-0.324-0.488-0.667-0.379-1.14c0.09-0.396-0.115-0.696-0.429-0.923
		c-0.387-0.28-0.819-0.42-1.301-0.363c-0.935,0.11-1.868,0.225-2.805,0.336c-1.598,0.194-3.163,0.027-4.69-0.464
		c-1.315-0.423-2.625-0.869-3.937-1.31c-2.548-0.85-5.094-1.696-7.639-2.556c-0.843-0.284-1.673-0.412-2.516-0.008
		c-0.121,0.06-0.273,0.087-0.408,0.08c-0.943-0.056-1.661,0.359-2.269,1.034c-0.316,0.352-0.721,0.558-1.189,0.662
		c-0.754,0.172-1.447,0.499-2.039,0.989c-0.615,0.514-1.213,1.054-1.766,1.632c-1.805,1.891-4.006,2.814-6.612,2.809
		c-1.652-0.001-1.188-0.188-2.621,0.877C95.156,114.728,94.718,115.043,94.238,115.393z M99.851,95.264
		c-0.123-0.325-0.371-0.442-0.634-0.543c-0.3-0.115-0.61-0.211-0.89-0.361c-0.32-0.169-0.646-0.37-0.466-0.84
		c0.022-0.055-0.017-0.151-0.056-0.208c-0.3-0.452-0.713-0.696-1.269-0.669c-0.68,0.032-1.357,0.062-2.038,0.092
		c-0.07-0.1-0.142-0.201-0.263-0.375c-0.722,0.589-1.432,1.112-2.077,1.707c-2.407,2.218-3.639,4.976-3.733,8.251
		c-0.067,2.342,0.565,4.518,1.497,6.626c0.193,0.441,0.302,0.458,0.881,0.196c-0.063-0.138-0.126-0.275-0.198-0.433
		c0.062-0.086,0.175-0.177,0.19-0.282c0.016-0.112-0.126-0.285-0.081-0.356c0.279-0.428,0.378-1.004,0.887-1.25
		c0.473-0.227,0.665-0.607,0.748-1.085c0.07-0.399,0.264-0.708,0.66-0.866c0.065-0.026,0.116-0.087,0.24-0.187
		c-0.254-0.052-0.426-0.09-0.609-0.129c0.106-0.117,0.265-0.216,0.254-0.295c-0.06-0.475,0.379-0.613,0.571-0.915
		c0.213-0.334,0.415-0.686,0.548-1.056c0.884-2.478,2.259-4.554,4.687-5.774c0.305-0.151,0.621-0.283,0.923-0.44
		c0.107-0.056,0.189-0.165,0.347-0.305c-0.247-0.048-0.398-0.078-0.553-0.107C99.559,95.53,99.7,95.4,99.851,95.264z
		 M148.785,120.295c0.087-0.227,0.15-0.328,0.165-0.439c0.088-0.715,0.214-1.429,0.234-2.145c0.05-1.596-0.284-3.14-0.709-4.672
		c-0.136-0.491-0.387-0.802-0.87-0.959c-0.65-0.214-1.245-0.533-1.793-0.955c-0.529-0.405-1.151-0.651-1.808-0.773
		c-0.383-0.073-0.533,0.055-0.534,0.436c0,0.237,0.034,0.478,0.083,0.712c0.388,1.836,1.217,3.468,2.342,4.955
		c0.712,0.944,1.445,1.872,2.16,2.811C148.285,119.565,148.492,119.881,148.785,120.295z"/>
</g>
</svg>
