<?xml version="1.0" encoding="utf-8"?>
<!-- Generator: Adobe Illustrator 16.0.0, SVG Export Plug-In . SVG Version: 6.00 Build 0)  -->
<!DOCTYPE svg PUBLIC "-//W3C//DTD SVG 1.1//EN" "http://www.w3.org/Graphics/SVG/1.1/DTD/svg11.dtd">
<svg version="1.1" id="Layer_1" xmlns="http://www.w3.org/2000/svg" xmlns:xlink="http://www.w3.org/1999/xlink" x="0px" y="0px"
	 width="28px" height="28px" viewBox="0 0 28 28" enable-background="new 0 0 28 28" xml:space="preserve">
<g id="KWN2y2.tif">
	<g>
		<g>
			<path fill="#FFFFFF" d="M19.453,3.486c-0.299-0.054-0.534-0.07-0.771-0.07c-2.996,0-5.992-0.003-8.986-0.002
				c-0.783,0.001-1.569-0.03-2.34,0.141c-2.685,0.592-4.564,2.92-4.574,5.704c-0.014,3.431-0.006,6.863,0.001,10.296
				c0.002,0.829,0.142,1.641,0.502,2.396c1.093,2.284,2.907,3.479,5.442,3.5c3.301,0.026,6.604,0.01,9.907,0.01
				c0.951,0.002,1.886-0.117,2.741-0.553c2.215-1.121,3.4-2.921,3.432-5.412c0.032-2.539,0.008-5.08,0.012-7.618
				c0-0.513,0-1.025,0-1.549c-0.149,0.033-0.191,0.13-0.254,0.201c-0.776,0.888-1.551,1.78-2.332,2.664
				c-0.148,0.168-0.209,0.338-0.207,0.561c0.009,1.865,0.009,3.729,0.009,5.594c0,0.438-0.023,0.873-0.188,1.286
				c-0.432,1.087-1.488,2.068-3.18,2.052c-2.964-0.033-5.93-0.009-8.895-0.013C9.167,22.67,8.557,22.73,7.96,22.604
				c-1.409-0.293-2.403-1.582-2.397-3.07c0.002-0.902,0-1.807,0-2.707c0-2.519-0.01-5.039,0.002-7.556
				C5.57,8.258,5.962,7.414,6.777,6.798c0.668-0.503,1.438-0.608,2.25-0.604c2.639,0.013,5.277,0.003,7.914,0.007
				c0.154,0,0.257-0.049,0.354-0.167c0.532-0.64,1.073-1.273,1.613-1.908C19.08,3.925,19.252,3.723,19.453,3.486z M9.632,12.135
				c-0.563,0.004-1.005,0.234-1.246,0.753c-0.229,0.495-0.05,0.915,0.296,1.301c1.365,1.532,2.725,3.071,4.088,4.606
				c0.278,0.314,0.277,0.312,0.557-0.01c3.021-3.496,6.046-6.991,9.068-10.486c1.082-1.253,2.172-2.5,3.248-3.759
				c0.558-0.652,0.379-1.458-0.382-1.829c-0.606-0.297-1.239-0.16-1.771,0.398c-2.486,2.603-4.974,5.208-7.458,7.812
				c-0.965,1.011-1.932,2.023-2.898,3.032c-0.08,0.083-0.138,0.229-0.31,0.104c-0.743-0.528-1.501-1.035-2.235-1.574
				C10.296,12.269,9.995,12.134,9.632,12.135z"/>
		</g>
	</g>
</g>
</svg>
