<?xml version="1.0" encoding="utf-8"?>
<!-- Generator: Adobe Illustrator 16.0.0, SVG Export Plug-In . SVG Version: 6.00 Build 0)  -->
<!DOCTYPE svg PUBLIC "-//W3C//DTD SVG 1.1//EN" "http://www.w3.org/Graphics/SVG/1.1/DTD/svg11.dtd">
<svg version="1.1" id="Layer_1" xmlns="http://www.w3.org/2000/svg" xmlns:xlink="http://www.w3.org/1999/xlink" x="0px" y="0px"
	 width="28px" height="28px" viewBox="0 0 28 28" enable-background="new 0 0 28 28" xml:space="preserve">
<g id="TdL4du.tif">
	<g>
		<g>
			<path fill="#FFFFFF" d="M11.434,26.371C9.38,26.4,7.381,26.252,5.402,25.883c-0.962-0.179-1.906-0.421-2.818-0.779
				c-0.219-0.086-0.314-0.207-0.305-0.445c0.028-0.713,0.062-1.422,0.279-2.108c0.201-0.635,0.598-1.03,1.264-1.19
				c1.445-0.35,2.881-0.735,4.326-1.092c0.254-0.062,0.313-0.176,0.333-0.428c0.054-0.695-0.077-1.311-0.509-1.888
				c-0.33-0.443-0.484-0.998-0.678-1.521c-0.049-0.129-0.096-0.214-0.266-0.207c-0.224,0.008-0.365-0.16-0.479-0.326
				c-0.457-0.664-0.654-1.402-0.587-2.205c0.026-0.316,0.155-0.59,0.505-0.672c0.193-0.046,0.199-0.169,0.186-0.331
				c-0.076-0.799-0.143-1.598-0.156-2.401C6.481,9.149,6.964,8.26,7.852,7.581c1.66-1.269,4.286-1.45,6.08-0.39
				c0.473,0.279,0.956,0.557,1.402,0.865c0.869,0.598,1.326,1.448,1.195,2.56c-0.08,0.696-0.091,1.401-0.138,2.102
				c-0.011,0.161,0.037,0.255,0.202,0.298c0.33,0.087,0.471,0.344,0.497,0.652c0.069,0.83-0.134,1.593-0.611,2.277
				c-0.139,0.197-0.317,0.336-0.58,0.271c-0.181-0.045-0.192,0.095-0.231,0.196c-0.252,0.646-0.502,1.312-0.938,1.849
				c-0.463,0.565-0.256,1.179-0.293,1.774c-0.01,0.167,0.171,0.166,0.289,0.195c1.325,0.338,2.653,0.67,3.979,1.014
				c0.507,0.132,1.045,0.201,1.396,0.675c0.293,0.396,0.419,0.849,0.499,1.315c0.074,0.434,0.111,0.869,0.118,1.309
				c0.007,0.447,0.006,0.445-0.423,0.602c-1.094,0.396-2.223,0.654-3.368,0.838C15.093,26.273,13.248,26.404,11.434,26.371z"/>
			<path fill="#FFFFFF" d="M18.83,17.691c-0.019-0.188,0.064-0.303,0.117-0.426c0.313-0.77,0.631-1.537,0.959-2.301
				c0.092-0.215,0.037-0.273-0.185-0.271c-0.501,0.008-1.003,0.016-1.503-0.053c-0.227-0.031-0.338-0.098-0.321-0.357
				c0.039-0.595,0.025-0.59,0.638-0.552c0.804,0.049,1.604,0.014,2.402-0.08c0.15-0.018,0.348-0.09,0.441,0.034
				c0.091,0.117-0.061,0.268-0.104,0.403c-0.029,0.095-0.074,0.185-0.123,0.308c0.143-0.02,0.209-0.106,0.285-0.171
				c0.516-0.438,1.023-0.882,1.54-1.317c0.392-0.33,0.851-0.565,1.229-0.912c1.123-1.023,1.817-2.261,1.847-3.803
				c0.03-1.698-0.722-3.048-1.998-4.112c-1.179-0.982-2.556-1.493-4.083-1.61c-2.16-0.166-4.083,0.395-5.713,1.852
				c-0.432,0.385-0.795,0.833-1.066,1.346c-0.098,0.186-0.212,0.259-0.412,0.192c-0.052-0.018-0.106-0.026-0.16-0.037
				c-0.496-0.1-0.611,0.01-0.258-0.591c1.092-1.86,2.743-2.98,4.812-3.477c2.389-0.573,4.668-0.258,6.753,1.074
				c1.646,1.051,2.73,2.524,3.012,4.494c0.254,1.778-0.301,3.331-1.443,4.691c-0.344,0.408-0.726,0.78-1.166,1.072
				c-1.041,0.689-1.924,1.565-2.871,2.365c-0.838,0.705-1.658,1.43-2.488,2.146C18.941,17.626,18.9,17.646,18.83,17.691z"/>
			<path fill="#FFFFFF" d="M19.754,6.34c0.182,0,0.365,0.007,0.547-0.001c0.211-0.01,0.27,0.068,0.224,0.279
				c-0.239,1.114-0.469,2.229-0.7,3.345c-0.017,0.081-0.031,0.161-0.041,0.243c-0.065,0.559,0.006,0.644,0.574,0.613
				c0.176-0.009,0.174,0.06,0.153,0.191c-0.081,0.51-0.504,0.891-1.062,0.945c-0.574,0.056-1.037-0.219-1.225-0.713
				c-0.188-0.507-0.087-1.011,0.016-1.51c0.205-1.009,0.438-2.013,0.633-3.024c0.058-0.293,0.177-0.412,0.471-0.373
				c0.134,0.018,0.271,0.003,0.41,0.003C19.754,6.339,19.754,6.34,19.754,6.34z"/>
			<path fill="#FFFFFF" d="M20.943,5.001c-0.009,0.518-0.395,0.886-0.921,0.877c-0.467-0.008-0.868-0.427-0.854-0.894
				c0.016-0.495,0.421-0.893,0.9-0.885C20.557,4.107,20.951,4.513,20.943,5.001z"/>
		</g>
	</g>
</g>
</svg>
