<?xml version="1.0" encoding="utf-8"?>
<!-- Generator: Adobe Illustrator 16.0.0, SVG Export Plug-In . SVG Version: 6.00 Build 0)  -->
<!DOCTYPE svg PUBLIC "-//W3C//DTD SVG 1.1//EN" "http://www.w3.org/Graphics/SVG/1.1/DTD/svg11.dtd">
<svg version="1.1" id="Layer_1" xmlns="http://www.w3.org/2000/svg" xmlns:xlink="http://www.w3.org/1999/xlink" x="0px" y="0px"
	 width="28px" height="28px" viewBox="0 0 28 28" enable-background="new 0 0 28 28" xml:space="preserve">
<g id="SVsyWU.tif">
	<g>
		<g>
			<path fill="#FFFFFF" d="M12.799,0.055c0.803,0,1.604,0,2.406,0c0.539,0.082,1.084,0.126,1.616,0.252
				c5.461,1.292,9.022,4.624,10.698,9.973c0.262,0.836,0.371,1.706,0.482,2.572c0,0.802,0,1.604,0,2.406
				c-0.087,0.539-0.128,1.084-0.255,1.616c-1.297,5.472-4.635,9.036-9.999,10.704c-0.826,0.258-1.688,0.365-2.545,0.477
				c-0.802,0-1.604,0-2.406,0c-0.539-0.086-1.084-0.127-1.615-0.252c-5.316-1.248-8.848-4.464-10.598-9.633
				C0.264,17.227,0.121,16.243,0,15.258c0-0.802,0-1.604,0-2.406c0.065-0.44,0.106-0.887,0.199-1.321
				c1.207-5.624,4.568-9.285,10.053-11C11.081,0.271,11.941,0.163,12.799,0.055z M2.422,14.044
				c-0.05,6.358,5.146,11.677,11.633,11.7c6.305,0.021,11.717-5.02,11.72-11.676c0.002-6.53-5.22-11.663-11.627-11.686
				C7.444,2.358,2.387,7.808,2.422,14.044z"/>
			<path fill="#FFFFFF" d="M13.991,21.452c-1.476,0-2.952-0.019-4.428,0.007c-0.905,0.014-1.505-0.604-1.497-1.488
				c0.027-2.979,0.01-5.958,0.011-8.938c0-0.934,0.511-1.452,1.45-1.466c0.492-0.008,0.984-0.008,1.477,0
				c0.223,0.004,0.31-0.083,0.303-0.307c-0.012-0.391-0.006-0.783-0.002-1.175c0.01-0.852,0.58-1.423,1.425-1.426
				c0.856-0.003,1.713-0.003,2.569,0c0.812,0.004,1.389,0.579,1.398,1.394c0.006,0.355,0.001,0.71,0.002,1.066
				c0,0.445,0,0.446,0.459,0.446c0.438,0,0.875-0.003,1.312,0.001c0.938,0.009,1.455,0.53,1.455,1.461c0,2.988,0,5.978,0,8.966
				c0,0.932-0.521,1.458-1.453,1.459C16.979,21.454,15.485,21.452,13.991,21.452z M13.983,19.452c1.002,0,2.004,0.003,3.007-0.002
				c0.479-0.002,0.766-0.25,0.843-0.722c0.021-0.125,0.025-0.254,0.026-0.381c0.001-1.843,0.001-3.684,0-5.523
				c0-0.1,0-0.201-0.014-0.3c-0.069-0.513-0.338-0.765-0.856-0.767c-1.995-0.006-3.991-0.007-5.987,0
				c-0.576,0.002-0.863,0.312-0.865,0.893c-0.002,1.969-0.002,3.938,0,5.905c0,0.586,0.309,0.896,0.894,0.896
				C12.014,19.454,12.998,19.452,13.983,19.452z M13.975,9.564c0.264,0,0.527,0.004,0.793-0.001
				c0.859-0.015,0.753,0.149,0.738-0.814c-0.009-0.476-0.316-0.743-0.795-0.747C14.374,8,14.036,8.021,13.7,7.998
				c-1.123-0.078-1.241,0.363-1.217,1.243c0.007,0.258,0.103,0.334,0.343,0.326C13.209,9.554,13.592,9.563,13.975,9.564z"/>
			<path fill="#FFFFFF" d="M15.221,14.963c-0.004,0.184-0.09,0.43-0.26,0.641c-0.248,0.306-0.355,0.647-0.341,1.037
				c0.011,0.229,0.007,0.455-0.001,0.685c-0.01,0.339-0.242,0.59-0.568,0.624c-0.312,0.031-0.6-0.188-0.677-0.514
				c-0.047-0.195-0.044-0.396-0.032-0.598c0.03-0.495-0.052-0.938-0.369-1.355c-0.321-0.424-0.246-0.979,0.093-1.391
				c0.315-0.383,0.86-0.532,1.335-0.367C14.889,13.896,15.221,14.36,15.221,14.963z"/>
		</g>
	</g>
</g>
</svg>
