<?xml version="1.0" encoding="utf-8"?>
<!-- Generator: Adobe Illustrator 16.0.0, SVG Export Plug-In . SVG Version: 6.00 Build 0)  -->
<!DOCTYPE svg PUBLIC "-//W3C//DTD SVG 1.1//EN" "http://www.w3.org/Graphics/SVG/1.1/DTD/svg11.dtd">
<svg version="1.1" id="Layer_1" xmlns="http://www.w3.org/2000/svg" xmlns:xlink="http://www.w3.org/1999/xlink" x="0px" y="0px"
	 width="28px" height="28px" viewBox="0 0 28 28" enable-background="new 0 0 28 28" xml:space="preserve">
<g id="_x34_r6EPL.tif">
	<g>
		<g>
			<path fill="#FFFFFF" d="M26.801,5.079c0,1.425,0,2.85,0,4.275c-0.021,0.081-0.042,0.162-0.061,0.244
				c-0.475,2.055-2.055,3.409-4.15,3.547c-0.165,0.011-0.23,0.069-0.251,0.237c-0.124,1.007-0.407,1.972-0.896,2.861
				c-1.311,2.376-3.282,3.87-5.959,4.396c-0.252,0.051-0.346,0.145-0.34,0.409c0.019,0.871,0.017,1.743,0.004,2.615
				c-0.004,0.249,0.084,0.315,0.319,0.312c0.849-0.011,1.693-0.01,2.54-0.002c0.862,0.008,1.562,0.713,1.567,1.572
				c0.003,0.378-0.011,0.756,0.004,1.132c0.007,0.22-0.054,0.396-0.224,0.531c-3.621,0-7.242,0-10.863,0
				c-0.172-0.136-0.23-0.312-0.223-0.53c0.012-0.369,0.002-0.738,0.002-1.104c-0.002-0.882,0.717-1.604,1.593-1.604
				c0.829,0.002,1.659,0.002,2.489,0.002c0.334,0,0.344-0.01,0.344-0.336c0-0.863-0.012-1.726,0.005-2.589
				c0.006-0.267-0.088-0.36-0.338-0.407c-3.613-0.675-6.37-3.574-6.847-7.207c-0.028-0.211-0.104-0.281-0.312-0.293
				c-1.342-0.076-2.417-0.669-3.254-1.71c-0.49-0.609-0.75-1.319-0.903-2.076c0-1.425,0-2.85,0-4.275C1.371,4.19,2,3.8,2.945,3.847
				c0.719,0.035,1.439,0.007,2.16,0.006c0.351,0,0.348,0,0.353-0.349c0.004-0.267-0.034-0.537,0.03-0.801
				c0.154-0.647,0.588-1.029,1.195-1.245c4.827,0,9.655,0,14.483,0c0.039,0.017,0.077,0.034,0.115,0.05
				c0.754,0.305,1.104,0.813,1.112,1.618c0.002,0.143,0.01,0.286-0.004,0.427c-0.021,0.232,0.07,0.307,0.303,0.303
				c0.703-0.013,1.408-0.009,2.111-0.004c0.25,0.002,0.504-0.028,0.75,0.03C26.204,4.037,26.586,4.472,26.801,5.079z M11.829,13.005
				c-0.009,0.418,0.254,0.582,0.593,0.406c0.438-0.227,0.87-0.468,1.299-0.714c0.148-0.085,0.269-0.082,0.418,0.004
				c0.426,0.247,0.861,0.483,1.297,0.716c0.221,0.119,0.424,0.079,0.528-0.093c0.086-0.139,0.062-0.291,0.036-0.44
				c-0.076-0.453-0.146-0.908-0.229-1.36c-0.043-0.218,0.006-0.379,0.168-0.536c0.338-0.326,0.653-0.672,0.985-1.003
				c0.14-0.138,0.201-0.289,0.138-0.476C17,9.336,16.854,9.288,16.686,9.264c-0.431-0.061-0.856-0.144-1.289-0.191
				c-0.267-0.029-0.418-0.15-0.519-0.394c-0.16-0.386-0.347-0.762-0.524-1.14c-0.09-0.189-0.168-0.406-0.426-0.407
				c-0.269-0.001-0.35,0.221-0.441,0.42c-0.19,0.41-0.387,0.817-0.568,1.231c-0.077,0.175-0.2,0.253-0.38,0.279
				c-0.447,0.063-0.892,0.138-1.34,0.198c-0.195,0.025-0.362,0.075-0.435,0.279c-0.072,0.203,0.057,0.335,0.178,0.462
				c0.301,0.315,0.591,0.642,0.914,0.933c0.233,0.211,0.254,0.436,0.199,0.717C11.965,12.118,11.898,12.59,11.829,13.005z
				 M22.395,8.507L22.395,8.507c0,0.645,0.004,1.29-0.002,1.935c-0.002,0.174,0.045,0.234,0.231,0.217
				c0.81-0.078,1.576-0.779,1.688-1.596c0.119-0.849,0.03-1.706,0.052-2.559c0.005-0.174-0.112-0.2-0.255-0.199
				c-0.478,0.001-0.953,0.008-1.433-0.003c-0.223-0.005-0.292,0.083-0.288,0.296C22.398,7.234,22.395,7.871,22.395,8.507z
				 M5.457,8.518c0-0.653-0.001-1.307,0.001-1.96c0-0.142-0.024-0.25-0.2-0.25C4.729,6.309,4.202,6.307,3.674,6.306
				c-0.122,0-0.191,0.058-0.189,0.182c0.022,0.87-0.07,1.743,0.061,2.609c0.119,0.789,0.889,1.485,1.667,1.558
				c0.19,0.018,0.252-0.036,0.25-0.228C5.451,9.791,5.457,9.154,5.457,8.518z"/>
		</g>
	</g>
</g>
</svg>
