<?xml version="1.0" encoding="utf-8"?>
<!-- Generator: Adobe Illustrator 16.0.0, SVG Export Plug-In . SVG Version: 6.00 Build 0)  -->
<!DOCTYPE svg PUBLIC "-//W3C//DTD SVG 1.1//EN" "http://www.w3.org/Graphics/SVG/1.1/DTD/svg11.dtd">
<svg version="1.1" id="Layer_1" xmlns="http://www.w3.org/2000/svg" xmlns:xlink="http://www.w3.org/1999/xlink" x="0px" y="0px"
	 width="70px" height="70px" viewBox="0 0 70 70" enable-background="new 0 0 70 70" xml:space="preserve">
<g>
	<path fill="#544A5F" d="M35,0.188C15.774,0.188,0.188,15.774,0.188,35c0,19.227,15.586,34.812,34.812,34.812
		c19.226,0,34.814-15.586,34.814-34.812C69.813,15.774,54.226,0.188,35,0.188z M35,64.89C18.493,64.89,5.11,51.507,5.11,35
		S18.493,5.11,35,5.11c16.508,0,29.89,13.383,29.89,29.89S51.507,64.89,35,64.89z"/>
	<path fill="#362B41" d="M61.93,35c0,14.873-12.058,26.93-26.93,26.93S8.071,49.873,8.071,35C8.071,20.127,20.127,8.071,35,8.071
		S61.93,20.127,61.93,35z"/>
	<g>
		<path fill="#FFFFFF" d="M35,19.248c3.69,0,6.683,2.992,6.683,6.684S38.689,32.614,35,32.614c-3.691,0-6.683-2.991-6.683-6.683
			S31.308,19.248,35,19.248z"/>
		<path fill="#FFFFFF" d="M48.429,50.752H21.571v-7.433c0-5.015,4.063-9.078,9.079-9.078h8.7c5.014,0,9.078,4.063,9.078,9.078
			V50.752L48.429,50.752z"/>
	</g>
</g>
</svg>
