<?xml version="1.0" encoding="utf-8"?>
<!-- Generator: Adobe Illustrator 16.0.0, SVG Export Plug-In . SVG Version: 6.00 Build 0)  -->
<!DOCTYPE svg PUBLIC "-//W3C//DTD SVG 1.1//EN" "http://www.w3.org/Graphics/SVG/1.1/DTD/svg11.dtd">
<svg version="1.1" id="Layer_1" xmlns="http://www.w3.org/2000/svg" xmlns:xlink="http://www.w3.org/1999/xlink" x="0px" y="0px"
	 width="164px" height="164px" viewBox="0 0 164 164" enable-background="new 0 0 164 164" xml:space="preserve">
<g>
	<path fill="#544A5F" d="M81.608-0.397c-45.289,0-82.006,36.717-82.006,82.008c0,45.292,36.717,82.007,82.006,82.007
		c45.291,0,82.012-36.716,82.012-82.007C163.62,36.32,126.899-0.397,81.608-0.397z M81.608,152.021
		c-38.885,0-70.41-31.525-70.41-70.411s31.525-70.412,70.41-70.412c38.889,0,70.412,31.527,70.412,70.412
		S120.494,152.021,81.608,152.021z"/>
	<path fill="#362B41" d="M145.049,81.611c0,35.037-28.405,63.437-63.44,63.437c-35.035,0-63.435-28.4-63.435-63.437
		c0-35.035,28.4-63.438,63.435-63.438C116.644,18.173,145.049,46.576,145.049,81.611z"/>
	<g>
		<path fill="#FFFFFF" d="M81.608,44.502c8.692,0,15.744,7.049,15.744,15.745c0,8.696-7.052,15.743-15.744,15.743
			c-8.695,0-15.743-7.046-15.743-15.743C65.865,51.551,72.912,44.502,81.608,44.502z"/>
		<path fill="#FFFFFF" d="M113.244,118.718H49.976v-17.51c0-11.812,9.571-21.385,21.388-21.385h20.495
			c11.811,0,21.386,9.573,21.386,21.385V118.718L113.244,118.718z"/>
	</g>
</g>
</svg>
