<?xml version="1.0" encoding="utf-8"?>
<!-- Generator: Adobe Illustrator 16.0.0, SVG Export Plug-In . SVG Version: 6.00 Build 0)  -->
<!DOCTYPE svg PUBLIC "-//W3C//DTD SVG 1.1//EN" "http://www.w3.org/Graphics/SVG/1.1/DTD/svg11.dtd">
<svg version="1.1" id="Layer_1" xmlns="http://www.w3.org/2000/svg" xmlns:xlink="http://www.w3.org/1999/xlink" x="0px" y="0px"
	 width="28px" height="28px" viewBox="0 0 28 28" enable-background="new 0 0 28 28" xml:space="preserve">
<g id="Xj79uM.tif">
	<g>
		<g>
			<path fill="#FFFFFF" d="M23.625,14.002c0.002,0,0.004,0,0.004,0c0-3.415,0-6.83,0-10.245c0-0.612-0.002-1.224-0.004-1.835
				c-0.002-0.115,0.02-0.268-0.16-0.255c-0.375,0.027-0.748-0.005-1.121-0.005c-0.629,0-1.258,0.013-1.887,0.011
				c-0.82-0.001-1.641-0.017-2.459-0.016c-0.984,0.001-1.969,0.022-2.953,0.018c-1-0.005-2.001-0.021-3.003,0
				c-0.187,0.004-0.265,0.071-0.265,0.257c0.004,1.543,0.006,3.086,0.006,4.629c0,0.167,0.059,0.25,0.24,0.249
				c0.785-0.006,1.57-0.007,2.355,0c0.203,0.001,0.271-0.079,0.27-0.277c-0.008-0.557,0.008-1.114-0.006-1.67
				c-0.004-0.234,0.062-0.323,0.31-0.322c1.798,0.008,3.597,0.003,5.396,0.004c0.406,0,0.408,0.003,0.408,0.415
				c-0.002,2.776-0.002,5.551-0.004,8.327c0,3.306,0,6.611,0.004,9.916c0,0.18-0.02,0.292-0.246,0.291
				c-1.863-0.006-3.727-0.008-5.588,0c-0.223,0.001-0.281-0.08-0.277-0.289c0.012-0.557-0.002-1.114,0.01-1.671
				c0.007-0.242-0.066-0.345-0.324-0.339c-0.739,0.013-1.479,0.013-2.219,0c-0.26-0.006-0.33,0.104-0.329,0.342
				c0.003,1.507,0.001,3.014-0.007,4.52c-0.002,0.238,0.084,0.316,0.322,0.316c3.715-0.009,7.432-0.01,11.148-0.014
				c0.375,0,0.379-0.006,0.379-0.387C23.627,21.982,23.625,17.992,23.625,14.002z M9.587,12.488
				c0.056-0.165,0.149-0.226,0.228-0.302c0.779-0.783,1.562-1.562,2.342-2.346c0.083-0.084,0.22-0.16,0.066-0.31
				c-0.57-0.562-1.144-1.125-1.703-1.7c-0.174-0.18-0.279-0.147-0.44,0.015c-1.953,1.96-3.91,3.916-5.874,5.865
				c-0.184,0.182-0.169,0.282,0.005,0.456c2.026,2.014,4.048,4.034,6.065,6.059c0.14,0.143,0.225,0.131,0.354-0.002
				c0.537-0.548,1.077-1.094,1.628-1.627c0.177-0.171,0.19-0.275,0.005-0.457c-0.873-0.854-1.732-1.728-2.596-2.596
				c-0.044-0.044-0.133-0.074-0.091-0.186c1.129,0,2.26,0,3.392,0c1.762,0,3.525-0.002,5.287,0c0.188,0,0.342,0.004,0.338-0.262
				c-0.012-0.787-0.008-1.572-0.002-2.355c0-0.173-0.068-0.256-0.24-0.252c-0.082,0.001-0.166-0.002-0.248-0.002
				c-2.447,0-4.894,0.001-7.338,0.002C10.382,12.488,10,12.488,9.587,12.488z"/>
		</g>
	</g>
</g>
</svg>
