<?xml version="1.0" encoding="utf-8"?>
<!-- Generator: Adobe Illustrator 16.0.0, SVG Export Plug-In . SVG Version: 6.00 Build 0)  -->
<!DOCTYPE svg PUBLIC "-//W3C//DTD SVG 1.1//EN" "http://www.w3.org/Graphics/SVG/1.1/DTD/svg11.dtd">
<svg version="1.1" id="Layer_1" xmlns="http://www.w3.org/2000/svg" xmlns:xlink="http://www.w3.org/1999/xlink" x="0px" y="0px"
	 width="28px" height="28px" viewBox="0 0 28 28" enable-background="new 0 0 28 28" xml:space="preserve">
<g id="KeK52l.tif">
	<g>
		<g>
			<path fill="#FFFFFF" d="M2.479,5.117c7.551,0,15.102,0,22.652,0c0.477,0.411,0.046,0.646-0.191,0.886
				c-3.416,3.429-6.836,6.852-10.258,10.274c-0.754,0.757-0.936,0.754-1.707-0.021C9.603,12.895,6.231,9.531,2.862,6.167
				c-0.11-0.11-0.217-0.223-0.327-0.333C2.312,5.61,2.253,5.375,2.479,5.117z"/>
			<path fill="#FFFFFF" d="M27,21.697c-0.272,0.394-0.513,0.212-0.749-0.043c-1.028-1.112-2.059-2.223-3.085-3.336
				c-1.198-1.299-2.386-2.607-3.597-3.896c-0.312-0.331-0.363-0.553-0.008-0.906c2.194-2.17,4.368-4.363,6.553-6.547
				c0.248-0.249,0.49-0.545,0.886-0.22C27,11.733,27,16.715,27,21.697z"/>
			<path fill="#FFFFFF" d="M1.079,7.335C1.272,6.918,1.526,6.97,1.803,7.246c2.298,2.294,4.593,4.591,6.896,6.881
				c0.259,0.256,0.215,0.445-0.021,0.682c-2.294,2.325-4.583,4.655-6.87,6.988c-0.248,0.254-0.479,0.318-0.729,0.016
				C1.079,16.986,1.079,12.161,1.079,7.335z"/>
			<path fill="#FFFFFF" d="M14.073,23.605c-3.502,0-7.004,0-10.506,0c-0.193,0-0.392,0.015-0.582-0.018
				c-0.379-0.062-0.447-0.271-0.228-0.574c0.091-0.125,0.208-0.231,0.315-0.344c2.168-2.208,4.346-4.402,6.494-6.631
				c0.414-0.43,0.674-0.438,1.065,0.006c0.501,0.566,1.056,1.09,1.606,1.611c1.018,0.963,2.215,0.953,3.217-0.021
				c0.754-0.73,1.496-1.476,2.229-2.229c0.28-0.289,0.486-0.287,0.764,0.014c2.263,2.467,4.535,4.924,6.803,7.385
				c0.15,0.166,0.376,0.334,0.247,0.604c-0.127,0.266-0.402,0.191-0.625,0.191C21.272,23.607,17.673,23.605,14.073,23.605z"/>
		</g>
	</g>
</g>
</svg>
