<?xml version="1.0" encoding="utf-8"?>
<!-- Generator: Adobe Illustrator 16.0.0, SVG Export Plug-In . SVG Version: 6.00 Build 0)  -->
<!DOCTYPE svg PUBLIC "-//W3C//DTD SVG 1.1//EN" "http://www.w3.org/Graphics/SVG/1.1/DTD/svg11.dtd">
<svg version="1.1" id="Layer_1" xmlns="http://www.w3.org/2000/svg" xmlns:xlink="http://www.w3.org/1999/xlink" x="0px" y="0px"
	 width="28px" height="28px" viewBox="0 0 28 28" enable-background="new 0 0 28 28" xml:space="preserve">
<g id="dRr2lX.tif">
	<g>
		<g>
			<path fill="#FFFFFF" d="M8.122,6.702c0.424,0,0.848,0,1.271,0C9.909,6.83,10.43,6.943,10.94,7.091
				c1.861,0.538,3.747,0.687,5.663,0.375c1.103-0.179,2.155-0.571,3.254-0.764c0.403,0,0.808,0,1.21,0
				c1.987,0.286,3.309,1.458,4.225,3.171c0.215,0.4,0.406,0.811,0.578,1.231c0.838,2.051,1.373,4.189,1.811,6.354
				c0.396,1.961,0.631,3.938,0.424,5.94c-0.062,0.625-0.2,1.233-0.51,1.791c-0.332,0.598-0.83,0.903-1.528,0.896
				c-0.675-0.008-1.217-0.325-1.731-0.705c-0.926-0.683-1.646-1.567-2.369-2.448c-0.555-0.674-1.188-1.23-2.078-1.423
				c-0.533-0.112-1.074-0.192-1.615-0.2c-2.62-0.035-5.24-0.099-7.859,0.051c-1.302,0.072-2.397,0.514-3.209,1.595
				c-0.604,0.797-1.267,1.546-2.041,2.187C4.694,25.529,4.198,25.87,3.6,26.032c-0.834,0.223-1.584-0.095-2.005-0.845
				c-0.149-0.266-0.254-0.549-0.329-0.842c-0.364-1.41-0.289-2.842-0.156-4.267c0.15-1.616,0.484-3.203,0.884-4.774
				c0.413-1.623,0.867-3.229,1.568-4.758C3.902,9.801,4.314,9.1,4.846,8.471C5.708,7.453,6.823,6.908,8.122,6.702z M6.863,16.79
				c1.308,0,2.329-1.03,2.328-2.348c-0.001-1.295-1.03-2.335-2.313-2.336c-1.295-0.002-2.35,1.043-2.361,2.339
				C4.505,15.729,5.566,16.789,6.863,16.79z M20.399,15.907c-0.646-0.001-1.129,0.481-1.125,1.122
				c0.004,0.605,0.51,1.125,1.107,1.135c0.609,0.01,1.141-0.516,1.146-1.132C21.536,16.4,21.04,15.907,20.399,15.907z M20.396,10.77
				c-0.642,0-1.125,0.486-1.122,1.127c0.003,0.603,0.51,1.119,1.111,1.13c0.604,0.011,1.138-0.519,1.143-1.134
				C21.534,11.265,21.036,10.77,20.396,10.77z M17.856,15.577c0.615-0.003,1.141-0.533,1.127-1.14
				c-0.012-0.593-0.539-1.114-1.131-1.118c-0.614-0.003-1.124,0.513-1.122,1.138C16.731,15.102,17.212,15.579,17.856,15.577z
				 M24.072,14.453c-0.003-0.624-0.519-1.14-1.131-1.133c-0.604,0.007-1.134,0.552-1.122,1.154s0.523,1.102,1.131,1.103
				C23.587,15.577,24.075,15.09,24.072,14.453z"/>
		</g>
	</g>
</g>
</svg>
