<?xml version="1.0" encoding="utf-8"?>
<!-- Generator: Adobe Illustrator 16.0.0, SVG Export Plug-In . SVG Version: 6.00 Build 0)  -->
<!DOCTYPE svg PUBLIC "-//W3C//DTD SVG 1.1//EN" "http://www.w3.org/Graphics/SVG/1.1/DTD/svg11.dtd">
<svg version="1.1" id="Layer_1" xmlns="http://www.w3.org/2000/svg" xmlns:xlink="http://www.w3.org/1999/xlink" x="0px" y="0px"
	 width="28px" height="28px" viewBox="0 0 28 28" enable-background="new 0 0 28 28" xml:space="preserve">
<g id="_x38_kk1Vm.tif">
	<g>
		<g>
			<path fill="#FFFFFF" d="M23.538,8.391c0.781,0,1.943-0.685,2.273-1.275c0.075-0.135,0.055-0.262-0.016-0.386
				c-0.11-0.203-0.262-0.375-0.419-0.542c-1.308-1.373-2.776-2.538-4.408-3.497c-0.629-0.369-1.271-0.722-1.952-0.982
				c-0.365-0.139-0.521-0.077-0.707,0.265c-0.078,0.149-0.154,0.301-0.218,0.459c-0.329,0.843-0.415,1.661,0.146,2.467
				c0.305,0.437,0.522,0.93,0.783,1.396c0.105,0.189,0.094,0.291-0.138,0.4c-0.419,0.196-0.822,0.425-1.255,0.596
				c-0.258,0.103-0.446,0.307-0.604,0.532c-0.054,0.075-0.127,0.175-0.113,0.248c0.048,0.238-0.104,0.379-0.217,0.542
				c-0.102,0.146-0.209,0.29-0.302,0.441c-0.403,0.657-0.362,1.374,0.112,1.967c0.166,0.207,0.367,0.376,0.584,0.525
				c0.936,0.645,1.882,0.496,2.568-0.403c0.104-0.135,0.201-0.272,0.308-0.406c0.041-0.052,0.084-0.122,0.144-0.141
				c0.508-0.17,0.659-0.604,0.7-1.052c0.043-0.489,0.158-0.964,0.194-1.451c0.011-0.148,0.062-0.167,0.188-0.142
				c0.324,0.062,0.65,0.111,0.978,0.171C22.659,8.215,23.142,8.357,23.538,8.391z M9.671,9c0.001,0.589,0.093,1.014,0.39,1.371
				c0.048,0.058,0.106,0.136,0.169,0.146c0.254,0.042,0.35,0.25,0.482,0.419c0.099,0.127,0.191,0.259,0.295,0.382
				c0.457,0.548,1.188,0.762,1.835,0.528c0.446-0.161,0.831-0.425,1.14-0.786c0.494-0.576,0.562-1.276,0.187-1.938
				c-0.13-0.228-0.293-0.436-0.439-0.654c-0.047-0.069-0.122-0.133-0.116-0.221c0.032-0.47-0.295-0.718-0.627-0.901
				c-0.44-0.243-0.908-0.443-1.365-0.66c-0.201-0.096-0.227-0.17-0.133-0.355c0.277-0.554,0.601-1.082,0.901-1.622
				c0.132-0.237,0.271-0.472,0.297-0.75c0.074-0.785-0.175-1.485-0.567-2.146c-0.09-0.151-0.236-0.19-0.396-0.16
				c-0.117,0.023-0.232,0.059-0.34,0.107C8.917,2.861,6.784,4.423,4.954,6.403C4.868,6.496,4.8,6.606,4.737,6.715
				C4.637,6.887,4.646,7.051,4.782,7.208C5.077,7.551,5.427,7.83,5.815,8.061c0.52,0.31,1.061,0.4,1.659,0.253
				c0.601-0.148,1.205-0.282,1.821-0.35C9.38,7.954,9.478,7.918,9.501,8.04C9.569,8.404,9.631,8.77,9.671,9z M28,13.925
				c0.005-0.699-0.044-0.755-0.611-0.837c-0.032-0.004-0.065-0.015-0.101-0.019c-1.031-0.121-1.95,0.038-2.625,0.949
				c-0.314,0.427-0.703,0.8-1.09,1.169c-0.114,0.11-0.183,0.131-0.297-0.015c-0.308-0.38-0.707-0.673-0.998-1.07
				c-0.1-0.133-0.252-0.228-0.408-0.299c-0.192-0.087-0.394-0.201-0.604-0.129c-0.151,0.052-0.278,0.031-0.417-0.014
				c-0.161-0.053-0.322-0.106-0.482-0.156c-0.824-0.258-1.561,0.013-2.022,0.743c-0.235,0.375-0.354,0.79-0.385,1.225
				c-0.042,0.562,0.17,1.021,0.603,1.389c0.311,0.263,0.688,0.354,1.055,0.486c0.104,0.036,0.235,0.043,0.295,0.137
				c0.205,0.332,0.537,0.375,0.867,0.365c0.582-0.017,1.137-0.222,1.715-0.285c0.15-0.017,0.225-0.032,0.258,0.149
				c0.087,0.484,0.133,0.974,0.188,1.459c0.061,0.502,0.051,1.022,0.383,1.453c0.407,0.528,0.938,0.899,1.541,1.172
				c0.188,0.084,0.346,0.041,0.481-0.104c0.16-0.168,0.269-0.37,0.375-0.571c0.793-1.468,1.399-3.008,1.812-4.625
				C27.753,15.611,27.929,14.714,28,13.925z M3.807,13.043c-0.119,0-0.239-0.012-0.354,0.002c-0.924,0.114-1.019,0.09-0.899,1.076
				c0.289,2.396,1.026,4.66,2.146,6.796c0.114,0.219,0.236,0.433,0.373,0.638c0.207,0.305,0.385,0.35,0.715,0.19
				c0.176-0.084,0.35-0.177,0.512-0.283c0.709-0.478,1.234-1.053,1.27-1.987c0.021-0.597,0.092-1.197,0.225-1.787
				c0.023-0.108,0.046-0.17,0.179-0.133c0.462,0.137,0.949,0.122,1.416,0.269c0.375,0.114,0.808,0.088,1.108-0.193
				c0.186-0.174,0.377-0.266,0.599-0.342c0.136-0.047,0.278-0.082,0.408-0.144c0.544-0.25,0.948-0.627,1.04-1.25
				c0.109-0.75-0.12-1.408-0.606-1.976c-0.229-0.268-0.538-0.4-0.88-0.472c-0.438-0.091-0.838,0.04-1.242,0.171
				c-0.191,0.062-0.375,0.152-0.585,0.047c-0.079-0.04-0.183-0.004-0.274,0.021c-0.277,0.075-0.541,0.206-0.707,0.428
				c-0.297,0.396-0.698,0.688-1.004,1.069c-0.104,0.129-0.168,0.121-0.279,0.016c-0.405-0.389-0.798-0.79-1.145-1.228
				C5.297,13.312,4.643,12.994,3.807,13.043z M17.196,18.926c-0.002-1.264-0.514-1.881-1.689-2.037
				c-1.125-0.146-2,0.479-2.153,1.553c-0.034,0.24-0.015,0.49-0.021,0.736c-0.002,0.092,0.013,0.193-0.053,0.268
				c-0.176,0.203-0.162,0.436-0.119,0.676c0.115,0.646,0.58,1.119,0.82,1.705c0.121,0.299,0.174,0.289-0.133,0.438
				c-0.617,0.299-1.24,0.588-1.861,0.877c-0.318,0.147-0.557,0.379-0.732,0.683c-0.26,0.444-0.421,0.922-0.498,1.43
				c-0.066,0.44,0.021,0.588,0.453,0.697c1.154,0.295,2.338,0.379,3.521,0.436c0.856,0.044,1.711-0.021,2.562-0.104
				c0.689-0.068,1.381-0.152,2.054-0.339c0.396-0.108,0.503-0.267,0.433-0.666c-0.047-0.26-0.103-0.519-0.185-0.767
				c-0.224-0.665-0.58-1.213-1.276-1.487c-0.513-0.2-1.004-0.45-1.5-0.69c-0.416-0.201-0.392-0.199-0.197-0.612
				c0.166-0.353,0.342-0.693,0.547-1.023c0.205-0.329,0.339-0.721,0.162-1.09C17.218,19.373,17.202,19.158,17.196,18.926z"/>
		</g>
	</g>
</g>
</svg>
