<?xml version="1.0" encoding="utf-8"?>
<!-- Generator: Adobe Illustrator 16.0.0, SVG Export Plug-In . SVG Version: 6.00 Build 0)  -->
<!DOCTYPE svg PUBLIC "-//W3C//DTD SVG 1.1//EN" "http://www.w3.org/Graphics/SVG/1.1/DTD/svg11.dtd">
<svg version="1.1" id="Layer_1" xmlns="http://www.w3.org/2000/svg" xmlns:xlink="http://www.w3.org/1999/xlink" x="0px" y="0px"
	 width="28px" height="28px" viewBox="0 0 28 28" enable-background="new 0 0 28 28" xml:space="preserve">
<g id="_x34_KoQue.tif">
	<g>
		<path fill="#FFFFFF" d="M14.029,15.18c3.162,0,6.326,0.004,9.488,0c0.438-0.002,0.817,0.116,1.019,0.524
			c0.092,0.188,0.146,0.442,0.103,0.644c-0.647,3.139-1.313,6.272-1.982,9.405c-0.055,0.254-0.131,0.521-0.268,0.735
			c-0.182,0.285-0.502,0.365-0.832,0.365c-1.443,0-2.888,0.004-4.33,0.004c-2.668,0-5.338,0-8.008,0c-0.869,0-1.74,0.009-2.609,0
			c-0.775-0.008-1.062-0.276-1.221-1.041c-0.402-1.95-0.822-3.896-1.234-5.846c-0.252-1.197-0.506-2.394-0.754-3.59
			c-0.127-0.607,0.281-1.152,0.906-1.191c0.346-0.022,0.691-0.019,1.037-0.019c2.897-0.001,5.792-0.001,8.689-0.001
			C14.029,15.175,14.029,15.178,14.029,15.18z M14.009,21.639c0.3,0.004,0.55-0.242,0.548-0.537
			c-0.004-0.293-0.226-0.512-0.529-0.521c-0.295-0.011-0.534,0.214-0.541,0.504C13.479,21.396,13.702,21.635,14.009,21.639z"/>
		<path fill="#FFFFFF" d="M21.914,14.882c-5.292,0-10.497,0-15.734,0c0.156-0.681,0.439-1.28,0.793-1.851
			c0.68-1.103,1.729-1.499,2.959-1.557c0.375-0.019,0.748-0.053,1.139-0.082c0.563,1.024,1.396,1.864,2.215,2.789
			c0.115-0.462,0.224-0.868,0.312-1.277c0.016-0.07-0.041-0.159-0.072-0.237c-0.086-0.222-0.178-0.442-0.283-0.707
			c0.545,0,1.004,0,1.527,0c-0.076,0.235-0.095,0.476-0.219,0.628c-0.154,0.188-0.128,0.339-0.072,0.534
			c0.096,0.329,0.17,0.665,0.269,1.054c0.812-0.916,1.646-1.744,2.228-2.798c0.608,0.062,1.235,0.118,1.86,0.192
			c1.185,0.14,1.942,0.861,2.466,1.867C21.534,13.886,21.7,14.369,21.914,14.882z"/>
		<path fill="#FFFFFF" d="M14.014,1.228c1.029,0.035,1.985,0.247,2.783,0.937c0.834,0.721,1.135,1.682,1.194,2.741
			c0.019,0.335,0.003,0.648,0.179,0.983c0.303,0.575-0.006,1.714-0.48,2.138c-0.073,0.068-0.131,0.168-0.17,0.264
			c-0.396,0.94-0.929,1.785-1.724,2.445c-1.182,0.981-2.577,0.959-3.735-0.053c-0.736-0.644-1.25-1.44-1.639-2.329
			c-0.059-0.133-0.169-0.249-0.273-0.357C9.801,7.632,9.674,7.18,9.639,6.702c-0.031-0.398-0.033-0.776,0.264-1.14
			c0.162-0.195,0.101-0.568,0.152-0.858c0.061-0.35,0.1-0.707,0.205-1.042c0.402-1.271,1.336-1.961,2.586-2.266
			C13.227,1.303,13.624,1.282,14.014,1.228z M16.479,5.075c-0.189-0.099-0.33-0.172-0.471-0.241
			c-0.365-0.179-0.76-0.275-1.146-0.163c-0.75,0.216-1.48,0.168-2.219-0.027c-0.682-0.182-1.297,0.062-1.634,0.679
			c-0.136,0.247-0.213,0.525-0.317,0.789c-0.125,0.053-0.256,0.135-0.282,0.242c-0.048,0.188-0.056,0.395-0.035,0.588
			c0.035,0.325,0.108,0.643,0.416,0.843c0.092,0.061,0.206,0.132,0.243,0.225c0.301,0.764,0.713,1.451,1.322,2.009
			c1.008,0.925,2.203,0.922,3.209,0.003c0.527-0.48,0.896-1.07,1.194-1.711c0.107-0.231,0.121-0.542,0.468-0.593
			c0.037-0.005,0.072-0.065,0.099-0.106c0.221-0.392,0.323-0.805,0.204-1.25c-0.021-0.079-0.09-0.209-0.135-0.208
			c-0.26,0.008-0.242-0.198-0.31-0.348c-0.137-0.304-0.276-0.607-0.433-0.903c-0.049-0.095-0.147-0.164-0.223-0.244
			c-0.018,0.01-0.031,0.02-0.049,0.03C16.41,4.798,16.438,4.909,16.479,5.075z"/>
	</g>
</g>
</svg>
