<?xml version="1.0" encoding="utf-8"?>
<!-- Generator: Adobe Illustrator 16.0.0, SVG Export Plug-In . SVG Version: 6.00 Build 0)  -->
<!DOCTYPE svg PUBLIC "-//W3C//DTD SVG 1.1//EN" "http://www.w3.org/Graphics/SVG/1.1/DTD/svg11.dtd">
<svg version="1.1" id="Layer_1" xmlns="http://www.w3.org/2000/svg" xmlns:xlink="http://www.w3.org/1999/xlink" x="0px" y="0px"
	 width="28px" height="28px" viewBox="0 0 28 28" enable-background="new 0 0 28 28" xml:space="preserve">
<g id="icOEel.tif">
	<g>
		<g>
			<path fill="#FFFFFF" d="M0,26.638c0.13-0.754,0.259-1.507,0.392-2.261c0.06-0.341,0.137-0.679,0.185-1.021
				c0.024-0.182,0.118-0.275,0.269-0.348c0.433-0.203,0.883-0.348,1.363-0.369c0.186-0.012,0.264-0.074,0.251-0.267
				c-0.071-1.138-0.106-2.276-0.218-3.41c-0.109-1.108,0.064-2.134,0.661-3.087c0.378-0.604,0.772-1.193,1.221-1.75
				c0.106-0.132,0.191-0.186,0.318-0.023c0.729,0.918,1.403,1.866,1.79,2.988c0.107,0.312,0.164,0.639,0.145,0.971
				c-0.07,1.107-0.14,2.217-0.21,3.328c-0.021,0.336-0.041,0.674-0.065,1.01c-0.014,0.164,0.056,0.224,0.219,0.232
				c0.488,0.028,0.949,0.156,1.393,0.367c0.187,0.088,0.271,0.212,0.305,0.411c0.188,1.077,0.39,2.151,0.586,3.228
				c-0.037,0-0.073,0-0.109,0c-0.699-0.455-1.439-0.783-2.297-0.75c-0.209,0.01-0.378-0.049-0.553-0.178
				c-0.75-0.557-1.904-0.57-2.67-0.027c-0.217,0.153-0.426,0.207-0.682,0.207c-0.811-0.004-1.529,0.283-2.183,0.748
				C0.073,26.638,0.036,26.638,0,26.638z M5.912,18.073c-0.009-0.184-0.004-0.363-0.051-0.545c-0.261-1.012-0.825-1.859-1.433-2.688
				c-0.113-0.155-0.195-0.104-0.291,0.022c-0.472,0.619-0.893,1.271-1.198,1.986c-0.147,0.348-0.286,0.705-0.279,1.08
				c0.011,0.618,0.065,1.236,0.104,1.854c0.104,1.674,0.217,3.347,0.312,5.021c0.014,0.225,0.057,0.264,0.268,0.187
				c0.611-0.23,1.231-0.222,1.851-0.021c0.295,0.098,0.307,0.084,0.321-0.242c0.041-0.817,0.08-1.639,0.129-2.457
				C5.731,20.873,5.823,19.474,5.912,18.073z"/>
			<path fill="#FFFFFF" d="M9.369,26.638c0.002-0.478,0.146-0.934,0.22-1.4c0.094-0.603,0.217-1.199,0.316-1.803
				c0.036-0.217,0.126-0.36,0.336-0.453c0.423-0.183,0.857-0.312,1.316-0.342c0.201-0.014,0.275-0.088,0.263-0.285
				c-0.05-0.734-0.09-1.474-0.136-2.209c-0.045-0.746-0.105-1.492-0.131-2.237c-0.017-0.444,0.14-0.862,0.318-1.265
				c0.413-0.924,0.975-1.752,1.611-2.533c0.098-0.12,0.188-0.168,0.303-0.021c0.715,0.915,1.38,1.856,1.787,2.962
				c0.259,0.703,0.113,1.409,0.089,2.113c-0.026,0.746-0.094,1.491-0.142,2.236c-0.021,0.328-0.033,0.654-0.057,0.981
				c-0.014,0.173,0.053,0.242,0.23,0.252c0.497,0.028,0.969,0.163,1.414,0.388c0.107,0.055,0.197,0.112,0.225,0.252
				c0.193,1.086,0.395,2.17,0.592,3.254c0.006,0.035-0.008,0.072-0.011,0.109c-0.021,0-0.037,0-0.056,0
				c-0.745-0.476-1.534-0.807-2.441-0.756c-0.134,0.01-0.24-0.037-0.351-0.119c-0.836-0.637-2.033-0.639-2.854-0.005
				c-0.107,0.082-0.215,0.136-0.35,0.126c-0.908-0.057-1.696,0.28-2.441,0.754C9.406,26.638,9.388,26.638,9.369,26.638z
				 M12.017,18.017c0.053,0.816,0.109,1.646,0.158,2.475c0.062,1.056,0.114,2.109,0.176,3.168c0.024,0.408,0.063,0.816,0.093,1.227
				c0.007,0.108,0.026,0.182,0.162,0.133c0.687-0.25,1.374-0.26,2.061-0.002c0.119,0.043,0.155,0.004,0.175-0.119
				c0.058-0.346,0.039-0.691,0.062-1.037c0.066-1.103,0.138-2.201,0.206-3.303c0.045-0.721,0.069-1.439,0.136-2.156
				c0.038-0.418,0.012-0.814-0.128-1.211c-0.3-0.866-0.801-1.614-1.333-2.351c-0.133-0.184-0.213-0.089-0.309,0.036
				c-0.42,0.557-0.791,1.143-1.086,1.771C12.187,17.074,12.005,17.515,12.017,18.017z"/>
			<path fill="#FFFFFF" d="M25.093,8.896c-0.062,0.969-0.127,1.951-0.188,2.933c-0.031,0.51-0.049,1.021-0.075,1.529
				c-0.009,0.16,0.054,0.229,0.218,0.242c0.478,0.037,0.936,0.146,1.365,0.362c0.178,0.091,0.271,0.195,0.307,0.405
				c0.166,0.997,0.355,1.99,0.533,2.984c0.014,0.068,0.065,0.155-0.006,0.205c-0.068,0.047-0.136-0.022-0.197-0.06
				c-0.711-0.418-1.461-0.706-2.307-0.656c-0.128,0.009-0.225-0.055-0.322-0.122c-0.928-0.64-1.974-0.631-2.878,0.024
				c-0.085,0.062-0.171,0.104-0.276,0.098c-0.834-0.048-1.58,0.216-2.282,0.636c-0.07,0.043-0.152,0.145-0.238,0.07
				c-0.062-0.052-0.021-0.156-0.007-0.236c0.18-0.994,0.361-1.988,0.541-2.983c0.027-0.168,0.109-0.277,0.268-0.353
				c0.44-0.207,0.899-0.354,1.391-0.371c0.234-0.008,0.26-0.119,0.244-0.316c-0.061-0.728-0.104-1.454-0.151-2.181
				c-0.039-0.609-0.062-1.22-0.11-1.828c-0.06-0.737,0.15-1.406,0.483-2.048c0.394-0.757,0.88-1.45,1.405-2.119
				c0.095-0.121,0.181-0.239,0.334-0.048c0.697,0.862,1.326,1.765,1.729,2.807C24.997,8.198,25.068,8.535,25.093,8.896z
				 M21.394,9.144c0,0.071-0.008,0.199,0,0.326c0.089,1.437,0.18,2.874,0.269,4.312c0.04,0.654,0.077,1.311,0.112,1.966
				c0.011,0.209,0.066,0.294,0.302,0.205c0.534-0.2,1.085-0.206,1.642-0.07c0.147,0.036,0.317,0.183,0.434,0.103
				c0.132-0.09,0.05-0.305,0.062-0.463c0.073-1.129,0.141-2.256,0.213-3.383c0.047-0.764,0.086-1.529,0.151-2.292
				c0.067-0.783,0.05-1.541-0.329-2.261c-0.326-0.624-0.691-1.221-1.115-1.784c-0.113-0.15-0.168-0.144-0.271,0
				c-0.463,0.636-0.898,1.288-1.209,2.015C21.478,8.219,21.339,8.634,21.394,9.144z"/>
			<path fill="#FFFFFF" d="M23.048,16.983c0.397-0.006,0.81,0.096,1.188,0.317c0.448,0.265,0.595,0.56,0.504,1.071
				c-0.14,0.79-0.45,1.521-0.8,2.232c-0.254,0.519-0.536,1.02-0.801,1.527c-0.094,0.18-0.153,0.225-0.275,0.01
				c-0.586-1.033-1.141-2.08-1.486-3.225c-0.068-0.229-0.107-0.458-0.132-0.695c-0.044-0.447,0.16-0.73,0.527-0.934
				C22.157,17.081,22.566,16.97,23.048,16.983z M22.898,17.431c-0.111-0.008-0.315,0.033-0.519,0.098
				c-0.688,0.217-0.816,0.432-0.633,1.131c0.247,0.93,0.667,1.788,1.129,2.629c0.096,0.17,0.161,0.173,0.246-0.002
				c0.295-0.604,0.635-1.189,0.86-1.827c0.123-0.343,0.253-0.685,0.315-1.044c0.074-0.428-0.009-0.592-0.4-0.783
				C23.615,17.492,23.312,17.438,22.898,17.431z"/>
			<path fill="#FFFFFF" d="M5.222,17.957C5.22,18.465,4.81,18.872,4.3,18.872c-0.526,0-0.967-0.434-0.963-0.95
				c0.002-0.481,0.478-0.95,0.956-0.94C4.83,16.992,5.224,17.406,5.222,17.957z M4.918,17.918c-0.004-0.337-0.299-0.632-0.629-0.63
				c-0.341,0.003-0.653,0.324-0.642,0.656c0.013,0.34,0.304,0.621,0.644,0.621C4.657,18.567,4.923,18.293,4.918,17.918z"/>
			<path fill="#FFFFFF" d="M5.058,20.146c0.004,0.436-0.344,0.795-0.766,0.793c-0.417-0.002-0.785-0.366-0.793-0.785
				c-0.008-0.422,0.348-0.779,0.783-0.784C4.72,19.362,5.056,19.697,5.058,20.146z M4.755,20.159
				c0.006-0.278-0.173-0.467-0.451-0.475c-0.272-0.006-0.502,0.207-0.5,0.467c0.004,0.24,0.237,0.47,0.48,0.473
				C4.546,20.628,4.75,20.424,4.755,20.159z"/>
			<path fill="#FFFFFF" d="M4.906,22.041c0,0.364-0.255,0.619-0.619,0.62c-0.342,0.002-0.627-0.282-0.627-0.623
				c0-0.314,0.296-0.611,0.615-0.618C4.608,21.412,4.906,21.706,4.906,22.041z M4.263,22.351c0.215-0.007,0.322-0.104,0.326-0.305
				c0.002-0.201-0.115-0.312-0.302-0.312s-0.31,0.125-0.313,0.312C3.97,22.229,4.082,22.344,4.263,22.351z"/>
			<path fill="#FFFFFF" d="M13.64,18.872c-0.518,0-0.941-0.426-0.94-0.941c0-0.504,0.444-0.947,0.946-0.945
				c0.505,0.002,0.947,0.447,0.943,0.949C14.583,18.449,14.156,18.872,13.64,18.872z M13.659,18.563
				c0.343-0.006,0.627-0.297,0.619-0.635c-0.01-0.356-0.305-0.646-0.653-0.64c-0.332,0.007-0.625,0.312-0.62,0.646
				C13.013,18.294,13.3,18.569,13.659,18.563z"/>
			<path fill="#FFFFFF" d="M13.668,19.373c0.421,0.008,0.761,0.354,0.759,0.772c-0.004,0.439-0.367,0.799-0.808,0.793
				c-0.414-0.006-0.769-0.388-0.757-0.812C12.874,19.692,13.224,19.366,13.668,19.373z M13.653,19.688
				c-0.293-0.002-0.485,0.187-0.482,0.471c0.004,0.258,0.188,0.441,0.447,0.449c0.29,0.007,0.492-0.18,0.498-0.459
				C14.121,19.888,13.925,19.69,13.653,19.688z"/>
			<path fill="#FFFFFF" d="M14.263,22.043c0.002,0.363-0.256,0.624-0.619,0.622c-0.351-0.003-0.611-0.255-0.619-0.598
				c-0.008-0.352,0.263-0.637,0.605-0.646C13.974,21.414,14.259,21.694,14.263,22.043z M13.957,22.045
				c-0.021-0.196-0.128-0.312-0.317-0.31c-0.192,0.002-0.303,0.119-0.301,0.312c0.002,0.197,0.114,0.305,0.312,0.303
				C13.847,22.347,13.944,22.233,13.957,22.045z"/>
			<path fill="#FFFFFF" d="M22.998,9.82c-0.502,0.003-0.914-0.392-0.924-0.884c-0.011-0.533,0.435-0.982,0.967-0.976
				c0.461,0.006,0.882,0.455,0.884,0.943C23.925,9.407,23.511,9.817,22.998,9.82z M23.007,9.54c0.344,0.001,0.654-0.305,0.649-0.64
				c-0.005-0.344-0.312-0.658-0.644-0.657c-0.354,0.002-0.653,0.307-0.655,0.67C22.355,9.276,22.627,9.539,23.007,9.54z"/>
			<path fill="#FFFFFF" d="M22.991,10.354c0.438,0.005,0.788,0.36,0.775,0.784c-0.012,0.395-0.402,0.763-0.795,0.75
				c-0.41-0.014-0.739-0.372-0.734-0.798C22.241,10.679,22.579,10.35,22.991,10.354z M22.521,11.095
				c-0.012,0.283,0.205,0.511,0.486,0.513c0.252,0.002,0.476-0.212,0.481-0.466c0.009-0.267-0.205-0.497-0.47-0.505
				C22.724,10.629,22.531,10.806,22.521,11.095z"/>
			<path fill="#FFFFFF" d="M22.399,13.021c-0.001-0.34,0.265-0.615,0.602-0.622c0.288-0.005,0.611,0.308,0.613,0.594
				c0.003,0.323-0.312,0.64-0.633,0.637C22.671,13.629,22.399,13.347,22.399,13.021z M22.671,13
				c-0.004,0.194,0.156,0.369,0.323,0.351c0.194-0.021,0.312-0.146,0.33-0.339c0.017-0.176-0.147-0.342-0.324-0.326
				C22.802,12.7,22.693,12.82,22.671,13z"/>
		</g>
	</g>
</g>
</svg>
