<?xml version="1.0" encoding="utf-8"?>
<!-- Generator: Adobe Illustrator 16.0.0, SVG Export Plug-In . SVG Version: 6.00 Build 0)  -->
<!DOCTYPE svg PUBLIC "-//W3C//DTD SVG 1.1//EN" "http://www.w3.org/Graphics/SVG/1.1/DTD/svg11.dtd">
<svg version="1.1" id="Layer_1" xmlns="http://www.w3.org/2000/svg" xmlns:xlink="http://www.w3.org/1999/xlink" x="0px" y="0px"
	 width="360px" height="147px" viewBox="0 0 360 147" enable-background="new 0 0 360 147" xml:space="preserve">
<g>
	<path fill="#FFFFFF" d="M71.498,63.31c-0.124,0.337-0.052,0.499-0.012,0.663c1.645,6.794,3.345,13.574,5.101,20.343
		c0.251,0.972,0.093,0.844-0.558,1.104c-2.541,1.025-5.087,2.036-7.63,3.052c-0.133,0.054-0.266,0.104-0.396,0.161
		c-0.185,0.085-0.33,0.054-0.434-0.129c-0.143-0.246-0.292-0.489-0.432-0.739c-5.093-8.927-10.302-17.784-15.624-26.578
		c-1.67-2.76-3.358-5.508-5.037-8.263c-0.147-0.242-0.285-0.488-0.413-0.708c0.087-0.228,0.266-0.266,0.417-0.33
		c2.048-0.874,4.097-1.743,6.146-2.612c0.131-0.056,0.263-0.111,0.397-0.158c0.187-0.065,0.332-0.008,0.431,0.167
		c0.113,0.198,0.232,0.393,0.345,0.591c5.192,9.067,10.278,18.193,15.25,27.383c0.158,0.292,0.26,0.629,0.629,0.903
		c-0.098-0.378-0.168-0.678-0.251-0.973c-2.834-10.082-5.578-20.187-8.195-30.327c-0.274-1.066-0.252-0.921,0.661-1.266
		c1.868-0.708,3.746-1.392,5.619-2.083c0.161-0.059,0.321-0.12,0.485-0.169c0.271-0.084,0.363-0.054,0.493,0.183
		c0.124,0.225,0.234,0.457,0.348,0.688c4.673,9.375,9.23,18.806,13.696,28.281c0.127,0.269,0.199,0.579,0.462,0.793
		c0.098-0.209,0.029-0.374-0.008-0.538c-1.754-7.736-3.408-15.495-5.03-23.259c-0.577-2.766-1.127-5.536-1.69-8.304
		c-0.028-0.139-0.048-0.282-0.062-0.422c-0.012-0.126,0.057-0.22,0.164-0.273c0.101-0.051,0.211-0.085,0.319-0.12
		c1.876-0.599,3.751-1.195,5.627-1.792c0.108-0.034,0.219-0.064,0.333-0.078c0.126-0.016,0.219,0.046,0.25,0.173
		c0.051,0.223,0.102,0.445,0.142,0.67c0.676,3.938,1.333,7.879,2.03,11.813c0.861,4.861,1.732,9.72,2.641,14.573
		c0.851,4.543,1.757,9.077,2.638,13.615c0.209,1.074,0.216,0.917-0.728,1.241c-2.373,0.819-4.749,1.631-7.125,2.445
		c-0.952,0.326-0.831,0.386-1.272-0.504c-3-6.065-6.051-12.102-9.146-18.117C71.91,64.084,71.736,63.763,71.498,63.31z"/>
	<path fill="#FFFFFF" d="M145.953,67.867c-0.128,0.192-0.308,0.2-0.471,0.223c-1.867,0.25-3.734,0.495-5.602,0.74
		c-0.112,0.016-0.227,0.018-0.341,0.028c-0.195,0.018-0.324-0.077-0.411-0.243c-0.226-0.431-0.424-0.876-0.54-1.348
		c-0.176-0.721-0.364-1.44-0.48-2.172c-0.32-2-0.597-4.009-0.904-6.011c-0.147-0.958-0.244-1.925-0.481-2.87
		c-0.111-0.444-0.252-0.878-0.44-1.294c-0.626-1.383-1.711-2.096-3.217-2.176c-0.313-0.017-0.632-0.027-0.941,0.017
		c-0.988,0.143-1.974,0.308-2.958,0.474c-0.278,0.047-0.334,0.136-0.286,0.414c0.172,1.014,0.349,2.026,0.523,3.038
		c0.55,3.177,1.099,6.354,1.648,9.533c0.2,1.152,0.403,2.305,0.599,3.458c0.062,0.365,0.005,0.441-0.372,0.511
		c-1.824,0.337-3.648,0.673-5.472,1.006c-0.14,0.026-0.283,0.044-0.425,0.051c-0.153,0.007-0.277-0.048-0.314-0.219
		c-0.045-0.194-0.093-0.389-0.132-0.585c-0.763-3.892-1.525-7.784-2.288-11.677c-0.823-4.2-1.646-8.4-2.472-12.601
		c-0.886-4.508-1.774-9.015-2.66-13.522c-0.149-0.756-0.297-1.513-0.445-2.268c-0.117-0.595-0.093-0.645,0.469-0.754
		c1.008-0.194,2.018-0.383,3.03-0.561c2.501-0.438,5.002-0.882,7.506-1.3c1.352-0.226,2.713-0.395,4.088-0.377
		c1.146,0.016,2.278,0.145,3.381,0.473c2.152,0.64,3.692,1.979,4.639,4.015c0.473,1.02,0.783,2.09,0.934,3.194
		c0.244,1.781,0.51,3.56,0.629,5.357c0.071,1.062-0.007,2.111-0.239,3.148c-0.389,1.739-1.283,3.158-2.707,4.238
		c-0.203,0.154-0.4,0.315-0.598,0.476c-0.019,0.016-0.022,0.052-0.033,0.082c0.179,0.153,0.408,0.187,0.622,0.259
		c1.678,0.563,2.917,1.64,3.748,3.198c0.624,1.173,0.994,2.432,1.185,3.737c0.256,1.75,0.461,3.508,0.69,5.262
		c0.17,1.301,0.33,2.605,0.524,3.902c0.145,0.964,0.418,1.895,0.856,2.771C145.856,67.623,145.904,67.755,145.953,67.867z
		 M134.627,42.839c0.009,0,0.02,0,0.03,0c-0.022-0.313-0.025-0.629-0.069-0.938c-0.213-1.497-0.43-2.993-0.663-4.487
		c-0.092-0.591-0.226-1.174-0.455-1.734c-0.64-1.561-1.72-2.078-3.203-2.098c-0.17-0.002-0.342,0.021-0.511,0.048
		c-1.268,0.197-2.536,0.396-3.802,0.604c-0.336,0.054-0.394,0.143-0.353,0.454c0.011,0.084,0.035,0.167,0.05,0.252
		c0.551,3.205,1.1,6.41,1.651,9.615c0.13,0.758,0.259,1.518,0.406,2.274c0.087,0.45,0.13,0.488,0.566,0.419
		c1.098-0.175,2.194-0.363,3.287-0.57c0.305-0.057,0.601-0.182,0.89-0.302c1.344-0.56,2.044-1.589,2.174-3.022
		C134.641,43.182,134.627,43.011,134.627,42.839z"/>
	<path fill="#FFFFFF" d="M103.57,33.168c1.022-0.032,2.038,0.084,3.041,0.345c2.392,0.62,4.192,2.007,5.401,4.162
		c0.576,1.027,0.971,2.126,1.22,3.276c0.855,3.961,1.708,7.92,2.56,11.881c0.654,3.04,1.301,6.082,1.963,9.119
		c0.184,0.84,0.307,1.685,0.38,2.539c0.103,1.205-0.013,2.4-0.33,3.563c-0.455,1.673-1.36,3.068-2.68,4.192
		c-0.854,0.728-1.801,1.308-2.832,1.746c-2.472,1.053-5.035,1.653-7.741,1.538c-1.008-0.042-1.983-0.241-2.923-0.598
		c-1.68-0.639-3-1.736-4.021-3.208c-0.873-1.256-1.448-2.647-1.877-4.107c-0.845-2.874-1.696-5.746-2.543-8.618
		c-1.13-3.831-2.252-7.663-3.391-11.491c-0.451-1.516-0.724-3.05-0.616-4.64c0.132-1.923,0.85-3.593,2.132-5.026
		c0.828-0.923,1.809-1.653,2.891-2.254c1.838-1.021,3.816-1.65,5.869-2.062C101.223,33.295,102.381,33.138,103.57,33.168z
		 M106.211,69.371c1.16-0.029,2.257-0.303,3.282-0.85c1.241-0.666,1.921-1.823,1.764-3.423c-0.036-0.369-0.111-0.734-0.197-1.094
		c-1.182-4.969-2.366-9.934-3.552-14.901c-0.497-2.08-0.997-4.16-1.496-6.239c-0.133-0.556-0.27-1.111-0.535-1.622
		c-0.487-0.942-1.228-1.546-2.283-1.772c-0.744-0.159-1.473-0.101-2.208,0.039c-1.017,0.191-1.998,0.486-2.864,1.072
		c-1.181,0.8-1.649,1.927-1.479,3.326c0.042,0.339,0.127,0.673,0.216,1.004c1.907,7.077,3.816,14.155,5.731,21.23
		c0.111,0.411,0.246,0.823,0.426,1.208C103.648,68.695,104.705,69.393,106.211,69.371z"/>
	<path fill="#FFFFFF" d="M208.973,67.02c-0.18,0.118-0.353,0.088-0.521,0.073c-1.933-0.16-3.871-0.321-5.803-0.485
		c-0.387-0.034-0.401-0.046-0.516-0.445c-0.213-0.747-0.263-1.515-0.291-2.287c-0.01-0.231,0.145-0.587-0.16-0.661
		c-0.19-0.047-0.293,0.305-0.424,0.482c-1.213,1.65-2.839,2.516-4.883,2.604c-1.09,0.047-2.166-0.024-3.217-0.349
		c-1.697-0.522-2.959-1.566-3.807-3.116c-0.567-1.041-0.877-2.167-1.043-3.333c-0.118-0.847-0.193-1.701-0.166-2.561
		c0.049-1.57,0.08-3.14,0.139-4.709c0.042-1.062,0.26-2.094,0.623-3.093c0.678-1.86,1.898-3.23,3.682-4.093
		c0.18-0.087,0.362-0.166,0.541-0.255c0.109-0.055,0.111-0.21,0.004-0.272c-0.123-0.073-0.252-0.136-0.377-0.203
		c-1.847-0.969-3.016-2.485-3.613-4.467c-0.275-0.907-0.445-1.834-0.484-2.776c-0.066-1.597-0.086-3.197,0.141-4.788
		c0.123-0.879,0.321-1.739,0.631-2.572c0.942-2.552,2.713-4.25,5.293-5.092c1.789-0.583,3.632-0.724,5.5-0.615
		c1.512,0.088,3.021,0.176,4.531,0.28c1.31,0.091,2.619,0.202,3.927,0.311c0.337,0.028,0.403,0.096,0.38,0.427
		c-0.082,1.196-0.177,2.392-0.268,3.587c-0.037,0.484-0.079,0.967-0.122,1.45c-0.047,0.525-0.083,0.555-0.642,0.527
		c-0.143-0.007-0.285-0.022-0.426-0.034c-2.534-0.211-5.066-0.395-7.607-0.501c-0.285-0.012-0.572,0-0.854,0.025
		c-1.286,0.121-2.169,0.782-2.659,1.981c-0.285,0.699-0.387,1.434-0.432,2.174c-0.066,1.112-0.104,2.225-0.127,3.338
		c-0.015,0.715,0.044,1.428,0.26,2.117c0.362,1.143,1.1,1.911,2.246,2.281c0.438,0.141,0.885,0.238,1.34,0.273
		c0.912,0.071,1.824,0.122,2.736,0.178c0.171,0.011,0.342,0.016,0.514,0.008c0.162-0.007,0.256-0.11,0.279-0.269
		c0.021-0.168,0.039-0.339,0.051-0.51c0.072-1.139,0.145-2.28,0.215-3.419c0.008-0.114,0.014-0.228,0.023-0.342
		c0.051-0.529,0.102-0.571,0.642-0.528c1.993,0.156,3.985,0.314,5.978,0.472c0.027,0.002,0.055,0.004,0.086,0.006
		c0.636,0.062,0.668,0.079,0.613,0.736c-0.082,1.024-0.195,2.046-0.281,3.07c-0.037,0.423-0.226,0.909-0.006,1.258
		c0.248,0.39,0.789,0.186,1.197,0.244c0.631,0.089,0.662,0.101,0.601,0.751c-0.157,1.619-0.321,3.238-0.486,4.857
		c-0.039,0.39-0.091,0.438-0.478,0.419c-0.396-0.021-0.797-0.053-1.195-0.072c-0.201-0.009-0.318,0.103-0.339,0.302
		c-0.054,0.54-0.108,1.08-0.155,1.621c-0.194,2.16-0.384,4.322-0.58,6.482c-0.138,1.535-0.287,3.07-0.43,4.604
		c-0.095,1.026-0.138,2.05-0.096,3.08C208.682,65.818,208.889,66.415,208.973,67.02z M195.135,55.116
		c-0.02,0.428-0.031,0.855-0.061,1.282c-0.031,0.458-0.005,0.913,0.066,1.364c0.207,1.315,0.942,2.163,2.241,2.51
		c0.587,0.156,1.181,0.19,1.78,0.163c1.615-0.078,2.672-0.963,2.997-2.54c0.098-0.472,0.132-0.959,0.169-1.442
		c0.106-1.42,0.201-2.843,0.297-4.265c0.072-1.053,0.152-2.105,0.211-3.158c0.03-0.514-0.012-0.55-0.489-0.585
		c-0.711-0.052-1.422-0.101-2.134-0.144c-0.686-0.044-1.366-0.019-2.041,0.128c-1.14,0.25-1.954,0.892-2.418,1.967
		c-0.238,0.553-0.375,1.134-0.45,1.731C195.18,53.122,195.16,54.12,195.135,55.116z"/>
	<path fill="#FFFFFF" d="M155.582,42.881c0.345-0.315,0.401-0.603,0.513-0.859c2.504-5.758,5.131-11.459,7.909-17.092
		c0.493-0.999,0.262-0.843,1.318-0.896c2.11-0.106,4.222-0.179,6.333-0.265c0.115-0.004,0.229-0.003,0.343,0
		c0.179,0.008,0.269,0.125,0.198,0.272c-0.11,0.231-0.232,0.458-0.354,0.683c-3.127,5.74-6.123,11.547-8.944,17.446
		c-0.478,1.001-0.479,0.724,0.036,1.721c3.588,6.95,6.984,13.991,10.183,21.13c0.459,1.026,0.452,0.928-0.584,0.976
		c-1.825,0.084-3.651,0.157-5.478,0.235c-0.085,0.003-0.172-0.001-0.256,0.009c-0.256,0.029-0.44-0.056-0.542-0.308
		c-0.074-0.185-0.168-0.362-0.252-0.543c-2.277-4.89-4.642-9.737-7.107-14.536c-0.139-0.271-0.214-0.594-0.544-0.798
		c-0.22,0.444-0.438,0.875-0.649,1.308c-0.35,0.718-0.691,1.441-1.043,2.158c-0.13,0.265-0.172,0.529-0.147,0.827
		c0.239,2.787,0.467,5.575,0.694,8.362c0.099,1.225,0.192,2.449,0.28,3.673c0.028,0.386-0.036,0.466-0.4,0.504
		c-0.625,0.063-1.252,0.106-1.876,0.165c-1.278,0.121-2.556,0.247-3.836,0.372c-0.028,0.003-0.056,0.004-0.084,0.006
		c-0.328,0.017-0.422-0.041-0.461-0.358c-0.088-0.707-0.156-1.419-0.231-2.128c-0.214-2.016-0.429-4.03-0.64-6.046
		c-0.197-1.873-0.385-3.748-0.583-5.621c-0.2-1.902-0.408-3.803-0.61-5.705c-0.193-1.817-0.381-3.633-0.573-5.45
		c-0.209-1.988-0.422-3.974-0.633-5.961c-0.188-1.789-0.375-3.577-0.563-5.364c-0.151-1.448-0.306-2.896-0.458-4.343
		c-0.018-0.171-0.042-0.341-0.052-0.512c-0.024-0.405,0.006-0.458,0.384-0.506c0.68-0.083,1.362-0.153,2.043-0.218
		c1.478-0.141,2.956-0.277,4.435-0.413c0.141-0.013,0.285-0.01,0.427-0.015c0.167-0.005,0.267,0.083,0.299,0.239
		c0.029,0.14,0.052,0.282,0.064,0.423c0.126,1.537,0.25,3.073,0.375,4.609c0.155,1.878,0.314,3.755,0.468,5.632
		c0.137,1.678,0.269,3.358,0.406,5.037C155.441,41.412,155.509,42.088,155.582,42.881z"/>
	<path fill="#FFFFFF" d="M271.56,71.398c0.142-0.273,0.287-0.544,0.421-0.819c4.758-9.717,9.663-19.36,14.728-28.922
		c0.646-1.214,0.352-1.124,1.721-0.668c1.57,0.521,3.133,1.069,4.698,1.605c0.189,0.066,0.38,0.128,0.563,0.204
		c0.201,0.083,0.24,0.203,0.135,0.41c-0.104,0.204-0.221,0.401-0.333,0.599c-6.753,11.828-13.244,23.798-19.485,35.905
		c-0.513,0.99-0.348,0.866-1.333,0.563c-2.672-0.821-5.336-1.668-8.014-2.475c-0.81-0.243-0.688-0.336-0.617-0.952
		c0.189-1.588,0.397-3.173,0.594-4.759c0.203-1.645,0.405-3.286,0.601-4.931c0.214-1.786,0.425-3.572,0.625-5.359
		c0.202-1.787,0.392-3.576,0.583-5.363c0.207-1.931,0.411-3.861,0.611-5.792c0.141-1.363,0.274-2.728,0.405-4.091
		c0.214-2.246,0.424-4.492,0.631-6.737c0.133-1.451,0.255-2.902,0.389-4.352c0.034-0.391,0.1-0.427,0.491-0.333
		c0.11,0.027,0.219,0.064,0.328,0.095c1.403,0.388,2.806,0.773,4.21,1.165c0.713,0.198,1.429,0.396,2.14,0.608
		c0.301,0.089,0.353,0.186,0.313,0.509c-0.233,1.927-0.469,3.854-0.709,5.78c-0.252,2.011-0.505,4.022-0.765,6.032
		c-0.246,1.896-0.494,3.793-0.755,5.688c-0.311,2.262-0.627,4.524-0.951,6.784c-0.313,2.175-0.636,4.35-0.956,6.523
		c-0.13,0.875-0.269,1.749-0.397,2.624c-0.021,0.139-0.018,0.28-0.024,0.421C271.459,71.373,271.51,71.386,271.56,71.398z"/>
	<path fill="#FFFFFF" d="M318.649,52.671c-0.022,0.083-0.044,0.192-0.086,0.291c-0.696,1.564-1.395,3.128-2.093,4.691
		c-0.012,0.026-0.02,0.054-0.035,0.079c-0.154,0.308-0.231,0.343-0.524,0.225c-0.213-0.084-0.421-0.182-0.629-0.273
		c-3.575-1.581-7.178-3.095-10.811-4.542c-0.867-0.346-0.778-0.444-1.145,0.478c-1.291,3.233-2.575,6.469-3.861,9.704
		c-0.074,0.186-0.15,0.37-0.222,0.556c-0.059,0.153-0.03,0.28,0.129,0.352c0.234,0.104,0.471,0.204,0.707,0.303
		c2.609,1.084,5.22,2.165,7.826,3.252c0.285,0.119,0.592,0.204,0.84,0.446c-0.079,0.2-0.146,0.386-0.223,0.565
		c-0.615,1.412-1.23,2.825-1.849,4.237c-0.069,0.156-0.142,0.311-0.225,0.46c-0.064,0.113-0.182,0.142-0.294,0.099
		c-0.217-0.081-0.42-0.181-0.63-0.269c-2.608-1.084-5.216-2.174-7.829-3.247c-0.807-0.332-0.769-0.395-1.099,0.44
		c-1.308,3.288-2.617,6.575-3.93,9.862c-0.292,0.729-0.308,0.711,0.471,1.022c3.233,1.293,6.444,2.637,9.63,4.044
		c0.21,0.092,0.419,0.181,0.626,0.278c0.409,0.194,0.422,0.218,0.234,0.642c-0.684,1.539-1.372,3.075-2.063,4.611
		c-0.035,0.079-0.08,0.151-0.12,0.226c-0.064,0.117-0.17,0.149-0.288,0.108c-0.188-0.065-0.374-0.142-0.555-0.222
		c-5.273-2.332-10.609-4.506-16.016-6.515c-0.134-0.049-0.269-0.098-0.399-0.152c-0.286-0.124-0.338-0.229-0.225-0.537
		c0.492-1.34,0.997-2.673,1.495-4.013c4.269-11.473,8.534-22.946,12.801-34.42c0.029-0.08,0.055-0.161,0.086-0.242
		c0.331-0.884,0.262-0.794,1.073-0.491c6.256,2.333,12.441,4.848,18.548,7.549C318.191,52.371,318.454,52.423,318.649,52.671z"/>
	<path fill="#FFFFFF" d="M224.972,68.775c0.13-0.892,0.265-1.824,0.404-2.756c0.38-2.541,0.761-5.081,1.143-7.623
		c0.37-2.483,0.745-4.967,1.115-7.451c0.37-2.457,0.732-4.913,1.1-7.368c0.377-2.513,0.753-5.025,1.127-7.537
		c0.371-2.485,0.723-4.972,1.115-7.453c0.224-1.412-0.065-1.355,1.489-1.098c1.857,0.309,3.719,0.597,5.58,0.892
		c0.112,0.018,0.227,0.029,0.337,0.055c0.25,0.057,0.323,0.159,0.285,0.437c-0.052,0.396-0.122,0.79-0.191,1.183
		c-0.945,5.457-1.899,10.911-2.84,16.367c-0.885,5.118-1.761,10.239-2.639,15.358c-0.12,0.703-0.248,1.405-0.356,2.11
		c-0.058,0.383-0.023,0.418,0.387,0.494c1.515,0.279,3.032,0.547,4.547,0.837c1.85,0.354,3.696,0.724,5.543,1.089
		c0.196,0.038,0.388,0.092,0.586,0.133c0.203,0.045,0.285,0.167,0.251,0.37c-0.015,0.084-0.039,0.167-0.058,0.251
		c-0.322,1.535-0.646,3.07-0.971,4.607c-0.031,0.139-0.075,0.275-0.105,0.415c-0.046,0.196-0.148,0.297-0.362,0.251
		c-0.196-0.043-0.394-0.067-0.589-0.109c-4.103-0.881-8.231-1.621-12.368-2.321c-1.237-0.21-2.479-0.385-3.723-0.577
		c-0.169-0.026-0.338-0.055-0.505-0.096C224.989,69.166,224.952,69.11,224.972,68.775z"/>
	<path fill="#FFFFFF" d="M252.948,74.611c-0.072-0.018-0.156-0.039-0.239-0.059c-1.862-0.438-3.722-0.878-5.581-1.317
		c-0.084-0.021-0.165-0.051-0.246-0.078c-0.152-0.052-0.234-0.15-0.203-0.32c0.033-0.168,0.054-0.339,0.093-0.505
		c1.272-5.593,2.547-11.186,3.819-16.778c1.628-7.151,3.25-14.304,4.875-21.455c0.128-0.557,0.246-1.116,0.378-1.671
		c0.108-0.457,0.18-0.501,0.66-0.39c1.253,0.29,2.502,0.583,3.75,0.88c0.889,0.211,1.775,0.425,2.662,0.647
		c0.465,0.118,0.514,0.198,0.399,0.659c-0.343,1.385-0.693,2.768-1.043,4.152c-1.978,7.859-3.957,15.717-5.934,23.577
		c-0.99,3.93-1.973,7.862-2.959,11.791c-0.056,0.222-0.117,0.442-0.179,0.661C253.17,74.527,253.08,74.591,252.948,74.611z"/>
	<path fill="#FFFFFF" d="M200.104,109.75c0.281-0.153,0.514-0.116,0.738-0.116c0.857-0.005,1.713,0,2.57-0.001
		c0.785-0.004,0.694-0.004,0.962,0.696c0.851,2.208,1.687,4.423,2.53,6.638c0.095,0.252,0.211,0.501,0.318,0.761
		c0.306-0.176,0.324-0.455,0.418-0.685c0.881-2.168,1.737-4.346,2.626-6.508c0.427-1.052,0.19-0.891,1.337-0.902
		c0.887-0.009,1.77-0.005,2.656,0.004c0.348,0.004,0.396,0.04,0.453,0.376c0.164,0.986,0.318,1.974,0.468,2.961
		c0.449,2.934,0.892,5.866,1.333,8.802c0.154,1.015,0.301,2.033,0.442,3.05c0.041,0.312-0.019,0.394-0.283,0.396
		c-1.194,0.006-2.394,0.002-3.595,0.002c-0.191-0.28-0.194-0.57-0.229-0.844c-0.256-1.98-0.497-3.964-0.748-5.945
		c-0.07-0.566-0.147-1.133-0.229-1.698c-0.007-0.039-0.067-0.095-0.112-0.103c-0.041-0.006-0.114,0.032-0.131,0.068
		c-0.111,0.229-0.215,0.466-0.313,0.702c-0.99,2.371-1.978,4.741-2.971,7.109c-0.312,0.745-0.193,0.717-1.045,0.712
		c-1.005-0.006-0.839,0.096-1.214-0.835c-0.959-2.384-1.908-4.768-2.865-7.151c-0.074-0.186-0.146-0.372-0.232-0.552
		c-0.018-0.033-0.097-0.062-0.138-0.05c-0.043,0.013-0.09,0.065-0.108,0.112c-0.027,0.08-0.035,0.167-0.047,0.251
		c-0.357,2.485-0.715,4.971-1.074,7.457c-0.021,0.169-0.064,0.334-0.1,0.503c-0.033,0.156-0.126,0.252-0.291,0.25
		c-1.193-0.001-2.393,0.069-3.587-0.04c-0.025-0.004-0.048-0.03-0.074-0.045c-0.083-0.195-0.035-0.394-0.001-0.587
		C198.432,119.599,199.234,114.645,200.104,109.75z"/>
	<path fill="#FFFFFF" d="M165.96,92.425c-0.016-0.855,0.129-1.783,0.449-2.678c0.771-2.154,2.183-3.744,4.306-4.616
		c2.592-1.062,5.196-1.017,7.705,0.265c2.495,1.272,3.876,3.368,4.246,6.141c0.202,1.505,0.03,2.969-0.555,4.364
		c-1.127,2.696-3.199,4.235-6.025,4.797c-1.483,0.293-2.963,0.206-4.405-0.239C167.841,99.278,165.867,95.923,165.96,92.425z
		 M178.562,92.663c-0.011-0.229-0.016-0.457-0.036-0.684c-0.072-0.781-0.312-1.511-0.751-2.159
		c-0.977-1.441-2.367-1.989-4.067-1.809c-1.074,0.115-1.953,0.595-2.611,1.456c-1.339,1.747-1.302,4.596,0.061,6.314
		c1.74,2.195,5.6,2.077,6.91-0.799C178.404,94.245,178.569,93.473,178.562,92.663z"/>
	<path fill="#FFFFFF" d="M140.65,117.408c0-2.256,0-4.514,0-6.769c0-0.172-0.003-0.343,0.003-0.514
		c0.017-0.442,0.05-0.488,0.508-0.488c1.856-0.003,3.716-0.062,5.569,0.021c3.561,0.162,6.271,2.501,7.26,5.489
		c1.008,3.039-0.088,6.403-2.718,8.4c-1.429,1.086-3.041,1.674-4.848,1.682c-1.656,0.005-3.312,0.001-4.969,0
		c-0.171,0-0.342-0.002-0.513-0.016c-0.159-0.012-0.265-0.102-0.273-0.267c-0.012-0.227-0.017-0.455-0.017-0.686
		C140.649,121.979,140.65,119.693,140.65,117.408z M144.733,117.426c0,0.968-0.014,1.935,0.002,2.903
		c0.029,1.741-0.302,1.532,1.575,1.427c1.758-0.096,3.238-1.113,3.678-3.128c0.209-0.958,0.193-1.93-0.125-2.869
		c-0.42-1.241-1.257-2.08-2.523-2.461c-0.745-0.224-1.513-0.252-2.285-0.214c-0.207,0.011-0.304,0.13-0.312,0.327
		c-0.01,0.197-0.01,0.397-0.01,0.595C144.732,115.147,144.733,116.286,144.733,117.426z"/>
	<path fill="#FFFFFF" d="M209.388,94.089c0.076,0.272,0.284,0.473,0.448,0.692c1.176,1.584,2.355,3.159,3.531,4.739
		c0.152,0.207,0.304,0.415,0.449,0.626c0.069,0.099-0.002,0.236-0.121,0.248c-0.084,0.013-0.171,0.016-0.256,0.016
		c-1.227,0.001-2.455-0.012-3.682,0.008c-0.358,0.006-0.575-0.131-0.771-0.421c-1.089-1.605-2.191-3.203-3.296-4.799
		c-0.125-0.183-0.238-0.53-0.428-0.482c-0.302,0.084-0.143,0.438-0.147,0.668c-0.017,1.343-0.007,2.685-0.008,4.025
		c0,0.228-0.003,0.456-0.011,0.686c-0.004,0.21-0.131,0.298-0.324,0.308c-0.03,0.001-0.059,0.005-0.088,0.005
		c-1.055,0-2.111,0.008-3.168-0.002c-0.389-0.003-0.453-0.072-0.469-0.442c-0.014-0.199-0.007-0.399-0.007-0.599
		c0-4.482,0-8.965,0-13.447c0-0.114-0.003-0.227,0-0.343c0.011-0.749,0.011-0.756,0.767-0.757c1.687-0.005,3.371-0.01,5.055,0.003
		c0.801,0.005,1.598,0.085,2.37,0.31c1.939,0.562,3.144,2.055,3.299,4.025c0.148,1.864-0.808,3.671-2.464,4.547
		C209.846,93.818,209.566,93.842,209.388,94.089z M205.117,89.915c-0.004,0-0.008,0-0.01,0c0,0.256-0.004,0.511,0,0.766
		c0.016,1.271-0.166,1.168,1.224,1.104c0.28-0.015,0.563-0.09,0.827-0.187c0.778-0.277,1.188-0.927,1.16-1.793
		c-0.028-0.877-0.457-1.47-1.279-1.706c-0.521-0.149-1.064-0.172-1.604-0.131c-0.195,0.017-0.316,0.126-0.316,0.326
		C205.115,88.834,205.117,89.375,205.117,89.915z"/>
	<path fill="#FFFFFF" d="M156.442,117.443c0-2.313,0.001-4.624,0-6.939c0-0.926-0.017-0.869,0.906-0.871c1.657,0,3.313,0.002,4.97,0
		c0.804,0,1.596,0.092,2.367,0.325c1.855,0.559,3.035,1.98,3.227,3.803c0.247,2.326-1.019,4.001-2.417,4.736
		c-0.222,0.116-0.562,0.136-0.641,0.37c-0.099,0.298,0.22,0.495,0.382,0.716c1.188,1.606,2.386,3.206,3.581,4.809
		c0.136,0.184,0.276,0.365,0.403,0.553c0.093,0.136,0.01,0.268-0.167,0.279c-0.114,0.007-0.228,0.008-0.342,0.008
		c-1.142,0-2.285-0.024-3.426,0.012c-0.47,0.017-0.724-0.17-0.969-0.535c-1.002-1.494-2.031-2.971-3.05-4.453
		c-0.129-0.187-0.254-0.38-0.391-0.561c-0.062-0.085-0.123-0.221-0.258-0.146c-0.053,0.03-0.082,0.139-0.084,0.214
		c-0.012,0.228-0.007,0.456-0.007,0.687c0,1.341-0.001,2.683,0,4.023c0,0.752,0.013,0.763-0.754,0.759
		c-0.971-0.003-1.942,0.002-2.913-0.008c-0.331-0.003-0.392-0.079-0.408-0.413c-0.009-0.198-0.006-0.396-0.006-0.597
		c0-1.4,0-2.801,0-4.199C156.442,119.157,156.442,118.3,156.442,117.443z M160.53,114.693c-0.001,0-0.005,0-0.007,0
		c0,0.429-0.001,0.855,0.002,1.283c0,0.142,0.008,0.283,0.024,0.424c0.015,0.127,0.098,0.206,0.223,0.216
		c0.69,0.057,1.368,0,2-0.301c0.728-0.347,0.983-1.031,0.941-1.77c-0.044-0.78-0.406-1.363-1.18-1.608
		c-0.545-0.176-1.113-0.228-1.688-0.188c-0.207,0.014-0.312,0.127-0.314,0.325C160.528,113.613,160.53,114.153,160.53,114.693z"/>
	<path fill="#FFFFFF" d="M198.393,90.117c0,1.37-0.002,2.741,0.001,4.112c0.003,0.802-0.098,1.592-0.315,2.367
		c-0.604,2.181-2.033,3.527-4.197,4.083c-1.428,0.367-2.887,0.367-4.328,0.06c-3.277-0.69-4.351-2.907-4.672-5.017
		c-0.096-0.617-0.13-1.249-0.133-1.875c-0.016-2.711-0.006-5.425-0.006-8.136c0.001-0.2,0.002-0.4,0.018-0.599
		c0.017-0.154,0.114-0.255,0.271-0.28c0.084-0.012,0.17-0.017,0.256-0.017c0.998,0,1.998-0.008,2.998,0.004
		c0.486,0.003,0.52,0.042,0.525,0.555c0.01,0.599,0.004,1.197,0.004,1.798c0,2.057,0.002,4.11-0.002,6.166
		c0,0.628,0.038,1.254,0.146,1.874c0.064,0.369,0.17,0.723,0.342,1.054c0.252,0.479,0.637,0.808,1.152,0.965
		c0.753,0.229,1.519,0.251,2.279,0.034c0.588-0.167,0.988-0.554,1.22-1.113c0.195-0.48,0.294-0.984,0.322-1.498
		c0.023-0.453,0.032-0.912,0.032-1.369c0.004-2.568,0-5.136,0.004-7.706c0.002-0.752,0.01-0.757,0.757-0.761
		c0.942-0.005,1.883-0.006,2.825,0.005c0.437,0.003,0.492,0.057,0.493,0.501C198.396,86.92,198.393,88.52,198.393,90.117
		L198.393,90.117z"/>
	<path fill="#FFFFFF" d="M180.76,125.171c-0.09-0.318,0.106-0.561,0.211-0.816c1.318-3.22,2.646-6.438,3.973-9.656
		c0.576-1.397,1.154-2.796,1.73-4.192c0.076-0.186,0.158-0.367,0.228-0.555c0.081-0.217,0.226-0.317,0.454-0.315
		c0.313,0.001,0.628-0.003,0.941-0.003c0.658,0,1.312,0.01,1.971-0.002c0.27-0.003,0.416,0.115,0.512,0.354
		c0.389,0.984,0.789,1.961,1.185,2.939c1.536,3.811,3.076,7.617,4.61,11.431c0.104,0.256,0.286,0.497,0.215,0.83
		c-0.139,0.014-0.278,0.041-0.417,0.042c-1.085,0.002-2.169,0.005-3.255,0c-0.552-0.003-0.557-0.009-0.746-0.501
		c-0.224-0.588-0.448-1.174-0.65-1.767c-0.107-0.319-0.289-0.444-0.627-0.442c-1.57,0.013-3.141,0.013-4.711,0
		c-0.33-0.002-0.533,0.104-0.645,0.423c-0.217,0.62-0.471,1.227-0.682,1.847c-0.109,0.318-0.285,0.451-0.625,0.445
		c-1.141-0.013-2.283-0.005-3.426-0.009C180.924,125.225,180.841,125.19,180.76,125.171z M187.137,119.335
		c0.941,0.11,2.516,0.098,3.14-0.011c0.063-0.147,0-0.276-0.049-0.41c-0.421-1.146-0.837-2.294-1.257-3.441
		c-0.048-0.124-0.086-0.268-0.301-0.255C188.157,116.555,187.633,117.898,187.137,119.335z"/>
	<path fill="#FFFFFF" d="M170.479,117.334c0-2.311-0.002-4.624,0-6.937c0.001-0.755,0.008-0.761,0.75-0.763
		c2.455-0.003,4.911-0.002,7.365,0c0.144,0,0.286,0.002,0.429,0.006c0.194,0.007,0.338,0.09,0.34,0.298
		c0.006,0.942,0.004,1.885,0,2.827c0,0.211-0.137,0.298-0.331,0.301c-0.399,0.008-0.8,0.009-1.198,0.009
		c-0.914,0.002-1.828-0.004-2.74,0.005c-0.49,0.006-0.521,0.042-0.527,0.554c-0.009,0.545-0.008,1.087,0.003,1.627
		c0.006,0.336,0.063,0.396,0.412,0.398c0.999,0.012,1.999,0.007,2.997,0.01c0.257,0,0.515-0.005,0.771,0.01
		c0.271,0.013,0.372,0.096,0.375,0.36c0.012,0.827,0.012,1.656,0.004,2.483c-0.003,0.272-0.1,0.36-0.354,0.375
		c-0.201,0.013-0.4,0.009-0.6,0.009c-0.914,0-1.827-0.001-2.741,0c-0.2,0.002-0.399,0.007-0.598,0.02
		c-0.17,0.011-0.259,0.126-0.26,0.282c-0.006,0.771-0.003,1.54,0.004,2.31c0.001,0.162,0.11,0.257,0.273,0.266
		c0.2,0.01,0.399,0.015,0.599,0.015c1.027,0.002,2.055,0,3.083,0.002c0.198,0.001,0.398,0.009,0.597,0.023
		c0.129,0.011,0.197,0.096,0.22,0.221c0.006,0.027,0.015,0.056,0.015,0.083c0.002,0.914,0.008,1.828,0,2.74
		c-0.002,0.271-0.088,0.34-0.369,0.356c-0.17,0.01-0.342,0.007-0.514,0.007c-2.369,0.001-4.739,0.001-7.108,0
		c-0.2,0-0.4,0.001-0.599-0.014c-0.156-0.011-0.27-0.092-0.28-0.259c-0.014-0.229-0.018-0.457-0.018-0.687
		C170.479,121.959,170.479,119.647,170.479,117.334z"/>
	<path fill="#FFFFFF" d="M158.74,90.218c0.212-0.164,0.29-0.419,0.409-0.643c0.697-1.31,1.389-2.623,2.082-3.935
		c0.093-0.176,0.193-0.35,0.284-0.527c0.101-0.194,0.252-0.294,0.477-0.293c1.371,0.004,2.741,0.002,4.112,0.009
		c0.173,0,0.248,0.141,0.163,0.296c-0.123,0.223-0.258,0.444-0.391,0.662c-1.555,2.564-3.099,5.13-4.676,7.681
		c-0.347,0.559-0.5,1.113-0.484,1.769c0.035,1.456,0.012,2.911,0.01,4.367c0,0.172-0.004,0.344-0.014,0.514
		c-0.01,0.161-0.095,0.267-0.261,0.277c-0.228,0.014-0.456,0.018-0.685,0.018c-0.829,0.003-1.656,0.007-2.484-0.002
		c-0.589-0.007-0.609-0.024-0.612-0.646c-0.007-1.457,0.002-2.91-0.004-4.369c-0.006-1.402,0.099-0.975-0.617-2.153
		c-1.527-2.512-3.068-5.017-4.601-7.524c-0.133-0.219-0.254-0.444-0.367-0.673c-0.039-0.084,0.01-0.174,0.104-0.195
		c0.11-0.023,0.225-0.029,0.338-0.031c1.228-0.001,2.456,0.012,3.683-0.009c0.362-0.004,0.576,0.116,0.745,0.436
		c0.688,1.313,1.398,2.618,2.101,3.926c0.148,0.275,0.295,0.556,0.444,0.83C158.551,90.1,158.618,90.187,158.74,90.218z"/>
	<path fill="#FFFFFF" d="M112.62,104.852c2.227,0,4.454,0,6.681,0c0.229,0,0.457-0.003,0.686,0.008
		c0.281,0.013,0.379,0.091,0.382,0.348c0.009,0.914,0.004,1.829,0.002,2.742c0,0.2-0.112,0.318-0.312,0.327
		c-0.229,0.013-0.457,0.013-0.685,0.013c-4.511,0.002-9.022,0.002-13.533,0.002c-0.2,0-0.401,0.003-0.6-0.008
		c-0.306-0.018-0.384-0.097-0.386-0.432c-0.007-0.857-0.009-1.715,0-2.571c0.004-0.342,0.076-0.407,0.399-0.421
		c0.228-0.013,0.457-0.008,0.686-0.008C108.166,104.852,110.393,104.852,112.62,104.852z"/>
	<path fill="#FFFFFF" d="M249.381,103.622c-2.167,0-4.333,0-6.501,0c-0.171,0-0.341,0.002-0.513-0.001
		c-0.652-0.012-0.663-0.016-0.669-0.675c-0.006-0.799-0.003-1.598,0.013-2.395c0.004-0.274,0.086-0.344,0.369-0.357
		c0.196-0.012,0.396-0.007,0.596-0.007c4.504-0.001,9.009,0,13.513,0c0.115,0,0.229-0.001,0.344,0
		c0.65,0.013,0.656,0.013,0.66,0.672c0.006,0.799,0.005,1.596-0.007,2.395c-0.006,0.272-0.089,0.347-0.365,0.359
		c-0.228,0.013-0.455,0.009-0.685,0.009C253.886,103.622,251.634,103.622,249.381,103.622z"/>
	<path fill="#FFFFFF" d="M223.372,114.654c-0.002,1.399,0,2.797-0.002,4.194c0,0.172,0.004,0.344-0.008,0.514
		c-0.017,0.268-0.101,0.355-0.365,0.365c-0.342,0.015-0.686,0.012-1.026,0.01c-0.626,0-1.257,0.004-1.883-0.008
		c-0.279-0.005-0.365-0.089-0.384-0.347c-0.011-0.142-0.01-0.285-0.01-0.429c0-2.854-0.001-5.707,0.004-8.558
		c0-0.754,0.008-0.757,0.755-0.761c0.77-0.005,1.54-0.007,2.311,0.001c0.557,0.006,0.594,0.04,0.604,0.569
		c0.011,0.597,0.003,1.196,0.005,1.797C223.372,112.887,223.372,113.771,223.372,114.654z"/>
	<path fill="#FFFFFF" d="M223.909,123.364c-0.008,1.254-1.043,2.279-2.304,2.284c-1.296,0.006-2.315-1.054-2.303-2.361
		c0.012-1.12,0.931-2.241,2.336-2.226C222.758,121.076,223.878,121.914,223.909,123.364z"/>
</g>
</svg>
