<?xml version="1.0" standalone="no"?>
<!DOCTYPE svg PUBLIC "-//W3C//DTD SVG 1.1//EN" "http://www.w3.org/Graphics/SVG/1.1/DTD/svg11.dtd" >
<svg xmlns="http://www.w3.org/2000/svg">
<metadata></metadata>
<defs>
<font id="luzsans-boldluzsans-bold" horiz-adv-x="1775" >
<font-face units-per-em="2048" ascent="1638" descent="-410" />
<missing-glyph horiz-adv-x="538" />
<glyph horiz-adv-x="0" />
<glyph horiz-adv-x="682" />
<glyph horiz-adv-x="1062" d="M72 1606h280q12 -72 58.5 -126.5t117.5 -54.5q72 0 117 54.5t57 126.5h281q-4 -92 -42 -168t-99.5 -130.5t-142.5 -83t-171 -28.5t-171 28.5t-143 83t-100 130t-42 168.5z" />
<glyph horiz-adv-x="618" d="M111 1423q0 41 15 77t43 63.5t63.5 43t76.5 15.5t77 -15.5t63.5 -43t43 -63.5t15.5 -77t-15.5 -76.5t-43 -63.5t-63.5 -43t-77 -15t-76.5 15t-63.5 43t-43 63.5t-15 76.5z" />
<glyph horiz-adv-x="772" d="M121 1432q0 117 72.5 184t195.5 67q129 0 197.5 -70t68.5 -181t-71.5 -181.5t-196.5 -70.5q-127 0 -196.5 70.5t-69.5 181.5zM283 1432q0 -45 27.5 -75t76.5 -30t78 30t29 75t-29 75.5t-76 30.5t-76.5 -30.5t-29.5 -75.5z" />
<glyph unicode="&#xa;" horiz-adv-x="1062" d="M76 1237l166 367h352l-291 -367h-227zM481 1237l205 367h358l-329 -367h-234z" />
<glyph horiz-adv-x="528" d="M74 -184q0 86 50 146.5t130 107.5h168v-4q-20 -12 -44 -30t-44.5 -39.5t-33.5 -47t-13 -51.5q0 -43 27.5 -73t76.5 -30q29 0 51.5 12.5t44.5 30.5v-188q-35 -23 -77.5 -35t-85.5 -12q-117 0 -183.5 59t-66.5 154z" />
<glyph horiz-adv-x="1126" d="M80 1622h342l145 -178l148 178h332l-322 -385h-324z" />
<glyph unicode="&#xd;" horiz-adv-x="538" />
<glyph horiz-adv-x="970" d="M-109 0l897 1544h228l-897 -1544h-228z" />
<glyph horiz-adv-x="1402" d="M29 743v308h131v168q0 229 142 364t415 135q137 0 242.5 -35.5t176 -101t107.5 -159t37 -208.5h-373q0 86 -51 137.5t-141 51.5t-136.5 -52.5t-46.5 -142.5v-157h261v-308h-261v-743h-372v743h-131zM907 0v1051h373v-1051h-373z" />
<glyph horiz-adv-x="1402" d="M29 743v308h131v170q0 229 145.5 364t417.5 135t414.5 -135t142.5 -364v-1221h-373v1208q0 90 -48 142.5t-138 52.5t-139.5 -52.5t-49.5 -142.5v-157h261v-308h-261v-743h-372v743h-131z" />
<glyph horiz-adv-x="1204" d="M31 518v348l188 111v567h402v-332l196 115v-350l-196 -115v-522h481v-340h-883v627q0 2 -29.5 -15.5t-64.5 -38.5q-41 -23 -94 -55z" />
<glyph horiz-adv-x="847" d="M31 518v348l98 58q37 23 66.5 40t29.5 15v721h373v-502l219 129v-350q-59 -35 -108 -64q-41 -25 -76 -44t-35 -21v-852l-373 4v631q0 2 -29.5 -15.5t-66.5 -40.5z" />
<glyph horiz-adv-x="1447" d="M23 0l731 1204h-607v340h1278l-727 -1204h648v-340h-1323zM262 2048h342l146 -178l147 178h332l-322 -385h-323z" />
<glyph horiz-adv-x="1144" d="M16 0l502 743h-436v308h1048l-499 -744h450v-307h-1065zM104 1622h342l146 -178l147 178h332l-321 -385h-324z" />
<glyph unicode=" "  horiz-adv-x="538" />
<glyph unicode="&#x09;" horiz-adv-x="538" />
<glyph unicode="&#xa0;" horiz-adv-x="538" />
<glyph unicode="!" horiz-adv-x="778" d="M166 186q0 47 17.5 89t48 73t72.5 48.5t89 17.5t89 -17.5t73 -48.5t48.5 -73t17.5 -89t-17.5 -88t-48.5 -71.5t-73 -49t-89 -18.5t-89 18.5t-72.5 49t-48 71.5t-17.5 88zM207 545v999h360v-999h-360z" />
<glyph unicode="&#x22;" horiz-adv-x="1296" d="M109 866l266 678h358l-377 -678h-247zM633 866l266 678h358l-376 -678h-248z" />
<glyph unicode="#" horiz-adv-x="1499" d="M68 367l34 243h232l43 299h-227l34 244h228l53 391h266l-53 -391h254l53 391h266l-53 -391h232l-35 -244h-232q-12 -82 -20 -149q-8 -57 -14.5 -103.5t-8.5 -46.5h230l-35 -243h-228l-51 -367h-266l51 367h-254l-51 -367h-266l51 367h-233zM600 610h254l43 299h-254 q-12 -82 -20 -149q-8 -57 -14.5 -103.5t-8.5 -46.5z" />
<glyph unicode="$" horiz-adv-x="1241" d="M12 129l164 322q59 -39 108.5 -68t92.5 -45t85 -24.5t85 -8.5q109 0 157 43t48 113q0 57 -48.5 90t-121 60.5t-156.5 56t-156.5 79t-121 129t-48.5 205.5q0 90 29 171t83 146.5t130 110.5t170 64v217h231v-211q115 -10 209.5 -43t161.5 -82l-153 -326q-172 109 -297 109 q-78 0 -122 -36t-44 -89q0 -55 49 -88t122.5 -60.5t158.5 -57t159 -80t123 -129t49 -203.5q0 -203 -108.5 -338.5t-307.5 -178.5v-229h-231v211q-129 6 -253 44t-247 126z" />
<glyph unicode="%" horiz-adv-x="1753" d="M59 1159q0 88 27 162t76 128t117.5 85t150.5 31q84 0 150.5 -31t114.5 -85t74 -129t26 -163t-27 -161.5t-76 -128t-116.5 -85t-151.5 -30.5q-82 0 -149.5 30.5t-115.5 85t-74 129t-26 162.5zM291 1159q0 -82 38 -141.5t97 -59.5t97 57.5t38 141.5q0 82 -37 141.5 t-96 59.5q-61 0 -99 -56.5t-38 -142.5zM317 0l897 1544h220l-897 -1544h-220zM958 387q0 88 27 162t76 128t117.5 85t150.5 31q84 0 150.5 -31t114.5 -85t74 -129t26 -163t-27 -161.5t-76 -128t-116.5 -85t-151.5 -30.5q-82 0 -149.5 30.5t-115.5 85t-74 129t-26 162.5z M1192 387q0 -82 37 -141.5t96 -59.5q61 0 98 56.5t37 142.5q0 82 -37 141.5t-96 59.5q-61 0 -98 -57.5t-37 -141.5z" />
<glyph unicode="&#x26;" horiz-adv-x="1562" d="M68 408q0 143 75.5 251.5t245.5 194.5q-78 84 -115.5 156.5t-37.5 158.5t33.5 162t95 132.5t149.5 89t199 32.5q117 0 201.5 -31.5t140 -86t83 -127t27.5 -154.5q0 -129 -77.5 -228.5t-229.5 -171.5l219 -231q100 111 193 240l237 -189q-59 -78 -114.5 -146.5 t-110.5 -127.5l303 -332h-420l-116 125q-119 -86 -234 -126t-240 -40q-113 0 -207 34t-160.5 94t-103 142t-36.5 179zM438 459q0 -76 59.5 -122t143.5 -46q47 0 97 18.5t98 46.5l-271 301q-63 -41 -95 -86t-32 -112zM584 1174q0 -51 28.5 -110.5t71.5 -94.5q90 43 129 90 t39 106t-36 101.5t-89 42.5q-72 0 -107.5 -39t-35.5 -96z" />
<glyph unicode="'" horiz-adv-x="772" d="M109 866l266 678h358l-377 -678h-247z" />
<glyph unicode="(" horiz-adv-x="788" d="M131 582q0 152 31 300t87 284.5t134 255t170 208.5l246 -196q-76 -96 -136.5 -205t-103.5 -219.5t-65.5 -219t-22.5 -202.5q0 -205 81 -424t247 -436l-246 -197q-92 90 -170 209t-134 255t-87 285.5t-31 301.5z" />
<glyph unicode=")" horiz-adv-x="788" d="M-43 -272q166 217 247 436t81 424t-80 415.5t-248 430.5l246 196q92 -90 170 -208.5t134 -255t87 -284.5t31 -300t-31 -301.5t-87 -285.5t-134 -255t-170 -209z" />
<glyph unicode="*" horiz-adv-x="794" d="M33 1090l174 98l-174 98l90 160l174 -103l-2 201h184l-2 -201l174 103l90 -160l-174 -98l174 -98l-90 -160l-174 102l2 -201h-184l2 201l-174 -102z" />
<glyph unicode="+" horiz-adv-x="1404" d="M178 621v307h371v370h307v-370h371v-307h-371v-373h-307v373h-371z" />
<glyph unicode="," horiz-adv-x="700" d="M96 -274q72 66 130.5 151.5t78.5 163.5q-82 4 -132 56t-50 130q0 43 15.5 80t43 63.5t64.5 42t80 15.5q53 0 97 -20.5t74.5 -56.5t47 -82t16.5 -99q0 -76 -26.5 -152.5t-72.5 -147.5t-107.5 -134.5t-131.5 -110.5z" />
<glyph unicode="-" horiz-adv-x="819" d="M102 504v307h615v-307h-615z" />
<glyph unicode="." horiz-adv-x="655" d="M113 174q0 45 17 84t46 68.5t68 46t84 16.5t84 -16.5t68.5 -46t46 -68.5t16.5 -84t-16.5 -84t-46 -68.5t-68.5 -46t-84 -16.5t-84 16.5t-68 46t-46 68.5t-17 84z" />
<glyph unicode="/" horiz-adv-x="1054" d="M-72 -541l865 2085h292l-864 -2085h-293z" />
<glyph unicode="0" horiz-adv-x="1404" d="M63 770q0 180 48.5 330.5t134.5 258t206.5 167t266.5 59.5q145 0 261 -59.5t195.5 -167t122.5 -258t43 -330.5t-48 -328.5t-134 -256t-207 -167t-266 -59.5t-261 59.5t-195.5 167t-123 256t-43.5 328.5zM449 770q0 -104 18 -190t50 -147.5t77 -95.5t98 -34 q117 0 190.5 123t73.5 344q0 104 -17 191.5t-50 148.5t-78 95t-98 34q-117 0 -190.5 -124t-73.5 -345z" />
<glyph unicode="1" horiz-adv-x="901" d="M68 1204v340h622v-1544h-401v1204h-221z" />
<glyph unicode="2" horiz-adv-x="1363" d="M51 4l592 641q68 74 112 131.5t69.5 105.5t34.5 91t9 88q0 82 -50 130t-142 48q-86 0 -134 -53t-48 -158v-29h-392v29q6 125 44 227.5t110 176t177.5 113.5t244.5 40t245.5 -39t179.5 -109.5t110.5 -168.5t37.5 -215q0 -131 -54 -249t-175 -243l-217 -225h471v-336h-1223 z" />
<glyph unicode="3" horiz-adv-x="1339" d="M80 481v29h401v-29q0 -78 52.5 -131t140.5 -53q92 0 141 47t49 145q0 92 -61.5 140.5t-167.5 48.5h-74v270h76q92 0 138 47t46 119q0 68 -46 110t-122 42q-84 0 -124 -42t-40 -104v-28h-364v28q14 211 154.5 338t406.5 127q111 0 205 -33.5t163.5 -92t108.5 -137.5 t39 -167q0 -203 -182 -317v-4q57 -23 101 -63t74 -88t45 -103.5t15 -108.5q0 -111 -39.5 -204t-113.5 -161.5t-176.5 -107.5t-229.5 -39q-131 0 -242.5 42t-192.5 113.5t-129 167t-52 199.5z" />
<glyph unicode="4" horiz-adv-x="1406" d="M72 319v256l704 969h371v-917h186v-308h-186v-319h-373v319h-702zM465 627h309v411h-4l-305 -409v-2z" />
<glyph unicode="5" horiz-adv-x="1286" d="M61 106l56 355q70 -43 123 -73t99 -46t91 -23.5t100 -7.5q111 0 184.5 60.5t73.5 179.5q0 92 -83.5 148.5t-223.5 56.5q-98 0 -169.5 -15.5t-137.5 -40.5l-20 15l100 829h833v-334h-514l-20 -163q20 4 45 4h64q248 0 392 -131.5t144 -387.5q0 -113 -42 -217t-122 -183 t-194.5 -126t-257.5 -47q-150 0 -274 35t-247 112z" />
<glyph unicode="6" horiz-adv-x="1404" d="M66 539q0 147 61 285.5t176 285.5l334 434h434l-430 -532l4 -4q41 23 86 36t98 13q117 0 210.5 -37t159 -105.5t100 -164.5t34.5 -213q0 -123 -44 -228.5t-126 -183.5t-199.5 -122t-263.5 -44q-133 0 -248.5 42t-201.5 119t-135 183.5t-49 235.5zM446 522q0 -51 19.5 -97 t54.5 -80t81 -53.5t101 -19.5q53 0 100.5 19.5t81.5 53.5t53 80t19 97q0 53 -19 98.5t-53 80t-81 54t-101 19.5q-55 0 -101 -19.5t-81 -54t-54.5 -80t-19.5 -98.5z" />
<glyph unicode="7" horiz-adv-x="1239" d="M63 1204v340h1172l-676 -1544h-440l553 1204h-609z" />
<glyph unicode="8" horiz-adv-x="1333" d="M92 408q0 137 63.5 235t194.5 150v4q-111 47 -169 141t-58 209q0 96 40 177t111.5 139.5t173 90t224.5 31.5t224 -31.5t173 -90t112 -139.5t40 -177q0 -115 -58.5 -209t-169.5 -141v-4q131 -51 194.5 -149.5t63.5 -235.5q0 -104 -42 -188.5t-117.5 -142t-182 -88 t-237.5 -30.5t-237.5 30.5t-182.5 88t-118 141.5t-42 189zM479 471q0 -80 54.5 -135t138.5 -55q86 0 140 55t54 135q0 39 -14 74t-41 60.5t-61.5 41t-77.5 15.5q-41 0 -77 -15.5t-61.5 -41t-40 -60.5t-14.5 -74zM485 1112q0 -76 52.5 -128t134.5 -52q84 0 135 52t51 128 t-50 128t-136 52q-84 0 -135.5 -52t-51.5 -128z" />
<glyph unicode="9" horiz-adv-x="1404" d="M74 1008q0 127 46 232.5t130 182t202.5 119.5t264.5 43q133 0 247.5 -42t198.5 -118.5t131 -183t47 -235.5q0 -147 -56 -277.5t-169 -277.5l-346 -451h-434l424 524l-4 4q-37 -20 -74 -28t-90 -8q-113 0 -208 36.5t-163.5 104t-107.5 163t-39 212.5zM451 1022 q0 -51 18 -97t52 -81t80 -54.5t104 -19.5q57 0 104 19.5t81 54.5t52.5 81t18.5 97t-19.5 97t-54.5 80t-81 53.5t-101 19.5q-53 0 -100.5 -19.5t-81.5 -53.5t-53 -80t-19 -97z" />
<glyph unicode=":" horiz-adv-x="700" d="M135 174q0 45 17.5 84t46 68.5t67.5 46t84 16.5t84 -16.5t68.5 -46t46 -68.5t16.5 -84t-16.5 -84t-46 -68.5t-68.5 -46t-84 -16.5t-84 16.5t-67.5 46t-46 68.5t-17.5 84zM135 870q0 45 17.5 84t46 69t67.5 46t84 16t84 -16t68.5 -46t46 -69t16.5 -84t-16.5 -83.5 t-46 -67.5t-68.5 -46.5t-84 -17.5t-84 17.5t-67.5 46.5t-46 67.5t-17.5 83.5z" />
<glyph unicode=";" horiz-adv-x="700" d="M96 -274q72 66 130.5 151.5t78.5 163.5q-82 4 -132 56t-50 130q0 43 15.5 80t43 63.5t64.5 42t80 15.5q53 0 97 -20.5t74.5 -56.5t47 -82t16.5 -99q0 -76 -26.5 -152.5t-72.5 -147.5t-107.5 -134.5t-131.5 -110.5zM135 870q0 45 17.5 84t46 69t67.5 46t84 16t84 -16 t68.5 -46t46 -69t16.5 -84t-16.5 -83.5t-46 -67.5t-68.5 -46.5t-84 -17.5t-84 17.5t-67.5 46.5t-46 67.5t-17.5 83.5z" />
<glyph unicode="&#x3c;" horiz-adv-x="1239" d="M115 748v61l805 539l184 -248l-477 -318l477 -331l-184 -250z" />
<glyph unicode="=" horiz-adv-x="1404" d="M178 373v307h1049v-307h-1049zM178 864v307h1049v-307h-1049z" />
<glyph unicode="&#x3e;" horiz-adv-x="1239" d="M135 451l477 331l-477 318l184 248l805 -539v-61l-805 -547z" />
<glyph unicode="?" horiz-adv-x="1202" d="M37 1104q0 115 38 205t105.5 151.5t162.5 93t210 31.5q117 0 217 -37t175 -101.5t118 -151.5t43 -189q0 -86 -27.5 -159t-77 -130t-116 -96t-146.5 -59v-136h-366v377h49q61 0 116.5 12.5t97.5 38t66.5 63.5t24.5 89q0 63 -41 108.5t-106 45.5q-76 0 -114 -43t-38 -113 h-391zM336 186q0 47 17.5 89t48 73t72.5 48.5t89 17.5t89 -17.5t73 -48.5t48.5 -73t17.5 -89t-17.5 -88t-48.5 -71.5t-73 -49t-89 -18.5t-89 18.5t-72.5 49t-48 71.5t-17.5 88z" />
<glyph unicode="@" horiz-adv-x="1832" d="M94 731q0 190 68.5 348t185.5 270.5t270.5 174t323.5 61.5q182 0 331.5 -56t255 -154.5t164 -230.5t58.5 -284q0 -100 -30.5 -191t-86 -159t-131.5 -108t-164 -40q-90 0 -155.5 40t-87.5 124h-2q-49 -70 -121 -110.5t-176 -40.5q-61 0 -120 23.5t-104 67.5t-71.5 107.5 t-26.5 141.5q0 94 34 173t91 137t133 91t158 33q74 0 125 -31t82 -78h2l14 84h256l-63 -403q-6 -33 -7 -66q0 -31 9.5 -55.5t29 -39.5t52.5 -15q49 0 87 25.5t63.5 68.5t39.5 101.5t14 123.5q0 111 -47 213.5t-131 181t-202.5 127t-262.5 48.5q-162 0 -293 -53.5 t-221 -146.5t-139 -222t-49 -281q0 -135 50 -249.5t140 -196.5t217 -128t283 -46q168 0 299 42t219 97v-164q-86 -51 -218 -89t-306 -38q-160 0 -311.5 49t-269 146.5t-188.5 242t-71 334.5zM725 739q0 -72 44 -110.5t108 -38.5q86 0 135 59t49 139q0 59 -39 102.5 t-104 43.5q-45 0 -81 -16.5t-60.5 -44t-38 -62.5t-13.5 -72z" />
<glyph unicode="A" horiz-adv-x="1599" d="M-8 0l635 1544h356l623 -1544h-432l-99 268h-561l-100 -268h-422zM631 575h332l-162 443h-4z" />
<glyph unicode="B" horiz-adv-x="1331" d="M131 0v1544h574q240 0 359.5 -104.5t119.5 -296.5q0 -104 -56.5 -186.5t-154.5 -129.5v-4q57 -8 111.5 -39.5t97.5 -81t68.5 -113.5t25.5 -138q0 -98 -33 -181.5t-97.5 -143.5t-158.5 -93t-219 -33h-637zM532 307h134q106 0 165.5 43t59.5 121t-50 123t-153 45h-156v-332 zM532 938h115q84 0 127 41.5t43 107.5t-42 108t-134 42h-109v-299z" />
<glyph unicode="C" horiz-adv-x="1310" d="M68 774q0 170 55 318.5t160.5 258t259 172t350.5 62.5q92 0 179 -19.5t173 -52.5v-444l-4 -4q-66 76 -157 112.5t-191 36.5q-94 0 -171 -30.5t-130 -88t-83 -139.5t-30 -182q0 -98 31 -180t86 -140.5t134 -91t173 -32.5q45 0 92 10t92.5 28.5t84 45t69.5 59.5l4 -4v-436 q-96 -35 -179 -53.5t-163 -18.5q-203 0 -358.5 63.5t-262 173t-160.5 258t-54 318.5z" />
<glyph unicode="D" horiz-adv-x="1542" d="M131 0v1544h555q168 0 313.5 -61.5t253 -168t170 -245.5t62.5 -297t-62.5 -298t-171 -245.5t-254 -167t-311.5 -61.5h-555zM532 340h101q102 0 182 30.5t136.5 87t86 136.5t29.5 178q0 197 -112.5 314.5t-321.5 117.5h-101v-864z" />
<glyph unicode="E" horiz-adv-x="1120" d="M131 0v1544h879v-340h-478v-258h453v-319h-453v-287h478v-340h-879z" />
<glyph unicode="F" horiz-adv-x="1101" d="M131 0v1544h887v-340h-486v-280h441v-340h-441v-584h-401z" />
<glyph unicode="G" horiz-adv-x="1718" d="M57 764q0 174 61.5 323.5t171 260t262.5 174t337 63.5q244 0 433 -103.5t300 -328.5l-352 -149q-76 127 -167 179t-222 52q-90 0 -165 -36t-128 -99.5t-83 -147.5t-30 -180q0 -92 30 -176t83 -147.5t126.5 -101.5t162.5 -38q68 0 128 15.5t106 46t74.5 74.5t35.5 102 h-349v315h785q-2 -84 -6 -162.5t-19.5 -152.5t-45.5 -146.5t-81 -144.5q-115 -160 -275.5 -228.5t-355.5 -68.5q-180 0 -329.5 65.5t-258 176t-169 257t-60.5 306.5z" />
<glyph unicode="H" horiz-adv-x="1636" d="M131 0v1544h401v-596h580v596h401v-1544h-401v633h-580v-633h-401z" />
<glyph unicode="I" horiz-adv-x="651" d="M131 0v1544h401v-1544h-401z" />
<glyph unicode="J" horiz-adv-x="831" d="M35 0v350q45 -23 89 -34t83 -11q78 0 113.5 36t35.5 118v1085h402v-1138q0 -117 -38 -201t-103.5 -139.5t-154.5 -81t-194 -25.5q-72 0 -132 11.5t-101 29.5z" />
<glyph unicode="K" horiz-adv-x="1484" d="M131 0v1544h401v-637h5l458 637h469l-573 -731l596 -813h-492l-458 670h-5v-670h-401z" />
<glyph unicode="L" horiz-adv-x="1034" d="M131 0v1544h401v-1204h482v-340h-883z" />
<glyph unicode="M" horiz-adv-x="2013" d="M39 0l262 1544h395l314 -825l331 825h400l233 -1544h-401l-113 889h-4l-371 -889h-159l-355 889h-4l-129 -889h-399z" />
<glyph unicode="N" horiz-adv-x="1771" d="M131 0v1544h375l735 -919h4v919h395v-1544h-374l-736 926h-4v-926h-395z" />
<glyph unicode="O" d="M57 774q0 170 59.5 318.5t168 258t261 172t337.5 62.5q186 0 339.5 -63.5t264 -173t171 -258t60.5 -318.5t-59.5 -318.5t-168 -258t-261 -173t-336.5 -63.5q-186 0 -340 63.5t-264.5 174t-171 259t-60.5 318.5zM469 774q0 -98 30.5 -183t86 -147.5t134.5 -98.5t173 -36 t171 35t130 96.5t83 146.5t30 185q0 98 -31 183t-86 146.5t-133 97.5t-174 36q-94 0 -171 -34t-130.5 -95.5t-83 -146.5t-29.5 -185z" />
<glyph unicode="P" horiz-adv-x="1353" d="M131 0v1544h602q127 0 228.5 -35.5t172 -103.5t108.5 -163t38 -214t-38 -214t-108.5 -162.5t-172 -103.5t-228.5 -36h-201v-512h-401zM532 836h78q147 0 209 48t62 144t-61.5 144.5t-209.5 48.5h-78v-385z" />
<glyph unicode="Q" d="M57 774q0 170 59.5 318.5t168 258t261 172t337.5 62.5q186 0 339.5 -63.5t264 -173t171 -258t60.5 -318.5q0 -150 -45 -282t-131 -236l283 -295h-424l-94 98q-88 -47 -192.5 -72.5t-221.5 -25.5q-186 0 -340 63.5t-264.5 174t-171 259t-60.5 318.5zM469 774 q0 -98 30.5 -183t86 -147.5t134.5 -98.5t173 -36q80 0 147 25l-12 14t-33.5 37t-48 50.5t-55.5 58.5q-68 70 -150 157h422l99 -104q45 102 45 225q0 98 -31 183t-86 146.5t-133 97.5t-174 36q-94 0 -171 -34t-130.5 -95.5t-83 -146.5t-29.5 -185z" />
<glyph unicode="R" horiz-adv-x="1368" d="M131 0v1544h580q270 0 413.5 -129t143.5 -346q0 -68 -22.5 -136.5t-64.5 -128t-102.5 -103.5t-136.5 -66l473 -635h-469l-407 594h-7v-594h-401zM532 852h60q133 0 195.5 49t62.5 143q0 96 -59.5 144.5t-190.5 48.5h-68v-385z" />
<glyph unicode="S" horiz-adv-x="1218" d="M12 129l164 322q59 -39 108.5 -68t92.5 -45t85 -24.5t85 -8.5q104 0 154.5 41t50.5 107q0 49 -46.5 89t-156.5 81l-109 41q-188 68 -264 173t-76 244q0 104 38 195.5t108.5 160t169 108.5t217.5 40q150 0 272.5 -36t208.5 -95l-153 -326q-172 109 -297 109 q-78 0 -122 -36t-44 -89q0 -25 10 -45t34.5 -38.5t66.5 -38t106 -42.5l121 -45q168 -63 245.5 -161t77.5 -248q0 -123 -40 -221.5t-116.5 -168t-188.5 -107.5t-253 -38q-143 0 -278.5 37t-270.5 133z" />
<glyph unicode="T" horiz-adv-x="1153" d="M31 1204v340h1065v-340h-332v-1204h-402v1204h-331z" />
<glyph unicode="U" horiz-adv-x="1583" d="M123 616v928h401v-854q0 -113 15.5 -187.5t49.5 -119.5t88 -64.5t130 -19.5q74 0 124 19.5t80.5 64.5t44 120t13.5 187v854h401v-928q0 -150 -40.5 -272.5t-124.5 -210.5t-210 -136t-298 -48t-299 48t-210 135t-124 211t-41 273z" />
<glyph unicode="V" horiz-adv-x="1558" d="M-31 1544h443l370 -921h4l373 921h430l-700 -1544h-230z" />
<glyph unicode="W" horiz-adv-x="2195" d="M-31 1544h418l268 -997h4l285 997h320l264 -997h4l291 997h418l-494 -1544h-410l-231 895h-4l-264 -895h-408z" />
<glyph unicode="X" horiz-adv-x="1536" d="M-18 0l553 776l-539 768h483l287 -465h2l301 465h475l-557 -768l541 -776h-469l-301 475h-4l-314 -475h-458z" />
<glyph unicode="Y" horiz-adv-x="1466" d="M-35 1544h475l295 -551h2l291 551h473l-565 -932v-612h-401v612z" />
<glyph unicode="Z" horiz-adv-x="1447" d="M23 0l731 1204h-607v340h1278l-727 -1204h648v-340h-1323z" />
<glyph unicode="[" horiz-adv-x="778" d="M106 -492v2110h566v-299h-226v-1512h226v-299h-566z" />
<glyph unicode="\" horiz-adv-x="1013" d="M-72 1544h293l864 -2085h-292z" />
<glyph unicode="]" horiz-adv-x="778" d="M106 -193h226v1512h-226v299h566v-2110h-566v299z" />
<glyph unicode="_" horiz-adv-x="1024" d="M102 -78h820v-307h-820v307z" />
<glyph unicode="`" horiz-adv-x="700" d="M33 1604h418l192 -367h-281z" />
<glyph unicode="a" horiz-adv-x="1380" d="M61 526q0 113 41 214.5t112 178t166 121.5t202 45q211 0 311 -129h4v95h373v-1051h-373v106h-4q-41 -59 -126 -100t-202 -41q-92 0 -183 38t-161.5 110.5t-115 177t-44.5 235.5zM412 524q0 -49 18.5 -94t51 -79t78.5 -54.5t104 -20.5q57 0 102 20.5t76.5 54.5t49 79 t17.5 94t-17.5 94.5t-49 80t-76.5 55t-102 20.5t-103.5 -20.5t-79 -55t-51 -80t-18.5 -94.5z" />
<glyph unicode="b" horiz-adv-x="1355" d="M102 0v1700h373v-744h4q53 61 140.5 95t191.5 34q106 0 197.5 -42t159 -114.5t105.5 -170.5t38 -211q0 -131 -43 -238.5t-114 -184.5t-161 -118t-186 -41q-117 0 -199 38t-129 103h-4v-106h-373zM463 524q0 -49 17.5 -94t49 -79t76.5 -54.5t103 -20.5q57 0 103 20.5 t79 54.5t51.5 79t18.5 94t-18.5 94.5t-51.5 80t-79 55t-103 20.5t-102.5 -20.5t-77 -55t-49 -80t-17.5 -94.5z" />
<glyph unicode="c" horiz-adv-x="964" d="M45 524q0 125 43 228.5t121 177.5t186.5 114.5t239.5 40.5q80 0 145.5 -16t118.5 -45v-340q-43 35 -107.5 62.5t-129.5 27.5q-119 0 -193 -61.5t-74 -177.5q0 -57 20.5 -103.5t57.5 -78t87 -49t108 -17.5q70 0 131 22.5t100 55.5v-340q-61 -29 -123.5 -44.5t-146.5 -15.5 q-123 0 -230.5 40t-185.5 112.5t-123 176t-45 230.5z" />
<glyph unicode="d" horiz-adv-x="1396" d="M61 510q0 113 39 217t107.5 184t166 127t214.5 47q92 0 177 -33.5t144 -103.5h4v752h373v-1700h-373v133h-4q-49 -78 -136 -123t-191 -45q-111 0 -205 41t-165 114t-111 173t-40 217zM446 524q0 -100 60.5 -167.5t175.5 -67.5t177.5 67.5t62.5 167.5q0 43 -18.5 85 t-50.5 76t-76 55.5t-95 21.5q-57 0 -101 -19.5t-74 -51.5t-45.5 -75t-15.5 -92z" />
<glyph unicode="e" horiz-adv-x="1245" d="M45 520q0 131 43 235.5t120 178.5t183.5 112.5t235.5 38.5q137 0 245.5 -40.5t183 -121.5t113.5 -200q35 -108 35 -245v-29h-794q10 -111 78.5 -157t158.5 -46q78 0 128 27.5t79 68.5h334q-23 -92 -75 -162.5t-125 -119t-159 -72t-176 -23.5q-131 0 -241.5 36 t-192.5 105.5t-128 174t-46 239.5zM414 651h434q-14 80 -72.5 126t-136.5 46q-92 0 -147.5 -45t-77.5 -127z" />
<glyph unicode="f" horiz-adv-x="804" d="M29 743v308h131v213q0 117 36.5 202.5t99 142t146.5 84t176 27.5q43 0 89.5 -8t85.5 -29v-325q-29 18 -60 28.5t-67 10.5q-72 0 -103 -42t-31 -134v-170h261v-308h-261v-743h-372v743h-131z" />
<glyph unicode="g" horiz-adv-x="1380" d="M61 526q0 113 41 214.5t112 178t166 121.5t202 45q211 0 311 -129h4v95h373v-959q0 -162 -44 -280.5t-125 -197.5t-193.5 -117t-248.5 -38q-111 0 -208 23.5t-171.5 74t-125 130.5t-68.5 190h379q16 -63 72.5 -95t140.5 -32q104 0 161.5 74t57.5 231v51h-4 q-41 -59 -126 -100t-202 -41q-92 0 -183 38t-161.5 110.5t-115 177t-44.5 235.5zM412 524q0 -49 18.5 -94t51 -79t78.5 -54.5t104 -20.5q57 0 102 20.5t76.5 54.5t49 79t17.5 94t-17.5 94.5t-49 80t-76.5 55t-102 20.5t-103.5 -20.5t-79 -55t-51 -80t-18.5 -94.5z" />
<glyph unicode="h" horiz-adv-x="1353" d="M123 0v1700h373v-782h4q66 86 145.5 126.5t190.5 40.5q100 0 173.5 -31.5t123 -90t74 -139.5t24.5 -181v-643h-373v539q0 47 -5 91t-23.5 79.5t-54.5 57t-97 21.5q-55 0 -91 -21.5t-55.5 -57t-27.5 -79.5t-8 -91v-539h-373z" />
<glyph unicode="i" horiz-adv-x="618" d="M111 1423q0 41 15 77t43 63.5t63.5 43t76.5 15.5t77 -15.5t63.5 -43t43 -63.5t15.5 -77t-15.5 -76.5t-43 -63.5t-63.5 -43t-77 -15t-76.5 15t-63.5 43t-43 63.5t-15 76.5zM123 0v1051h373v-1051h-373z" />
<glyph unicode="j" horiz-adv-x="618" d="M-137 -182q33 -14 63.5 -24.5t67.5 -10.5q72 0 100.5 43t28.5 133v1092h373v-1123q0 -109 -36 -195.5t-98.5 -147t-145.5 -93.5t-179 -33q-43 0 -89 8.5t-85 28.5v322zM111 1423q0 41 15 77t43 63.5t63.5 43t76.5 15.5t77 -15.5t63.5 -43t43 -63.5t15.5 -77t-15.5 -76.5 t-43 -63.5t-63.5 -43t-77 -15t-76.5 15t-63.5 43t-43 63.5t-15 76.5z" />
<glyph unicode="k" horiz-adv-x="1265" d="M123 0v1700h373v-1028l331 379h443l-471 -486l485 -565h-455l-331 428h-2v-428h-373z" />
<glyph unicode="l" horiz-adv-x="618" d="M123 0v1700h373v-1700h-373z" />
<glyph unicode="m" horiz-adv-x="2025" d="M123 0v1051h373v-131h4q66 88 147.5 126.5t183.5 38.5q115 0 202 -48t145 -152q53 98 150 149t206 51q100 0 171 -30.5t115 -86t64.5 -132t20.5 -166.5v-670h-373v541q0 123 -27.5 185t-126.5 62q-109 0 -143.5 -62t-34.5 -185v-541h-373v541q0 63 -6 111t-23.5 80 t-50 48.5t-85.5 16.5t-86 -16.5t-50.5 -48.5t-23.5 -80t-6 -111v-541h-373z" />
<glyph unicode="n" horiz-adv-x="1308" d="M102 0v1051h373v-136h4q55 86 149.5 128t209.5 42q188 0 280 -115.5t92 -320.5v-649h-372v512v84q0 49 -14.5 92t-49.5 71.5t-104 28.5q-57 0 -94 -19t-59.5 -53t-32 -78t-9.5 -93v-545h-373z" />
<glyph unicode="o" horiz-adv-x="1284" d="M45 524q0 127 42 230.5t120 177.5t188.5 113.5t247.5 39.5q141 0 252 -43t187.5 -118.5t116.5 -178t40 -221.5t-42 -220t-120 -177t-188.5 -119t-249.5 -43t-248.5 43t-186.5 119t-118 177.5t-41 219.5zM395 524q0 -104 63.5 -176t180.5 -72q119 0 184.5 72t65.5 176 q0 106 -65.5 178t-180.5 72t-181.5 -71.5t-66.5 -178.5z" />
<glyph unicode="p" horiz-adv-x="1355" d="M102 -524v1575h373v-95h4q53 61 140.5 95t191.5 34q106 0 197.5 -42t159 -114.5t105.5 -170.5t38 -211q0 -131 -43 -238.5t-114 -184.5t-161 -118t-186 -41q-117 0 -199 38t-129 103h-4v-630h-373zM463 524q0 -49 17.5 -94t49 -79t76.5 -54.5t103 -20.5q57 0 103 20.5 t79 54.5t51.5 79t18.5 94t-18.5 94.5t-51.5 80t-79 55t-103 20.5t-102.5 -20.5t-77 -55t-49 -80t-17.5 -94.5z" />
<glyph unicode="q" horiz-adv-x="1396" d="M61 510q0 113 39 217t107.5 184t166 127t214.5 47q92 0 177 -33.5t144 -103.5h4v103h373v-1575h-373v657h-4q-49 -78 -136 -123t-191 -45t-198.5 39t-166.5 109.5t-114 172t-42 224.5zM446 524q0 -100 60.5 -167.5t175.5 -67.5t177.5 67.5t62.5 167.5q0 43 -18.5 85 t-50.5 76t-76 55.5t-95 21.5q-57 0 -101 -19.5t-74 -51.5t-45.5 -75t-15.5 -92z" />
<glyph unicode="r" horiz-adv-x="927" d="M102 0v1051h373v-172h8q49 92 136.5 141t203.5 49q16 0 33.5 -1t34.5 -3v-363q-41 16 -82 25.5t-90 9.5q-72 0 -119 -21.5t-74.5 -61.5t-39 -98t-11.5 -132v-424h-373z" />
<glyph unicode="s" horiz-adv-x="976" d="M8 86l135 256q29 -20 68 -37.5t81 -31t84 -20.5t77 -7q116 0 116 70q0 36 -35.5 54.5t-89 35t-116 36t-115.5 54t-89 91t-36 146.5q0 80 34 144.5t92 110.5t140 71.5t176 25.5q113 0 195 -19t164 -56l-123 -250q-47 25 -100.5 41t-100.5 16q-57 0 -90 -21.5t-33 -56.5 q0 -29 36 -46t90.5 -32.5t117 -34t116.5 -52t90 -88t36 -140.5q0 -90 -37 -160.5t-99.5 -120t-145.5 -75t-177 -25.5q-129 0 -247 31t-214 90z" />
<glyph unicode="t" horiz-adv-x="757" d="M37 743v308h121v315h372v-315h211v-308h-211v-743h-372v743h-121z" />
<glyph unicode="u" horiz-adv-x="1327" d="M104 475v576h373v-527q0 -57 7.5 -104t27.5 -81t57 -52.5t95 -18.5q57 0 94 18.5t57.5 52.5t27.5 81t7 104v527h373v-576q0 -129 -41 -225t-116 -159.5t-177.5 -94.5t-224.5 -31q-125 0 -227.5 31t-176.5 94.5t-115 159.5t-41 225z" />
<glyph unicode="v" horiz-adv-x="1193" d="M-35 1051h414l229 -564h4l226 564h391l-512 -1051h-238z" />
<glyph unicode="w" horiz-adv-x="1726" d="M-35 1051h397l175 -570h2l204 570h242l203 -570h2l178 570h393l-401 -1051h-287l-209 567l-200 -567h-297z" />
<glyph unicode="x" horiz-adv-x="1234" d="M-6 0l416 524l-416 527h438l195 -283h4l196 283h414l-416 -525l416 -526h-440l-193 283h-4l-196 -283h-414z" />
<glyph unicode="y" horiz-adv-x="1290" d="M-35 1051h434l260 -547h3l251 547h408l-807 -1575h-387l330 663z" />
<glyph unicode="z" horiz-adv-x="1144" d="M16 0l502 743h-436v308h1048l-499 -744h450v-307h-1065z" />
<glyph unicode="{" horiz-adv-x="720" d="M45 416v295q63 0 103 46t40 136v348q0 178 121 277.5t334 99.5v-301q-59 0 -87 -40t-28 -144v-351q0 -186 -196 -217v-4q197 -31 196 -217v-350q0 -104 28 -144t87 -43v-301q-213 0 -334 99.5t-121 279.5v348q0 90 -39.5 136.5t-103.5 46.5z" />
<glyph unicode="|" horiz-adv-x="653" d="M174 -541v2085h307v-2085h-307z" />
<glyph unicode="}" horiz-adv-x="720" d="M74 -193q59 2 86.5 42t27.5 145v350q0 186 197 217v4q-197 31 -197 217v351q0 104 -27.5 144t-86.5 40v301q213 0 333.5 -99.5t120.5 -277.5v-348q0 -90 40 -136t104 -46v-295q-63 0 -103.5 -46t-40.5 -137v-348q0 -180 -120.5 -279.5t-333.5 -99.5v301z" />
<glyph unicode="~" horiz-adv-x="1124" d="M133 610q0 174 76 251t207 77q39 0 79 -12.5t77.5 -27.5t73.5 -27.5t67 -12.5q39 0 56 21.5t17 58.5h211q0 -176 -75.5 -253t-206.5 -77q-39 0 -79 12.5t-78 28t-72.5 27.5t-65.5 12q-39 0 -56.5 -21.5t-17.5 -56.5h-213z" />
<glyph unicode="&#xa1;" horiz-adv-x="778" d="M158 860q0 47 17.5 88t48 72t72.5 49t89 18t89 -18t73 -49t48 -72t17 -88t-17 -89t-48 -72.5t-73 -48t-89 -17.5t-89 17.5t-72.5 48t-48 72.5t-17.5 89zM211 -498v1000h360v-1000h-360z" />
<glyph unicode="&#xa2;" horiz-adv-x="1056" d="M92 782q0 104 31 194.5t88 161t138 120t179 69.5v195h232v-183q53 -8 100 -22t86 -35v-340q-43 35 -107.5 62.5t-129.5 27.5q-119 0 -193 -61.5t-74 -177.5q0 -57 20.5 -103.5t57.5 -78t87 -49t108 -17.5q70 0 131 22.5t100 55.5v-340q-47 -23 -93 -37.5t-101 -18.5v-207 h-232v220q-94 23 -172 69.5t-135 116.5t-89 160t-32 196z" />
<glyph unicode="&#xa3;" horiz-adv-x="1320" d="M33 283q80 43 137 81.5t93 76.5t53.5 79t19.5 90h-283v193h238q-10 23 -25.5 52.5t-34.5 64.5q-29 55 -45 102t-16 115q0 88 42 168.5t114.5 143t170 99.5t208.5 37q133 0 230 -32.5t163.5 -94t102.5 -146.5t42 -190v-28h-364v28q0 61 -42 102.5t-126 41.5 q-80 0 -129.5 -44t-49.5 -108q0 -31 3.5 -53.5t10.5 -44t19.5 -45t30.5 -53.5q25 -37 42 -65t30 -50h309v-193h-272q-4 -45 -17.5 -79.5t-36 -65.5t-56.5 -60.5t-81 -62.5q88 0 139.5 -9t90 -20.5t75.5 -20.5t94 -9q156 0 289 110l121 -297q-82 -74 -171 -105.5t-189 -31.5 q-90 0 -148.5 11.5t-114 25.5t-121 25.5t-169.5 11.5q-45 0 -111 -15.5t-137 -46.5z" />
<glyph unicode="&#xa4;" horiz-adv-x="1163" d="M74 1112l55 109q41 -29 65.5 -39.5t49.5 -10.5q53 0 53 37q0 23 -55 43l-31 13q-59 23 -84 55.5t-25 77.5q0 66 46.5 112.5t121.5 46.5q92 0 156 -45l-51 -110q-61 35 -96 35q-41 0 -41 -29q0 -14 12 -21.5t47 -19.5l35 -14q104 -39 104 -131q0 -78 -49 -123t-139 -45 q-45 0 -87 12t-87 47zM477 1065l84 479h129l88 -225l94 225h134l73 -479h-139l-29 244h-6l-88 -244h-80l-82 244h-6l-33 -244h-139z" />
<glyph unicode="&#xa5;" horiz-adv-x="1527" d="M4 1544h475l295 -551h2l291 551h473l-444 -733h288v-233h-409v-132h409v-233h-409v-213h-402v213h-409v233h409v132h-409v233h289z" />
<glyph unicode="&#xa7;" horiz-adv-x="1167" d="M31 -326l149 289q88 -59 175 -90t165 -31q84 0 123 30t39 83q0 43 -44 72.5t-109.5 57.5t-141.5 59.5t-141.5 78.5t-109.5 117t-44 172q0 117 56.5 203t166.5 139q-84 45 -142 115.5t-58 187.5q0 92 35.5 170t100 135.5t155 90t196.5 32.5q131 0 233.5 -27.5t186.5 -76.5 l-137 -287q-139 82 -250 82q-68 0 -105.5 -27.5t-37.5 -72.5q0 -41 44 -70t110.5 -55.5t144 -58t144 -79t111 -117t44.5 -171.5q0 -127 -56.5 -213t-148.5 -146q84 -41 129 -118.5t45 -204.5q0 -80 -38 -155t-106.5 -132t-165 -92t-212.5 -35q-135 0 -263.5 37t-242.5 108z M438 561q0 -66 41 -109.5t113 -43.5q74 0 117 43.5t43 109.5t-42 110t-114 44t-115 -44t-43 -110z" />
<glyph unicode="&#xa8;" horiz-adv-x="1114" d="M100 1423q0 41 15.5 77t43 63.5t63.5 43t77 15.5t77 -15.5t63.5 -43t43 -63.5t15.5 -77t-15.5 -76.5t-43 -63.5t-63.5 -43t-77 -15t-77 15t-63.5 43t-43 63.5t-15.5 76.5zM616 1423q0 41 15.5 77t43 63.5t63.5 43t77 15.5t77 -15.5t63.5 -43t43 -63.5t15.5 -77 t-15.5 -76.5t-43 -63.5t-63.5 -43t-77 -15t-77 15t-63.5 43t-43 63.5t-15.5 76.5z" />
<glyph unicode="&#xa9;" d="M57 774q0 170 59.5 318.5t168 258t261 172t337.5 62.5q186 0 339.5 -63.5t264 -173t171 -258t60.5 -318.5t-59.5 -318.5t-168 -258t-261 -173t-336.5 -63.5q-186 0 -340 63.5t-264.5 174t-171 259t-60.5 318.5zM170 774q0 -147 52 -275t147.5 -223.5t228.5 -150.5 t293 -55t291 54t225 149.5t145.5 223.5t51.5 275t-52.5 275.5t-147.5 223.5t-228.5 149.5t-292.5 54.5q-160 0 -291 -54.5t-225.5 -149.5t-145.5 -222t-51 -275zM487 784q0 94 31 175t89.5 141.5t142.5 95.5t192 35q49 0 97 -11.5t96 -29.5v-244l-2 -2q-35 41 -85.5 61.5 t-105.5 20.5q-104 0 -165.5 -65.5t-61.5 -176.5t63.5 -177t169.5 -66q49 0 100.5 21.5t84.5 55.5l2 -2v-239q-102 -39 -187 -39q-113 0 -198.5 35t-144 95t-88.5 141t-30 175z" />
<glyph unicode="&#xaa;" horiz-adv-x="1120" d="M51 1133q0 90 34 171.5t91 144t135 99.5t164 37q166 0 252 -104h2v78h301v-852h-301v86h-2q-35 -47 -103.5 -81t-162.5 -34q-76 0 -148.5 30.5t-131 89t-94.5 143.5t-36 192zM350 1128q0 -76 52.5 -131t138.5 -55t137 55t51 131q0 37 -13.5 72t-38 61.5t-59 43 t-77.5 16.5t-78 -16.5t-60.5 -43t-39 -61.5t-13.5 -72z" />
<glyph unicode="&#xab;" horiz-adv-x="1214" d="M53 532l353 504l204 -141l-258 -363l264 -356l-210 -147zM563 532l352 504l205 -141l-258 -363l264 -356l-211 -147z" />
<glyph unicode="&#xac;" horiz-adv-x="720" d="M74 10q59 2 86.5 42t27.5 145v350q0 186 197 217v4q-197 31 -197 217v350q0 104 -27.5 144.5t-86.5 40.5v301q213 0 333.5 -99.5t120.5 -277.5v-348q0 -90 40 -136.5t104 -46.5v-295q-63 0 -103.5 -46t-40.5 -136v-348q0 -180 -120.5 -279.5t-333.5 -99.5v301z" />
<glyph unicode="&#xad;" horiz-adv-x="1404" d="M178 621v307h1049v-307h-1049z" />
<glyph unicode="&#xae;" d="M57 774q0 170 59.5 318.5t168 258t261 172t337.5 62.5q186 0 339.5 -63.5t264 -173t171 -258t60.5 -318.5t-59.5 -318.5t-168 -258t-261 -173t-336.5 -63.5q-186 0 -340 63.5t-264.5 174t-171 259t-60.5 318.5zM170 774q0 -147 52 -275t147.5 -223.5t228.5 -150.5 t293 -55t291 54t225 149.5t145.5 223.5t51.5 275t-52.5 275.5t-147.5 223.5t-228.5 149.5t-292.5 54.5q-160 0 -291 -54.5t-225.5 -149.5t-145.5 -222t-51 -275zM594 358v850h317q147 0 227.5 -70.5t80.5 -191.5q0 -76 -48.5 -145.5t-132.5 -93.5l260 -349h-258l-223 326h-4 v-326h-219zM813 827h33q143 1 143 105q0 106 -139 106h-37v-211z" />
<glyph unicode="&#xaf;" horiz-adv-x="1234" d="M154 1294v248h925v-248h-925z" />
<glyph unicode="&#xb0;" horiz-adv-x="819" d="M102 1276q-2 63 21.5 119.5t65.5 98.5t98.5 66.5t120.5 24.5q63 0 119.5 -24.5t98.5 -66.5t66.5 -98.5t24.5 -119.5t-24.5 -118.5t-66.5 -96.5t-98.5 -65.5t-119.5 -24.5t-120 24.5t-97.5 65.5t-64.5 96t-24 119zM287 1278q0 -51 35.5 -87t87.5 -36q51 0 86.5 36t35.5 87 q0 49 -35.5 86t-88.5 37q-49 0 -86 -37t-35 -86z" />
<glyph unicode="&#xb1;" horiz-adv-x="1024" d="M102 618v308h820v-308h-820z" />
<glyph unicode="&#xb4;" horiz-adv-x="700" d="M74 1237l192 367h418l-330 -367h-280z" />
<glyph unicode="&#xb5;" horiz-adv-x="1507" d="M29 743v308h131v168q0 115 36.5 207t108.5 157.5t177.5 101t240.5 35.5t239.5 -35.5t175 -101t106.5 -160t36 -209.5v-163h211v-308h-211v-743h-373v743h-375v-743h-372v743h-131zM532 1051h375v163q0 86 -48 137.5t-138 51.5t-139.5 -52.5t-49.5 -142.5v-157z" />
<glyph unicode="&#xb6;" horiz-adv-x="1415" d="M125 1028q0 119 38 214t108.5 163t172 103.5t228.5 35.5h602v-1544h-211v1333h-182v-1333h-209v512q-127 0 -228.5 36t-172 103.5t-108.5 162.5t-38 214z" />
<glyph unicode="&#xb7;" horiz-adv-x="655" d="M113 772q0 45 17 84t46 68.5t68 46t84 16.5t84 -16.5t68.5 -46t46 -68.5t16.5 -84t-16.5 -84t-46 -67.5t-68.5 -46t-84 -17.5t-84 17.5t-68 46t-46 67.5t-17 84z" />
<glyph unicode="&#xb8;" horiz-adv-x="516" d="M-37 -401l266 323l230 -145l-309 -293z" />
<glyph unicode="&#xba;" horiz-adv-x="1071" d="M51 1133q0 104 35 188t98.5 142.5t153.5 90t201 31.5q115 0 203.5 -33.5t150 -93t94.5 -143.5t33 -182t-34 -182.5t-97.5 -145t-153.5 -94t-203 -33.5q-111 0 -199.5 33.5t-151 94t-96.5 144.5t-34 183zM348 1133q0 -82 49 -136.5t135 -54.5q92 0 142.5 54.5t50.5 136.5 q0 80 -50 134t-136 54q-88 0 -139.5 -54.5t-51.5 -133.5z" />
<glyph unicode="&#xbb;" horiz-adv-x="1214" d="M88 176l264 356l-258 363l205 141l352 -504l-352 -503zM598 176l264 356l-258 363l205 141l352 -504l-352 -503z" />
<glyph unicode="&#xbf;" horiz-adv-x="993" d="M23 -61q0 86 27.5 158.5t76.5 130t115.5 96t146.5 59.5v135h367v-377h-49q-61 0 -116.5 -12t-97.5 -37.5t-67 -63.5t-25 -89q0 -63 41 -108.5t107 -45.5q76 0 113.5 43t37.5 113h392q0 -115 -38 -205t-105.5 -151.5t-163 -93.5t-210.5 -32q-117 0 -217 37t-174.5 101.5 t-117.5 151.5t-43 190zM338 858q0 47 17.5 88t48 72t72.5 49t89 18t89 -18t73 -49t48.5 -72t17.5 -88t-17.5 -89t-48.5 -72.5t-73 -48t-89 -17.5t-89 17.5t-72.5 48t-48 72.5t-17.5 89z" />
<glyph unicode="&#xc0;" horiz-adv-x="1599" d="M-8 0l635 1544h356l623 -1544h-432l-99 268h-561l-100 -268h-422zM373 2060h418l192 -366h-281zM631 575h332l-162 443h-4z" />
<glyph unicode="&#xc1;" horiz-adv-x="1599" d="M-8 0l635 1544h356l623 -1544h-432l-99 268h-561l-100 -268h-422zM631 575h332l-162 443h-4zM635 1694l192 366h418l-330 -366h-280z" />
<glyph unicode="&#xc2;" horiz-adv-x="1599" d="M-8 0l635 1544h356l623 -1544h-432l-99 268h-561l-100 -268h-422zM317 1694l322 385h324l321 -385h-342l-145 178l-148 -178h-332zM631 575h332l-162 443h-4z" />
<glyph unicode="&#xc3;" horiz-adv-x="1599" d="M-8 0l635 1544h356l623 -1544h-432l-99 268h-561l-100 -268h-422zM326 1710q0 190 84 275.5t227 85.5q43 0 87 -13.5t85 -31t81 -31t73 -13.5q43 0 62 24t19 65h232q0 -193 -83 -278t-228 -85q-43 0 -86 13.5t-85 30.5t-80 30.5t-73 13.5q-43 0 -62.5 -23.5t-19.5 -62.5 h-233zM631 575h332l-162 443h-4z" />
<glyph unicode="&#xc4;" horiz-adv-x="1599" d="M-8 0l635 1544h356l623 -1544h-432l-99 268h-561l-100 -268h-422zM342 1880q0 41 15.5 77t43 63.5t63.5 43t77 15.5t76.5 -15.5t63.5 -43t43 -63.5t15 -77t-15 -77t-43 -63.5t-63.5 -43t-76.5 -15.5t-77 15.5t-63.5 43t-43 63.5t-15.5 77zM631 575h332l-162 443h-4z M858 1880q0 41 15.5 77t43 63.5t63.5 43t77 15.5t76.5 -15.5t63.5 -43t43 -63.5t15 -77t-15 -77t-43 -63.5t-63.5 -43t-76.5 -15.5t-77 15.5t-63.5 43t-43 63.5t-15.5 77z" />
<glyph unicode="&#xc5;" horiz-adv-x="1599" d="M-8 0l633 1540q-88 70 -88 197q0 117 72.5 184.5t195.5 67.5q129 0 197.5 -71t68.5 -181q0 -125 -88 -195l623 -1542h-432l-99 268h-561l-100 -268h-422zM631 575h332l-162 443h-4zM698 1737q0 -45 28 -75t77 -30t77.5 30t28.5 75t-28.5 75.5t-75.5 30.5t-77 -30.5 t-30 -75.5z" />
<glyph unicode="&#xc6;" horiz-adv-x="2097" d="M-113 0l1174 1544h926v-340h-478v-258h453v-319h-453v-287h478v-340h-879v268h-543l-209 -268h-469zM807 575h301v443h-4z" />
<glyph unicode="&#xc7;" horiz-adv-x="1310" d="M68 774q0 170 55 318.5t160.5 258t259 172t350.5 62.5q92 0 179 -19.5t173 -52.5v-444l-4 -4q-66 76 -157 112.5t-191 36.5q-94 0 -171 -30.5t-130 -88t-83 -139.5t-30 -182q0 -98 31 -180t86 -140.5t134 -91t173 -32.5q45 0 92 10t92.5 28.5t84 45t69.5 59.5l4 -4v-436 q-96 -35 -179 -53.5t-163 -18.5q-203 0 -358.5 63.5t-262 173t-160.5 258t-54 318.5zM492 -432l266 323l229 -145l-309 -293z" />
<glyph unicode="&#xc8;" horiz-adv-x="1120" d="M131 0v1544h879v-340h-478v-258h453v-319h-453v-287h478v-340h-879zM180 2030h418l193 -367h-281z" />
<glyph unicode="&#xc9;" horiz-adv-x="1120" d="M131 0v1544h879v-340h-478v-258h453v-319h-453v-287h478v-340h-879zM373 1663l192 367h418l-330 -367h-280z" />
<glyph unicode="&#xca;" horiz-adv-x="1120" d="M86 1663l322 385h323l322 -385h-342l-146 178l-147 -178h-332zM131 0v1544h879v-340h-478v-258h453v-319h-453v-287h478v-340h-879z" />
<glyph unicode="&#xcb;" horiz-adv-x="1120" d="M100 1849q0 41 15.5 77t43 63.5t63.5 43t77 15.5t77 -15.5t63.5 -43t43 -63.5t15.5 -77t-15.5 -76.5t-43 -63.5t-63.5 -43t-77 -15t-77 15t-63.5 43t-43 63.5t-15.5 76.5zM131 0v1544h879v-340h-478v-258h453v-319h-453v-287h478v-340h-879zM616 1849q0 41 15.5 77 t43 63.5t63.5 43t77 15.5t77 -15.5t63.5 -43t43 -63.5t15.5 -77t-15.5 -76.5t-43 -63.5t-63.5 -43t-77 -15t-77 15t-63.5 43t-43 63.5t-15.5 76.5z" />
<glyph unicode="&#xcc;" horiz-adv-x="651" d="M-113 2030h418l193 -367h-281zM131 0v1544h401v-1544h-401z" />
<glyph unicode="&#xcd;" horiz-adv-x="651" d="M131 0v1544h401v-1544h-401zM172 1663l193 367h417l-329 -367h-281z" />
<glyph unicode="&#xce;" horiz-adv-x="651" d="M-152 1663l322 385h324l321 -385h-342l-145 178l-148 -178h-332zM131 0v1544h401v-1544h-401z" />
<glyph unicode="&#xcf;" horiz-adv-x="651" d="M-133 1849q0 41 15.5 77t43 63.5t63.5 43t77 15.5t76.5 -15.5t63 -43t43 -63.5t15.5 -77t-15.5 -76.5t-43 -63.5t-63.5 -43t-76 -15q-41 0 -77 15t-63.5 43t-43 63.5t-15.5 76.5zM131 0v1544h401v-1544h-401zM383 1849q0 41 15.5 77t43 63.5t63.5 43t77 15.5t76.5 -15.5 t63.5 -43t43 -63.5t15 -77t-15 -76.5t-43 -63.5t-63.5 -43t-76.5 -15t-77 15t-63.5 43t-43 63.5t-15.5 76.5z" />
<glyph unicode="&#xd0;" horiz-adv-x="1542" d="M-41 616v316h172v612h555q168 0 313.5 -61.5t253 -168t170 -245.5t62.5 -297t-62.5 -298t-171 -245.5t-254 -167t-311.5 -61.5h-555v616h-172zM532 340h101q102 0 182 30.5t136.5 87t86 136.5t29.5 178q0 197 -112.5 314.5t-321.5 117.5h-101v-272h226v-316h-226v-276z " />
<glyph unicode="&#xd1;" horiz-adv-x="1771" d="M131 0v1544h375l735 -919h4v919h395v-1544h-374l-736 926h-4v-926h-395zM412 1679q0 190 84 275.5t227 85.5q43 0 87 -13.5t85 -31t81 -30.5t73 -13q43 0 62 23.5t19 64.5h232q0 -193 -83 -278t-228 -85q-43 0 -86 13.5t-85 31t-80 30.5t-73 13q-43 0 -62.5 -23.5 t-19.5 -62.5h-233z" />
<glyph unicode="&#xd2;" d="M57 774q0 170 59.5 318.5t168 258t261 172t337.5 62.5q186 0 339.5 -63.5t264 -173t171 -258t60.5 -318.5t-59.5 -318.5t-168 -258t-261 -173t-336.5 -63.5q-186 0 -340 63.5t-264.5 174t-171 259t-60.5 318.5zM395 2060h418l193 -366h-281zM469 774q0 -98 30.5 -183 t86 -147.5t134.5 -98.5t173 -36t171 35t130 96.5t83 146.5t30 185q0 98 -31 183t-86 146.5t-133 97.5t-174 36q-94 0 -171 -34t-130.5 -95.5t-83 -146.5t-29.5 -185z" />
<glyph unicode="&#xd3;" d="M57 774q0 170 59.5 318.5t168 258t261 172t337.5 62.5q186 0 339.5 -63.5t264 -173t171 -258t60.5 -318.5t-59.5 -318.5t-168 -258t-261 -173t-336.5 -63.5q-186 0 -340 63.5t-264.5 174t-171 259t-60.5 318.5zM469 774q0 -98 30.5 -183t86 -147.5t134.5 -98.5t173 -36 t171 35t130 96.5t83 146.5t30 185q0 98 -31 183t-86 146.5t-133 97.5t-174 36q-94 0 -171 -34t-130.5 -95.5t-83 -146.5t-29.5 -185zM731 1694l193 366h417l-329 -366h-281z" />
<glyph unicode="&#xd4;" d="M61 774q0 170 59.5 318.5t168 258t261 172t337.5 62.5q186 0 339.5 -63.5t264.5 -173t171 -258t60 -318.5t-59 -318.5t-168 -258t-261.5 -173t-336.5 -63.5q-186 0 -340 63.5t-264.5 174t-171 259t-60.5 318.5zM401 1694l322 385h324l321 -385h-342l-145 178l-148 -178 h-332zM473 774q0 -98 31 -183t86 -147.5t134 -98.5t173 -36t171 35t130 96.5t83 146.5t30 185q0 98 -31 183t-86 146.5t-133 97.5t-174 36q-94 0 -171 -34t-130.5 -95.5t-83 -146.5t-29.5 -185z" />
<glyph unicode="&#xd5;" d="M57 774q0 170 59.5 318.5t168 258t261 172t337.5 62.5q186 0 339.5 -63.5t264 -173t171 -258t60.5 -318.5t-59.5 -318.5t-168 -258t-261 -173t-336.5 -63.5q-186 0 -340 63.5t-264.5 174t-171 259t-60.5 318.5zM412 1710q0 190 84 275.5t227 85.5q43 0 87 -13.5t85 -31 t81 -31t73 -13.5q43 0 62 24t19 65h232q0 -193 -83 -278t-228 -85q-43 0 -86 13.5t-85 30.5t-80 30.5t-73 13.5q-43 0 -62.5 -23.5t-19.5 -62.5h-233zM469 774q0 -98 30.5 -183t86 -147.5t134.5 -98.5t173 -36t171 35t130 96.5t83 146.5t30 185q0 98 -31 183t-86 146.5 t-133 97.5t-174 36q-94 0 -171 -34t-130.5 -95.5t-83 -146.5t-29.5 -185z" />
<glyph unicode="&#xd6;" d="M57 774q0 170 59.5 318.5t168 258t261 172t337.5 62.5q186 0 339.5 -63.5t264 -173t171 -258t60.5 -318.5t-59.5 -318.5t-168 -258t-261 -173t-336.5 -63.5q-186 0 -340 63.5t-264.5 174t-171 259t-60.5 318.5zM428 1880q0 41 15.5 77t43 63.5t63.5 43t77 15.5 t76.5 -15.5t63.5 -43t43 -63.5t15 -77t-15 -77t-43 -63.5t-63.5 -43t-76.5 -15.5t-77 15.5t-63.5 43t-43 63.5t-15.5 77zM469 774q0 -98 30.5 -183t86 -147.5t134.5 -98.5t173 -36t171 35t130 96.5t83 146.5t30 185q0 98 -31 183t-86 146.5t-133 97.5t-174 36 q-94 0 -171 -34t-130.5 -95.5t-83 -146.5t-29.5 -185zM944 1880q0 41 15.5 77t43 63.5t63.5 43t77 15.5t76.5 -15.5t63.5 -43t43 -63.5t15 -77t-15 -77t-43 -63.5t-63.5 -43t-76.5 -15.5t-77 15.5t-63.5 43t-43 63.5t-15.5 77z" />
<glyph unicode="&#xd7;" horiz-adv-x="1404" d="M221 512l262 262l-262 262l217 217l262 -262l263 262l217 -217l-262 -262l264 -264l-217 -217l-265 264l-262 -262z" />
<glyph unicode="&#xd8;" d="M57 774q0 170 59.5 318.5t168 258t261 172t337.5 62.5q135 0 252.5 -33.5t216.5 -95.5l178 201l172 -154l-174 -196q92 -106 141 -242.5t49 -292.5q0 -170 -59.5 -318.5t-168 -258t-261 -173t-336.5 -63.5q-131 0 -244.5 32t-212.5 89q-35 -41 -68.5 -78t-60.5 -65 q-31 -35 -55 -64l-172 154l178 200q-96 111 -148.5 249t-52.5 298zM469 774q0 -135 57 -246l576 648q-47 29 -101.5 44t-117.5 15q-94 0 -171 -34t-130.5 -95.5t-83 -146.5t-29.5 -185zM686 360q92 -51 207 -51q94 0 171 35t130 96.5t83 146.5t30 185q0 123 -52 229 q-158 -178 -284 -319q-53 -59 -104.5 -116.5t-91.5 -102.5t-65 -74z" />
<glyph unicode="&#xd9;" horiz-adv-x="1583" d="M123 616v928h401v-854q0 -113 15.5 -187.5t49.5 -119.5t88 -64.5t130 -19.5q74 0 124 19.5t80.5 64.5t44 120t13.5 187v854h401v-928q0 -150 -40.5 -272.5t-124.5 -210.5t-210 -136t-298 -48t-299 48t-210 135t-124 211t-41 273zM397 2030h418l193 -367h-281z" />
<glyph unicode="&#xda;" horiz-adv-x="1583" d="M123 616v928h401v-854q0 -113 15.5 -187.5t49.5 -119.5t88 -64.5t130 -19.5q74 0 124 19.5t80.5 64.5t44 120t13.5 187v854h401v-928q0 -150 -40.5 -272.5t-124.5 -210.5t-210 -136t-298 -48t-299 48t-210 135t-124 211t-41 273zM580 1663l192 367h418l-330 -367h-280z " />
<glyph unicode="&#xdb;" horiz-adv-x="1583" d="M123 616v928h401v-854q0 -113 15.5 -187.5t49.5 -119.5t88 -64.5t130 -19.5q74 0 124 19.5t80.5 64.5t44 120t13.5 187v854h401v-928q0 -150 -40.5 -272.5t-124.5 -210.5t-210 -136t-298 -48t-299 48t-210 135t-124 211t-41 273zM315 1663l322 385h324l321 -385h-342 l-145 178l-148 -178h-332z" />
<glyph unicode="&#xdc;" horiz-adv-x="1583" d="M123 616v928h401v-854q0 -113 15.5 -187.5t49.5 -119.5t88 -64.5t130 -19.5q74 0 124 19.5t80.5 64.5t44 120t13.5 187v854h401v-928q0 -150 -40.5 -272.5t-124.5 -210.5t-210 -136t-298 -48t-299 48t-210 135t-124 211t-41 273zM338 1849q0 41 15.5 77t43 63.5t63.5 43 t77 15.5t76.5 -15.5t63.5 -43t43 -63.5t15 -77t-15 -76.5t-43 -63.5t-63.5 -43t-76.5 -15t-77 15t-63.5 43t-43 63.5t-15.5 76.5zM854 1849q0 41 15.5 77t43 63.5t63.5 43t77 15.5t76.5 -15.5t63.5 -43t43 -63.5t15 -77t-15 -76.5t-43 -63.5t-63.5 -43t-76.5 -15t-77 15 t-63.5 43t-43 63.5t-15.5 76.5z" />
<glyph unicode="&#xdd;" horiz-adv-x="1466" d="M-35 1544h475l295 -551h2l291 551h473l-565 -932v-612h-401v612zM553 1663l192 367h418l-329 -367h-281z" />
<glyph unicode="&#xde;" horiz-adv-x="1353" d="M131 0v1544h401v-256h201q127 0 228.5 -35.5t172 -103.5t108.5 -163t38 -214t-38 -214t-108.5 -162.5t-172 -103.5t-228.5 -36h-201v-256h-401zM532 580h78q147 0 209 48t62 144t-61.5 144.5t-209.5 48.5h-78v-385z" />
<glyph unicode="&#xdf;" horiz-adv-x="1351" d="M123 0v1206q0 252 136 383t413 131q117 0 213 -32.5t165.5 -92t108.5 -142.5t39 -185q0 -53 -7 -95.5t-22.5 -79t-41 -68.5t-64.5 -67q-37 -33 -58.5 -54t-34 -38.5t-15.5 -33t-3 -35.5q0 -27 28 -47.5t69 -43t89 -51t89 -69.5t68.5 -99.5t27.5 -140.5q0 -86 -34 -156.5 t-94 -120t-144 -77t-187 -27.5q-63 0 -120.5 6t-116.5 23l69 278q80 -27 152 -26q117 0 117 71q0 33 -28 57.5t-69 48t-88 52.5t-88 70t-68.5 98t-27.5 141q0 72 24.5 127.5t88.5 114.5q43 43 69.5 71.5t39.5 52.5t17.5 45.5t4.5 47.5q0 72 -50.5 114t-121.5 42 q-55 0 -89 -20.5t-52.5 -55.5t-24.5 -80t-6 -94v-1149h-373z" />
<glyph unicode="&#xe0;" horiz-adv-x="1380" d="M61 526q0 113 41 214.5t112 178t166 121.5t202 45q211 0 311 -129h4v95h373v-1051h-373v106h-4q-41 -59 -126 -100t-202 -41q-92 0 -183 38t-161.5 110.5t-115 177t-44.5 235.5zM260 1604h418l192 -367h-280zM412 524q0 -49 18.5 -94t51 -79t78.5 -54.5t104 -20.5 q57 0 102 20.5t76.5 54.5t49 79t17.5 94t-17.5 94.5t-49 80t-76.5 55t-102 20.5t-103.5 -20.5t-79 -55t-51 -80t-18.5 -94.5z" />
<glyph unicode="&#xe1;" horiz-adv-x="1380" d="M61 526q0 113 41 214.5t112 178t166 121.5t202 45q211 0 311 -129h4v95h373v-1051h-373v106h-4q-41 -59 -126 -100t-202 -41q-92 0 -183 38t-161.5 110.5t-115 177t-44.5 235.5zM412 524q0 -49 18.5 -94t51 -79t78.5 -54.5t104 -20.5q57 0 102 20.5t76.5 54.5t49 79 t17.5 94t-17.5 94.5t-49 80t-76.5 55t-102 20.5t-103.5 -20.5t-79 -55t-51 -80t-18.5 -94.5zM457 1237l192 367h418l-330 -367h-280z" />
<glyph unicode="&#xe2;" horiz-adv-x="1380" d="M61 526q0 113 41 214.5t112 178t166 121.5t202 45q211 0 311 -129h4v95h373v-1051h-373v106h-4q-41 -59 -126 -100t-202 -41q-92 0 -183 38t-161.5 110.5t-115 177t-44.5 235.5zM227 1237l322 385h323l322 -385h-342l-145 178l-148 -178h-332zM412 524q0 -49 18.5 -94 t51 -79t78.5 -54.5t104 -20.5q57 0 102 20.5t76.5 54.5t49 79t17.5 94t-17.5 94.5t-49 80t-76.5 55t-102 20.5t-103.5 -20.5t-79 -55t-51 -80t-18.5 -94.5z" />
<glyph unicode="&#xe3;" horiz-adv-x="1380" d="M61 526q0 113 41 214.5t112 178t166 121.5t202 45q211 0 311 -129h4v95h373v-1051h-373v106h-4q-41 -59 -126 -100t-202 -41q-92 0 -183 38t-161.5 110.5t-115 177t-44.5 235.5zM225 1253q0 190 84 275.5t228 85.5q43 0 87 -13.5t85 -31t80.5 -30.5t72.5 -13 q43 0 62.5 23.5t19.5 64.5h232q0 -193 -83 -278t-229 -85q-43 0 -86 13.5t-85 31t-80 30.5t-72 13q-43 0 -62.5 -23.5t-19.5 -62.5h-234zM412 524q0 -49 18.5 -94t51 -79t78.5 -54.5t104 -20.5q57 0 102 20.5t76.5 54.5t49 79t17.5 94t-17.5 94.5t-49 80t-76.5 55t-102 20.5 t-103.5 -20.5t-79 -55t-51 -80t-18.5 -94.5z" />
<glyph unicode="&#xe4;" horiz-adv-x="1380" d="M61 526q0 113 41 214.5t112 178t166 121.5t202 45q211 0 311 -129h4v95h373v-1051h-373v106h-4q-41 -59 -126 -100t-202 -41q-92 0 -183 38t-161.5 110.5t-115 177t-44.5 235.5zM250 1419q0 41 15.5 77t43 63.5t63.5 43t77 15.5t76.5 -15.5t63 -43t43 -63.5t15.5 -77 t-15.5 -76.5t-43 -63.5t-63.5 -43t-76 -15q-41 0 -77 15t-63.5 43t-43 63.5t-15.5 76.5zM412 524q0 -49 18.5 -94t51 -79t78.5 -54.5t104 -20.5q57 0 102 20.5t76.5 54.5t49 79t17.5 94t-17.5 94.5t-49 80t-76.5 55t-102 20.5t-103.5 -20.5t-79 -55t-51 -80t-18.5 -94.5z M766 1419q0 41 15.5 77t43 63.5t63.5 43t77 15.5t76.5 -15.5t63.5 -43t43 -63.5t15 -77t-15 -76.5t-43 -63.5t-63.5 -43t-76.5 -15t-77 15t-63.5 43t-43 63.5t-15.5 76.5z" />
<glyph unicode="&#xe5;" horiz-adv-x="1380" d="M61 526q0 113 41 214.5t112 178t166 121.5t202 45q211 0 311 -129h4v95h373v-1051h-373v106h-4q-41 -59 -126 -100t-202 -41q-92 0 -183 38t-161.5 110.5t-115 177t-44.5 235.5zM412 524q0 -49 18.5 -94t51 -79t78.5 -54.5t104 -20.5q57 0 102 20.5t76.5 54.5t49 79 t17.5 94t-17.5 94.5t-49 80t-76.5 55t-102 20.5t-103.5 -20.5t-79 -55t-51 -80t-18.5 -94.5zM438 1432q0 117 73 184t196 67q129 0 197.5 -70t68.5 -181t-72 -181.5t-196 -70.5q-127 0 -197 70.5t-70 181.5zM600 1432q0 -45 27.5 -75t77.5 -30q49 0 77.5 30t28.5 75 t-28.5 75.5t-75.5 30.5t-77 -30.5t-30 -75.5z" />
<glyph unicode="&#xe6;" horiz-adv-x="1988" d="M41 303q0 90 31.5 155.5t88 108.5t134.5 64.5t170 21.5q78 0 141.5 -12t134.5 -41v18q0 82 -47 127q-57 61 -188 62q-188 0 -348 -59v288q78 23 173 36t218 13q135 0 235.5 -48t155.5 -132h6q70 88 176.5 134t247.5 46q137 0 245.5 -40.5t183.5 -121.5t114 -200t35 -274 h-795q10 -111 78.5 -157t159.5 -46q78 0 128 27.5t78 68.5h334q-23 -92 -75 -162.5t-124.5 -119t-158.5 -72t-176 -23.5q-160 0 -280 52.5t-191 154.5h-8q-154 -207 -445 -207q-76 0 -152.5 20.5t-139 61.5t-101.5 105.5t-39 150.5zM391 334q0 -51 43 -82t125 -31 q72 0 111 32t39 79q0 49 -40 81.5t-122 32.5q-72 0 -114 -29.5t-42 -82.5zM1157 651h434q-14 80 -72.5 126t-136.5 46q-92 0 -147 -45t-78 -127z" />
<glyph unicode="&#xe7;" horiz-adv-x="964" d="M45 524q0 125 43 228.5t121 177.5t186.5 114.5t239.5 40.5q80 0 145.5 -16t118.5 -45v-340q-43 35 -107.5 62.5t-129.5 27.5q-119 0 -193 -61.5t-74 -177.5q0 -57 20.5 -103.5t57.5 -78t87 -49t108 -17.5q70 0 131 22.5t100 55.5v-340q-61 -29 -123.5 -44.5t-146.5 -15.5 q-123 0 -230.5 40t-185.5 112.5t-123 176t-45 230.5zM283 -412l266 324l229 -145l-309 -293z" />
<glyph unicode="&#xe8;" horiz-adv-x="1245" d="M45 520q0 131 43 235.5t120 178.5t183.5 112.5t235.5 38.5q137 0 245.5 -40.5t183 -121.5t113.5 -200t35 -274h-794q10 -111 78.5 -157t158.5 -46q78 0 128 27.5t79 68.5h334q-23 -92 -75 -162.5t-125 -119t-159 -72t-176 -23.5q-131 0 -241.5 36t-192.5 105.5t-128 174 t-46 239.5zM154 1604h417l193 -367h-281zM414 651h434q-14 80 -72.5 126t-136.5 46q-92 0 -147.5 -45t-77.5 -127z" />
<glyph unicode="&#xe9;" horiz-adv-x="1245" d="M45 520q0 131 43 235.5t120 178.5t183.5 112.5t235.5 38.5q137 0 245.5 -40.5t183 -121.5t113.5 -200t35 -274h-794q10 -111 78.5 -157t158.5 -46q78 0 128 27.5t79 68.5h334q-23 -92 -75 -162.5t-125 -119t-159 -72t-176 -23.5q-131 0 -241.5 36t-192.5 105.5t-128 174 t-46 239.5zM414 651h434q-14 80 -72.5 126t-136.5 46q-92 0 -147.5 -45t-77.5 -127zM436 1237l193 367h418l-330 -367h-281z" />
<glyph unicode="&#xea;" horiz-adv-x="1245" d="M45 520q0 131 43 235.5t120 178.5t183.5 112.5t235.5 38.5q137 0 245.5 -40.5t183 -121.5t113.5 -200t35 -274h-794q10 -111 78.5 -157t158.5 -46q78 0 128 27.5t79 68.5h334q-23 -92 -75 -162.5t-125 -119t-159 -72t-176 -23.5q-131 0 -241.5 36t-192.5 105.5t-128 174 t-46 239.5zM143 1237l322 385h323l322 -385h-342l-145 178l-148 -178h-332zM414 651h434q-14 80 -72.5 126t-136.5 46q-92 0 -147.5 -45t-77.5 -127z" />
<glyph unicode="&#xeb;" horiz-adv-x="1245" d="M45 520q0 131 43 235.5t120 178.5t183.5 112.5t235.5 38.5q137 0 245.5 -40.5t183 -121.5t113.5 -200t35 -274h-794q10 -111 78.5 -157t158.5 -46q78 0 128 27.5t79 68.5h334q-23 -92 -75 -162.5t-125 -119t-159 -72t-176 -23.5q-131 0 -241.5 36t-192.5 105.5t-128 174 t-46 239.5zM172 1417q0 41 15.5 77t43 63.5t63.5 43t77 15.5t76.5 -15.5t63.5 -43t43 -63.5t15 -77t-15 -76.5t-43 -63.5t-63.5 -43t-76.5 -15t-77 15t-63.5 43t-43 63.5t-15.5 76.5zM414 651h434q-14 80 -72.5 126t-136.5 46q-92 0 -147.5 -45t-77.5 -127zM688 1417 q0 41 15.5 77t43 63.5t63.5 43t77 15.5t76.5 -15.5t63.5 -43t43 -63.5t15 -77t-15 -76.5t-43 -63.5t-63.5 -43t-76.5 -15t-77 15t-63.5 43t-43 63.5t-15.5 76.5z" />
<glyph unicode="&#xec;" horiz-adv-x="618" d="M-131 1604h418l192 -367h-280zM123 0v1051h373v-1051h-373z" />
<glyph unicode="&#xed;" horiz-adv-x="618" d="M123 0v1051h373v-1051h-373zM145 1237l193 367h418l-330 -367h-281z" />
<glyph unicode="&#xee;" horiz-adv-x="618" d="M-174 1237l321 385h324l322 -385h-342l-146 178l-147 -178h-332zM123 0v1051h373v-1051h-373z" />
<glyph unicode="&#xef;" horiz-adv-x="618" d="M-141 1423q0 41 15 77t43 63.5t63.5 43t76.5 15.5t77 -15.5t63.5 -43t43 -63.5t15.5 -77t-15.5 -76.5t-43 -63.5t-63.5 -43t-77 -15t-76.5 15t-63.5 43t-43 63.5t-15 76.5zM123 0v1051h373v-1051h-373zM375 1423q0 41 15.5 77t43 63.5t63 43t76.5 15.5t77 -15.5t63.5 -43 t43 -63.5t15.5 -77t-15.5 -76.5t-43 -63.5t-63.5 -43t-77 -15t-76.5 15t-63 43t-43 63.5t-15.5 76.5z" />
<glyph unicode="&#xf0;" horiz-adv-x="1284" d="M45 492q0 115 43 213t119 169.5t178 112.5t221 41q72 0 140.5 -24.5t103.5 -59.5l4 4q-88 168 -215 287l-227 -105l-64 140l152 69q-92 59 -211 103l135 258q227 -66 401 -209l213 98l64 -139q-43 -18 -78 -35q-29 -14 -53.5 -25.5t-26.5 -11.5q139 -152 217 -345.5 t78 -416.5q0 -141 -37 -259.5t-112.5 -206t-187 -136.5t-263.5 -49q-139 0 -248.5 40t-186.5 110.5t-118 167t-41 209.5zM395 496q0 -100 63.5 -168t180.5 -68q119 0 184.5 68t65.5 168q0 102 -65.5 169.5t-180.5 67.5t-181.5 -67.5t-66.5 -169.5z" />
<glyph unicode="&#xf1;" horiz-adv-x="1308" d="M102 0v1051h373v-136h4q55 86 149.5 128t209.5 42q188 0 280 -115.5t92 -320.5v-649h-372v512v84q0 49 -14.5 92t-49.5 71.5t-104 28.5q-57 0 -94 -19t-59.5 -53t-32 -78t-9.5 -93v-545h-373zM180 1253q0 190 84 275.5t228 85.5q43 0 87 -13.5t85 -31t80.5 -30.5 t72.5 -13q43 0 62.5 23.5t19.5 64.5h231q0 -193 -82.5 -278t-228.5 -85q-43 0 -86 13.5t-85 31t-80 30.5t-72 13q-43 0 -62.5 -23.5t-19.5 -62.5h-234z" />
<glyph unicode="&#xf2;" horiz-adv-x="1284" d="M45 524q0 127 42 230.5t120 177.5t188.5 113.5t247.5 39.5q141 0 252 -43t187.5 -118.5t116.5 -178t40 -221.5t-42 -220t-120 -177t-188.5 -119t-249.5 -43t-248.5 43t-186.5 119t-118 177.5t-41 219.5zM166 1604h418l192 -367h-280zM395 524q0 -104 63.5 -176t180.5 -72 q119 0 184.5 72t65.5 176q0 106 -65.5 178t-180.5 72t-181.5 -71.5t-66.5 -178.5z" />
<glyph unicode="&#xf3;" horiz-adv-x="1284" d="M45 524q0 127 42 230.5t120 177.5t188.5 113.5t247.5 39.5q141 0 252 -43t187.5 -118.5t116.5 -178t40 -221.5t-42 -220t-120 -177t-188.5 -119t-249.5 -43t-248.5 43t-186.5 119t-118 177.5t-41 219.5zM395 524q0 -104 63.5 -176t180.5 -72q119 0 184.5 72t65.5 176 q0 106 -65.5 178t-180.5 72t-181.5 -71.5t-66.5 -178.5zM461 1237l192 367h418l-330 -367h-280z" />
<glyph unicode="&#xf4;" horiz-adv-x="1284" d="M45 524q0 127 42 230.5t120 177.5t188.5 113.5t247.5 39.5q141 0 252 -43t187.5 -118.5t116.5 -178t40 -221.5t-42 -220t-120 -177t-188.5 -119t-249.5 -43t-248.5 43t-186.5 119t-118 177.5t-41 219.5zM160 1237l321 385h324l321 -385h-342l-145 178l-147 -178h-332z M395 524q0 -104 63.5 -176t180.5 -72q119 0 184.5 72t65.5 176q0 106 -65.5 178t-180.5 72t-181.5 -71.5t-66.5 -178.5z" />
<glyph unicode="&#xf5;" horiz-adv-x="1284" d="M45 524q0 127 42 230.5t120 177.5t188.5 113.5t247.5 39.5q141 0 252 -43t187.5 -118.5t116.5 -178t40 -221.5t-42 -220t-120 -177t-188.5 -119t-249.5 -43t-248.5 43t-186.5 119t-118 177.5t-41 219.5zM178 1253q0 190 84 275.5t227 85.5q43 0 87.5 -13.5t85 -31 t80.5 -30.5t73 -13q43 0 62.5 23.5t19.5 64.5h231q0 -193 -82.5 -278t-228.5 -85q-43 0 -86 13.5t-85 31t-80 30.5t-72 13q-43 0 -62.5 -23.5t-19.5 -62.5h-234zM395 524q0 -104 63.5 -176t180.5 -72q119 0 184.5 72t65.5 176q0 106 -65.5 178t-180.5 72t-181.5 -71.5 t-66.5 -178.5z" />
<glyph unicode="&#xf6;" horiz-adv-x="1284" d="M45 524q0 127 42 230.5t120 177.5t188.5 113.5t247.5 39.5q141 0 252 -43t187.5 -118.5t116.5 -178t40 -221.5t-42 -220t-120 -177t-188.5 -119t-249.5 -43t-248.5 43t-186.5 119t-118 177.5t-41 219.5zM193 1423q0 41 15 77t43 63.5t63.5 43t76.5 15.5t77 -15.5 t63.5 -43t43 -63.5t15.5 -77t-15.5 -76.5t-43 -63.5t-63.5 -43t-77 -15t-76.5 15t-63.5 43t-43 63.5t-15 76.5zM395 524q0 -104 63.5 -176t180.5 -72q119 0 184.5 72t65.5 176q0 106 -65.5 178t-180.5 72t-181.5 -71.5t-66.5 -178.5zM709 1423q0 41 15 77t43 63.5t63.5 43 t76.5 15.5t77 -15.5t63.5 -43t43 -63.5t15.5 -77t-15.5 -76.5t-43 -63.5t-63.5 -43t-77 -15t-76.5 15t-63.5 43t-43 63.5t-15 76.5z" />
<glyph unicode="&#xf7;" horiz-adv-x="1404" d="M178 618v308h1049v-308h-1049zM526 330q0 74 51.5 125t124.5 51q74 0 125.5 -51t51.5 -125t-51.5 -125t-125.5 -51t-125 51t-51 125zM526 1214q0 74 51.5 125.5t124.5 51.5q74 0 125.5 -51.5t51.5 -125.5t-51.5 -125t-125.5 -51t-125 51.5t-51 124.5z" />
<glyph unicode="&#xf8;" horiz-adv-x="1284" d="M45 524q0 127 42 230.5t120 177.5t188.5 113.5t247.5 39.5q94 0 174 -19t146 -54l104 118l123 -106l-96 -111q72 -76 108.5 -174t36.5 -215q0 -119 -42 -220t-120 -177t-188.5 -119t-249.5 -43q-92 0 -170 18.5t-143 53.5l-115 -129l-121 108l105 119q-72 76 -111 174.5 t-39 214.5zM395 524q0 -70 29 -127l315 361q-45 16 -96 16q-115 0 -181.5 -71.5t-66.5 -178.5zM547 291q41 -14 92 -15q119 0 184.5 72t65.5 176q0 70 -29 123z" />
<glyph unicode="&#xf9;" horiz-adv-x="1327" d="M104 475v576h373v-527q0 -57 7.5 -104t27.5 -81t57 -52.5t95 -18.5q57 0 94 18.5t57.5 52.5t27.5 81t7 104v527h373v-576q0 -129 -41 -225t-116 -159.5t-177.5 -94.5t-224.5 -31q-125 0 -227.5 31t-176.5 94.5t-115 159.5t-41 225zM268 1604h418l193 -367h-281z" />
<glyph unicode="&#xfa;" horiz-adv-x="1327" d="M104 475v576h373v-527q0 -57 7.5 -104t27.5 -81t57 -52.5t95 -18.5q57 0 94 18.5t57.5 52.5t27.5 81t7 104v527h373v-576q0 -129 -41 -225t-116 -159.5t-177.5 -94.5t-224.5 -31q-125 0 -227.5 31t-176.5 94.5t-115 159.5t-41 225zM444 1237l193 367h418l-330 -367h-281z " />
<glyph unicode="&#xfb;" horiz-adv-x="1327" d="M104 475v576h373v-527q0 -57 7.5 -104t27.5 -81t57 -52.5t95 -18.5q57 0 94 18.5t57.5 52.5t27.5 81t7 104v527h373v-576q0 -129 -41 -225t-116 -159.5t-177.5 -94.5t-224.5 -31q-125 0 -227.5 31t-176.5 94.5t-115 159.5t-41 225zM174 1237l322 385h323l322 -385h-342 l-146 178l-147 -178h-332z" />
<glyph unicode="&#xfc;" horiz-adv-x="1327" d="M104 475v576h373v-527q0 -57 7.5 -104t27.5 -81t57 -52.5t95 -18.5q57 0 94 18.5t57.5 52.5t27.5 81t7 104v527h373v-576q0 -129 -41 -225t-116 -159.5t-177.5 -94.5t-224.5 -31q-125 0 -227.5 31t-176.5 94.5t-115 159.5t-41 225zM203 1423q0 41 15 77t43 63.5t63.5 43 t76.5 15.5t77 -15.5t63.5 -43t43 -63.5t15.5 -77t-15.5 -76.5t-43 -63.5t-63.5 -43t-77 -15t-76.5 15t-63.5 43t-43 63.5t-15 76.5zM719 1423q0 41 15.5 77t43 63.5t63.5 43t77 15.5t76.5 -15.5t63 -43t43 -63.5t15.5 -77t-15.5 -76.5t-43 -63.5t-63.5 -43t-76 -15 q-41 0 -77 15t-63.5 43t-43 63.5t-15.5 76.5z" />
<glyph unicode="&#xfd;" horiz-adv-x="1290" d="M-35 1051h434l260 -547h3l251 547h408l-807 -1575h-387l330 663zM412 1237l192 367h418l-330 -367h-280z" />
<glyph unicode="&#xfe;" horiz-adv-x="1355" d="M102 -524v2222h373v-742h4q53 61 140.5 95t191.5 34q106 0 197.5 -42t159 -114.5t105.5 -170.5t38 -211q0 -131 -43 -238.5t-114 -184.5t-161 -118t-186 -41q-117 0 -199 38t-129 103h-4v-630h-373zM463 524q0 -49 17.5 -94t49 -79t76.5 -54.5t103 -20.5q57 0 103 20.5 t79 54.5t51.5 79t18.5 94t-18.5 94.5t-51.5 80t-79 55t-103 20.5t-102.5 -20.5t-77 -55t-49 -80t-17.5 -94.5z" />
<glyph unicode="&#xff;" horiz-adv-x="1290" d="M-35 1051h434l260 -547h3l251 547h408l-807 -1575h-387l330 663zM199 1423q0 41 15 77t43 63.5t63.5 43t76.5 15.5t77 -15.5t63.5 -43t43 -63.5t15.5 -77t-15.5 -76.5t-43 -63.5t-63.5 -43t-77 -15t-76.5 15t-63.5 43t-43 63.5t-15 76.5zM715 1423q0 41 15 77t43 63.5 t63.5 43t76.5 15.5t77 -15.5t63.5 -43t43 -63.5t15.5 -77t-15.5 -76.5t-43 -63.5t-63.5 -43t-77 -15t-76.5 15t-63.5 43t-43 63.5t-15 76.5z" />
<glyph unicode="&#x152;" horiz-adv-x="2000" d="M57 772q0 158 62.5 297t170 245.5t253 168t313.5 61.5h1034v-340h-477v-258h453v-319h-453v-287h477v-340h-1034q-166 0 -311.5 61.5t-254 167t-171 245.5t-62.5 298zM475 772q0 -98 30 -178t86 -136.5t137 -87t181 -30.5h101v864h-101q-209 0 -321.5 -117.5 t-112.5 -314.5z" />
<glyph unicode="&#x153;" horiz-adv-x="2070" d="M45 524q0 125 41 228.5t117 177.5t182.5 114.5t237.5 40.5q139 0 249.5 -50t186.5 -138q78 92 187.5 140t226.5 48q131 0 235 -43t177 -123.5t111 -199.5t34 -270h-750q10 -111 70.5 -155t142.5 -44q70 0 116 25.5t70 66.5h334q-23 -92 -75 -161.5t-120.5 -118 t-151.5 -73t-167 -24.5q-125 0 -242.5 47t-201.5 142q-78 -88 -189.5 -138.5t-247.5 -50.5q-131 0 -237.5 43t-181 119t-114.5 177.5t-40 219.5zM395 524q0 -104 63.5 -176t180.5 -72q119 0 184.5 72t65.5 176q0 106 -65.5 178t-180.5 72t-181.5 -71.5t-66.5 -178.5z M1282 645h391q-12 72 -64.5 114t-123.5 42q-82 0 -132 -41t-71 -115z" />
<glyph unicode="&#x178;" horiz-adv-x="1466" d="M-35 1544h475l295 -551h2l291 551h473l-565 -932v-612h-401v612zM276 1849q0 41 15.5 77t43 63.5t63.5 43t77 15.5t77 -15.5t63.5 -43t43 -63.5t15.5 -77t-15.5 -76.5t-43 -63.5t-63.5 -43t-77 -15t-77 15t-63.5 43t-43 63.5t-15.5 76.5zM793 1849q0 41 15 77t43 63.5 t63.5 43t76.5 15.5t77 -15.5t63.5 -43t43 -63.5t15.5 -77t-15.5 -76.5t-43 -63.5t-63.5 -43t-77 -15t-76.5 15t-63.5 43t-43 63.5t-15 76.5z" />
<glyph unicode="&#x2c6;" horiz-adv-x="1126" d="M59 1237l322 385h324l321 -385h-342l-145 178l-148 -178h-332z" />
<glyph unicode="&#x2dc;" horiz-adv-x="1042" d="M49 1253q0 190 84 275.5t227 85.5q43 0 87.5 -13.5t85 -31t80.5 -30.5t73 -13q43 0 62.5 23.5t19.5 64.5h231q0 -193 -82.5 -278t-228.5 -85q-43 0 -86 13.5t-85 31t-80 30.5t-72 13q-43 0 -62.5 -23.5t-19.5 -62.5h-234z" />
<glyph unicode="&#x2000;" horiz-adv-x="1039" />
<glyph unicode="&#x2001;" horiz-adv-x="2079" />
<glyph unicode="&#x2002;" horiz-adv-x="1039" />
<glyph unicode="&#x2003;" horiz-adv-x="2079" />
<glyph unicode="&#x2004;" horiz-adv-x="693" />
<glyph unicode="&#x2005;" horiz-adv-x="519" />
<glyph unicode="&#x2006;" horiz-adv-x="346" />
<glyph unicode="&#x2007;" horiz-adv-x="346" />
<glyph unicode="&#x2008;" horiz-adv-x="259" />
<glyph unicode="&#x2009;" horiz-adv-x="415" />
<glyph unicode="&#x200a;" horiz-adv-x="115" />
<glyph unicode="&#x2010;" horiz-adv-x="819" d="M102 504v307h615v-307h-615z" />
<glyph unicode="&#x2011;" horiz-adv-x="819" d="M102 504v307h615v-307h-615z" />
<glyph unicode="&#x2012;" horiz-adv-x="819" d="M102 504v307h615v-307h-615z" />
<glyph unicode="&#x2013;" horiz-adv-x="1024" d="M102 504v307h820v-307h-820z" />
<glyph unicode="&#x2014;" horiz-adv-x="1536" d="M102 504v307h1332v-307h-1332z" />
<glyph unicode="&#x2018;" horiz-adv-x="638" d="M78 1049q0 76 26.5 152.5t72.5 147t107.5 134t131.5 110.5l127 -100q-72 -66 -130.5 -152t-78.5 -163q82 -4 132 -56.5t50 -130.5q0 -43 -15.5 -80t-43 -63.5t-64.5 -41.5t-80 -15q-53 0 -97 20t-74.5 56t-47 83t-16.5 99z" />
<glyph unicode="&#x2019;" horiz-adv-x="638" d="M96 881q72 66 130.5 151.5t78.5 163.5q-82 4 -132 56t-50 130q0 43 15.5 80t43 63.5t64.5 42t80 15.5q53 0 97 -20.5t74.5 -56.5t47 -82t16.5 -99q0 -76 -26.5 -152.5t-72.5 -147.5t-107.5 -134.5t-131.5 -110.5z" />
<glyph unicode="&#x201a;" horiz-adv-x="638" d="M96 -274q72 66 130.5 151.5t78.5 163.5q-82 4 -132 56t-50 130q0 43 15.5 80t43 63.5t64.5 42t80 15.5q53 0 97 -20.5t74.5 -56.5t47 -82t16.5 -99q0 -76 -26.5 -152.5t-72.5 -147.5t-107.5 -134.5t-131.5 -110.5z" />
<glyph unicode="&#x201c;" horiz-adv-x="1185" d="M78 1049q0 76 26.5 152.5t72.5 147t107.5 134t131.5 110.5l127 -100q-72 -66 -130.5 -152t-78.5 -163q82 -4 132 -56.5t50 -130.5q0 -43 -15.5 -80t-43 -63.5t-64.5 -41.5t-80 -15q-53 0 -97 20t-74.5 56t-47 83t-16.5 99zM625 1049q0 76 26.5 152.5t72.5 147t107.5 134 t131.5 110.5l127 -100q-72 -66 -130.5 -152t-78.5 -163q82 -4 132 -56.5t50 -130.5q0 -43 -15.5 -80t-43 -63.5t-64.5 -41.5t-80 -15q-53 0 -97 20t-75 56t-47 83t-16 99z" />
<glyph unicode="&#x201d;" horiz-adv-x="1185" d="M96 881q72 66 130.5 151.5t78.5 163.5q-82 4 -132 56t-50 130q0 43 15.5 80t43 63.5t64.5 42t80 15.5q53 0 97 -20.5t74.5 -56.5t47 -82t16.5 -99q0 -76 -26.5 -152.5t-72.5 -147.5t-107.5 -134.5t-131.5 -110.5zM643 881q72 66 130 151.5t79 163.5q-82 4 -132 56 t-50 130q0 43 15 80t43 63.5t64.5 42t79.5 15.5q53 0 97.5 -20.5t75 -56.5t47 -82t16.5 -99q0 -76 -26.5 -152.5t-72.5 -147.5t-107.5 -134.5t-131.5 -110.5z" />
<glyph unicode="&#x201e;" horiz-adv-x="1185" d="M96 -274q72 66 130.5 151.5t78.5 163.5q-82 4 -132 56t-50 130q0 43 15.5 80t43 63.5t64.5 42t80 15.5q53 0 97 -20.5t74.5 -56.5t47 -82t16.5 -99q0 -76 -26.5 -152.5t-72.5 -147.5t-107.5 -134.5t-131.5 -110.5zM643 -274q72 66 130 151.5t79 163.5q-82 4 -132 56 t-50 130q0 43 15 80t43 63.5t64.5 42t79.5 15.5q53 0 97.5 -20.5t75 -56.5t47 -82t16.5 -99q0 -76 -26.5 -152.5t-72.5 -147.5t-107.5 -134.5t-131.5 -110.5z" />
<glyph unicode="&#x2022;" horiz-adv-x="886" d="M57 772q0 80 30 150.5t81 123t122.5 83t153.5 30.5q84 0 154 -30.5t122 -83t80.5 -123t28.5 -150.5t-28.5 -149.5t-80.5 -121.5t-122 -83t-154 -31q-82 0 -153.5 31t-122.5 83t-81 121.5t-30 149.5z" />
<glyph unicode="&#x2026;" horiz-adv-x="1966" d="M113 174q0 45 17 84t46 68.5t68 46t84 16.5t84 -16.5t68.5 -46t46 -68.5t16.5 -84t-16.5 -84t-46 -68.5t-68.5 -46t-84 -16.5t-84 16.5t-68 46t-46 68.5t-17 84zM768 174q0 45 17.5 84t46 68.5t67.5 46t84 16.5t84 -16.5t68.5 -46t46 -68.5t16.5 -84t-16.5 -84t-46 -68.5 t-68.5 -46t-84 -16.5t-84 16.5t-67.5 46t-46 68.5t-17.5 84zM1423 174q0 45 17.5 84t46.5 68.5t67.5 46t83.5 16.5t84 -16.5t69 -46t46 -68.5t16 -84t-16 -84t-46 -68.5t-69 -46t-84 -16.5t-83.5 16.5t-67.5 46t-46.5 68.5t-17.5 84z" />
<glyph unicode="&#x202f;" horiz-adv-x="415" />
<glyph unicode="&#x2039;" horiz-adv-x="704" d="M53 532l353 504l204 -141l-258 -363l264 -356l-210 -147z" />
<glyph unicode="&#x203a;" horiz-adv-x="704" d="M88 176l264 356l-258 363l205 141l352 -504l-352 -503z" />
<glyph unicode="&#x205f;" horiz-adv-x="519" />
<glyph unicode="&#x2122;" horiz-adv-x="1157" d="M59 1419v125h336v-125h-100v-354h-135v354h-101zM418 1065l84 479h129l88 -225l94 225h133l74 -479h-139l-29 244h-6l-88 -244h-80l-82 244h-6l-33 -244h-139z" />
<glyph unicode="&#x25fc;" horiz-adv-x="1054" d="M0 0v1055h1055v-1055h-1055z" />
</font>
</defs>
</svg>
