<?xml version="1.0" standalone="no"?>
<!DOCTYPE svg PUBLIC "-//W3C//DTD SVG 1.1//EN" "http://www.w3.org/Graphics/SVG/1.1/DTD/svg11.dtd" >
<svg xmlns="http://www.w3.org/2000/svg">
<metadata></metadata>
<defs>
<font id="luzsans-bookluzsans-book" horiz-adv-x="1757" >
<font-face units-per-em="2048" ascent="1638" descent="-410" />
<missing-glyph horiz-adv-x="520" />
<glyph horiz-adv-x="0" />
<glyph horiz-adv-x="682" />
<glyph horiz-adv-x="933" d="M135 1442h135q14 -66 66.5 -109t130.5 -43t130 43t67 109h131q-4 -61 -31 -110.5t-71 -85.5t-102.5 -54t-123.5 -18q-68 0 -126 18t-102 54t-72 85t-32 111z" />
<glyph horiz-adv-x="524" d="M160 1325q0 43 29.5 72.5t72.5 29.5q41 0 72 -29.5t31 -72.5q0 -41 -31 -70.5t-72 -29.5q-43 0 -72.5 29.5t-29.5 70.5z" />
<glyph horiz-adv-x="692" d="M145 1321q0 86 54.5 141.5t146.5 55.5t145.5 -55.5t53.5 -141.5q0 -84 -54.5 -140.5t-146.5 -56.5t-145.5 56.5t-53.5 140.5zM244 1321q0 -45 26.5 -74.5t73.5 -29.5q49 0 77 29.5t28 74.5q0 47 -28 76.5t-75 29.5t-74.5 -29.5t-27.5 -76.5z" />
<glyph unicode="&#xa;" horiz-adv-x="942" d="M129 1171l201 334h196l-276 -334h-121zM418 1171l211 334h194l-288 -334h-117z" />
<glyph horiz-adv-x="624" d="M150 -133q0 66 41.5 126t119.5 107h111v-4q-74 -51 -114 -102t-40 -98q0 -55 37 -87t92 -32q31 0 53.5 7t45.5 23v-114q-27 -10 -56.5 -17.5t-64.5 -7.5q-98 0 -161.5 53.5t-63.5 145.5z" />
<glyph horiz-adv-x="929" d="M119 1499h162l192 -250l189 250h159l-266 -340h-168z" />
<glyph unicode="&#xd;" horiz-adv-x="520" />
<glyph horiz-adv-x="942" d="M-72 0l908 1571l112 -17l-909 -1572z" />
<glyph horiz-adv-x="1075" d="M47 846v145h113v361q0 88 28.5 155.5t78.5 114.5t121 71.5t153 24.5q178 0 278.5 -100t100.5 -268h-164q0 104 -58.5 161.5t-158.5 57.5q-43 0 -81 -11.5t-68 -37t-47 -68.5t-17 -109v-352h247v-145h-247v-846h-166v846h-113zM756 0v991h164v-991h-164z" />
<glyph horiz-adv-x="1075" d="M47 846v145h113v363q0 166 101 265t280 99q88 0 157.5 -25.5t118.5 -73.5t76 -114.5t27 -150.5v-1354h-164v1343q0 106 -57.5 166t-159.5 60q-98 0 -155.5 -56.5t-57.5 -169.5v-352h247v-145h-247v-846h-166v846h-113z" />
<glyph horiz-adv-x="888" d="M8 635v168l172 94v647h174v-547l195 107v-166l-195 -109v-673h492v-156h-666v729z" />
<glyph horiz-adv-x="581" d="M18 635v168l187 102v789h164v-697l190 107v-166l-190 -107v-833l-164 2v735q0 2 -29 -14t-63 -35q-41 -23 -95 -51z" />
<glyph horiz-adv-x="1234" d="M23 0l890 1389h-790v155h1087l-886 -1388h847v-156h-1148zM303 1993h162l192 -250l189 250h160l-267 -340h-168z" />
<glyph horiz-adv-x="976" d="M12 0l652 846h-572v145h860l-651 -848h637v-143h-926zM172 1499h162l192 -250l189 250h159l-266 -340h-168z" />
<glyph unicode=" "  horiz-adv-x="520" />
<glyph unicode="&#x09;" horiz-adv-x="520" />
<glyph unicode="&#xa0;" horiz-adv-x="520" />
<glyph unicode="!" horiz-adv-x="686" d="M236 82q0 45 31.5 76.5t76.5 31.5t77 -31.5t32 -76.5q0 -43 -32 -76t-77 -33t-76.5 33t-31.5 76zM262 410v1134h160v-1134h-160z" />
<glyph unicode="&#x22;" horiz-adv-x="923" d="M139 1038l172 521l162 -13l-223 -520zM473 1038l170 521l162 -13l-223 -520z" />
<glyph unicode="#" horiz-adv-x="1415" d="M102 451l19 127h254q14 98 24 180q10 70 19.5 131t11.5 78h-246l19 127h246q2 10 5 34.5t7 57.5t9 72.5t11 78.5q12 94 29 207h133q-16 -113 -29 -207q-6 -39 -11 -78.5t-10 -72.5t-8 -57.5t-5 -34.5h348q2 10 5 34.5t8 57.5t10 72.5t12 78.5q12 94 26 207h133 q-16 -113 -28 -207q-6 -39 -11.5 -78.5t-10.5 -72.5t-8 -57.5t-5 -34.5h256l-19 -127h-256q-2 -10 -6 -43t-10 -76t-12 -91t-12.5 -88t-10.5 -65l-4 -26h248l-19 -127h-245l-62 -451h-133l64 451h-349l-61 -451h-133l63 451h-256zM508 578h346q14 98 25 180q10 70 19 131 t11 78h-346q-2 -16 -11 -78t-20 -131q-10 -82 -24 -180z" />
<glyph unicode="$" horiz-adv-x="1120" d="M53 285l131 90q53 -115 141.5 -179.5t204.5 -64.5q147 0 230.5 80t83.5 215q0 100 -52.5 158.5t-131 100.5t-170 76t-170 84t-131 126t-52.5 200q0 74 26.5 141.5t75 120t116 87t151.5 47.5v217h127v-217q119 -10 209 -63.5t147 -137.5l-115 -121q-57 76 -126.5 122 t-157.5 46q-63 0 -115.5 -18.5t-87.5 -49t-54.5 -72.5t-19.5 -91q0 -92 52.5 -147.5t132.5 -94.5t171 -74t171 -87t132 -134t52 -215q0 -84 -27.5 -158.5t-78 -134t-123 -100.5t-162.5 -55v-232h-127v223q-158 6 -279 91.5t-174 220.5z" />
<glyph unicode="%" horiz-adv-x="1622" d="M53 1174q0 82 24.5 152.5t70 122.5t106.5 82t135 30t135.5 -30t106.5 -82t69.5 -122.5t24.5 -152.5t-25.5 -152t-69.5 -122t-106.5 -82t-136.5 -30t-135.5 30t-105.5 82t-68.5 122t-24.5 152zM174 1174q0 -117 58.5 -195t156.5 -78t154.5 77t56.5 196t-56.5 196.5 t-154.5 77.5t-156.5 -77t-58.5 -197zM303 0l907 1571l109 -17l-909 -1572zM899 371q0 82 25.5 151.5t69.5 121.5t106.5 82t136.5 30t135.5 -30t105.5 -82t68.5 -121.5t24.5 -151.5t-24.5 -153t-69.5 -123t-106.5 -81.5t-135.5 -29.5t-135.5 29.5t-106.5 81.5t-69.5 123 t-24.5 153zM1022 371q0 -119 57.5 -197t155.5 -78t155.5 77t57.5 198q0 117 -57.5 194.5t-155.5 77.5t-155.5 -77t-57.5 -195z" />
<glyph unicode="&#x26;" horiz-adv-x="1380" d="M68 401q0 74 18 140.5t61 125t114 111.5t175 99q-86 92 -124 178t-38 170q0 76 27 140.5t74 111.5t114.5 73.5t149.5 26.5q78 0 141.5 -26.5t107.5 -71.5t68.5 -103.5t24.5 -122.5q0 -135 -85 -241.5t-241 -177.5l361 -445q23 31 48.5 70t48 80t43 80.5t34.5 70.5 l115 -72q-14 -37 -37 -79.5t-49.5 -87.5t-55 -88.5t-57.5 -77.5l235 -285h-178l-155 186q-113 -113 -232 -167t-256 -54q-84 0 -166 32t-145.5 89t-102 138t-38.5 177zM229 414q0 -57 23.5 -110.5t66.5 -95.5t101.5 -66.5t126.5 -24.5q86 0 177 40t189 138l-391 481 q-82 -37 -138 -75.5t-91 -83t-49.5 -94.5t-14.5 -109zM430 1229q0 -68 34 -142.5t107 -154.5q129 57 196 136t67 169q0 39 -13.5 76t-38 66.5t-60.5 47t-81 17.5q-98 0 -154.5 -62.5t-56.5 -152.5z" />
<glyph unicode="'" horiz-adv-x="591" d="M139 1038l172 521l162 -13l-223 -520z" />
<glyph unicode="(" horiz-adv-x="561" d="M70 582q0 145 28.5 285.5t80.5 268.5t126 240.5t162 204.5l113 -98q-82 -90 -147.5 -195.5t-112 -221.5t-71 -237.5t-24.5 -244.5q0 -252 93.5 -484.5t261.5 -421.5l-113 -96q-88 92 -162 205t-126 241t-80.5 267t-28.5 287z" />
<glyph unicode=")" horiz-adv-x="561" d="M-29 -322q168 188 262.5 421t94.5 485q0 250 -93.5 481t-263.5 418l115 98q88 -92 162 -204.5t126 -240.5t80.5 -268.5t28.5 -285.5q0 -147 -28.5 -286.5t-80.5 -267.5t-126 -241t-162 -205z" />
<glyph unicode="*" horiz-adv-x="839" d="M78 1063l237 131l-237 133l53 94l234 -139l-3 270h111l-2 -270l231 139l54 -94l-236 -133l236 -131l-54 -96l-231 141l2 -272h-111l3 272l-234 -141z" />
<glyph unicode="+" horiz-adv-x="1282" d="M129 707v147h426v428h147v-428h428v-147h-428v-428h-147v428h-426z" />
<glyph unicode="," horiz-adv-x="651" d="M154 -340q78 72 128 160t56 190q-55 -8 -88 21.5t-33 74.5q0 43 29.5 73t77.5 30q57 0 93 -47t36 -129q0 -53 -17.5 -111.5t-48.5 -116t-74 -107.5t-94 -89z" />
<glyph unicode="-" horiz-adv-x="882" d="M102 584v143h678v-143h-678z" />
<glyph unicode="." horiz-adv-x="641" d="M215 80q0 43 30.5 73.5t76.5 30.5q43 0 73.5 -30.5t30.5 -73.5t-30.5 -75t-73.5 -32q-45 0 -76 32t-31 75z" />
<glyph unicode="/" horiz-adv-x="1153" d="M-2 -389l1028 1964l131 -19l-1024 -1966z" />
<glyph unicode="0" horiz-adv-x="1304" d="M70 778q0 137 37.5 277.5t111.5 255t184.5 187.5t253.5 73t251 -73t180.5 -187.5t108.5 -255t36 -277.5q0 -135 -36 -277.5t-108.5 -259t-182 -192.5t-257.5 -76q-147 0 -255.5 76t-181.5 192.5t-107.5 259t-34.5 277.5zM242 778q0 -104 23.5 -218t73.5 -209t127 -157.5 t183 -62.5t184 61.5t128.5 156.5t75 209t24.5 220q0 96 -23.5 207t-74 206t-127 158.5t-181.5 63.5q-106 0 -185 -62.5t-129 -157.5t-74.5 -207t-24.5 -208z" />
<glyph unicode="1" horiz-adv-x="753" d="M74 1389l37 155h376v-1544h-174v1389h-239z" />
<glyph unicode="2" horiz-adv-x="1247" d="M90 4l655 715q94 104 143.5 198.5t49.5 192.5q0 66 -22.5 122t-65.5 96t-103.5 62.5t-138.5 22.5q-68 0 -125 -23.5t-98 -64.5t-63.5 -99.5t-22.5 -129.5v-17h-172v17q4 119 43 208t105.5 148t155.5 89t194 30q106 0 195 -35t153.5 -96.5t100.5 -147.5t36 -190 q0 -131 -61.5 -241.5t-171.5 -229.5l-443 -477h676v-154h-1016z" />
<glyph unicode="3" horiz-adv-x="1173" d="M90 399v13h176v-13q6 -57 29.5 -107t61.5 -86t90.5 -56.5t115.5 -20.5q66 0 123 23.5t98 65.5t64.5 99.5t23.5 122.5q0 66 -23.5 120t-65.5 93t-98 60.5t-124 23.5h-24v137h24q61 2 113.5 24t90.5 58.5t59.5 88t21.5 112.5q0 55 -19.5 103.5t-55.5 83t-86 55t-112 20.5 q-119 0 -186.5 -68.5t-75.5 -181.5v-12h-166v12q14 184 127 293t314 109q92 0 171 -32t136 -87t90 -129t33 -160q0 -113 -58.5 -205t-160.5 -141v-2q59 -23 105 -62.5t78 -89t49.5 -107t17.5 -116.5q0 -98 -36 -184t-98.5 -148.5t-150.5 -98.5t-193 -36q-96 0 -183 32 t-151.5 89.5t-103.5 135t-41 169.5z" />
<glyph unicode="4" horiz-adv-x="1243" d="M39 391v68l805 1128h100v-1048h211v-148h-211v-391h-168v391h-737zM264 539h512v708h-6l-506 -704v-4z" />
<glyph unicode="5" horiz-adv-x="1210" d="M45 203l107 131q72 -90 168 -145.5t200 -55.5q80 0 151.5 30t125 83t84 125.5t30.5 160.5q0 78 -27.5 147t-79.5 120t-126 79.5t-164 28.5q-92 0 -178 -28.5t-164 -73.5l-12 6l162 733h712v-153h-585l-91 -381q84 41 205 41q123 0 220.5 -39t165 -108.5t104.5 -166 t37 -211.5q0 -117 -43 -218t-119 -175t-181.5 -117t-228.5 -43q-143 0 -265 59.5t-208 170.5z" />
<glyph unicode="6" horiz-adv-x="1304" d="M80 524q0 111 37 205t108 193l451 632l182 -28l-371 -506l5 -4q88 41 200 41q113 0 210 -41t168 -113t112 -169t41 -210q0 -109 -42 -208t-117 -176t-180.5 -122t-232.5 -45q-117 0 -221 42t-182 116t-123 174.5t-45 218.5zM250 522q0 -82 31.5 -155.5t86 -127t128 -85 t157.5 -31.5q82 0 155 31.5t127 85t86 127t32 155.5t-32 154t-86 126t-127 86t-155 32q-84 0 -157.5 -32t-128 -86t-86 -126t-31.5 -154z" />
<glyph unicode="7" horiz-adv-x="1232" d="M80 1389v155h1134l-892 -1552l-183 22l807 1375h-866z" />
<glyph unicode="8" horiz-adv-x="1193" d="M117 406q0 139 62.5 238t189.5 157v2q-102 49 -160.5 144t-58.5 206q0 90 33.5 167t94 132t142.5 87t178 32t179 -32t142.5 -87t93.5 -132t34 -167q0 -111 -58.5 -206t-161.5 -144v-2q127 -57 189.5 -156.5t62.5 -238.5q0 -96 -37.5 -176t-102.5 -136.5t-153 -88.5 t-188 -32t-188 32t-152.5 88.5t-102.5 136t-38 176.5zM289 428q0 -63 24.5 -118.5t66.5 -96.5t98.5 -64.5t119.5 -23.5t119.5 23.5t99.5 64.5t67.5 96.5t24.5 118.5t-24.5 118.5t-67.5 96.5t-99 64.5t-120 23.5q-63 0 -119.5 -23.5t-98.5 -64.5t-66.5 -96t-24.5 -119z M315 1147q0 -57 21.5 -107.5t60.5 -88.5t90.5 -59.5t110.5 -21.5t110.5 21.5t90.5 59.5t60.5 88.5t21.5 107.5t-22.5 108.5t-60.5 89t-89.5 60t-110.5 22.5q-57 0 -109.5 -22.5t-90.5 -60t-60.5 -89t-22.5 -108.5z" />
<glyph unicode="9" horiz-adv-x="1304" d="M82 1022q0 117 45 217t123 174t182.5 116t224.5 42q121 0 224.5 -42t180.5 -117t120 -176t43 -222q0 -106 -37 -198.5t-105 -186.5l-456 -637l-181 28l369 504l-4 4q-47 -20 -93 -28t-102 -8q-111 0 -209 40.5t-169.5 112.5t-113.5 168t-42 209zM252 1024 q0 -82 31.5 -153.5t86 -125t128 -85t157.5 -31.5t156 31.5t126 85t85 125t31 153.5q0 84 -32 155.5t-85 126t-126 85t-155 30.5t-155.5 -30.5t-129 -85t-87 -126t-31.5 -155.5z" />
<glyph unicode=":" horiz-adv-x="651" d="M221 80q0 43 31 73.5t74 30.5t73.5 -30.5t30.5 -73.5t-30.5 -75t-73.5 -32t-74 32t-31 75zM221 891q0 45 31 75.5t74 30.5t73.5 -30.5t30.5 -75.5q0 -43 -30.5 -74t-73.5 -31t-74 31t-31 74z" />
<glyph unicode=";" horiz-adv-x="651" d="M152 -340q78 72 128 160t56 190q-55 -8 -88 21.5t-33 74.5q0 43 29.5 73t77.5 30q57 0 93 -47t36 -129q0 -53 -17.5 -111.5t-48.5 -116t-74 -107.5t-94 -89zM229 891q0 45 31 75.5t74 30.5t73.5 -30.5t30.5 -75.5q0 -43 -30.5 -74t-73.5 -31t-74 31t-31 74z" />
<glyph unicode="&#x3c;" horiz-adv-x="1204" d="M115 768v20l848 461l81 -123l-657 -344l655 -352l-79 -125z" />
<glyph unicode="=" horiz-adv-x="1282" d="M129 514v148h999v-148h-999zM129 897v150h999v-150h-999z" />
<glyph unicode="&#x3e;" horiz-adv-x="1239" d="M119 1126l80 123l852 -461v-20l-852 -463l-78 125l655 352z" />
<glyph unicode="?" horiz-adv-x="1054" d="M76 1370q68 96 168 148.5t223 52.5q111 0 205 -35t161.5 -98.5t105.5 -149.5t38 -188t-34 -187.5t-95.5 -146.5t-145.5 -96t-184 -41v-223h-164v350h60q186 2 290.5 92t104.5 250q0 72 -24.5 131t-69.5 101t-105.5 65.5t-132.5 23.5q-94 0 -169 -42t-132 -105zM332 82 q0 45 30.5 76.5t75.5 31.5q47 0 77 -31.5t30 -76.5t-30 -77t-77 -32q-45 0 -75.5 32t-30.5 77z" />
<glyph unicode="@" horiz-adv-x="1779" d="M80 731q0 188 66.5 343t180 265.5t265 171t319.5 60.5q176 0 321.5 -53.5t251 -148.5t164 -225t58.5 -284q0 -100 -26.5 -187t-75 -151.5t-113 -100.5t-139.5 -36q-199 0 -234 166h-4q-18 -31 -49 -59.5t-71 -51t-86 -36t-99 -13.5q-68 0 -128 22.5t-106.5 65.5 t-73 103.5t-26.5 134.5q0 98 34 179t91 140.5t133 92t158 32.5q98 0 167.5 -45t98.5 -108h4l31 125h133l-92 -433q-20 -90 14.5 -150.5t112.5 -60.5q59 0 104 29t76 80t46.5 118.5t15.5 147.5q0 125 -50.5 235.5t-140.5 192.5t-215 130t-274 48q-166 0 -302.5 -57 t-233.5 -156.5t-150.5 -234.5t-53.5 -291q0 -143 54.5 -263t150.5 -208t229.5 -137t292.5 -49q127 0 237.5 29.5t192.5 80.5v-110q-78 -47 -193.5 -74t-242.5 -27q-156 0 -304 49.5t-264 144.5t-185.5 237.5t-69.5 326.5zM604 733q0 -100 64.5 -161.5t169.5 -61.5 q63 0 114.5 25.5t87 70.5t55 103.5t19.5 121.5q0 92 -60.5 152.5t-154.5 60.5q-61 0 -115.5 -23.5t-94.5 -65.5t-62.5 -98t-22.5 -124z" />
<glyph unicode="A" horiz-adv-x="1384" d="M4 0l643 1581h94l637 -1581h-188l-178 446h-645l-181 -446h-182zM422 594h534l-266 666h-2z" />
<glyph unicode="B" horiz-adv-x="1173" d="M156 0v1544h376q223 0 343 -104.5t120 -288.5q0 -109 -53 -195t-164 -135v-2v-2q154 -35 234 -136.5t80 -242.5q0 -96 -33 -176t-95.5 -138t-154.5 -91t-211 -33h-442zM332 147h233q184 0 269.5 84t85.5 213q0 123 -87.5 201t-271.5 78h-229v-576zM332 868h192 q152 0 228.5 76t76.5 199q0 125 -83.5 189.5t-243.5 64.5h-170v-529z" />
<glyph unicode="C" horiz-adv-x="1462" d="M72 774q0 164 60.5 309.5t168 254t256 171t324.5 62.5q137 0 256.5 -43t218.5 -125v-207l-4 -2q-82 98 -210 155.5t-261 57.5q-135 0 -251 -48t-201 -133t-132 -201t-47 -251q0 -131 50 -247.5t136 -202.5t202 -136.5t247 -50.5q61 0 126.5 14.5t128 41t118 64.5t94.5 85 l4 -2v-203q-106 -78 -223 -121t-250 -43q-178 0 -327.5 62.5t-257.5 172t-167 255t-59 311.5z" />
<glyph unicode="D" horiz-adv-x="1388" d="M156 0v1544h381q170 0 313 -59.5t247.5 -163.5t163 -244.5t58.5 -304.5q0 -160 -57.5 -300t-161 -244.5t-246.5 -166t-317 -61.5h-381zM332 156h176q156 0 274.5 49t198.5 134t120 196.5t40 236.5t-40 236.5t-120 196.5t-197.5 134.5t-275.5 49.5h-176v-1233z" />
<glyph unicode="E" horiz-adv-x="1058" d="M156 0v1544h774v-155h-598v-498h579v-152h-579v-583h598v-156h-774z" />
<glyph unicode="F" horiz-adv-x="958" d="M156 0v1544h690v-155h-514v-490h493v-156h-493v-743h-176z" />
<glyph unicode="G" horiz-adv-x="1681" d="M70 764q0 170 60 316.5t166.5 256t253 172t316.5 62.5q223 0 400.5 -97.5t289.5 -277.5l-149 -86q-96 145 -231.5 224t-315.5 79q-129 0 -240.5 -52t-194.5 -140t-130 -204t-47 -245q0 -131 48 -246.5t131 -204t197.5 -139.5t245.5 -51q109 0 206.5 35t173 99.5 t122.5 155.5t51 204h-499v149h686q0 -160 -31 -290t-129 -246q-111 -131 -262.5 -198t-331.5 -67q-168 0 -312.5 63.5t-250 172t-164.5 252t-59 303.5z" />
<glyph unicode="H" horiz-adv-x="1507" d="M156 0v1544h176v-639h848v639h174v-1544h-174v756h-848v-756h-176z" />
<glyph unicode="I" horiz-adv-x="485" d="M156 0v1544h176v-1544h-176z" />
<glyph unicode="J" horiz-adv-x="743" d="M25 94l90 137q41 -51 86 -75.5t92 -24.5q66 0 100.5 53.5t34.5 188.5v1171h176v-1186q0 -203 -82 -294t-233 -91q-82 0 -146.5 29t-117.5 92z" />
<glyph unicode="K" horiz-adv-x="1245" d="M156 0v1544h176v-704h2l663 704h215l-708 -739l749 -805h-225l-663 719l-33 -31v-688h-176z" />
<glyph unicode="L" horiz-adv-x="845" d="M156 0v1544h176v-1388h491v-156h-667z" />
<glyph unicode="M" horiz-adv-x="1882" d="M25 0l313 1581h102l502 -1257l506 1257h104l306 -1581h-181l-219 1176h-4l-496 -1213h-43l-487 1215h-4l-227 -1178h-172z" />
<glyph unicode="N" horiz-adv-x="1677" d="M156 0v1559h98l1089 -1244h3v1229h174v-1581h-97l-1089 1251h-4v-1214h-174z" />
<glyph unicode="O" d="M70 774q0 164 61.5 309.5t170 254t256 171t319.5 62.5t320.5 -62.5t257 -171t171 -254t62.5 -311.5t-61.5 -311.5t-170 -254t-256 -171t-319.5 -62.5q-174 0 -323.5 62.5t-257 172t-169 255t-61.5 311.5zM248 774q0 -131 49 -248.5t135 -205t202 -138.5t247 -51 q133 0 248.5 48t199.5 134t132 204t48 255q0 131 -49 248t-135 204t-201.5 138t-246.5 51q-135 0 -250 -49t-200 -135t-132 -203t-47 -252z" />
<glyph unicode="P" horiz-adv-x="1064" d="M156 0v1544h376q115 0 203 -31.5t147.5 -89t90.5 -137.5t31 -176t-30 -176t-89.5 -136.5t-147.5 -88t-202 -31.5h-203v-678h-176zM332 827h168q176 0 253.5 76t77.5 207t-77.5 207t-253.5 76h-168v-566z" />
<glyph unicode="Q" d="M70 774q0 164 61.5 309.5t170 254t256 171t319.5 62.5t320.5 -62.5t257 -171t171 -254t62.5 -311.5q0 -160 -57.5 -299t-162.5 -248l224 -235h-199l-133 141q-100 -76 -222 -117t-257 -41q-174 0 -323.5 62.5t-257 172t-169 255t-61.5 311.5zM248 774q0 -131 49 -248.5 t135 -205t202 -138.5t247 -51q104 0 197 32t171 87l-362 389h196l269 -291q74 84 115.5 190.5t41.5 233.5q0 131 -49 248t-135 204t-201.5 138t-246.5 51q-135 0 -250 -49t-200 -135t-132 -203t-47 -252z" />
<glyph unicode="R" horiz-adv-x="1091" d="M156 0v1544h309q260 0 384 -113.5t124 -312.5q0 -174 -106.5 -283.5t-311.5 -127.5l498 -707h-203l-479 696h-39v-696h-176zM332 831h123q166 0 253 74t87 207q0 141 -87 213t-292 72h-84v-566z" />
<glyph unicode="S" horiz-adv-x="1114" d="M47 268l139 99q59 -113 144.5 -175.5t210.5 -62.5q72 0 127 23.5t95 63.5t60.5 92t20.5 110q0 98 -55.5 167.5t-190.5 133.5l-115 53q-150 66 -241.5 157t-91.5 240q0 84 31.5 157t88 126t133 84t166.5 31q139 0 245 -56.5t171 -148.5l-113 -123q-59 72 -128.5 122 t-165.5 50q-111 0 -181.5 -60.5t-70.5 -164.5q0 -49 14 -87t46 -71t82 -61.5t120 -59.5l112 -51q86 -39 146.5 -82t100.5 -95t58.5 -113.5t18.5 -137.5q0 -92 -34 -174t-96.5 -144.5t-152.5 -99.5t-202 -37q-172 0 -297 80t-195 215z" />
<glyph unicode="T" horiz-adv-x="980" d="M18 1389v155h938v-155h-383v-1389h-174v1389h-381z" />
<glyph unicode="U" horiz-adv-x="1411" d="M143 559v985h176v-950q0 -242 98.5 -353.5t299.5 -111.5q199 0 288 111.5t89 353.5v950h174v-985q0 -283 -141.5 -435.5t-419.5 -152.5q-274 0 -419 156t-145 432z" />
<glyph unicode="V" horiz-adv-x="1335" d="M0 1544h190l478 -1235h4l479 1235h184l-641 -1581h-59z" />
<glyph unicode="W" horiz-adv-x="2082" d="M6 1544h180l363 -1229h4l451 1248h83l441 -1248h4l364 1229h181l-490 -1581h-106l-434 1262h-5l-450 -1262h-107z" />
<glyph unicode="X" horiz-adv-x="1189" d="M37 0l465 786l-445 758h203l336 -612h4l344 612h197l-451 -758l459 -786h-197l-356 643h-4l-363 -643h-192z" />
<glyph unicode="Y" horiz-adv-x="1226" d="M-4 1544h203l415 -729h4l410 729h199l-527 -897v-647h-174v647z" />
<glyph unicode="Z" horiz-adv-x="1234" d="M23 0l890 1389h-790v155h1087l-886 -1388h847v-156h-1148z" />
<glyph unicode="[" horiz-adv-x="610" d="M125 -408v1971h405v-146h-243v-1679h243v-146h-405z" />
<glyph unicode="\" horiz-adv-x="1142" d="M-6 1556l133 19l1026 -1964l-133 -21z" />
<glyph unicode="]" horiz-adv-x="610" d="M82 -262h244v1679h-244v146h401v-1971h-401v146z" />
<glyph unicode="_" horiz-adv-x="1024" d="M102 -238h820v-147h-820v147z" />
<glyph unicode="`" horiz-adv-x="657" d="M139 1493h189l217 -334h-144z" />
<glyph unicode="a" horiz-adv-x="1208" d="M74 502q0 109 34.5 202t99 162.5t155 109.5t198.5 40q111 0 206 -47t151 -135h4v157h163v-991h-163v168h-4q-47 -92 -147.5 -142.5t-211.5 -50.5q-106 0 -195.5 40t-154 110t-100 167t-35.5 210zM229 498q0 -76 26 -144.5t72 -122t111.5 -85t145.5 -31.5q84 0 148.5 31.5 t107.5 86t65.5 126t22.5 149.5q0 76 -24.5 142.5t-71 116.5t-111 80t-143.5 30q-82 0 -146.5 -30t-110 -81t-69 -119.5t-23.5 -148.5z" />
<glyph unicode="b" horiz-adv-x="1218" d="M135 0v1694h166v-860h4q55 86 153.5 134t209.5 48q109 0 197.5 -39t152 -108.5t97.5 -161.5t34 -201q0 -113 -36 -210t-100.5 -169t-153.5 -112t-195 -40q-55 0 -108.5 13.5t-101.5 38t-86 60.5t-63 81h-4v-168h-166zM293 508q0 -78 22.5 -149.5t66.5 -126t109.5 -86 t149.5 -31.5q80 0 144.5 31.5t110.5 85t70.5 123t24.5 145.5q0 80 -23.5 148.5t-68.5 118.5t-109.5 80t-144.5 30t-144.5 -30t-110.5 -80t-71.5 -116.5t-25.5 -142.5z" />
<glyph unicode="c" horiz-adv-x="991" d="M61 498q0 113 40 208t112 163.5t169 107.5t210 39q90 0 168 -23.5t143 -77.5v-165q-51 53 -132 90t-177 37q-80 0 -148.5 -29t-119 -79t-80 -118.5t-29.5 -150.5t29.5 -151.5t81 -121t121 -81t151.5 -29.5q100 0 177 35.5t134 95.5v-166q-72 -55 -150.5 -81t-172.5 -26 q-109 0 -204 38t-167 106.5t-114 165t-42 213.5z" />
<glyph unicode="d" horiz-adv-x="1216" d="M63 498q0 109 35 203t98.5 163.5t153.5 110.5t203 41q109 0 204 -48t156 -134h5v860h165v-1694h-168v170h-4q-51 -90 -148 -142.5t-208 -52.5t-201 40t-154.5 111t-100.5 166t-36 206zM229 500q0 -76 25 -144.5t70 -122t109.5 -85t144.5 -31.5q84 0 148.5 31.5t108.5 86 t66.5 125t22.5 148.5q0 74 -25 140.5t-71 115.5t-110.5 78.5t-144.5 29.5t-143 -27.5t-108.5 -77.5t-69 -118.5t-23.5 -148.5z" />
<glyph unicode="e" horiz-adv-x="1116" d="M61 496q0 109 37 204t102.5 165.5t159 110.5t203.5 40q119 0 211 -39t156 -111q63 -74 96 -174q31 -95 31 -209v-14h-834q2 -84 31 -150.5t77 -113.5t111.5 -73t137.5 -26q111 0 188.5 52.5t130.5 140.5l141 -31q-61 -141 -188 -217t-283 -76q-115 0 -209 40t-160.5 110 t-102.5 165t-36 206zM225 582h670q-10 66 -34.5 122t-64.5 97t-97.5 64.5t-135.5 23.5q-70 0 -129 -23.5t-103 -65.5t-71 -97.5t-35 -120.5z" />
<glyph unicode="f" horiz-adv-x="579" d="M47 846v145h113v377q0 92 23.5 157.5t64.5 108.5t97 63.5t122 20.5q23 0 54.5 -6t51.5 -16v-148q-45 20 -90 21q-76 0 -116.5 -49.5t-40.5 -180.5v-348h247v-145h-247v-846h-166v846h-113z" />
<glyph unicode="g" horiz-adv-x="1208" d="M70 -104h166q4 -63 33.5 -114.5t75.5 -86.5t105.5 -54.5t122.5 -19.5q100 0 168 33t108 92t56.5 144t16.5 190v88h-4q-47 -92 -147.5 -142.5t-211.5 -50.5q-106 0 -195.5 40t-154 110t-100 167t-35.5 210q0 109 34.5 202t99 162.5t155 109.5t198.5 40q111 0 206 -47 t151 -135h4v157h163v-930q0 -152 -38.5 -261t-106.5 -180t-162 -105.5t-205 -34.5q-98 0 -186 26.5t-155.5 79t-110.5 130t-51 180.5zM229 500q0 -76 26 -145.5t72 -123t111.5 -85t145.5 -31.5q84 0 148.5 31.5t107.5 86t65.5 126t22.5 149.5q0 76 -24.5 142.5t-71 116.5 t-111 80t-143.5 30q-80 0 -144.5 -30t-109.5 -81t-70 -119.5t-25 -146.5z" />
<glyph unicode="h" horiz-adv-x="1087" d="M141 0v1694h164v-842h4q51 80 126 122t181 42q162 0 250 -98.5t88 -280.5v-637h-163v604q0 127 -48.5 202t-175.5 75q-63 0 -111 -28t-82 -75t-51.5 -110.5t-17.5 -135.5v-532h-164z" />
<glyph unicode="i" horiz-adv-x="477" d="M137 1325q0 43 31 72.5t74 29.5q41 0 70.5 -29.5t29.5 -72.5q0 -41 -29.5 -70.5t-70.5 -29.5q-43 0 -74 29.5t-31 70.5zM156 0v991h166v-991h-166z" />
<glyph unicode="j" horiz-adv-x="477" d="M-92 -352q23 -8 45 -13.5t47 -5.5q78 0 117 50.5t39 179.5v1132h166v-1159q0 -176 -86 -264t-220 -88q-25 0 -55.5 5t-52.5 15v148zM137 1325q0 43 31 72.5t74 29.5q41 0 70.5 -29.5t29.5 -72.5q0 -41 -29.5 -70.5t-70.5 -29.5q-43 0 -74 29.5t-31 70.5z" />
<glyph unicode="k" horiz-adv-x="950" d="M129 0v1694h164v-1106l418 403h202l-458 -434l491 -557h-201l-413 477l-39 -37v-440h-164z" />
<glyph unicode="l" horiz-adv-x="477" d="M156 0v1694h166v-1694h-166z" />
<glyph unicode="m" horiz-adv-x="1617" d="M141 0v991h164v-125h4q41 72 106.5 111t157.5 39q94 0 171 -44t122 -138q43 90 120 136t181 46q164 0 242 -95.5t78 -269.5v-651h-164v614q0 141 -49 204t-156 63q-117 0 -170 -80t-53 -232v-569h-164v584q0 154 -45 226.5t-162 72.5q-219 0 -219 -348v-535h-164z" />
<glyph unicode="n" horiz-adv-x="1069" d="M135 0v991h166v-139h4q47 78 124 121t185 43q158 0 243 -96.5t85 -280.5v-639h-164v598q0 61 -9 112.5t-33.5 89.5t-66.5 59.5t-108 21.5q-63 0 -111.5 -27t-81 -74t-50 -110.5t-17.5 -137.5v-532h-166z" />
<glyph unicode="o" horiz-adv-x="1171" d="M61 496q0 111 38 206t107.5 164.5t167 109.5t216.5 40q121 0 217 -40t163.5 -110.5t103.5 -165.5t36 -204q0 -111 -38 -205t-107.5 -165t-167 -111t-213.5 -40q-119 0 -215.5 40t-165 111t-105.5 165t-37 205zM217 496q0 -76 24.5 -145.5t71.5 -122t116 -83t155 -30.5 t155.5 30.5t116.5 83t72.5 121t25.5 146.5q0 76 -24.5 144.5t-71.5 120.5t-114.5 84t-153.5 32t-154.5 -31t-117 -83t-75 -121t-26.5 -146z" />
<glyph unicode="p" horiz-adv-x="1218" d="M135 -555v1546h166v-149h4q59 84 155.5 129t207.5 45q109 0 197.5 -39t152 -108.5t97.5 -161.5t34 -201q0 -113 -36 -210t-100.5 -169t-153.5 -112t-195 -40q-111 0 -208.5 47.5t-150.5 133.5h-4v-711h-166zM293 508q0 -78 22.5 -148.5t66.5 -125t109.5 -86t149.5 -31.5 q80 0 145.5 31.5t111.5 85t70.5 122t24.5 144.5t-24.5 143.5t-70.5 118.5t-110.5 80.5t-142.5 29.5q-80 0 -144.5 -28.5t-110.5 -77.5t-71.5 -115.5t-25.5 -142.5z" />
<glyph unicode="q" horiz-adv-x="1216" d="M66 498q0 109 34.5 203t98 163.5t153.5 110.5t201 41q109 0 206 -48t154 -137h5v160h165v-1546h-165v729h-5q-25 -47 -63.5 -84t-86.5 -62.5t-101.5 -39t-106.5 -13.5q-109 0 -199 40t-154.5 110t-100 165t-35.5 208zM231 500q0 -78 24 -147.5t69 -122t108.5 -83 t145.5 -30.5q84 0 148.5 31.5t108.5 86t66.5 125t22.5 148.5q0 74 -25 140.5t-71 115.5t-110.5 78.5t-144.5 29.5q-78 0 -141 -28.5t-107 -79.5t-69 -118.5t-25 -145.5z" />
<glyph unicode="r" horiz-adv-x="669" d="M135 0v991h166v-137h4q72 158 242 158q47 0 96 -19l-31 -159q-45 26 -106 26h-4q-98 0 -149.5 -90t-51.5 -278v-492h-166z" />
<glyph unicode="s" horiz-adv-x="825" d="M45 197l107 82q43 -72 108.5 -122.5t153.5 -50.5t137 53.5t49 121.5q0 55 -36 90t-88 60.5t-114.5 49t-114.5 56t-88 80t-36 122.5q0 61 23.5 112.5t64.5 88.5t98.5 56.5t124.5 19.5q100 0 167 -37t116 -96l-86 -101q-37 43 -85 74t-106 31q-74 0 -116.5 -42t-42.5 -102 q0 -45 35.5 -73.5t88 -52t115 -47t114.5 -57.5t88 -85t36 -131q0 -70 -26.5 -129t-73 -102t-110 -67t-134.5 -24q-123 0 -218.5 58.5t-150.5 163.5z" />
<glyph unicode="t" horiz-adv-x="567" d="M80 846v145h110v338h166v-338h181v-145h-181v-846h-166v846h-110z" />
<glyph unicode="u" horiz-adv-x="1056" d="M127 401v590h166v-565q0 -68 10 -125t37 -99t74 -65.5t121 -23.5t118.5 23.5t70.5 65.5t34 99t8 125v565h164v-590q0 -211 -101.5 -318.5t-300.5 -107.5q-203 0 -302 116t-99 310z" />
<glyph unicode="v" horiz-adv-x="980" d="M-2 991h180l316 -749h4l313 749h172l-461 -1030h-61z" />
<glyph unicode="w" horiz-adv-x="1615" d="M-2 991h174l297 -743h4l303 766h66l305 -766h6l293 743h172l-430 -1030h-76l-305 760l-303 -760h-80z" />
<glyph unicode="x" horiz-adv-x="944" d="M2 0l377 510l-354 481h192l256 -364h4l254 364h187l-355 -477l377 -514h-188l-283 395h-4l-277 -395h-186z" />
<glyph unicode="y" horiz-adv-x="1046" d="M-20 991h184l373 -794h4l340 794h174l-688 -1546h-172l258 578z" />
<glyph unicode="z" horiz-adv-x="976" d="M12 0l652 846h-572v145h860l-651 -848h637v-143h-926z" />
<glyph unicode="{" horiz-adv-x="641" d="M78 494v168q68 0 106.5 51t38.5 131v387q0 180 81 259t255 79v-146q-51 0 -85 -10t-54.5 -35.5t-28.5 -68.5t-8 -109v-356q0 -57 -8 -101.5t-25.5 -76t-46.5 -52t-70 -34.5v-7q84 -27 117 -85t33 -175v-358q0 -66 8 -109t28.5 -69.5t54.5 -36.5t85 -10v-146 q-174 0 -255 79t-81 259v391q0 78 -39 129.5t-106 51.5z" />
<glyph unicode="|" horiz-adv-x="653" d="M252 -418v2071h151v-2071h-151z" />
<glyph unicode="}" horiz-adv-x="641" d="M80 -270q53 0 87 10t53.5 36.5t27.5 69.5t8 109v358q0 117 34 175.5t118 84.5v7q-84 29 -118 88t-34 176v356q0 66 -8 109t-27.5 68.5t-53.5 35.5t-87 10v146q174 0 256 -79t82 -259v-387q0 -80 38 -131t105 -51v-168q-68 0 -105.5 -51.5t-37.5 -129.5v-391 q0 -180 -82 -259t-256 -79v146z" />
<glyph unicode="~" horiz-adv-x="956" d="M143 668q0 117 56.5 163t142.5 46q37 0 73 -12.5t69.5 -28t66.5 -28.5t63 -13q80 0 80 84h113q0 -117 -56.5 -163t-142.5 -46q-31 0 -66.5 12t-71.5 27.5t-69.5 28t-64.5 12.5q-80 0 -80 -82h-113z" />
<glyph unicode="&#xa1;" horiz-adv-x="686" d="M233 889q0 45 32 76.5t77 31.5t77 -31.5t32 -76.5t-32 -77t-77 -32t-77 32t-32 77zM264 561h160v-1132h-160v1132z" />
<glyph unicode="&#xa2;" horiz-adv-x="1105" d="M127 780q0 98 31.5 183.5t89 153t137.5 112.5t174 61v232h127v-226q82 -4 152.5 -26.5t130.5 -71.5v-170q-53 53 -132 88t-178 35q-80 0 -147.5 -26.5t-116.5 -76t-76.5 -117t-27.5 -149.5q0 -78 27.5 -146.5t77.5 -118.5t119 -79.5t151 -29.5q102 0 177 35.5t134 95.5 v-174q-66 -51 -137.5 -77t-155.5 -30v-231h-127v239q-92 16 -170 61.5t-136 113t-91 153.5t-33 186z" />
<glyph unicode="&#xa3;" horiz-adv-x="1179" d="M106 141q160 74 249 170.5t85 214.5h-266v117h238q-23 66 -69 124t-89 124q-37 57 -60.5 120.5t-23.5 149.5q0 80 34 155t93 131t140 90t175 34q96 0 174 -32t134.5 -88t87 -133t32.5 -165v-12h-161v12q0 57 -20.5 106.5t-56.5 85t-86 56t-112 20.5q-57 0 -106 -21.5 t-86 -58t-58.5 -86t-21.5 -102.5q0 -70 25.5 -128t66.5 -120q47 -70 94 -134t64 -128h284v-117h-260q10 -98 -43 -184t-155 -152q84 0 135 -10t90 -21.5t77 -21.5t93 -10q78 0 145.5 37t114.5 102l86 -114q-59 -90 -145 -134.5t-187 -44.5q-72 0 -121 11.5t-94 26t-94 25.5 t-121 11q-43 0 -98.5 -13.5t-126.5 -43.5z" />
<glyph unicode="&#xa4;" horiz-adv-x="1110" d="M63 1116l46 70q55 -63 118 -64q39 0 59.5 19.5t20.5 48.5q0 45 -69 74l-33 14q-63 29 -87 57.5t-24 69.5q0 59 43 102t109 43q47 0 83 -15t60 -40l-39 -70q-49 43 -98 43q-29 0 -48.5 -16t-19.5 -39t17.5 -38t58.5 -32l37 -16q104 -41 104 -131q0 -68 -46 -112t-126 -44 q-102 0 -166 76zM453 1047l98 497h67l130 -338l131 338h71l97 -497h-95l-53 305h-6l-119 -316h-55l-115 316h-6l-55 -305h-90z" />
<glyph unicode="&#xa5;" horiz-adv-x="1368" d="M72 1544h200l416 -729h4l408 729h200l-233 -397q-43 -74 -85 -145.5t-75 -128t-53 -89.5l-20 -34h358v-129h-418v-148h418v-127h-418v-346h-176v346h-414v127h414v148h-414v129h355z" />
<glyph unicode="&#xa7;" horiz-adv-x="1243" d="M215 -233l109 108q53 -63 126.5 -103t153.5 -40q109 0 169.5 52t60.5 146q0 70 -44.5 113t-111 78t-143 67.5t-143 80.5t-110.5 118t-44 178q0 129 68.5 219t195.5 131q-135 59 -193.5 135t-58.5 181q0 70 28.5 132t81 108.5t124 73t157.5 26.5q115 0 209 -47t154 -125 l-101 -111q-49 59 -116.5 97t-139.5 38q-106 0 -167.5 -51t-61.5 -145q0 -68 45 -111t113.5 -76.5t147.5 -65.5t147.5 -80t113.5 -118.5t45 -181.5q0 -129 -66.5 -220t-195.5 -132q68 -31 113 -66t71.5 -74t37.5 -85t11 -97q0 -70 -26.5 -131t-76.5 -107.5t-123 -73 t-165 -26.5q-121 0 -225 49.5t-170 135.5zM397 578q0 -49 17.5 -93.5t48.5 -78t76 -54t100 -20.5q53 0 96 19.5t74 53t48 79t17 94.5t-18 94t-51 78.5t-78 53t-100 19.5q-49 0 -91 -19.5t-73 -53t-48.5 -78.5t-17.5 -94z" />
<glyph unicode="&#xa8;" horiz-adv-x="933" d="M156 1325q0 43 30.5 72.5t73.5 29.5q41 0 71.5 -29.5t30.5 -72.5q0 -41 -30.5 -70.5t-71.5 -29.5q-43 0 -73.5 29.5t-30.5 70.5zM573 1325q0 43 30 72.5t71 29.5t71.5 -29.5t30.5 -72.5q0 -41 -30.5 -70.5t-71.5 -29.5t-71 29.5t-30 70.5z" />
<glyph unicode="&#xa9;" horiz-adv-x="1673" d="M35 774q0 164 61.5 309.5t170 254t256 171t319.5 62.5t319.5 -62.5t256 -171t171 -254t62.5 -311.5t-61.5 -311.5t-170 -254t-256 -171t-319.5 -62.5q-174 0 -322.5 62.5t-256 172t-169 255t-61.5 311.5zM121 772q0 -147 56 -277t153.5 -227.5t228.5 -154t283 -56.5 q156 0 288 54.5t229 150.5t151.5 227t54.5 283q0 147 -56.5 277.5t-154 227.5t-228.5 153.5t-282 56.5q-156 0 -288 -55.5t-228.5 -152.5t-151.5 -227t-55 -280zM399 776q0 96 36 181t99.5 148.5t150.5 100.5t189 37q164 0 279 -98v-131l-2 -2q-45 53 -120 89t-154 36 q-80 0 -147.5 -28t-115 -76t-74 -114.5t-26.5 -144.5q0 -76 27.5 -142.5t76 -115.5t115 -76.5t144.5 -27.5q74 0 151.5 34.5t122.5 85.5h2v-131q-61 -43 -130 -68.5t-149 -25.5q-104 0 -191 37t-150.5 100.5t-98.5 149.5t-35 182z" />
<glyph unicode="&#xaa;" horiz-adv-x="860" d="M70 1237q0 72 23.5 133.5t65.5 108.5t101 73.5t131 26.5q143 0 213 -109h2v91h135v-652h-135v99h-2q-29 -57 -86 -86t-129 -29q-68 0 -126 25.5t-101 71.5t-67.5 109.5t-24.5 137.5zM203 1235q0 -43 14 -83t42 -69.5t65.5 -48t85.5 -18.5q49 0 85.5 18.5t62.5 49t39 71.5 t13 86q0 43 -14 83t-42 68.5t-64.5 46t-83.5 17.5q-94 0 -148.5 -64.5t-54.5 -156.5z" />
<glyph unicode="&#xab;" horiz-adv-x="913" d="M66 506l315 385l94 -76l-250 -309l252 -309l-96 -78zM379 506l313 385l96 -76l-251 -309l251 -309l-96 -78z" />
<glyph unicode="&#xac;" horiz-adv-x="641" d="M80 -82q53 0 87 11.5t53.5 37t27.5 68.5t8 108v359q0 117 35 176t117 86v4q-84 29 -118 88t-34 176v357q0 66 -8 108.5t-27.5 68t-53.5 36t-87 10.5v147q174 0 256 -80t82 -260v-387q0 -78 38 -129t105 -51v-170q-68 0 -105.5 -51t-37.5 -129v-389q0 -180 -82 -260 t-256 -80v145z" />
<glyph unicode="&#xad;" horiz-adv-x="1304" d="M129 453v145h1049v-145h-1049z" />
<glyph unicode="&#xae;" horiz-adv-x="1673" d="M35 774q0 164 61.5 309.5t170 254t256 171t319.5 62.5t319.5 -62.5t256 -171t171 -254t62.5 -311.5t-61.5 -311.5t-170 -254t-256 -171t-319.5 -62.5q-174 0 -322.5 62.5t-256 172t-169 255t-61.5 311.5zM121 772q0 -147 56 -277t153.5 -227.5t228.5 -154t283 -56.5 q156 0 288 54.5t229 150.5t151.5 227t54.5 283q0 147 -56.5 277.5t-154 227.5t-228.5 153.5t-282 56.5q-156 0 -288 -55.5t-228.5 -152.5t-151.5 -227t-55 -280zM616 322v905h177q150 0 225.5 -65.5t75.5 -184.5q0 -98 -61.5 -163.5t-178.5 -76.5l293 -415h-127l-283 409h-8 v-409h-113zM729 823h62q186 0 186 152q0 84 -49 119.5t-164 35.5h-35v-307z" />
<glyph unicode="&#xaf;" horiz-adv-x="1009" d="M154 1294v125h700v-125h-700z" />
<glyph unicode="&#xb0;" horiz-adv-x="819" d="M102 1264q0 63 24 118.5t64.5 97.5t97 66.5t120.5 24.5q63 0 119.5 -24.5t98.5 -66.5t66.5 -97.5t24.5 -118.5t-24.5 -120t-66.5 -97.5t-98.5 -65.5t-119.5 -25t-119 25t-97.5 65.5t-65.5 97t-24 120.5zM219 1264q0 -84 53.5 -140.5t137.5 -56.5q82 0 136 56.5t54 140.5 q0 41 -14.5 75.5t-40 61t-61 42t-76.5 15.5q-82 0 -135.5 -57.5t-53.5 -136.5z" />
<glyph unicode="&#xb1;" horiz-adv-x="1024" d="M102 698v148h820v-148h-820z" />
<glyph unicode="&#xb4;" horiz-adv-x="657" d="M123 1159l217 334h188l-262 -334h-143z" />
<glyph unicode="&#xb5;" horiz-adv-x="1132" d="M47 846v145h113v363q0 166 101 265t280 99q88 0 157.5 -25.5t118.5 -73.5t76 -114.5t27 -150.5v-363h182v-145h-182v-846h-164v846h-430v-846h-166v846h-113zM326 991h430v352q0 106 -57.5 166t-159.5 60q-98 0 -155.5 -56.5t-57.5 -169.5v-352z" />
<glyph unicode="&#xb6;" horiz-adv-x="1306" d="M193 1110q0 96 30.5 176t91 137.5t148.5 89t203 31.5h374v-1544h-125v1421h-188v-1421h-125v680q-100 8 -177 43t-128 91t-77.5 132t-26.5 164z" />
<glyph unicode="&#xb7;" horiz-adv-x="641" d="M215 772q0 43 30.5 74t76.5 31q43 0 73.5 -31t30.5 -74t-30.5 -73.5t-73.5 -30.5q-45 0 -76 30.5t-31 73.5z" />
<glyph unicode="&#xb8;" horiz-adv-x="587" d="M104 -365l205 302l125 -82l-239 -275z" />
<glyph unicode="&#xba;" horiz-adv-x="819" d="M63 1235q0 74 26 136.5t72 108.5t109.5 71.5t141.5 25.5q80 0 143 -26.5t107.5 -72.5t69 -108.5t24.5 -134.5q0 -74 -24.5 -136.5t-71 -108.5t-111 -71.5t-141.5 -25.5q-78 0 -141.5 25.5t-108.5 71.5t-70 108.5t-25 136.5zM197 1235q0 -92 56 -155.5t155 -63.5 q102 0 158.5 63.5t56.5 155.5q0 45 -14.5 85t-42 69.5t-66.5 47t-88 17.5t-89 -17.5t-68 -47t-43 -69.5t-15 -85z" />
<glyph unicode="&#xbb;" horiz-adv-x="913" d="M125 197l252 309l-252 309l98 76l312 -385l-312 -387zM438 197l252 309l-252 309l97 76l313 -385l-313 -387z" />
<glyph unicode="&#xbf;" horiz-adv-x="1001" d="M61 -129q0 102 34 187t95.5 146.5t145.5 96.5t184 41v223h164v-350h-59q-186 -2 -291 -92t-105 -250q0 -72 25 -131t70 -101t105 -66t132 -24q94 0 169 42t132 106l101 -98q-68 -96 -168.5 -148.5t-223.5 -52.5q-111 0 -205 35t-161.5 98.5t-105.5 149.5t-38 188z M492 889q0 47 30.5 77.5t77.5 30.5t77 -30.5t30 -77.5q0 -45 -30 -77t-77 -32t-77.5 32t-30.5 77z" />
<glyph unicode="&#xc0;" horiz-adv-x="1384" d="M4 0l643 1581h94l637 -1581h-188l-178 446h-645l-181 -446h-182zM379 2009h188l217 -334h-143zM422 594h534l-266 666h-2z" />
<glyph unicode="&#xc1;" horiz-adv-x="1384" d="M4 0l643 1581h94l637 -1581h-188l-178 446h-645l-181 -446h-182zM422 594h534l-266 666h-2zM614 1675l217 334h189l-262 -334h-144z" />
<glyph unicode="&#xc2;" horiz-adv-x="1384" d="M4 0l643 1581h94l637 -1581h-188l-178 446h-645l-181 -446h-182zM344 1661l274 340h156l273 -340h-158l-195 244l-190 -244h-160zM422 594h534l-266 666h-2z" />
<glyph unicode="&#xc3;" horiz-adv-x="1384" d="M4 0l643 1581h94l637 -1581h-188l-178 446h-645l-181 -446h-182zM354 1722q0 119 54.5 169.5t152.5 50.5q37 0 73 -13.5t69.5 -30t67.5 -30t67 -13.5q80 0 80 89h122q0 -121 -53 -171.5t-151 -50.5q-33 0 -69 13.5t-73 29t-71.5 28.5t-65.5 13q-80 0 -80 -84h-123z M422 594h534l-266 666h-2z" />
<glyph unicode="&#xc4;" horiz-adv-x="1384" d="M4 0l643 1581h94l637 -1581h-188l-178 446h-645l-181 -446h-182zM383 1827q0 43 30.5 72.5t73.5 29.5q41 0 72 -29.5t31 -72.5q0 -41 -31 -71t-72 -30q-43 0 -73.5 30t-30.5 71zM422 594h534l-266 666h-2zM801 1827q0 43 29.5 72.5t70.5 29.5t72 -29.5t31 -72.5 q0 -41 -31 -71t-72 -30t-70.5 30t-29.5 71z" />
<glyph unicode="&#xc5;" horiz-adv-x="1384" d="M4 0l633 1556q-63 14 -101 64.5t-38 118.5q0 88 54 143t144 55q92 0 144.5 -56t52.5 -142q0 -68 -39 -118t-104 -65l628 -1556h-188l-178 446h-645l-181 -446h-182zM422 594h534l-266 666h-2zM594 1739q0 -47 26.5 -77t73.5 -30q49 0 77 30t28 77t-28 76.5t-75 29.5 t-74.5 -29.5t-27.5 -76.5z" />
<glyph unicode="&#xc6;" horiz-adv-x="2072" d="M-16 0l1175 1544h785v-155h-598v-498h579v-152h-579v-583h598v-156h-775v446h-639l-344 -446h-202zM647 594h522v696h-2z" />
<glyph unicode="&#xc7;" horiz-adv-x="1462" d="M72 774q0 164 60.5 309.5t168 254t256 171t324.5 62.5q137 0 256.5 -43t218.5 -125v-207l-4 -2q-82 98 -210 155.5t-261 57.5q-135 0 -251 -48t-201 -133t-132 -201t-47 -251q0 -131 50 -247.5t136 -202.5t202 -136.5t247 -50.5q61 0 126.5 14.5t128 41t118 64.5t94.5 85 l4 -2v-203q-106 -78 -223 -121t-250 -43q-178 0 -327.5 62.5t-257.5 172t-167 255t-59 311.5zM649 -395l205 301l125 -82l-240 -275z" />
<glyph unicode="&#xc8;" horiz-adv-x="1058" d="M156 0v1544h774v-155h-598v-498h579v-152h-579v-583h598v-156h-774zM281 1987h188l217 -334h-143z" />
<glyph unicode="&#xc9;" horiz-adv-x="1058" d="M156 0v1544h774v-155h-598v-498h579v-152h-579v-583h598v-156h-774zM410 1653l217 334h188l-262 -334h-143z" />
<glyph unicode="&#xca;" horiz-adv-x="1058" d="M156 0v1544h774v-155h-598v-498h579v-152h-579v-583h598v-156h-774zM188 1653l275 340h155l273 -340h-158l-194 243l-191 -243h-160z" />
<glyph unicode="&#xcb;" horiz-adv-x="1058" d="M156 0v1544h774v-155h-598v-498h579v-152h-579v-583h598v-156h-774zM229 1819q0 43 31 72.5t74 29.5q41 0 71.5 -29.5t30.5 -72.5q0 -41 -30.5 -71t-71.5 -30q-43 0 -74 30t-31 71zM647 1819q0 43 30 72.5t71 29.5t71.5 -29.5t30.5 -72.5q0 -41 -31 -71t-71 -30 q-41 0 -71 30t-30 71z" />
<glyph unicode="&#xcc;" horiz-adv-x="485" d="M-82 1987h188l218 -334h-144zM156 0v1544h176v-1544h-176z" />
<glyph unicode="&#xcd;" horiz-adv-x="485" d="M156 0v1544h176v-1544h-176zM164 1653l217 334h188l-262 -334h-143z" />
<glyph unicode="&#xce;" horiz-adv-x="485" d="M-104 1653l274 340h156l272 -340h-158l-194 243l-191 -243h-159zM156 0v1544h176v-1544h-176z" />
<glyph unicode="&#xcf;" horiz-adv-x="485" d="M-66 1819q0 43 31 72.5t74 29.5q41 0 71.5 -29.5t30.5 -72.5q0 -41 -30.5 -71t-71.5 -30q-43 0 -74 30t-31 71zM156 0v1544h176v-1544h-176zM352 1819q0 43 30 72.5t71 29.5t71.5 -29.5t30.5 -72.5q0 -41 -30.5 -71t-71.5 -30t-71 30t-30 71z" />
<glyph unicode="&#xd0;" horiz-adv-x="1388" d="M-10 698v150h166v696h381q170 0 313 -59.5t247.5 -163.5t163 -244.5t58.5 -304.5q0 -160 -57.5 -300t-161 -244.5t-246.5 -166t-317 -61.5h-381v698h-166zM332 156h176q156 0 274.5 49t198.5 134t120 196.5t40 236.5t-40 236.5t-120 196.5t-197.5 134.5t-275.5 49.5h-176 v-541h321v-150h-321v-542z" />
<glyph unicode="&#xd1;" horiz-adv-x="1677" d="M156 0v1559h98l1089 -1244h3v1229h174v-1581h-97l-1089 1251h-4v-1214h-174zM481 1714q0 119 54.5 169t152.5 50q37 0 73 -13t69.5 -29.5t67.5 -30t67 -13.5q80 0 79 88h123q0 -121 -53 -171t-151 -50q-33 0 -69 13.5t-73 29t-71.5 28.5t-65.5 13q-80 0 -80 -84h-123z " />
<glyph unicode="&#xd2;" d="M70 774q0 164 61.5 309.5t170 254t256 171t319.5 62.5t320.5 -62.5t257 -171t171 -254t62.5 -311.5t-61.5 -311.5t-170 -254t-256 -171t-319.5 -62.5q-174 0 -323.5 62.5t-257 172t-169 255t-61.5 311.5zM248 774q0 -131 49 -248.5t135 -205t202 -138.5t247 -51 q133 0 248.5 48t199.5 134t132 204t48 255q0 131 -49 248t-135 204t-201.5 138t-246.5 51q-135 0 -250 -49t-200 -135t-132 -203t-47 -252zM537 2009h188l217 -334h-143z" />
<glyph unicode="&#xd3;" d="M70 774q0 164 61.5 309.5t170 254t256 171t319.5 62.5t320.5 -62.5t257 -171t171 -254t62.5 -311.5t-61.5 -311.5t-170 -254t-256 -171t-319.5 -62.5q-174 0 -323.5 62.5t-257 172t-169 255t-61.5 311.5zM248 774q0 -131 49 -248.5t135 -205t202 -138.5t247 -51 q133 0 248.5 48t199.5 134t132 204t48 255q0 131 -49 248t-135 204t-201.5 138t-246.5 51q-135 0 -250 -49t-200 -135t-132 -203t-47 -252zM784 1675l217 334h189l-262 -334h-144z" />
<glyph unicode="&#xd4;" d="M72 774q0 164 61.5 309.5t170 254t256 171t319.5 62.5t320.5 -62.5t257 -171t171 -254t62.5 -311.5t-61.5 -311.5t-170 -254t-256 -171t-319.5 -62.5q-174 0 -323.5 62.5t-257 172t-169 255t-61.5 311.5zM250 774q0 -131 49 -248.5t135 -205t202 -138.5t247 -51 q133 0 248.5 48t199.5 134t132 204t48 255q0 131 -49 248t-135 204t-201.5 138t-246.5 51q-135 0 -250 -49t-200 -135t-132 -203t-47 -252zM524 1661l275 340h155l273 -340h-158l-195 244l-190 -244h-160z" />
<glyph unicode="&#xd5;" d="M70 774q0 164 61.5 309.5t170 254t256 171t319.5 62.5t320.5 -62.5t257 -171t171 -254t62.5 -311.5t-61.5 -311.5t-170 -254t-256 -171t-319.5 -62.5q-174 0 -323.5 62.5t-257 172t-169 255t-61.5 311.5zM248 774q0 -131 49 -248.5t135 -205t202 -138.5t247 -51 q133 0 248.5 48t199.5 134t132 204t48 255q0 131 -49 248t-135 204t-201.5 138t-246.5 51q-135 0 -250 -49t-200 -135t-132 -203t-47 -252zM514 1722q0 119 54.5 169.5t152.5 50.5q37 0 72.5 -13.5t69.5 -30t68 -30t66 -13.5q80 0 80 89h123q0 -121 -53 -171.5t-152 -50.5 q-33 0 -68.5 13.5t-72.5 29t-71.5 28.5t-65.5 13q-80 0 -80 -84h-123z" />
<glyph unicode="&#xd6;" d="M70 774q0 164 61.5 309.5t170 254t256 171t319.5 62.5t320.5 -62.5t257 -171t171 -254t62.5 -311.5t-61.5 -311.5t-170 -254t-256 -171t-319.5 -62.5q-174 0 -323.5 62.5t-257 172t-169 255t-61.5 311.5zM248 774q0 -131 49 -248.5t135 -205t202 -138.5t247 -51 q133 0 248.5 48t199.5 134t132 204t48 255q0 131 -49 248t-135 204t-201.5 138t-246.5 51q-135 0 -250 -49t-200 -135t-132 -203t-47 -252zM561 1827q0 43 31 72.5t74 29.5q41 0 71.5 -29.5t30.5 -72.5q0 -41 -30.5 -71t-71.5 -30q-43 0 -74 30t-31 71zM979 1827 q0 43 29.5 72.5t70.5 29.5t72 -29.5t31 -72.5q0 -41 -31 -71t-72 -30t-70.5 30t-29.5 71z" />
<glyph unicode="&#xd7;" horiz-adv-x="1282" d="M221 479l301 301l-301 301l107 107l301 -301l303 301l102 -105l-301 -303l303 -301l-104 -106l-305 303l-301 -301z" />
<glyph unicode="&#xd8;" d="M70 774q0 164 61.5 309.5t170 254t256 171t319.5 62.5q147 0 275 -47t232 -129l183 188l92 -86l-180 -186q98 -109 153.5 -246t55.5 -293q0 -166 -61.5 -311.5t-170 -254t-256 -171t-319.5 -62.5q-154 0 -285 49.5t-236 135.5q-31 -31 -62.5 -64t-59.5 -61 q-33 -33 -62 -66l-86 84l180 187q-96 106 -148 243t-52 293zM248 774q0 -117 38 -219t105 -186l881 901q-82 66 -182.5 104.5t-212.5 38.5q-135 0 -250 -49t-200 -135t-132 -203t-47 -252zM475 281q82 -70 185.5 -110t220.5 -40q133 0 248.5 48t199.5 134t132 204t48 255 q0 117 -41 221.5t-112 188.5q-246 -252 -441 -451q-82 -84 -161.5 -165t-141 -144.5t-99.5 -101.5z" />
<glyph unicode="&#xd9;" horiz-adv-x="1411" d="M143 559v985h176v-950q0 -242 98.5 -353.5t299.5 -111.5q199 0 288 111.5t89 353.5v950h174v-985q0 -283 -141.5 -435.5t-419.5 -152.5q-274 0 -419 156t-145 432zM422 1987h188l217 -334h-143z" />
<glyph unicode="&#xda;" horiz-adv-x="1411" d="M143 559v985h176v-950q0 -242 98.5 -353.5t299.5 -111.5q199 0 288 111.5t89 353.5v950h174v-985q0 -283 -141.5 -435.5t-419.5 -152.5q-274 0 -419 156t-145 432zM578 1653l217 334h188l-262 -334h-143z" />
<glyph unicode="&#xdb;" horiz-adv-x="1411" d="M143 559v985h176v-950q0 -242 98.5 -353.5t299.5 -111.5q199 0 288 111.5t89 353.5v950h174v-985q0 -283 -141.5 -435.5t-419.5 -152.5q-274 0 -419 156t-145 432zM348 1653l275 340h155l273 -340h-158l-195 243l-190 -243h-160z" />
<glyph unicode="&#xdc;" horiz-adv-x="1411" d="M143 559v985h176v-950q0 -242 98.5 -353.5t299.5 -111.5q199 0 288 111.5t89 353.5v950h174v-985q0 -283 -141.5 -435.5t-419.5 -152.5q-274 0 -419 156t-145 432zM401 1819q0 43 31 72.5t74 29.5q41 0 71.5 -29.5t30.5 -72.5q0 -41 -30.5 -71t-71.5 -30q-43 0 -74 30 t-31 71zM819 1819q0 43 30 72.5t71 29.5t71.5 -29.5t30.5 -72.5q0 -41 -30.5 -71t-71.5 -30t-71 30t-30 71z" />
<glyph unicode="&#xdd;" horiz-adv-x="1226" d="M-4 1544h203l415 -729h4l410 729h199l-527 -897v-647h-174v647zM506 1653l217 334h188l-262 -334h-143z" />
<glyph unicode="&#xde;" horiz-adv-x="1064" d="M156 0v1544h176v-338h200q115 0 203 -31.5t147.5 -89t90.5 -137.5t31 -176t-30 -176t-89.5 -137.5t-147.5 -89t-202 -31.5h-203v-338h-176zM332 487h168q176 0 253.5 77t77.5 208t-77.5 208t-253.5 75h-168v-568z" />
<glyph unicode="&#xdf;" horiz-adv-x="1069" d="M137 0v1303q0 199 103.5 307t294.5 108q86 0 155.5 -27.5t119.5 -76.5t76.5 -119t26.5 -156q0 -51 -8 -96t-31.5 -90t-65.5 -94t-110 -111q-63 -57 -82.5 -93t-19.5 -77q0 -45 30.5 -76.5t76 -59.5t98.5 -55.5t98 -66.5t76 -92t31 -131q0 -70 -26 -129t-71 -102 t-108.5 -67t-138.5 -24q-127 0 -224 62l54 125q39 -27 82.5 -41.5t87.5 -14.5q92 0 139 51.5t47 123.5q0 55 -30 93t-76 68.5t-98 58t-98 63.5t-76 86t-30 122q0 61 24.5 112.5t92.5 116.5q66 59 104.5 104.5t59 84.5t27 73.5t6.5 75.5q0 109 -59.5 170.5t-164.5 61.5 q-115 0 -172 -78t-57 -227v-1266h-164z" />
<glyph unicode="&#xe0;" horiz-adv-x="1208" d="M74 502q0 109 34.5 202t99 162.5t155 109.5t198.5 40q111 0 206 -47t151 -135h4v157h163v-991h-163v168h-4q-47 -92 -147.5 -142.5t-211.5 -50.5q-106 0 -195.5 40t-154 110t-100 167t-35.5 210zM229 498q0 -76 26 -144.5t72 -122t111.5 -85t145.5 -31.5q84 0 148.5 31.5 t107.5 86t65.5 126t22.5 149.5q0 76 -24.5 142.5t-71 116.5t-111 80t-143.5 30q-82 0 -146.5 -30t-110 -81t-69 -119.5t-23.5 -148.5zM295 1493h188l217 -334h-143z" />
<glyph unicode="&#xe1;" horiz-adv-x="1208" d="M74 502q0 109 34.5 202t99 162.5t155 109.5t198.5 40q111 0 206 -47t151 -135h4v157h163v-991h-163v168h-4q-47 -92 -147.5 -142.5t-211.5 -50.5q-106 0 -195.5 40t-154 110t-100 167t-35.5 210zM229 498q0 -76 26 -144.5t72 -122t111.5 -85t145.5 -31.5q84 0 148.5 31.5 t107.5 86t65.5 126t22.5 149.5q0 76 -24.5 142.5t-71 116.5t-111 80t-143.5 30q-82 0 -146.5 -30t-110 -81t-69 -119.5t-23.5 -148.5zM492 1159l217 334h188l-262 -334h-143z" />
<glyph unicode="&#xe2;" horiz-adv-x="1208" d="M74 502q0 109 34.5 202t99 162.5t155 109.5t198.5 40q111 0 206 -47t151 -135h4v157h163v-991h-163v168h-4q-47 -92 -147.5 -142.5t-211.5 -50.5q-106 0 -195.5 40t-154 110t-100 167t-35.5 210zM229 498q0 -76 26 -144.5t72 -122t111.5 -85t145.5 -31.5q84 0 148.5 31.5 t107.5 86t65.5 126t22.5 149.5q0 76 -24.5 142.5t-71 116.5t-111 80t-143.5 30q-82 0 -146.5 -30t-110 -81t-69 -119.5t-23.5 -148.5zM256 1159l274 340h156l272 -340h-157l-195 244l-190 -244h-160z" />
<glyph unicode="&#xe3;" horiz-adv-x="1208" d="M74 502q0 109 34.5 202t99 162.5t155 109.5t198.5 40q111 0 206 -47t151 -135h4v157h163v-991h-163v168h-4q-47 -92 -147.5 -142.5t-211.5 -50.5q-106 0 -195.5 40t-154 110t-100 167t-35.5 210zM229 498q0 -76 26 -144.5t72 -122t111.5 -85t145.5 -31.5q84 0 148.5 31.5 t107.5 86t65.5 126t22.5 149.5q0 76 -24.5 142.5t-71 116.5t-111 80t-143.5 30q-82 0 -146.5 -30t-110 -81t-69 -119.5t-23.5 -148.5zM258 1221q0 119 54.5 169t152.5 50q37 0 72.5 -13.5t69.5 -30t68 -29.5t66 -13q80 0 80 88h123q0 -121 -53 -171t-152 -50q-33 0 -68.5 13 t-72.5 28.5t-71.5 29t-65.5 13.5q-80 0 -80 -84h-123z" />
<glyph unicode="&#xe4;" horiz-adv-x="1208" d="M74 502q0 109 34.5 202t99 162.5t155 109.5t198.5 40q111 0 206 -47t151 -135h4v157h163v-991h-163v168h-4q-47 -92 -147.5 -142.5t-211.5 -50.5q-106 0 -195.5 40t-154 110t-100 167t-35.5 210zM229 498q0 -76 26 -144.5t72 -122t111.5 -85t145.5 -31.5q84 0 148.5 31.5 t107.5 86t65.5 126t22.5 149.5q0 76 -24.5 142.5t-71 116.5t-111 80t-143.5 30q-82 0 -146.5 -30t-110 -81t-69 -119.5t-23.5 -148.5zM299 1323q0 43 30.5 72.5t73.5 29.5q41 0 72 -29.5t31 -72.5q0 -41 -31 -70.5t-72 -29.5q-43 0 -73.5 29.5t-30.5 70.5zM717 1323 q0 43 29.5 72.5t70.5 29.5t72 -29.5t31 -72.5q0 -41 -31 -70.5t-72 -29.5t-70.5 29.5t-29.5 70.5z" />
<glyph unicode="&#xe5;" horiz-adv-x="1208" d="M74 502q0 109 34.5 202t99 162.5t155 109.5t198.5 40q111 0 206 -47t151 -135h4v157h163v-991h-163v168h-4q-47 -92 -147.5 -142.5t-211.5 -50.5q-106 0 -195.5 40t-154 110t-100 167t-35.5 210zM229 498q0 -76 26 -144.5t72 -122t111.5 -85t145.5 -31.5q84 0 148.5 31.5 t107.5 86t65.5 126t22.5 149.5q0 76 -24.5 142.5t-71 116.5t-111 80t-143.5 30q-82 0 -146.5 -30t-110 -81t-69 -119.5t-23.5 -148.5zM399 1321q0 86 54.5 141.5t146.5 55.5t145.5 -55.5t53.5 -141.5q0 -84 -54.5 -140.5t-146.5 -56.5t-145.5 56.5t-53.5 140.5zM498 1321 q0 -45 26.5 -74.5t73.5 -29.5q49 0 76.5 29.5t27.5 74.5q0 47 -27.5 76.5t-74.5 29.5t-74.5 -29.5t-27.5 -76.5z" />
<glyph unicode="&#xe6;" horiz-adv-x="1845" d="M68 297q0 84 35.5 146.5t94 104.5t133.5 63.5t152 21.5q86 0 164 -27.5t131 -77.5l2 4q0 6 -1 24.5t-2 39t-3 39t-6 20.5q-6 119 -79 172.5t-200 53.5q-86 0 -161.5 -22.5t-151.5 -57.5v143q78 35 152.5 53.5t173.5 18.5q131 0 231.5 -50.5t149.5 -158.5h2 q66 96 168 152.5t237 56.5q119 0 211 -39t155.5 -111.5t96.5 -173t33 -223.5h-836q2 -84 31 -150.5t77 -113.5t112.5 -73t138.5 -26q111 0 189.5 52.5t129.5 140.5l139 -31q-31 -70 -78 -124t-108 -92t-133 -57.5t-150 -19.5q-145 0 -252.5 61.5t-168.5 166.5h-7 q-25 -55 -66.5 -98.5t-95 -72t-113.5 -43t-122 -14.5q-72 0 -144.5 20.5t-131 60.5t-94 100.5t-35.5 140.5zM225 307q0 -53 24.5 -92t64.5 -63.5t88.5 -36t97.5 -11.5q45 0 92 14.5t86 41t64.5 64.5t25.5 85q0 51 -21.5 89t-58.5 63.5t-84 39t-100 13.5t-103.5 -12.5 t-89.5 -39t-62.5 -64.5t-23.5 -91zM954 582h668q-10 66 -34.5 122t-64.5 97t-97.5 64.5t-135.5 23.5q-70 0 -129 -23.5t-102 -65.5t-70.5 -97.5t-34.5 -120.5z" />
<glyph unicode="&#xe7;" horiz-adv-x="991" d="M61 498q0 113 40 208t112 163.5t169 107.5t210 39q90 0 168 -23.5t143 -77.5v-165q-51 53 -132 90t-177 37q-80 0 -148.5 -29t-119 -79t-80 -118.5t-29.5 -150.5t29.5 -151.5t81 -121t121 -81t151.5 -29.5q100 0 177 35.5t134 95.5v-166q-72 -55 -150.5 -81t-172.5 -26 q-109 0 -204 38t-167 106.5t-114 165t-42 213.5zM379 -383l205 301l125 -82l-240 -274z" />
<glyph unicode="&#xe8;" horiz-adv-x="1116" d="M61 496q0 109 37 204t102.5 165.5t159 110.5t203.5 40q119 0 211 -39t155.5 -111.5t96.5 -173t31 -223.5h-834q2 -84 31 -150.5t77 -113.5t111.5 -73t137.5 -26q111 0 188.5 52.5t130.5 140.5l141 -31q-61 -141 -188 -217t-283 -76q-115 0 -209 40t-160.5 110t-102.5 165 t-36 206zM225 582h670q-10 66 -34.5 122t-64.5 97t-97.5 64.5t-135.5 23.5q-70 0 -129 -23.5t-103 -65.5t-71 -97.5t-35 -120.5zM250 1493h188l217 -334h-143z" />
<glyph unicode="&#xe9;" horiz-adv-x="1116" d="M61 496q0 109 37 204t102.5 165.5t159 110.5t203.5 40q119 0 211 -39t155.5 -111.5t96.5 -173t31 -223.5h-834q2 -84 31 -150.5t77 -113.5t111.5 -73t137.5 -26q111 0 188.5 52.5t130.5 140.5l141 -31q-61 -141 -188 -217t-283 -76q-115 0 -209 40t-160.5 110t-102.5 165 t-36 206zM225 582h670q-10 66 -34.5 122t-64.5 97t-97.5 64.5t-135.5 23.5q-70 0 -129 -23.5t-103 -65.5t-71 -97.5t-35 -120.5zM465 1159l217 334h188l-262 -334h-143z" />
<glyph unicode="&#xea;" horiz-adv-x="1116" d="M61 496q0 109 37 204t102.5 165.5t159 110.5t203.5 40q119 0 211 -39t155.5 -111.5t96.5 -173t31 -223.5h-834q2 -84 31 -150.5t77 -113.5t111.5 -73t137.5 -26q111 0 188.5 52.5t130.5 140.5l141 -31q-61 -141 -188 -217t-283 -76q-115 0 -209 40t-160.5 110t-102.5 165 t-36 206zM225 582h670q-10 66 -34.5 122t-64.5 97t-97.5 64.5t-135.5 23.5q-70 0 -129 -23.5t-103 -65.5t-71 -97.5t-35 -120.5zM225 1159l275 340h155l273 -340h-158l-195 244l-190 -244h-160z" />
<glyph unicode="&#xeb;" horiz-adv-x="1116" d="M61 496q0 109 37 204t102.5 165.5t159 110.5t203.5 40q119 0 211 -39t155.5 -111.5t96.5 -173t31 -223.5h-834q2 -84 31 -150.5t77 -113.5t111.5 -73t137.5 -26q111 0 188.5 52.5t130.5 140.5l141 -31q-61 -141 -188 -217t-283 -76q-115 0 -209 40t-160.5 110t-102.5 165 t-36 206zM225 582h670q-10 66 -34.5 122t-64.5 97t-97.5 64.5t-135.5 23.5q-70 0 -129 -23.5t-103 -65.5t-71 -97.5t-35 -120.5zM268 1323q0 43 31 72.5t74 29.5q41 0 71.5 -29.5t30.5 -72.5q0 -41 -30.5 -70.5t-71.5 -29.5q-43 0 -74 29.5t-31 70.5zM686 1323 q0 43 29.5 72.5t70.5 29.5t72 -29.5t31 -72.5q0 -41 -31 -70.5t-72 -29.5t-70.5 29.5t-29.5 70.5z" />
<glyph unicode="&#xec;" horiz-adv-x="477" d="M-88 1493h188l217 -334h-143zM156 0v991h166v-991h-166z" />
<glyph unicode="&#xed;" horiz-adv-x="477" d="M143 1159l217 334h189l-262 -334h-144zM156 0v991h166v-991h-166z" />
<glyph unicode="&#xee;" horiz-adv-x="477" d="M-113 1159l275 340h155l273 -340h-158l-194 244l-191 -244h-160zM156 0v991h166v-991h-166z" />
<glyph unicode="&#xef;" horiz-adv-x="477" d="M-68 1325q0 43 31 72.5t74 29.5q41 0 71.5 -29.5t30.5 -72.5q0 -41 -30.5 -70.5t-71.5 -29.5q-43 0 -74 29.5t-31 70.5zM156 0v991h166v-991h-166zM350 1325q0 43 30 72.5t71 29.5t71.5 -29.5t30.5 -72.5q0 -41 -30.5 -70.5t-71.5 -29.5t-71 29.5t-30 70.5z" />
<glyph unicode="&#xf1;" horiz-adv-x="1069" d="M135 0v991h166v-139h4q47 78 124 121t185 43q158 0 243 -96.5t85 -280.5v-639h-164v598q0 61 -9 112.5t-33.5 89.5t-66.5 59.5t-108 21.5q-63 0 -111.5 -27t-81 -74t-50 -110.5t-17.5 -137.5v-532h-166zM201 1221q0 119 54 169t153 50q37 0 72.5 -13.5t69.5 -30 t67.5 -29.5t66.5 -13q80 0 80 88h123q0 -121 -53.5 -171t-151.5 -50q-33 0 -68.5 13t-72.5 28.5t-72 29t-66 13.5q-80 0 -79 -84h-123z" />
<glyph unicode="&#xf2;" horiz-adv-x="1171" d="M61 496q0 111 38 206t107.5 164.5t167 109.5t216.5 40q121 0 217 -40t163.5 -110.5t103.5 -165.5t36 -204q0 -111 -38 -205t-107.5 -165t-167 -111t-213.5 -40q-119 0 -215.5 40t-165 111t-105.5 165t-37 205zM217 496q0 -76 24.5 -145.5t71.5 -122t116 -83t155 -30.5 t155.5 30.5t116.5 83t72.5 121t25.5 146.5q0 76 -24.5 144.5t-71.5 120.5t-114.5 84t-153.5 32t-154.5 -31t-117 -83t-75 -121t-26.5 -146zM240 1493h188l217 -334h-143z" />
<glyph unicode="&#xf3;" horiz-adv-x="1171" d="M61 496q0 111 38 206t107.5 164.5t167 109.5t216.5 40q121 0 217 -40t163.5 -110.5t103.5 -165.5t36 -204q0 -111 -38 -205t-107.5 -165t-167 -111t-213.5 -40q-119 0 -215.5 40t-165 111t-105.5 165t-37 205zM217 496q0 -76 24.5 -145.5t71.5 -122t116 -83t155 -30.5 t155.5 30.5t116.5 83t72.5 121t25.5 146.5q0 76 -24.5 144.5t-71.5 120.5t-114.5 84t-153.5 32t-154.5 -31t-117 -83t-75 -121t-26.5 -146zM500 1159l217 334h188l-262 -334h-143z" />
<glyph unicode="&#xf4;" horiz-adv-x="1171" d="M61 496q0 111 38 206t107.5 164.5t167 109.5t216.5 40q121 0 217 -40t163.5 -110.5t103.5 -165.5t36 -204q0 -111 -38 -205t-107.5 -165t-167 -111t-213.5 -40q-119 0 -215.5 40t-165 111t-105.5 165t-37 205zM217 496q0 -76 24.5 -145.5t71.5 -122t116 -83t155 -30.5 t155.5 30.5t116.5 83t72.5 121t25.5 146.5q0 76 -24.5 144.5t-71.5 120.5t-114.5 84t-153.5 32t-154.5 -31t-117 -83t-75 -121t-26.5 -146zM236 1159l274 340h156l272 -340h-158l-194 244l-191 -244h-159z" />
<glyph unicode="&#xf5;" horiz-adv-x="1171" d="M61 496q0 111 38 206t107.5 164.5t167 109.5t216.5 40q121 0 217 -40t163.5 -110.5t103.5 -165.5t36 -204q0 -111 -38 -205t-107.5 -165t-167 -111t-213.5 -40q-119 0 -215.5 40t-165 111t-105.5 165t-37 205zM217 496q0 -76 24.5 -145.5t71.5 -122t116 -83t155 -30.5 t155.5 30.5t116.5 83t72.5 121t25.5 146.5q0 76 -24.5 144.5t-71.5 120.5t-114.5 84t-153.5 32t-154.5 -31t-117 -83t-75 -121t-26.5 -146zM246 1221q0 119 54 169t153 50q37 0 72.5 -13.5t69.5 -30t67.5 -29.5t66.5 -13q80 0 80 88h123q0 -121 -53.5 -171t-151.5 -50 q-33 0 -68.5 13t-72.5 28.5t-72 29t-65 13.5q-80 0 -80 -84h-123z" />
<glyph unicode="&#xf6;" horiz-adv-x="1171" d="M61 496q0 111 38 206t107.5 164.5t167 109.5t216.5 40q121 0 217 -40t163.5 -110.5t103.5 -165.5t36 -204q0 -111 -38 -205t-107.5 -165t-167 -111t-213.5 -40q-119 0 -215.5 40t-165 111t-105.5 165t-37 205zM217 496q0 -76 24.5 -145.5t71.5 -122t116 -83t155 -30.5 t155.5 30.5t116.5 83t72.5 121t25.5 146.5q0 76 -24.5 144.5t-71.5 120.5t-114.5 84t-153.5 32t-154.5 -31t-117 -83t-75 -121t-26.5 -146zM279 1325q0 43 30.5 72.5t73.5 29.5q41 0 71.5 -29.5t30.5 -72.5q0 -41 -30.5 -70.5t-71.5 -29.5q-43 0 -73.5 29.5t-30.5 70.5z M696 1325q0 43 30 72.5t71 29.5t71.5 -29.5t30.5 -72.5q0 -41 -30.5 -70.5t-71.5 -29.5t-71 29.5t-30 70.5z" />
<glyph unicode="&#xf7;" horiz-adv-x="1282" d="M129 707v147h1001v-147h-1001zM532 385q0 39 28 67.5t69 28.5q39 0 66.5 -28.5t27.5 -67.5q0 -41 -27.5 -68.5t-66.5 -27.5q-41 0 -69 27.5t-28 68.5zM532 1176q0 39 28 66.5t69 27.5q39 0 66.5 -27.5t27.5 -66.5q0 -41 -27.5 -69t-66.5 -28q-41 0 -69 28t-28 69z" />
<glyph unicode="&#xf8;" horiz-adv-x="1171" d="M61 29l119 123q-57 68 -88 156.5t-31 187.5q0 111 38 206t107.5 164.5t167 109.5t216.5 40q98 0 179 -26.5t144 -76.5l105 107l74 -70l-103 -104q121 -145 121 -350q0 -111 -38 -205t-107.5 -165t-167 -111t-213.5 -40q-100 0 -182.5 29t-147.5 80l-121 -123zM217 496 q0 -63 17.5 -123t50.5 -107l524 535q-41 35 -97.5 55.5t-121.5 20.5q-86 0 -154.5 -31t-117 -83t-75 -121t-26.5 -146zM356 195q43 -37 99.5 -58.5t128.5 -21.5q86 0 155.5 30.5t116.5 83t72.5 121t25.5 146.5q0 131 -73 233z" />
<glyph unicode="&#xf9;" horiz-adv-x="1056" d="M127 401v590h166v-565q0 -68 10 -125t37 -99t74 -65.5t121 -23.5t118.5 23.5t70.5 65.5t34 99t8 125v565h164v-590q0 -211 -101.5 -318.5t-300.5 -107.5q-203 0 -302 116t-99 310zM223 1493h189l217 -334h-144z" />
<glyph unicode="&#xfa;" horiz-adv-x="1056" d="M127 401v590h166v-565q0 -68 10 -125t37 -99t74 -65.5t121 -23.5t118.5 23.5t70.5 65.5t34 99t8 125v565h164v-590q0 -211 -101.5 -318.5t-300.5 -107.5q-203 0 -302 116t-99 310zM410 1159l217 334h188l-262 -334h-143z" />
<glyph unicode="&#xfb;" horiz-adv-x="1056" d="M127 401v590h166v-565q0 -68 10 -125t37 -99t74 -65.5t121 -23.5t118.5 23.5t70.5 65.5t34 99t8 125v565h164v-590q0 -211 -101.5 -318.5t-300.5 -107.5q-203 0 -302 116t-99 310zM178 1159l275 340h155l273 -340h-158l-195 244l-190 -244h-160z" />
<glyph unicode="&#xfc;" horiz-adv-x="1056" d="M127 401v590h166v-565q0 -68 10 -125t37 -99t74 -65.5t121 -23.5t118.5 23.5t70.5 65.5t34 99t8 125v565h164v-590q0 -211 -101.5 -318.5t-300.5 -107.5q-203 0 -302 116t-99 310zM219 1325q0 43 31 72.5t74 29.5q41 0 71.5 -29.5t30.5 -72.5q0 -41 -30.5 -70.5 t-71.5 -29.5q-43 0 -74 29.5t-31 70.5zM637 1325q0 43 29.5 72.5t70.5 29.5t72 -29.5t31 -72.5q0 -41 -31 -70.5t-72 -29.5t-70.5 29.5t-29.5 70.5z" />
<glyph unicode="&#xfd;" horiz-adv-x="1046" d="M-20 991h184l373 -794h4l340 794h174l-688 -1546h-172l258 578zM422 1159l217 334h188l-262 -334h-143z" />
<glyph unicode="&#xfe;" horiz-adv-x="1200" d="M143 -545v2237h164v-871h4q53 86 150.5 131t202.5 45q109 0 196.5 -39.5t149 -109.5t95.5 -163.5t34 -199.5q0 -111 -35 -204t-97.5 -161.5t-149.5 -106.5t-191 -38q-111 0 -205 44t-150 131h-4v-695h-164zM299 471q0 -74 24.5 -138.5t69.5 -112.5t108.5 -74.5 t141.5 -26.5t139.5 29.5t106.5 78.5t68.5 114.5t23.5 137.5t-23.5 139.5t-67.5 120t-106.5 84t-142.5 31.5q-82 0 -145.5 -31.5t-107.5 -85t-66.5 -122t-22.5 -144.5z" />
<glyph unicode="&#xff;" horiz-adv-x="1046" d="M-20 991h184l373 -794h4l340 794h174l-688 -1546h-172l258 578zM215 1325q0 43 30.5 72.5t73.5 29.5q41 0 72 -29.5t31 -72.5q0 -41 -31 -70.5t-72 -29.5q-43 0 -73.5 29.5t-30.5 70.5zM633 1325q0 43 29.5 72.5t70.5 29.5t72 -29.5t31 -72.5q0 -41 -31 -70.5t-72 -29.5 t-70.5 29.5t-29.5 70.5z" />
<glyph unicode="&#x152;" horiz-adv-x="1959" d="M70 772q0 164 58 304.5t162.5 244.5t249 163.5t314.5 59.5h977v-155h-598v-498h579v-152h-579v-583h598v-156h-977q-174 0 -318.5 61.5t-248 166t-160.5 244.5t-57 300zM248 772q0 -125 41 -236.5t120.5 -196.5t198.5 -134t275 -49h174v1233h-174q-158 0 -277 -49.5 t-198.5 -134.5t-119.5 -196.5t-40 -236.5z" />
<glyph unicode="&#x153;" horiz-adv-x="2004" d="M61 496q0 111 38 206t106.5 164.5t166 109.5t214.5 40q156 0 271.5 -72t174.5 -188q59 117 171 188.5t253 71.5q117 0 208 -40t154.5 -111.5t95.5 -172t32 -223.5h-824q2 -84 30 -150.5t76 -113.5t111.5 -71.5t135.5 -24.5q106 0 184 51t129 139l139 -31 q-59 -141 -185 -217t-280 -76q-147 0 -259.5 72t-172.5 189q-63 -117 -181 -189t-271 -72q-117 0 -212.5 40t-163 111t-104.5 165t-37 205zM217 496q0 -76 24.5 -145.5t71.5 -122t116 -83t155 -30.5t155.5 30.5t116.5 83t72.5 121t25.5 146.5q0 76 -24.5 144.5t-71.5 120.5 t-114.5 84t-153.5 32t-154.5 -31t-117 -83t-75 -121t-26.5 -146zM1124 580h660q-10 66 -35 121t-64.5 95t-96 63.5t-132.5 23.5q-70 0 -127 -23.5t-100 -64.5t-71 -96.5t-34 -118.5z" />
<glyph unicode="&#x178;" horiz-adv-x="1226" d="M-4 1544h203l415 -729h4l410 729h199l-527 -897v-647h-174v647zM303 1819q0 43 31 72.5t74 29.5q41 0 71.5 -29.5t30.5 -72.5q0 -41 -30.5 -71t-71.5 -30q-43 0 -74 30t-31 71zM721 1819q0 43 29.5 72.5t70.5 29.5t72 -29.5t31 -72.5q0 -41 -31 -71t-72 -30t-70.5 30 t-29.5 71z" />
<glyph unicode="&#x2c6;" horiz-adv-x="929" d="M115 1159l274 340h156l272 -340h-158l-194 244l-191 -244h-159z" />
<glyph unicode="&#x2dc;" horiz-adv-x="935" d="M123 1221q0 119 54 169t153 50q37 0 72.5 -13.5t69.5 -30t67.5 -29.5t66.5 -13q80 0 80 88h123q0 -121 -53.5 -171t-151.5 -50q-33 0 -68.5 13t-72.5 28.5t-72 29t-65 13.5q-80 0 -80 -84h-123z" />
<glyph unicode="&#x2000;" horiz-adv-x="1004" />
<glyph unicode="&#x2001;" horiz-adv-x="2009" />
<glyph unicode="&#x2002;" horiz-adv-x="1004" />
<glyph unicode="&#x2003;" horiz-adv-x="2009" />
<glyph unicode="&#x2004;" horiz-adv-x="669" />
<glyph unicode="&#x2005;" horiz-adv-x="502" />
<glyph unicode="&#x2006;" horiz-adv-x="334" />
<glyph unicode="&#x2007;" horiz-adv-x="334" />
<glyph unicode="&#x2008;" horiz-adv-x="251" />
<glyph unicode="&#x2009;" horiz-adv-x="401" />
<glyph unicode="&#x200a;" horiz-adv-x="111" />
<glyph unicode="&#x2010;" horiz-adv-x="882" d="M102 584v143h678v-143h-678z" />
<glyph unicode="&#x2011;" horiz-adv-x="882" d="M102 584v143h678v-143h-678z" />
<glyph unicode="&#x2012;" horiz-adv-x="882" d="M102 584v143h678v-143h-678z" />
<glyph unicode="&#x2013;" horiz-adv-x="1024" d="M102 582v147h820v-147h-820z" />
<glyph unicode="&#x2014;" horiz-adv-x="1536" d="M102 582v147h1332v-147h-1332z" />
<glyph unicode="&#x2018;" horiz-adv-x="610" d="M180 1157q0 53 17.5 111.5t48 116t73.5 107.5t95 89l65 -51q-78 -72 -128 -160t-56 -190q55 8 88 -22t33 -75q0 -43 -30 -72.5t-77 -29.5q-57 0 -93 47t-36 129z" />
<glyph unicode="&#x2019;" horiz-adv-x="610" d="M133 1020q78 72 128 160t56 190q-55 -8 -87.5 21.5t-32.5 74.5q0 43 29.5 73t76.5 30q57 0 93 -47t36 -129q0 -53 -17.5 -111.5t-48 -116t-73.5 -107.5t-94 -89z" />
<glyph unicode="&#x201a;" horiz-adv-x="610" d="M133 -340q78 72 128 160t56 190q-55 -8 -87.5 21.5t-32.5 74.5q0 43 29.5 73t76.5 30q57 0 93 -47t36 -129q0 -53 -17.5 -111.5t-48 -116t-73.5 -107.5t-94 -89z" />
<glyph unicode="&#x201c;" horiz-adv-x="983" d="M180 1157q0 53 17.5 111.5t48 116t73.5 107.5t95 89l65 -51q-78 -72 -128 -160t-56 -190q55 8 88 -22t33 -75q0 -43 -30 -72.5t-77 -29.5q-57 0 -93 47t-36 129zM553 1157q0 53 17.5 111.5t48 116t73.5 107.5t94 89l66 -51q-78 -72 -128 -160t-56 -190q55 8 87.5 -22 t32.5 -75q0 -43 -29.5 -72.5t-76.5 -29.5q-57 0 -93 47t-36 129z" />
<glyph unicode="&#x201d;" horiz-adv-x="983" d="M133 1020q78 72 128 160t56 190q-55 -8 -87.5 21.5t-32.5 74.5q0 43 29.5 73t76.5 30q57 0 93 -47t36 -129q0 -53 -17.5 -111.5t-48 -116t-73.5 -107.5t-94 -89zM506 1020q78 72 128 160t56 190q-55 -8 -88 21.5t-33 74.5q0 43 30 73t77 30q57 0 93 -47t36 -129 q0 -53 -17.5 -111.5t-48 -116t-73.5 -107.5t-95 -89z" />
<glyph unicode="&#x201e;" horiz-adv-x="983" d="M133 -340q78 72 128 160t56 190q-55 -8 -87.5 21.5t-32.5 74.5q0 43 29.5 73t76.5 30q57 0 93 -47t36 -129q0 -53 -17.5 -111.5t-48 -116t-73.5 -107.5t-94 -89zM506 -340q78 72 128 160t56 190q-55 -8 -88 21.5t-33 74.5q0 43 30 73t77 30q57 0 93 -47t36 -129 q0 -53 -17.5 -111.5t-48 -116t-73.5 -107.5t-95 -89z" />
<glyph unicode="&#x2022;" horiz-adv-x="614" d="M63 772q0 49 18.5 93t52.5 77t79 51.5t96 18.5t95.5 -18.5t76 -51.5t50 -77t18.5 -93q0 -51 -18.5 -95t-50 -77t-76 -51.5t-95.5 -18.5t-96 18.5t-79 51.5t-52.5 77t-18.5 95z" />
<glyph unicode="&#x2026;" horiz-adv-x="1613" d="M215 80q0 43 30.5 73.5t76.5 30.5q43 0 73.5 -30.5t30.5 -73.5t-30.5 -75t-73.5 -32q-45 0 -76 32t-31 75zM702 80q0 43 31 73.5t74 30.5t73.5 -30.5t30.5 -73.5t-30.5 -75t-73.5 -32t-74 32t-31 75zM1190 80q0 43 30.5 73.5t73.5 30.5t74 -30.5t31 -73.5t-31 -75 t-74 -32t-73.5 32t-30.5 75z" />
<glyph unicode="&#x202f;" horiz-adv-x="401" />
<glyph unicode="&#x2039;" horiz-adv-x="602" d="M66 506l315 385l94 -76l-250 -309l252 -309l-96 -78z" />
<glyph unicode="&#x203a;" horiz-adv-x="602" d="M125 197l252 309l-252 309l98 76l312 -385l-312 -387z" />
<glyph unicode="&#x205f;" horiz-adv-x="502" />
<glyph unicode="&#x2122;" horiz-adv-x="1077" d="M70 1458v86h319v-86h-113v-411h-92v411h-114zM406 1047l98 497h69l129 -338l132 338h69l98 -497h-96l-53 305h-6l-117 -316h-55l-115 316h-6l-57 -305h-90z" />
<glyph unicode="&#x25fc;" horiz-adv-x="993" d="M0 0v993h993v-993h-993z" />
</font>
</defs>
</svg>
