<?xml version="1.0" encoding="utf-8"?>
<!-- Generator: Adobe Illustrator 16.0.0, SVG Export Plug-In . SVG Version: 6.00 Build 0)  -->
<!DOCTYPE svg PUBLIC "-//W3C//DTD SVG 1.1//EN" "http://www.w3.org/Graphics/SVG/1.1/DTD/svg11.dtd">
<svg version="1.1" id="Layer_1" xmlns="http://www.w3.org/2000/svg" xmlns:xlink="http://www.w3.org/1999/xlink" x="0px" y="0px"
	 width="33px" height="34px" viewBox="0 0 33 34" enable-background="new 0 0 33 34" xml:space="preserve">
<path fill="#010101" d="M16.368,12.935h3.205V8.129h4.805V4.925h-4.805V0.119h-3.205v4.807h-4.805v3.204h4.805V12.935z
	 M9.959,27.354c-1.771,0-3.188,1.433-3.188,3.204c0,1.769,1.417,3.203,3.188,3.203c1.771,0,3.204-1.435,3.204-3.203
	C13.163,28.787,11.73,27.354,9.959,27.354z M25.979,27.354c-1.77,0-3.188,1.433-3.188,3.204c0,1.769,1.419,3.203,3.188,3.203
	c1.771,0,3.205-1.435,3.205-3.203C29.185,28.787,27.75,27.354,25.979,27.354z M10.24,22.146c0-0.07,0.016-0.136,0.048-0.192
	l1.442-2.61h11.935c1.201,0,2.25-0.665,2.803-1.649l6.185-11.232l-2.802-1.537h-0.008l-1.771,3.204l-4.414,8.01H12.419l-0.208-0.432
	L8.613,8.129L7.091,4.925L5.578,1.721h-5.23v3.205h3.204l5.768,12.152l-2.17,3.925c-0.248,0.466-0.393,0.985-0.393,1.546
	c0,1.771,1.433,3.205,3.204,3.205h19.225v-3.205H10.641C10.416,22.548,10.24,22.37,10.24,22.146z"/>
</svg>
