<?xml version="1.0" encoding="utf-8"?>
<!-- Generator: Adobe Illustrator 16.0.0, SVG Export Plug-In . SVG Version: 6.00 Build 0)  -->
<!DOCTYPE svg PUBLIC "-//W3C//DTD SVG 1.1//EN" "http://www.w3.org/Graphics/SVG/1.1/DTD/svg11.dtd">
<svg version="1.1" id="Layer_1" xmlns="http://www.w3.org/2000/svg" xmlns:xlink="http://www.w3.org/1999/xlink" x="0px" y="0px"
	 width="167.45px" height="62.96px" viewBox="8.363 -0.375 167.45 62.96" enable-background="new 8.363 -0.375 167.45 62.96"
	 xml:space="preserve">
<polygon fill="#FFFFFF" points="8.363,16.51 23.937,1 39.507,16.51 35.793,20.895 26.806,11.938 26.806,51.234 21.067,51.234 
	21.067,11.938 12.08,20.895 "/>
<g>
	<path fill="#FFFFFF" d="M54.314,51.729L35.568,29.704h-0.08v21.55H30.75V21.337h3.632l18.751,21.905h0.037V21.493h4.778v30.235
		H54.314L54.314,51.729z"/>
</g>
<g>
	<g>
		<path fill="#FFFFFF" d="M74.151,51.689c-1.087,0.36-2.25,0.541-3.49,0.541c-1.32,0-2.555-0.229-3.706-0.692
			c-1.148-0.47-2.163-1.125-3.043-1.979c-0.879-0.853-1.571-1.867-2.073-3.043c-0.505-1.175-0.757-2.477-0.757-3.898
			c0-1.369,0.243-2.635,0.736-3.797c0.492-1.168,1.168-2.174,2.036-3.026c0.867-0.854,1.886-1.517,3.062-1.992
			c1.176-0.479,2.434-0.72,3.781-0.72c1.188,0,2.3,0.162,3.333,0.484c1.034,0.32,2.002,0.871,2.906,1.646v2.018
			c-0.697-0.754-1.597-1.377-2.695-1.879c-1.1-0.5-2.307-0.759-3.624-0.759c-1.086,0-2.105,0.207-3.062,0.616
			c-0.958,0.413-1.784,0.979-2.483,1.691c-0.697,0.711-1.254,1.556-1.669,2.537c-0.415,0.983-0.618,2.045-0.618,3.177
			c0,1.112,0.198,2.167,0.6,3.159c0.399,0.996,0.956,1.854,1.667,2.578c0.713,0.728,1.551,1.303,2.521,1.727
			c0.969,0.426,2.011,0.64,3.123,0.64c1.394,0,2.615-0.254,3.661-0.761c1.046-0.499,1.984-1.193,2.812-2.068v2.016
			C76.245,50.734,75.236,51.33,74.151,51.689z"/>
	</g>
</g>
<g>
	<g>
		<path fill="#FFFFFF" d="M91.267,50.335c-1.057,1.267-2.726,1.899-4.999,1.899c-1.191,0-2.203-0.188-3.043-0.562
			c-0.838-0.375-1.521-0.89-2.038-1.55c-0.518-0.659-0.897-1.454-1.145-2.386c-0.247-0.926-0.368-1.937-0.368-3.022V33.473h1.821
			v10.973c0,0.878,0.063,1.705,0.192,2.484c0.127,0.771,0.378,1.438,0.752,1.993c0.374,0.554,0.871,0.996,1.498,1.32
			c0.626,0.321,1.442,0.487,2.44,0.487c1.001,0,1.8-0.168,2.402-0.487c0.603-0.324,1.071-0.765,1.404-1.32
			c0.334-0.555,0.561-1.222,0.673-1.993c0.114-0.777,0.172-1.604,0.172-2.484V33.473h1.821v11.241
			C92.86,47.189,92.329,49.068,91.267,50.335z"/>
	</g>
</g>
<g>
	<g>
		<path fill="#FFFFFF" d="M113.252,42.54c0,1.351-0.213,2.606-0.64,3.786c-0.424,1.174-1.026,2.201-1.798,3.081
			c-0.771,0.877-1.723,1.571-2.844,2.071c-1.119,0.504-2.381,0.756-3.771,0.756c-0.67,0-1.353-0.092-2.048-0.271
			c-0.7-0.179-1.364-0.439-1.996-0.775c-0.628-0.33-1.196-0.748-1.7-1.238c-0.502-0.489-0.908-1.049-1.215-1.672h-0.08v3.57h-1.824
			V19.863h1.824v17.02h0.08c0.694-1.213,1.693-2.152,2.995-2.812c1.304-0.656,2.646-0.986,4.038-0.986s2.646,0.243,3.751,0.721
			c1.108,0.479,2.052,1.143,2.824,1.994c0.771,0.852,1.364,1.854,1.776,3.003C113.04,39.955,113.252,41.198,113.252,42.54z
			 M111.547,42.54c0-1.136-0.162-2.188-0.485-3.153c-0.323-0.972-0.79-1.812-1.41-2.521c-0.616-0.705-1.374-1.265-2.261-1.665
			c-0.889-0.396-1.9-0.604-3.037-0.604c-1.107,0-2.105,0.207-2.996,0.618c-0.893,0.41-1.654,0.968-2.299,1.667
			c-0.646,0.692-1.143,1.52-1.491,2.463c-0.347,0.946-0.521,1.941-0.521,3.004c0,1.113,0.156,2.174,0.468,3.178
			c0.308,1.008,0.764,1.904,1.368,2.677c0.609,0.776,1.365,1.388,2.27,1.842c0.902,0.457,1.936,0.683,3.092,0.683
			c1.109,0,2.114-0.226,3.016-0.683c0.904-0.454,1.672-1.057,2.299-1.819c0.631-0.761,1.125-1.639,1.477-2.617
			C111.375,44.626,111.547,43.602,111.547,42.54z"/>
	</g>
</g>
<g>
	<path fill="#FFFFFF" d="M130.85,51.845v-3.567h-0.077c-0.31,0.619-0.718,1.181-1.224,1.668c-0.502,0.492-1.072,0.906-1.705,1.24
		c-0.633,0.338-1.299,0.599-1.994,0.777c-0.7,0.178-1.385,0.268-2.055,0.268c-1.396,0-2.659-0.25-3.781-0.752
		c-1.126-0.502-2.074-1.195-2.852-2.071c-0.772-0.884-1.377-1.909-1.802-3.079c-0.425-1.182-0.642-2.438-0.642-3.788
		c0-1.34,0.208-2.586,0.617-3.737c0.41-1.148,1.009-2.152,1.785-3.003c0.774-0.854,1.717-1.517,2.824-1.993
		c1.115-0.479,2.369-0.722,3.766-0.722c1.394,0,2.742,0.33,4.053,0.988c1.301,0.657,2.304,1.599,3.001,2.812h0.077V33.47h1.781
		v18.38h-1.775L130.85,51.845L130.85,51.845z M130.969,42.35c0-1.062-0.178-2.061-0.526-3.004c-0.348-0.943-0.838-1.771-1.476-2.463
		c-0.633-0.703-1.398-1.257-2.305-1.67c-0.906-0.412-1.914-0.618-3.023-0.618c-1.141,0-2.152,0.206-3.045,0.618
		c-0.893,0.413-1.645,0.977-2.268,1.689c-0.619,0.709-1.091,1.557-1.412,2.537c-0.324,0.982-0.484,2.043-0.484,3.177
		c0,1.06,0.173,2.077,0.523,3.04c0.348,0.972,0.838,1.828,1.476,2.583c0.63,0.752,1.399,1.35,2.303,1.803
		c0.905,0.455,1.912,0.683,3.028,0.683c1.16,0,2.193-0.228,3.101-0.683c0.904-0.453,1.66-1.063,2.267-1.843
		c0.611-0.772,1.066-1.666,1.381-2.672C130.818,44.521,130.969,43.461,130.969,42.35z"/>
</g>
<g>
	<g>
		<path fill="#FFFFFF" d="M146.362,46.575c0,0.801-0.152,1.546-0.445,2.228c-0.301,0.688-0.709,1.278-1.222,1.783
			c-0.521,0.504-1.131,0.903-1.842,1.201c-0.712,0.298-1.479,0.443-2.308,0.443c-1.551,0-2.873-0.438-3.974-1.316
			c-1.101-0.877-1.878-2.055-2.348-3.523l1.517-0.543c0.406,1.059,1.023,1.967,1.84,2.729c0.812,0.764,1.842,1.146,3.08,1.146
			c0.616,0,1.176-0.113,1.666-0.35c0.492-0.232,0.912-0.527,1.262-0.895c0.35-0.361,0.615-0.777,0.797-1.261
			c0.181-0.479,0.27-0.965,0.27-1.454c0-0.8-0.217-1.453-0.658-1.957c-0.436-0.5-0.99-0.94-1.664-1.32
			c-0.676-0.375-1.396-0.717-2.168-1.028c-0.774-0.308-1.498-0.663-2.174-1.062c-0.669-0.398-1.229-0.89-1.664-1.455
			c-0.441-0.566-0.658-1.287-0.658-2.17c0-1.395,0.471-2.524,1.412-3.392c0.94-0.864,2.154-1.299,3.623-1.299
			c1.215,0,2.205,0.269,2.965,0.796c0.765,0.53,1.391,1.221,1.877,2.072l-1.352,0.851c-0.39-0.67-0.877-1.208-1.457-1.606
			c-0.584-0.396-1.281-0.604-2.113-0.604c-0.981,0-1.77,0.312-2.36,0.93c-0.601,0.621-0.896,1.362-0.896,2.213
			c0,0.673,0.217,1.216,0.658,1.627c0.439,0.41,0.995,0.789,1.664,1.123c0.678,0.338,1.396,0.658,2.173,0.968
			c0.772,0.312,1.497,0.688,2.171,1.128c0.67,0.441,1.225,0.968,1.668,1.587C146.14,44.793,146.362,45.592,146.362,46.575z"/>
	</g>
</g>
<g>
	<g>
		<path fill="#FFFFFF" d="M151.872,62.585h-1.824l4.377-10.433l-8.803-18.687h1.864l7.792,16.636h0.078l6.975-16.636h1.826
			L151.872,62.585z"/>
	</g>
</g>
<g>
	<g>
		<path fill="#FFFFFF" d="M175.813,46.575c0,0.801-0.152,1.546-0.447,2.228c-0.297,0.688-0.701,1.278-1.222,1.783
			c-0.517,0.504-1.129,0.903-1.838,1.201c-0.716,0.298-1.483,0.443-2.31,0.443c-1.552,0-2.873-0.438-3.974-1.316
			c-1.101-0.877-1.879-2.055-2.351-3.523l1.513-0.543c0.416,1.059,1.03,1.967,1.841,2.729c0.812,0.764,1.844,1.146,3.084,1.146
			c0.615,0,1.174-0.113,1.67-0.35c0.485-0.232,0.908-0.527,1.258-0.895c0.352-0.361,0.614-0.777,0.797-1.261
			c0.182-0.479,0.271-0.965,0.271-1.454c0-0.8-0.22-1.453-0.658-1.957c-0.438-0.5-0.993-0.94-1.663-1.32
			c-0.68-0.375-1.398-0.717-2.175-1.028c-0.772-0.308-1.496-0.663-2.17-1.062c-0.672-0.398-1.229-0.89-1.665-1.455
			c-0.441-0.566-0.665-1.287-0.665-2.17c0-1.395,0.478-2.524,1.415-3.392c0.943-0.864,2.154-1.299,3.625-1.299
			c1.214,0,2.204,0.269,2.967,0.796c0.764,0.53,1.387,1.221,1.881,2.072l-1.355,0.851c-0.389-0.67-0.876-1.208-1.457-1.606
			c-0.58-0.396-1.281-0.604-2.109-0.604c-0.986,0-1.775,0.312-2.369,0.93c-0.593,0.621-0.889,1.362-0.889,2.213
			c0,0.673,0.219,1.216,0.658,1.627c0.438,0.41,0.992,0.789,1.667,1.123c0.672,0.338,1.394,0.658,2.165,0.968
			c0.779,0.312,1.502,0.688,2.174,1.128c0.674,0.441,1.229,0.968,1.667,1.587C175.59,44.793,175.813,45.592,175.813,46.575z"/>
	</g>
</g>
</svg>
