<?xml version="1.0" encoding="utf-8"?>
<!-- Generator: Adobe Illustrator 16.0.0, SVG Export Plug-In . SVG Version: 6.00 Build 0)  -->
<!DOCTYPE svg PUBLIC "-//W3C//DTD SVG 1.1//EN" "http://www.w3.org/Graphics/SVG/1.1/DTD/svg11.dtd">
<svg version="1.1" id="Layer_1" xmlns="http://www.w3.org/2000/svg" xmlns:xlink="http://www.w3.org/1999/xlink" x="0px" y="0px"
	 width="30px" height="30px" viewBox="0 0 30 30" enable-background="new 0 0 30 30" xml:space="preserve">
<symbol  id="Facebook" viewBox="-14 -13.8 28 27.601">
	<path fill="#2E91D7" d="M-0.1,13.801C-7.7,13.801-14,7.5-14-0.1c0-6.9,5-12.6,11.6-13.7v10.101h-2.8v3.6h2.8v0.7
		c0,1.5,0.3,2.899,1,3.899C-1.2,4.7-1.1,4.801-1,4.9c0.4,0.4,1,0.8,1.601,1c0.299,0.1,0.699,0.2,1.1,0.2c0.4,0.1,0.8,0.1,1.199,0.1
		c0.101,0,0.201,0,0.301,0c0.199,0,0.4,0,0.699,0c0.301,0,0.701,0,0.9-0.1c0.1,0,0.1,0,0.2,0s0.101,0,0.101,0v-3.5l0,0
		c-0.101,0-0.4,0-0.601,0s-0.399,0-0.5,0c-0.8,0-1.2-0.2-1.5-0.5C2.399,1.9,2.2,1.7,2.101,1.4c0-0.1-0.101-0.3-0.101-0.5
		s0-0.4,0-0.6v-0.4h3.601L5.3-3.699h-3V-13.8C8.899-12.8,14-7,14-0.1C13.7,7.5,7.5,13.801-0.1,13.801z"/>
</symbol>
<use xlink:href="#Facebook"  width="28" height="27.601" id="XMLID_7_" x="-14" y="-13.8" transform="matrix(0.9893 0 0 -0.9893 14.9502 14.9492)" overflow="visible"/>
</svg>
