<?xml version="1.0" encoding="utf-8"?>
<!-- Generator: Adobe Illustrator 16.0.0, SVG Export Plug-In . SVG Version: 6.00 Build 0)  -->
<!DOCTYPE svg PUBLIC "-//W3C//DTD SVG 1.1//EN" "http://www.w3.org/Graphics/SVG/1.1/DTD/svg11.dtd">
<svg version="1.1" id="Layer_1" xmlns="http://www.w3.org/2000/svg" xmlns:xlink="http://www.w3.org/1999/xlink" x="0px" y="0px"
	 width="29px" height="29px" viewBox="0 0 29 29" enable-background="new 0 0 29 29" xml:space="preserve">
<g>
	<path fill="#2E91D7" d="M29,14.5c0,8-6.5,14.5-14.5,14.5S0,22.5,0,14.5S6.5,0,14.5,0S29,6.5,29,14.5z"/>
</g>
<rect x="8" y="8" fill="#FFFFFF" width="3" height="3"/>
<rect x="13" y="8" fill="#FFFFFF" width="3" height="3"/>
<rect x="18" y="8" fill="#FFFFFF" width="3" height="3"/>
<rect x="8" y="13" fill="#FFFFFF" width="3" height="3"/>
<rect x="13" y="13" fill="#FFFFFF" width="3" height="3"/>
<rect x="18" y="13" fill="#FFFFFF" width="3" height="3"/>
<rect x="8" y="18" fill="#FFFFFF" width="3" height="3"/>
<rect x="13" y="18" fill="#FFFFFF" width="3" height="3"/>
<rect x="18" y="18" fill="#FFFFFF" width="3" height="3"/>
</svg>
