<?xml version="1.0" encoding="utf-8"?>
<!-- Generator: Adobe Illustrator 16.0.0, SVG Export Plug-In . SVG Version: 6.00 Build 0)  -->
<!DOCTYPE svg PUBLIC "-//W3C//DTD SVG 1.1//EN" "http://www.w3.org/Graphics/SVG/1.1/DTD/svg11.dtd">
<svg version="1.1" xmlns="http://www.w3.org/2000/svg" xmlns:xlink="http://www.w3.org/1999/xlink" x="0px" y="0px" width="30px"
	 height="30px" viewBox="0 0 30 30" enable-background="new 0 0 30 30" xml:space="preserve">
<g id="Layer_1">
</g>
<g id="Layer_2">
	<path display="none" fill="#0085A2" d="M63.93,29h2c-0.33,0.03-0.66,0.04-1,0.04S64.26,29.03,63.93,29z"/>
	<path fill="#FFFFFF" d="M21.2,21.53v6.02c-1.28,0.65-2.681,1.11-4.16,1.33c0.03-0.04,0.04-0.08,0.04-0.13v-7.81
		C17.09,20.14,17.81,19,19.17,19C21.07,19,21.2,20.14,21.2,21.53z"/>
	<path fill="#FFFFFF" d="M28.87,15.1c0-7.69-6.24-13.93-13.94-13.93C7.24,1.17,1,7.41,1,15.1c0,4.209,1.87,7.99,4.82,10.54v-9.68
		c0-0.14,0.109-0.25,0.25-0.25H10c0.141,0,0.25,0.12,0.25,0.26V28.23c0.77,0.279,1.58,0.489,2.42,0.619
		c-0.01-0.029-0.02-0.069-0.02-0.1V15.97c0-0.14,0.119-0.26,0.26-0.26h3.92c0.14,0,0.25,0.12,0.25,0.26v1.23
		c0.7-0.75,2.02-1.681,3.93-1.681c3.181,0,4.32,2.29,4.61,3.36c0,0,0.01,0.01,0.01,0.851v4.31C27.65,21.62,28.87,18.5,28.87,15.1z
		 M8.04,14.32c-1.229,0-2.22-0.99-2.22-2.22c0-1.22,0.99-2.21,2.22-2.21c1.22,0,2.21,0.99,2.21,2.21
		C10.25,13.33,9.26,14.32,8.04,14.32z"/>
	<g display="none">
		<g display="inline">
			<path fill="#FFFFFF" d="M10.25,12.1c0,1.23-0.99,2.22-2.21,2.22c-1.23,0-2.22-0.99-2.22-2.22c0-1.22,0.99-2.21,2.22-2.21
				C9.26,9.89,10.25,10.88,10.25,12.1z"/>
			<path fill="#FFFFFF" d="M10.25,15.97V28.23c-1.64-0.58-3.14-1.471-4.43-2.591v-9.68c0-0.14,0.11-0.25,0.25-0.25H10
				C10.14,15.71,10.25,15.83,10.25,15.97z"/>
			<path fill="#FFFFFF" d="M10.25,28.23v0.52c0,0.14-0.11,0.25-0.25,0.25H6.07c-0.14,0-0.25-0.11-0.25-0.25v-3.11
				C7.11,26.76,8.61,27.65,10.25,28.23z"/>
			<path fill="#FFFFFF" d="M25.63,19.73v4.31c-1.22,1.45-2.72,2.65-4.43,3.51v-6.02c0-1.391-0.13-2.53-2.03-2.53
				c-1.36,0-2.08,1.14-2.09,1.94v7.81c0,0.05-0.01,0.09-0.04,0.13C16.68,28.94,16.3,28.98,15.93,29h-2
				c-0.43-0.03-0.85-0.07-1.26-0.14V28.85c-0.01-0.029-0.02-0.069-0.02-0.1V15.97c0-0.14,0.12-0.26,0.26-0.26h3.92
				c0.14,0,0.25,0.12,0.25,0.26v1.23c0.7-0.75,2.02-1.681,3.93-1.681c3.181,0,4.32,2.29,4.61,3.36
				C25.62,18.88,25.63,18.89,25.63,19.73z"/>
			<path fill="#FFFFFF" d="M12.67,28.86c0.41,0.069,0.83,0.109,1.26,0.14h-1.02C12.81,29,12.72,28.94,12.67,28.86z"/>
			<path fill="#FFFFFF" d="M15.93,29c0.37-0.02,0.75-0.06,1.11-0.12C17,28.95,16.92,29,16.83,29H15.93z"/>
			<path fill="#FFFFFF" d="M25.63,24.04v4.71c0,0.14-0.12,0.25-0.26,0.25h-3.92c-0.141,0-0.25-0.11-0.25-0.25v-1.2
				C22.91,26.69,24.41,25.49,25.63,24.04z"/>
		</g>
	</g>
</g>
</svg>
