<?xml version="1.0" encoding="utf-8"?>
<!-- Generator: Adobe Illustrator 18.0.0, SVG Export Plug-In . SVG Version: 6.00 Build 0)  -->
<!DOCTYPE svg PUBLIC "-//W3C//DTD SVG 1.1//EN" "http://www.w3.org/Graphics/SVG/1.1/DTD/svg11.dtd">
<svg version="1.1" id="Layer_1" xmlns="http://www.w3.org/2000/svg" xmlns:xlink="http://www.w3.org/1999/xlink" x="0px" y="0px"
	 width="30px" height="30px" viewBox="0 0 30 30" enable-background="new 0 0 30 30" xml:space="preserve">
<symbol  id="Facebook_-_On_Dark" viewBox="0.1 -27.7 27.7 27.5">
	<path fill="#FFFFFF" d="M14-0.1C6.4-0.1,0.1-6.4,0.1-14c0-6.9,5-12.6,11.6-13.7v10.1H8.9v3.6h2.8v0.7c0,1.5,0.3,2.9,1,3.9
		C12.9-9.2,13-9.1,13.1-9c0.4,0.4,1,0.8,1.6,1c0.3,0.1,0.7,0.2,1.1,0.2c0.4,0.1,0.8,0.1,1.2,0.1c0.1,0,0.2,0,0.3,0
		c0.2,0,0.4,0,0.7,0c0.3,0,0.7,0,0.9-0.1c0.1,0,0.1,0,0.2,0c0.1,0,0.1,0,0.1,0v-3.5c0,0,0,0,0,0c-0.1,0-0.4,0-0.6,0
		c-0.2,0-0.4,0-0.5,0c-0.8,0-1.2-0.2-1.5-0.5c-0.1-0.2-0.3-0.4-0.4-0.7c0-0.1-0.1-0.3-0.1-0.5c0-0.2,0-0.4,0-0.6V-14h3.6l-0.3-3.6
		h-3v-10.1c6.6,1,11.7,6.8,11.7,13.7C27.8-6.4,21.6-0.1,14-0.1z"/>
</symbol>
<use xlink:href="#Facebook_-_On_Dark"  width="27.7" height="27.5" id="XMLID_3_" x="0.1" y="-27.7" transform="matrix(1 0 0 -1 1 1)" overflow="visible"/>
</svg>
