<?xml version="1.0" encoding="utf-8"?>
<!-- Generator: Adobe Illustrator 18.0.0, SVG Export Plug-In . SVG Version: 6.00 Build 0)  -->
<!DOCTYPE svg PUBLIC "-//W3C//DTD SVG 1.1//EN" "http://www.w3.org/Graphics/SVG/1.1/DTD/svg11.dtd">
<svg version="1.1" id="Layer_1" xmlns="http://www.w3.org/2000/svg" xmlns:xlink="http://www.w3.org/1999/xlink" x="0px" y="0px"
	 width="30px" height="30px" viewBox="0 0 30 30" enable-background="new 0 0 30 30" xml:space="preserve">
<symbol  id="Twitter_-_Dark" viewBox="0.1 -27.9 27.7 27.7">
	<g>
		<g>
			<path fill="#FFFFFF" d="M14-0.1C6.4-0.1,0.1-6.4,0.1-14c0-7.6,6.2-13.9,13.9-13.9c7.6,0,13.9,6.2,13.9,13.9
				C27.9-6.4,21.6-0.1,14-0.1z M21.1-11.5c0-0.1,0-0.3,0-0.4c0-4-3.4-8.7-9.6-8.7c-1.9,0-3.7,0.5-5.2,1.4c0.3,0,0.5,0,0.8,0
				c1.6,0,3,0.5,4.2,1.3c-1.5,0-2.7,0.9-3.2,2.1c0.2,0,0.4-0.1,0.6-0.1c0.3,0,0.6,0,0.9,0.1c-1.6,0.3-2.7,1.5-2.7,3v0
				c0.5-0.2,1-0.4,1.5-0.4C7.6-12.6,7-11.7,7-10.6C7-10,7.1-9.5,7.4-9.1c1.7-1.8,4.2-3.1,7-3.2c-0.1,0.2-0.1,0.5-0.1,0.7
				c0,1.7,1.5,3.1,3.4,3.1c1,0,1.9-0.4,2.5-1c0.8,0.1,1.5,0.4,2.2,0.7c-0.3-0.7-0.8-1.3-1.5-1.7c0.7,0.1,1.3,0.2,1.9,0.5
				C22.4-10.5,21.8-11.1,21.1-11.5z"/>
		</g>
	</g>
</symbol>
<use xlink:href="#Twitter_-_Dark"  width="27.7" height="27.7" id="XMLID_2_" x="0.1" y="-27.9" transform="matrix(1 0 0 -1 1 1)" overflow="visible"/>
</svg>
