<?xml version="1.0" encoding="utf-8"?>
<!-- Generator: Adobe Illustrator 16.0.0, SVG Export Plug-In . SVG Version: 6.00 Build 0)  -->
<!DOCTYPE svg PUBLIC "-//W3C//DTD SVG 1.1//EN" "http://www.w3.org/Graphics/SVG/1.1/DTD/svg11.dtd">
<svg version="1.1" id="Layer_1" xmlns="http://www.w3.org/2000/svg" xmlns:xlink="http://www.w3.org/1999/xlink" x="0px" y="0px"
	 width="29px" height="29px" viewBox="0 0 29 29" enable-background="new 0 0 29 29" xml:space="preserve">
<g>
	<path fill="#2E91D7" d="M29,14.5c0,8-6.5,14.5-14.5,14.5S0,22.5,0,14.5S6.5,0,14.5,0S29,6.5,29,14.5z"/>
</g>
<g>
	<path fill="#FFFFFF" d="M17.8,15.8c-0.1,0.5-0.3,1.4,0.2,1.3c0.7-0.1,1.9-1.699,2-3.5c0.2-3.4-2.3-5.2-5.4-5.2
		C11.3,8.4,9,11,9,14.5c0,3.7,2.6,6.1,6,6.1c1.7,0,2.9-0.399,3.6-0.8l1.601,1.3c-1.4,0.7-3.2,1.4-5.4,1.4c-4.3,0-7.8-3.4-7.8-7.9
		c0-4.5,3.4-7.9,7.6-7.9c1.8,0,3.4,0.5,4.7,1.7c1.4,1.2,2.2,2.8,2.2,4.7c0,1.7-0.4,3.2-1.2,4.3c-1,1.3-2.1,1.8-3.1,1.8
		C16.6,19.2,16.1,18.7,16,18c-0.5,0.6-1.4,1.2-2.6,1.2c-1.8,0-3.4-1.7-3.4-3.7c0-2.5,1.6-4.8,4.1-4.8c1,0,1.9,0.4,2.5,1.2l0.2-1.1
		h1.9L17.8,15.8z M14.1,16.8c1.2,0,1.8-1.2,1.9-2.2c0.1-1.1-0.5-1.9-1.4-1.9c-1.1,0-2,1.2-2,2.3C12.6,15.9,13.1,16.8,14.1,16.8z"/>
</g>
</svg>
