<?xml version="1.0" encoding="utf-8"?>
<!-- Generator: Adobe Illustrator 18.0.0, SVG Export Plug-In . SVG Version: 6.00 Build 0)  -->
<!DOCTYPE svg PUBLIC "-//W3C//DTD SVG 1.1//EN" "http://www.w3.org/Graphics/SVG/1.1/DTD/svg11.dtd">
<svg version="1.1" id="Layer_1" xmlns="http://www.w3.org/2000/svg" xmlns:xlink="http://www.w3.org/1999/xlink" x="0px" y="0px"
	 width="30px" height="30px" viewBox="0 0 30 30" enable-background="new 0 0 30 30" xml:space="preserve">
<symbol  id="Instagram_-_On_Dark" viewBox="0 -24 24 24">
	<path fill="#FFFFFF" d="M12-18c-3.3,0-6,2.7-6,6H0v-9c0-1.6,1.4-3,3-3h18c1.6,0,3,1.4,3,3v9h-6C18-15.3,15.3-18,12-18z M21,0H3
		C1.4,0,0-1.3,0-3v-7h6.4c0.8,2.3,3,4,5.6,4s4.8-1.7,5.6-4H24v7C24-1.3,22.6,0,21,0z M21-6c0-0.5-0.4-1-1-1h-2c-0.6,0-1,0.5-1,1v2
		c0,0.5,0.4,1,1,1h2c0.6,0,1-0.5,1-1V-6z M15.9-12c0,2.2-1.8,4-3.9,4s-3.9-1.8-3.9-4s1.8-4,3.9-4S15.9-14.2,15.9-12z"/>
</symbol>
<use xlink:href="#Instagram_-_On_Dark"  width="24" height="24" id="XMLID_1_" y="-24" transform="matrix(1 0 0 -1 3 3)" overflow="visible"/>
</svg>
