<?xml version="1.0" encoding="utf-8"?>
<!-- Generator: Adobe Illustrator 16.0.0, SVG Export Plug-In . SVG Version: 6.00 Build 0)  -->
<!DOCTYPE svg PUBLIC "-//W3C//DTD SVG 1.1//EN" "http://www.w3.org/Graphics/SVG/1.1/DTD/svg11.dtd">
<svg version="1.1" id="Layer_1" xmlns="http://www.w3.org/2000/svg" xmlns:xlink="http://www.w3.org/1999/xlink" x="0px" y="0px"
	 width="30px" height="30px" viewBox="0 0 30 30" enable-background="new 0 0 30 30" xml:space="preserve">
<symbol  id="Instagram" viewBox="-12 -12 24 24">
	<path fill="#2E91D7" d="M0-6c-3.3,0-6,2.7-6,6h-6v-9c0-1.6,1.4-3,3-3H9c1.6,0,3,1.4,3,3v9H6C6-3.3,3.3-6,0-6z M9,12H-9
		c-1.6,0-3-1.3-3-3V2h6.4c0.8,2.3,3,4,5.6,4c2.6,0,4.8-1.7,5.6-4H12v7C12,10.7,10.6,12,9,12z M9,6c0-0.5-0.4-1-1-1H6
		C5.4,5,5,5.5,5,6v2c0,0.5,0.4,1,1,1h2c0.6,0,1-0.5,1-1V6z M3.9,0C3.9,2.2,2.1,4,0,4c-2.1,0-3.9-1.8-3.9-4S-2.1-4,0-4
		C2.1-4,3.9-2.2,3.9,0z"/>
</symbol>
<use xlink:href="#Instagram"  width="24" height="24" id="XMLID_5_" x="-12" y="-12" transform="matrix(1 0 0 -1 15 15)" overflow="visible"/>
</svg>
