<?xml version="1.0" encoding="utf-8"?>
<!-- Generator: Adobe Illustrator 18.0.0, SVG Export Plug-In . SVG Version: 6.00 Build 0)  -->
<!DOCTYPE svg PUBLIC "-//W3C//DTD SVG 1.1//EN" "http://www.w3.org/Graphics/SVG/1.1/DTD/svg11.dtd">
<svg version="1.1" id="into-insight" xmlns="http://www.w3.org/2000/svg" xmlns:xlink="http://www.w3.org/1999/xlink" x="0px"
	 y="0px" width="700px" height="500px" viewBox="0 0 700 500" enable-background="new 0 0 700 500" xml:space="preserve">
<path id="right-cloud" fill="none" stroke="#FFFFFF" stroke-width="7.3621" stroke-linecap="round" stroke-miterlimit="10" d="
	M527.5,230.4c0-0.5,0.1-1,0.1-1.5c0-11.8-9.6-21.4-21.4-21.4c-9.9,0-18.3,6.8-20.7,16c-2.3-1.1-4.9-1.7-7.6-1.7
	c-9.7,0-17.5,7.8-17.5,17.5c0,9.7,7.8,17.5,17.5,17.5c0.3,0,54.1,0,54.3,0c7.5,0,13.7-6.1,13.7-13.7s-6.1-13.7-13.7-13.7
	C530.6,229.5,529,229.8,527.5,230.4"/>
<path id="left-cloud" fill="none" stroke="#FFFFFF" stroke-width="7.3621" stroke-linecap="round" stroke-miterlimit="10" d="
	M158.6,255.1c0-0.6,0.1-1.3,0.1-1.9c0-15.2-12.4-27.6-27.6-27.6c-12.8,0-23.6,8.8-26.7,20.6c-3-1.4-6.3-2.2-9.8-2.2
	c-12.5,0-22.6,10.1-22.6,22.6c0,12.5,10.1,22.6,22.6,22.6c0.4,0,70,0,70.2,0c9.7,0,17.6-7.9,17.6-17.6s-7.9-17.6-17.6-17.6
	C162.7,253.9,160.6,254.3,158.6,255.1"/>
<g id="cloudCover">
	<path fill="#0085A1" d="M503.4,116.6C429.7,116.6,370,176.3,370,250c0,73.7,59.7,133.4,133.4,133.4S636.8,323.7,636.8,250
		C636.8,176.3,577.1,116.6,503.4,116.6z M503,331.7c-45.1,0-81.7-36.6-81.7-81.7s36.6-81.7,81.7-81.7s81.7,36.6,81.7,81.7
		S548.2,331.7,503,331.7z"/>
	<path fill="#0085A1" d="M195.6,116.2c-73.7,0-133.4,59.7-133.4,133.4c0,73.7,59.7,133.4,133.4,133.4S329,323.3,329,249.6
		C329,175.9,269.3,116.2,195.6,116.2z M196,331.7c-45.1,0-81.7-36.6-81.7-81.7s36.6-81.7,81.7-81.7s81.7,36.6,81.7,81.7
		S241.1,331.7,196,331.7z"/>
</g>
<g id="lens-lines-right">
	
		<line fill="none" stroke="#FFFFFF" stroke-width="7.3621" stroke-linecap="round" stroke-miterlimit="10" x1="500" y1="139.5" x2="500" y2="152.5"/>
	
		<line fill="none" stroke="#FFFFFF" stroke-width="7.3621" stroke-linecap="round" stroke-miterlimit="10" x1="578.9" y1="169.4" x2="569.7" y2="178.6"/>
	
		<line fill="none" stroke="#FFFFFF" stroke-width="7.3621" stroke-linecap="round" stroke-miterlimit="10" x1="613.5" y1="246.2" x2="600.5" y2="246.2"/>
	
		<line fill="none" stroke="#FFFFFF" stroke-width="7.3621" stroke-linecap="round" stroke-miterlimit="10" x1="583.6" y1="325.1" x2="574.5" y2="315.9"/>
	
		<line fill="none" stroke="#FFFFFF" stroke-width="7.3621" stroke-linecap="round" stroke-miterlimit="10" x1="506.8" y1="359.7" x2="506.8" y2="346.7"/>
	
		<line fill="none" stroke="#FFFFFF" stroke-width="7.3621" stroke-linecap="round" stroke-miterlimit="10" x1="427.9" y1="329.9" x2="437.1" y2="320.7"/>
	
		<line fill="none" stroke="#FFFFFF" stroke-width="7.3621" stroke-linecap="round" stroke-miterlimit="10" x1="393.3" y1="253" x2="406.3" y2="253"/>
	
		<line fill="none" stroke="#FFFFFF" stroke-width="7.3621" stroke-linecap="round" stroke-miterlimit="10" x1="423.1" y1="174.2" x2="432.3" y2="183.4"/>
</g>
<g id="lens-lines-left">
	
		<line fill="none" stroke="#FFFFFF" stroke-width="7.3621" stroke-linecap="round" stroke-miterlimit="10" x1="199" y1="139.5" x2="199" y2="152.5"/>
	
		<line fill="none" stroke="#FFFFFF" stroke-width="7.3621" stroke-linecap="round" stroke-miterlimit="10" x1="120.1" y1="169.4" x2="129.3" y2="178.6"/>
	
		<line fill="none" stroke="#FFFFFF" stroke-width="7.3621" stroke-linecap="round" stroke-miterlimit="10" x1="85.5" y1="246.2" x2="98.5" y2="246.2"/>
	
		<line fill="none" stroke="#FFFFFF" stroke-width="7.3621" stroke-linecap="round" stroke-miterlimit="10" x1="115.4" y1="325.1" x2="124.5" y2="315.9"/>
	
		<line fill="none" stroke="#FFFFFF" stroke-width="7.3621" stroke-linecap="round" stroke-miterlimit="10" x1="192.2" y1="359.7" x2="192.2" y2="346.7"/>
	
		<line fill="none" stroke="#FFFFFF" stroke-width="7.3621" stroke-linecap="round" stroke-miterlimit="10" x1="271.1" y1="329.9" x2="261.9" y2="320.7"/>
	
		<line fill="none" stroke="#FFFFFF" stroke-width="7.3621" stroke-linecap="round" stroke-miterlimit="10" x1="305.7" y1="253" x2="292.7" y2="253"/>
	
		<line fill="none" stroke="#FFFFFF" stroke-width="7.3621" stroke-linecap="round" stroke-miterlimit="10" x1="275.9" y1="174.2" x2="266.7" y2="183.4"/>
</g>
<path id="inner-lens-right" fill="none" stroke="#CCFFF0" stroke-width="7.3621" stroke-linecap="round" stroke-miterlimit="10" d="
	M584.8,250c0-45.1-36.6-81.7-81.7-81.7s-81.7,36.6-81.7,81.7s36.6,81.7,81.7,81.7S584.8,295.1,584.8,250"/>
<path id="inner-lens-left" fill="none" stroke="#CCFFF0" stroke-width="7.3621" stroke-linecap="round" stroke-miterlimit="10" d="
	M277.7,250c0,45.1-36.6,81.7-81.7,81.7s-81.7-36.6-81.7-81.7s36.6-81.7,81.7-81.7S277.7,204.9,277.7,250"/>
<circle id="outer-lens-right" fill="none" stroke="#CCFFF0" stroke-width="7.3621" stroke-linecap="round" stroke-miterlimit="10" cx="503.4" cy="250" r="110.3"/>
<circle id="outer-lens-left" fill="none" stroke="#CCFFF0" stroke-width="7.3621" stroke-linecap="round" stroke-miterlimit="10" cx="195.6" cy="249.6" r="110.3"/>
<g id="frame-center-lines">
	
		<line fill="none" stroke="#CCFFF0" stroke-width="7.3621" stroke-linecap="round" stroke-miterlimit="10" x1="349.5" y1="140.6" x2="349.5" y2="167.1"/>
	
		<line fill="none" stroke="#CCFFF0" stroke-width="7.3621" stroke-linecap="round" stroke-miterlimit="10" x1="349.5" y1="203.1" x2="349.5" y2="225.3"/>
</g>
<g id="frame-center-hub">
	
		<circle fill="none" stroke="#FFFFFF" stroke-width="7.3621" stroke-linecap="round" stroke-miterlimit="10" cx="349.5" cy="184.7" r="17.6"/>
</g>
<path id="frame-bottom_1_" fill="none" stroke="#CCFFF0" stroke-width="7.3621" stroke-linecap="round" stroke-miterlimit="10" d="
	M409.6,307.6c-11.4-18.5-34.7-55.1-46.1-73.6c-2.9-4.7-8.1-7.8-14-7.8s-11.1,3.1-14,7.8c-11.4,18.5-34.7,55.2-46.1,73.7"/>
<path id="frame-top_1_" fill="none" stroke="#CCFFF0" stroke-width="7.3621" stroke-linecap="round" stroke-miterlimit="10" d="
	M196,139.7c0,0,115.1,0,153.5,0s153.5,0,153.5,0"/>
</svg>
