<?xml version="1.0" encoding="utf-8"?>
<!-- Generator: Adobe Illustrator 16.0.0, SVG Export Plug-In . SVG Version: 6.00 Build 0)  -->
<!DOCTYPE svg PUBLIC "-//W3C//DTD SVG 1.1//EN" "http://www.w3.org/Graphics/SVG/1.1/DTD/svg11.dtd">
<svg version="1.1" id="Layer_1" xmlns="http://www.w3.org/2000/svg" xmlns:xlink="http://www.w3.org/1999/xlink" x="0px" y="0px"
	 width="150px" height="35px" viewBox="0 0 150 35" enable-background="new 0 0 150 35" xml:space="preserve">
<g>
	<path d="M41.222,17.458h-5.177l-0.616,1.427c-0.202,0.476-0.303,0.868-0.303,1.178c0,0.412,0.166,0.714,0.497,0.908
		c0.194,0.115,0.674,0.202,1.438,0.26v0.399h-4.875V21.23c0.526-0.079,0.958-0.298,1.297-0.654c0.339-0.356,0.756-1.093,1.254-2.21
		l5.242-11.695h0.205l5.285,12.019c0.505,1.139,0.919,1.855,1.243,2.151c0.245,0.223,0.591,0.354,1.038,0.389v0.399h-7.09V21.23
		h0.292c0.569,0,0.969-0.079,1.2-0.237c0.158-0.116,0.238-0.281,0.238-0.498c0-0.129-0.021-0.263-0.064-0.399
		C42.31,20.031,42.202,19.76,42,19.284L41.222,17.458z M40.854,16.658l-2.183-5.048l-2.249,5.048H40.854z"/>
	<path d="M61.974,16.485l-0.552,5.145H48.409V21.23h0.487c0.424,0,0.767-0.076,1.026-0.227c0.188-0.102,0.332-0.274,0.432-0.52
		c0.08-0.172,0.12-0.627,0.12-1.361V9.481c0-0.749-0.04-1.217-0.12-1.405c-0.079-0.188-0.24-0.351-0.48-0.491
		c-0.242-0.141-0.568-0.211-0.978-0.211h-0.487v-0.4h7.815v0.4h-0.638c-0.425,0-0.767,0.075-1.027,0.227
		c-0.188,0.101-0.335,0.273-0.443,0.519c-0.08,0.173-0.119,0.627-0.119,1.361v9.338c0,0.75,0.043,1.228,0.13,1.434
		c0.086,0.205,0.255,0.357,0.508,0.459c0.18,0.064,0.616,0.098,1.307,0.098h1.222c0.778,0,1.426-0.138,1.945-0.411
		c0.519-0.274,0.968-0.706,1.346-1.298c0.378-0.59,0.736-1.462,1.075-2.615H61.974z"/>
	<path d="M77.624,16.637l3.977-9.662h5.967v0.4h-0.476c-0.433,0-0.778,0.075-1.037,0.227c-0.181,0.101-0.324,0.27-0.433,0.508
		c-0.08,0.173-0.119,0.624-0.119,1.351v9.663c0,0.75,0.039,1.218,0.119,1.405c0.079,0.187,0.241,0.351,0.486,0.49
		c0.245,0.142,0.572,0.212,0.983,0.212h0.476v0.399h-7.652V21.23h0.476c0.433,0,0.777-0.076,1.037-0.227
		c0.181-0.102,0.325-0.274,0.434-0.52c0.079-0.172,0.118-0.627,0.118-1.361V8.26l-5.62,13.37h-0.259L70.393,8.358V18.68
		c0,0.721,0.018,1.164,0.054,1.329c0.094,0.361,0.297,0.654,0.611,0.881c0.313,0.228,0.805,0.341,1.475,0.341v0.399h-5.015V21.23
		h0.151c0.324,0.007,0.627-0.045,0.908-0.157c0.281-0.111,0.494-0.261,0.638-0.448c0.144-0.188,0.256-0.45,0.335-0.789
		c0.014-0.08,0.021-0.447,0.021-1.103V9.46c0-0.742-0.04-1.205-0.119-1.389c-0.08-0.184-0.242-0.346-0.487-0.486
		c-0.245-0.141-0.573-0.211-0.983-0.211h-0.465v-0.4h5.988L77.624,16.637z"/>
	<path d="M97.176,17.458h-5.178l-0.615,1.427c-0.202,0.476-0.303,0.868-0.303,1.178c0,0.412,0.166,0.714,0.497,0.908
		c0.195,0.115,0.674,0.202,1.438,0.26v0.399H88.14V21.23c0.526-0.079,0.958-0.298,1.298-0.654c0.339-0.356,0.757-1.093,1.254-2.21
		l5.241-11.695h0.205l5.286,12.019c0.504,1.139,0.919,1.855,1.242,2.151c0.245,0.223,0.592,0.354,1.038,0.389v0.399h-7.09V21.23
		h0.292c0.569,0,0.968-0.079,1.199-0.237c0.158-0.116,0.237-0.281,0.237-0.498c0-0.129-0.021-0.263-0.064-0.399
		c-0.015-0.064-0.122-0.336-0.324-0.812L97.176,17.458z M96.808,16.658l-2.183-5.048l-2.248,5.048H96.808z"/>
	<path d="M114.35,6.639l0.119,4.885h-0.442c-0.21-1.225-0.723-2.21-1.541-2.956c-0.817-0.746-1.702-1.119-2.652-1.119
		c-0.735,0-1.318,0.197-1.746,0.589c-0.429,0.393-0.643,0.845-0.643,1.356c0,0.324,0.075,0.612,0.227,0.864
		c0.209,0.339,0.544,0.674,1.005,1.006c0.338,0.237,1.12,0.659,2.346,1.264c1.714,0.844,2.871,1.64,3.47,2.389
		c0.59,0.75,0.886,1.607,0.886,2.572c0,1.226-0.478,2.279-1.433,3.162c-0.954,0.883-2.166,1.324-3.637,1.324
		c-0.461,0-0.896-0.047-1.308-0.142c-0.41-0.093-0.926-0.27-1.546-0.528c-0.346-0.145-0.63-0.217-0.854-0.217
		c-0.188,0-0.386,0.072-0.594,0.217c-0.21,0.144-0.379,0.363-0.509,0.658h-0.399v-5.533h0.399c0.317,1.557,0.928,2.743,1.832,3.562
		c0.904,0.817,1.879,1.227,2.924,1.227c0.807,0,1.45-0.22,1.929-0.659c0.48-0.439,0.719-0.951,0.719-1.535
		c0-0.346-0.091-0.681-0.275-1.005c-0.184-0.325-0.463-0.632-0.837-0.924c-0.376-0.292-1.038-0.673-1.989-1.141
		c-1.333-0.656-2.291-1.214-2.875-1.675c-0.583-0.462-1.031-0.977-1.345-1.546c-0.314-0.569-0.471-1.196-0.471-1.881
		c0-1.167,0.429-2.162,1.286-2.983c0.856-0.822,1.938-1.232,3.242-1.232c0.476,0,0.937,0.058,1.384,0.173
		c0.338,0.087,0.751,0.247,1.237,0.481c0.486,0.234,0.827,0.351,1.021,0.351c0.188,0,0.335-0.057,0.442-0.172
		c0.108-0.115,0.209-0.393,0.304-0.833H114.35z"/>
	<path d="M125.472,17.458h-5.177l-0.616,1.427c-0.202,0.476-0.303,0.868-0.303,1.178c0,0.412,0.166,0.714,0.497,0.908
		c0.195,0.115,0.674,0.202,1.438,0.26v0.399h-4.874V21.23c0.525-0.079,0.957-0.298,1.297-0.654c0.338-0.356,0.756-1.093,1.254-2.21
		l5.242-11.695h0.205l5.285,12.019c0.504,1.139,0.918,1.855,1.242,2.151c0.245,0.223,0.591,0.354,1.038,0.389v0.399h-7.09V21.23
		h0.291c0.569,0,0.97-0.079,1.2-0.237c0.159-0.116,0.237-0.281,0.237-0.498c0-0.129-0.021-0.263-0.064-0.399
		c-0.014-0.064-0.123-0.336-0.324-0.812L125.472,17.458z M125.104,16.658l-2.184-5.048l-2.248,5.048H125.104z"/>
	<path d="M138.128,14.951v4.106c0,0.793,0.049,1.291,0.146,1.497c0.098,0.205,0.269,0.369,0.513,0.492
		c0.246,0.122,0.703,0.184,1.373,0.184v0.399h-7.5V21.23c0.677,0,1.136-0.063,1.377-0.189c0.242-0.126,0.411-0.289,0.509-0.491
		c0.097-0.202,0.146-0.699,0.146-1.492V9.547c0-0.793-0.049-1.292-0.146-1.497c-0.098-0.206-0.269-0.369-0.515-0.492
		c-0.245-0.123-0.702-0.184-1.371-0.184v-0.4h6.809c1.772,0,3.069,0.122,3.891,0.367s1.491,0.697,2.01,1.356
		c0.52,0.659,0.778,1.433,0.778,2.318c0,1.081-0.389,1.975-1.167,2.681c-0.497,0.446-1.192,0.781-2.086,1.005l3.523,4.962
		c0.461,0.641,0.79,1.041,0.983,1.199c0.296,0.223,0.639,0.346,1.027,0.367v0.399h-4.615l-4.724-6.679H138.128z M138.128,7.763v6.42
		h0.616c1.001,0,1.751-0.092,2.248-0.275c0.497-0.185,0.889-0.516,1.173-0.994c0.284-0.479,0.427-1.104,0.427-1.876
		c0-1.116-0.261-1.942-0.783-2.475c-0.522-0.534-1.363-0.8-2.524-0.8H138.128z"/>
</g>
<g>
	<path fill="#D13239" d="M101.819,27.936c0-0.34,0.118-0.613,0.355-0.82c0.225-0.196,0.509-0.294,0.854-0.294
		c0.352,0,0.638,0.102,0.857,0.305c0.229,0.208,0.345,0.483,0.345,0.829c0,0.336-0.111,0.61-0.334,0.82
		c-0.043,0.04-0.088,0.075-0.134,0.106h0.789v0.229h-4.458c-0.414,0-0.728-0.039-0.94-0.117c-0.263-0.096-0.418-0.254-0.466-0.476
		c-0.009-0.047-0.013-0.093-0.013-0.137c0-0.227,0.119-0.435,0.357-0.623c0.232-0.183,0.444-0.312,0.637-0.392
		c0.22-0.087,0.463-0.13,0.73-0.126c0.211,0.004,0.405,0.029,0.586,0.075l-0.065,0.58l-0.045,0.003
		c-0.082-0.207-0.218-0.355-0.408-0.442c-0.122-0.053-0.235-0.078-0.342-0.078c-0.22,0-0.431,0.108-0.63,0.327
		c-0.155,0.167-0.232,0.358-0.232,0.577c0,0.153,0.045,0.269,0.134,0.347c0.107,0.09,0.203,0.146,0.289,0.168
		c0.223,0.057,0.483,0.084,0.784,0.084h1.819c-0.051-0.034-0.097-0.072-0.14-0.114C101.93,28.555,101.819,28.277,101.819,27.936z
		 M102.328,27.946c0,0.454,0.106,0.766,0.317,0.936h0.778c0.208-0.171,0.313-0.482,0.313-0.932c0-0.288-0.046-0.521-0.141-0.7
		c-0.119-0.235-0.31-0.354-0.57-0.354c-0.253,0-0.438,0.119-0.558,0.356C102.376,27.438,102.328,27.669,102.328,27.946z
		 M102.592,26.065c0-0.092,0.032-0.168,0.096-0.23c0.063-0.062,0.141-0.092,0.232-0.092c0.094,0,0.171,0.03,0.233,0.092
		c0.063,0.061,0.094,0.137,0.094,0.23c0,0.091-0.031,0.167-0.095,0.227s-0.142,0.09-0.232,0.09c-0.094,0-0.172-0.029-0.234-0.089
		C102.624,26.234,102.592,26.158,102.592,26.065z"/>
	<path fill="#D13239" d="M106.095,28.882h0.388v0.229h-2.006v-0.229h1.084v-1.366c0-0.166-0.01-0.275-0.028-0.328
		c-0.035-0.103-0.117-0.157-0.246-0.164v-0.037c0.32-0.041,0.602-0.1,0.84-0.177c-0.021,0.29-0.031,0.591-0.031,0.902V28.882z
		 M104.67,29.686c0-0.091,0.031-0.168,0.096-0.23c0.063-0.062,0.141-0.095,0.232-0.095c0.093,0,0.171,0.032,0.233,0.093
		c0.062,0.062,0.094,0.14,0.094,0.232s-0.032,0.168-0.096,0.228c-0.062,0.06-0.14,0.09-0.231,0.09c-0.095,0-0.172-0.03-0.234-0.089
		C104.7,29.855,104.67,29.778,104.67,29.686z M105.426,29.686c0-0.091,0.031-0.168,0.095-0.23s0.142-0.095,0.233-0.095
		c0.093,0,0.171,0.032,0.233,0.093c0.062,0.062,0.094,0.14,0.094,0.232s-0.031,0.168-0.095,0.228c-0.064,0.06-0.141,0.09-0.232,0.09
		c-0.094,0-0.171-0.03-0.233-0.089C105.457,29.855,105.426,29.778,105.426,29.686z"/>
	<path fill="#D13239" d="M106.397,29.111v-0.229h0.457v-3.139c0-0.145-0.011-0.24-0.031-0.291c-0.034-0.086-0.11-0.133-0.229-0.14
		v-0.04c0.201-0.024,0.426-0.08,0.672-0.168v2.462c0.151-0.504,0.478-0.757,0.977-0.757c0.354,0,0.607,0.107,0.763,0.322
		c0.133,0.184,0.199,0.46,0.199,0.829v0.204c0,0.307,0.003,0.485,0.011,0.535c0.036,0.211,0.134,0.341,0.294,0.39
		c0.024,0.015,0.005,0.022-0.059,0.023S108.368,29.113,106.397,29.111z M108.843,28.882c-0.053-0.063-0.085-0.142-0.096-0.234V28
		c0-0.297-0.037-0.517-0.109-0.66c-0.101-0.194-0.282-0.302-0.546-0.32c-0.4,0.026-0.645,0.272-0.733,0.739
		c-0.028,0.146-0.043,0.521-0.043,1.123H108.843z M107.686,26.123c0-0.09,0.032-0.167,0.096-0.229
		c0.063-0.062,0.141-0.092,0.235-0.092c0.093,0,0.171,0.029,0.233,0.09c0.062,0.062,0.094,0.138,0.094,0.23
		c0,0.095-0.032,0.17-0.096,0.229c-0.063,0.059-0.14,0.087-0.231,0.087c-0.095,0-0.172-0.028-0.235-0.087
		C107.718,26.293,107.686,26.218,107.686,26.123z"/>
	<path fill="#D13239" d="M112.555,28.882h0.354v0.229h-0.397c-0.065,0.245-0.182,0.454-0.351,0.629
		c-0.273,0.285-0.644,0.427-1.108,0.427c-0.344,0-0.693-0.097-1.047-0.291l0.192-0.594h0.034c0.113,0.521,0.393,0.781,0.837,0.781
		c0.637,0,0.955-0.503,0.955-1.509v-0.042c-0.167,0.411-0.488,0.616-0.966,0.616c-0.297,0-0.555-0.078-0.773-0.233
		c-0.246-0.173-0.369-0.402-0.369-0.688c0-0.34,0.13-0.606,0.389-0.804c0.233-0.181,0.526-0.271,0.877-0.271
		c0.437,0,0.78,0.136,1.03,0.406c0.243,0.263,0.363,0.615,0.363,1.056C112.574,28.694,112.568,28.791,112.555,28.882z
		 M111.959,28.13c0-0.251-0.058-0.458-0.174-0.62c-0.131-0.183-0.315-0.274-0.554-0.274c-0.261,0-0.455,0.094-0.583,0.28
		c-0.112,0.161-0.168,0.377-0.168,0.649c0,0.239,0.061,0.436,0.183,0.591c0.136,0.167,0.32,0.25,0.554,0.25s0.419-0.09,0.557-0.269
		C111.897,28.572,111.959,28.369,111.959,28.13z"/>
	<path fill="#D13239" d="M114.591,28.882h0.339v0.229h-2.097v-0.229h1.221v-1.366c0-0.166-0.01-0.275-0.028-0.328
		c-0.035-0.103-0.117-0.157-0.246-0.164v-0.037c0.32-0.041,0.602-0.1,0.84-0.177c-0.019,0.29-0.028,0.591-0.028,0.902V28.882z
		 M112.922,26.194c0-0.093,0.032-0.169,0.096-0.231c0.062-0.062,0.141-0.094,0.232-0.094c0.093,0,0.171,0.031,0.234,0.093
		c0.062,0.062,0.093,0.139,0.093,0.232c0,0.091-0.031,0.167-0.095,0.227s-0.142,0.09-0.232,0.09c-0.094,0-0.172-0.03-0.233-0.089
		C112.954,26.363,112.922,26.287,112.922,26.194z M113.748,26.194c0-0.093,0.032-0.169,0.095-0.231
		c0.063-0.062,0.142-0.094,0.233-0.094c0.093,0,0.171,0.031,0.233,0.093s0.094,0.139,0.094,0.232c0,0.091-0.031,0.167-0.095,0.227
		s-0.142,0.09-0.232,0.09c-0.094,0-0.171-0.03-0.233-0.089S113.748,26.287,113.748,26.194z"/>
	<path fill="#D13239" d="M114.849,28.882h0.652c-0.139-0.078-0.207-0.245-0.207-0.5v-2.562c0-0.163-0.009-0.269-0.025-0.316
		c-0.033-0.1-0.112-0.152-0.235-0.161v-0.035c0.215-0.019,0.457-0.076,0.726-0.174c-0.017,0.263-0.025,0.562-0.025,0.896v2.148
		c0,0.213,0.012,0.387,0.034,0.523c0.033,0.211,0.12,0.348,0.26,0.411h-1.179V28.882z"/>
	<path fill="#D13239" d="M116.361,29.126l-0.003-0.036c0.154-0.046,0.25-0.171,0.285-0.379c0.013-0.066,0.02-0.239,0.02-0.518
		v-2.374c0-0.163-0.008-0.269-0.025-0.316c-0.033-0.1-0.112-0.152-0.237-0.161v-0.035c0.216-0.019,0.459-0.076,0.728-0.174
		c-0.017,0.263-0.024,0.562-0.022,0.896v2.148c0.016,0.301,0.025,0.476,0.031,0.525c0.033,0.218,0.128,0.346,0.282,0.388v0.036
		c-0.177-0.009-0.349-0.015-0.516-0.015C116.688,29.111,116.507,29.117,116.361,29.126z"/>
	<path fill="#D13239" d="M120.22,28.882h2.371c-0.105-0.094-0.174-0.195-0.203-0.305c-0.02-0.073-0.028-0.207-0.028-0.4v-0.661
		c0-0.166-0.01-0.275-0.028-0.328c-0.035-0.103-0.117-0.157-0.246-0.164v-0.037c0.32-0.041,0.601-0.1,0.84-0.177
		c-0.021,0.29-0.031,0.591-0.031,0.902v0.38c0,0.311,0.007,0.5,0.02,0.569c0.038,0.233,0.139,0.376,0.303,0.429l-0.003,0.021h-3.369
		c-0.414,0-0.728-0.039-0.94-0.117c-0.263-0.096-0.418-0.254-0.465-0.476c-0.01-0.047-0.014-0.093-0.014-0.137
		c0-0.227,0.119-0.435,0.358-0.623c0.283-0.226,0.627-0.379,1.028-0.458c0.202-0.042,0.408-0.062,0.615-0.06
		c0.209,0.004,0.404,0.029,0.583,0.075l-0.064,0.58l-0.045,0.003c-0.082-0.207-0.219-0.355-0.409-0.442
		c-0.121-0.053-0.254-0.078-0.398-0.078c-0.085,0-0.175,0.009-0.269,0.027c-0.222,0.043-0.405,0.132-0.548,0.266
		c-0.157,0.146-0.244,0.326-0.261,0.541c-0.002,0.024-0.003,0.048-0.003,0.07c0,0.153,0.045,0.269,0.135,0.347
		c0.106,0.09,0.202,0.146,0.288,0.168C119.657,28.854,119.919,28.882,120.22,28.882z M120.194,26.194
		c0-0.093,0.032-0.169,0.096-0.231c0.062-0.062,0.141-0.094,0.231-0.094c0.094,0,0.172,0.031,0.234,0.093s0.094,0.139,0.094,0.232
		c0,0.091-0.031,0.167-0.095,0.227s-0.142,0.09-0.233,0.09c-0.093,0-0.171-0.03-0.233-0.089
		C120.227,26.363,120.194,26.287,120.194,26.194z M121.021,26.194c0-0.093,0.031-0.169,0.095-0.231s0.142-0.094,0.233-0.094
		c0.093,0,0.171,0.031,0.233,0.093s0.094,0.139,0.094,0.232c0,0.091-0.032,0.167-0.095,0.227c-0.063,0.06-0.142,0.09-0.232,0.09
		c-0.094,0-0.172-0.03-0.234-0.089S121.021,26.287,121.021,26.194z"/>
	<path fill="#D13239" d="M123.597,29.111l-0.003-0.021c0.154-0.046,0.25-0.171,0.286-0.379c0.013-0.066,0.02-0.239,0.02-0.518
		v-2.374c0-0.163-0.009-0.269-0.025-0.316c-0.033-0.1-0.113-0.152-0.237-0.161v-0.035c0.216-0.019,0.459-0.076,0.728-0.174
		c-0.018,0.256-0.024,0.554-0.022,0.896v2.854h0.397v0.229h-0.599C123.924,29.111,123.742,29.111,123.597,29.111z"/>
	<path fill="#D13239" d="M124.667,28.882h0.585c-0.165-0.197-0.247-0.445-0.247-0.742c0-0.338,0.119-0.61,0.356-0.817
		c0.226-0.196,0.511-0.294,0.856-0.294c0.349,0,0.634,0.102,0.854,0.303c0.229,0.21,0.344,0.486,0.344,0.832
		c0,0.349-0.115,0.627-0.347,0.834c-0.225,0.199-0.514,0.3-0.868,0.3c-0.272,0-0.505-0.063-0.697-0.19v0.005h-0.837V28.882z
		 M125.518,28.154c0,0.289,0.046,0.524,0.138,0.706c0.119,0.239,0.31,0.357,0.571,0.357c0.257,0,0.445-0.118,0.562-0.357
		c0.089-0.184,0.134-0.418,0.134-0.703c0-0.29-0.045-0.523-0.137-0.7c-0.121-0.235-0.312-0.353-0.574-0.353
		c-0.25,0-0.435,0.118-0.557,0.355C125.563,27.642,125.518,27.874,125.518,28.154z"/>
	<path fill="#D13239" d="M129.992,28.882h0.692v0.229h-2.468c-0.164,0-0.26-0.124-0.285-0.371c0.088,0.095,0.173,0.142,0.255,0.142
		h1.129c0.312,0,0.487-0.215,0.521-0.646c-0.022-0.291-0.091-0.561-0.204-0.806c-0.151-0.335-0.349-0.503-0.594-0.503
		c-0.078,0-0.16,0.029-0.242,0.088c-0.084,0.058-0.142,0.123-0.176,0.196c-0.037,0.08-0.055,0.169-0.055,0.269
		c0,0.113,0.019,0.195,0.058,0.246c0.071,0.094,0.108,0.144,0.112,0.148c-0.008,0.009-0.038,0.017-0.093,0.022
		c-0.068-0.002-0.132-0.003-0.19-0.003c-0.1,0-0.268,0.006-0.507,0.018v-0.037c0.086-0.024,0.145-0.059,0.177-0.103
		c0.031-0.046,0.048-0.114,0.048-0.205v-0.104c0-0.084-0.003-0.169-0.009-0.255c0.242-0.247,0.542-0.37,0.898-0.37
		c0.354,0,0.656,0.143,0.908,0.426c0.244,0.272,0.366,0.586,0.366,0.941C130.334,28.484,130.22,28.711,129.992,28.882z"/>
	<path fill="#D13239" d="M133.025,29.182l-0.09,0.05c-0.076-0.035-0.148-0.075-0.216-0.12h-2.105v-0.229h1.843
		c-0.184-0.207-0.292-0.471-0.328-0.792c-0.061-0.541-0.147-0.874-0.257-0.997c-0.09-0.097-0.181-0.146-0.272-0.146
		c-0.109,0-0.192,0.051-0.247,0.15c-0.04,0.073-0.062,0.173-0.066,0.298l-0.031,0.011l-0.395-0.459
		c0.051-0.019,0.109-0.038,0.177-0.056c0.19-0.051,0.373-0.076,0.55-0.076c0.188,0,0.368,0.029,0.542,0.087
		c0.331,0.113,0.503,0.45,0.516,1.009c0.009,0.39,0.075,0.714,0.196,0.971h0.344v0.229h-0.212
		C132.989,29.136,133.007,29.159,133.025,29.182z M131.115,26.148c0-0.093,0.032-0.171,0.096-0.231
		c0.063-0.062,0.142-0.093,0.235-0.093c0.093,0,0.171,0.03,0.233,0.093c0.062,0.061,0.094,0.139,0.094,0.231
		c0,0.092-0.031,0.168-0.095,0.228s-0.142,0.089-0.232,0.089c-0.094,0-0.172-0.028-0.235-0.088
		C131.147,26.318,131.115,26.242,131.115,26.148z"/>
	<path fill="#D13239" d="M133.112,28.882h0.652c-0.138-0.078-0.207-0.245-0.207-0.5v-2.562c0-0.163-0.009-0.269-0.025-0.316
		c-0.033-0.1-0.112-0.152-0.235-0.161v-0.035c0.214-0.019,0.456-0.076,0.725-0.174c-0.017,0.263-0.024,0.562-0.024,0.896v2.148
		c0,0.213,0.011,0.387,0.033,0.523c0.034,0.211,0.12,0.348,0.261,0.411h-1.179V28.882z"/>
	<path fill="#D13239" d="M136.041,28.927V27.95c0-0.162-0.009-0.269-0.025-0.317c-0.033-0.099-0.112-0.152-0.235-0.159v-0.036
		c0.217-0.02,0.46-0.076,0.729-0.174c-0.021,0.297-0.025,0.647-0.014,1.05c0.011,0.403,0.01,0.646-0.003,0.729
		c0.002,0.279-0.061,0.504-0.188,0.672c-0.211,0.254-0.434,0.371-0.667,0.353c-0.233-0.02-0.413-0.108-0.54-0.266l0.132-0.492h0.033
		c0.082,0.412,0.215,0.618,0.397,0.618C135.909,29.927,136.035,29.594,136.041,28.927z"/>
	<path fill="#D13239" d="M136.954,29.111l-0.003-0.021c0.155-0.046,0.25-0.171,0.286-0.379c0.013-0.066,0.019-0.239,0.019-0.518
		v-2.374c0-0.163-0.008-0.269-0.024-0.316c-0.033-0.1-0.113-0.152-0.238-0.161v-0.035c0.217-0.019,0.46-0.076,0.729-0.174
		c-0.018,0.256-0.024,0.554-0.023,0.896v2.854h0.398v0.229h-0.599C137.28,29.111,137.1,29.111,136.954,29.111z"/>
	<path fill="#D13239" d="M142.874,28.882v0.229h-0.135c-0.308,0-0.531-0.085-0.669-0.257c-0.153,0.189-0.376,0.281-0.67,0.271
		c-0.369-0.014-0.608-0.231-0.716-0.654c-0.036,0.151-0.092,0.278-0.168,0.376c-0.151,0.196-0.377,0.29-0.676,0.278
		c-0.371-0.014-0.611-0.228-0.719-0.645c-0.036,0.149-0.092,0.271-0.166,0.366c-0.136,0.177-0.361,0.264-0.675,0.264h-0.257v-0.229
		h0.246c0.229-0.037,0.371-0.151,0.423-0.344c0.022-0.073,0.033-0.324,0.033-0.754c0-0.367-0.092-0.582-0.277-0.642v-0.035
		c0.145,0.009,0.309,0.014,0.493,0.014c0.209,0,0.379-0.005,0.509-0.014l0.003,0.035c-0.125,0.038-0.208,0.132-0.248,0.281
		c-0.023,0.082-0.034,0.215-0.034,0.399v0.264c0.007,0.214,0.05,0.388,0.126,0.526c0.097,0.179,0.242,0.269,0.435,0.269
		c0.031,0,0.064-0.001,0.101-0.005c0.228-0.034,0.367-0.146,0.42-0.339c0.022-0.073,0.034-0.324,0.034-0.754
		c0-0.367-0.093-0.582-0.278-0.642v-0.035c0.145,0.009,0.31,0.014,0.496,0.014c0.207,0,0.377-0.005,0.507-0.014l0.003,0.035
		c-0.125,0.038-0.208,0.132-0.25,0.281c-0.022,0.082-0.032,0.215-0.032,0.399v0.264c0.007,0.214,0.049,0.388,0.125,0.526
		c0.097,0.179,0.242,0.269,0.435,0.269c0.032,0,0.065-0.001,0.101-0.005c0.228-0.034,0.368-0.146,0.419-0.339
		c0.023-0.073,0.035-0.324,0.035-0.754c0-0.371-0.095-0.585-0.28-0.642l0.003-0.035c0.173,0.009,0.349,0.014,0.526,0.014
		s0.336-0.005,0.476-0.014l0.003,0.035c-0.187,0.057-0.28,0.271-0.28,0.642v0.151c0,0.329,0.012,0.529,0.034,0.603
		c0.052,0.192,0.192,0.307,0.423,0.344H142.874z"/>
	<path fill="#D13239" d="M145.53,28.882h0.466v0.229h-0.602c-0.034,0.044-0.069,0.084-0.109,0.12
		c-0.224,0.212-0.518,0.316-0.882,0.316c-0.355,0-0.643-0.105-0.863-0.318c-0.038-0.037-0.074-0.076-0.106-0.118h-0.635v-0.229
		h0.501c-0.062-0.145-0.093-0.308-0.093-0.486c0-0.34,0.119-0.614,0.355-0.821c0.225-0.195,0.509-0.294,0.854-0.294
		c0.351,0,0.637,0.102,0.856,0.302c0.23,0.21,0.345,0.487,0.345,0.832C145.618,28.588,145.59,28.744,145.53,28.882z M143.717,28.406
		c0,0.289,0.047,0.524,0.14,0.705c0.12,0.239,0.311,0.359,0.571,0.359c0.256,0,0.442-0.12,0.561-0.359
		c0.091-0.181,0.137-0.415,0.137-0.703s-0.046-0.522-0.137-0.699c-0.122-0.235-0.312-0.353-0.574-0.353
		c-0.252,0-0.438,0.118-0.558,0.355C143.764,27.896,143.717,28.128,143.717,28.406z"/>
	<path fill="#D13239" d="M145.923,28.882h0.652c-0.138-0.078-0.206-0.245-0.206-0.5v-2.562c0-0.163-0.01-0.269-0.025-0.316
		c-0.034-0.1-0.113-0.152-0.235-0.161v-0.035c0.215-0.019,0.456-0.076,0.725-0.174c-0.017,0.263-0.024,0.562-0.024,0.896v2.148
		c0,0.213,0.011,0.387,0.033,0.523c0.033,0.211,0.12,0.348,0.261,0.411h-1.18V28.882z"/>
	<path fill="#D13239" d="M147.436,29.126l-0.003-0.036c0.155-0.046,0.25-0.171,0.285-0.379c0.014-0.066,0.021-0.239,0.021-0.518
		v-2.374c0-0.163-0.009-0.269-0.025-0.316c-0.034-0.1-0.112-0.152-0.238-0.161v-0.035c0.217-0.019,0.459-0.076,0.728-0.174
		c-0.017,0.263-0.023,0.562-0.021,0.896v2.148c0.015,0.301,0.024,0.476,0.03,0.525c0.033,0.218,0.128,0.346,0.283,0.388v0.036
		c-0.178-0.009-0.35-0.015-0.516-0.015C147.763,29.111,147.581,29.117,147.436,29.126z"/>
</g>
<g>
	<path fill="#D13239" d="M34.487,27.995h-1.311l-0.229,0.534c-0.057,0.132-0.085,0.229-0.085,0.294c0,0.052,0.024,0.098,0.073,0.136
		c0.05,0.04,0.156,0.065,0.319,0.077v0.092h-1.066v-0.092c0.142-0.025,0.233-0.058,0.275-0.098c0.085-0.08,0.179-0.242,0.282-0.486
		l1.191-2.786h0.087l1.178,2.815c0.095,0.227,0.181,0.373,0.259,0.441c0.077,0.066,0.185,0.104,0.323,0.113v0.092h-1.335v-0.092
		c0.134-0.007,0.226-0.029,0.273-0.068c0.047-0.038,0.071-0.084,0.071-0.139c0-0.073-0.033-0.189-0.1-0.348L34.487,27.995z
		 M34.417,27.81l-0.574-1.367l-0.589,1.367H34.417z"/>
	<path fill="#D13239" d="M36.786,25.578v3.033c0,0.144,0.01,0.238,0.031,0.284c0.021,0.047,0.053,0.082,0.096,0.107
		c0.043,0.023,0.124,0.035,0.242,0.035v0.09h-1.121v-0.09c0.105,0,0.176-0.011,0.215-0.032s0.068-0.057,0.09-0.107
		s0.033-0.146,0.033-0.287v-2.077c0-0.258-0.006-0.417-0.018-0.475c-0.012-0.06-0.031-0.101-0.057-0.122
		c-0.025-0.021-0.058-0.033-0.098-0.033c-0.043,0-0.098,0.015-0.165,0.042l-0.042-0.089l0.681-0.279H36.786z"/>
	<path fill="#D13239" d="M40.63,29.128l-1.308-2.848v2.261c0,0.209,0.022,0.339,0.067,0.39c0.062,0.07,0.159,0.105,0.292,0.105h0.12
		v0.092h-1.178v-0.092h0.12c0.143,0,0.244-0.043,0.305-0.131c0.036-0.052,0.054-0.174,0.054-0.364v-2.212
		c0-0.149-0.017-0.257-0.05-0.323c-0.023-0.049-0.066-0.089-0.128-0.122c-0.063-0.033-0.163-0.049-0.301-0.049v-0.092h0.958
		l1.229,2.649l1.208-2.649h0.958v0.092H42.86c-0.145,0-0.247,0.044-0.307,0.13c-0.036,0.054-0.055,0.176-0.055,0.364v2.212
		c0,0.209,0.023,0.339,0.07,0.39c0.062,0.07,0.159,0.105,0.292,0.105h0.117v0.092h-1.438v-0.092h0.12
		c0.145,0,0.247-0.043,0.305-0.131c0.037-0.052,0.055-0.174,0.055-0.364V26.28l-1.306,2.848H40.63z"/>
	<path fill="#D13239" d="M44.54,28.799c-0.235,0.181-0.382,0.286-0.442,0.314c-0.09,0.042-0.186,0.062-0.287,0.062
		c-0.158,0-0.288-0.054-0.391-0.163c-0.103-0.107-0.154-0.25-0.154-0.426c0-0.112,0.025-0.208,0.075-0.29
		c0.068-0.113,0.187-0.22,0.355-0.319c0.169-0.101,0.45-0.222,0.843-0.364v-0.091c0-0.228-0.036-0.384-0.109-0.469
		c-0.072-0.085-0.177-0.127-0.315-0.127c-0.105,0-0.188,0.028-0.25,0.084c-0.063,0.058-0.095,0.122-0.095,0.194l0.005,0.146
		c0,0.076-0.02,0.137-0.059,0.178s-0.09,0.062-0.153,0.062c-0.062,0-0.112-0.021-0.151-0.065c-0.039-0.043-0.059-0.102-0.059-0.178
		c0-0.143,0.074-0.274,0.22-0.394c0.146-0.119,0.353-0.18,0.617-0.18c0.203,0,0.369,0.033,0.499,0.102
		c0.099,0.052,0.171,0.133,0.218,0.243c0.03,0.071,0.044,0.218,0.044,0.439v0.776c0,0.217,0.004,0.352,0.013,0.399
		c0.008,0.05,0.022,0.083,0.041,0.1s0.042,0.024,0.066,0.024c0.026,0,0.05-0.005,0.07-0.017c0.035-0.022,0.103-0.083,0.203-0.183
		v0.14c-0.187,0.249-0.365,0.375-0.535,0.375c-0.081,0-0.146-0.029-0.194-0.086C44.567,29.031,44.542,28.936,44.54,28.799z
		 M44.54,28.636v-0.87c-0.251,0.1-0.414,0.17-0.487,0.212c-0.131,0.073-0.225,0.149-0.282,0.229
		c-0.057,0.08-0.085,0.167-0.085,0.262c0,0.12,0.036,0.22,0.107,0.299c0.072,0.079,0.154,0.118,0.247,0.118
		C44.167,28.886,44.333,28.804,44.54,28.636z"/>
	<path fill="#D13239" d="M46.991,26.774v0.778h-0.082c-0.063-0.244-0.144-0.411-0.244-0.499c-0.099-0.088-0.225-0.133-0.378-0.133
		c-0.116,0-0.21,0.031-0.282,0.093c-0.071,0.062-0.107,0.13-0.107,0.204c0,0.095,0.027,0.174,0.08,0.24
		c0.052,0.068,0.156,0.141,0.314,0.217l0.365,0.178c0.337,0.164,0.506,0.382,0.506,0.651c0,0.208-0.079,0.376-0.235,0.503
		c-0.158,0.128-0.333,0.191-0.529,0.191c-0.139,0-0.299-0.024-0.479-0.075c-0.055-0.017-0.1-0.025-0.135-0.025
		c-0.038,0-0.068,0.022-0.089,0.065h-0.083v-0.816h0.083c0.046,0.232,0.135,0.409,0.267,0.526c0.131,0.118,0.279,0.178,0.442,0.178
		c0.115,0,0.208-0.034,0.281-0.102c0.072-0.066,0.108-0.148,0.108-0.243c0-0.114-0.041-0.211-0.121-0.289
		c-0.081-0.079-0.242-0.178-0.483-0.297c-0.241-0.12-0.399-0.229-0.474-0.325c-0.075-0.095-0.112-0.215-0.112-0.358
		c0-0.189,0.064-0.347,0.193-0.473c0.129-0.126,0.296-0.189,0.5-0.189c0.09,0,0.199,0.019,0.328,0.058
		c0.084,0.024,0.141,0.037,0.169,0.037c0.026,0,0.047-0.006,0.062-0.019c0.015-0.01,0.032-0.037,0.052-0.076H46.991z"/>
	<path fill="#D13239" d="M48.799,28.799c-0.234,0.181-0.382,0.286-0.441,0.314c-0.09,0.042-0.186,0.062-0.287,0.062
		c-0.158,0-0.289-0.054-0.391-0.163c-0.103-0.107-0.153-0.25-0.153-0.426c0-0.112,0.024-0.208,0.074-0.29
		c0.068-0.113,0.187-0.22,0.356-0.319c0.169-0.101,0.45-0.222,0.842-0.364v-0.091c0-0.228-0.036-0.384-0.108-0.469
		c-0.073-0.085-0.178-0.127-0.316-0.127c-0.105,0-0.188,0.028-0.25,0.084c-0.063,0.058-0.096,0.122-0.096,0.194l0.006,0.146
		c0,0.076-0.02,0.137-0.059,0.178s-0.09,0.062-0.153,0.062c-0.062,0-0.112-0.021-0.151-0.065c-0.039-0.043-0.059-0.102-0.059-0.178
		c0-0.143,0.073-0.274,0.22-0.394s0.353-0.18,0.617-0.18c0.203,0,0.369,0.033,0.499,0.102c0.098,0.052,0.171,0.133,0.217,0.243
		c0.03,0.071,0.045,0.218,0.045,0.439v0.776c0,0.217,0.004,0.352,0.012,0.399c0.008,0.05,0.022,0.083,0.041,0.1
		c0.02,0.017,0.042,0.024,0.066,0.024c0.026,0,0.05-0.005,0.07-0.017c0.035-0.022,0.102-0.083,0.203-0.183v0.14
		c-0.187,0.249-0.365,0.375-0.535,0.375c-0.082,0-0.146-0.029-0.195-0.086S48.801,28.936,48.799,28.799z M48.799,28.636v-0.87
		c-0.251,0.1-0.413,0.17-0.486,0.212c-0.131,0.073-0.226,0.149-0.283,0.229c-0.056,0.08-0.084,0.167-0.084,0.262
		c0,0.12,0.036,0.22,0.107,0.299s0.154,0.118,0.247,0.118C48.426,28.886,48.593,28.804,48.799,28.636z"/>
	<path fill="#D13239" d="M50.442,26.774v0.514c0.191-0.343,0.388-0.514,0.589-0.514c0.092,0,0.167,0.027,0.227,0.084
		c0.06,0.055,0.09,0.119,0.09,0.192c0,0.065-0.021,0.12-0.064,0.165c-0.043,0.045-0.095,0.067-0.155,0.067
		c-0.058,0-0.124-0.028-0.196-0.086s-0.126-0.086-0.161-0.086c-0.03,0-0.063,0.017-0.098,0.05c-0.075,0.068-0.152,0.181-0.232,0.337
		v1.096c0,0.127,0.016,0.223,0.047,0.287c0.022,0.045,0.06,0.082,0.115,0.112c0.055,0.03,0.134,0.045,0.237,0.045v0.09H49.67v-0.09
		c0.117,0,0.203-0.018,0.26-0.055c0.042-0.026,0.071-0.069,0.088-0.127c0.008-0.028,0.012-0.11,0.012-0.242v-0.887
		c0-0.266-0.005-0.425-0.016-0.475c-0.011-0.052-0.031-0.089-0.06-0.111c-0.029-0.024-0.065-0.035-0.108-0.035
		c-0.052,0-0.11,0.013-0.175,0.037l-0.025-0.09l0.692-0.279H50.442z"/>
	<path fill="#D13239" d="M56.049,29.128h-0.904l-1.146-1.583c-0.085,0.004-0.154,0.006-0.207,0.006c-0.021,0-0.045-0.001-0.07-0.001
		c-0.025-0.001-0.051-0.003-0.077-0.005v0.984c0,0.213,0.023,0.346,0.069,0.396c0.063,0.074,0.158,0.11,0.285,0.11h0.132v0.092
		h-1.451v-0.092h0.127c0.144,0,0.246-0.047,0.308-0.141c0.034-0.051,0.052-0.173,0.052-0.366v-2.188c0-0.212-0.023-0.345-0.07-0.396
		c-0.064-0.074-0.161-0.111-0.29-0.111h-0.127v-0.092h1.233c0.36,0,0.625,0.026,0.795,0.078c0.17,0.053,0.315,0.149,0.434,0.29
		c0.119,0.141,0.179,0.309,0.179,0.503c0,0.208-0.068,0.389-0.204,0.541c-0.135,0.154-0.346,0.262-0.63,0.325l0.699,0.972
		c0.16,0.223,0.297,0.371,0.412,0.443c0.115,0.073,0.265,0.12,0.45,0.141V29.128z M53.645,27.389c0.032,0,0.059,0,0.082,0.001
		s0.042,0.002,0.057,0.002c0.323,0,0.566-0.071,0.73-0.211s0.246-0.317,0.246-0.534c0-0.211-0.066-0.384-0.198-0.515
		c-0.132-0.132-0.308-0.199-0.525-0.199c-0.097,0-0.227,0.017-0.392,0.048V27.389z"/>
	<path fill="#D13239" d="M56.548,27.702c-0.002,0.34,0.081,0.606,0.247,0.8c0.166,0.193,0.362,0.289,0.586,0.289
		c0.149,0,0.28-0.041,0.391-0.123c0.11-0.083,0.203-0.224,0.278-0.424l0.077,0.05c-0.035,0.228-0.136,0.437-0.304,0.623
		c-0.168,0.188-0.378,0.281-0.632,0.281c-0.274,0-0.51-0.107-0.705-0.321c-0.196-0.214-0.293-0.501-0.293-0.862
		c0-0.391,0.1-0.695,0.301-0.915c0.2-0.219,0.452-0.328,0.755-0.328c0.256,0,0.467,0.084,0.631,0.254
		c0.165,0.168,0.247,0.395,0.247,0.677H56.548z M56.548,27.559h1.058c-0.008-0.147-0.026-0.25-0.052-0.31
		c-0.042-0.094-0.104-0.167-0.186-0.22c-0.083-0.055-0.169-0.08-0.259-0.08c-0.138,0-0.262,0.054-0.371,0.161
		S56.566,27.367,56.548,27.559z"/>
	<path fill="#D13239" d="M60.375,28.259c-0.062,0.302-0.183,0.533-0.362,0.696c-0.179,0.162-0.378,0.243-0.597,0.243
		c-0.259,0-0.486-0.109-0.679-0.327c-0.193-0.218-0.289-0.513-0.289-0.884c0-0.36,0.107-0.651,0.321-0.876
		c0.213-0.226,0.47-0.337,0.77-0.337c0.225,0,0.409,0.06,0.554,0.178c0.145,0.119,0.217,0.243,0.217,0.37
		c0,0.063-0.021,0.115-0.061,0.155c-0.041,0.038-0.098,0.058-0.171,0.058c-0.098,0-0.172-0.031-0.222-0.095
		c-0.028-0.035-0.047-0.101-0.056-0.199s-0.042-0.173-0.101-0.226c-0.058-0.05-0.139-0.074-0.242-0.074
		c-0.167,0-0.301,0.062-0.402,0.185c-0.135,0.163-0.202,0.379-0.202,0.646c0,0.273,0.067,0.515,0.201,0.723
		c0.134,0.209,0.315,0.314,0.543,0.314c0.163,0,0.309-0.057,0.439-0.168c0.091-0.076,0.181-0.215,0.267-0.417L60.375,28.259z"/>
	<path fill="#D13239" d="M61.371,26.774v0.514c0.191-0.343,0.388-0.514,0.589-0.514c0.091,0,0.167,0.027,0.227,0.084
		c0.06,0.055,0.09,0.119,0.09,0.192c0,0.065-0.021,0.12-0.065,0.165s-0.095,0.067-0.155,0.067c-0.058,0-0.124-0.028-0.196-0.086
		c-0.073-0.058-0.126-0.086-0.161-0.086c-0.03,0-0.062,0.017-0.097,0.05c-0.076,0.068-0.153,0.181-0.232,0.337v1.096
		c0,0.127,0.016,0.223,0.047,0.287c0.021,0.045,0.06,0.082,0.115,0.112c0.054,0.03,0.133,0.045,0.237,0.045v0.09h-1.171v-0.09
		c0.117,0,0.204-0.018,0.26-0.055c0.042-0.026,0.07-0.069,0.087-0.127c0.008-0.028,0.012-0.11,0.012-0.242v-0.887
		c0-0.266-0.005-0.425-0.016-0.475c-0.011-0.052-0.031-0.089-0.06-0.111c-0.029-0.024-0.066-0.035-0.109-0.035
		c-0.052,0-0.109,0.013-0.175,0.037l-0.024-0.09l0.691-0.279H61.371z"/>
	<path fill="#D13239" d="M64.409,26.842v1.386c0,0.265,0.006,0.426,0.019,0.484c0.012,0.06,0.032,0.101,0.06,0.124
		c0.027,0.023,0.059,0.035,0.096,0.035c0.052,0,0.11-0.014,0.175-0.042l0.035,0.088l-0.684,0.281h-0.112v-0.484
		c-0.197,0.213-0.346,0.347-0.45,0.402c-0.104,0.055-0.212,0.082-0.327,0.082c-0.128,0-0.239-0.037-0.333-0.11
		c-0.094-0.075-0.159-0.171-0.196-0.287c-0.037-0.116-0.055-0.281-0.055-0.494v-1.021c0-0.108-0.012-0.183-0.035-0.225
		c-0.023-0.042-0.058-0.074-0.104-0.097c-0.045-0.022-0.128-0.032-0.249-0.031v-0.092h0.801v1.53c0,0.213,0.038,0.353,0.111,0.419
		c0.074,0.066,0.164,0.101,0.269,0.101c0.072,0,0.153-0.022,0.244-0.068c0.09-0.044,0.198-0.131,0.323-0.257v-1.295
		c0-0.13-0.023-0.218-0.072-0.264c-0.047-0.046-0.146-0.071-0.295-0.074v-0.092H64.409z"/>
	<path fill="#D13239" d="M65.75,26.774v1.837c0,0.144,0.01,0.238,0.032,0.286c0.021,0.048,0.051,0.082,0.092,0.105
		c0.041,0.024,0.115,0.035,0.223,0.035v0.09h-1.111v-0.09c0.111,0,0.186-0.011,0.225-0.032s0.069-0.057,0.091-0.107
		s0.033-0.146,0.033-0.287V27.73c0-0.248-0.007-0.408-0.022-0.481c-0.012-0.054-0.03-0.091-0.055-0.111
		c-0.024-0.021-0.059-0.031-0.102-0.031c-0.047,0-0.104,0.013-0.17,0.037l-0.035-0.09l0.689-0.279H65.75z M65.543,25.578
		c0.07,0,0.129,0.024,0.178,0.073c0.049,0.05,0.074,0.109,0.074,0.179c0,0.07-0.025,0.13-0.074,0.18
		c-0.049,0.05-0.108,0.075-0.178,0.075c-0.07,0-0.13-0.025-0.18-0.075c-0.05-0.05-0.076-0.109-0.076-0.18
		c0-0.069,0.025-0.129,0.074-0.179C65.411,25.603,65.471,25.578,65.543,25.578z"/>
	<path fill="#D13239" d="M67.045,26.09v0.752h0.534v0.174h-0.534V28.5c0,0.147,0.021,0.246,0.063,0.299
		c0.042,0.052,0.097,0.077,0.164,0.077c0.055,0,0.108-0.017,0.16-0.051c0.052-0.034,0.091-0.085,0.12-0.151h0.097
		c-0.058,0.163-0.141,0.285-0.247,0.368c-0.106,0.082-0.216,0.123-0.329,0.123c-0.077,0-0.152-0.021-0.226-0.063
		c-0.073-0.042-0.127-0.103-0.162-0.182c-0.035-0.079-0.053-0.201-0.053-0.366v-1.538h-0.362v-0.082
		c0.091-0.036,0.185-0.099,0.281-0.186c0.096-0.087,0.182-0.191,0.256-0.312c0.038-0.062,0.092-0.178,0.16-0.347H67.045z"/>
	<path fill="#D13239" d="M68.48,27.261c0.167-0.166,0.265-0.262,0.295-0.286c0.075-0.063,0.156-0.113,0.242-0.148
		s0.172-0.052,0.257-0.052c0.143,0,0.266,0.042,0.37,0.124c0.103,0.084,0.172,0.205,0.207,0.362
		c0.171-0.199,0.316-0.331,0.435-0.394c0.118-0.062,0.239-0.093,0.364-0.093c0.122,0,0.229,0.031,0.323,0.093
		c0.094,0.062,0.168,0.165,0.224,0.307c0.036,0.097,0.055,0.247,0.055,0.453v0.984c0,0.144,0.011,0.242,0.032,0.294
		c0.017,0.037,0.048,0.068,0.092,0.095c0.045,0.025,0.119,0.038,0.22,0.038v0.09h-1.128v-0.09h0.047c0.098,0,0.175-0.02,0.229-0.058
		c0.038-0.025,0.066-0.069,0.083-0.126c0.006-0.029,0.01-0.11,0.01-0.243v-0.984c0-0.186-0.022-0.317-0.067-0.394
		c-0.065-0.106-0.169-0.16-0.312-0.16c-0.088,0-0.177,0.022-0.266,0.066c-0.089,0.045-0.197,0.126-0.323,0.246l-0.005,0.027
		l0.005,0.107v1.091c0,0.157,0.009,0.254,0.026,0.292c0.017,0.038,0.05,0.07,0.098,0.097c0.049,0.025,0.131,0.038,0.248,0.038v0.09
		h-1.156v-0.09c0.126,0,0.214-0.015,0.261-0.045s0.08-0.074,0.098-0.135c0.009-0.028,0.013-0.11,0.013-0.247v-0.984
		c0-0.186-0.027-0.32-0.083-0.4c-0.073-0.106-0.175-0.16-0.307-0.16c-0.09,0-0.179,0.023-0.267,0.072
		c-0.138,0.073-0.245,0.155-0.32,0.247v1.226c0,0.15,0.011,0.247,0.032,0.292c0.021,0.046,0.051,0.079,0.092,0.102
		c0.041,0.022,0.123,0.033,0.249,0.033v0.09h-1.131v-0.09c0.105,0,0.178-0.011,0.22-0.033s0.073-0.059,0.095-0.107
		c0.021-0.05,0.032-0.145,0.032-0.286v-0.874c0-0.25-0.007-0.413-0.022-0.486c-0.012-0.055-0.03-0.093-0.055-0.113
		c-0.025-0.021-0.059-0.031-0.103-0.031c-0.046,0-0.103,0.013-0.167,0.037l-0.038-0.09l0.689-0.279h0.107V27.261z"/>
	<path fill="#D13239" d="M72.164,27.702c-0.002,0.34,0.081,0.606,0.247,0.8s0.362,0.289,0.586,0.289c0.15,0,0.28-0.041,0.391-0.123
		c0.111-0.083,0.204-0.224,0.278-0.424l0.077,0.05c-0.035,0.228-0.136,0.437-0.304,0.623c-0.168,0.188-0.379,0.281-0.632,0.281
		c-0.274,0-0.51-0.107-0.705-0.321c-0.196-0.214-0.293-0.501-0.293-0.862c0-0.391,0.1-0.695,0.301-0.915
		c0.2-0.219,0.452-0.328,0.755-0.328c0.256,0,0.467,0.084,0.632,0.254c0.165,0.168,0.247,0.395,0.247,0.677H72.164z M72.164,27.559
		h1.058c-0.008-0.147-0.026-0.25-0.052-0.31c-0.042-0.094-0.104-0.167-0.186-0.22c-0.082-0.055-0.169-0.08-0.259-0.08
		c-0.138,0-0.261,0.054-0.371,0.161C72.245,27.218,72.182,27.367,72.164,27.559z"/>
	<path fill="#D13239" d="M74.714,27.259c0.268-0.322,0.523-0.484,0.767-0.484c0.124,0,0.231,0.031,0.321,0.093
		c0.09,0.062,0.162,0.165,0.215,0.309c0.037,0.1,0.055,0.254,0.055,0.46v0.976c0,0.145,0.013,0.243,0.035,0.294
		c0.019,0.042,0.048,0.074,0.089,0.098c0.04,0.024,0.116,0.035,0.226,0.035v0.09h-1.13v-0.09h0.048c0.106,0,0.18-0.017,0.223-0.049
		c0.042-0.032,0.072-0.08,0.088-0.144c0.006-0.024,0.01-0.103,0.01-0.234v-0.937c0-0.207-0.027-0.358-0.082-0.452
		c-0.054-0.095-0.144-0.142-0.272-0.142c-0.199,0-0.396,0.108-0.592,0.324v1.206c0,0.154,0.01,0.251,0.027,0.287
		c0.024,0.048,0.055,0.084,0.097,0.106c0.041,0.022,0.124,0.033,0.248,0.033v0.09h-1.131v-0.09h0.05
		c0.117,0,0.195-0.029,0.236-0.089c0.041-0.059,0.062-0.171,0.062-0.338v-0.849c0-0.275-0.006-0.442-0.019-0.502
		c-0.013-0.06-0.032-0.1-0.058-0.122c-0.025-0.021-0.06-0.032-0.103-0.032c-0.046,0-0.103,0.013-0.167,0.037l-0.037-0.09
		l0.688-0.279h0.107V27.259z"/>
	<path fill="#D13239" d="M77.269,26.09v0.752h0.534v0.174h-0.534V28.5c0,0.147,0.021,0.246,0.063,0.299
		c0.043,0.052,0.097,0.077,0.163,0.077c0.055,0,0.108-0.017,0.16-0.051s0.092-0.085,0.119-0.151h0.099
		c-0.059,0.163-0.142,0.285-0.247,0.368c-0.106,0.082-0.217,0.123-0.33,0.123c-0.076,0-0.151-0.021-0.225-0.063
		c-0.073-0.042-0.128-0.103-0.162-0.182c-0.035-0.079-0.053-0.201-0.053-0.366v-1.538h-0.362v-0.082
		c0.092-0.036,0.186-0.099,0.281-0.186s0.181-0.191,0.256-0.312c0.038-0.062,0.091-0.178,0.159-0.347H77.269z"/>
	<path fill="#D13239" d="M81.487,25.666v1.171h-0.093c-0.03-0.225-0.083-0.403-0.161-0.537c-0.077-0.133-0.188-0.238-0.33-0.317
		c-0.144-0.078-0.291-0.117-0.445-0.117c-0.172,0-0.315,0.053-0.429,0.159c-0.113,0.105-0.17,0.226-0.17,0.36
		c0,0.103,0.036,0.197,0.107,0.282c0.104,0.124,0.349,0.291,0.737,0.5c0.315,0.169,0.531,0.299,0.647,0.39
		c0.116,0.092,0.204,0.197,0.267,0.32c0.062,0.124,0.094,0.253,0.094,0.388c0,0.257-0.1,0.478-0.298,0.662
		c-0.199,0.187-0.455,0.278-0.768,0.278c-0.099,0-0.191-0.007-0.277-0.021c-0.052-0.01-0.158-0.039-0.321-0.092
		c-0.162-0.053-0.265-0.079-0.308-0.079c-0.042,0-0.075,0.013-0.1,0.038c-0.023,0.024-0.042,0.076-0.054,0.154h-0.092v-1.161h0.092
		c0.044,0.244,0.102,0.426,0.176,0.547c0.073,0.12,0.185,0.221,0.336,0.301c0.15,0.079,0.315,0.119,0.495,0.119
		c0.208,0,0.372-0.056,0.492-0.165c0.121-0.109,0.182-0.239,0.182-0.39c0-0.083-0.023-0.167-0.069-0.251
		c-0.045-0.085-0.116-0.164-0.212-0.237c-0.066-0.051-0.243-0.156-0.532-0.319c-0.29-0.161-0.496-0.291-0.618-0.388
		s-0.216-0.203-0.278-0.319c-0.063-0.116-0.095-0.244-0.095-0.385c0-0.243,0.093-0.452,0.279-0.628s0.424-0.263,0.712-0.263
		c0.18,0,0.37,0.044,0.571,0.132c0.093,0.041,0.159,0.062,0.197,0.062c0.043,0,0.079-0.013,0.105-0.039
		c0.028-0.024,0.05-0.078,0.066-0.155H81.487z"/>
	<path fill="#D13239" d="M82.531,27.702c-0.002,0.34,0.08,0.606,0.247,0.8s0.361,0.289,0.586,0.289c0.15,0,0.28-0.041,0.392-0.123
		c0.11-0.083,0.203-0.224,0.278-0.424l0.077,0.05c-0.035,0.228-0.137,0.437-0.305,0.623c-0.168,0.188-0.379,0.281-0.632,0.281
		c-0.274,0-0.51-0.107-0.705-0.321s-0.293-0.501-0.293-0.862c0-0.391,0.1-0.695,0.301-0.915c0.2-0.219,0.452-0.328,0.755-0.328
		c0.256,0,0.467,0.084,0.631,0.254c0.165,0.168,0.248,0.395,0.248,0.677H82.531z M82.531,27.559h1.058
		c-0.008-0.147-0.025-0.25-0.052-0.31c-0.041-0.094-0.104-0.167-0.187-0.22c-0.082-0.055-0.168-0.08-0.258-0.08
		c-0.138,0-0.262,0.054-0.371,0.161C82.613,27.218,82.55,27.367,82.531,27.559z"/>
	<path fill="#D13239" d="M85.085,26.774v0.514c0.19-0.343,0.388-0.514,0.589-0.514c0.091,0,0.167,0.027,0.228,0.084
		c0.06,0.055,0.09,0.119,0.09,0.192c0,0.065-0.021,0.12-0.065,0.165s-0.095,0.067-0.154,0.067c-0.059,0-0.124-0.028-0.196-0.086
		c-0.073-0.058-0.127-0.086-0.161-0.086c-0.03,0-0.062,0.017-0.097,0.05c-0.075,0.068-0.153,0.181-0.232,0.337v1.096
		c0,0.127,0.016,0.223,0.047,0.287c0.021,0.045,0.061,0.082,0.115,0.112s0.134,0.045,0.237,0.045v0.09h-1.172v-0.09
		c0.117,0,0.203-0.018,0.261-0.055c0.042-0.026,0.07-0.069,0.087-0.127c0.009-0.028,0.012-0.11,0.012-0.242v-0.887
		c0-0.266-0.005-0.425-0.015-0.475c-0.012-0.052-0.031-0.089-0.06-0.111c-0.03-0.024-0.066-0.035-0.109-0.035
		c-0.052,0-0.109,0.013-0.176,0.037l-0.023-0.09l0.691-0.279H85.085z"/>
	<path fill="#D13239" d="M86.001,26.842h1.076v0.092h-0.07c-0.064,0-0.114,0.016-0.148,0.047c-0.034,0.032-0.051,0.075-0.051,0.128
		c0,0.059,0.018,0.127,0.053,0.208l0.531,1.263l0.534-1.311c0.039-0.093,0.058-0.164,0.058-0.212c0-0.024-0.007-0.043-0.021-0.058
		c-0.019-0.024-0.041-0.042-0.069-0.051c-0.028-0.01-0.086-0.015-0.172-0.015v-0.092h0.746v0.092
		c-0.087,0.007-0.146,0.024-0.18,0.053c-0.059,0.05-0.111,0.134-0.157,0.249l-0.812,1.963h-0.103l-0.815-1.93
		c-0.038-0.09-0.072-0.155-0.105-0.194c-0.034-0.038-0.076-0.071-0.127-0.098c-0.028-0.016-0.085-0.029-0.168-0.043V26.842z"/>
	<path fill="#D13239" d="M89.464,26.774v1.837c0,0.144,0.01,0.238,0.03,0.286c0.021,0.048,0.053,0.082,0.093,0.105
		c0.041,0.024,0.115,0.035,0.224,0.035v0.09H88.7v-0.09c0.111,0,0.186-0.011,0.225-0.032c0.038-0.021,0.068-0.057,0.091-0.107
		s0.033-0.146,0.033-0.287V27.73c0-0.248-0.008-0.408-0.021-0.481c-0.013-0.054-0.03-0.091-0.056-0.111
		c-0.024-0.021-0.059-0.031-0.103-0.031c-0.046,0-0.104,0.013-0.169,0.037l-0.036-0.09l0.689-0.279H89.464z M89.257,25.578
		c0.069,0,0.129,0.024,0.178,0.073c0.049,0.05,0.074,0.109,0.074,0.179c0,0.07-0.025,0.13-0.074,0.18s-0.108,0.075-0.178,0.075
		c-0.07,0-0.13-0.025-0.18-0.075s-0.076-0.109-0.076-0.18c0-0.069,0.025-0.129,0.074-0.179
		C89.124,25.603,89.185,25.578,89.257,25.578z"/>
	<path fill="#D13239" d="M92.037,28.259c-0.062,0.302-0.182,0.533-0.362,0.696c-0.179,0.162-0.378,0.243-0.597,0.243
		c-0.259,0-0.485-0.109-0.679-0.327c-0.192-0.218-0.289-0.513-0.289-0.884c0-0.36,0.106-0.651,0.32-0.876
		c0.214-0.226,0.471-0.337,0.771-0.337c0.225,0,0.409,0.06,0.555,0.178c0.144,0.119,0.217,0.243,0.217,0.37
		c0,0.063-0.021,0.115-0.062,0.155c-0.04,0.038-0.098,0.058-0.171,0.058c-0.099,0-0.173-0.031-0.222-0.095
		c-0.028-0.035-0.048-0.101-0.058-0.199c-0.009-0.099-0.042-0.173-0.101-0.226c-0.058-0.05-0.138-0.074-0.241-0.074
		c-0.167,0-0.301,0.062-0.402,0.185c-0.135,0.163-0.202,0.379-0.202,0.646c0,0.273,0.067,0.515,0.201,0.723
		c0.134,0.209,0.314,0.314,0.543,0.314c0.163,0,0.309-0.057,0.439-0.168c0.091-0.076,0.181-0.215,0.267-0.417L92.037,28.259z"/>
	<path fill="#D13239" d="M92.749,27.702c-0.002,0.34,0.08,0.606,0.247,0.8c0.166,0.193,0.362,0.289,0.587,0.289
		c0.149,0,0.279-0.041,0.39-0.123c0.11-0.083,0.204-0.224,0.278-0.424l0.077,0.05c-0.034,0.228-0.136,0.437-0.304,0.623
		c-0.169,0.188-0.378,0.281-0.632,0.281c-0.274,0-0.509-0.107-0.705-0.321c-0.195-0.214-0.294-0.501-0.294-0.862
		c0-0.391,0.101-0.695,0.302-0.915c0.2-0.219,0.451-0.328,0.755-0.328c0.257,0,0.467,0.084,0.632,0.254
		c0.165,0.168,0.246,0.395,0.246,0.677H92.749z M92.749,27.559h1.059c-0.009-0.147-0.026-0.25-0.053-0.31
		c-0.042-0.094-0.104-0.167-0.187-0.22c-0.082-0.055-0.168-0.08-0.258-0.08c-0.139,0-0.262,0.054-0.37,0.161
		C92.83,27.218,92.768,27.367,92.749,27.559z"/>
	<path fill="#D13239" d="M96.111,26.774v0.778h-0.082c-0.063-0.244-0.146-0.411-0.243-0.499c-0.1-0.088-0.225-0.133-0.378-0.133
		c-0.116,0-0.211,0.031-0.283,0.093c-0.071,0.062-0.106,0.13-0.106,0.204c0,0.095,0.026,0.174,0.079,0.24
		c0.052,0.068,0.156,0.141,0.314,0.217l0.364,0.178c0.339,0.164,0.508,0.382,0.508,0.651c0,0.208-0.079,0.376-0.235,0.503
		c-0.158,0.128-0.334,0.191-0.529,0.191c-0.14,0-0.3-0.024-0.479-0.075c-0.055-0.017-0.1-0.025-0.134-0.025
		c-0.039,0-0.069,0.022-0.091,0.065h-0.082v-0.816h0.082c0.047,0.232,0.136,0.409,0.268,0.526c0.131,0.118,0.278,0.178,0.442,0.178
		c0.114,0,0.208-0.034,0.28-0.102c0.072-0.066,0.108-0.148,0.108-0.243c0-0.114-0.04-0.211-0.121-0.289
		c-0.08-0.079-0.241-0.178-0.483-0.297c-0.241-0.12-0.398-0.229-0.473-0.325c-0.076-0.095-0.114-0.215-0.114-0.358
		c0-0.189,0.065-0.347,0.194-0.473s0.296-0.189,0.5-0.189c0.09,0,0.199,0.019,0.328,0.058c0.085,0.024,0.142,0.037,0.169,0.037
		c0.026,0,0.048-0.006,0.062-0.019c0.015-0.01,0.033-0.037,0.053-0.076H96.111z"/>
</g>
<path fill="#D13239" d="M27.647,19.332l-3.288-3.288l-2.658,2.658l-1.756,1.756l0,0h1.224c-0.353,0.779-0.849,1.497-1.477,2.126
	c-1.28,1.279-2.98,2.023-4.791,2.097c-1.917,0.078-3.751-0.596-5.162-1.898c-1.411-1.302-2.23-3.074-2.308-4.992
	c-0.082-2.029,0.665-3.938,2.102-5.375c1.279-1.278,2.98-2.022,4.79-2.096c0.97-0.039,1.918,0.115,2.801,0.444l-4.461,4.461
	l-1.009-1.01l0,0v6.243h6.244l0,0l-1.009-1.009l4.459-4.459l2.571-2.57l0.001-0.001c0,0,0,0,0-0.001
	c1.16-1.16,1.166-3.035,0.02-4.203c-0.007-0.007-0.013-0.015-0.02-0.022c-0.014-0.013-0.028-0.024-0.042-0.038
	c-0.7-0.693-1.475-1.309-2.313-1.832c-2.164-1.35-4.741-2.086-7.481-1.976c-3.44,0.139-6.519,1.586-8.775,3.842
	C2.8,10.699,1.307,14.206,1.461,18.03c0.292,7.264,6.417,12.915,13.681,12.621c3.439-0.139,6.519-1.585,8.774-3.842
	c1.72-1.721,2.963-3.911,3.524-6.352h1.333h0L27.647,19.332z"/>
</svg>
