<?xml version="1.0" encoding="utf-8"?>
<!-- Generator: Adobe Illustrator 16.0.0, SVG Export Plug-In . SVG Version: 6.00 Build 0)  -->
<!DOCTYPE svg PUBLIC "-//W3C//DTD SVG 1.1//EN" "http://www.w3.org/Graphics/SVG/1.1/DTD/svg11.dtd">
<svg version="1.1" id="Layer_1" xmlns="http://www.w3.org/2000/svg" xmlns:xlink="http://www.w3.org/1999/xlink" x="0px" y="0px"
	 width="150px" height="35px" viewBox="0 0 150 35" enable-background="new 0 0 150 35" xml:space="preserve">
<g>
	<path d="M42.178,15.331h-5.402l-0.642,1.489c-0.211,0.496-0.316,0.906-0.316,1.229c0,0.428,0.173,0.744,0.519,0.947
		c0.203,0.121,0.703,0.211,1.5,0.27v0.418H32.75v-0.418c0.549-0.082,1-0.309,1.354-0.682c0.353-0.371,0.79-1.141,1.308-2.305
		L40.88,4.078h0.215l5.514,12.54c0.526,1.188,0.958,1.936,1.296,2.244c0.255,0.232,0.616,0.367,1.083,0.404v0.418h-7.398v-0.418
		h0.305c0.594,0,1.011-0.082,1.252-0.248c0.166-0.119,0.248-0.293,0.248-0.518c0-0.135-0.023-0.273-0.067-0.418
		c-0.015-0.066-0.128-0.348-0.339-0.844L42.178,15.331z M41.794,14.497L39.516,9.23l-2.346,5.267H41.794z"/>
	<path d="M63.829,14.316l-0.575,5.367H49.676v-0.418h0.507c0.444,0,0.801-0.078,1.072-0.236c0.196-0.104,0.346-0.285,0.451-0.541
		c0.083-0.18,0.125-0.654,0.125-1.42V7.009c0-0.781-0.042-1.27-0.125-1.465c-0.083-0.196-0.25-0.367-0.502-0.513
		c-0.251-0.146-0.592-0.22-1.021-0.22h-0.507V4.393h8.153v0.417h-0.666c-0.443,0-0.8,0.079-1.071,0.237
		c-0.196,0.105-0.35,0.285-0.463,0.541c-0.083,0.18-0.124,0.654-0.124,1.42v9.743c0,0.781,0.045,1.279,0.135,1.494
		c0.09,0.215,0.267,0.375,0.53,0.479c0.188,0.068,0.643,0.102,1.365,0.102h1.274c0.812,0,1.489-0.143,2.03-0.428
		s1.009-0.736,1.404-1.354c0.395-0.616,0.768-1.525,1.121-2.729H63.829z"/>
	<path d="M75.501,5.273v6.281h0.438c0.678,0,1.23-0.102,1.658-0.304c0.43-0.204,0.791-0.546,1.09-1.027
		c0.295-0.481,0.49-1.131,0.58-1.951h0.395v7.679h-0.395c-0.143-1.45-0.533-2.407-1.168-2.87s-1.354-0.693-2.16-0.693h-0.438v4.68
		c0,0.781,0.041,1.27,0.129,1.465c0.086,0.195,0.256,0.367,0.508,0.514c0.25,0.146,0.592,0.219,1.02,0.219h0.508v0.418H69.67v-0.418
		h0.507c0.443,0,0.801-0.078,1.071-0.236c0.196-0.104,0.346-0.285,0.451-0.541c0.083-0.18,0.125-0.654,0.125-1.42V7.009
		c0-0.781-0.042-1.27-0.125-1.465c-0.083-0.196-0.25-0.367-0.502-0.513s-0.592-0.22-1.021-0.22H69.67V4.393h12.899V8.78h-0.461
		c-0.105-1.03-0.375-1.793-0.807-2.289c-0.434-0.496-1.059-0.846-1.877-1.049c-0.451-0.113-1.287-0.169-2.504-0.169H75.501z"/>
	<path d="M91.151,15.331h-5.4l-0.645,1.489c-0.209,0.496-0.314,0.906-0.314,1.229c0,0.428,0.174,0.744,0.518,0.947
		c0.203,0.121,0.703,0.211,1.502,0.27v0.418h-5.086v-0.418c0.547-0.082,0.998-0.309,1.354-0.682
		c0.352-0.371,0.787-1.141,1.307-2.305l5.469-12.202h0.215l5.516,12.54c0.525,1.188,0.957,1.936,1.295,2.244
		c0.256,0.232,0.617,0.367,1.084,0.404v0.418h-7.398v-0.418h0.305c0.594,0,1.01-0.082,1.252-0.248
		c0.164-0.119,0.248-0.293,0.248-0.518c0-0.135-0.023-0.273-0.068-0.418c-0.016-0.066-0.127-0.348-0.338-0.844L91.151,15.331z
		 M90.769,14.497L88.491,9.23l-2.346,5.267H90.769z"/>
	<path d="M104.538,12.332v4.736c0,0.781,0.043,1.27,0.129,1.465s0.256,0.367,0.508,0.514s0.592,0.219,1.02,0.219h0.508v0.418h-7.994
		v-0.418h0.506c0.443,0,0.801-0.078,1.072-0.236c0.195-0.104,0.346-0.285,0.451-0.541c0.082-0.18,0.123-0.654,0.123-1.42V7.009
		c0-0.781-0.041-1.27-0.123-1.465c-0.084-0.196-0.25-0.367-0.502-0.513s-0.592-0.22-1.021-0.22h-0.506V4.393h7.994v0.417h-0.508
		c-0.443,0-0.801,0.079-1.07,0.237c-0.197,0.105-0.35,0.285-0.463,0.541c-0.082,0.18-0.123,0.654-0.123,1.42v4.331h5.4V7.009
		c0-0.781-0.041-1.27-0.123-1.465c-0.084-0.196-0.252-0.367-0.508-0.513s-0.598-0.22-1.027-0.22h-0.496V4.393h7.984v0.417h-0.496
		c-0.451,0-0.809,0.079-1.07,0.237c-0.195,0.105-0.35,0.285-0.463,0.541c-0.082,0.18-0.125,0.654-0.125,1.42v10.06
		c0,0.781,0.043,1.27,0.125,1.465s0.252,0.367,0.508,0.514s0.598,0.219,1.025,0.219h0.496v0.418h-7.984v-0.418h0.496
		c0.451,0,0.809-0.078,1.072-0.236c0.195-0.104,0.35-0.285,0.463-0.541c0.082-0.18,0.123-0.654,0.123-1.42v-4.736H104.538z"/>
	<path d="M125.794,15.331h-5.402l-0.643,1.489c-0.211,0.496-0.316,0.906-0.316,1.229c0,0.428,0.174,0.744,0.52,0.947
		c0.203,0.121,0.703,0.211,1.5,0.27v0.418h-5.086v-0.418c0.549-0.082,1-0.309,1.354-0.682c0.354-0.371,0.789-1.141,1.307-2.305
		l5.471-12.202h0.213l5.516,12.54c0.527,1.188,0.957,1.936,1.297,2.244c0.254,0.232,0.615,0.367,1.082,0.404v0.418h-7.396v-0.418
		h0.303c0.594,0,1.012-0.082,1.252-0.248c0.166-0.119,0.25-0.293,0.25-0.518c0-0.135-0.023-0.273-0.068-0.418
		c-0.016-0.066-0.129-0.348-0.338-0.844L125.794,15.331z M125.409,14.497l-2.277-5.267l-2.346,5.267H125.409z"/>
	<path d="M133.169,19.684v-0.418h0.508c0.443,0,0.783-0.068,1.02-0.207c0.236-0.141,0.412-0.33,0.523-0.57
		c0.068-0.158,0.102-0.631,0.102-1.42V7.009c0-0.781-0.041-1.27-0.123-1.465c-0.084-0.196-0.25-0.367-0.502-0.513
		s-0.592-0.22-1.02-0.22h-0.508V4.393h6.844c1.826,0,3.297,0.249,4.41,0.745c1.361,0.609,2.393,1.53,3.096,2.762
		c0.701,1.233,1.055,2.627,1.055,4.184c0,1.075-0.174,2.065-0.52,2.971c-0.346,0.906-0.793,1.654-1.342,2.244
		s-1.184,1.064-1.9,1.422c-0.717,0.355-1.596,0.633-2.633,0.828c-0.459,0.09-1.182,0.135-2.166,0.135H133.169z M138.999,5.262
		v11.931c0,0.63,0.029,1.019,0.09,1.161s0.162,0.252,0.305,0.326c0.201,0.113,0.496,0.17,0.879,0.17
		c1.256,0,2.215-0.428,2.877-1.285c0.9-1.158,1.352-2.955,1.352-5.391c0-1.962-0.309-3.53-0.926-4.703
		c-0.486-0.917-1.115-1.541-1.881-1.871C141.153,5.367,140.253,5.254,138.999,5.262z"/>
</g>
<g>
	<path fill="#D13239" d="M35.27,27.506v-0.697c-0.091,0.197-0.233,0.354-0.427,0.463c-0.186,0.105-0.392,0.154-0.618,0.154
		c-0.43,0-0.781-0.152-1.055-0.459c-0.261-0.297-0.392-0.662-0.392-1.096c0-0.43,0.138-0.779,0.415-1.051
		c0.276-0.27,0.629-0.404,1.059-0.404c0.407,0,0.741,0.195,1.002,0.588c0.061-0.172,0.14-0.342,0.237-0.514h0.611l0.238-0.008v0.039
		c-0.166,0.037-0.267,0.189-0.302,0.455c-0.01,0.061-0.015,0.264-0.015,0.607v1.613h0.629v0.309H35.27z M33.234,23.586
		c0-0.123,0.043-0.225,0.129-0.309c0.085-0.082,0.189-0.125,0.312-0.125c0.125,0,0.23,0.041,0.314,0.123s0.126,0.186,0.126,0.311
		c0,0.127-0.043,0.229-0.128,0.309c-0.086,0.078-0.19,0.117-0.313,0.117c-0.126,0-0.23-0.039-0.314-0.117
		C33.276,23.814,33.234,23.713,33.234,23.586z M33.479,25.941c0,0.326,0.069,0.596,0.207,0.803c0.164,0.248,0.401,0.373,0.712,0.373
		s0.546-0.123,0.705-0.369c0.133-0.205,0.2-0.475,0.2-0.807c0-0.336-0.068-0.607-0.204-0.814c-0.158-0.244-0.395-0.369-0.709-0.369
		c-0.311,0-0.548,0.125-0.708,0.373C33.547,25.342,33.479,25.613,33.479,25.941z M34.346,23.586c0-0.123,0.043-0.225,0.128-0.309
		c0.086-0.082,0.19-0.125,0.313-0.125c0.125,0,0.23,0.041,0.314,0.123s0.126,0.186,0.126,0.311c0,0.127-0.042,0.229-0.128,0.309
		c-0.086,0.078-0.19,0.117-0.313,0.117c-0.125,0-0.23-0.039-0.315-0.117C34.388,23.814,34.346,23.713,34.346,23.586z"/>
	<path fill="#D13239" d="M36.551,27.197h1.854c-0.126-0.127-0.206-0.264-0.241-0.41c-0.022-0.1-0.034-0.279-0.034-0.541v-0.889
		c0-0.223-0.011-0.371-0.034-0.441c-0.047-0.139-0.158-0.211-0.332-0.221v-0.051c0.432-0.055,0.809-0.133,1.131-0.236
		c-0.028,0.389-0.042,0.793-0.042,1.213v0.514c0,0.416,0.008,0.672,0.026,0.764c0.051,0.314,0.186,0.508,0.407,0.578l-0.004,0.029
		h-2.732V27.197z M36.562,28.279c0-0.123,0.043-0.229,0.128-0.312c0.085-0.084,0.189-0.125,0.313-0.125
		c0.125,0,0.23,0.041,0.316,0.123c0.085,0.084,0.128,0.188,0.128,0.314c0,0.121-0.042,0.225-0.128,0.305
		c-0.086,0.08-0.191,0.121-0.316,0.121c-0.126,0-0.23-0.041-0.315-0.119S36.562,28.404,36.562,28.279z M37.583,28.279
		c0-0.123,0.042-0.229,0.128-0.312s0.19-0.125,0.313-0.125c0.125,0,0.23,0.041,0.315,0.123c0.084,0.084,0.126,0.188,0.126,0.314
		c0,0.121-0.043,0.225-0.128,0.305c-0.085,0.08-0.19,0.121-0.313,0.121c-0.125,0-0.231-0.041-0.315-0.119
		S37.583,28.404,37.583,28.279z"/>
	<path fill="#D13239" d="M40.866,27.258v-1.316c0-0.219-0.011-0.359-0.033-0.426c-0.046-0.133-0.151-0.205-0.317-0.215v-0.049
		c0.292-0.025,0.618-0.104,0.98-0.234c-0.027,0.4-0.034,0.871-0.019,1.414s0.014,0.869-0.003,0.98
		c0.002,0.377-0.082,0.678-0.252,0.904c-0.284,0.342-0.583,0.5-0.897,0.475c-0.314-0.027-0.557-0.146-0.727-0.357l0.177-0.664h0.045
		c0.11,0.557,0.289,0.834,0.535,0.834C40.688,28.604,40.859,28.154,40.866,27.258z"/>
	<path fill="#D13239" d="M42.095,27.525l-0.004-0.049c0.208-0.061,0.336-0.23,0.384-0.51c0.018-0.09,0.027-0.322,0.027-0.697v-3.195
		c0-0.219-0.011-0.361-0.034-0.426c-0.045-0.135-0.152-0.205-0.321-0.215v-0.049c0.292-0.025,0.618-0.104,0.98-0.234
		c-0.022,0.354-0.033,0.756-0.03,1.207v2.889c0.02,0.406,0.034,0.643,0.042,0.711c0.045,0.291,0.171,0.463,0.38,0.52v0.049
		c-0.239-0.014-0.47-0.02-0.693-0.02C42.535,27.506,42.291,27.512,42.095,27.525z"/>
	<path fill="#D13239" d="M44.382,24.943c0.327-0.332,0.73-0.498,1.21-0.498c0.475,0,0.882,0.191,1.221,0.572
		c0.329,0.367,0.494,0.789,0.494,1.268c0,0.584-0.366,0.99-1.097,1.221h-1.752c-0.221,0-0.35-0.166-0.385-0.5
		c0.119,0.127,0.233,0.191,0.343,0.191h1.519c0.422,0,0.656-0.291,0.701-0.871c-0.03-0.391-0.123-0.754-0.275-1.086
		c-0.203-0.449-0.47-0.674-0.799-0.674c-0.105,0-0.214,0.039-0.326,0.117S45.046,24.85,45,24.947
		c-0.05,0.107-0.075,0.229-0.075,0.361c0,0.154,0.026,0.264,0.08,0.332c0.095,0.125,0.146,0.191,0.15,0.199
		c-0.01,0.014-0.052,0.023-0.125,0.031c-0.093-0.004-0.179-0.004-0.256-0.004c-0.133,0-0.36,0.006-0.682,0.021V25.84
		c0.115-0.033,0.194-0.08,0.237-0.141c0.043-0.059,0.064-0.15,0.064-0.273v-0.139C44.394,25.174,44.39,25.059,44.382,24.943z"/>
	<path fill="#D13239" d="M49.305,27.871c-0.635-0.363-0.954-0.865-0.954-1.504v-2.709c0-0.219-0.011-0.361-0.034-0.426
		c-0.045-0.131-0.152-0.201-0.32-0.211v-0.049c0.292-0.025,0.618-0.105,0.98-0.238c-0.02,0.365-0.03,0.768-0.03,1.211v2.426
		C48.962,26.932,49.081,27.432,49.305,27.871z M50.307,22.135v4.346c0,0.547-0.13,0.982-0.392,1.309
		c-0.221,0.279-0.59,0.418-1.107,0.418c-0.085,0-0.177-0.004-0.275-0.01c-0.071-0.008-0.175-0.018-0.312-0.035l0.203-0.652h0.038
		c0.033,0.15,0.104,0.277,0.211,0.381c0.078,0.074,0.194,0.113,0.35,0.113c0.056,0,0.118-0.006,0.189-0.016
		c0.216-0.031,0.364-0.213,0.444-0.539c0.045-0.236,0.068-0.561,0.068-0.973c0-0.82,0-1.084,0-0.787V23.16
		c0-0.268-0.019-0.43-0.057-0.482c-0.042-0.164-0.153-0.25-0.332-0.26v-0.049C49.624,22.332,49.948,22.254,50.307,22.135z
		 M48.54,29.055v-0.109h0.159c-0.098-0.064-0.147-0.148-0.147-0.248c0-0.104,0.049-0.184,0.147-0.238
		c0.083-0.045,0.179-0.068,0.29-0.068c0.124,0,0.23,0.023,0.321,0.068l-0.045,0.17l-0.011-0.004
		c-0.047-0.131-0.129-0.195-0.245-0.195c-0.076,0-0.144,0.025-0.206,0.078s-0.093,0.115-0.093,0.189c0,0.088,0.054,0.17,0.162,0.248
		h0.392c0.033,0,0.064-0.012,0.094-0.037c-0.01,0.098-0.045,0.146-0.105,0.146H48.54z"/>
	<path fill="#D13239" d="M50.926,27.525l-0.004-0.049c0.209-0.061,0.337-0.23,0.385-0.51c0.018-0.09,0.027-0.322,0.027-0.697v-3.195
		c0-0.219-0.012-0.361-0.034-0.426c-0.045-0.135-0.152-0.205-0.321-0.215v-0.049c0.292-0.025,0.619-0.104,0.98-0.234
		c-0.022,0.354-0.032,0.756-0.03,1.207v2.889c0.02,0.406,0.034,0.643,0.042,0.711c0.045,0.291,0.172,0.463,0.38,0.52v0.049
		c-0.239-0.014-0.47-0.02-0.693-0.02C51.365,27.506,51.122,27.512,50.926,27.525z"/>
	<path fill="#D13239" d="M53.024,28.535l0.26-0.799h0.045c0.153,0.701,0.529,1.051,1.126,1.051c0.857,0,1.286-0.676,1.286-2.031
		v-0.057c-0.224,0.553-0.657,0.83-1.3,0.83c-0.399,0-0.746-0.105-1.04-0.314c-0.332-0.232-0.498-0.541-0.498-0.926
		c0-0.457,0.175-0.818,0.524-1.082c0.313-0.244,0.707-0.365,1.18-0.365c0.588,0,1.05,0.182,1.387,0.547
		c0.327,0.354,0.49,0.828,0.49,1.42c0,0.639-0.181,1.148-0.542,1.531c-0.372,0.391-0.874,0.588-1.508,0.588
		C53.972,28.928,53.502,28.797,53.024,28.535z M55.655,26.184c0-0.338-0.078-0.615-0.234-0.834
		c-0.175-0.246-0.424-0.369-0.746-0.369c-0.349,0-0.61,0.125-0.784,0.377c-0.15,0.217-0.226,0.508-0.226,0.875
		c0,0.322,0.082,0.586,0.245,0.795c0.184,0.225,0.432,0.336,0.747,0.336c0.314,0,0.564-0.121,0.75-0.361
		C55.573,26.779,55.655,26.508,55.655,26.184z"/>
	<path fill="#D13239" d="M60.464,27.506v-0.697c-0.09,0.197-0.232,0.354-0.425,0.463c-0.187,0.105-0.392,0.154-0.619,0.154
		c-0.43,0-0.781-0.152-1.055-0.459c-0.261-0.297-0.392-0.662-0.392-1.096c0-0.43,0.138-0.779,0.415-1.051
		c0.276-0.27,0.629-0.404,1.06-0.404c0.407,0,0.741,0.195,1.002,0.588c0.06-0.172,0.139-0.342,0.237-0.514h0.61l0.237-0.008v0.039
		c-0.166,0.037-0.266,0.189-0.301,0.455c-0.01,0.061-0.015,0.264-0.015,0.607v1.613h0.629v0.309H60.464z M58.429,23.586
		c0-0.123,0.043-0.225,0.128-0.309c0.085-0.082,0.19-0.125,0.313-0.125c0.125,0,0.23,0.041,0.315,0.123
		c0.084,0.082,0.126,0.186,0.126,0.311c0,0.127-0.042,0.229-0.128,0.309c-0.085,0.078-0.189,0.117-0.313,0.117
		c-0.125,0-0.23-0.039-0.314-0.117C58.471,23.814,58.429,23.713,58.429,23.586z M58.674,25.941c0,0.326,0.069,0.596,0.207,0.803
		c0.164,0.248,0.401,0.373,0.712,0.373c0.312,0,0.546-0.123,0.705-0.369c0.133-0.205,0.199-0.475,0.199-0.807
		c0-0.336-0.067-0.607-0.203-0.814c-0.158-0.244-0.395-0.369-0.708-0.369c-0.312,0-0.548,0.125-0.709,0.373
		C58.742,25.342,58.674,25.613,58.674,25.941z M59.541,23.586c0-0.123,0.042-0.225,0.128-0.309c0.085-0.082,0.19-0.125,0.313-0.125
		c0.126,0,0.23,0.041,0.315,0.123s0.126,0.186,0.126,0.311c0,0.127-0.043,0.229-0.128,0.309c-0.085,0.078-0.189,0.117-0.313,0.117
		c-0.125,0-0.23-0.039-0.314-0.117C59.583,23.814,59.541,23.713,59.541,23.586z"/>
	<path fill="#D13239" d="M63.924,27.197h0.521v0.309h-2.699v-0.309h1.458v-1.84c0-0.223-0.012-0.371-0.038-0.441
		c-0.048-0.139-0.158-0.211-0.332-0.221v-0.051c0.432-0.055,0.809-0.133,1.131-0.236c-0.028,0.389-0.042,0.793-0.042,1.213V27.197z
		 M62.006,28.279c0-0.123,0.042-0.229,0.128-0.312c0.085-0.084,0.189-0.125,0.313-0.125c0.125,0,0.23,0.041,0.314,0.123
		c0.084,0.084,0.126,0.188,0.126,0.314c0,0.121-0.043,0.225-0.128,0.305c-0.086,0.08-0.19,0.121-0.313,0.121
		c-0.126,0-0.231-0.041-0.315-0.119S62.006,28.404,62.006,28.279z M63.023,28.279c0-0.123,0.043-0.229,0.128-0.312
		s0.189-0.125,0.313-0.125c0.125,0,0.23,0.041,0.314,0.123c0.085,0.084,0.127,0.188,0.127,0.314c0,0.121-0.042,0.225-0.128,0.305
		c-0.085,0.08-0.19,0.121-0.312,0.121c-0.126,0-0.23-0.041-0.314-0.119C63.065,28.508,63.023,28.404,63.023,28.279z"/>
	<path fill="#D13239" d="M66.295,27.197h0.486v0.309h-2.45v-0.309h1.24v-1.84c0-0.223-0.013-0.371-0.038-0.441
		c-0.045-0.139-0.154-0.211-0.328-0.221v-0.051c0.432-0.055,0.809-0.133,1.13-0.236c-0.027,0.389-0.041,0.793-0.041,1.213V27.197z
		 M64.637,23.578c0-0.123,0.043-0.227,0.128-0.311c0.085-0.084,0.19-0.125,0.313-0.125c0.125,0,0.23,0.041,0.314,0.123
		c0.084,0.084,0.126,0.188,0.126,0.312c0,0.123-0.042,0.227-0.128,0.307c-0.086,0.08-0.19,0.121-0.312,0.121
		c-0.126,0-0.231-0.041-0.315-0.119C64.679,23.807,64.637,23.705,64.637,23.578z"/>
	<path fill="#D13239" d="M66.672,27.197h0.788c-0.221-0.266-0.332-0.6-0.332-1c0-0.455,0.16-0.82,0.479-1.1
		c0.304-0.264,0.688-0.396,1.153-0.396c0.47,0,0.854,0.137,1.149,0.408c0.309,0.281,0.464,0.654,0.464,1.119
		c0,0.471-0.156,0.844-0.468,1.123c-0.301,0.27-0.691,0.404-1.168,0.404c-0.367,0-0.68-0.086-0.939-0.258v0.008h-1.126V27.197z
		 M67.818,26.217c0,0.391,0.061,0.707,0.185,0.949c0.161,0.322,0.417,0.482,0.769,0.482c0.347,0,0.599-0.16,0.758-0.482
		c0.121-0.246,0.181-0.561,0.181-0.945c0-0.389-0.062-0.703-0.185-0.941c-0.164-0.318-0.421-0.475-0.772-0.475
		c-0.337,0-0.587,0.158-0.75,0.479C67.879,25.529,67.818,25.84,67.818,26.217z"/>
	<path fill="#D13239" d="M72.374,27.871c-0.635-0.363-0.953-0.865-0.953-1.504v-2.709c0-0.219-0.011-0.361-0.034-0.426
		c-0.045-0.131-0.152-0.201-0.321-0.211v-0.049c0.292-0.025,0.619-0.105,0.98-0.238c-0.02,0.365-0.03,0.768-0.03,1.211v2.426
		C72.031,26.932,72.15,27.432,72.374,27.871z M71.172,22.482v-0.109h0.158c-0.095-0.068-0.143-0.15-0.143-0.248
		c0-0.104,0.049-0.184,0.147-0.238c0.083-0.045,0.18-0.068,0.291-0.068c0.121,0,0.226,0.023,0.316,0.068l-0.042,0.17l-0.015-0.004
		c-0.045-0.131-0.126-0.195-0.242-0.195c-0.078,0-0.147,0.025-0.209,0.078s-0.092,0.115-0.092,0.189c0,0.086,0.055,0.17,0.165,0.248
		h0.392c0.03,0,0.061-0.012,0.091-0.037c-0.01,0.098-0.045,0.146-0.105,0.146H71.172z M73.377,22.135v4.346
		c0,0.547-0.131,0.982-0.392,1.309c-0.221,0.279-0.59,0.418-1.108,0.418c-0.085,0-0.177-0.004-0.275-0.01
		c-0.071-0.008-0.175-0.018-0.313-0.035l0.204-0.652h0.038c0.033,0.15,0.103,0.277,0.211,0.381c0.078,0.074,0.194,0.113,0.35,0.113
		c0.056,0,0.118-0.006,0.189-0.016c0.216-0.031,0.364-0.213,0.445-0.539c0.045-0.236,0.067-0.561,0.067-0.973
		c0-0.82,0-1.084,0-0.787V23.16c0-0.268-0.019-0.43-0.056-0.482c-0.043-0.164-0.153-0.25-0.332-0.26v-0.049
		C72.693,22.332,73.018,22.254,73.377,22.135z"/>
	<path fill="#D13239" d="M73.995,27.525l-0.004-0.049c0.208-0.061,0.336-0.23,0.384-0.51c0.018-0.09,0.027-0.322,0.027-0.697v-3.195
		c0-0.219-0.012-0.361-0.034-0.426c-0.045-0.135-0.152-0.205-0.32-0.215v-0.049c0.292-0.025,0.618-0.104,0.979-0.234
		c-0.022,0.354-0.032,0.756-0.029,1.207v2.889c0.021,0.406,0.034,0.643,0.041,0.711c0.046,0.291,0.171,0.463,0.38,0.52v0.049
		c-0.238-0.014-0.469-0.02-0.693-0.02C74.435,27.506,74.191,27.512,73.995,27.525z"/>
	<path fill="#D13239" d="M79.188,27.197h3.191c-0.143-0.127-0.234-0.264-0.273-0.41c-0.025-0.1-0.039-0.279-0.039-0.541v-0.889
		c0-0.223-0.012-0.371-0.037-0.441c-0.047-0.139-0.158-0.211-0.332-0.221v-0.051c0.434-0.055,0.809-0.133,1.131-0.236
		c-0.027,0.389-0.041,0.793-0.041,1.213v0.514c0,0.416,0.008,0.672,0.025,0.764c0.051,0.314,0.186,0.508,0.408,0.578l-0.004,0.029
		h-4.533c-0.559,0-0.98-0.053-1.268-0.158c-0.354-0.129-0.562-0.342-0.625-0.641c-0.014-0.062-0.02-0.125-0.02-0.186
		c0-0.303,0.162-0.582,0.482-0.836c0.383-0.305,0.844-0.51,1.383-0.619c0.273-0.055,0.551-0.08,0.83-0.078
		c0.281,0.006,0.543,0.039,0.783,0.102l-0.086,0.781l-0.061,0.002c-0.111-0.277-0.293-0.477-0.551-0.594
		c-0.164-0.07-0.342-0.105-0.535-0.105c-0.115,0-0.236,0.012-0.361,0.037c-0.299,0.057-0.545,0.178-0.738,0.357
		c-0.211,0.195-0.328,0.439-0.352,0.729c-0.002,0.031-0.002,0.062-0.002,0.094c0,0.205,0.059,0.361,0.18,0.467
		c0.143,0.121,0.273,0.195,0.389,0.227C78.433,27.158,78.784,27.197,79.188,27.197z M79.155,23.578c0-0.123,0.043-0.227,0.127-0.311
		c0.086-0.084,0.191-0.125,0.312-0.125c0.127,0,0.23,0.041,0.314,0.123c0.086,0.084,0.127,0.188,0.127,0.312
		c0,0.123-0.043,0.227-0.129,0.307c-0.084,0.08-0.189,0.121-0.312,0.121c-0.125,0-0.23-0.041-0.314-0.119
		C79.196,23.807,79.155,23.705,79.155,23.578z M80.267,23.578c0-0.123,0.043-0.227,0.129-0.311c0.084-0.084,0.189-0.125,0.312-0.125
		c0.125,0,0.23,0.041,0.314,0.123c0.084,0.084,0.125,0.188,0.125,0.312c0,0.123-0.043,0.227-0.127,0.307
		c-0.086,0.08-0.191,0.121-0.312,0.121c-0.127,0-0.23-0.041-0.316-0.119C80.31,23.807,80.267,23.705,80.267,23.578z"/>
	<path fill="#D13239" d="M83.733,27.525l-0.004-0.049c0.209-0.061,0.338-0.23,0.385-0.51c0.018-0.09,0.027-0.322,0.027-0.697v-3.195
		c0-0.219-0.014-0.361-0.035-0.426c-0.045-0.135-0.152-0.205-0.32-0.215v-0.049c0.291-0.025,0.617-0.104,0.98-0.234
		c-0.023,0.354-0.033,0.756-0.029,1.207v2.889c0.02,0.406,0.033,0.643,0.041,0.711c0.045,0.291,0.172,0.463,0.381,0.52v0.049
		c-0.24-0.014-0.471-0.02-0.693-0.02C84.175,27.506,83.929,27.512,83.733,27.525z"/>
	<path fill="#D13239" d="M86.749,27.258v-1.316c0-0.219-0.012-0.359-0.033-0.426c-0.045-0.133-0.152-0.205-0.316-0.215v-0.049
		c0.291-0.025,0.617-0.104,0.979-0.234c-0.027,0.4-0.033,0.871-0.018,1.414c0.014,0.543,0.014,0.869-0.004,0.98
		c0.002,0.377-0.082,0.678-0.254,0.904c-0.283,0.342-0.582,0.5-0.896,0.475c-0.314-0.027-0.557-0.146-0.727-0.357l0.176-0.664h0.047
		c0.109,0.557,0.289,0.834,0.535,0.834C86.571,28.604,86.741,28.154,86.749,27.258z"/>
	<path fill="#D13239" d="M87.978,27.506l-0.004-0.029c0.209-0.061,0.336-0.23,0.385-0.51c0.018-0.09,0.025-0.322,0.025-0.697v-3.195
		c0-0.219-0.012-0.361-0.033-0.426c-0.045-0.135-0.152-0.205-0.32-0.215v-0.049c0.291-0.025,0.617-0.104,0.98-0.234
		c-0.023,0.344-0.033,0.746-0.031,1.207v3.84h0.535v0.309h-0.807C88.417,27.506,88.173,27.506,87.978,27.506z"/>
	<path fill="#D13239" d="M95.944,27.197v0.309h-0.18c-0.416,0-0.715-0.115-0.902-0.348c-0.205,0.258-0.506,0.379-0.9,0.367
		c-0.496-0.018-0.818-0.312-0.965-0.883c-0.047,0.207-0.123,0.377-0.227,0.51c-0.203,0.264-0.506,0.389-0.908,0.373
		c-0.5-0.018-0.822-0.307-0.967-0.867c-0.049,0.201-0.123,0.365-0.223,0.494c-0.184,0.234-0.486,0.354-0.91,0.354h-0.346v-0.309
		h0.332c0.309-0.051,0.498-0.205,0.568-0.463c0.031-0.1,0.045-0.438,0.045-1.016c0-0.494-0.123-0.781-0.373-0.863v-0.047
		c0.195,0.012,0.416,0.018,0.664,0.018c0.281,0,0.51-0.006,0.686-0.018l0.004,0.047c-0.168,0.051-0.279,0.178-0.336,0.377
		c-0.029,0.111-0.045,0.291-0.045,0.541v0.354c0.012,0.285,0.066,0.523,0.17,0.709c0.131,0.24,0.326,0.361,0.584,0.361
		c0.043,0,0.088-0.002,0.137-0.008c0.307-0.045,0.494-0.197,0.564-0.455c0.029-0.1,0.045-0.438,0.045-1.016
		c0-0.494-0.125-0.781-0.373-0.863v-0.047c0.193,0.012,0.416,0.018,0.668,0.018c0.279,0,0.506-0.006,0.682-0.018l0.004,0.047
		c-0.168,0.051-0.281,0.178-0.336,0.377c-0.029,0.111-0.045,0.291-0.045,0.541v0.354c0.01,0.285,0.066,0.523,0.17,0.709
		c0.131,0.24,0.324,0.361,0.584,0.361c0.043,0,0.088-0.002,0.135-0.008c0.307-0.045,0.496-0.197,0.566-0.455
		c0.029-0.1,0.045-0.438,0.045-1.016c0-0.5-0.125-0.787-0.377-0.863l0.004-0.047c0.232,0.012,0.471,0.018,0.709,0.018
		s0.451-0.006,0.641-0.018l0.004,0.047c-0.252,0.076-0.377,0.363-0.377,0.863v0.205c0,0.441,0.014,0.711,0.045,0.811
		c0.07,0.258,0.26,0.412,0.568,0.463H95.944z M91.731,23.877c0-0.127,0.043-0.23,0.129-0.314c0.084-0.082,0.189-0.123,0.312-0.123
		c0.125,0,0.23,0.041,0.314,0.123c0.084,0.084,0.127,0.188,0.127,0.314c0,0.123-0.045,0.225-0.129,0.305
		c-0.086,0.08-0.189,0.121-0.312,0.121c-0.127,0-0.232-0.041-0.316-0.119S91.731,24.002,91.731,23.877z M92.243,22.9
		c0-0.123,0.043-0.227,0.129-0.311s0.191-0.127,0.316-0.127s0.23,0.041,0.314,0.125c0.084,0.082,0.127,0.188,0.127,0.312
		c0,0.123-0.043,0.225-0.129,0.305c-0.086,0.082-0.189,0.121-0.312,0.121c-0.125,0-0.23-0.039-0.316-0.119
		C92.286,23.129,92.243,23.025,92.243,22.9z M92.839,23.877c0-0.127,0.043-0.23,0.129-0.314c0.086-0.082,0.191-0.123,0.316-0.123
		s0.23,0.041,0.314,0.123c0.084,0.084,0.127,0.188,0.127,0.314c0,0.123-0.043,0.225-0.129,0.305s-0.189,0.121-0.312,0.121
		c-0.125,0-0.23-0.041-0.316-0.119S92.839,24.002,92.839,23.877z"/>
	<path fill="#D13239" d="M98.21,27.197h0.455v0.309h-2.822v-0.309h1.643v-1.84c0-0.223-0.012-0.371-0.037-0.441
		c-0.047-0.139-0.158-0.211-0.332-0.221v-0.051c0.434-0.055,0.811-0.133,1.131-0.236c-0.025,0.389-0.037,0.793-0.037,1.213V27.197z
		 M95.964,23.578c0-0.123,0.043-0.227,0.127-0.311c0.086-0.084,0.191-0.125,0.314-0.125c0.125,0,0.23,0.041,0.314,0.123
		c0.084,0.084,0.127,0.188,0.127,0.312c0,0.123-0.043,0.227-0.129,0.307s-0.189,0.121-0.312,0.121c-0.127,0-0.23-0.041-0.314-0.119
		C96.007,23.807,95.964,23.705,95.964,23.578z M97.075,23.578c0-0.123,0.043-0.227,0.129-0.311c0.084-0.084,0.189-0.125,0.312-0.125
		c0.125,0,0.23,0.041,0.314,0.123c0.084,0.084,0.127,0.188,0.127,0.312c0,0.123-0.043,0.227-0.129,0.307s-0.189,0.121-0.312,0.121
		c-0.127,0-0.23-0.041-0.314-0.119C97.118,23.807,97.075,23.705,97.075,23.578z"/>
	<path fill="#D13239" d="M98.558,27.506v-0.309h0.33c0.305-0.051,0.494-0.197,0.566-0.441c0.031-0.107,0.049-0.371,0.049-0.791
		v-0.279c0-0.473-0.125-0.748-0.373-0.83v-0.047c0.193,0.012,0.414,0.018,0.662,0.018c0.283,0,0.512-0.006,0.688-0.018l0.004,0.047
		c-0.166,0.051-0.275,0.174-0.328,0.367c-0.035,0.109-0.053,0.283-0.053,0.52v0.232c0,0.014,0,0.039,0,0.078
		c0,0.029,0,0.053,0,0.074c0.01,0.285,0.066,0.523,0.17,0.709c0.131,0.24,0.324,0.361,0.584,0.361c0.041,0,0.088-0.002,0.135-0.008
		c0.303-0.045,0.488-0.191,0.561-0.438c0.035-0.102,0.051-0.365,0.051-0.787v-0.279c0-0.473-0.125-0.748-0.373-0.83v-0.047
		c0.193,0.012,0.416,0.018,0.666,0.018c0.279,0,0.508-0.006,0.684-0.018l0.004,0.047c-0.166,0.051-0.275,0.174-0.328,0.367
		c-0.037,0.109-0.055,0.283-0.055,0.52v0.232c0,0.127-0.004,0.244-0.014,0.352c0.078,0.584,0.324,0.873,0.742,0.871
		c0.039,0,0.082-0.002,0.129-0.008c0.303-0.045,0.492-0.191,0.564-0.438c0.033-0.102,0.049-0.365,0.049-0.787v-0.279
		c0-0.473-0.125-0.748-0.373-0.83v-0.047c0.193,0.012,0.414,0.018,0.664,0.018c0.281,0,0.51-0.006,0.686-0.018l0.004,0.047
		c-0.166,0.051-0.275,0.174-0.332,0.367c-0.033,0.109-0.049,0.283-0.049,0.52v0.232c0,0.537-0.096,0.928-0.289,1.178
		c-0.207,0.264-0.51,0.389-0.91,0.373c-0.479-0.018-0.797-0.293-0.949-0.826c-0.049,0.184-0.119,0.334-0.211,0.453
		c-0.203,0.264-0.506,0.389-0.908,0.373c-0.5-0.018-0.822-0.307-0.969-0.867c-0.047,0.201-0.121,0.365-0.223,0.494
		c-0.184,0.234-0.486,0.354-0.908,0.354H98.558z"/>
	<path fill="#D13239" d="M106.542,27.871c-0.635-0.363-0.953-0.865-0.953-1.504v-2.709c0-0.219-0.01-0.361-0.033-0.426
		c-0.045-0.131-0.152-0.201-0.32-0.211v-0.049c0.291-0.025,0.617-0.105,0.98-0.238c-0.025,0.365-0.035,0.768-0.031,1.211v2.426
		C106.2,26.932,106.319,27.432,106.542,27.871z M107.456,27.197h0.541v0.309h-0.662c-0.051,0.104-0.111,0.197-0.182,0.283
		c-0.221,0.279-0.59,0.418-1.107,0.418c-0.086,0-0.178-0.004-0.275-0.01c-0.07-0.008-0.176-0.018-0.312-0.035l0.203-0.652h0.037
		c0.033,0.15,0.104,0.277,0.211,0.381c0.078,0.074,0.195,0.113,0.352,0.113c0.055,0,0.117-0.006,0.188-0.016
		c0.217-0.031,0.365-0.213,0.445-0.539c0.057-0.236,0.08-0.561,0.068-0.973V23.16c0-0.268-0.02-0.43-0.057-0.482
		c-0.043-0.164-0.154-0.25-0.332-0.26v-0.049c0.289-0.037,0.613-0.115,0.973-0.234v4.346
		C107.546,26.744,107.515,26.982,107.456,27.197z M105.778,29.055v-0.109h0.158c-0.098-0.064-0.146-0.148-0.146-0.248
		c0-0.104,0.049-0.184,0.146-0.238c0.082-0.045,0.18-0.068,0.291-0.068c0.121,0,0.229,0.023,0.318,0.068l-0.045,0.17l-0.012-0.004
		c-0.047-0.131-0.129-0.195-0.244-0.195c-0.074,0-0.145,0.025-0.205,0.078c-0.062,0.053-0.092,0.115-0.092,0.189
		c0,0.088,0.053,0.17,0.162,0.248h0.391c0.033,0,0.064-0.012,0.096-0.037c-0.012,0.098-0.047,0.146-0.107,0.146H105.778z"/>
	<path fill="#D13239" d="M107.87,27.197h0.877c-0.186-0.105-0.277-0.33-0.277-0.676v-3.447c0-0.219-0.012-0.361-0.035-0.426
		c-0.045-0.135-0.15-0.205-0.316-0.215v-0.049c0.289-0.025,0.615-0.104,0.977-0.234c-0.023,0.354-0.035,0.756-0.035,1.207v2.889
		c0,0.287,0.016,0.521,0.047,0.705c0.045,0.285,0.162,0.469,0.35,0.555h-1.586V27.197z"/>
	<path fill="#D13239" d="M113.249,28.297c-0.479,0-0.828-0.051-1.053-0.15c-0.148-0.068-0.328-0.221-0.543-0.459
		c-0.369-0.406-0.547-0.896-0.535-1.479c0.002-0.105,0.004-0.201,0.004-0.289c0-0.402-0.021-0.635-0.066-0.697
		c-0.057-0.078-0.148-0.135-0.279-0.166v-0.053c0.248,0.018,0.469,0.025,0.664,0.025c0.215,0,0.445-0.008,0.691-0.025v0.053
		c-0.145,0.031-0.25,0.119-0.316,0.256c-0.045,0.104-0.07,0.25-0.074,0.438c0.002,0.146,0.004,0.291,0.008,0.438
		c-0.014,0.5,0.104,0.941,0.354,1.326c0.283,0.432,0.666,0.648,1.146,0.648c0.422,0,0.781-0.186,1.076-0.559
		c0.18-0.227,0.301-0.488,0.367-0.787c0.012-0.148,0.018-0.33,0.018-0.547v-3.23c0-0.215-0.01-0.357-0.033-0.426
		c-0.045-0.129-0.15-0.201-0.316-0.211v-0.049c0.289-0.025,0.615-0.104,0.975-0.236c-0.021,0.355-0.031,0.76-0.029,1.209v2.92
		c0.012,0.117,0.012,0.248,0,0.396c-0.045,0.508-0.178,0.865-0.395,1.07C114.497,28.102,113.944,28.297,113.249,28.297z"/>
	<path fill="#D13239" d="M116.157,28.535l0.26-0.799h0.045c0.154,0.701,0.529,1.051,1.127,1.051c0.857,0,1.285-0.676,1.285-2.031
		v-0.057c-0.223,0.553-0.656,0.83-1.299,0.83c-0.4,0-0.746-0.105-1.041-0.314c-0.332-0.232-0.498-0.541-0.498-0.926
		c0-0.457,0.176-0.818,0.525-1.082c0.314-0.244,0.707-0.365,1.18-0.365c0.588,0,1.049,0.182,1.387,0.547
		c0.326,0.354,0.488,0.828,0.488,1.42c0,0.639-0.18,1.148-0.541,1.531c-0.373,0.391-0.875,0.588-1.508,0.588
		C117.104,28.928,116.636,28.797,116.157,28.535z M118.788,26.184c0-0.338-0.078-0.615-0.234-0.834
		c-0.174-0.246-0.424-0.369-0.746-0.369c-0.35,0-0.609,0.125-0.783,0.377c-0.15,0.217-0.227,0.508-0.227,0.875
		c0,0.322,0.082,0.586,0.246,0.795c0.182,0.225,0.432,0.336,0.746,0.336c0.312,0,0.564-0.121,0.75-0.361
		C118.704,26.779,118.788,26.508,118.788,26.184z"/>
	<path fill="#D13239" d="M123.862,27.197h0.475v0.309h-0.535c-0.088,0.33-0.246,0.609-0.473,0.844
		c-0.369,0.385-0.867,0.578-1.492,0.578c-0.461,0-0.932-0.131-1.408-0.393l0.26-0.799h0.045c0.152,0.701,0.529,1.051,1.127,1.051
		c0.857,0,1.285-0.676,1.285-2.031v-0.057c-0.225,0.553-0.658,0.83-1.301,0.83c-0.398,0-0.746-0.105-1.039-0.314
		c-0.332-0.232-0.498-0.541-0.498-0.926c0-0.457,0.174-0.818,0.523-1.082c0.314-0.244,0.707-0.365,1.18-0.365
		c0.588,0,1.049,0.182,1.387,0.547c0.326,0.354,0.49,0.828,0.49,1.42C123.888,26.945,123.88,27.074,123.862,27.197z M123.058,26.184
		c0-0.338-0.076-0.615-0.232-0.834c-0.176-0.246-0.426-0.369-0.746-0.369c-0.35,0-0.611,0.125-0.785,0.377
		c-0.15,0.217-0.227,0.508-0.227,0.875c0,0.322,0.082,0.586,0.246,0.795c0.184,0.225,0.432,0.336,0.746,0.336
		s0.564-0.121,0.75-0.361C122.976,26.779,123.058,26.508,123.058,26.184z"/>
	<path fill="#D13239" d="M127.976,24.213l-0.258,0.602h-0.041c-0.154-0.635-0.613-0.953-1.377-0.953
		c-0.242,0-0.451,0.113-0.629,0.34c-0.166,0.213-0.248,0.443-0.248,0.689c0,0.406,0.334,0.611,1.004,0.611h2.334
		c0.688,0,1.029,0.359,1.021,1.076c-0.006,0.502,0.141,0.803,0.434,0.898l-0.004,0.029h-5.977v-0.309h5.139
		c-0.211-0.184-0.314-0.377-0.314-0.58v-0.332c0-0.32-0.287-0.479-0.857-0.479h-1.943c-1.025,0-1.539-0.279-1.539-0.836
		c0-0.391,0.16-0.701,0.48-0.936c0.283-0.209,0.625-0.312,1.027-0.312C126.829,23.723,127.411,23.885,127.976,24.213z"/>
	<path fill="#D13239" d="M134.364,27.197h0.932v0.309h-3.32c-0.221,0-0.35-0.166-0.385-0.5c0.119,0.127,0.232,0.191,0.344,0.191
		h1.52c0.42,0,0.654-0.291,0.699-0.871c-0.029-0.391-0.121-0.754-0.275-1.086c-0.201-0.449-0.469-0.674-0.799-0.674
		c-0.105,0-0.213,0.039-0.324,0.117c-0.113,0.078-0.191,0.166-0.236,0.264c-0.051,0.107-0.076,0.229-0.076,0.361
		c0,0.154,0.027,0.264,0.08,0.332c0.096,0.125,0.145,0.191,0.15,0.199c-0.01,0.014-0.053,0.023-0.125,0.031
		c-0.092-0.004-0.178-0.004-0.256-0.004c-0.133,0-0.361,0.006-0.682,0.021V25.84c0.115-0.033,0.193-0.08,0.236-0.141
		c0.043-0.059,0.064-0.15,0.064-0.273v-0.139c0-0.113-0.004-0.229-0.012-0.344c0.328-0.332,0.73-0.498,1.211-0.498
		c0.475,0,0.881,0.191,1.221,0.572c0.33,0.367,0.494,0.789,0.494,1.268C134.825,26.662,134.673,26.967,134.364,27.197z"/>
	<path fill="#D13239" d="M140.274,27.197h0.867v0.309h-5.939v-0.309h1.229c-0.387-0.248-0.58-0.6-0.58-1.051
		c0-0.387,0.154-0.695,0.467-0.932c0.273-0.207,0.611-0.32,1.014-0.344l-0.053-0.652c0.24-0.08,0.502-0.123,0.785-0.131
		c0.277-0.006,0.555,0.029,0.828,0.105c0.541,0.15,1.002,0.43,1.387,0.84c0.32,0.346,0.479,0.723,0.479,1.135
		c0,0.082-0.006,0.168-0.018,0.252C140.687,26.76,140.532,27.02,140.274,27.197z M136.921,27.197h1.131
		c0.254-0.205,0.379-0.547,0.379-1.033c0-0.766-0.291-1.168-0.877-1.207c-0.051,0.1-0.094,0.211-0.129,0.336l-0.061-0.01
		l-0.021-0.318c-0.281,0.033-0.492,0.174-0.629,0.424c-0.117,0.203-0.174,0.459-0.174,0.768
		C136.54,26.65,136.667,26.996,136.921,27.197z M138.522,27.193c0.41-0.014,0.705-0.068,0.889-0.17
		c0.209-0.115,0.357-0.25,0.449-0.406c0.072-0.129,0.109-0.318,0.109-0.57c0-0.059-0.004-0.119-0.008-0.188
		c-0.02-0.355-0.121-0.662-0.301-0.924c-0.197-0.277-0.459-0.459-0.789-0.551c-0.123-0.035-0.24-0.053-0.354-0.053
		c-0.395,0-0.699,0.182-0.916,0.539c0.412,0.02,0.754,0.135,1.029,0.344c0.309,0.236,0.463,0.553,0.463,0.949
		C139.095,26.607,138.903,26.949,138.522,27.193z"/>
	<path fill="#D13239" d="M141.56,25.924c0-0.457,0.16-0.826,0.479-1.105c0.303-0.264,0.686-0.396,1.15-0.396
		c0.473,0,0.855,0.139,1.152,0.412c0.309,0.279,0.465,0.65,0.465,1.115c0,0.453-0.15,0.82-0.449,1.104
		c-0.057,0.055-0.119,0.102-0.186,0.145h1.068v0.309h-4.199v-0.309h1.152c-0.068-0.045-0.131-0.096-0.188-0.154
		C141.708,26.756,141.56,26.383,141.56,25.924z M142.245,25.938c0,0.611,0.143,1.031,0.428,1.26h1.047
		c0.279-0.23,0.418-0.65,0.418-1.256c0-0.387-0.061-0.701-0.186-0.941c-0.16-0.316-0.416-0.475-0.768-0.475
		c-0.34,0-0.59,0.158-0.754,0.479C142.308,25.252,142.245,25.564,142.245,25.938z M142.69,23.406c0-0.123,0.043-0.227,0.129-0.311
		c0.086-0.082,0.189-0.123,0.312-0.123c0.125,0,0.23,0.041,0.316,0.123c0.086,0.08,0.127,0.184,0.127,0.311
		c0,0.121-0.041,0.225-0.127,0.305s-0.191,0.121-0.316,0.121c-0.127,0-0.23-0.041-0.314-0.119
		C142.733,23.633,142.69,23.531,142.69,23.406z"/>
	<path fill="#D13239" d="M145.14,27.197h0.879c-0.186-0.105-0.279-0.33-0.279-0.676v-3.447c0-0.219-0.012-0.361-0.033-0.426
		c-0.047-0.135-0.15-0.205-0.318-0.215v-0.049c0.289-0.025,0.615-0.104,0.979-0.234c-0.023,0.354-0.035,0.756-0.035,1.207v2.889
		c0,0.287,0.016,0.521,0.045,0.705c0.047,0.285,0.162,0.469,0.35,0.555h-1.586V27.197z"/>
	<path fill="#D13239" d="M147.175,27.525l-0.004-0.049c0.209-0.061,0.338-0.23,0.385-0.51c0.018-0.09,0.027-0.322,0.027-0.697
		v-3.195c0-0.219-0.012-0.361-0.035-0.426c-0.045-0.135-0.15-0.205-0.32-0.215v-0.049c0.293-0.025,0.619-0.104,0.98-0.234
		c-0.023,0.354-0.033,0.756-0.029,1.207v2.889c0.02,0.406,0.033,0.643,0.041,0.711c0.045,0.291,0.172,0.463,0.381,0.52v0.049
		c-0.238-0.014-0.471-0.02-0.693-0.02C147.616,27.506,147.372,27.512,147.175,27.525z"/>
</g>
<g>
	<path fill="#D13239" d="M35.146,32.678h-1.361l-0.239,0.555c-0.059,0.137-0.088,0.238-0.088,0.307c0,0.053,0.026,0.1,0.077,0.141
		s0.162,0.066,0.331,0.078v0.096h-1.107v-0.096c0.147-0.025,0.242-0.059,0.285-0.102c0.088-0.082,0.186-0.25,0.293-0.504
		l1.237-2.893h0.091l1.224,2.924c0.099,0.234,0.188,0.387,0.269,0.457c0.08,0.07,0.192,0.109,0.335,0.117v0.096h-1.387v-0.096
		c0.14-0.006,0.235-0.029,0.284-0.07c0.049-0.039,0.074-0.088,0.074-0.145c0-0.076-0.035-0.195-0.104-0.359L35.146,32.678z
		 M35.074,32.486l-0.596-1.422l-0.612,1.422H35.074z"/>
	<path fill="#D13239" d="M37.534,30.168v3.15c0,0.148,0.01,0.246,0.033,0.295c0.021,0.049,0.055,0.086,0.1,0.111
		c0.044,0.023,0.129,0.037,0.251,0.037v0.092h-1.164v-0.092c0.109,0,0.183-0.012,0.223-0.035c0.04-0.021,0.07-0.059,0.093-0.109
		c0.023-0.053,0.034-0.152,0.034-0.299V31.16c0-0.268-0.006-0.432-0.019-0.494c-0.012-0.061-0.031-0.104-0.058-0.125
		s-0.061-0.033-0.103-0.033c-0.044,0-0.102,0.014-0.171,0.041l-0.044-0.09l0.708-0.291H37.534z"/>
	<path fill="#D13239" d="M40.44,30.531v1.381h0.641c0.147,0,0.254-0.031,0.323-0.096s0.113-0.193,0.136-0.385h0.096v1.189H41.54
		c-0.001-0.137-0.02-0.238-0.053-0.301c-0.033-0.064-0.08-0.111-0.14-0.145c-0.06-0.031-0.148-0.049-0.266-0.049H40.44v1.105
		c0,0.178,0.011,0.295,0.034,0.354c0.018,0.043,0.053,0.08,0.109,0.111c0.076,0.041,0.156,0.061,0.238,0.061h0.127v0.096H39.44
		v-0.096h0.125c0.145,0,0.25-0.041,0.316-0.125c0.041-0.057,0.062-0.189,0.062-0.4v-2.271c0-0.178-0.012-0.295-0.034-0.352
		c-0.018-0.043-0.053-0.082-0.106-0.111c-0.075-0.043-0.154-0.062-0.239-0.062H39.44V30.34h2.616l0.034,0.771h-0.091
		c-0.044-0.164-0.097-0.283-0.157-0.361s-0.133-0.133-0.221-0.168c-0.087-0.033-0.222-0.051-0.405-0.051H40.44z"/>
	<path fill="#D13239" d="M43.819,33.512c-0.244,0.189-0.397,0.297-0.459,0.326c-0.094,0.045-0.193,0.066-0.298,0.066
		c-0.165,0-0.299-0.057-0.406-0.17c-0.106-0.111-0.16-0.26-0.16-0.441c0-0.117,0.026-0.217,0.078-0.301
		c0.071-0.119,0.194-0.229,0.37-0.332c0.175-0.105,0.467-0.23,0.875-0.379v-0.094c0-0.236-0.038-0.398-0.113-0.488
		c-0.075-0.088-0.185-0.131-0.328-0.131c-0.108,0-0.195,0.029-0.259,0.088c-0.065,0.059-0.098,0.125-0.098,0.203l0.005,0.148
		c0,0.08-0.02,0.141-0.061,0.186c-0.041,0.043-0.094,0.064-0.159,0.064c-0.064,0-0.117-0.021-0.157-0.068
		c-0.041-0.045-0.061-0.105-0.061-0.184c0-0.148,0.076-0.285,0.228-0.408c0.152-0.125,0.366-0.188,0.641-0.188
		c0.211,0,0.384,0.035,0.519,0.105c0.102,0.055,0.177,0.139,0.226,0.252c0.031,0.074,0.046,0.227,0.046,0.455v0.807
		c0,0.229,0.005,0.365,0.013,0.416c0.008,0.053,0.023,0.086,0.042,0.104c0.02,0.018,0.043,0.025,0.069,0.025
		c0.028,0,0.052-0.006,0.073-0.018c0.036-0.023,0.106-0.086,0.21-0.189v0.145c-0.194,0.26-0.379,0.389-0.555,0.389
		c-0.084,0-0.152-0.029-0.202-0.088C43.846,33.754,43.82,33.654,43.819,33.512z M43.819,33.344v-0.904
		c-0.261,0.104-0.43,0.176-0.506,0.221c-0.137,0.076-0.234,0.154-0.293,0.236c-0.059,0.084-0.088,0.176-0.088,0.273
		c0,0.125,0.037,0.229,0.111,0.311c0.074,0.082,0.16,0.123,0.256,0.123C43.431,33.604,43.604,33.516,43.819,33.344z"/>
	<path fill="#D13239" d="M45.527,30.168v1.736c0.192-0.211,0.344-0.346,0.456-0.404c0.112-0.061,0.225-0.09,0.337-0.09
		c0.135,0,0.251,0.037,0.347,0.111c0.097,0.074,0.169,0.191,0.215,0.35c0.033,0.111,0.049,0.312,0.049,0.605v0.842
		c0,0.15,0.012,0.252,0.036,0.309c0.018,0.041,0.047,0.074,0.089,0.098c0.041,0.023,0.117,0.037,0.228,0.037v0.092h-1.167v-0.092
		h0.055c0.111,0,0.187-0.018,0.23-0.051s0.074-0.084,0.091-0.15c0.005-0.027,0.008-0.109,0.008-0.242v-0.842
		c0-0.258-0.013-0.428-0.04-0.51c-0.027-0.08-0.07-0.141-0.128-0.182c-0.059-0.041-0.13-0.061-0.212-0.061
		c-0.085,0-0.173,0.021-0.264,0.066c-0.092,0.045-0.202,0.135-0.33,0.273v1.254c0,0.162,0.009,0.264,0.027,0.303
		c0.018,0.039,0.051,0.072,0.101,0.1c0.05,0.027,0.135,0.041,0.256,0.041v0.092h-1.177v-0.092c0.105,0,0.188-0.018,0.249-0.049
		c0.034-0.018,0.062-0.051,0.083-0.1c0.021-0.049,0.031-0.146,0.031-0.295V31.17c0-0.271-0.006-0.439-0.019-0.502
		c-0.014-0.062-0.033-0.105-0.06-0.127c-0.027-0.021-0.063-0.033-0.108-0.033c-0.036,0-0.095,0.014-0.176,0.041l-0.036-0.09
		l0.71-0.291H45.527z"/>
	<path fill="#D13239" d="M48.83,33.512c-0.244,0.189-0.396,0.297-0.458,0.326c-0.093,0.045-0.193,0.066-0.298,0.066
		c-0.165,0-0.3-0.057-0.406-0.17c-0.106-0.111-0.16-0.26-0.16-0.441c0-0.117,0.026-0.217,0.078-0.301
		c0.071-0.119,0.194-0.229,0.369-0.332c0.176-0.105,0.467-0.23,0.875-0.379v-0.094c0-0.236-0.037-0.398-0.112-0.488
		c-0.076-0.088-0.185-0.131-0.328-0.131c-0.109,0-0.195,0.029-0.259,0.088c-0.066,0.059-0.099,0.125-0.099,0.203l0.005,0.148
		c0,0.08-0.02,0.141-0.061,0.186c-0.041,0.043-0.094,0.064-0.159,0.064c-0.064,0-0.117-0.021-0.157-0.068
		c-0.041-0.045-0.061-0.105-0.061-0.184c0-0.148,0.076-0.285,0.229-0.408c0.152-0.125,0.366-0.188,0.64-0.188
		c0.211,0,0.383,0.035,0.519,0.105c0.102,0.055,0.177,0.139,0.226,0.252c0.031,0.074,0.047,0.227,0.047,0.455v0.807
		c0,0.229,0.004,0.365,0.013,0.416c0.009,0.053,0.023,0.086,0.043,0.104s0.042,0.025,0.068,0.025c0.028,0,0.052-0.006,0.073-0.018
		c0.037-0.023,0.106-0.086,0.21-0.189v0.145c-0.193,0.26-0.378,0.389-0.555,0.389c-0.085,0-0.152-0.029-0.203-0.088
		C48.857,33.754,48.832,33.654,48.83,33.512z M48.83,33.344v-0.904c-0.26,0.104-0.429,0.176-0.505,0.221
		c-0.136,0.076-0.234,0.154-0.293,0.236c-0.059,0.084-0.088,0.176-0.088,0.273c0,0.125,0.037,0.229,0.111,0.311
		c0.074,0.082,0.16,0.123,0.257,0.123C48.443,33.604,48.615,33.516,48.83,33.344z"/>
	<path fill="#D13239" d="M51.518,33.588c-0.115,0.121-0.229,0.207-0.339,0.26s-0.23,0.08-0.358,0.08
		c-0.259,0-0.486-0.109-0.679-0.326c-0.194-0.217-0.291-0.496-0.291-0.836s0.108-0.652,0.322-0.936
		c0.214-0.281,0.49-0.424,0.827-0.424c0.209,0,0.382,0.068,0.518,0.201V31.17c0-0.271-0.006-0.439-0.019-0.502
		s-0.033-0.105-0.061-0.127c-0.027-0.021-0.062-0.033-0.104-0.033c-0.045,0-0.105,0.014-0.179,0.041l-0.034-0.09l0.708-0.291h0.117
		v2.746c0,0.277,0.006,0.447,0.019,0.51c0.013,0.061,0.034,0.104,0.062,0.127c0.028,0.025,0.062,0.037,0.1,0.037
		c0.047,0,0.109-0.016,0.187-0.045l0.028,0.092l-0.705,0.293h-0.12V33.588z M51.518,33.406v-1.225
		c-0.01-0.117-0.041-0.225-0.093-0.32c-0.052-0.098-0.121-0.17-0.207-0.221c-0.085-0.047-0.168-0.072-0.25-0.072
		c-0.152,0-0.288,0.068-0.407,0.205c-0.158,0.18-0.236,0.441-0.236,0.789s0.077,0.615,0.229,0.801s0.321,0.279,0.508,0.279
		C51.219,33.643,51.372,33.562,51.518,33.406z"/>
	<path fill="#D13239" d="M56.854,30.26l0.081,1.193h-0.081c-0.107-0.357-0.26-0.615-0.459-0.771
		c-0.198-0.158-0.437-0.236-0.715-0.236c-0.233,0-0.445,0.061-0.633,0.178c-0.188,0.119-0.336,0.307-0.444,0.566
		c-0.108,0.26-0.162,0.582-0.162,0.967c0,0.318,0.051,0.594,0.153,0.828c0.103,0.232,0.256,0.41,0.461,0.535
		c0.205,0.125,0.438,0.188,0.701,0.188c0.228,0,0.429-0.049,0.604-0.146s0.366-0.293,0.575-0.582l0.08,0.051
		c-0.176,0.312-0.382,0.543-0.617,0.688s-0.514,0.219-0.837,0.219c-0.583,0-1.034-0.217-1.354-0.648
		c-0.239-0.322-0.358-0.701-0.358-1.135c0-0.352,0.079-0.674,0.236-0.969c0.157-0.293,0.374-0.521,0.649-0.682
		c0.275-0.162,0.577-0.242,0.904-0.242c0.254,0,0.504,0.061,0.751,0.186c0.073,0.039,0.125,0.057,0.156,0.057
		c0.046,0,0.087-0.016,0.122-0.049c0.045-0.047,0.077-0.111,0.096-0.193H56.854z"/>
	<path fill="#D13239" d="M58.71,33.512c-0.244,0.189-0.396,0.297-0.459,0.326c-0.093,0.045-0.192,0.066-0.298,0.066
		c-0.164,0-0.299-0.057-0.406-0.17c-0.106-0.111-0.16-0.26-0.16-0.441c0-0.117,0.026-0.217,0.078-0.301
		c0.071-0.119,0.194-0.229,0.369-0.332c0.176-0.105,0.467-0.23,0.875-0.379v-0.094c0-0.236-0.038-0.398-0.113-0.488
		c-0.075-0.088-0.185-0.131-0.328-0.131c-0.109,0-0.195,0.029-0.259,0.088c-0.066,0.059-0.099,0.125-0.099,0.203l0.005,0.148
		c0,0.08-0.02,0.141-0.061,0.186c-0.041,0.043-0.094,0.064-0.16,0.064c-0.064,0-0.116-0.021-0.157-0.068
		c-0.041-0.045-0.061-0.105-0.061-0.184c0-0.148,0.076-0.285,0.228-0.408c0.152-0.125,0.366-0.188,0.641-0.188
		c0.211,0,0.383,0.035,0.519,0.105c0.102,0.055,0.177,0.139,0.226,0.252c0.031,0.074,0.047,0.227,0.047,0.455v0.807
		c0,0.229,0.004,0.365,0.012,0.416c0.009,0.053,0.023,0.086,0.043,0.104c0.021,0.018,0.043,0.025,0.069,0.025
		c0.028,0,0.052-0.006,0.073-0.018c0.036-0.023,0.106-0.086,0.21-0.189v0.145c-0.193,0.26-0.378,0.389-0.555,0.389
		c-0.085,0-0.152-0.029-0.203-0.088C58.738,33.754,58.712,33.654,58.71,33.512z M58.71,33.344v-0.904
		c-0.261,0.104-0.429,0.176-0.505,0.221c-0.137,0.076-0.234,0.154-0.293,0.236c-0.059,0.084-0.088,0.176-0.088,0.273
		c0,0.125,0.037,0.229,0.111,0.311c0.074,0.082,0.16,0.123,0.257,0.123C58.323,33.604,58.496,33.516,58.71,33.344z"/>
	<path fill="#D13239" d="M60.538,30.168v3.15c0,0.148,0.011,0.246,0.033,0.295c0.021,0.049,0.055,0.086,0.1,0.111
		c0.045,0.023,0.129,0.037,0.251,0.037v0.092h-1.164v-0.092c0.108,0,0.183-0.012,0.223-0.035c0.04-0.021,0.071-0.059,0.093-0.109
		c0.022-0.053,0.034-0.152,0.034-0.299V31.16c0-0.268-0.007-0.432-0.019-0.494c-0.012-0.061-0.032-0.104-0.059-0.125
		s-0.061-0.033-0.102-0.033c-0.045,0-0.102,0.014-0.171,0.041l-0.044-0.09l0.708-0.291H60.538z"/>
	<path fill="#D13239" d="M62.013,30.168v3.15c0,0.148,0.011,0.246,0.032,0.295s0.055,0.086,0.1,0.111
		c0.044,0.023,0.129,0.037,0.251,0.037v0.092h-1.164v-0.092c0.109,0,0.183-0.012,0.223-0.035c0.04-0.021,0.071-0.059,0.093-0.109
		c0.022-0.053,0.034-0.152,0.034-0.299V31.16c0-0.268-0.006-0.432-0.018-0.494c-0.012-0.061-0.032-0.104-0.058-0.125
		c-0.027-0.021-0.061-0.033-0.103-0.033c-0.045,0-0.102,0.014-0.171,0.041l-0.044-0.09l0.708-0.291H62.013z"/>
	<path fill="#D13239" d="M66.267,30.26v1.215h-0.096c-0.031-0.234-0.087-0.418-0.167-0.557s-0.195-0.248-0.343-0.33
		c-0.149-0.082-0.303-0.121-0.462-0.121c-0.18,0-0.328,0.055-0.445,0.164c-0.118,0.109-0.176,0.234-0.176,0.375
		c0,0.107,0.037,0.205,0.111,0.293c0.107,0.129,0.362,0.303,0.765,0.518c0.329,0.176,0.552,0.311,0.673,0.406
		c0.12,0.094,0.212,0.205,0.277,0.332c0.065,0.129,0.097,0.264,0.097,0.402c0,0.266-0.104,0.496-0.31,0.689
		c-0.206,0.191-0.472,0.289-0.797,0.289c-0.103,0-0.198-0.008-0.288-0.023c-0.054-0.01-0.165-0.041-0.333-0.096
		s-0.275-0.082-0.32-0.082c-0.043,0-0.077,0.014-0.103,0.039c-0.025,0.027-0.043,0.08-0.056,0.162h-0.096V32.73h0.096
		c0.044,0.252,0.105,0.439,0.181,0.566c0.076,0.125,0.192,0.229,0.349,0.311c0.156,0.084,0.328,0.125,0.514,0.125
		c0.216,0,0.387-0.057,0.512-0.172c0.125-0.113,0.188-0.248,0.188-0.404c0-0.086-0.024-0.172-0.071-0.262
		c-0.048-0.088-0.122-0.17-0.222-0.246c-0.067-0.051-0.251-0.16-0.552-0.33c-0.301-0.168-0.515-0.303-0.642-0.402
		c-0.127-0.102-0.224-0.211-0.29-0.332c-0.065-0.121-0.098-0.254-0.098-0.4c0-0.252,0.097-0.469,0.291-0.652
		c0.193-0.182,0.44-0.271,0.739-0.271c0.187,0,0.385,0.045,0.594,0.137c0.097,0.043,0.165,0.064,0.205,0.064
		c0.045,0,0.082-0.014,0.111-0.039c0.028-0.027,0.051-0.082,0.068-0.162H66.267z"/>
	<path fill="#D13239" d="M67.351,32.375c-0.001,0.352,0.084,0.629,0.257,0.828c0.173,0.201,0.376,0.301,0.609,0.301
		c0.156,0,0.291-0.041,0.406-0.127c0.115-0.086,0.211-0.232,0.29-0.439l0.08,0.051c-0.036,0.238-0.142,0.453-0.316,0.646
		c-0.175,0.195-0.394,0.293-0.656,0.293c-0.285,0-0.529-0.111-0.732-0.334s-0.305-0.52-0.305-0.895c0-0.406,0.104-0.725,0.312-0.951
		c0.208-0.229,0.469-0.342,0.784-0.342c0.267,0,0.485,0.09,0.657,0.264c0.171,0.176,0.256,0.41,0.256,0.705H67.351z M67.351,32.223
		h1.099c-0.008-0.15-0.027-0.258-0.054-0.32c-0.043-0.096-0.107-0.174-0.193-0.229c-0.085-0.055-0.175-0.082-0.269-0.082
		c-0.143,0-0.271,0.055-0.385,0.166S67.37,32.025,67.351,32.223z"/>
	<path fill="#D13239" d="M71.325,32.953c-0.064,0.312-0.189,0.553-0.376,0.721c-0.187,0.168-0.393,0.254-0.619,0.254
		c-0.27,0-0.505-0.113-0.706-0.34s-0.301-0.533-0.301-0.918c0-0.373,0.111-0.678,0.333-0.91c0.222-0.232,0.489-0.35,0.8-0.35
		c0.233,0,0.425,0.062,0.576,0.186s0.226,0.252,0.226,0.385c0,0.066-0.021,0.119-0.064,0.158c-0.042,0.041-0.101,0.062-0.177,0.062
		c-0.102,0-0.179-0.033-0.231-0.1c-0.029-0.035-0.049-0.105-0.058-0.207c-0.009-0.104-0.044-0.18-0.105-0.234
		c-0.061-0.051-0.144-0.076-0.251-0.076c-0.173,0-0.312,0.062-0.417,0.191c-0.14,0.17-0.21,0.393-0.21,0.672
		c0,0.283,0.069,0.533,0.208,0.75c0.139,0.217,0.327,0.324,0.564,0.324c0.169,0,0.321-0.057,0.456-0.172
		c0.095-0.08,0.188-0.225,0.278-0.434L71.325,32.953z"/>
	<path fill="#D13239" d="M73.747,31.48v1.438c0,0.275,0.006,0.443,0.02,0.506c0.013,0.061,0.034,0.104,0.062,0.127
		c0.028,0.025,0.062,0.037,0.099,0.037c0.054,0,0.115-0.016,0.182-0.045l0.037,0.092l-0.71,0.293h-0.117v-0.504
		c-0.204,0.223-0.359,0.361-0.467,0.418c-0.107,0.057-0.22,0.086-0.339,0.086c-0.133,0-0.249-0.039-0.346-0.115
		c-0.098-0.078-0.166-0.176-0.204-0.297c-0.038-0.121-0.057-0.293-0.057-0.514v-1.061c0-0.113-0.012-0.189-0.036-0.234
		c-0.024-0.043-0.06-0.076-0.107-0.1c-0.048-0.023-0.134-0.033-0.258-0.031V31.48h0.832v1.588c0,0.223,0.038,0.367,0.115,0.436
		c0.077,0.07,0.169,0.104,0.279,0.104c0.074,0,0.159-0.021,0.252-0.068c0.095-0.047,0.207-0.137,0.336-0.268v-1.346
		c0-0.135-0.024-0.227-0.074-0.273s-0.152-0.072-0.307-0.076V31.48H73.747z"/>
	<path fill="#D13239" d="M75.015,31.41v0.533c0.197-0.355,0.402-0.533,0.611-0.533c0.096,0,0.174,0.029,0.236,0.086
		c0.062,0.059,0.094,0.125,0.094,0.201c0,0.068-0.023,0.125-0.068,0.172s-0.098,0.07-0.16,0.07c-0.061,0-0.129-0.031-0.203-0.09
		c-0.076-0.061-0.131-0.09-0.168-0.09c-0.031,0-0.064,0.018-0.102,0.053c-0.076,0.07-0.158,0.188-0.24,0.35v1.139
		c0,0.131,0.016,0.229,0.049,0.297c0.022,0.047,0.062,0.086,0.119,0.117c0.059,0.031,0.139,0.047,0.246,0.047v0.092h-1.215v-0.092
		c0.121,0,0.211-0.02,0.27-0.057c0.043-0.027,0.073-0.072,0.09-0.133c0.009-0.029,0.014-0.113,0.014-0.252V32.4
		c0-0.277-0.006-0.441-0.017-0.494c-0.012-0.053-0.032-0.092-0.062-0.115s-0.067-0.035-0.112-0.035
		c-0.054,0-0.114,0.012-0.182,0.037l-0.026-0.094l0.718-0.289H75.015z"/>
	<path fill="#D13239" d="M76.907,31.41v1.908c0,0.148,0.01,0.248,0.031,0.295c0.023,0.051,0.055,0.088,0.096,0.111
		c0.043,0.023,0.121,0.037,0.232,0.037v0.092h-1.152v-0.092c0.115,0,0.193-0.012,0.232-0.035c0.041-0.021,0.072-0.059,0.096-0.109
		c0.023-0.053,0.035-0.152,0.035-0.299v-0.916c0-0.258-0.008-0.424-0.025-0.5c-0.012-0.055-0.029-0.094-0.057-0.115
		c-0.025-0.021-0.061-0.031-0.105-0.031c-0.049,0-0.107,0.012-0.176,0.037l-0.037-0.094l0.715-0.289H76.907z M76.692,30.168
		c0.072,0,0.135,0.025,0.186,0.076c0.049,0.051,0.076,0.113,0.076,0.186s-0.027,0.135-0.076,0.186
		c-0.051,0.053-0.113,0.078-0.186,0.078s-0.135-0.025-0.188-0.078c-0.053-0.051-0.078-0.113-0.078-0.186s0.025-0.135,0.076-0.186
		C76.556,30.193,76.618,30.168,76.692,30.168z"/>
	<path fill="#D13239" d="M78.253,30.699v0.781h0.555v0.18h-0.555v1.541c0,0.154,0.021,0.258,0.066,0.311
		c0.043,0.055,0.1,0.082,0.168,0.082c0.059,0,0.113-0.018,0.166-0.055c0.055-0.035,0.096-0.088,0.125-0.156h0.102
		c-0.061,0.17-0.146,0.297-0.256,0.383c-0.111,0.086-0.227,0.127-0.342,0.127c-0.08,0-0.158-0.021-0.234-0.064
		c-0.076-0.045-0.133-0.107-0.168-0.189c-0.037-0.082-0.055-0.209-0.055-0.381V31.66h-0.377v-0.084
		c0.096-0.039,0.191-0.104,0.293-0.193c0.1-0.092,0.188-0.199,0.266-0.322c0.039-0.066,0.094-0.186,0.164-0.361H78.253z"/>
	<path fill="#D13239" d="M78.903,31.48h1.107v0.096h-0.055c-0.078,0-0.137,0.018-0.176,0.051s-0.059,0.074-0.059,0.125
		c0,0.068,0.029,0.16,0.086,0.279l0.578,1.199l0.533-1.312c0.027-0.07,0.043-0.141,0.043-0.211c0-0.029-0.006-0.053-0.02-0.07
		s-0.033-0.033-0.064-0.043c-0.027-0.012-0.08-0.018-0.154-0.018V31.48h0.771v0.096c-0.062,0.008-0.113,0.021-0.146,0.041
		c-0.035,0.02-0.072,0.061-0.115,0.117c-0.016,0.023-0.045,0.09-0.088,0.199l-0.967,2.369c-0.094,0.23-0.215,0.404-0.367,0.521
		C79.661,34.941,79.515,35,79.376,35c-0.104,0-0.186-0.029-0.252-0.088s-0.1-0.125-0.1-0.203c0-0.07,0.025-0.131,0.072-0.174
		c0.047-0.045,0.111-0.066,0.195-0.066c0.057,0,0.135,0.02,0.234,0.057c0.068,0.027,0.111,0.039,0.129,0.039
		c0.051,0,0.107-0.027,0.17-0.08c0.061-0.055,0.123-0.156,0.186-0.311l0.168-0.412l-0.854-1.791
		c-0.025-0.055-0.066-0.121-0.123-0.201c-0.045-0.059-0.08-0.102-0.107-0.121c-0.039-0.027-0.104-0.051-0.191-0.072V31.48z"/>
	<path fill="#D13239" d="M84.991,32.678H83.63l-0.238,0.555c-0.059,0.137-0.09,0.238-0.09,0.307c0,0.053,0.025,0.1,0.076,0.141
		c0.053,0.041,0.162,0.066,0.332,0.078v0.096h-1.107v-0.096c0.146-0.025,0.242-0.059,0.285-0.102
		c0.088-0.082,0.186-0.25,0.293-0.504l1.236-2.893h0.092l1.223,2.924c0.1,0.234,0.189,0.387,0.268,0.457
		c0.082,0.07,0.193,0.109,0.338,0.117v0.096h-1.389v-0.096c0.141-0.006,0.234-0.029,0.285-0.07c0.049-0.039,0.072-0.088,0.072-0.145
		c0-0.076-0.033-0.195-0.102-0.359L84.991,32.678z M84.917,32.486l-0.596-1.422l-0.611,1.422H84.917z"/>
	<path fill="#D13239" d="M87.255,31.912c0.277-0.334,0.543-0.502,0.795-0.502c0.129,0,0.24,0.031,0.334,0.096
		c0.094,0.066,0.168,0.172,0.223,0.32c0.039,0.105,0.059,0.264,0.059,0.479v1.014c0,0.15,0.012,0.252,0.035,0.305
		c0.02,0.045,0.049,0.078,0.092,0.102s0.121,0.037,0.234,0.037v0.092h-1.174v-0.092h0.049c0.111,0,0.188-0.018,0.232-0.051
		s0.074-0.084,0.092-0.15c0.008-0.023,0.01-0.105,0.01-0.242v-0.973c0-0.215-0.027-0.373-0.084-0.471
		c-0.055-0.098-0.15-0.146-0.283-0.146c-0.205,0-0.41,0.113-0.613,0.338v1.252c0,0.16,0.008,0.26,0.027,0.299
		c0.023,0.049,0.057,0.086,0.1,0.109s0.129,0.035,0.258,0.035v0.092h-1.174v-0.092h0.053c0.121,0,0.201-0.031,0.244-0.092
		c0.043-0.062,0.062-0.18,0.062-0.352v-0.881c0-0.285-0.006-0.461-0.018-0.521c-0.014-0.062-0.033-0.105-0.061-0.127
		c-0.027-0.023-0.062-0.033-0.107-0.033c-0.049,0-0.105,0.012-0.174,0.037l-0.039-0.094l0.715-0.289h0.113V31.912z"/>
	<path fill="#D13239" d="M90.894,33.588c-0.115,0.121-0.229,0.207-0.34,0.26c-0.109,0.053-0.23,0.08-0.357,0.08
		c-0.26,0-0.486-0.109-0.68-0.326s-0.289-0.496-0.289-0.836s0.105-0.652,0.32-0.936c0.215-0.281,0.49-0.424,0.826-0.424
		c0.211,0,0.383,0.068,0.52,0.201V31.17c0-0.271-0.006-0.439-0.02-0.502s-0.033-0.105-0.061-0.127s-0.062-0.033-0.104-0.033
		c-0.045,0-0.105,0.014-0.18,0.041l-0.033-0.09l0.707-0.291h0.117v2.746c0,0.277,0.006,0.447,0.02,0.51
		c0.014,0.061,0.033,0.104,0.062,0.127c0.027,0.025,0.061,0.037,0.1,0.037c0.047,0,0.109-0.016,0.188-0.045l0.027,0.092
		l-0.705,0.293h-0.119V33.588z M90.894,33.406v-1.225c-0.01-0.117-0.041-0.225-0.094-0.32c-0.051-0.098-0.119-0.17-0.205-0.221
		c-0.086-0.047-0.17-0.072-0.25-0.072c-0.152,0-0.289,0.068-0.408,0.205c-0.156,0.18-0.236,0.441-0.236,0.789
		s0.078,0.615,0.229,0.801c0.152,0.186,0.322,0.279,0.508,0.279C90.595,33.643,90.747,33.562,90.894,33.406z"/>
	<path fill="#D13239" d="M95.204,33.854l-1.357-2.957v2.35c0,0.215,0.023,0.35,0.07,0.404c0.064,0.072,0.164,0.107,0.303,0.107
		h0.125v0.096H93.12v-0.096h0.125c0.148,0,0.254-0.045,0.316-0.135c0.039-0.055,0.057-0.182,0.057-0.377v-2.299
		c0-0.154-0.018-0.268-0.051-0.336c-0.025-0.049-0.07-0.092-0.135-0.127c-0.064-0.033-0.168-0.049-0.312-0.049V30.34h0.996
		l1.275,2.75l1.254-2.75h0.996v0.096h-0.121c-0.15,0-0.258,0.045-0.32,0.135c-0.037,0.055-0.057,0.182-0.057,0.377v2.299
		c0,0.215,0.025,0.35,0.074,0.404c0.062,0.072,0.164,0.107,0.303,0.107h0.121v0.096h-1.492v-0.096h0.123
		c0.15,0,0.256-0.045,0.316-0.135c0.039-0.055,0.057-0.182,0.057-0.377v-2.35l-1.355,2.957H95.204z"/>
	<path fill="#D13239" d="M99.265,33.512c-0.242,0.189-0.396,0.297-0.459,0.326c-0.094,0.045-0.193,0.066-0.299,0.066
		c-0.162,0-0.299-0.057-0.404-0.17c-0.107-0.111-0.16-0.26-0.16-0.441c0-0.117,0.027-0.217,0.078-0.301
		c0.07-0.119,0.193-0.229,0.369-0.332c0.176-0.105,0.467-0.23,0.875-0.379v-0.094c0-0.236-0.037-0.398-0.111-0.488
		c-0.076-0.088-0.186-0.131-0.328-0.131c-0.109,0-0.195,0.029-0.26,0.088c-0.066,0.059-0.1,0.125-0.1,0.203l0.006,0.148
		c0,0.08-0.021,0.141-0.061,0.186c-0.041,0.043-0.094,0.064-0.16,0.064c-0.062,0-0.115-0.021-0.156-0.068
		c-0.041-0.045-0.061-0.105-0.061-0.184c0-0.148,0.076-0.285,0.229-0.408c0.15-0.125,0.365-0.188,0.639-0.188
		c0.211,0,0.385,0.035,0.52,0.105c0.102,0.055,0.178,0.139,0.227,0.252c0.029,0.074,0.045,0.227,0.045,0.455v0.807
		c0,0.229,0.004,0.365,0.014,0.416c0.008,0.053,0.023,0.086,0.043,0.104s0.043,0.025,0.068,0.025c0.027,0,0.051-0.006,0.072-0.018
		c0.037-0.023,0.107-0.086,0.211-0.189v0.145c-0.195,0.26-0.379,0.389-0.557,0.389c-0.084,0-0.15-0.029-0.201-0.088
		S99.267,33.654,99.265,33.512z M99.265,33.344v-0.904c-0.26,0.104-0.43,0.176-0.504,0.221c-0.137,0.076-0.236,0.154-0.295,0.236
		c-0.059,0.084-0.088,0.176-0.088,0.273c0,0.125,0.037,0.229,0.111,0.311s0.16,0.123,0.258,0.123
		C98.878,33.604,99.05,33.516,99.265,33.344z"/>
	<path fill="#D13239" d="M100.968,31.912c0.279-0.334,0.545-0.502,0.797-0.502c0.129,0,0.24,0.031,0.334,0.096
		c0.094,0.066,0.168,0.172,0.223,0.32c0.037,0.105,0.057,0.264,0.057,0.479v1.014c0,0.15,0.014,0.252,0.037,0.305
		c0.02,0.045,0.049,0.078,0.092,0.102s0.121,0.037,0.234,0.037v0.092h-1.174v-0.092h0.049c0.111,0,0.189-0.018,0.232-0.051
		s0.074-0.084,0.092-0.15c0.006-0.023,0.01-0.105,0.01-0.242v-0.973c0-0.215-0.027-0.373-0.084-0.471s-0.15-0.146-0.283-0.146
		c-0.205,0-0.41,0.113-0.615,0.338v1.252c0,0.16,0.01,0.26,0.029,0.299c0.023,0.049,0.057,0.086,0.1,0.109s0.129,0.035,0.258,0.035
		v0.092h-1.174v-0.092h0.051c0.121,0,0.203-0.031,0.246-0.092c0.041-0.062,0.062-0.18,0.062-0.352v-0.881
		c0-0.285-0.006-0.461-0.02-0.521c-0.014-0.062-0.033-0.105-0.059-0.127c-0.027-0.023-0.062-0.033-0.107-0.033
		c-0.049,0-0.107,0.012-0.174,0.037l-0.039-0.094l0.715-0.289h0.111V31.912z"/>
	<path fill="#D13239" d="M104.276,33.512c-0.244,0.189-0.396,0.297-0.459,0.326c-0.094,0.045-0.193,0.066-0.299,0.066
		c-0.164,0-0.299-0.057-0.404-0.17c-0.107-0.111-0.16-0.26-0.16-0.441c0-0.117,0.027-0.217,0.078-0.301
		c0.07-0.119,0.193-0.229,0.369-0.332c0.176-0.105,0.467-0.23,0.875-0.379v-0.094c0-0.236-0.037-0.398-0.113-0.488
		c-0.074-0.088-0.184-0.131-0.328-0.131c-0.109,0-0.195,0.029-0.26,0.088s-0.098,0.125-0.098,0.203l0.006,0.148
		c0,0.08-0.021,0.141-0.061,0.186c-0.041,0.043-0.096,0.064-0.16,0.064s-0.117-0.021-0.158-0.068
		c-0.039-0.045-0.061-0.105-0.061-0.184c0-0.148,0.078-0.285,0.229-0.408c0.152-0.125,0.365-0.188,0.641-0.188
		c0.211,0,0.385,0.035,0.52,0.105c0.102,0.055,0.176,0.139,0.225,0.252c0.031,0.074,0.047,0.227,0.047,0.455v0.807
		c0,0.229,0.004,0.365,0.014,0.416c0.008,0.053,0.021,0.086,0.041,0.104s0.043,0.025,0.07,0.025s0.051-0.006,0.072-0.018
		c0.035-0.023,0.105-0.086,0.209-0.189v0.145c-0.193,0.26-0.377,0.389-0.555,0.389c-0.084,0-0.15-0.029-0.201-0.088
		S104.278,33.654,104.276,33.512z M104.276,33.344v-0.904c-0.26,0.104-0.43,0.176-0.506,0.221c-0.137,0.076-0.234,0.154-0.293,0.236
		c-0.059,0.084-0.088,0.176-0.088,0.273c0,0.125,0.037,0.229,0.111,0.311s0.16,0.123,0.258,0.123
		C103.89,33.604,104.062,33.516,104.276,33.344z"/>
	<path fill="#D13239" d="M105.923,32.988c-0.146-0.07-0.258-0.17-0.336-0.295c-0.076-0.129-0.115-0.27-0.115-0.424
		c0-0.234,0.088-0.436,0.266-0.605s0.404-0.254,0.68-0.254c0.227,0,0.424,0.055,0.59,0.166h0.502c0.074,0,0.117,0.002,0.129,0.006
		c0.014,0.006,0.021,0.012,0.027,0.021c0.01,0.016,0.016,0.043,0.016,0.084c0,0.045-0.006,0.076-0.014,0.094
		c-0.006,0.008-0.014,0.014-0.027,0.02c-0.012,0.006-0.057,0.008-0.131,0.008H107.2c0.098,0.125,0.146,0.283,0.146,0.479
		c0,0.221-0.086,0.408-0.256,0.566c-0.168,0.158-0.396,0.236-0.682,0.236c-0.117,0-0.236-0.018-0.359-0.051
		c-0.076,0.064-0.129,0.123-0.154,0.172c-0.027,0.049-0.041,0.09-0.041,0.125c0,0.029,0.016,0.059,0.043,0.086
		c0.029,0.027,0.084,0.047,0.168,0.059c0.047,0.008,0.168,0.014,0.363,0.02c0.355,0.008,0.586,0.02,0.691,0.037
		c0.16,0.021,0.289,0.08,0.385,0.178s0.145,0.215,0.145,0.357c0,0.195-0.092,0.379-0.275,0.549c-0.27,0.254-0.621,0.379-1.055,0.379
		c-0.334,0-0.615-0.074-0.846-0.225c-0.129-0.086-0.193-0.176-0.193-0.27c0-0.043,0.008-0.082,0.027-0.125
		c0.029-0.064,0.09-0.152,0.182-0.268c0.012-0.016,0.1-0.109,0.264-0.279c-0.09-0.055-0.152-0.102-0.189-0.145
		s-0.057-0.09-0.057-0.143c0-0.061,0.025-0.131,0.074-0.213S105.745,33.137,105.923,32.988z M105.896,33.854
		c-0.08,0.09-0.143,0.172-0.184,0.248s-0.062,0.145-0.062,0.209c0,0.084,0.051,0.156,0.15,0.219c0.174,0.105,0.424,0.16,0.75,0.16
		c0.311,0,0.541-0.055,0.689-0.164c0.146-0.109,0.221-0.227,0.221-0.352c0-0.09-0.045-0.154-0.133-0.191
		c-0.09-0.039-0.268-0.061-0.533-0.068C106.405,33.904,106.106,33.883,105.896,33.854z M106.374,31.533
		c-0.129,0-0.234,0.053-0.322,0.154c-0.086,0.102-0.129,0.258-0.129,0.469c0,0.273,0.059,0.486,0.176,0.635
		c0.09,0.115,0.203,0.172,0.342,0.172c0.133,0,0.24-0.049,0.324-0.148c0.084-0.098,0.127-0.252,0.127-0.463
		c0-0.275-0.061-0.49-0.178-0.646C106.624,31.592,106.513,31.533,106.374,31.533z"/>
	<path fill="#D13239" d="M108.341,32.375c-0.002,0.352,0.084,0.629,0.258,0.828c0.172,0.201,0.375,0.301,0.609,0.301
		c0.154,0,0.289-0.041,0.404-0.127s0.211-0.232,0.289-0.439l0.08,0.051c-0.035,0.238-0.141,0.453-0.314,0.646
		c-0.176,0.195-0.395,0.293-0.656,0.293c-0.285,0-0.529-0.111-0.732-0.334s-0.305-0.52-0.305-0.895c0-0.406,0.104-0.725,0.312-0.951
		c0.209-0.229,0.469-0.342,0.783-0.342c0.266,0,0.484,0.09,0.656,0.264c0.172,0.176,0.256,0.41,0.256,0.705H108.341z
		 M108.341,32.223h1.1c-0.008-0.15-0.027-0.258-0.055-0.32c-0.043-0.096-0.107-0.174-0.191-0.229
		c-0.088-0.055-0.178-0.082-0.27-0.082c-0.145,0-0.271,0.055-0.385,0.166S108.36,32.025,108.341,32.223z"/>
	<path fill="#D13239" d="M111.005,31.916c0.172-0.174,0.273-0.273,0.305-0.299c0.078-0.066,0.162-0.117,0.252-0.152
		c0.09-0.037,0.18-0.055,0.268-0.055c0.148,0,0.275,0.043,0.383,0.129s0.178,0.213,0.215,0.377c0.18-0.209,0.328-0.344,0.451-0.41
		c0.123-0.064,0.25-0.096,0.379-0.096c0.125,0,0.238,0.031,0.336,0.096c0.098,0.066,0.174,0.172,0.232,0.318
		c0.037,0.102,0.057,0.258,0.057,0.473v1.021c0,0.148,0.01,0.25,0.033,0.305c0.018,0.039,0.051,0.07,0.096,0.098
		c0.047,0.027,0.125,0.041,0.229,0.041v0.092h-1.172v-0.092h0.049c0.104,0,0.182-0.02,0.238-0.061
		c0.041-0.027,0.07-0.07,0.086-0.131c0.008-0.029,0.012-0.115,0.012-0.252v-1.021c0-0.193-0.023-0.33-0.07-0.41
		c-0.068-0.111-0.176-0.166-0.324-0.166c-0.092,0-0.184,0.023-0.277,0.068c-0.092,0.047-0.203,0.131-0.334,0.256l-0.006,0.029
		l0.006,0.111v1.133c0,0.162,0.008,0.264,0.025,0.303c0.02,0.039,0.053,0.072,0.104,0.1s0.135,0.041,0.256,0.041v0.092h-1.201
		v-0.092c0.133,0,0.223-0.016,0.273-0.047c0.049-0.031,0.082-0.078,0.102-0.141c0.008-0.029,0.012-0.115,0.012-0.256v-1.021
		c0-0.193-0.027-0.334-0.084-0.418c-0.076-0.111-0.184-0.166-0.32-0.166c-0.092,0-0.186,0.025-0.277,0.076
		c-0.143,0.076-0.252,0.16-0.33,0.256v1.273c0,0.154,0.01,0.256,0.031,0.303s0.055,0.082,0.096,0.105
		c0.043,0.023,0.129,0.035,0.258,0.035v0.092h-1.174v-0.092c0.109,0,0.186-0.012,0.229-0.035s0.076-0.061,0.098-0.113
		c0.023-0.049,0.033-0.148,0.033-0.295V32.41c0-0.262-0.006-0.43-0.021-0.506c-0.014-0.057-0.031-0.096-0.059-0.117
		c-0.025-0.021-0.061-0.031-0.105-0.031c-0.049,0-0.105,0.012-0.174,0.037l-0.039-0.094l0.717-0.289h0.111V31.916z"/>
	<path fill="#D13239" d="M114.827,32.375c0,0.352,0.084,0.629,0.258,0.828c0.172,0.201,0.375,0.301,0.609,0.301
		c0.154,0,0.291-0.041,0.404-0.127c0.117-0.086,0.211-0.232,0.289-0.439l0.082,0.051c-0.037,0.238-0.143,0.453-0.316,0.646
		c-0.176,0.195-0.395,0.293-0.656,0.293c-0.285,0-0.529-0.111-0.732-0.334s-0.305-0.52-0.305-0.895c0-0.406,0.104-0.725,0.312-0.951
		c0.209-0.229,0.469-0.342,0.783-0.342c0.268,0,0.486,0.09,0.656,0.264c0.172,0.176,0.258,0.41,0.258,0.705H114.827z
		 M114.827,32.223h1.1c-0.008-0.15-0.025-0.258-0.055-0.32c-0.043-0.096-0.107-0.174-0.191-0.229
		c-0.088-0.055-0.176-0.082-0.27-0.082c-0.143,0-0.271,0.055-0.385,0.166S114.847,32.025,114.827,32.223z"/>
	<path fill="#D13239" d="M117.478,31.912c0.277-0.334,0.543-0.502,0.797-0.502c0.129,0,0.24,0.031,0.334,0.096
		c0.094,0.066,0.168,0.172,0.223,0.32c0.037,0.105,0.057,0.264,0.057,0.479v1.014c0,0.15,0.012,0.252,0.037,0.305
		c0.02,0.045,0.049,0.078,0.092,0.102c0.041,0.023,0.119,0.037,0.234,0.037v0.092h-1.174v-0.092h0.049
		c0.109,0,0.188-0.018,0.232-0.051c0.043-0.033,0.074-0.084,0.092-0.15c0.006-0.023,0.01-0.105,0.01-0.242v-0.973
		c0-0.215-0.027-0.373-0.084-0.471s-0.15-0.146-0.283-0.146c-0.207,0-0.412,0.113-0.615,0.338v1.252c0,0.16,0.01,0.26,0.027,0.299
		c0.025,0.049,0.059,0.086,0.102,0.109c0.041,0.023,0.127,0.035,0.258,0.035v0.092h-1.176v-0.092h0.053
		c0.121,0,0.203-0.031,0.244-0.092c0.043-0.062,0.064-0.18,0.064-0.352v-0.881c0-0.285-0.006-0.461-0.02-0.521
		c-0.014-0.062-0.033-0.105-0.059-0.127c-0.027-0.023-0.064-0.033-0.109-0.033c-0.047,0-0.105,0.012-0.174,0.037l-0.039-0.094
		l0.717-0.289h0.111V31.912z"/>
	<path fill="#D13239" d="M120.13,30.699v0.781h0.555v0.18h-0.555v1.541c0,0.154,0.021,0.258,0.066,0.311
		c0.043,0.055,0.1,0.082,0.168,0.082c0.059,0,0.113-0.018,0.166-0.055c0.055-0.035,0.096-0.088,0.125-0.156h0.102
		c-0.061,0.17-0.146,0.297-0.256,0.383c-0.111,0.086-0.225,0.127-0.344,0.127c-0.078,0-0.156-0.021-0.232-0.064
		c-0.076-0.045-0.133-0.107-0.168-0.189c-0.037-0.082-0.055-0.209-0.055-0.381V31.66h-0.375v-0.084
		c0.094-0.039,0.191-0.104,0.291-0.193c0.098-0.092,0.188-0.199,0.266-0.322c0.039-0.066,0.094-0.186,0.166-0.361H120.13z"/>
	<path fill="#D13239" d="M125.274,30.26l0.078,1.193h-0.078c-0.109-0.357-0.262-0.615-0.459-0.771
		c-0.199-0.158-0.438-0.236-0.717-0.236c-0.232,0-0.443,0.061-0.633,0.178c-0.188,0.119-0.336,0.307-0.443,0.566
		c-0.109,0.26-0.162,0.582-0.162,0.967c0,0.318,0.051,0.594,0.152,0.828c0.102,0.232,0.256,0.41,0.461,0.535
		s0.438,0.188,0.701,0.188c0.227,0,0.428-0.049,0.604-0.146c0.174-0.098,0.365-0.293,0.574-0.582l0.08,0.051
		c-0.176,0.312-0.381,0.543-0.615,0.688c-0.236,0.145-0.514,0.219-0.838,0.219c-0.582,0-1.033-0.217-1.354-0.648
		c-0.238-0.322-0.357-0.701-0.357-1.135c0-0.352,0.078-0.674,0.236-0.969c0.156-0.293,0.373-0.521,0.65-0.682
		c0.275-0.162,0.576-0.242,0.902-0.242c0.254,0,0.504,0.061,0.752,0.186c0.072,0.039,0.123,0.057,0.156,0.057
		c0.045,0,0.086-0.016,0.121-0.049c0.045-0.047,0.076-0.111,0.096-0.193H125.274z"/>
	<path fill="#D13239" d="M126.944,31.41c0.361,0,0.648,0.137,0.867,0.41c0.186,0.232,0.277,0.5,0.277,0.803
		c0,0.213-0.053,0.428-0.152,0.645c-0.104,0.219-0.242,0.383-0.422,0.494c-0.18,0.109-0.379,0.166-0.598,0.166
		c-0.357,0-0.643-0.143-0.854-0.428c-0.178-0.24-0.268-0.512-0.268-0.811c0-0.217,0.055-0.434,0.162-0.648
		c0.109-0.215,0.252-0.373,0.428-0.477S126.749,31.41,126.944,31.41z M126.864,31.578c-0.092,0-0.184,0.027-0.275,0.082
		s-0.168,0.15-0.225,0.287s-0.086,0.311-0.086,0.525c0,0.346,0.07,0.645,0.207,0.895s0.318,0.375,0.543,0.375
		c0.168,0,0.307-0.068,0.414-0.205c0.109-0.139,0.164-0.377,0.164-0.715c0-0.422-0.09-0.754-0.271-0.996
		C127.212,31.66,127.056,31.578,126.864,31.578z"/>
	<path fill="#D13239" d="M129.132,31.912c0.277-0.334,0.543-0.502,0.795-0.502c0.129,0,0.24,0.031,0.334,0.096
		c0.094,0.066,0.168,0.172,0.223,0.32c0.039,0.105,0.057,0.264,0.057,0.479v1.014c0,0.15,0.014,0.252,0.037,0.305
		c0.02,0.045,0.051,0.078,0.092,0.102c0.043,0.023,0.121,0.037,0.234,0.037v0.092h-1.174v-0.092h0.049
		c0.111,0,0.188-0.018,0.232-0.051s0.074-0.084,0.092-0.15c0.008-0.023,0.012-0.105,0.012-0.242v-0.973
		c0-0.215-0.029-0.373-0.086-0.471s-0.15-0.146-0.283-0.146c-0.205,0-0.41,0.113-0.613,0.338v1.252c0,0.16,0.008,0.26,0.027,0.299
		c0.023,0.049,0.057,0.086,0.1,0.109c0.041,0.023,0.129,0.035,0.258,0.035v0.092h-1.174v-0.092h0.051
		c0.123,0,0.203-0.031,0.246-0.092c0.043-0.062,0.062-0.18,0.062-0.352v-0.881c0-0.285-0.006-0.461-0.02-0.521
		c-0.012-0.062-0.031-0.105-0.059-0.127c-0.027-0.023-0.062-0.033-0.107-0.033c-0.049,0-0.105,0.012-0.174,0.037l-0.039-0.094
		l0.715-0.289h0.113V31.912z"/>
	<path fill="#D13239" d="M132.628,31.41v0.809h-0.086c-0.066-0.254-0.15-0.428-0.252-0.52c-0.104-0.092-0.234-0.137-0.393-0.137
		c-0.121,0-0.219,0.031-0.293,0.096s-0.111,0.135-0.111,0.213c0,0.098,0.027,0.18,0.082,0.25s0.162,0.145,0.326,0.225l0.381,0.184
		c0.35,0.172,0.525,0.396,0.525,0.678c0,0.215-0.082,0.389-0.246,0.521c-0.162,0.133-0.346,0.199-0.549,0.199
		c-0.145,0-0.311-0.027-0.498-0.078c-0.057-0.018-0.102-0.025-0.139-0.025c-0.039,0-0.07,0.021-0.094,0.066h-0.086v-0.848h0.086
		c0.049,0.242,0.141,0.424,0.277,0.547s0.291,0.184,0.459,0.184c0.119,0,0.217-0.035,0.293-0.104
		c0.074-0.07,0.111-0.154,0.111-0.254c0-0.119-0.041-0.219-0.125-0.299c-0.084-0.082-0.252-0.186-0.502-0.311
		s-0.416-0.236-0.492-0.336c-0.078-0.1-0.117-0.223-0.117-0.373c0-0.195,0.066-0.359,0.201-0.49s0.307-0.197,0.52-0.197
		c0.094,0,0.207,0.02,0.34,0.059c0.088,0.027,0.146,0.039,0.176,0.039c0.027,0,0.051-0.006,0.064-0.018
		c0.016-0.012,0.033-0.039,0.055-0.08H132.628z"/>
	<path fill="#D13239" d="M135.241,31.48v1.438c0,0.275,0.006,0.443,0.02,0.506c0.012,0.061,0.033,0.104,0.062,0.127
		c0.027,0.025,0.061,0.037,0.1,0.037c0.053,0,0.115-0.016,0.182-0.045l0.035,0.092l-0.709,0.293h-0.117v-0.504
		c-0.203,0.223-0.359,0.361-0.467,0.418s-0.221,0.086-0.34,0.086c-0.133,0-0.248-0.039-0.346-0.115
		c-0.098-0.078-0.166-0.176-0.203-0.297c-0.039-0.121-0.057-0.293-0.057-0.514v-1.061c0-0.113-0.014-0.189-0.037-0.234
		c-0.023-0.043-0.061-0.076-0.107-0.1s-0.133-0.033-0.258-0.031V31.48h0.832v1.588c0,0.223,0.039,0.367,0.115,0.436
		c0.076,0.07,0.17,0.104,0.279,0.104c0.074,0,0.158-0.021,0.252-0.068s0.207-0.137,0.336-0.268v-1.346
		c0-0.135-0.025-0.227-0.074-0.273s-0.152-0.072-0.307-0.076V31.48H135.241z"/>
	<path fill="#D13239" d="M136.632,30.168v3.15c0,0.148,0.01,0.246,0.031,0.295s0.055,0.086,0.1,0.111
		c0.045,0.023,0.129,0.037,0.252,0.037v0.092h-1.164v-0.092c0.109,0,0.184-0.012,0.223-0.035c0.041-0.021,0.072-0.059,0.094-0.109
		c0.023-0.053,0.033-0.152,0.033-0.299V31.16c0-0.268-0.006-0.432-0.018-0.494c-0.014-0.061-0.031-0.104-0.059-0.125
		s-0.061-0.033-0.104-0.033s-0.102,0.014-0.17,0.041l-0.045-0.09l0.709-0.291H136.632z"/>
	<path fill="#D13239" d="M137.979,30.699v0.781h0.555v0.18h-0.555v1.541c0,0.154,0.021,0.258,0.066,0.311
		c0.043,0.055,0.1,0.082,0.17,0.082c0.057,0,0.111-0.018,0.164-0.055c0.055-0.035,0.096-0.088,0.125-0.156h0.102
		c-0.061,0.17-0.146,0.297-0.256,0.383c-0.111,0.086-0.225,0.127-0.344,0.127c-0.078,0-0.156-0.021-0.232-0.064
		c-0.076-0.045-0.133-0.107-0.168-0.189c-0.037-0.082-0.055-0.209-0.055-0.381V31.66h-0.377v-0.084
		c0.096-0.039,0.193-0.104,0.291-0.193c0.102-0.092,0.189-0.199,0.268-0.322c0.039-0.066,0.094-0.186,0.166-0.361H137.979z"/>
	<path fill="#D13239" d="M140.11,33.512c-0.244,0.189-0.396,0.297-0.459,0.326c-0.094,0.045-0.193,0.066-0.299,0.066
		c-0.164,0-0.299-0.057-0.404-0.17c-0.107-0.111-0.16-0.26-0.16-0.441c0-0.117,0.027-0.217,0.078-0.301
		c0.07-0.119,0.193-0.229,0.369-0.332c0.176-0.105,0.467-0.23,0.875-0.379v-0.094c0-0.236-0.037-0.398-0.113-0.488
		c-0.074-0.088-0.186-0.131-0.328-0.131c-0.109,0-0.195,0.029-0.26,0.088s-0.098,0.125-0.098,0.203l0.006,0.148
		c0,0.08-0.021,0.141-0.061,0.186c-0.041,0.043-0.096,0.064-0.16,0.064s-0.117-0.021-0.158-0.068
		c-0.039-0.045-0.061-0.105-0.061-0.184c0-0.148,0.078-0.285,0.229-0.408c0.152-0.125,0.365-0.188,0.641-0.188
		c0.211,0,0.385,0.035,0.52,0.105c0.102,0.055,0.176,0.139,0.225,0.252c0.031,0.074,0.047,0.227,0.047,0.455v0.807
		c0,0.229,0.004,0.365,0.014,0.416c0.008,0.053,0.021,0.086,0.041,0.104c0.021,0.018,0.043,0.025,0.07,0.025
		s0.051-0.006,0.072-0.018c0.035-0.023,0.105-0.086,0.209-0.189v0.145c-0.193,0.26-0.377,0.389-0.555,0.389
		c-0.084,0-0.15-0.029-0.201-0.088S140.112,33.654,140.11,33.512z M140.11,33.344v-0.904c-0.26,0.104-0.43,0.176-0.506,0.221
		c-0.137,0.076-0.234,0.154-0.293,0.236c-0.059,0.084-0.088,0.176-0.088,0.273c0,0.125,0.037,0.229,0.111,0.311
		s0.16,0.123,0.258,0.123C139.724,33.604,139.896,33.516,140.11,33.344z"/>
	<path fill="#D13239" d="M141.813,31.912c0.277-0.334,0.543-0.502,0.795-0.502c0.131,0,0.242,0.031,0.336,0.096
		c0.092,0.066,0.168,0.172,0.223,0.32c0.037,0.105,0.057,0.264,0.057,0.479v1.014c0,0.15,0.012,0.252,0.037,0.305
		c0.02,0.045,0.049,0.078,0.092,0.102s0.119,0.037,0.234,0.037v0.092h-1.174v-0.092h0.049c0.109,0,0.188-0.018,0.23-0.051
		c0.045-0.033,0.076-0.084,0.094-0.15c0.006-0.023,0.01-0.105,0.01-0.242v-0.973c0-0.215-0.029-0.373-0.084-0.471
		c-0.057-0.098-0.15-0.146-0.283-0.146c-0.207,0-0.412,0.113-0.615,0.338v1.252c0,0.16,0.01,0.26,0.029,0.299
		c0.023,0.049,0.057,0.086,0.1,0.109c0.041,0.023,0.129,0.035,0.258,0.035v0.092h-1.174v-0.092h0.051
		c0.121,0,0.203-0.031,0.244-0.092c0.043-0.062,0.064-0.18,0.064-0.352v-0.881c0-0.285-0.006-0.461-0.02-0.521
		c-0.014-0.062-0.033-0.105-0.061-0.127c-0.025-0.023-0.061-0.033-0.107-0.033c-0.049,0-0.105,0.012-0.172,0.037l-0.041-0.094
		l0.717-0.289h0.111V31.912z"/>
	<path fill="#D13239" d="M145.794,32.953c-0.064,0.312-0.191,0.553-0.377,0.721c-0.188,0.168-0.393,0.254-0.619,0.254
		c-0.271,0-0.506-0.113-0.705-0.34c-0.201-0.227-0.301-0.533-0.301-0.918c0-0.373,0.109-0.678,0.332-0.91s0.49-0.35,0.801-0.35
		c0.232,0,0.424,0.062,0.576,0.186c0.148,0.123,0.225,0.252,0.225,0.385c0,0.066-0.021,0.119-0.062,0.158
		c-0.043,0.041-0.102,0.062-0.178,0.062c-0.104,0-0.18-0.033-0.232-0.1c-0.029-0.035-0.049-0.105-0.057-0.207
		c-0.01-0.104-0.045-0.18-0.105-0.234c-0.061-0.051-0.145-0.076-0.252-0.076c-0.172,0-0.312,0.062-0.418,0.191
		c-0.139,0.17-0.209,0.393-0.209,0.672c0,0.283,0.068,0.533,0.209,0.75c0.139,0.217,0.326,0.324,0.564,0.324
		c0.168,0,0.32-0.057,0.455-0.172c0.096-0.08,0.188-0.225,0.277-0.434L145.794,32.953z"/>
	<path fill="#D13239" d="M145.999,31.48h1.105v0.096h-0.053c-0.078,0-0.139,0.018-0.176,0.051c-0.041,0.033-0.059,0.074-0.059,0.125
		c0,0.068,0.029,0.16,0.086,0.279l0.578,1.199l0.531-1.312c0.029-0.07,0.043-0.141,0.043-0.211c0-0.029-0.006-0.053-0.018-0.07
		c-0.014-0.018-0.035-0.033-0.064-0.043c-0.029-0.012-0.082-0.018-0.156-0.018V31.48h0.773v0.096
		c-0.064,0.008-0.113,0.021-0.148,0.041s-0.072,0.061-0.113,0.117c-0.016,0.023-0.045,0.09-0.088,0.199l-0.967,2.369
		c-0.094,0.23-0.217,0.404-0.367,0.521C146.755,34.941,146.61,35,146.47,35c-0.102,0-0.186-0.029-0.252-0.088
		c-0.064-0.059-0.098-0.125-0.098-0.203c0-0.07,0.023-0.131,0.07-0.174c0.049-0.045,0.113-0.066,0.197-0.066
		c0.057,0,0.135,0.02,0.232,0.057c0.068,0.027,0.113,0.039,0.129,0.039c0.053,0,0.109-0.027,0.172-0.08
		c0.061-0.055,0.121-0.156,0.184-0.311l0.17-0.412l-0.854-1.791c-0.027-0.055-0.068-0.121-0.125-0.201
		c-0.043-0.059-0.078-0.102-0.105-0.121c-0.039-0.027-0.104-0.051-0.191-0.072V31.48z"/>
</g>
<path fill="#D13239" d="M28.497,17.287l-3.43-3.431l-2.773,2.772l-1.833,1.832l0,0h1.277c-0.368,0.814-0.885,1.562-1.542,2.219
	c-1.335,1.336-3.109,2.111-4.998,2.188c-2,0.08-3.913-0.621-5.386-1.98c-1.472-1.357-2.327-3.209-2.407-5.209
	c-0.086-2.117,0.692-4.107,2.192-5.607c1.335-1.334,3.109-2.11,4.998-2.186c1.012-0.042,2.001,0.119,2.922,0.462L12.863,13
	l-1.053-1.052l0,0v6.513h6.514l0,0l-1.052-1.051l4.652-4.653l2.683-2.682l0-0.001c0,0,0,0,0-0.001
	c1.209-1.21,1.215-3.167,0.02-4.385c-0.008-0.007-0.013-0.015-0.021-0.022c-0.014-0.014-0.03-0.026-0.044-0.04
	c-0.729-0.723-1.539-1.366-2.414-1.911c-2.258-1.408-4.947-2.176-7.805-2.061c-3.589,0.145-6.801,1.655-9.155,4.009
	C2.573,8.28,1.015,11.938,1.176,15.928c0.306,7.578,6.696,13.475,14.274,13.17c3.588-0.145,6.801-1.654,9.155-4.01
	c1.795-1.795,3.091-4.08,3.676-6.627h1.391h0L28.497,17.287z"/>
</svg>
