<?xml version="1.0" encoding="utf-8"?>
<!-- Generator: Adobe Illustrator 16.0.0, SVG Export Plug-In . SVG Version: 6.00 Build 0)  -->
<!DOCTYPE svg PUBLIC "-//W3C//DTD SVG 1.1//EN" "http://www.w3.org/Graphics/SVG/1.1/DTD/svg11.dtd">
<svg version="1.1" id="Layer_1" xmlns="http://www.w3.org/2000/svg" xmlns:xlink="http://www.w3.org/1999/xlink" x="0px" y="0px"
	 width="150px" height="35px" viewBox="0 0 150 35" enable-background="new 0 0 150 35" xml:space="preserve">
<g>
	<path d="M42.158,15.248h-5.29l-0.629,1.458c-0.207,0.485-0.309,0.888-0.309,1.204c0,0.42,0.169,0.729,0.508,0.928
		c0.199,0.117,0.688,0.205,1.469,0.264v0.41h-4.981v-0.41c0.538-0.08,0.979-0.303,1.326-0.668c0.346-0.365,0.773-1.117,1.281-2.258
		l5.355-11.949h0.21l5.4,12.28c0.515,1.163,0.938,1.896,1.27,2.198c0.25,0.229,0.604,0.359,1.061,0.396v0.41h-7.245v-0.41h0.298
		c0.581,0,0.989-0.08,1.226-0.242c0.162-0.117,0.243-0.287,0.243-0.508c0-0.133-0.022-0.268-0.066-0.408
		c-0.015-0.066-0.125-0.344-0.332-0.828L42.158,15.248z M41.783,14.431l-2.231-5.158l-2.297,5.158H41.783z"/>
	<path d="M63.362,14.254l-0.563,5.258H49.502v-0.41h0.497c0.434,0,0.784-0.076,1.049-0.232c0.192-0.102,0.339-0.279,0.442-0.529
		c0.081-0.176,0.121-0.641,0.121-1.391V7.097c0-0.765-0.041-1.244-0.121-1.435c-0.082-0.192-0.246-0.359-0.492-0.503
		c-0.246-0.143-0.58-0.215-0.999-0.215h-0.497V4.535h7.984v0.409h-0.652c-0.435,0-0.784,0.077-1.049,0.232
		c-0.191,0.103-0.342,0.28-0.453,0.529c-0.081,0.177-0.121,0.641-0.121,1.392v9.542c0,0.767,0.044,1.253,0.132,1.462
		c0.088,0.211,0.261,0.367,0.519,0.471c0.184,0.066,0.629,0.1,1.336,0.1h1.248c0.795,0,1.458-0.141,1.988-0.42
		s0.988-0.721,1.375-1.325s0.753-1.495,1.099-2.673H63.362z"/>
	<path d="M74.792,5.396v6.152h0.43c0.663,0,1.205-0.099,1.623-0.298c0.421-0.199,0.775-0.534,1.067-1.005
		c0.29-0.471,0.479-1.108,0.568-1.91h0.387v7.521H78.48c-0.14-1.421-0.521-2.358-1.143-2.811c-0.623-0.453-1.327-0.68-2.116-0.68
		h-0.43v4.584c0,0.766,0.042,1.244,0.128,1.436c0.084,0.191,0.249,0.357,0.496,0.502c0.246,0.143,0.579,0.215,0.999,0.215h0.497
		v0.41h-7.83v-0.41h0.497c0.434,0,0.784-0.076,1.049-0.232c0.192-0.102,0.338-0.279,0.441-0.529
		c0.082-0.176,0.122-0.641,0.122-1.391V7.097c0-0.765-0.041-1.244-0.122-1.435c-0.081-0.192-0.245-0.359-0.491-0.503
		c-0.247-0.143-0.58-0.215-0.999-0.215h-0.497V4.535h12.632v4.296h-0.451c-0.104-1.008-0.367-1.755-0.79-2.241
		s-1.036-0.829-1.839-1.027c-0.441-0.111-1.26-0.166-2.452-0.166H74.792z"/>
	<path d="M90.12,15.248h-5.289l-0.63,1.458c-0.206,0.485-0.31,0.888-0.31,1.204c0,0.42,0.171,0.729,0.508,0.928
		c0.199,0.117,0.689,0.205,1.47,0.264v0.41h-4.98v-0.41c0.536-0.08,0.979-0.303,1.325-0.668c0.346-0.365,0.772-1.117,1.28-2.258
		l5.356-11.949h0.21l5.4,12.28c0.515,1.163,0.939,1.896,1.27,2.198c0.25,0.229,0.604,0.359,1.06,0.396v0.41h-7.244v-0.41h0.298
		c0.582,0,0.991-0.08,1.227-0.242c0.161-0.117,0.243-0.287,0.243-0.508c0-0.133-0.022-0.268-0.066-0.408
		c-0.016-0.066-0.125-0.344-0.331-0.828L90.12,15.248z M89.744,14.431l-2.229-5.158l-2.297,5.158H89.744z"/>
	<path d="M103.23,12.311v4.639c0,0.766,0.041,1.244,0.126,1.436c0.084,0.191,0.25,0.357,0.496,0.502c0.247,0.143,0.58,0.215,1,0.215
		h0.497v0.41h-7.829v-0.41h0.496c0.435,0,0.784-0.076,1.049-0.232c0.191-0.102,0.339-0.279,0.442-0.529
		c0.08-0.176,0.121-0.641,0.121-1.391V7.097c0-0.765-0.041-1.244-0.121-1.435c-0.081-0.192-0.245-0.359-0.491-0.503
		c-0.247-0.143-0.58-0.215-1-0.215h-0.496V4.535h7.829v0.409h-0.497c-0.435,0-0.783,0.077-1.049,0.232
		c-0.191,0.103-0.343,0.28-0.453,0.529c-0.081,0.177-0.12,0.641-0.12,1.392v4.241h5.288V7.097c0-0.765-0.039-1.244-0.12-1.435
		c-0.082-0.192-0.247-0.359-0.497-0.503c-0.251-0.143-0.585-0.215-1.006-0.215h-0.486V4.535h7.82v0.409h-0.487
		c-0.441,0-0.791,0.077-1.049,0.232c-0.19,0.103-0.342,0.28-0.452,0.529c-0.081,0.177-0.122,0.641-0.122,1.392v9.852
		c0,0.766,0.041,1.244,0.122,1.436c0.08,0.191,0.247,0.357,0.497,0.502c0.249,0.143,0.586,0.215,1.004,0.215h0.487v0.41h-7.82v-0.41
		h0.486c0.442,0,0.792-0.076,1.05-0.232c0.19-0.102,0.342-0.279,0.453-0.529c0.081-0.176,0.12-0.641,0.12-1.391v-4.639H103.23z"/>
	<path d="M124.046,15.248h-5.29l-0.629,1.458c-0.206,0.485-0.31,0.888-0.31,1.204c0,0.42,0.17,0.729,0.509,0.928
		c0.198,0.117,0.688,0.205,1.468,0.264v0.41h-4.98v-0.41c0.538-0.08,0.98-0.303,1.326-0.668c0.345-0.365,0.772-1.117,1.28-2.258
		l5.356-11.949h0.209l5.4,12.28c0.516,1.163,0.939,1.896,1.271,2.198c0.25,0.229,0.604,0.359,1.061,0.396v0.41h-7.245v-0.41h0.299
		c0.581,0,0.989-0.08,1.226-0.242c0.161-0.117,0.243-0.287,0.243-0.508c0-0.133-0.023-0.268-0.066-0.408
		c-0.016-0.066-0.125-0.344-0.332-0.828L124.046,15.248z M123.67,14.431l-2.229-5.158l-2.298,5.158H123.67z"/>
	<path d="M131.27,19.512v-0.41h0.496c0.435,0,0.768-0.068,0.999-0.203c0.231-0.137,0.404-0.322,0.514-0.559
		c0.066-0.154,0.1-0.617,0.1-1.391V7.097c0-0.765-0.04-1.244-0.122-1.435c-0.081-0.192-0.244-0.359-0.491-0.503
		c-0.246-0.143-0.579-0.215-0.999-0.215h-0.496V4.535h6.702c1.789,0,3.229,0.243,4.319,0.729c1.332,0.597,2.343,1.499,3.031,2.706
		c0.688,1.208,1.032,2.573,1.032,4.097c0,1.053-0.17,2.023-0.508,2.91c-0.339,0.887-0.776,1.621-1.314,2.199
		c-0.538,0.576-1.157,1.041-1.86,1.391c-0.704,0.35-1.563,0.621-2.579,0.812c-0.45,0.088-1.157,0.133-2.121,0.133H131.27z
		 M136.979,5.386V17.07c0,0.617,0.029,0.998,0.088,1.137c0.059,0.141,0.159,0.248,0.299,0.32c0.198,0.111,0.484,0.166,0.861,0.166
		c1.229,0,2.168-0.42,2.816-1.258c0.883-1.135,1.324-2.895,1.324-5.28c0-1.922-0.302-3.457-0.906-4.606
		c-0.478-0.897-1.092-1.509-1.844-1.832C139.087,5.49,138.208,5.378,136.979,5.386z"/>
</g>
<g>
	<path fill="#D13239" d="M35.293,26.873h3.121c-0.141-0.123-0.229-0.258-0.27-0.402c-0.024-0.096-0.037-0.271-0.037-0.525v-0.871
		c0-0.219-0.012-0.361-0.037-0.432c-0.047-0.133-0.155-0.205-0.325-0.217v-0.047c0.422-0.055,0.792-0.131,1.105-0.232
		c-0.027,0.381-0.041,0.775-0.041,1.188v0.5c0,0.408,0.008,0.658,0.026,0.748c0.049,0.307,0.181,0.494,0.398,0.564l-0.004,0.029
		H34.8c-0.545,0-0.958-0.053-1.238-0.154c-0.347-0.127-0.55-0.336-0.612-0.629c-0.012-0.061-0.019-0.121-0.019-0.18
		c0-0.297,0.157-0.568,0.472-0.816c0.374-0.299,0.824-0.5,1.352-0.605c0.268-0.053,0.538-0.08,0.811-0.078
		c0.274,0.006,0.53,0.039,0.766,0.1l-0.084,0.762l-0.059,0.006c-0.108-0.273-0.287-0.467-0.538-0.582
		c-0.16-0.07-0.334-0.104-0.523-0.104c-0.113,0-0.23,0.012-0.354,0.037c-0.292,0.055-0.533,0.174-0.722,0.35
		c-0.206,0.191-0.32,0.43-0.342,0.711c-0.003,0.031-0.004,0.062-0.004,0.092c0,0.201,0.059,0.354,0.177,0.457
		c0.14,0.117,0.267,0.191,0.38,0.221C34.555,26.836,34.898,26.873,35.293,26.873z M35.26,23.336c0-0.121,0.042-0.223,0.125-0.305
		c0.084-0.082,0.186-0.123,0.306-0.123c0.123,0,0.225,0.041,0.308,0.121c0.082,0.082,0.124,0.184,0.124,0.307
		c0,0.119-0.042,0.219-0.125,0.299c-0.083,0.078-0.186,0.117-0.306,0.117c-0.123,0-0.226-0.037-0.308-0.115
		C35.302,23.559,35.26,23.459,35.26,23.336z M36.347,23.336c0-0.121,0.042-0.223,0.126-0.305c0.083-0.082,0.185-0.123,0.305-0.123
		c0.123,0,0.226,0.041,0.308,0.121c0.082,0.082,0.124,0.184,0.124,0.307c0,0.119-0.042,0.219-0.125,0.299
		c-0.084,0.078-0.186,0.117-0.306,0.117c-0.123,0-0.225-0.037-0.307-0.115C36.388,23.559,36.347,23.459,36.347,23.336z"/>
	<path fill="#D13239" d="M39.737,27.176l-0.004-0.029c0.204-0.061,0.33-0.227,0.376-0.498c0.018-0.088,0.026-0.316,0.026-0.682
		v-3.125c0-0.213-0.011-0.352-0.033-0.416c-0.045-0.129-0.149-0.199-0.313-0.209v-0.049c0.285-0.025,0.604-0.1,0.958-0.229
		c-0.022,0.338-0.032,0.73-0.029,1.18v3.754h0.523v0.303h-0.788C40.166,27.176,39.928,27.176,39.737,27.176z"/>
	<path fill="#D13239" d="M42.238,27.176h-1.094v-0.303h1.094V27.176z"/>
	<path fill="#D13239" d="M43.236,27.176h-1.094v-0.303h1.094V27.176z"/>
	<path fill="#D13239" d="M44.235,27.176h-1.094v-0.303h1.094V27.176z"/>
	<path fill="#D13239" d="M45.232,27.176h-1.093v-0.303h1.093V27.176z"/>
	<path fill="#D13239" d="M46.231,27.176h-1.095v-0.303h1.095V27.176z"/>
	<path fill="#D13239" d="M47.229,27.176h-1.094v-0.303h1.094V27.176z"/>
	<path fill="#D13239" d="M50.792,23.955l-0.254,0.59h-0.041c-0.15-0.621-0.598-0.932-1.345-0.932c-0.235,0-0.44,0.109-0.615,0.33
		c-0.163,0.209-0.243,0.434-0.243,0.676c0,0.396,0.328,0.596,0.983,0.596h2.28c0.651,0,0.977,0.348,0.977,1.043v0.615h0.427v0.303
		h-5.828v-0.303h4.719l-0.003-0.891c0-0.312-0.279-0.469-0.836-0.469h-1.901c-1.002,0-1.503-0.273-1.503-0.818
		c0-0.381,0.156-0.686,0.468-0.914c0.278-0.203,0.613-0.305,1.006-0.305C49.669,23.477,50.239,23.637,50.792,23.955z"/>
	<path fill="#D13239" d="M54.756,26.873h0.416v0.303h-2.306v-0.303h1.183v-1.799c0-0.219-0.013-0.361-0.037-0.432
		c-0.046-0.133-0.153-0.205-0.32-0.217v-0.047c0.423-0.055,0.79-0.131,1.102-0.232c-0.024,0.381-0.037,0.775-0.037,1.188V26.873z
		 M53.393,27.932c0-0.121,0.042-0.225,0.125-0.307c0.083-0.082,0.186-0.123,0.306-0.123c0.123,0,0.225,0.041,0.307,0.121
		c0.083,0.082,0.124,0.184,0.124,0.309c0,0.119-0.042,0.217-0.125,0.297c-0.083,0.078-0.186,0.117-0.306,0.117
		c-0.123,0-0.225-0.039-0.308-0.115C53.434,28.152,53.393,28.053,53.393,27.932z"/>
	<path fill="#D13239" d="M61.454,26.873v0.303h-0.177c-0.406,0-0.699-0.115-0.88-0.34c-0.202,0.25-0.495,0.369-0.881,0.357
		c-0.486-0.018-0.8-0.305-0.943-0.863c-0.046,0.203-0.12,0.369-0.221,0.498c-0.199,0.258-0.495,0.379-0.888,0.365
		c-0.489-0.018-0.804-0.299-0.947-0.848c-0.047,0.197-0.119,0.357-0.217,0.482c-0.179,0.23-0.476,0.348-0.888,0.348h-0.339v-0.303
		h0.324c0.302-0.049,0.487-0.201,0.557-0.455c0.029-0.094,0.044-0.424,0.044-0.99c0-0.482-0.122-0.766-0.365-0.844v-0.047
		c0.188,0.012,0.405,0.018,0.648,0.018c0.275,0,0.499-0.006,0.67-0.018l0.004,0.047c-0.165,0.051-0.274,0.174-0.328,0.369
		c-0.03,0.109-0.044,0.283-0.044,0.527v0.346c0.01,0.279,0.065,0.512,0.166,0.693c0.127,0.236,0.318,0.354,0.571,0.354
		c0.042,0,0.086-0.004,0.133-0.008c0.299-0.043,0.484-0.193,0.553-0.447c0.029-0.094,0.043-0.424,0.043-0.99
		c0-0.482-0.122-0.766-0.364-0.844v-0.047c0.189,0.012,0.406,0.018,0.652,0.018c0.272,0,0.495-0.006,0.667-0.018l0.003,0.047
		c-0.165,0.051-0.274,0.174-0.328,0.369c-0.029,0.109-0.045,0.283-0.045,0.527v0.346c0.01,0.279,0.065,0.512,0.166,0.693
		c0.128,0.236,0.319,0.354,0.572,0.354c0.042,0,0.086-0.004,0.132-0.008c0.299-0.043,0.484-0.193,0.552-0.447
		c0.03-0.094,0.045-0.424,0.045-0.99c0-0.488-0.123-0.77-0.369-0.844l0.003-0.047c0.229,0.012,0.459,0.018,0.693,0.018
		c0.233,0,0.441-0.006,0.626-0.018l0.003,0.047c-0.245,0.074-0.368,0.355-0.368,0.844v0.199c0,0.432,0.015,0.697,0.044,0.791
		c0.069,0.254,0.254,0.406,0.556,0.455H61.454z M57.335,23.627c0-0.121,0.042-0.225,0.125-0.305
		c0.083-0.082,0.185-0.123,0.305-0.123c0.123,0,0.226,0.041,0.308,0.123c0.082,0.08,0.124,0.184,0.124,0.305
		c0,0.119-0.042,0.221-0.125,0.299c-0.083,0.078-0.186,0.117-0.306,0.117c-0.122,0-0.225-0.039-0.307-0.115
		C57.376,23.85,57.335,23.75,57.335,23.627z M57.836,22.674c0-0.121,0.042-0.223,0.125-0.305s0.187-0.123,0.309-0.123
		c0.123,0,0.226,0.041,0.308,0.121s0.124,0.184,0.124,0.307c0,0.119-0.042,0.219-0.125,0.297s-0.186,0.119-0.306,0.119
		c-0.123,0-0.226-0.039-0.309-0.117C57.878,22.896,57.836,22.797,57.836,22.674z M58.418,23.627c0-0.121,0.042-0.225,0.125-0.305
		c0.084-0.082,0.187-0.123,0.31-0.123s0.225,0.041,0.308,0.123c0.082,0.08,0.123,0.184,0.123,0.305c0,0.119-0.042,0.221-0.125,0.299
		c-0.083,0.078-0.185,0.117-0.305,0.117c-0.123,0-0.226-0.039-0.31-0.115C58.46,23.85,58.418,23.75,58.418,23.627z"/>
	<path fill="#D13239" d="M61.354,26.873h0.859c-0.182-0.104-0.273-0.322-0.273-0.66v-3.371c0-0.213-0.011-0.352-0.033-0.416
		c-0.044-0.129-0.147-0.199-0.309-0.209v-0.049c0.282-0.025,0.6-0.1,0.954-0.229c-0.022,0.348-0.033,0.74-0.033,1.18v2.826
		c0,0.279,0.015,0.508,0.045,0.688c0.043,0.277,0.158,0.459,0.342,0.543h-1.551V26.873z"/>
	<path fill="#D13239" d="M63.344,27.193l-0.003-0.047c0.203-0.061,0.329-0.227,0.375-0.498c0.017-0.088,0.025-0.316,0.025-0.682
		v-3.125c0-0.213-0.011-0.352-0.033-0.416c-0.044-0.129-0.149-0.199-0.313-0.209v-0.049c0.285-0.025,0.604-0.1,0.958-0.229
		c-0.022,0.348-0.032,0.74-0.029,1.18v2.826c0.02,0.395,0.033,0.625,0.04,0.691c0.045,0.285,0.168,0.455,0.372,0.51v0.047
		c-0.233-0.012-0.459-0.018-0.677-0.018C63.773,27.176,63.535,27.182,63.344,27.193z"/>
	<path fill="#D13239" d="M68.494,27.176v-0.682c-0.089,0.193-0.228,0.344-0.417,0.453c-0.182,0.1-0.383,0.15-0.604,0.15
		c-0.42,0-0.764-0.15-1.031-0.449c-0.256-0.291-0.384-0.648-0.384-1.074c0-0.418,0.136-0.76,0.406-1.023
		c0.27-0.266,0.615-0.396,1.036-0.396c0.397,0,0.724,0.191,0.979,0.574c0.059-0.166,0.136-0.334,0.232-0.5h0.597l0.232-0.008v0.037
		c-0.162,0.037-0.261,0.186-0.295,0.445c-0.01,0.059-0.015,0.256-0.015,0.594v1.576h0.615v0.303H68.494z M66.504,23.344
		c0-0.121,0.042-0.221,0.125-0.303c0.084-0.082,0.187-0.121,0.307-0.121c0.122,0,0.225,0.039,0.307,0.119
		c0.083,0.08,0.124,0.182,0.124,0.305s-0.042,0.223-0.125,0.301c-0.083,0.076-0.185,0.115-0.305,0.115
		c-0.124,0-0.226-0.039-0.309-0.115C66.546,23.566,66.504,23.467,66.504,23.344z M66.744,25.646c0,0.318,0.067,0.58,0.203,0.783
		c0.16,0.244,0.392,0.365,0.696,0.365c0.305,0,0.535-0.121,0.689-0.359c0.13-0.203,0.195-0.465,0.195-0.789
		c0-0.33-0.066-0.596-0.199-0.797c-0.155-0.24-0.386-0.359-0.693-0.359c-0.305,0-0.535,0.121-0.693,0.363
		C66.811,25.061,66.744,25.324,66.744,25.646z M67.591,23.344c0-0.121,0.042-0.221,0.125-0.303s0.185-0.121,0.306-0.121
		c0.123,0,0.225,0.039,0.307,0.119s0.123,0.182,0.123,0.305s-0.042,0.223-0.125,0.301c-0.084,0.076-0.186,0.115-0.306,0.115
		c-0.124,0-0.226-0.039-0.308-0.115C67.632,23.566,67.591,23.467,67.591,23.344z"/>
	<path fill="#D13239" d="M70.84,27.176h-1.094v-0.303h1.094V27.176z"/>
	<path fill="#D13239" d="M71.839,27.176h-1.095v-0.303h1.095V27.176z"/>
	<path fill="#D13239" d="M72.837,27.176h-1.094v-0.303h1.094V27.176z"/>
	<path fill="#D13239" d="M73.836,27.176h-1.095v-0.303h1.095V27.176z"/>
	<path fill="#D13239" d="M74.834,27.176H73.74v-0.303h1.094V27.176z"/>
	<path fill="#D13239" d="M75.833,27.176h-1.095v-0.303h1.095V27.176z"/>
	<path fill="#D13239" d="M76.831,27.176h-1.095v-0.303h1.095V27.176z"/>
	<path fill="#D13239" d="M80.33,26.873h0.612v0.303H80.15c-0.044,0.055-0.092,0.107-0.144,0.158
		c-0.295,0.275-0.682,0.416-1.161,0.416c-0.466,0-0.844-0.141-1.135-0.42c-0.051-0.051-0.098-0.102-0.139-0.154h-0.837v-0.303h0.659
		c-0.081-0.191-0.122-0.406-0.122-0.641c0-0.447,0.156-0.807,0.469-1.08c0.295-0.258,0.669-0.387,1.123-0.387
		c0.462,0,0.837,0.133,1.128,0.398c0.302,0.273,0.453,0.639,0.453,1.094C80.445,26.486,80.407,26.691,80.33,26.873z M77.942,26.246
		c0,0.381,0.062,0.689,0.185,0.93c0.158,0.312,0.408,0.471,0.753,0.471c0.336,0,0.582-0.158,0.735-0.471
		c0.121-0.24,0.182-0.547,0.182-0.926c0-0.381-0.061-0.688-0.182-0.92c-0.158-0.311-0.41-0.465-0.755-0.465
		c-0.332,0-0.575,0.156-0.733,0.469C78.005,25.574,77.942,25.879,77.942,26.246z"/>
	<path fill="#D13239" d="M80.847,27.176v-0.303h0.601v-4.129c0-0.189-0.014-0.318-0.04-0.385c-0.045-0.113-0.146-0.174-0.303-0.184
		v-0.053c0.265-0.031,0.561-0.104,0.884-0.221v3.238c0.199-0.662,0.627-0.994,1.286-0.994c0.464,0,0.798,0.143,1.002,0.424
		c0.174,0.24,0.262,0.604,0.262,1.09v0.27c0,0.494,0.024,0.807,0.077,0.943h0.438v0.303H80.847z M84.063,26.873
		c-0.069-0.084-0.111-0.188-0.126-0.309v-0.852c0-0.391-0.048-0.682-0.144-0.869c-0.132-0.256-0.372-0.396-0.718-0.42
		c-0.527,0.033-0.849,0.357-0.966,0.973c-0.037,0.191-0.055,0.684-0.055,1.477H84.063z M82.541,23.242
		c0-0.119,0.042-0.219,0.125-0.301c0.083-0.08,0.188-0.121,0.31-0.121c0.123,0,0.226,0.041,0.308,0.119
		c0.083,0.08,0.124,0.182,0.124,0.303c0,0.123-0.042,0.225-0.125,0.303c-0.084,0.076-0.186,0.115-0.307,0.115
		c-0.122,0-0.227-0.039-0.31-0.115C82.583,23.467,82.541,23.365,82.541,23.242z"/>
	<path fill="#D13239" d="M84.958,26.873h1.54c-0.121-0.123-0.198-0.258-0.232-0.402c-0.022-0.096-0.033-0.271-0.033-0.525v-0.871
		c0-0.219-0.012-0.361-0.036-0.432c-0.048-0.133-0.156-0.205-0.324-0.217v-0.047c0.422-0.055,0.79-0.131,1.104-0.232
		c-0.027,0.381-0.041,0.775-0.041,1.188v0.5c0,0.408,0.009,0.658,0.025,0.748c0.05,0.307,0.183,0.494,0.399,0.564l-0.004,0.029
		h-2.398V26.873z M85.135,23.336c0-0.121,0.041-0.223,0.125-0.305s0.186-0.123,0.306-0.123c0.123,0,0.226,0.041,0.31,0.121
		C85.958,23.111,86,23.213,86,23.336c0,0.119-0.042,0.219-0.125,0.299c-0.084,0.078-0.187,0.117-0.31,0.117
		c-0.12,0-0.222-0.037-0.306-0.115S85.135,23.459,85.135,23.336z"/>
	<path fill="#D13239" d="M87.81,27.193l-0.004-0.047c0.204-0.061,0.329-0.227,0.376-0.498c0.018-0.088,0.026-0.316,0.026-0.682
		v-3.125c0-0.213-0.012-0.352-0.034-0.416c-0.044-0.129-0.148-0.199-0.313-0.209v-0.049c0.285-0.025,0.604-0.1,0.958-0.229
		c-0.021,0.348-0.031,0.74-0.028,1.18v2.826c0.02,0.395,0.032,0.625,0.039,0.691c0.045,0.285,0.169,0.455,0.372,0.51v0.047
		c-0.233-0.012-0.459-0.018-0.677-0.018C88.238,27.176,88.002,27.182,87.81,27.193z M87.88,21.826v-0.107h0.154
		c-0.093-0.064-0.14-0.145-0.14-0.244s0.048-0.178,0.143-0.23c0.081-0.045,0.177-0.066,0.285-0.066c0.117,0,0.221,0.021,0.309,0.066
		l-0.04,0.166h-0.012c-0.046-0.131-0.126-0.197-0.239-0.197c-0.073,0-0.141,0.027-0.202,0.078s-0.093,0.113-0.093,0.184
		c0,0.09,0.054,0.17,0.163,0.244h0.383c0.029,0,0.059-0.012,0.088-0.037c-0.01,0.096-0.043,0.145-0.1,0.145H87.88z"/>
	<path fill="#D13239" d="M89.898,28.18l0.254-0.779h0.044c0.15,0.684,0.517,1.027,1.102,1.027c0.837,0,1.257-0.662,1.257-1.986
		v-0.055c-0.219,0.539-0.643,0.811-1.272,0.811c-0.39,0-0.729-0.102-1.016-0.307c-0.323-0.229-0.486-0.529-0.486-0.906
		c0-0.447,0.171-0.799,0.513-1.057c0.307-0.238,0.691-0.357,1.153-0.357c0.574,0,1.026,0.178,1.354,0.535
		c0.32,0.346,0.479,0.809,0.479,1.389c0,0.623-0.178,1.121-0.53,1.496c-0.364,0.381-0.855,0.574-1.474,0.574
		C90.824,28.564,90.364,28.436,89.898,28.18z M92.471,25.881c0-0.328-0.078-0.6-0.229-0.812c-0.173-0.242-0.415-0.361-0.729-0.361
		c-0.342,0-0.597,0.123-0.766,0.367c-0.147,0.211-0.222,0.496-0.222,0.855c0,0.314,0.08,0.572,0.239,0.777
		c0.18,0.219,0.423,0.328,0.729,0.328s0.552-0.119,0.733-0.354C92.388,26.465,92.471,26.197,92.471,25.881z"/>
	<path fill="#D13239" d="M97.097,26.873h3.12c-0.14-0.123-0.229-0.258-0.269-0.402c-0.024-0.096-0.037-0.271-0.037-0.525v-0.871
		c0-0.219-0.012-0.361-0.036-0.432c-0.047-0.133-0.154-0.205-0.324-0.217v-0.047c0.422-0.055,0.79-0.131,1.104-0.232
		c-0.026,0.381-0.041,0.775-0.041,1.188v0.5c0,0.408,0.01,0.658,0.026,0.748c0.048,0.307,0.183,0.494,0.398,0.564l-0.004,0.029
		h-4.433c-0.545,0-0.957-0.053-1.237-0.154c-0.347-0.127-0.55-0.336-0.611-0.629c-0.013-0.061-0.019-0.121-0.019-0.18
		c0-0.297,0.157-0.568,0.472-0.816c0.374-0.299,0.824-0.5,1.352-0.605c0.269-0.053,0.538-0.08,0.811-0.078
		c0.274,0.006,0.53,0.039,0.766,0.1l-0.084,0.762l-0.059,0.006c-0.108-0.273-0.288-0.467-0.538-0.582
		c-0.16-0.07-0.334-0.104-0.523-0.104c-0.112,0-0.23,0.012-0.353,0.037c-0.294,0.055-0.533,0.174-0.723,0.35
		c-0.206,0.191-0.32,0.43-0.343,0.711c-0.003,0.031-0.005,0.062-0.005,0.092c0,0.201,0.06,0.354,0.178,0.457
		c0.14,0.117,0.267,0.191,0.38,0.221C96.358,26.836,96.701,26.873,97.097,26.873z M97.063,23.336c0-0.121,0.042-0.223,0.125-0.305
		c0.084-0.082,0.186-0.123,0.306-0.123c0.123,0,0.226,0.041,0.309,0.121c0.082,0.082,0.123,0.184,0.123,0.307
		c0,0.119-0.042,0.219-0.125,0.299c-0.084,0.078-0.187,0.117-0.307,0.117c-0.122,0-0.225-0.037-0.308-0.115
		C97.104,23.559,97.063,23.459,97.063,23.336z M98.15,23.336c0-0.121,0.042-0.223,0.125-0.305s0.186-0.123,0.307-0.123
		c0.122,0,0.225,0.041,0.307,0.121c0.083,0.082,0.124,0.184,0.124,0.307c0,0.119-0.042,0.219-0.125,0.299
		c-0.084,0.078-0.186,0.117-0.306,0.117c-0.123,0-0.227-0.037-0.309-0.115C98.19,23.559,98.15,23.459,98.15,23.336z"/>
	<path fill="#D13239" d="M102.888,27.533c-0.621-0.357-0.932-0.848-0.932-1.471v-2.648c0-0.215-0.011-0.354-0.033-0.416
		c-0.044-0.129-0.148-0.197-0.312-0.207v-0.047c0.284-0.025,0.604-0.104,0.956-0.234c-0.019,0.357-0.028,0.752-0.028,1.184v2.373
		C102.553,26.613,102.669,27.102,102.888,27.533z M103.869,21.924v4.25c0,0.531-0.128,0.959-0.384,1.277
		c-0.217,0.273-0.577,0.408-1.083,0.408c-0.084,0-0.174-0.002-0.27-0.01c-0.068-0.006-0.171-0.018-0.306-0.033l0.199-0.639h0.037
		c0.031,0.148,0.1,0.271,0.205,0.373c0.076,0.072,0.19,0.111,0.344,0.111c0.054,0,0.115-0.006,0.183-0.016
		c0.213-0.033,0.356-0.209,0.436-0.527c0.044-0.23,0.066-0.547,0.066-0.949c0-0.805,0-1.061,0-0.771v-2.471
		c0-0.262-0.019-0.42-0.055-0.473c-0.042-0.158-0.149-0.244-0.324-0.254v-0.047C103.2,22.117,103.517,22.041,103.869,21.924z"/>
	<path fill="#D13239" d="M104.473,27.176l-0.004-0.029c0.204-0.061,0.328-0.227,0.376-0.498c0.017-0.088,0.025-0.316,0.025-0.682
		v-3.125c0-0.213-0.011-0.352-0.033-0.416c-0.044-0.129-0.148-0.199-0.312-0.209v-0.049c0.284-0.025,0.604-0.1,0.956-0.229
		c-0.021,0.338-0.03,0.73-0.028,1.18v3.754h0.522v0.303h-0.788C104.902,27.176,104.664,27.176,104.473,27.176z"/>
	<path fill="#D13239" d="M106.975,27.176h-1.095v-0.303h1.095V27.176z"/>
	<path fill="#D13239" d="M107.973,27.176h-1.095v-0.303h1.095V27.176z"/>
	<path fill="#D13239" d="M108.97,27.176h-1.094v-0.303h1.094V27.176z"/>
	<path fill="#D13239" d="M109.969,27.176h-1.094v-0.303h1.094V27.176z"/>
	<path fill="#D13239" d="M110.967,27.176h-1.094v-0.303h1.094V27.176z"/>
	<path fill="#D13239" d="M111.966,27.176h-1.095v-0.303h1.095V27.176z"/>
	<path fill="#D13239" d="M111.87,27.176v-0.303h0.593v-1.742c0-0.273-0.006-0.434-0.019-0.484c-0.04-0.168-0.147-0.258-0.324-0.268
		v-0.053c0.263-0.031,0.558-0.104,0.885-0.219v1.033c0.196-0.662,0.624-0.994,1.284-0.994c0.463,0,0.796,0.143,1,0.424
		c0.174,0.24,0.262,0.604,0.262,1.09v0.27c0,0.494,0.026,0.807,0.08,0.943h0.468v0.303H111.87z M115.079,26.873
		c-0.071-0.084-0.114-0.188-0.13-0.309v-0.852c0-0.391-0.047-0.682-0.144-0.869c-0.131-0.256-0.368-0.396-0.715-0.42
		c-0.528,0.033-0.85,0.357-0.964,0.973c-0.038,0.191-0.056,0.684-0.056,1.477H115.079z"/>
	<path fill="#D13239" d="M116.003,26.873h1.932c-0.121-0.123-0.198-0.258-0.233-0.402c-0.021-0.096-0.032-0.271-0.032-0.525v-0.871
		c0-0.219-0.013-0.361-0.037-0.432c-0.045-0.133-0.15-0.205-0.32-0.217v-0.047c0.423-0.055,0.79-0.131,1.104-0.232
		c-0.026,0.381-0.04,0.775-0.04,1.188v0.5c0,0.408,0.008,0.658,0.021,0.748c0.052,0.307,0.186,0.494,0.401,0.564l-0.004,0.029
		h-2.792V26.873z M116.15,23.336c0-0.121,0.042-0.223,0.125-0.305s0.186-0.123,0.306-0.123c0.123,0,0.226,0.041,0.308,0.121
		c0.083,0.082,0.124,0.184,0.124,0.307c0,0.119-0.042,0.219-0.125,0.299c-0.084,0.078-0.186,0.117-0.307,0.117
		c-0.122,0-0.226-0.037-0.308-0.115S116.15,23.459,116.15,23.336z M117.237,23.336c0-0.121,0.042-0.223,0.126-0.305
		c0.083-0.082,0.186-0.123,0.306-0.123c0.123,0,0.225,0.041,0.307,0.121c0.083,0.082,0.123,0.184,0.123,0.307
		c0,0.119-0.041,0.219-0.125,0.299c-0.083,0.078-0.185,0.117-0.305,0.117c-0.123,0-0.226-0.037-0.309-0.115
		C117.278,23.559,117.237,23.459,117.237,23.336z"/>
	<path fill="#D13239" d="M120.627,27.533c-0.621-0.357-0.932-0.848-0.932-1.471v-2.648c0-0.215-0.012-0.354-0.034-0.416
		c-0.044-0.129-0.148-0.197-0.312-0.207v-0.047c0.284-0.025,0.604-0.104,0.957-0.234c-0.024,0.357-0.034,0.752-0.028,1.184v2.373
		C120.291,26.613,120.407,27.102,120.627,27.533z M121.518,26.873h0.531v0.303H121.4c-0.049,0.1-0.107,0.191-0.177,0.275
		c-0.217,0.273-0.576,0.408-1.084,0.408c-0.082,0-0.173-0.002-0.268-0.01c-0.068-0.006-0.171-0.018-0.307-0.033l0.199-0.639h0.037
		c0.032,0.148,0.1,0.271,0.206,0.373c0.076,0.072,0.19,0.111,0.342,0.111c0.055,0,0.116-0.006,0.185-0.016
		c0.212-0.033,0.356-0.209,0.436-0.527c0.056-0.23,0.078-0.547,0.066-0.949v-3.242c0-0.262-0.02-0.42-0.056-0.473
		c-0.043-0.158-0.15-0.244-0.323-0.254v-0.047c0.28-0.037,0.599-0.113,0.949-0.23v4.25C121.606,26.43,121.577,26.664,121.518,26.873
		z M119.879,28.689v-0.107h0.155c-0.096-0.064-0.145-0.145-0.145-0.242c0-0.102,0.049-0.18,0.145-0.232
		c0.08-0.045,0.175-0.066,0.283-0.066c0.12,0,0.225,0.021,0.312,0.066l-0.043,0.166l-0.012-0.004
		c-0.046-0.129-0.127-0.191-0.238-0.191c-0.074,0-0.142,0.025-0.201,0.076c-0.062,0.051-0.091,0.113-0.091,0.186
		c0,0.084,0.052,0.166,0.158,0.242h0.384c0.03,0,0.062-0.012,0.092-0.037c-0.01,0.096-0.046,0.145-0.104,0.145H119.879z"/>
	<path fill="#D13239" d="M121.923,26.873h0.859c-0.182-0.104-0.273-0.322-0.273-0.66v-3.371c0-0.213-0.011-0.352-0.032-0.416
		c-0.045-0.129-0.147-0.199-0.31-0.209v-0.049c0.281-0.025,0.6-0.1,0.954-0.229c-0.021,0.348-0.034,0.74-0.034,1.18v2.826
		c0,0.279,0.017,0.508,0.045,0.688c0.045,0.277,0.158,0.459,0.342,0.543h-1.551V26.873z"/>
	<path fill="#D13239" d="M127.476,26.873h0.909v0.303h-3.245c-0.216,0-0.341-0.164-0.376-0.49c0.115,0.125,0.227,0.188,0.335,0.188
		h1.484c0.414,0,0.642-0.283,0.687-0.852c-0.03-0.383-0.12-0.736-0.269-1.061c-0.199-0.439-0.46-0.66-0.781-0.66
		c-0.104,0-0.21,0.037-0.319,0.115c-0.109,0.076-0.186,0.162-0.23,0.258c-0.049,0.105-0.073,0.223-0.073,0.354
		c0,0.148,0.025,0.258,0.077,0.324c0.094,0.123,0.143,0.188,0.147,0.195c-0.011,0.012-0.05,0.021-0.121,0.027
		c-0.092-0.002-0.175-0.002-0.251-0.002c-0.13,0-0.353,0.008-0.666,0.021v-0.047c0.111-0.031,0.189-0.078,0.231-0.137
		c0.041-0.059,0.062-0.148,0.062-0.27v-0.135c0-0.111-0.004-0.225-0.011-0.336c0.319-0.324,0.713-0.486,1.182-0.486
		c0.465,0,0.861,0.186,1.194,0.561c0.321,0.357,0.482,0.771,0.482,1.238C127.925,26.35,127.775,26.646,127.476,26.873z"/>
	<path fill="#D13239" d="M129.388,27.176h-1.095v-0.303h1.095V27.176z"/>
	<path fill="#D13239" d="M130.386,27.176h-1.095v-0.303h1.095V27.176z"/>
	<path fill="#D13239" d="M131.384,27.176h-1.094v-0.303h1.094V27.176z"/>
	<path fill="#D13239" d="M132.383,27.176h-1.095v-0.303h1.095V27.176z"/>
	<path fill="#D13239" d="M133.381,27.176h-1.095v-0.303h1.095V27.176z"/>
	<path fill="#D13239" d="M138.243,26.873h0.848v0.303h-5.806v-0.303h1.2c-0.378-0.244-0.566-0.586-0.566-1.027
		c0-0.377,0.152-0.68,0.457-0.91c0.268-0.203,0.597-0.314,0.991-0.336l-0.052-0.637c0.235-0.08,0.491-0.121,0.766-0.129
		c0.272-0.004,0.542,0.029,0.811,0.104c0.528,0.146,0.98,0.42,1.355,0.82c0.312,0.336,0.469,0.707,0.469,1.109
		c0,0.08-0.006,0.162-0.02,0.246C138.646,26.445,138.494,26.699,138.243,26.873z M134.966,26.873h1.105
		c0.247-0.199,0.371-0.535,0.371-1.01c0-0.748-0.286-1.143-0.859-1.18c-0.048,0.096-0.09,0.207-0.125,0.33l-0.059-0.012
		l-0.022-0.311c-0.274,0.031-0.479,0.17-0.613,0.414c-0.114,0.197-0.171,0.447-0.171,0.75
		C134.593,26.338,134.717,26.676,134.966,26.873z M136.53,26.869c0.4-0.012,0.691-0.068,0.869-0.166
		c0.204-0.113,0.351-0.246,0.438-0.398c0.071-0.125,0.107-0.311,0.107-0.557c0-0.057-0.002-0.117-0.007-0.184
		c-0.021-0.346-0.118-0.646-0.295-0.902c-0.192-0.27-0.448-0.449-0.771-0.537c-0.121-0.035-0.235-0.053-0.346-0.053
		c-0.386,0-0.685,0.176-0.896,0.527c0.402,0.02,0.737,0.131,1.006,0.336c0.302,0.23,0.454,0.539,0.454,0.928
		C137.092,26.297,136.904,26.631,136.53,26.869z"/>
	<path fill="#D13239" d="M139.5,25.627c0-0.447,0.155-0.807,0.468-1.078c0.295-0.258,0.669-0.387,1.123-0.387
		c0.462,0,0.838,0.133,1.128,0.4c0.302,0.273,0.453,0.637,0.453,1.092c0,0.441-0.146,0.801-0.438,1.078
		c-0.057,0.051-0.117,0.098-0.18,0.141h1.042v0.303h-4.104v-0.303h1.128c-0.067-0.045-0.129-0.096-0.185-0.152
		C139.645,26.441,139.5,26.076,139.5,25.627z M140.17,25.643c0,0.598,0.139,1.006,0.417,1.23h1.023
		c0.273-0.227,0.41-0.635,0.41-1.227c0-0.379-0.061-0.686-0.181-0.922c-0.158-0.309-0.408-0.465-0.752-0.465
		c-0.332,0-0.578,0.158-0.736,0.469C140.231,24.971,140.17,25.275,140.17,25.643z M140.605,23.166c0-0.121,0.041-0.221,0.125-0.303
		c0.083-0.08,0.186-0.119,0.305-0.119c0.124,0,0.227,0.039,0.311,0.119c0.083,0.08,0.125,0.18,0.125,0.303
		c0,0.119-0.042,0.221-0.125,0.299c-0.084,0.078-0.187,0.119-0.311,0.119c-0.122,0-0.225-0.039-0.307-0.117
		S140.605,23.289,140.605,23.166z"/>
	<path fill="#D13239" d="M143,26.873h0.858c-0.183-0.104-0.272-0.322-0.272-0.66v-3.371c0-0.213-0.012-0.352-0.034-0.416
		c-0.043-0.129-0.147-0.199-0.308-0.209v-0.049c0.28-0.025,0.6-0.1,0.952-0.229c-0.021,0.348-0.032,0.74-0.032,1.18v2.826
		c0,0.279,0.015,0.508,0.044,0.688c0.044,0.277,0.158,0.459,0.344,0.543H143V26.873z"/>
	<path fill="#D13239" d="M144.99,27.193l-0.005-0.047c0.205-0.061,0.329-0.227,0.376-0.498c0.018-0.088,0.026-0.316,0.026-0.682
		v-3.125c0-0.213-0.013-0.352-0.034-0.416c-0.044-0.129-0.148-0.199-0.313-0.209v-0.049c0.286-0.025,0.604-0.1,0.958-0.229
		c-0.021,0.348-0.03,0.74-0.029,1.18v2.826c0.02,0.395,0.033,0.625,0.041,0.691c0.044,0.285,0.168,0.455,0.372,0.51v0.047
		c-0.234-0.012-0.46-0.018-0.678-0.018C145.418,27.176,145.181,27.182,144.99,27.193z"/>
</g>
<g>
	<path fill="#D13239" d="M35.44,32.516h-1.455l-0.255,0.594c-0.062,0.146-0.094,0.256-0.094,0.326c0,0.059,0.027,0.109,0.083,0.152
		c0.054,0.043,0.172,0.072,0.354,0.086v0.102h-1.184v-0.102c0.157-0.029,0.258-0.064,0.305-0.109c0.094-0.09,0.199-0.27,0.313-0.541
		l1.322-3.094h0.097l1.308,3.127c0.106,0.252,0.202,0.414,0.287,0.49c0.086,0.074,0.206,0.117,0.359,0.127v0.102h-1.483v-0.102
		c0.149-0.01,0.251-0.033,0.304-0.076s0.079-0.094,0.079-0.156c0-0.08-0.037-0.209-0.111-0.385L35.44,32.516z M35.363,32.311
		l-0.638-1.518l-0.654,1.518H35.363z"/>
	<path fill="#D13239" d="M37.995,29.832v3.369c0,0.158,0.011,0.264,0.034,0.314c0.023,0.053,0.059,0.094,0.106,0.119
		c0.049,0.025,0.138,0.041,0.269,0.041v0.1H37.16v-0.1c0.117,0,0.196-0.012,0.238-0.037c0.043-0.023,0.076-0.062,0.1-0.119
		c0.024-0.055,0.036-0.16,0.036-0.318v-2.307c0-0.287-0.006-0.463-0.019-0.527c-0.013-0.066-0.034-0.111-0.062-0.135
		c-0.028-0.025-0.065-0.037-0.109-0.037c-0.048,0-0.109,0.016-0.183,0.045l-0.047-0.098l0.757-0.311H37.995z"/>
	<path fill="#D13239" d="M41.102,30.221v1.479h0.685c0.157,0,0.272-0.035,0.345-0.105c0.073-0.068,0.122-0.207,0.146-0.412h0.103
		v1.273h-0.103c-0.002-0.146-0.021-0.254-0.057-0.32c-0.036-0.068-0.086-0.121-0.149-0.156c-0.064-0.033-0.159-0.049-0.285-0.049
		h-0.685v1.18c0,0.191,0.012,0.316,0.036,0.377c0.018,0.047,0.057,0.086,0.116,0.119c0.082,0.045,0.167,0.068,0.255,0.068h0.136
		v0.102h-1.614v-0.102h0.133c0.155,0,0.268-0.047,0.338-0.137c0.044-0.061,0.066-0.203,0.066-0.428v-2.428
		c0-0.191-0.012-0.318-0.036-0.379c-0.019-0.045-0.057-0.084-0.113-0.117c-0.081-0.045-0.165-0.066-0.255-0.066h-0.133v-0.104h2.797
		l0.036,0.826h-0.097c-0.048-0.176-0.104-0.305-0.167-0.387c-0.064-0.082-0.143-0.141-0.236-0.18
		c-0.093-0.037-0.238-0.055-0.434-0.055H41.102z"/>
	<path fill="#D13239" d="M44.714,33.408c-0.261,0.203-0.424,0.318-0.491,0.352c-0.1,0.045-0.206,0.068-0.319,0.068
		c-0.175,0-0.321-0.061-0.434-0.18c-0.114-0.121-0.17-0.279-0.17-0.475c0-0.125,0.027-0.232,0.083-0.322
		c0.076-0.125,0.208-0.244,0.395-0.355c0.188-0.109,0.5-0.244,0.936-0.404v-0.1c0-0.252-0.04-0.428-0.121-0.521
		s-0.197-0.143-0.351-0.143c-0.116,0-0.208,0.033-0.277,0.096c-0.07,0.062-0.105,0.135-0.105,0.217l0.005,0.16
		c0,0.086-0.021,0.15-0.065,0.197c-0.043,0.047-0.1,0.07-0.17,0.07c-0.068,0-0.125-0.025-0.167-0.072
		c-0.044-0.049-0.065-0.115-0.065-0.197c0-0.16,0.081-0.307,0.244-0.439c0.163-0.131,0.391-0.199,0.685-0.199
		c0.226,0,0.411,0.037,0.555,0.113c0.109,0.059,0.189,0.148,0.241,0.27c0.034,0.08,0.05,0.242,0.05,0.488v0.861
		c0,0.242,0.005,0.393,0.014,0.445c0.009,0.055,0.024,0.092,0.045,0.109c0.021,0.02,0.046,0.027,0.074,0.027
		c0.029,0,0.055-0.006,0.077-0.018c0.039-0.025,0.114-0.092,0.225-0.203v0.154c-0.208,0.279-0.405,0.416-0.593,0.416
		c-0.091,0-0.163-0.031-0.217-0.094C44.744,33.666,44.716,33.561,44.714,33.408z M44.714,33.229v-0.967
		c-0.279,0.109-0.459,0.189-0.541,0.234c-0.146,0.082-0.25,0.168-0.313,0.256c-0.063,0.088-0.094,0.186-0.094,0.291
		c0,0.133,0.04,0.244,0.119,0.33c0.08,0.088,0.171,0.133,0.274,0.133C44.3,33.506,44.485,33.414,44.714,33.229z"/>
	<path fill="#D13239" d="M46.541,29.832v1.857c0.205-0.225,0.368-0.369,0.488-0.434c0.12-0.064,0.24-0.096,0.36-0.096
		c0.144,0,0.268,0.039,0.371,0.119c0.104,0.08,0.18,0.205,0.23,0.375c0.035,0.119,0.052,0.336,0.052,0.648v0.898
		c0,0.16,0.013,0.27,0.039,0.33c0.019,0.045,0.05,0.08,0.094,0.105c0.045,0.025,0.126,0.039,0.244,0.039v0.1h-1.248v-0.1h0.058
		c0.119,0,0.201-0.02,0.247-0.055c0.046-0.035,0.079-0.09,0.097-0.16c0.006-0.029,0.008-0.115,0.008-0.26v-0.898
		c0-0.277-0.015-0.459-0.043-0.545c-0.028-0.088-0.075-0.152-0.138-0.197c-0.062-0.043-0.138-0.064-0.227-0.064
		c-0.09,0-0.185,0.023-0.283,0.072s-0.215,0.145-0.352,0.291v1.342c0,0.174,0.01,0.281,0.03,0.324
		c0.019,0.043,0.055,0.078,0.107,0.107c0.053,0.027,0.144,0.043,0.273,0.043v0.1h-1.258v-0.1c0.113,0,0.202-0.02,0.266-0.053
		c0.037-0.02,0.066-0.055,0.088-0.107c0.023-0.051,0.034-0.156,0.034-0.314v-2.299c0-0.291-0.007-0.467-0.021-0.535
		c-0.015-0.066-0.036-0.111-0.064-0.135c-0.028-0.025-0.066-0.037-0.115-0.037c-0.039,0-0.102,0.016-0.188,0.045l-0.04-0.098
		l0.76-0.311H46.541z"/>
	<path fill="#D13239" d="M50.073,33.408c-0.261,0.203-0.424,0.318-0.491,0.352c-0.1,0.045-0.207,0.068-0.319,0.068
		c-0.176,0-0.32-0.061-0.434-0.18c-0.114-0.121-0.171-0.279-0.171-0.475c0-0.125,0.028-0.232,0.083-0.322
		c0.076-0.125,0.208-0.244,0.396-0.355c0.188-0.109,0.499-0.244,0.936-0.404v-0.1c0-0.252-0.04-0.428-0.121-0.521
		c-0.08-0.094-0.198-0.143-0.351-0.143c-0.116,0-0.208,0.033-0.277,0.096c-0.07,0.062-0.106,0.135-0.106,0.217l0.006,0.16
		c0,0.086-0.022,0.15-0.065,0.197s-0.1,0.07-0.171,0.07c-0.068,0-0.124-0.025-0.167-0.072c-0.043-0.049-0.065-0.115-0.065-0.197
		c0-0.16,0.082-0.307,0.245-0.439c0.162-0.131,0.391-0.199,0.685-0.199c0.226,0,0.41,0.037,0.554,0.113
		c0.109,0.059,0.189,0.148,0.241,0.27c0.033,0.08,0.05,0.242,0.05,0.488v0.861c0,0.242,0.004,0.393,0.014,0.445
		c0.009,0.055,0.024,0.092,0.046,0.109c0.021,0.02,0.045,0.027,0.073,0.027c0.029,0,0.056-0.006,0.077-0.018
		c0.04-0.025,0.114-0.092,0.225-0.203v0.154c-0.207,0.279-0.404,0.416-0.593,0.416c-0.091,0-0.163-0.031-0.216-0.094
		C50.103,33.666,50.075,33.561,50.073,33.408z M50.073,33.229v-0.967c-0.279,0.109-0.459,0.189-0.541,0.234
		c-0.146,0.082-0.25,0.168-0.313,0.256s-0.094,0.186-0.094,0.291c0,0.133,0.04,0.244,0.119,0.33c0.08,0.088,0.17,0.133,0.274,0.133
		C49.659,33.506,49.844,33.414,50.073,33.229z"/>
	<path fill="#D13239" d="M52.948,33.49c-0.125,0.129-0.245,0.221-0.364,0.277c-0.118,0.057-0.246,0.084-0.382,0.084
		c-0.278,0-0.52-0.115-0.727-0.348c-0.207-0.232-0.31-0.529-0.31-0.893c0-0.365,0.115-0.699,0.343-1
		c0.229-0.303,0.524-0.453,0.885-0.453c0.224,0,0.408,0.07,0.555,0.213v-0.469c0-0.291-0.007-0.467-0.021-0.535
		c-0.014-0.066-0.036-0.111-0.065-0.135c-0.03-0.025-0.066-0.037-0.11-0.037c-0.048,0-0.112,0.016-0.191,0.045l-0.037-0.098
		l0.757-0.311h0.125v2.938c0,0.295,0.007,0.479,0.021,0.543c0.015,0.066,0.036,0.113,0.067,0.139
		c0.03,0.025,0.066,0.039,0.107,0.039c0.049,0,0.116-0.018,0.199-0.049l0.031,0.098l-0.754,0.312h-0.127V33.49z M52.948,33.295
		v-1.309c-0.012-0.125-0.044-0.24-0.1-0.344c-0.055-0.104-0.129-0.182-0.22-0.232c-0.092-0.053-0.181-0.082-0.268-0.082
		c-0.163,0-0.308,0.074-0.435,0.221c-0.168,0.191-0.252,0.473-0.252,0.844s0.081,0.658,0.244,0.857
		c0.163,0.197,0.343,0.297,0.543,0.297C52.628,33.547,52.791,33.463,52.948,33.295z"/>
	<path fill="#D13239" d="M58.653,29.93l0.085,1.277h-0.085c-0.115-0.381-0.278-0.658-0.491-0.826
		c-0.213-0.168-0.468-0.252-0.765-0.252c-0.25,0-0.475,0.064-0.677,0.189c-0.201,0.127-0.36,0.33-0.476,0.607
		c-0.115,0.275-0.173,0.621-0.173,1.033c0,0.34,0.055,0.635,0.163,0.885c0.109,0.25,0.273,0.441,0.492,0.574
		c0.219,0.133,0.469,0.199,0.75,0.199c0.244,0,0.459-0.053,0.646-0.158c0.187-0.104,0.392-0.311,0.615-0.621l0.086,0.055
		c-0.188,0.336-0.409,0.58-0.66,0.736c-0.251,0.154-0.55,0.232-0.896,0.232c-0.622,0-1.105-0.232-1.447-0.693
		c-0.255-0.344-0.382-0.748-0.382-1.215c0-0.375,0.083-0.719,0.252-1.033s0.4-0.559,0.695-0.73c0.294-0.174,0.617-0.26,0.966-0.26
		c0.271,0,0.539,0.066,0.804,0.199c0.078,0.041,0.133,0.062,0.167,0.062c0.049,0,0.093-0.02,0.13-0.053
		c0.048-0.051,0.082-0.121,0.103-0.209H58.653z"/>
	<path fill="#D13239" d="M60.441,31.16c0.384,0,0.693,0.146,0.926,0.438c0.197,0.25,0.296,0.537,0.296,0.861
		c0,0.227-0.055,0.455-0.164,0.689c-0.109,0.232-0.259,0.408-0.45,0.527c-0.192,0.117-0.405,0.176-0.64,0.176
		c-0.382,0-0.687-0.15-0.912-0.457c-0.191-0.256-0.286-0.545-0.286-0.865c0-0.232,0.058-0.463,0.173-0.693
		c0.116-0.23,0.268-0.4,0.457-0.51C60.031,31.217,60.23,31.16,60.441,31.16z M60.355,31.34c-0.098,0-0.196,0.029-0.295,0.088
		s-0.179,0.16-0.24,0.307c-0.061,0.146-0.092,0.334-0.092,0.562c0,0.371,0.074,0.689,0.221,0.957s0.341,0.402,0.581,0.402
		c0.179,0,0.327-0.074,0.443-0.223c0.117-0.146,0.175-0.4,0.175-0.762c0-0.451-0.097-0.807-0.291-1.064
		C60.726,31.43,60.559,31.34,60.355,31.34z"/>
	<path fill="#D13239" d="M62.793,31.701c0.184-0.186,0.293-0.291,0.327-0.318c0.083-0.07,0.172-0.125,0.269-0.164
		c0.097-0.039,0.191-0.059,0.286-0.059c0.159,0,0.296,0.047,0.411,0.139c0.114,0.092,0.19,0.227,0.23,0.402
		c0.189-0.221,0.35-0.367,0.482-0.438c0.131-0.068,0.266-0.104,0.405-0.104c0.135,0,0.254,0.035,0.359,0.104
		c0.104,0.07,0.188,0.184,0.248,0.34c0.041,0.107,0.061,0.275,0.061,0.506v1.092c0,0.158,0.012,0.268,0.036,0.326
		c0.019,0.041,0.052,0.076,0.102,0.105c0.05,0.027,0.132,0.043,0.244,0.043v0.1H65v-0.1h0.052c0.11,0,0.194-0.021,0.255-0.064
		c0.043-0.029,0.074-0.078,0.092-0.143c0.007-0.029,0.011-0.119,0.011-0.268v-1.092c0-0.207-0.024-0.354-0.075-0.438
		c-0.072-0.119-0.188-0.18-0.347-0.18c-0.098,0-0.197,0.025-0.295,0.074c-0.099,0.049-0.219,0.141-0.359,0.273l-0.005,0.031
		l0.005,0.119v1.211c0,0.174,0.01,0.281,0.029,0.324c0.02,0.043,0.056,0.078,0.11,0.107c0.053,0.027,0.145,0.043,0.274,0.043v0.1
		h-1.283v-0.1c0.141,0,0.237-0.018,0.29-0.051c0.053-0.033,0.089-0.084,0.11-0.15c0.009-0.029,0.014-0.121,0.014-0.273v-1.092
		c0-0.207-0.031-0.355-0.092-0.447c-0.081-0.117-0.195-0.176-0.341-0.176c-0.1,0-0.198,0.025-0.296,0.078
		c-0.154,0.082-0.272,0.174-0.354,0.275v1.361c0,0.166,0.011,0.273,0.034,0.324c0.023,0.051,0.057,0.088,0.103,0.113
		c0.045,0.023,0.137,0.037,0.276,0.037v0.1h-1.256v-0.1c0.117,0,0.198-0.014,0.244-0.037c0.047-0.025,0.082-0.066,0.105-0.121
		s0.036-0.158,0.036-0.316V32.23c0-0.279-0.008-0.459-0.025-0.541c-0.013-0.061-0.033-0.104-0.062-0.125
		c-0.027-0.023-0.065-0.035-0.113-0.035c-0.052,0-0.113,0.014-0.186,0.041l-0.041-0.1l0.765-0.311h0.12V31.701z"/>
	<path fill="#D13239" d="M67.208,31.701c0.185-0.186,0.294-0.291,0.327-0.318c0.083-0.07,0.172-0.125,0.269-0.164
		s0.191-0.059,0.286-0.059c0.159,0,0.296,0.047,0.411,0.139c0.114,0.092,0.191,0.227,0.23,0.402c0.19-0.221,0.351-0.367,0.482-0.438
		c0.131-0.068,0.266-0.104,0.404-0.104c0.136,0,0.255,0.035,0.359,0.104c0.104,0.07,0.187,0.184,0.248,0.34
		c0.041,0.107,0.062,0.275,0.062,0.506v1.092c0,0.158,0.011,0.268,0.036,0.326c0.019,0.041,0.053,0.076,0.103,0.105
		c0.05,0.027,0.131,0.043,0.244,0.043v0.1h-1.253v-0.1h0.052c0.109,0,0.194-0.021,0.255-0.064c0.042-0.029,0.073-0.078,0.091-0.143
		c0.007-0.029,0.011-0.119,0.011-0.268v-1.092c0-0.207-0.025-0.354-0.075-0.438c-0.072-0.119-0.188-0.18-0.347-0.18
		c-0.098,0-0.196,0.025-0.295,0.074c-0.099,0.049-0.218,0.141-0.359,0.273l-0.006,0.031l0.006,0.119v1.211
		c0,0.174,0.01,0.281,0.028,0.324c0.02,0.043,0.056,0.078,0.11,0.107c0.054,0.027,0.145,0.043,0.274,0.043v0.1H67.88v-0.1
		c0.14,0,0.237-0.018,0.29-0.051c0.052-0.033,0.089-0.084,0.109-0.15c0.009-0.029,0.014-0.121,0.014-0.273v-1.092
		c0-0.207-0.03-0.355-0.091-0.447c-0.082-0.117-0.195-0.176-0.341-0.176c-0.1,0-0.199,0.025-0.296,0.078
		c-0.154,0.082-0.271,0.174-0.355,0.275v1.361c0,0.166,0.011,0.273,0.034,0.324c0.023,0.051,0.058,0.088,0.103,0.113
		c0.045,0.023,0.137,0.037,0.276,0.037v0.1h-1.256v-0.1c0.117,0,0.198-0.014,0.244-0.037c0.046-0.025,0.082-0.066,0.105-0.121
		s0.036-0.158,0.036-0.316V32.23c0-0.279-0.008-0.459-0.025-0.541c-0.013-0.061-0.033-0.104-0.061-0.125
		c-0.028-0.023-0.065-0.035-0.114-0.035c-0.052,0-0.113,0.014-0.186,0.041l-0.042-0.1l0.765-0.311h0.12V31.701z"/>
	<path fill="#D13239" d="M73.097,31.236v1.539c0,0.293,0.008,0.473,0.021,0.537c0.014,0.066,0.035,0.113,0.066,0.139
		c0.03,0.025,0.066,0.039,0.106,0.039c0.057,0,0.122-0.018,0.193-0.049l0.04,0.098l-0.76,0.312h-0.125v-0.537
		c-0.217,0.236-0.384,0.387-0.499,0.447c-0.114,0.061-0.235,0.09-0.363,0.09c-0.142,0-0.266-0.039-0.37-0.123
		c-0.105-0.082-0.178-0.188-0.218-0.316c-0.04-0.131-0.061-0.312-0.061-0.549v-1.135c0-0.119-0.013-0.203-0.039-0.248
		c-0.026-0.047-0.064-0.084-0.116-0.107c-0.05-0.025-0.142-0.037-0.275-0.035v-0.102h0.89v1.699c0,0.236,0.042,0.391,0.123,0.465
		c0.083,0.074,0.182,0.111,0.298,0.111c0.08,0,0.17-0.025,0.271-0.076c0.1-0.049,0.22-0.145,0.358-0.285v-1.439
		c0-0.143-0.026-0.24-0.079-0.291c-0.052-0.051-0.163-0.078-0.329-0.082v-0.102H73.097z"/>
	<path fill="#D13239" d="M74.449,31.699c0.298-0.359,0.582-0.539,0.852-0.539c0.139,0,0.258,0.035,0.357,0.104
		c0.101,0.07,0.18,0.184,0.239,0.344c0.04,0.109,0.062,0.279,0.062,0.51v1.084c0,0.16,0.012,0.27,0.038,0.326
		c0.021,0.047,0.053,0.084,0.098,0.109c0.046,0.025,0.13,0.039,0.252,0.039v0.1h-1.256v-0.1h0.052c0.119,0,0.201-0.02,0.249-0.055
		c0.047-0.035,0.08-0.09,0.098-0.16c0.007-0.027,0.012-0.115,0.012-0.26v-1.039c0-0.23-0.03-0.398-0.091-0.504
		c-0.06-0.104-0.16-0.156-0.303-0.156c-0.221,0-0.439,0.121-0.658,0.361v1.338c0,0.172,0.011,0.277,0.031,0.318
		c0.025,0.055,0.062,0.094,0.106,0.119c0.046,0.023,0.138,0.037,0.276,0.037v0.1h-1.257v-0.1h0.056c0.13,0,0.217-0.033,0.263-0.1
		c0.045-0.064,0.067-0.189,0.067-0.375v-0.943c0-0.305-0.007-0.49-0.021-0.557c-0.013-0.066-0.034-0.111-0.062-0.137
		c-0.029-0.023-0.067-0.035-0.115-0.035c-0.052,0-0.114,0.014-0.187,0.041l-0.04-0.1l0.765-0.311h0.118V31.699z"/>
	<path fill="#D13239" d="M77.424,31.16v2.041c0,0.158,0.012,0.264,0.036,0.316c0.022,0.053,0.057,0.094,0.102,0.119
		c0.046,0.025,0.128,0.039,0.248,0.039v0.1h-1.234v-0.1c0.125,0,0.208-0.012,0.25-0.037c0.044-0.023,0.076-0.062,0.103-0.119
		c0.024-0.055,0.036-0.16,0.036-0.318v-0.979c0-0.275-0.008-0.455-0.024-0.535c-0.013-0.059-0.034-0.102-0.061-0.123
		c-0.029-0.023-0.066-0.035-0.114-0.035c-0.052,0-0.114,0.014-0.189,0.041l-0.038-0.1l0.765-0.311H77.424z M77.194,29.832
		c0.078,0,0.144,0.029,0.198,0.082c0.055,0.055,0.082,0.121,0.082,0.199s-0.027,0.143-0.082,0.199
		c-0.055,0.055-0.12,0.082-0.198,0.082s-0.145-0.027-0.199-0.082c-0.056-0.057-0.084-0.121-0.084-0.199s0.028-0.145,0.083-0.199
		C77.048,29.861,77.114,29.832,77.194,29.832z"/>
	<path fill="#D13239" d="M80.282,32.811c-0.068,0.334-0.202,0.592-0.402,0.771c-0.199,0.18-0.419,0.27-0.661,0.27
		c-0.289,0-0.54-0.121-0.755-0.361c-0.215-0.242-0.322-0.57-0.322-0.982c0-0.398,0.12-0.725,0.356-0.973
		c0.237-0.248,0.523-0.375,0.856-0.375c0.249,0,0.454,0.068,0.615,0.199c0.16,0.131,0.241,0.27,0.241,0.41
		c0,0.07-0.022,0.129-0.069,0.172c-0.044,0.043-0.107,0.064-0.188,0.064c-0.108,0-0.192-0.035-0.248-0.105
		c-0.03-0.037-0.052-0.111-0.061-0.221c-0.012-0.109-0.049-0.193-0.113-0.25c-0.064-0.055-0.154-0.084-0.269-0.084
		c-0.185,0-0.334,0.07-0.446,0.205c-0.15,0.182-0.225,0.42-0.225,0.719c0,0.303,0.073,0.57,0.224,0.803
		c0.147,0.232,0.349,0.348,0.602,0.348c0.183,0,0.344-0.061,0.489-0.186c0.101-0.086,0.2-0.24,0.296-0.463L80.282,32.811z"/>
	<path fill="#D13239" d="M82.084,33.408c-0.26,0.203-0.423,0.318-0.49,0.352c-0.1,0.045-0.207,0.068-0.318,0.068
		c-0.176,0-0.32-0.061-0.435-0.18c-0.114-0.121-0.17-0.279-0.17-0.475c0-0.125,0.027-0.232,0.083-0.322
		c0.076-0.125,0.208-0.244,0.396-0.355c0.187-0.109,0.499-0.244,0.935-0.404v-0.1c0-0.252-0.04-0.428-0.121-0.521
		c-0.079-0.094-0.196-0.143-0.35-0.143c-0.116,0-0.208,0.033-0.277,0.096s-0.105,0.135-0.105,0.217l0.006,0.16
		c0,0.086-0.021,0.15-0.065,0.197s-0.1,0.07-0.171,0.07c-0.068,0-0.124-0.025-0.167-0.072c-0.044-0.049-0.065-0.115-0.065-0.197
		c0-0.16,0.081-0.307,0.244-0.439c0.162-0.131,0.392-0.199,0.685-0.199c0.226,0,0.411,0.037,0.555,0.113
		c0.108,0.059,0.189,0.148,0.24,0.27c0.033,0.08,0.051,0.242,0.051,0.488v0.861c0,0.242,0.005,0.393,0.014,0.445
		c0.01,0.055,0.024,0.092,0.046,0.109c0.021,0.02,0.046,0.027,0.073,0.027c0.03,0,0.056-0.006,0.079-0.018
		c0.037-0.025,0.112-0.092,0.224-0.203v0.154c-0.207,0.279-0.405,0.416-0.594,0.416c-0.091,0-0.163-0.031-0.217-0.094
		C82.114,33.666,82.086,33.561,82.084,33.408z M82.084,33.229v-0.967c-0.278,0.109-0.459,0.189-0.54,0.234
		c-0.146,0.082-0.25,0.168-0.313,0.256s-0.094,0.186-0.094,0.291c0,0.133,0.039,0.244,0.118,0.33
		c0.08,0.088,0.172,0.133,0.275,0.133C81.671,33.506,81.855,33.414,82.084,33.229z"/>
	<path fill="#D13239" d="M83.902,30.4v0.836h0.594v0.193h-0.594v1.646c0,0.166,0.025,0.277,0.071,0.332
		c0.048,0.059,0.107,0.086,0.182,0.086c0.062,0,0.121-0.02,0.178-0.055c0.058-0.039,0.102-0.096,0.133-0.17h0.108
		c-0.064,0.182-0.156,0.318-0.275,0.41c-0.117,0.092-0.239,0.137-0.365,0.137c-0.085,0-0.168-0.023-0.249-0.07
		c-0.082-0.047-0.142-0.115-0.181-0.203c-0.038-0.088-0.058-0.223-0.058-0.406V31.43h-0.402v-0.092
		c0.103-0.041,0.206-0.109,0.312-0.207c0.105-0.096,0.2-0.211,0.283-0.344c0.043-0.07,0.103-0.199,0.178-0.387H83.902z"/>
	<path fill="#D13239" d="M85.619,31.16v2.041c0,0.158,0.013,0.264,0.035,0.316c0.023,0.053,0.058,0.094,0.103,0.119
		c0.046,0.025,0.128,0.039,0.248,0.039v0.1h-1.233v-0.1c0.124,0,0.207-0.012,0.25-0.037c0.041-0.023,0.075-0.062,0.1-0.119
		c0.025-0.055,0.039-0.16,0.039-0.318v-0.979c0-0.275-0.009-0.455-0.025-0.535c-0.014-0.059-0.033-0.102-0.062-0.123
		c-0.027-0.023-0.066-0.035-0.113-0.035c-0.052,0-0.114,0.014-0.188,0.041l-0.039-0.1l0.765-0.311H85.619z M85.39,29.832
		c0.077,0,0.143,0.029,0.197,0.082c0.056,0.055,0.083,0.121,0.083,0.199s-0.027,0.143-0.083,0.199
		c-0.055,0.055-0.12,0.082-0.197,0.082c-0.078,0-0.144-0.027-0.2-0.082c-0.055-0.057-0.083-0.121-0.083-0.199
		s0.027-0.145,0.082-0.199C85.243,29.861,85.31,29.832,85.39,29.832z"/>
	<path fill="#D13239" d="M87.563,31.16c0.384,0,0.692,0.146,0.925,0.438c0.198,0.25,0.297,0.537,0.297,0.861
		c0,0.227-0.054,0.455-0.164,0.689c-0.109,0.232-0.259,0.408-0.45,0.527c-0.191,0.117-0.403,0.176-0.639,0.176
		c-0.383,0-0.687-0.15-0.912-0.457c-0.19-0.256-0.285-0.545-0.285-0.865c0-0.232,0.058-0.463,0.173-0.693s0.269-0.4,0.457-0.51
		C87.152,31.217,87.353,31.16,87.563,31.16z M87.477,31.34c-0.098,0-0.196,0.029-0.294,0.088c-0.101,0.059-0.18,0.16-0.24,0.307
		c-0.062,0.146-0.092,0.334-0.092,0.562c0,0.371,0.073,0.689,0.221,0.957c0.146,0.268,0.34,0.402,0.58,0.402
		c0.18,0,0.327-0.074,0.443-0.223c0.117-0.146,0.176-0.4,0.176-0.762c0-0.451-0.098-0.807-0.292-1.064
		C87.847,31.43,87.681,31.34,87.477,31.34z"/>
	<path fill="#D13239" d="M89.899,31.699c0.298-0.359,0.582-0.539,0.852-0.539c0.139,0,0.258,0.035,0.358,0.104
		c0.099,0.07,0.178,0.184,0.237,0.344c0.041,0.109,0.061,0.279,0.061,0.51v1.084c0,0.16,0.013,0.27,0.039,0.326
		c0.021,0.047,0.054,0.084,0.099,0.109c0.046,0.025,0.129,0.039,0.251,0.039v0.1H90.54v-0.1h0.053c0.117,0,0.201-0.02,0.248-0.055
		s0.08-0.09,0.099-0.16c0.007-0.027,0.011-0.115,0.011-0.26v-1.039c0-0.23-0.029-0.398-0.09-0.504
		c-0.06-0.104-0.161-0.156-0.304-0.156c-0.22,0-0.438,0.121-0.657,0.361v1.338c0,0.172,0.011,0.277,0.03,0.318
		c0.026,0.055,0.062,0.094,0.107,0.119c0.046,0.023,0.137,0.037,0.275,0.037v0.1h-1.256v-0.1h0.056c0.13,0,0.217-0.033,0.262-0.1
		c0.046-0.064,0.068-0.189,0.068-0.375v-0.943c0-0.305-0.007-0.49-0.021-0.557c-0.014-0.066-0.034-0.111-0.063-0.137
		c-0.028-0.023-0.067-0.035-0.114-0.035c-0.052,0-0.114,0.014-0.187,0.041l-0.041-0.1l0.766-0.311h0.118V31.699z"/>
	<path fill="#D13239" d="M96.137,31.355h1.165v0.102c-0.161,0.014-0.279,0.049-0.356,0.107s-0.196,0.234-0.358,0.527
		c-0.163,0.295-0.346,0.568-0.549,0.822c0.163,0.193,0.311,0.328,0.439,0.404c0.13,0.076,0.26,0.115,0.391,0.115
		c0.128,0,0.236-0.035,0.325-0.104c0.089-0.07,0.152-0.172,0.188-0.307l0.103,0.074c-0.067,0.262-0.179,0.453-0.33,0.578
		c-0.15,0.123-0.327,0.186-0.528,0.186c-0.153,0-0.307-0.041-0.462-0.123c-0.157-0.084-0.326-0.223-0.511-0.418
		c-0.23,0.203-0.437,0.344-0.621,0.422s-0.38,0.119-0.589,0.119c-0.306,0-0.547-0.082-0.727-0.244s-0.269-0.357-0.269-0.582
		s0.08-0.447,0.241-0.67s0.463-0.453,0.906-0.691c-0.087-0.191-0.146-0.352-0.177-0.473c-0.032-0.123-0.047-0.24-0.047-0.354
		c0-0.316,0.116-0.559,0.348-0.725c0.182-0.129,0.388-0.193,0.619-0.193c0.22,0,0.399,0.064,0.538,0.195s0.207,0.291,0.207,0.48
		c0,0.195-0.066,0.369-0.2,0.518c-0.134,0.146-0.371,0.309-0.712,0.484c0.235,0.418,0.481,0.801,0.736,1.146
		c0.324-0.389,0.487-0.715,0.487-0.98c0-0.084-0.027-0.16-0.083-0.227c-0.041-0.051-0.1-0.082-0.176-0.09V31.355z M95.508,33.16
		c-0.243-0.334-0.413-0.576-0.507-0.73c-0.095-0.152-0.197-0.344-0.311-0.57c-0.223,0.127-0.389,0.268-0.5,0.422
		c-0.112,0.152-0.168,0.318-0.168,0.498c0,0.197,0.064,0.371,0.19,0.521c0.128,0.15,0.3,0.225,0.516,0.225
		c0.116,0,0.229-0.023,0.338-0.068C95.175,33.41,95.322,33.311,95.508,33.16z M95.079,31.428c0.228-0.109,0.4-0.234,0.514-0.373
		c0.114-0.139,0.171-0.293,0.171-0.463c0-0.133-0.042-0.242-0.125-0.33c-0.082-0.086-0.183-0.129-0.306-0.129
		c-0.161,0-0.282,0.055-0.364,0.166c-0.082,0.113-0.124,0.223-0.124,0.33c0,0.09,0.016,0.191,0.048,0.303
		C94.924,31.045,94.985,31.209,95.079,31.428z"/>
	<path fill="#D13239" d="M99.001,30.016h1.021l2.299,2.82v-2.168c0-0.232-0.026-0.377-0.078-0.434
		c-0.068-0.078-0.176-0.115-0.325-0.115h-0.13v-0.104h1.31v0.104h-0.134c-0.159,0-0.272,0.047-0.338,0.143
		c-0.041,0.059-0.062,0.195-0.062,0.406v3.168h-0.1l-2.478-3.027v2.314c0,0.232,0.024,0.375,0.074,0.434
		c0.07,0.076,0.179,0.117,0.324,0.117h0.133v0.102h-1.309v-0.102h0.131c0.16,0,0.273-0.049,0.341-0.146
		c0.041-0.059,0.061-0.193,0.061-0.404V30.51c-0.108-0.129-0.191-0.213-0.248-0.254c-0.057-0.039-0.139-0.076-0.248-0.113
		c-0.055-0.016-0.136-0.023-0.244-0.023V30.016z"/>
	<path fill="#D13239" d="M103.78,32.193c-0.002,0.375,0.091,0.672,0.274,0.885c0.186,0.215,0.403,0.322,0.652,0.322
		c0.166,0,0.311-0.045,0.434-0.137s0.227-0.248,0.31-0.469l0.085,0.055c-0.038,0.254-0.151,0.482-0.338,0.689
		c-0.187,0.211-0.42,0.312-0.701,0.312c-0.305,0-0.565-0.117-0.783-0.355s-0.326-0.557-0.326-0.957c0-0.436,0.111-0.773,0.334-1.018
		c0.223-0.242,0.502-0.363,0.839-0.363c0.285,0,0.519,0.094,0.702,0.281c0.183,0.188,0.273,0.439,0.273,0.754H103.78z
		 M103.78,32.031h1.176c-0.009-0.162-0.028-0.277-0.059-0.344c-0.045-0.104-0.114-0.186-0.206-0.244
		c-0.091-0.059-0.188-0.088-0.286-0.088c-0.155,0-0.292,0.059-0.413,0.178C103.872,31.652,103.801,31.818,103.78,32.031z"/>
	<path fill="#D13239" d="M106.611,30.4v0.836h0.593v0.193h-0.593v1.646c0,0.166,0.023,0.277,0.07,0.332
		c0.048,0.059,0.107,0.086,0.182,0.086c0.062,0,0.12-0.02,0.178-0.055c0.057-0.039,0.102-0.096,0.134-0.17h0.107
		c-0.065,0.182-0.156,0.318-0.274,0.41s-0.241,0.137-0.366,0.137c-0.085,0-0.168-0.023-0.249-0.07
		c-0.082-0.047-0.143-0.115-0.181-0.203c-0.039-0.088-0.058-0.223-0.058-0.406V31.43h-0.401v-0.092
		c0.101-0.041,0.205-0.109,0.311-0.207c0.106-0.096,0.201-0.211,0.284-0.344c0.043-0.07,0.102-0.199,0.178-0.387H106.611z"/>
	<path fill="#D13239" d="M107.311,31.236h1.063v0.102c-0.097,0.008-0.162,0.025-0.192,0.053c-0.029,0.027-0.046,0.068-0.046,0.119
		c0,0.057,0.017,0.127,0.047,0.207l0.544,1.463l0.546-1.189l-0.144-0.375c-0.045-0.111-0.104-0.188-0.175-0.23
		c-0.041-0.025-0.117-0.041-0.228-0.047v-0.102h1.208v0.102c-0.133,0.006-0.227,0.029-0.282,0.072
		c-0.037,0.029-0.056,0.076-0.056,0.141c0,0.037,0.008,0.076,0.022,0.115l0.576,1.457l0.535-1.406
		c0.037-0.098,0.055-0.178,0.055-0.236c0-0.037-0.017-0.068-0.053-0.096s-0.107-0.043-0.212-0.047v-0.102h0.802v0.102
		c-0.161,0.023-0.28,0.133-0.355,0.328l-0.849,2.186h-0.114l-0.635-1.621l-0.739,1.621h-0.104l-0.815-2.135
		c-0.053-0.135-0.105-0.225-0.157-0.271c-0.052-0.049-0.134-0.084-0.243-0.107V31.236z"/>
	<path fill="#D13239" d="M112.793,31.16c0.385,0,0.694,0.146,0.927,0.438c0.197,0.25,0.296,0.537,0.296,0.861
		c0,0.227-0.055,0.455-0.163,0.689c-0.109,0.232-0.26,0.408-0.45,0.527c-0.192,0.117-0.405,0.176-0.64,0.176
		c-0.383,0-0.687-0.15-0.912-0.457c-0.19-0.256-0.286-0.545-0.286-0.865c0-0.232,0.059-0.463,0.174-0.693
		c0.116-0.23,0.268-0.4,0.456-0.51S112.583,31.16,112.793,31.16z M112.707,31.34c-0.098,0-0.196,0.029-0.296,0.088
		c-0.098,0.059-0.178,0.16-0.238,0.307c-0.062,0.146-0.093,0.334-0.093,0.562c0,0.371,0.075,0.689,0.222,0.957
		c0.146,0.268,0.34,0.402,0.581,0.402c0.178,0,0.327-0.074,0.443-0.223c0.115-0.146,0.174-0.4,0.174-0.762
		c0-0.451-0.097-0.807-0.29-1.064C113.078,31.43,112.91,31.34,112.707,31.34z"/>
	<path fill="#D13239" d="M115.133,31.16v0.572c0.213-0.381,0.431-0.572,0.655-0.572c0.101,0,0.185,0.031,0.251,0.094
		c0.067,0.062,0.101,0.133,0.101,0.215c0,0.072-0.024,0.133-0.071,0.182c-0.05,0.051-0.106,0.076-0.173,0.076
		c-0.064,0-0.138-0.031-0.217-0.096c-0.081-0.064-0.141-0.096-0.18-0.096c-0.032,0-0.069,0.018-0.108,0.055
		c-0.083,0.076-0.169,0.201-0.258,0.375v1.217c0,0.141,0.019,0.248,0.053,0.318c0.024,0.051,0.066,0.092,0.127,0.125
		c0.062,0.033,0.15,0.051,0.265,0.051v0.1h-1.301v-0.1c0.13,0,0.226-0.021,0.289-0.061c0.045-0.031,0.078-0.078,0.097-0.143
		c0.009-0.031,0.013-0.119,0.013-0.27v-0.984c0-0.295-0.005-0.471-0.017-0.527c-0.013-0.057-0.034-0.098-0.067-0.123
		c-0.031-0.025-0.072-0.039-0.12-0.039c-0.059,0-0.123,0.014-0.194,0.041l-0.027-0.1l0.768-0.311H115.133z"/>
	<path fill="#D13239" d="M117.033,29.832v2.527l0.646-0.59c0.136-0.125,0.216-0.205,0.237-0.238
		c0.016-0.021,0.022-0.043,0.022-0.066c0-0.037-0.015-0.068-0.046-0.096c-0.029-0.025-0.08-0.041-0.149-0.045v-0.088h1.102v0.088
		c-0.151,0.004-0.276,0.027-0.377,0.07c-0.102,0.041-0.212,0.117-0.332,0.227l-0.651,0.602l0.651,0.824
		c0.182,0.225,0.304,0.371,0.366,0.432c0.089,0.086,0.166,0.143,0.232,0.17c0.046,0.018,0.127,0.027,0.241,0.027v0.1h-1.232v-0.1
		c0.069-0.002,0.117-0.014,0.142-0.033s0.038-0.047,0.038-0.08c0-0.043-0.038-0.111-0.112-0.205l-0.777-0.996v0.842
		c0,0.166,0.011,0.273,0.034,0.324c0.022,0.053,0.056,0.09,0.099,0.111s0.135,0.035,0.276,0.037v0.1h-1.292v-0.1
		c0.13,0,0.227-0.016,0.291-0.047c0.039-0.02,0.068-0.053,0.09-0.096c0.028-0.061,0.041-0.166,0.041-0.316v-2.311
		c0-0.295-0.007-0.475-0.021-0.539c-0.012-0.066-0.033-0.111-0.063-0.137c-0.028-0.025-0.068-0.037-0.115-0.037
		c-0.039,0-0.098,0.016-0.175,0.047l-0.048-0.098l0.755-0.311H117.033z"/>
	<path fill="#D13239" d="M119.996,31.16v2.041c0,0.158,0.011,0.264,0.035,0.316c0.021,0.053,0.056,0.094,0.102,0.119
		c0.045,0.025,0.128,0.039,0.249,0.039v0.1h-1.235v-0.1c0.124,0,0.209-0.012,0.25-0.037c0.043-0.023,0.077-0.062,0.102-0.119
		c0.024-0.055,0.037-0.16,0.037-0.318v-0.979c0-0.275-0.008-0.455-0.024-0.535c-0.013-0.059-0.033-0.102-0.062-0.123
		c-0.027-0.023-0.065-0.035-0.114-0.035c-0.051,0-0.114,0.014-0.188,0.041l-0.037-0.1l0.765-0.311H119.996z M119.766,29.832
		c0.077,0,0.144,0.029,0.197,0.082c0.056,0.055,0.082,0.121,0.082,0.199s-0.026,0.143-0.082,0.199
		c-0.054,0.055-0.12,0.082-0.197,0.082s-0.145-0.027-0.2-0.082c-0.055-0.057-0.083-0.121-0.083-0.199s0.027-0.145,0.082-0.199
		C119.619,29.861,119.686,29.832,119.766,29.832z"/>
	<path fill="#D13239" d="M121.438,31.699c0.297-0.359,0.581-0.539,0.852-0.539c0.139,0,0.258,0.035,0.357,0.104
		c0.1,0.07,0.179,0.184,0.237,0.344c0.041,0.109,0.062,0.279,0.062,0.51v1.084c0,0.16,0.013,0.27,0.04,0.326
		c0.02,0.047,0.053,0.084,0.098,0.109s0.128,0.039,0.251,0.039v0.1h-1.256v-0.1h0.053c0.117,0,0.201-0.02,0.247-0.055
		c0.048-0.035,0.081-0.09,0.099-0.16c0.008-0.027,0.012-0.115,0.012-0.26v-1.039c0-0.23-0.029-0.398-0.09-0.504
		c-0.061-0.104-0.162-0.156-0.304-0.156c-0.22,0-0.439,0.121-0.657,0.361v1.338c0,0.172,0.01,0.277,0.03,0.318
		c0.026,0.055,0.062,0.094,0.107,0.119c0.045,0.023,0.137,0.037,0.275,0.037v0.1h-1.256v-0.1h0.056c0.13,0,0.217-0.033,0.262-0.1
		c0.045-0.064,0.068-0.189,0.068-0.375v-0.943c0-0.305-0.007-0.49-0.021-0.557s-0.034-0.111-0.064-0.137
		c-0.027-0.023-0.066-0.035-0.113-0.035c-0.053,0-0.114,0.014-0.187,0.041l-0.042-0.1l0.766-0.311h0.119V31.699z"/>
	<path fill="#D13239" d="M124.216,32.85c-0.156-0.076-0.274-0.182-0.358-0.318c-0.083-0.135-0.125-0.287-0.125-0.449
		c0-0.254,0.096-0.469,0.285-0.65c0.189-0.18,0.432-0.271,0.728-0.271c0.242,0,0.451,0.061,0.629,0.178h0.538
		c0.079,0,0.125,0.002,0.139,0.008c0.013,0.004,0.021,0.012,0.027,0.023c0.011,0.016,0.018,0.047,0.018,0.088
		c0,0.047-0.005,0.082-0.014,0.1c-0.007,0.01-0.016,0.018-0.03,0.021c-0.014,0.006-0.061,0.01-0.14,0.01h-0.33
		c0.104,0.133,0.154,0.303,0.154,0.51c0,0.236-0.089,0.439-0.271,0.607c-0.181,0.168-0.424,0.252-0.729,0.252
		c-0.125,0-0.254-0.02-0.385-0.055c-0.081,0.07-0.136,0.131-0.166,0.184c-0.028,0.053-0.042,0.098-0.042,0.135
		c0,0.031,0.016,0.061,0.045,0.092c0.031,0.029,0.091,0.051,0.179,0.064c0.053,0.006,0.182,0.012,0.389,0.018
		c0.381,0.01,0.628,0.023,0.74,0.039c0.172,0.023,0.309,0.088,0.412,0.191c0.103,0.104,0.153,0.23,0.153,0.383
		c0,0.209-0.098,0.404-0.294,0.588c-0.288,0.27-0.664,0.404-1.128,0.404c-0.356,0-0.658-0.08-0.904-0.242
		c-0.139-0.092-0.207-0.188-0.207-0.287c0-0.045,0.009-0.09,0.03-0.133c0.031-0.068,0.096-0.164,0.194-0.285
		c0.013-0.018,0.105-0.117,0.282-0.301c-0.097-0.057-0.165-0.107-0.204-0.154c-0.04-0.045-0.059-0.096-0.059-0.152
		c0-0.064,0.025-0.141,0.078-0.229C123.904,33.131,124.025,33.008,124.216,32.85z M124.188,33.775
		c-0.087,0.094-0.152,0.182-0.197,0.262c-0.043,0.082-0.066,0.158-0.066,0.225c0,0.09,0.054,0.168,0.161,0.234
		c0.186,0.115,0.452,0.172,0.801,0.172c0.333,0,0.579-0.059,0.736-0.178c0.158-0.117,0.237-0.24,0.237-0.375
		c0-0.096-0.048-0.164-0.142-0.205c-0.097-0.039-0.286-0.064-0.57-0.072C124.731,33.828,124.411,33.807,124.188,33.775z
		 M124.697,31.293c-0.136,0-0.251,0.055-0.343,0.164c-0.094,0.109-0.139,0.277-0.139,0.502c0,0.293,0.062,0.518,0.188,0.68
		c0.096,0.121,0.218,0.182,0.365,0.182c0.14,0,0.257-0.051,0.348-0.156c0.089-0.107,0.136-0.271,0.136-0.498
		c0-0.293-0.064-0.523-0.191-0.689C124.966,31.355,124.845,31.293,124.697,31.293z"/>
	<path fill="#D13239" d="M130.22,29.93v1.301h-0.102c-0.034-0.25-0.095-0.449-0.18-0.596c-0.085-0.148-0.208-0.268-0.367-0.354
		s-0.323-0.131-0.493-0.131c-0.192,0-0.352,0.059-0.478,0.178c-0.125,0.117-0.188,0.25-0.188,0.4c0,0.113,0.039,0.219,0.118,0.312
		c0.115,0.139,0.388,0.324,0.818,0.555c0.351,0.188,0.591,0.334,0.72,0.434c0.128,0.102,0.228,0.221,0.297,0.357
		s0.103,0.279,0.103,0.428c0,0.287-0.109,0.531-0.331,0.738c-0.22,0.205-0.505,0.309-0.852,0.309c-0.11,0-0.212-0.01-0.309-0.025
		c-0.057-0.008-0.175-0.043-0.355-0.102s-0.295-0.086-0.343-0.086c-0.046,0-0.082,0.012-0.109,0.041
		c-0.027,0.027-0.047,0.086-0.06,0.172h-0.103v-1.289h0.103c0.049,0.27,0.113,0.471,0.194,0.605s0.205,0.246,0.373,0.334
		c0.167,0.088,0.35,0.133,0.55,0.133c0.231,0,0.414-0.061,0.548-0.184c0.134-0.121,0.201-0.266,0.201-0.432
		c0-0.094-0.026-0.186-0.076-0.281c-0.051-0.092-0.131-0.182-0.237-0.262c-0.072-0.057-0.269-0.174-0.591-0.354
		c-0.321-0.182-0.551-0.324-0.687-0.432s-0.239-0.225-0.309-0.355c-0.071-0.127-0.104-0.271-0.104-0.426
		c0-0.27,0.102-0.504,0.31-0.697c0.208-0.195,0.471-0.293,0.79-0.293c0.199,0,0.411,0.049,0.635,0.146
		c0.104,0.047,0.176,0.07,0.219,0.07c0.049,0,0.088-0.014,0.118-0.045c0.03-0.027,0.056-0.084,0.074-0.172H130.22z"/>
	<path fill="#D13239" d="M130.809,31.236h1.184v0.102h-0.059c-0.083,0-0.146,0.02-0.188,0.055s-0.062,0.08-0.062,0.133
		c0,0.072,0.031,0.174,0.091,0.301l0.619,1.281l0.568-1.404c0.031-0.074,0.048-0.15,0.048-0.223c0-0.035-0.008-0.059-0.021-0.076
		c-0.015-0.02-0.037-0.037-0.069-0.047c-0.031-0.012-0.087-0.02-0.165-0.02v-0.102h0.824v0.102
		c-0.068,0.008-0.121,0.021-0.157,0.045c-0.037,0.021-0.077,0.062-0.121,0.125c-0.018,0.025-0.049,0.096-0.095,0.213l-1.033,2.533
		c-0.102,0.246-0.231,0.432-0.393,0.559c-0.163,0.125-0.317,0.188-0.469,0.188c-0.107,0-0.198-0.031-0.268-0.094
		c-0.071-0.062-0.105-0.137-0.105-0.217c0-0.076,0.025-0.139,0.076-0.188c0.05-0.047,0.121-0.07,0.209-0.07
		c0.061,0,0.144,0.021,0.249,0.061c0.074,0.029,0.121,0.043,0.139,0.043c0.056,0,0.117-0.029,0.183-0.086
		c0.064-0.057,0.132-0.168,0.198-0.334l0.181-0.439l-0.912-1.916c-0.028-0.059-0.073-0.129-0.135-0.213
		c-0.046-0.064-0.084-0.109-0.112-0.131c-0.044-0.031-0.111-0.057-0.205-0.078V31.236z"/>
	<path fill="#D13239" d="M135.433,31.16v0.865h-0.092c-0.071-0.271-0.161-0.457-0.271-0.555s-0.25-0.146-0.42-0.146
		c-0.13,0-0.234,0.033-0.312,0.104c-0.08,0.068-0.121,0.143-0.121,0.227c0,0.104,0.031,0.191,0.09,0.266
		c0.057,0.076,0.173,0.156,0.349,0.242l0.405,0.197c0.375,0.182,0.563,0.424,0.563,0.723c0,0.23-0.088,0.418-0.263,0.559
		s-0.37,0.211-0.586,0.211c-0.156,0-0.333-0.027-0.532-0.082c-0.062-0.018-0.111-0.027-0.15-0.027c-0.042,0-0.076,0.023-0.099,0.072
		h-0.092v-0.906h0.092c0.051,0.258,0.149,0.453,0.295,0.584c0.147,0.131,0.311,0.197,0.492,0.197c0.127,0,0.23-0.039,0.312-0.113
		c0.08-0.074,0.121-0.164,0.121-0.27c0-0.127-0.046-0.234-0.136-0.322c-0.09-0.086-0.269-0.197-0.536-0.328
		c-0.268-0.133-0.443-0.254-0.526-0.361c-0.083-0.105-0.125-0.238-0.125-0.4c0-0.207,0.071-0.383,0.215-0.523
		s0.329-0.211,0.556-0.211c0.101,0,0.221,0.021,0.364,0.064c0.093,0.027,0.156,0.041,0.188,0.041c0.028,0,0.052-0.006,0.069-0.02
		c0.017-0.012,0.035-0.041,0.058-0.086H135.433z"/>
	<path fill="#D13239" d="M136.737,30.4v0.836h0.594v0.193h-0.594v1.646c0,0.166,0.023,0.277,0.071,0.332
		c0.048,0.059,0.107,0.086,0.182,0.086c0.062,0,0.12-0.02,0.178-0.055c0.058-0.039,0.101-0.096,0.134-0.17h0.107
		c-0.065,0.182-0.157,0.318-0.275,0.41s-0.239,0.137-0.365,0.137c-0.086,0-0.168-0.023-0.249-0.07
		c-0.082-0.047-0.142-0.115-0.181-0.203s-0.059-0.223-0.059-0.406V31.43h-0.402v-0.092c0.102-0.041,0.206-0.109,0.312-0.207
		c0.105-0.096,0.201-0.211,0.284-0.344c0.043-0.07,0.103-0.199,0.178-0.387H136.737z"/>
	<path fill="#D13239" d="M138.005,32.193c-0.001,0.375,0.09,0.672,0.274,0.885c0.185,0.215,0.401,0.322,0.651,0.322
		c0.166,0,0.311-0.045,0.435-0.137c0.123-0.092,0.225-0.248,0.308-0.469l0.087,0.055c-0.039,0.254-0.152,0.482-0.338,0.689
		c-0.187,0.211-0.421,0.312-0.701,0.312c-0.306,0-0.566-0.117-0.784-0.355c-0.217-0.238-0.324-0.557-0.324-0.957
		c0-0.436,0.11-0.773,0.333-1.018c0.223-0.242,0.502-0.363,0.839-0.363c0.284,0,0.519,0.094,0.701,0.281s0.274,0.439,0.274,0.754
		H138.005z M138.005,32.031h1.176c-0.01-0.162-0.029-0.277-0.059-0.344c-0.046-0.104-0.115-0.186-0.206-0.244
		c-0.092-0.059-0.188-0.088-0.287-0.088c-0.153,0-0.291,0.059-0.412,0.178S138.025,31.818,138.005,32.031z"/>
	<path fill="#D13239" d="M140.853,31.701c0.183-0.186,0.293-0.291,0.327-0.318c0.082-0.07,0.172-0.125,0.269-0.164
		c0.096-0.039,0.191-0.059,0.284-0.059c0.16,0,0.297,0.047,0.412,0.139c0.113,0.092,0.19,0.227,0.229,0.402
		c0.189-0.221,0.352-0.367,0.482-0.438c0.132-0.068,0.267-0.104,0.404-0.104c0.135,0,0.255,0.035,0.359,0.104
		c0.104,0.07,0.187,0.184,0.248,0.34c0.041,0.107,0.061,0.275,0.061,0.506v1.092c0,0.158,0.012,0.268,0.037,0.326
		c0.018,0.041,0.053,0.076,0.102,0.105c0.05,0.027,0.131,0.043,0.244,0.043v0.1h-1.252v-0.1h0.052c0.109,0,0.193-0.021,0.255-0.064
		c0.042-0.029,0.074-0.078,0.092-0.143c0.008-0.029,0.011-0.119,0.011-0.268v-1.092c0-0.207-0.024-0.354-0.074-0.438
		c-0.072-0.119-0.188-0.18-0.347-0.18c-0.099,0-0.197,0.025-0.295,0.074c-0.1,0.049-0.219,0.141-0.36,0.273l-0.006,0.031
		l0.006,0.119v1.211c0,0.174,0.011,0.281,0.03,0.324s0.056,0.078,0.109,0.107c0.053,0.027,0.145,0.043,0.274,0.043v0.1h-1.283v-0.1
		c0.14,0,0.237-0.018,0.289-0.051c0.053-0.033,0.09-0.084,0.109-0.15c0.009-0.029,0.014-0.121,0.014-0.273v-1.092
		c0-0.207-0.03-0.355-0.092-0.447c-0.08-0.117-0.194-0.176-0.34-0.176c-0.101,0-0.199,0.025-0.298,0.078
		c-0.152,0.082-0.271,0.174-0.354,0.275v1.361c0,0.166,0.011,0.273,0.033,0.324c0.024,0.051,0.059,0.088,0.104,0.113
		c0.045,0.023,0.137,0.037,0.275,0.037v0.1h-1.255v-0.1c0.115,0,0.197-0.014,0.242-0.037c0.047-0.025,0.083-0.066,0.106-0.121
		s0.036-0.158,0.036-0.316V32.23c0-0.279-0.009-0.459-0.025-0.541c-0.013-0.061-0.033-0.104-0.062-0.125
		c-0.027-0.023-0.064-0.035-0.113-0.035c-0.051,0-0.113,0.014-0.185,0.041l-0.042-0.1l0.765-0.311h0.12V31.701z"/>
	<path fill="#D13239" d="M146.154,31.16v0.865h-0.091c-0.069-0.271-0.16-0.457-0.27-0.555c-0.111-0.098-0.25-0.146-0.421-0.146
		c-0.129,0-0.232,0.033-0.312,0.104c-0.081,0.068-0.119,0.143-0.119,0.227c0,0.104,0.029,0.191,0.088,0.266
		c0.058,0.076,0.174,0.156,0.351,0.242l0.404,0.197c0.375,0.182,0.562,0.424,0.562,0.723c0,0.23-0.086,0.418-0.262,0.559
		c-0.174,0.141-0.369,0.211-0.586,0.211c-0.154,0-0.333-0.027-0.532-0.082c-0.061-0.018-0.111-0.027-0.149-0.027
		c-0.043,0-0.075,0.023-0.101,0.072h-0.091v-0.906h0.091c0.052,0.258,0.151,0.453,0.298,0.584c0.146,0.131,0.31,0.197,0.489,0.197
		c0.128,0,0.232-0.039,0.312-0.113c0.081-0.074,0.121-0.164,0.121-0.27c0-0.127-0.046-0.234-0.135-0.322
		c-0.089-0.086-0.269-0.197-0.536-0.328c-0.268-0.133-0.443-0.254-0.526-0.361c-0.084-0.105-0.125-0.238-0.125-0.4
		c0-0.207,0.071-0.383,0.215-0.523c0.143-0.141,0.327-0.211,0.556-0.211c0.1,0,0.221,0.021,0.363,0.064
		c0.094,0.027,0.157,0.041,0.188,0.041c0.029,0,0.052-0.006,0.069-0.02c0.017-0.012,0.036-0.041,0.058-0.086H146.154z"/>
</g>
<path fill="#D13239" d="M28.76,17.162l-3.36-3.359l-2.715,2.716l-1.795,1.795l0,0h1.25c-0.36,0.795-0.867,1.529-1.509,2.172
	c-1.308,1.307-3.045,2.068-4.895,2.141c-1.959,0.08-3.832-0.607-5.273-1.939c-1.442-1.33-2.28-3.141-2.358-5.102
	c-0.084-2.072,0.679-4.022,2.147-5.49c1.307-1.306,3.045-2.067,4.894-2.142c0.992-0.04,1.96,0.117,2.862,0.454l-4.558,4.558
	l-1.031-1.031l0,0v6.38h6.379l0,0l-1.031-1.031l4.557-4.557L24.95,10.1h0.001c0-0.001,0-0.001,0-0.001
	c1.185-1.186,1.191-3.102,0.02-4.295c-0.008-0.007-0.013-0.015-0.02-0.022c-0.014-0.014-0.029-0.025-0.043-0.039
	c-0.715-0.708-1.507-1.338-2.364-1.871C20.333,2.493,17.7,1.74,14.901,1.853c-3.516,0.142-6.662,1.62-8.967,3.926
	c-2.562,2.562-4.088,6.146-3.931,10.053c0.299,7.422,6.558,13.197,13.979,12.896c3.514-0.141,6.661-1.621,8.966-3.924
	c1.758-1.76,3.028-3.998,3.601-6.49h1.362h0.001L28.76,17.162z"/>
</svg>
