<?xml version="1.0" encoding="utf-8"?>
<!-- Generator: Adobe Illustrator 16.0.0, SVG Export Plug-In . SVG Version: 6.00 Build 0)  -->
<!DOCTYPE svg PUBLIC "-//W3C//DTD SVG 1.1//EN" "http://www.w3.org/Graphics/SVG/1.1/DTD/svg11.dtd">
<svg version="1.1" id="Layer_1" xmlns="http://www.w3.org/2000/svg" xmlns:xlink="http://www.w3.org/1999/xlink" x="0px" y="0px"
	 width="150px" height="35px" viewBox="0 0 150 35" enable-background="new 0 0 150 35" xml:space="preserve">
<g>
	<path d="M41.545,13.701h-5.239l-0.623,1.443c-0.205,0.481-0.307,0.88-0.307,1.191c0,0.416,0.167,0.723,0.503,0.919
		c0.197,0.117,0.682,0.205,1.455,0.263v0.404h-4.933v-0.404c0.532-0.079,0.969-0.3,1.312-0.661c0.343-0.361,0.766-1.106,1.269-2.236
		l5.304-11.833h0.208l5.348,12.161c0.51,1.152,0.929,1.878,1.257,2.177c0.248,0.227,0.598,0.356,1.05,0.393v0.404h-7.174v-0.404
		h0.295c0.575,0,0.98-0.079,1.214-0.239c0.161-0.117,0.241-0.285,0.241-0.504c0-0.131-0.022-0.266-0.065-0.404
		c-0.015-0.066-0.125-0.34-0.329-0.82L41.545,13.701z M41.173,12.891l-2.209-5.107l-2.275,5.107H41.173z"/>
	<path d="M62.542,12.716l-0.558,5.205H48.817v-0.404h0.492c0.43,0,0.777-0.076,1.04-0.229c0.189-0.103,0.335-0.277,0.437-0.526
		c0.08-0.174,0.121-0.633,0.121-1.377V5.63c0-0.759-0.041-1.232-0.121-1.422c-0.081-0.189-0.243-0.355-0.487-0.497
		c-0.244-0.143-0.574-0.213-0.99-0.213h-0.492V3.093h7.907v0.405h-0.646c-0.43,0-0.776,0.076-1.039,0.229
		c-0.189,0.102-0.339,0.277-0.448,0.525c-0.081,0.175-0.12,0.634-0.12,1.378v9.448c0,0.759,0.044,1.242,0.131,1.45
		c0.088,0.207,0.259,0.362,0.514,0.464c0.183,0.065,0.624,0.099,1.323,0.099h1.236c0.787,0,1.444-0.14,1.968-0.415
		c0.525-0.277,0.979-0.715,1.362-1.312s0.746-1.481,1.088-2.647H62.542z"/>
	<path d="M73.86,3.946v6.091h0.426c0.656,0,1.192-0.098,1.608-0.295c0.416-0.197,0.768-0.529,1.055-0.996
		c0.289-0.466,0.477-1.098,0.563-1.892h0.384v7.448h-0.384c-0.138-1.407-0.516-2.335-1.132-2.784
		c-0.616-0.448-1.313-0.672-2.094-0.672H73.86v4.538c0,0.759,0.042,1.231,0.126,1.422c0.084,0.188,0.248,0.355,0.492,0.497
		c0.244,0.143,0.574,0.213,0.99,0.213h0.491v0.404h-7.753v-0.404h0.493c0.43,0,0.776-0.076,1.038-0.229
		c0.19-0.103,0.335-0.277,0.438-0.526c0.081-0.174,0.121-0.633,0.121-1.377V5.63c0-0.759-0.041-1.232-0.121-1.422
		c-0.08-0.189-0.242-0.355-0.486-0.497c-0.245-0.143-0.574-0.213-0.989-0.213h-0.493V3.093h12.51v4.254h-0.448
		c-0.102-0.999-0.363-1.739-0.782-2.22c-0.418-0.481-1.025-0.82-1.82-1.017c-0.438-0.109-1.246-0.164-2.428-0.164H73.86z"/>
	<path d="M89.04,13.701h-5.238l-0.624,1.443c-0.204,0.481-0.306,0.88-0.306,1.191c0,0.416,0.168,0.723,0.503,0.919
		c0.196,0.117,0.682,0.205,1.454,0.263v0.404h-4.932v-0.404c0.531-0.079,0.969-0.3,1.312-0.661c0.342-0.361,0.765-1.106,1.269-2.236
		l5.303-11.833h0.208l5.348,12.161c0.511,1.152,0.931,1.878,1.258,2.177c0.248,0.227,0.598,0.356,1.051,0.393v0.404h-7.175v-0.404
		h0.295c0.576,0,0.981-0.079,1.214-0.239c0.161-0.117,0.241-0.285,0.241-0.504c0-0.131-0.021-0.266-0.065-0.404
		c-0.015-0.066-0.125-0.34-0.328-0.82L89.04,13.701z M88.667,12.891l-2.209-5.107l-2.273,5.107H88.667z"/>
	<path d="M102.021,10.792v4.593c0,0.759,0.041,1.231,0.125,1.422c0.084,0.188,0.247,0.355,0.493,0.497
		c0.243,0.143,0.572,0.213,0.989,0.213h0.491v0.404h-7.754v-0.404h0.492c0.431,0,0.777-0.076,1.039-0.229
		c0.189-0.103,0.335-0.277,0.438-0.526c0.081-0.174,0.12-0.633,0.12-1.377V5.63c0-0.759-0.039-1.232-0.12-1.422
		c-0.08-0.189-0.242-0.355-0.486-0.497c-0.244-0.143-0.574-0.213-0.99-0.213h-0.492V3.093h7.754v0.405h-0.491
		c-0.431,0-0.777,0.076-1.04,0.229c-0.189,0.102-0.339,0.277-0.448,0.525c-0.079,0.175-0.119,0.634-0.119,1.378V9.83h5.237V5.63
		c0-0.759-0.039-1.232-0.12-1.422c-0.081-0.189-0.244-0.355-0.492-0.497c-0.247-0.143-0.58-0.213-0.995-0.213h-0.481V3.093h7.743
		v0.405h-0.482c-0.437,0-0.782,0.076-1.038,0.229c-0.189,0.102-0.34,0.277-0.448,0.525c-0.08,0.175-0.12,0.634-0.12,1.378v9.754
		c0,0.759,0.04,1.231,0.12,1.422c0.08,0.188,0.244,0.355,0.492,0.497c0.248,0.143,0.579,0.213,0.994,0.213h0.482v0.404h-7.743
		v-0.404h0.481c0.438,0,0.783-0.076,1.039-0.229c0.189-0.103,0.339-0.277,0.448-0.526c0.081-0.174,0.12-0.633,0.12-1.377v-4.593
		H102.021z"/>
	<path d="M122.635,13.701h-5.239l-0.623,1.443c-0.204,0.481-0.306,0.88-0.306,1.191c0,0.416,0.168,0.723,0.503,0.919
		c0.197,0.117,0.682,0.205,1.454,0.263v0.404h-4.933v-0.404c0.533-0.079,0.971-0.3,1.313-0.661s0.767-1.106,1.269-2.236
		l5.303-11.833h0.208l5.348,12.161c0.511,1.152,0.93,1.878,1.259,2.177c0.247,0.227,0.597,0.356,1.049,0.393v0.404h-7.174v-0.404
		h0.295c0.577,0,0.98-0.079,1.215-0.239c0.159-0.117,0.241-0.285,0.241-0.504c0-0.131-0.023-0.266-0.066-0.404
		c-0.016-0.066-0.124-0.34-0.328-0.82L122.635,13.701z M122.263,12.891l-2.209-5.107l-2.274,5.107H122.263z"/>
	<path d="M129.786,17.921v-0.404h0.492c0.43,0,0.761-0.066,0.99-0.201c0.229-0.136,0.398-0.32,0.508-0.554
		c0.066-0.152,0.099-0.611,0.099-1.377V5.63c0-0.759-0.04-1.232-0.12-1.422c-0.081-0.189-0.243-0.355-0.486-0.497
		c-0.244-0.143-0.575-0.213-0.99-0.213h-0.492V3.093h6.639c1.771,0,3.196,0.241,4.276,0.722c1.319,0.59,2.319,1.483,3.001,2.679
		c0.683,1.195,1.023,2.548,1.023,4.057c0,1.043-0.169,2.003-0.504,2.882c-0.336,0.879-0.769,1.604-1.302,2.177
		c-0.531,0.572-1.146,1.031-1.843,1.378c-0.695,0.346-1.547,0.614-2.553,0.804c-0.446,0.087-1.146,0.13-2.1,0.13H129.786z
		 M135.44,3.935v11.571c0,0.612,0.029,0.986,0.087,1.126c0.059,0.139,0.157,0.244,0.296,0.316c0.196,0.109,0.48,0.164,0.854,0.164
		c1.217,0,2.146-0.416,2.788-1.246c0.875-1.124,1.312-2.865,1.312-5.228c0-1.903-0.299-3.423-0.896-4.56
		c-0.474-0.89-1.082-1.495-1.825-1.816C137.529,4.037,136.657,3.927,135.44,3.935z"/>
</g>
<g>
	<path fill="#D13239" d="M94.2,25.492v-0.623c-0.081,0.177-0.208,0.315-0.38,0.414c-0.166,0.092-0.35,0.139-0.552,0.139
		c-0.384,0-0.698-0.137-0.943-0.411c-0.231-0.266-0.35-0.591-0.35-0.979c0-0.384,0.124-0.695,0.371-0.938
		c0.246-0.241,0.562-0.361,0.944-0.361c0.363,0,0.662,0.175,0.896,0.524c0.054-0.153,0.124-0.306,0.211-0.458h0.546l0.212-0.006
		v0.033c-0.149,0.034-0.238,0.17-0.27,0.407c-0.01,0.054-0.014,0.234-0.014,0.542v1.44h0.562v0.276H94.2z M92.383,21.992
		c0-0.109,0.038-0.203,0.115-0.276c0.076-0.074,0.169-0.11,0.278-0.11c0.112,0,0.206,0.036,0.282,0.109
		c0.073,0.071,0.112,0.165,0.112,0.277s-0.039,0.203-0.115,0.273c-0.076,0.071-0.17,0.106-0.279,0.106
		c-0.112,0-0.206-0.035-0.28-0.106C92.421,22.195,92.383,22.104,92.383,21.992z M92.603,24.096c0,0.291,0.062,0.531,0.184,0.717
		c0.146,0.222,0.359,0.333,0.637,0.333s0.488-0.109,0.629-0.33c0.119-0.185,0.179-0.424,0.179-0.72c0-0.301-0.061-0.543-0.183-0.728
		c-0.141-0.219-0.352-0.33-0.632-0.33c-0.278,0-0.489,0.112-0.633,0.333C92.662,23.561,92.603,23.802,92.603,24.096z M93.376,21.992
		c0-0.109,0.038-0.203,0.113-0.276c0.077-0.074,0.17-0.11,0.28-0.11c0.112,0,0.206,0.036,0.28,0.109
		c0.076,0.071,0.113,0.165,0.113,0.277s-0.037,0.203-0.115,0.273c-0.075,0.071-0.168,0.106-0.278,0.106
		c-0.112,0-0.205-0.035-0.281-0.106C93.413,22.195,93.376,22.104,93.376,21.992z"/>
	<path fill="#D13239" d="M97.29,25.216h0.465v0.276h-2.41v-0.276h1.301v-1.643c0-0.2-0.011-0.33-0.032-0.394
		c-0.043-0.124-0.141-0.188-0.296-0.198v-0.044c0.385-0.049,0.723-0.12,1.009-0.212c-0.025,0.347-0.036,0.709-0.036,1.084V25.216z
		 M95.576,26.182c0-0.11,0.039-0.202,0.114-0.277c0.077-0.076,0.17-0.113,0.28-0.113c0.111,0,0.206,0.037,0.28,0.112
		c0.076,0.073,0.113,0.166,0.113,0.278c0,0.11-0.038,0.2-0.114,0.273c-0.076,0.071-0.17,0.107-0.279,0.107
		c-0.113,0-0.206-0.036-0.281-0.106C95.615,26.385,95.576,26.294,95.576,26.182z M96.484,26.182c0-0.11,0.039-0.202,0.115-0.277
		c0.077-0.076,0.17-0.113,0.279-0.113c0.112,0,0.206,0.037,0.281,0.112c0.075,0.073,0.112,0.166,0.112,0.278
		c0,0.11-0.037,0.2-0.114,0.273c-0.075,0.071-0.169,0.107-0.279,0.107c-0.111,0-0.205-0.036-0.281-0.106
		C96.522,26.385,96.484,26.294,96.484,26.182z"/>
	<path fill="#D13239" d="M100.995,22.551l-0.233,0.538h-0.037c-0.137-0.566-0.546-0.851-1.228-0.851
		c-0.216,0-0.403,0.101-0.562,0.303c-0.147,0.189-0.222,0.396-0.222,0.614c0,0.364,0.3,0.547,0.898,0.547h2.083
		c0.615,0,0.919,0.319,0.912,0.962c-0.006,0.448,0.125,0.715,0.387,0.801l-0.003,0.027h-5.338v-0.276h4.59
		c-0.188-0.163-0.281-0.336-0.281-0.519v-0.296c0-0.284-0.256-0.428-0.765-0.428H99.46c-0.915,0-1.373-0.249-1.373-0.746
		c0-0.348,0.142-0.627,0.428-0.835c0.254-0.186,0.56-0.279,0.919-0.279C99.97,22.113,100.489,22.259,100.995,22.551z"/>
	<path fill="#D13239" d="M105.984,25.216h0.832v0.276h-2.965c-0.197,0-0.312-0.148-0.344-0.448c0.104,0.114,0.207,0.172,0.307,0.172
		h1.356c0.376,0,0.585-0.26,0.626-0.777c-0.027-0.351-0.108-0.673-0.246-0.969c-0.182-0.401-0.419-0.603-0.714-0.603
		c-0.094,0-0.19,0.034-0.29,0.104c-0.101,0.07-0.171,0.147-0.212,0.235c-0.044,0.097-0.066,0.204-0.066,0.322
		c0,0.137,0.024,0.236,0.07,0.297c0.086,0.111,0.131,0.171,0.136,0.178c-0.01,0.012-0.047,0.021-0.111,0.027
		c-0.083-0.003-0.159-0.004-0.229-0.004c-0.119,0-0.322,0.008-0.609,0.021v-0.045c0.104-0.028,0.174-0.07,0.211-0.125
		c0.038-0.053,0.059-0.135,0.059-0.245V23.51c0-0.101-0.004-0.202-0.011-0.306c0.291-0.297,0.651-0.445,1.08-0.445
		c0.425,0,0.787,0.171,1.09,0.512c0.294,0.328,0.441,0.705,0.441,1.131C106.396,24.737,106.258,25.009,105.984,25.216z
		 M104.407,21.932c0-0.112,0.037-0.205,0.114-0.279c0.075-0.075,0.168-0.111,0.278-0.111c0.113,0,0.207,0.036,0.281,0.111
		c0.075,0.074,0.113,0.167,0.113,0.279c0,0.109-0.038,0.201-0.114,0.271c-0.077,0.073-0.17,0.108-0.28,0.108
		c-0.111,0-0.205-0.035-0.28-0.105S104.407,22.043,104.407,21.932z"/>
	<path fill="#D13239" d="M106.731,25.216h0.785c-0.167-0.094-0.25-0.294-0.25-0.603v-3.079c0-0.195-0.01-0.321-0.03-0.38
		c-0.04-0.119-0.134-0.184-0.282-0.191v-0.045c0.258-0.021,0.548-0.092,0.872-0.208c-0.021,0.316-0.031,0.676-0.031,1.076v2.581
		c0,0.257,0.014,0.467,0.041,0.63c0.04,0.253,0.145,0.418,0.312,0.495h-1.416V25.216z"/>
	<path fill="#D13239" d="M108.549,25.508l-0.003-0.043c0.187-0.054,0.301-0.205,0.343-0.454c0.016-0.081,0.023-0.288,0.023-0.623
		v-2.854c0-0.195-0.01-0.321-0.03-0.38c-0.039-0.119-0.135-0.184-0.285-0.191v-0.045c0.26-0.021,0.552-0.092,0.874-0.208
		c-0.021,0.316-0.028,0.676-0.026,1.076v2.581c0.019,0.362,0.03,0.572,0.037,0.634c0.04,0.26,0.153,0.414,0.339,0.464v0.043
		c-0.212-0.011-0.419-0.016-0.618-0.016C108.941,25.492,108.725,25.497,108.549,25.508z"/>
	<path fill="#D13239" d="M113.254,25.492v-0.623c-0.081,0.177-0.207,0.315-0.38,0.414c-0.166,0.092-0.351,0.139-0.553,0.139
		c-0.383,0-0.697-0.137-0.942-0.411c-0.233-0.266-0.35-0.591-0.35-0.979c0-0.384,0.123-0.695,0.369-0.938
		c0.248-0.241,0.562-0.361,0.947-0.361c0.363,0,0.661,0.175,0.895,0.524c0.054-0.153,0.125-0.306,0.211-0.458h0.546l0.212-0.006
		v0.033c-0.148,0.034-0.237,0.17-0.269,0.407c-0.009,0.054-0.014,0.234-0.014,0.542v1.44h0.562v0.276H113.254z M111.437,21.992
		c0-0.109,0.038-0.203,0.114-0.276c0.076-0.074,0.17-0.11,0.28-0.11c0.111,0,0.205,0.036,0.28,0.109
		c0.075,0.071,0.112,0.165,0.112,0.277s-0.038,0.203-0.113,0.273c-0.077,0.071-0.171,0.106-0.279,0.106
		c-0.113,0-0.207-0.035-0.281-0.106C111.474,22.195,111.437,22.104,111.437,21.992z M111.654,24.096
		c0,0.291,0.062,0.531,0.186,0.717c0.146,0.222,0.358,0.333,0.636,0.333c0.279,0,0.488-0.109,0.63-0.33
		c0.119-0.185,0.178-0.424,0.178-0.72c0-0.301-0.06-0.543-0.182-0.728c-0.141-0.219-0.353-0.33-0.632-0.33
		c-0.278,0-0.489,0.112-0.633,0.333C111.716,23.561,111.654,23.802,111.654,24.096z M112.43,21.992c0-0.109,0.037-0.203,0.114-0.276
		c0.075-0.074,0.169-0.11,0.279-0.11c0.112,0,0.205,0.036,0.28,0.109c0.076,0.071,0.113,0.165,0.113,0.277s-0.038,0.203-0.115,0.273
		c-0.075,0.071-0.17,0.106-0.278,0.106c-0.112,0-0.206-0.035-0.282-0.106C112.467,22.195,112.43,22.104,112.43,21.992z"/>
	<path fill="#D13239" d="M117.682,25.216h0.559v0.276h-0.724c-0.04,0.052-0.083,0.101-0.131,0.145c-0.27,0.254-0.623,0.38-1.06,0.38
		c-0.427,0-0.772-0.127-1.036-0.384c-0.048-0.044-0.09-0.092-0.128-0.141h-0.765v-0.276H115c-0.074-0.176-0.111-0.371-0.111-0.585
		c0-0.408,0.143-0.737,0.428-0.987c0.269-0.234,0.611-0.353,1.026-0.353c0.422,0,0.765,0.12,1.029,0.363
		c0.276,0.252,0.414,0.585,0.414,1C117.786,24.862,117.752,25.049,117.682,25.216z M115.502,24.644c0,0.347,0.056,0.631,0.168,0.849
		c0.144,0.287,0.371,0.43,0.687,0.43c0.307,0,0.532-0.143,0.672-0.43c0.111-0.218,0.166-0.5,0.166-0.845
		c0-0.348-0.055-0.628-0.166-0.842c-0.146-0.283-0.375-0.424-0.689-0.424c-0.303,0-0.525,0.143-0.669,0.428
		C115.558,24.031,115.502,24.31,115.502,24.644z"/>
	<path fill="#D13239" d="M118.153,25.492v-0.276h0.548v-3.772c0-0.172-0.012-0.289-0.036-0.351c-0.04-0.103-0.133-0.158-0.276-0.168
		v-0.047c0.242-0.028,0.512-0.097,0.807-0.202v2.958c0.184-0.605,0.574-0.908,1.176-0.908c0.424,0,0.729,0.129,0.915,0.387
		c0.159,0.221,0.24,0.552,0.24,0.996v0.245c0,0.451,0.022,0.738,0.069,0.862h0.4v0.276H118.153z M121.091,25.216
		c-0.062-0.076-0.102-0.17-0.115-0.282v-0.777c0-0.356-0.043-0.622-0.13-0.795c-0.122-0.233-0.34-0.36-0.656-0.383
		c-0.48,0.031-0.774,0.327-0.883,0.889c-0.032,0.174-0.05,0.624-0.05,1.349H121.091z M119.7,21.901c0-0.11,0.039-0.202,0.115-0.275
		c0.076-0.075,0.171-0.112,0.283-0.112c0.111,0,0.205,0.037,0.281,0.11c0.075,0.072,0.112,0.165,0.112,0.277
		s-0.038,0.203-0.115,0.274c-0.075,0.07-0.169,0.105-0.278,0.105c-0.112,0-0.207-0.035-0.283-0.105
		C119.739,22.104,119.7,22.014,119.7,21.901z"/>
	<path fill="#D13239" d="M121.908,25.216h1.407c-0.11-0.112-0.181-0.234-0.212-0.367c-0.02-0.087-0.03-0.248-0.03-0.481v-0.794
		c0-0.2-0.012-0.33-0.034-0.394c-0.042-0.124-0.141-0.188-0.295-0.198v-0.044c0.385-0.049,0.721-0.12,1.009-0.212
		c-0.025,0.347-0.037,0.709-0.037,1.084v0.458c0,0.372,0.008,0.599,0.023,0.682c0.045,0.281,0.166,0.453,0.363,0.516l-0.004,0.027
		h-2.19V25.216z M122.07,21.984c0-0.109,0.038-0.202,0.114-0.276c0.076-0.076,0.169-0.113,0.279-0.113
		c0.112,0,0.207,0.037,0.283,0.111s0.113,0.167,0.113,0.278c0,0.11-0.037,0.202-0.113,0.273c-0.076,0.072-0.171,0.108-0.283,0.108
		c-0.11,0-0.203-0.035-0.279-0.107C122.108,22.188,122.07,22.098,122.07,21.984z"/>
	<path fill="#D13239" d="M125.749,25.817c-0.567-0.324-0.853-0.771-0.853-1.342v-2.42c0-0.195-0.009-0.322-0.029-0.38
		c-0.041-0.116-0.136-0.18-0.286-0.189v-0.043c0.259-0.022,0.552-0.093,0.874-0.212c-0.022,0.325-0.031,0.686-0.026,1.08v2.167
		C125.442,24.979,125.549,25.426,125.749,25.817z M124.675,21.007v-0.098h0.142c-0.085-0.062-0.129-0.136-0.129-0.223
		c0-0.093,0.045-0.163,0.132-0.213c0.074-0.04,0.161-0.061,0.26-0.061c0.107,0,0.202,0.021,0.282,0.061l-0.037,0.151l-0.014-0.003
		c-0.04-0.116-0.112-0.174-0.216-0.174c-0.068,0-0.131,0.022-0.187,0.069c-0.055,0.047-0.082,0.104-0.082,0.169
		c0,0.078,0.05,0.152,0.148,0.223h0.35c0.026,0,0.054-0.012,0.08-0.035c-0.008,0.089-0.04,0.133-0.094,0.133H124.675z
		 M126.563,25.216h0.483v0.276h-0.592c-0.044,0.091-0.099,0.176-0.162,0.253c-0.197,0.248-0.526,0.372-0.989,0.372
		c-0.075,0-0.158-0.004-0.246-0.01c-0.063-0.004-0.156-0.015-0.278-0.03l0.182-0.581h0.033c0.029,0.134,0.093,0.247,0.188,0.339
		c0.07,0.068,0.174,0.102,0.313,0.102c0.05,0,0.104-0.005,0.168-0.015c0.192-0.028,0.325-0.188,0.396-0.48
		c0.052-0.211,0.073-0.501,0.061-0.868v-2.962c0-0.239-0.016-0.384-0.05-0.43c-0.038-0.146-0.137-0.224-0.297-0.232v-0.044
		c0.259-0.034,0.548-0.104,0.868-0.208v3.88C126.643,24.812,126.616,25.025,126.563,25.216z"/>
	<path fill="#D13239" d="M126.95,25.216h0.783c-0.166-0.094-0.249-0.294-0.249-0.603v-3.079c0-0.195-0.01-0.321-0.03-0.38
		c-0.04-0.119-0.134-0.184-0.282-0.191v-0.045c0.258-0.021,0.548-0.092,0.871-0.208c-0.02,0.316-0.03,0.676-0.03,1.076v2.581
		c0,0.257,0.015,0.467,0.04,0.63c0.041,0.253,0.145,0.418,0.313,0.495h-1.416V25.216z"/>
	<path fill="#D13239" d="M132.021,25.216h0.832v0.276h-2.966c-0.197,0-0.312-0.148-0.343-0.448c0.105,0.114,0.208,0.172,0.307,0.172
		h1.355c0.377,0,0.585-0.26,0.626-0.777c-0.026-0.351-0.109-0.673-0.245-0.969c-0.183-0.401-0.419-0.603-0.714-0.603
		c-0.093,0-0.19,0.034-0.29,0.104c-0.101,0.07-0.171,0.147-0.211,0.235c-0.045,0.097-0.067,0.204-0.067,0.322
		c0,0.137,0.023,0.236,0.07,0.297c0.086,0.111,0.13,0.171,0.135,0.178c-0.01,0.012-0.046,0.021-0.111,0.027
		c-0.082-0.003-0.159-0.004-0.228-0.004c-0.12,0-0.322,0.008-0.609,0.021v-0.045c0.103-0.028,0.173-0.07,0.212-0.125
		c0.038-0.053,0.057-0.135,0.057-0.245V23.51c0-0.101-0.003-0.202-0.009-0.306c0.291-0.297,0.651-0.445,1.079-0.445
		c0.424,0,0.787,0.171,1.09,0.512c0.294,0.328,0.441,0.705,0.441,1.131C132.432,24.737,132.294,25.009,132.021,25.216z"/>
	<path fill="#D13239" d="M137.297,25.216h0.775v0.276h-5.304v-0.276h1.097c-0.346-0.223-0.52-0.535-0.52-0.939
		c0-0.343,0.141-0.619,0.419-0.83c0.243-0.185,0.546-0.287,0.904-0.307l-0.047-0.583c0.216-0.07,0.448-0.111,0.701-0.117
		c0.249-0.004,0.494,0.027,0.739,0.095c0.482,0.134,0.895,0.384,1.238,0.75c0.285,0.308,0.428,0.645,0.428,1.014
		c0,0.073-0.007,0.148-0.017,0.225C137.665,24.826,137.526,25.056,137.297,25.216z M134.303,25.216h1.01
		c0.226-0.182,0.339-0.489,0.339-0.922c0-0.685-0.261-1.043-0.784-1.077c-0.044,0.088-0.082,0.188-0.113,0.299l-0.055-0.009
		l-0.021-0.283c-0.25,0.029-0.438,0.155-0.562,0.377c-0.104,0.182-0.155,0.41-0.155,0.687
		C133.962,24.727,134.076,25.037,134.303,25.216z M135.732,25.212c0.365-0.011,0.63-0.062,0.795-0.15
		c0.186-0.104,0.319-0.226,0.4-0.364c0.065-0.114,0.097-0.283,0.097-0.508c0-0.052-0.002-0.108-0.007-0.169
		c-0.018-0.314-0.107-0.591-0.269-0.823c-0.175-0.247-0.409-0.41-0.703-0.492c-0.11-0.031-0.215-0.047-0.316-0.047
		c-0.353,0-0.625,0.161-0.817,0.481c0.367,0.018,0.673,0.119,0.919,0.307c0.274,0.211,0.413,0.493,0.413,0.848
		C136.244,24.688,136.074,24.994,135.732,25.212z"/>
	<path fill="#D13239" d="M138.445,24.078c0-0.408,0.142-0.736,0.427-0.985c0.27-0.236,0.612-0.353,1.027-0.353
		c0.42,0,0.765,0.121,1.028,0.365c0.276,0.25,0.415,0.581,0.415,0.996c0,0.404-0.135,0.733-0.401,0.986
		c-0.052,0.048-0.106,0.09-0.165,0.128h0.953v0.276h-3.749v-0.276h1.029c-0.061-0.04-0.116-0.086-0.168-0.138
		C138.577,24.822,138.445,24.488,138.445,24.078z M139.057,24.092c0,0.545,0.127,0.92,0.382,1.124h0.935
		c0.249-0.207,0.374-0.58,0.374-1.12c0-0.346-0.055-0.626-0.166-0.841c-0.144-0.283-0.371-0.425-0.686-0.425
		c-0.303,0-0.527,0.143-0.674,0.427C139.112,23.479,139.057,23.758,139.057,24.092z M139.453,21.831c0-0.11,0.04-0.203,0.115-0.276
		c0.077-0.074,0.17-0.111,0.279-0.111c0.112,0,0.207,0.036,0.283,0.109c0.077,0.073,0.115,0.166,0.115,0.278
		c0,0.108-0.038,0.2-0.115,0.271c-0.076,0.073-0.171,0.107-0.283,0.107c-0.111,0-0.205-0.034-0.28-0.105
		C139.492,22.034,139.453,21.942,139.453,21.831z"/>
	<path fill="#D13239" d="M141.641,25.216h0.785c-0.167-0.094-0.249-0.294-0.249-0.603v-3.079c0-0.195-0.011-0.321-0.03-0.38
		c-0.04-0.119-0.135-0.184-0.283-0.191v-0.045c0.259-0.021,0.549-0.092,0.872-0.208c-0.021,0.316-0.03,0.676-0.03,1.076v2.581
		c0,0.257,0.013,0.467,0.041,0.63c0.04,0.253,0.145,0.418,0.312,0.495h-1.418V25.216z"/>
	<path fill="#D13239" d="M143.459,25.508l-0.003-0.043c0.186-0.054,0.301-0.205,0.342-0.454c0.017-0.081,0.024-0.288,0.024-0.623
		v-2.854c0-0.195-0.01-0.321-0.03-0.38c-0.04-0.119-0.136-0.184-0.285-0.191v-0.045c0.26-0.021,0.551-0.092,0.875-0.208
		c-0.021,0.316-0.03,0.676-0.027,1.076v2.581c0.019,0.362,0.03,0.572,0.036,0.634c0.041,0.26,0.153,0.414,0.341,0.464v0.043
		c-0.213-0.011-0.42-0.016-0.619-0.016C143.852,25.492,143.634,25.497,143.459,25.508z"/>
</g>
<g>
	<path fill="#D13239" d="M35.048,24.212h-1.5l-0.263,0.611c-0.065,0.15-0.097,0.263-0.097,0.337c0,0.059,0.028,0.11,0.084,0.155
		s0.177,0.074,0.364,0.087v0.105h-1.22v-0.105c0.162-0.027,0.267-0.065,0.314-0.11c0.097-0.093,0.206-0.277,0.323-0.559l1.364-3.189
		h0.1l1.349,3.225c0.109,0.259,0.208,0.426,0.297,0.504c0.088,0.077,0.211,0.121,0.37,0.13v0.105h-1.529v-0.105
		c0.154-0.008,0.259-0.033,0.313-0.076c0.054-0.044,0.082-0.098,0.082-0.161c0-0.083-0.039-0.217-0.115-0.396L35.048,24.212z
		 M34.969,24l-0.658-1.567L33.636,24H34.969z"/>
	<path fill="#D13239" d="M37.681,21.443v3.474c0,0.164,0.012,0.272,0.036,0.325c0.023,0.053,0.06,0.095,0.109,0.122
		c0.05,0.028,0.142,0.041,0.278,0.041v0.103H36.82v-0.103c0.121,0,0.203-0.012,0.246-0.037c0.044-0.024,0.078-0.065,0.103-0.123
		c0.024-0.057,0.037-0.166,0.037-0.328v-2.378c0-0.296-0.006-0.478-0.02-0.545c-0.013-0.067-0.034-0.114-0.064-0.139
		c-0.03-0.024-0.067-0.037-0.113-0.037c-0.049,0-0.112,0.016-0.189,0.046l-0.048-0.101l0.78-0.32H37.681z"/>
	<path fill="#D13239" d="M40.885,21.844v1.523h0.707c0.162,0,0.28-0.035,0.355-0.107c0.075-0.07,0.125-0.212,0.15-0.423h0.106v1.312
		h-0.106c-0.002-0.151-0.021-0.262-0.059-0.332c-0.037-0.07-0.089-0.124-0.154-0.158c-0.066-0.035-0.164-0.053-0.292-0.053h-0.707
		v1.218c0,0.195,0.013,0.325,0.038,0.388c0.019,0.048,0.059,0.088,0.12,0.124c0.084,0.045,0.171,0.067,0.263,0.067h0.14v0.105
		h-1.664v-0.105h0.137c0.161,0,0.276-0.046,0.349-0.139c0.046-0.062,0.068-0.208,0.068-0.44v-2.505c0-0.196-0.013-0.326-0.038-0.389
		c-0.019-0.047-0.057-0.089-0.117-0.122c-0.082-0.046-0.169-0.069-0.263-0.069h-0.137v-0.106h2.884l0.037,0.853h-0.1
		c-0.05-0.182-0.107-0.313-0.173-0.398c-0.066-0.085-0.147-0.147-0.243-0.185c-0.096-0.038-0.245-0.058-0.447-0.058H40.885z"/>
	<path fill="#D13239" d="M44.609,25.132c-0.269,0.208-0.438,0.326-0.506,0.36c-0.103,0.047-0.212,0.07-0.329,0.07
		c-0.181,0-0.33-0.062-0.447-0.186c-0.117-0.124-0.176-0.287-0.176-0.489c0-0.127,0.028-0.237,0.085-0.331
		c0.078-0.129,0.214-0.252,0.407-0.366c0.193-0.114,0.516-0.253,0.965-0.417v-0.103c0-0.262-0.042-0.44-0.124-0.537
		c-0.083-0.098-0.204-0.146-0.362-0.146c-0.12,0-0.215,0.032-0.286,0.098c-0.073,0.064-0.108,0.14-0.108,0.223l0.005,0.165
		c0,0.089-0.022,0.156-0.067,0.203c-0.045,0.048-0.104,0.072-0.176,0.072c-0.071,0-0.128-0.025-0.173-0.074
		c-0.045-0.05-0.068-0.117-0.068-0.203c0-0.163,0.084-0.315,0.251-0.452c0.168-0.137,0.404-0.206,0.707-0.206
		c0.233,0,0.423,0.039,0.571,0.118c0.113,0.059,0.196,0.151,0.249,0.276c0.034,0.083,0.051,0.25,0.051,0.504v0.888
		c0,0.25,0.005,0.403,0.014,0.46c0.01,0.056,0.026,0.093,0.047,0.112c0.021,0.021,0.047,0.028,0.076,0.028
		c0.031,0,0.057-0.007,0.081-0.02c0.04-0.025,0.117-0.094,0.231-0.208v0.16c-0.213,0.285-0.417,0.428-0.611,0.428
		c-0.093,0-0.168-0.032-0.223-0.098C44.64,25.397,44.611,25.288,44.609,25.132z M44.609,24.945v-0.997
		c-0.288,0.114-0.474,0.194-0.557,0.242c-0.15,0.084-0.259,0.173-0.323,0.264c-0.065,0.091-0.098,0.191-0.098,0.301
		c0,0.135,0.042,0.25,0.124,0.34c0.081,0.091,0.176,0.137,0.282,0.137C44.182,25.231,44.373,25.137,44.609,24.945z"/>
	<path fill="#D13239" d="M46.493,21.443v1.916c0.211-0.233,0.379-0.382,0.502-0.448c0.124-0.065,0.248-0.099,0.372-0.099
		c0.148,0,0.276,0.041,0.383,0.124c0.106,0.081,0.185,0.21,0.237,0.385c0.037,0.123,0.055,0.345,0.055,0.669v0.927
		c0,0.166,0.014,0.278,0.041,0.34c0.019,0.046,0.051,0.083,0.097,0.108c0.045,0.027,0.13,0.04,0.251,0.04v0.103h-1.287v-0.103h0.061
		c0.122,0,0.207-0.018,0.254-0.056c0.047-0.037,0.081-0.092,0.1-0.164c0.006-0.031,0.009-0.12,0.009-0.269V23.99
		c0-0.284-0.016-0.474-0.045-0.562c-0.029-0.09-0.076-0.157-0.141-0.201c-0.065-0.045-0.143-0.068-0.234-0.068
		c-0.093,0-0.19,0.025-0.292,0.075s-0.222,0.149-0.363,0.3v1.384c0,0.179,0.01,0.29,0.03,0.333c0.02,0.045,0.057,0.082,0.111,0.11
		c0.055,0.031,0.149,0.045,0.282,0.045v0.103h-1.298v-0.103c0.117,0,0.208-0.018,0.275-0.055c0.038-0.019,0.068-0.056,0.091-0.108
		s0.035-0.161,0.035-0.325v-2.37c0-0.299-0.007-0.482-0.022-0.552c-0.014-0.067-0.036-0.115-0.065-0.14
		c-0.03-0.024-0.069-0.037-0.119-0.037c-0.04,0-0.105,0.016-0.195,0.046l-0.04-0.101l0.783-0.32H46.493z"/>
	<path fill="#D13239" d="M50.134,25.132c-0.269,0.208-0.438,0.326-0.506,0.36c-0.103,0.047-0.213,0.07-0.329,0.07
		c-0.181,0-0.33-0.062-0.447-0.186c-0.118-0.124-0.176-0.287-0.176-0.489c0-0.127,0.029-0.237,0.086-0.331
		c0.079-0.129,0.214-0.252,0.407-0.366s0.516-0.253,0.965-0.417v-0.103c0-0.262-0.042-0.44-0.124-0.537
		c-0.083-0.098-0.204-0.146-0.362-0.146c-0.121,0-0.215,0.032-0.286,0.098c-0.072,0.064-0.108,0.14-0.108,0.223l0.005,0.165
		c0,0.089-0.022,0.156-0.067,0.203c-0.044,0.048-0.104,0.072-0.175,0.072c-0.071,0-0.128-0.025-0.173-0.074
		c-0.045-0.05-0.068-0.117-0.068-0.203c0-0.163,0.084-0.315,0.251-0.452c0.168-0.137,0.403-0.206,0.707-0.206
		c0.232,0,0.423,0.039,0.571,0.118c0.113,0.059,0.196,0.151,0.249,0.276c0.035,0.083,0.052,0.25,0.052,0.504v0.888
		c0,0.25,0.005,0.403,0.014,0.46c0.009,0.056,0.025,0.093,0.047,0.112c0.022,0.021,0.048,0.028,0.076,0.028
		c0.031,0,0.057-0.007,0.08-0.02c0.04-0.025,0.117-0.094,0.231-0.208v0.16c-0.213,0.285-0.417,0.428-0.612,0.428
		c-0.093,0-0.167-0.032-0.223-0.098C50.165,25.397,50.136,25.288,50.134,25.132z M50.134,24.945v-0.997
		c-0.288,0.114-0.473,0.194-0.557,0.242c-0.15,0.084-0.259,0.173-0.323,0.264s-0.097,0.191-0.097,0.301
		c0,0.135,0.041,0.25,0.123,0.34c0.082,0.091,0.177,0.137,0.283,0.137C49.708,25.231,49.898,25.137,50.134,24.945z"/>
	<path fill="#D13239" d="M53.098,25.214c-0.127,0.133-0.252,0.23-0.375,0.287c-0.122,0.058-0.253,0.088-0.394,0.088
		c-0.286,0-0.536-0.12-0.749-0.359c-0.214-0.239-0.32-0.547-0.32-0.921c0-0.377,0.118-0.72,0.354-1.032
		c0.235-0.311,0.54-0.466,0.911-0.466c0.23,0,0.421,0.073,0.572,0.221v-0.484c0-0.299-0.007-0.482-0.021-0.552
		c-0.014-0.067-0.036-0.115-0.067-0.14s-0.068-0.037-0.115-0.037c-0.049,0-0.115,0.016-0.197,0.046l-0.037-0.101l0.78-0.32h0.128
		v3.028c0,0.307,0.007,0.494,0.022,0.561c0.014,0.067,0.037,0.114,0.068,0.142c0.031,0.027,0.069,0.04,0.111,0.04
		c0.051,0,0.12-0.016,0.206-0.049l0.032,0.101l-0.778,0.323h-0.132V25.214z M53.098,25.015v-1.351
		c-0.011-0.129-0.046-0.247-0.103-0.354c-0.057-0.106-0.132-0.188-0.227-0.242c-0.094-0.054-0.187-0.081-0.276-0.081
		c-0.167,0-0.317,0.075-0.449,0.226c-0.173,0.198-0.26,0.489-0.26,0.869c0,0.386,0.084,0.68,0.251,0.885
		c0.168,0.205,0.354,0.308,0.561,0.308C52.768,25.274,52.937,25.188,53.098,25.015z"/>
	<path fill="#D13239" d="M58.14,21.544v1.341h-0.105c-0.034-0.258-0.096-0.462-0.185-0.614c-0.089-0.153-0.215-0.274-0.378-0.363
		c-0.164-0.09-0.333-0.135-0.509-0.135c-0.198,0-0.362,0.06-0.492,0.182c-0.13,0.121-0.194,0.259-0.194,0.413
		c0,0.119,0.041,0.227,0.123,0.323c0.118,0.144,0.399,0.333,0.843,0.571c0.361,0.195,0.609,0.344,0.741,0.448
		c0.132,0.104,0.234,0.225,0.306,0.366c0.071,0.142,0.107,0.289,0.107,0.443c0,0.294-0.113,0.547-0.341,0.759
		c-0.228,0.213-0.521,0.318-0.879,0.318c-0.112,0-0.218-0.008-0.317-0.025c-0.059-0.01-0.181-0.044-0.367-0.104
		c-0.186-0.062-0.304-0.091-0.353-0.091c-0.048,0-0.085,0.015-0.113,0.043c-0.027,0.027-0.048,0.087-0.061,0.177h-0.106v-1.328
		h0.106c0.049,0.278,0.116,0.486,0.199,0.624c0.084,0.139,0.212,0.253,0.385,0.345s0.361,0.138,0.567,0.138
		c0.238,0,0.426-0.063,0.564-0.189s0.207-0.274,0.207-0.446c0-0.096-0.026-0.191-0.079-0.289c-0.053-0.097-0.134-0.187-0.244-0.271
		c-0.075-0.057-0.277-0.179-0.608-0.363c-0.332-0.187-0.568-0.335-0.708-0.445c-0.141-0.11-0.247-0.231-0.319-0.366
		c-0.072-0.133-0.109-0.279-0.109-0.44c0-0.276,0.107-0.517,0.321-0.718c0.213-0.201,0.485-0.302,0.815-0.302
		c0.206,0,0.423,0.051,0.654,0.151c0.106,0.048,0.182,0.072,0.225,0.072c0.05,0,0.09-0.016,0.122-0.044
		c0.031-0.03,0.057-0.091,0.076-0.18H58.14z"/>
	<path fill="#D13239" d="M59.672,23.37c0.191-0.19,0.303-0.3,0.337-0.328c0.086-0.073,0.178-0.129,0.277-0.168
		c0.099-0.04,0.197-0.062,0.294-0.062c0.165,0,0.305,0.049,0.424,0.143c0.118,0.097,0.197,0.234,0.238,0.415
		c0.196-0.229,0.361-0.378,0.497-0.45c0.136-0.07,0.274-0.107,0.417-0.107c0.139,0,0.262,0.037,0.37,0.107
		c0.108,0.072,0.193,0.188,0.256,0.351c0.042,0.11,0.063,0.283,0.063,0.521v1.126c0,0.164,0.012,0.275,0.037,0.336
		c0.02,0.042,0.055,0.079,0.106,0.107c0.052,0.031,0.136,0.045,0.252,0.045v0.103h-1.292v-0.103h0.055
		c0.112,0,0.2-0.021,0.262-0.064c0.044-0.032,0.075-0.08,0.094-0.146c0.008-0.033,0.012-0.125,0.012-0.277v-1.126
		c0-0.214-0.026-0.364-0.077-0.452c-0.074-0.122-0.194-0.184-0.357-0.184c-0.101,0-0.203,0.026-0.304,0.076
		c-0.102,0.051-0.226,0.145-0.37,0.281l-0.006,0.032l0.006,0.123v1.249c0,0.179,0.01,0.29,0.03,0.333
		c0.02,0.045,0.058,0.082,0.113,0.11c0.055,0.031,0.149,0.045,0.283,0.045v0.103h-1.323v-0.103c0.145,0,0.244-0.017,0.298-0.052
		c0.055-0.034,0.092-0.085,0.113-0.154c0.009-0.032,0.014-0.125,0.014-0.282v-1.126c0-0.214-0.031-0.368-0.095-0.461
		c-0.083-0.122-0.201-0.182-0.352-0.182c-0.103,0-0.204,0.026-0.306,0.082c-0.158,0.084-0.28,0.179-0.366,0.282v1.404
		c0,0.172,0.012,0.282,0.036,0.333c0.023,0.053,0.059,0.092,0.106,0.117c0.046,0.025,0.141,0.038,0.283,0.038v0.103h-1.294v-0.103
		c0.121,0,0.204-0.013,0.251-0.038c0.048-0.025,0.084-0.067,0.108-0.124c0.025-0.055,0.038-0.164,0.038-0.326v-1
		c0-0.288-0.009-0.474-0.026-0.558c-0.014-0.062-0.035-0.106-0.063-0.131c-0.029-0.022-0.068-0.035-0.117-0.035
		c-0.053,0-0.118,0.014-0.192,0.043l-0.043-0.103l0.789-0.321h0.123V23.37z"/>
	<path fill="#D13239" d="M64.932,25.132c-0.269,0.208-0.438,0.326-0.506,0.36c-0.103,0.047-0.213,0.07-0.329,0.07
		c-0.181,0-0.33-0.062-0.447-0.186s-0.176-0.287-0.176-0.489c0-0.127,0.029-0.237,0.085-0.331c0.078-0.129,0.214-0.252,0.407-0.366
		c0.194-0.114,0.515-0.253,0.965-0.417v-0.103c0-0.262-0.042-0.44-0.125-0.537c-0.083-0.098-0.203-0.146-0.361-0.146
		c-0.121,0-0.216,0.032-0.286,0.098c-0.073,0.064-0.109,0.14-0.109,0.223l0.006,0.165c0,0.089-0.022,0.156-0.067,0.203
		c-0.045,0.048-0.103,0.072-0.176,0.072c-0.07,0-0.128-0.025-0.173-0.074c-0.044-0.05-0.067-0.117-0.067-0.203
		c0-0.163,0.083-0.315,0.251-0.452s0.403-0.206,0.706-0.206c0.232,0,0.423,0.039,0.572,0.118c0.112,0.059,0.195,0.151,0.249,0.276
		c0.034,0.083,0.051,0.25,0.051,0.504v0.888c0,0.25,0.005,0.403,0.014,0.46c0.01,0.056,0.025,0.093,0.047,0.112
		c0.022,0.021,0.047,0.028,0.076,0.028c0.03,0,0.057-0.007,0.079-0.02c0.041-0.025,0.118-0.094,0.232-0.208v0.16
		c-0.213,0.285-0.417,0.428-0.612,0.428c-0.093,0-0.167-0.032-0.223-0.098C64.962,25.397,64.933,25.288,64.932,25.132z
		 M64.932,24.945v-0.997c-0.288,0.114-0.473,0.194-0.558,0.242c-0.15,0.084-0.258,0.173-0.323,0.264
		c-0.064,0.091-0.097,0.191-0.097,0.301c0,0.135,0.041,0.25,0.123,0.34c0.082,0.091,0.176,0.137,0.283,0.137
		C64.505,25.231,64.696,25.137,64.932,24.945z"/>
	<path fill="#D13239" d="M66.812,22.812v0.589c0.219-0.392,0.444-0.589,0.675-0.589c0.104,0,0.191,0.033,0.26,0.096
		c0.068,0.064,0.103,0.139,0.103,0.223c0,0.074-0.024,0.137-0.074,0.188c-0.049,0.052-0.109,0.078-0.177,0.078
		c-0.067,0-0.142-0.033-0.225-0.099c-0.083-0.066-0.145-0.099-0.184-0.099c-0.035,0-0.072,0.019-0.112,0.058
		c-0.085,0.077-0.174,0.206-0.266,0.386v1.254c0,0.146,0.018,0.255,0.054,0.33c0.025,0.051,0.069,0.093,0.131,0.127
		c0.063,0.035,0.154,0.052,0.272,0.052v0.103h-1.341v-0.103c0.134,0,0.233-0.021,0.297-0.062c0.047-0.031,0.081-0.08,0.1-0.147
		c0.009-0.032,0.014-0.124,0.014-0.276v-1.016c0-0.305-0.006-0.486-0.018-0.544c-0.013-0.058-0.035-0.101-0.068-0.127
		c-0.033-0.027-0.075-0.04-0.125-0.04c-0.059,0-0.125,0.014-0.2,0.043L65.9,23.134l0.792-0.321H66.812z"/>
	<path fill="#D13239" d="M68.756,22.03v0.86h0.611v0.2h-0.611v1.697c0,0.17,0.024,0.284,0.073,0.344s0.111,0.088,0.187,0.088
		c0.063,0,0.124-0.02,0.183-0.059c0.059-0.039,0.105-0.097,0.137-0.174h0.111c-0.067,0.188-0.161,0.328-0.283,0.422
		c-0.122,0.095-0.248,0.142-0.377,0.142c-0.087,0-0.173-0.023-0.257-0.072c-0.084-0.048-0.146-0.118-0.186-0.209
		c-0.04-0.09-0.06-0.23-0.06-0.419v-1.76H67.87v-0.094c0.104-0.043,0.212-0.114,0.321-0.214s0.207-0.22,0.293-0.355
		c0.044-0.072,0.105-0.206,0.183-0.397H68.756z"/>
	<path fill="#D13239" d="M73.587,21.544v1.341H73.48c-0.034-0.258-0.096-0.462-0.184-0.614c-0.089-0.153-0.216-0.274-0.379-0.363
		c-0.164-0.09-0.333-0.135-0.509-0.135c-0.198,0-0.362,0.06-0.492,0.182c-0.129,0.121-0.194,0.259-0.194,0.413
		c0,0.119,0.041,0.227,0.123,0.323c0.118,0.144,0.399,0.333,0.844,0.571c0.362,0.195,0.608,0.344,0.742,0.448
		c0.132,0.104,0.234,0.225,0.306,0.366c0.071,0.142,0.107,0.289,0.107,0.443c0,0.294-0.114,0.547-0.342,0.759
		c-0.227,0.213-0.521,0.318-0.879,0.318c-0.112,0-0.218-0.008-0.317-0.025c-0.059-0.01-0.182-0.044-0.368-0.104
		c-0.186-0.062-0.303-0.091-0.353-0.091c-0.047,0-0.085,0.015-0.112,0.043c-0.027,0.027-0.049,0.087-0.062,0.177h-0.106v-1.328
		h0.106c0.049,0.278,0.116,0.486,0.2,0.624c0.084,0.139,0.212,0.253,0.385,0.345c0.172,0.092,0.362,0.138,0.567,0.138
		c0.238,0,0.426-0.063,0.564-0.189c0.138-0.126,0.208-0.274,0.208-0.446c0-0.096-0.027-0.191-0.079-0.289
		c-0.052-0.097-0.133-0.187-0.244-0.271c-0.075-0.057-0.278-0.179-0.609-0.363c-0.332-0.187-0.567-0.335-0.708-0.445
		s-0.247-0.231-0.319-0.366c-0.072-0.133-0.108-0.279-0.108-0.44c0-0.276,0.106-0.517,0.319-0.718
		c0.214-0.201,0.485-0.302,0.815-0.302c0.206,0,0.423,0.051,0.654,0.151c0.107,0.048,0.182,0.072,0.226,0.072
		c0.049,0,0.09-0.016,0.122-0.044c0.031-0.03,0.057-0.091,0.075-0.18H73.587z"/>
	<path fill="#D13239" d="M74.192,22.891h1.221v0.106h-0.061c-0.086,0-0.15,0.018-0.192,0.055c-0.044,0.037-0.065,0.083-0.065,0.139
		c0,0.074,0.032,0.177,0.095,0.309l0.637,1.32l0.587-1.446c0.031-0.077,0.049-0.155,0.049-0.231c0-0.035-0.008-0.06-0.021-0.077
		c-0.015-0.02-0.038-0.037-0.07-0.05c-0.033-0.013-0.091-0.018-0.173-0.018v-0.106h0.853v0.106
		c-0.069,0.006-0.124,0.021-0.164,0.045c-0.037,0.022-0.079,0.064-0.125,0.128c-0.017,0.027-0.049,0.101-0.096,0.221l-1.067,2.612
		c-0.103,0.254-0.238,0.445-0.405,0.574c-0.167,0.131-0.327,0.193-0.481,0.193c-0.113,0-0.205-0.031-0.278-0.096
		c-0.072-0.064-0.109-0.14-0.109-0.223c0-0.081,0.027-0.145,0.079-0.192c0.053-0.051,0.125-0.074,0.216-0.074
		c0.063,0,0.148,0.021,0.258,0.063c0.077,0.028,0.124,0.043,0.143,0.043c0.057,0,0.12-0.03,0.187-0.089
		c0.068-0.059,0.136-0.174,0.205-0.344l0.186-0.454l-0.941-1.975c-0.028-0.06-0.074-0.133-0.137-0.22
		c-0.047-0.067-0.087-0.111-0.117-0.135c-0.043-0.031-0.114-0.058-0.211-0.079V22.891z"/>
	<path fill="#D13239" d="M78.961,22.812v0.894h-0.095c-0.072-0.281-0.165-0.472-0.279-0.572c-0.114-0.102-0.258-0.151-0.432-0.151
		c-0.135,0-0.242,0.034-0.324,0.105c-0.082,0.07-0.123,0.148-0.123,0.233c0,0.107,0.031,0.198,0.092,0.275
		c0.059,0.078,0.18,0.161,0.359,0.248l0.418,0.204c0.388,0.187,0.58,0.436,0.58,0.745c0,0.238-0.09,0.431-0.27,0.575
		c-0.18,0.146-0.382,0.22-0.605,0.22c-0.159,0-0.343-0.029-0.548-0.087c-0.063-0.019-0.115-0.027-0.154-0.027
		c-0.044,0-0.079,0.024-0.103,0.073h-0.095v-0.934h0.095c0.053,0.267,0.154,0.468,0.305,0.603c0.151,0.136,0.319,0.203,0.507,0.203
		c0.131,0,0.237-0.038,0.321-0.116c0.082-0.077,0.124-0.17,0.124-0.278c0-0.132-0.047-0.242-0.139-0.332
		c-0.092-0.089-0.277-0.203-0.553-0.34c-0.276-0.137-0.458-0.261-0.544-0.372c-0.086-0.108-0.128-0.245-0.128-0.411
		c0-0.215,0.073-0.396,0.222-0.539c0.147-0.146,0.338-0.219,0.572-0.219c0.103,0,0.229,0.022,0.375,0.066
		c0.098,0.028,0.162,0.043,0.194,0.043c0.031,0,0.055-0.008,0.071-0.021s0.038-0.043,0.061-0.089H78.961z"/>
	<path fill="#D13239" d="M80.307,22.03v0.86h0.611v0.2h-0.611v1.697c0,0.17,0.024,0.284,0.073,0.344
		c0.048,0.06,0.111,0.088,0.187,0.088c0.063,0,0.124-0.02,0.184-0.059c0.058-0.039,0.104-0.097,0.138-0.174h0.111
		c-0.068,0.188-0.162,0.328-0.284,0.422c-0.121,0.095-0.247,0.142-0.377,0.142c-0.088,0-0.174-0.023-0.257-0.072
		c-0.085-0.048-0.146-0.118-0.187-0.209c-0.04-0.09-0.059-0.23-0.059-0.419v-1.76h-0.415v-0.094c0.104-0.043,0.212-0.114,0.32-0.214
		c0.109-0.1,0.208-0.22,0.294-0.355c0.044-0.072,0.105-0.206,0.183-0.397H80.307z"/>
	<path fill="#D13239" d="M81.612,23.876c-0.001,0.39,0.093,0.694,0.283,0.915s0.414,0.332,0.672,0.332
		c0.171,0,0.32-0.047,0.447-0.142s0.232-0.256,0.319-0.485l0.088,0.058c-0.04,0.261-0.156,0.499-0.349,0.713
		c-0.192,0.215-0.434,0.322-0.724,0.322c-0.314,0-0.583-0.123-0.808-0.368c-0.224-0.244-0.335-0.573-0.335-0.988
		c0-0.447,0.113-0.796,0.344-1.046c0.229-0.251,0.519-0.376,0.865-0.376c0.293,0,0.534,0.097,0.724,0.29
		c0.188,0.193,0.282,0.453,0.282,0.775H81.612z M81.612,23.711h1.213c-0.011-0.168-0.031-0.286-0.061-0.354
		c-0.048-0.107-0.119-0.19-0.214-0.253c-0.094-0.059-0.192-0.09-0.296-0.09c-0.158,0-0.299,0.062-0.424,0.184
		C81.707,23.32,81.634,23.491,81.612,23.711z"/>
	<path fill="#D13239" d="M84.548,23.37c0.19-0.19,0.303-0.3,0.337-0.328c0.087-0.073,0.179-0.129,0.277-0.168
		c0.1-0.04,0.197-0.062,0.294-0.062c0.165,0,0.306,0.049,0.425,0.143c0.116,0.097,0.196,0.234,0.236,0.415
		c0.196-0.229,0.362-0.378,0.497-0.45c0.136-0.07,0.274-0.107,0.418-0.107c0.139,0,0.263,0.037,0.37,0.107
		c0.107,0.072,0.193,0.188,0.256,0.351c0.041,0.11,0.062,0.283,0.062,0.521v1.126c0,0.164,0.012,0.275,0.037,0.336
		c0.02,0.042,0.055,0.079,0.106,0.107c0.051,0.031,0.135,0.045,0.251,0.045v0.103h-1.293v-0.103h0.055
		c0.113,0,0.2-0.021,0.264-0.064c0.044-0.032,0.075-0.08,0.095-0.146c0.007-0.033,0.011-0.125,0.011-0.277v-1.126
		c0-0.214-0.026-0.364-0.077-0.452c-0.074-0.122-0.193-0.184-0.357-0.184c-0.102,0-0.203,0.026-0.305,0.076
		c-0.102,0.051-0.225,0.145-0.37,0.281l-0.005,0.032l0.005,0.123v1.249c0,0.179,0.011,0.29,0.03,0.333
		c0.021,0.045,0.058,0.082,0.113,0.11c0.056,0.031,0.149,0.045,0.282,0.045v0.103h-1.323v-0.103c0.146,0,0.245-0.017,0.299-0.052
		c0.054-0.034,0.093-0.085,0.113-0.154c0.009-0.032,0.015-0.125,0.015-0.282v-1.126c0-0.214-0.031-0.368-0.095-0.461
		c-0.084-0.122-0.201-0.182-0.352-0.182c-0.103,0-0.205,0.026-0.306,0.082c-0.158,0.084-0.28,0.179-0.366,0.282v1.404
		c0,0.172,0.013,0.282,0.035,0.333c0.024,0.053,0.06,0.092,0.106,0.117c0.046,0.025,0.142,0.038,0.284,0.038v0.103h-1.295v-0.103
		c0.12,0,0.205-0.013,0.252-0.038c0.048-0.025,0.083-0.067,0.108-0.124c0.024-0.055,0.037-0.164,0.037-0.326v-1
		c0-0.288-0.009-0.474-0.025-0.558c-0.014-0.062-0.035-0.106-0.063-0.131c-0.028-0.022-0.067-0.035-0.117-0.035
		c-0.054,0-0.116,0.014-0.191,0.043l-0.042-0.103l0.788-0.321h0.123V23.37z"/>
	<path fill="#D13239" d="M90.017,22.812v0.894h-0.096c-0.071-0.281-0.164-0.472-0.278-0.572c-0.113-0.102-0.257-0.151-0.433-0.151
		c-0.134,0-0.241,0.034-0.323,0.105c-0.082,0.07-0.123,0.148-0.123,0.233c0,0.107,0.031,0.198,0.092,0.275
		c0.059,0.078,0.18,0.161,0.36,0.248l0.417,0.204c0.387,0.187,0.581,0.436,0.581,0.745c0,0.238-0.091,0.431-0.271,0.575
		c-0.181,0.146-0.382,0.22-0.605,0.22c-0.159,0-0.342-0.029-0.548-0.087c-0.062-0.019-0.114-0.027-0.154-0.027
		c-0.044,0-0.078,0.024-0.103,0.073h-0.095v-0.934h0.095c0.053,0.267,0.155,0.468,0.306,0.603c0.15,0.136,0.318,0.203,0.506,0.203
		c0.131,0,0.238-0.038,0.32-0.116c0.084-0.077,0.125-0.17,0.125-0.278c0-0.132-0.046-0.242-0.139-0.332
		c-0.093-0.089-0.277-0.203-0.553-0.34c-0.276-0.137-0.457-0.261-0.543-0.372c-0.086-0.108-0.129-0.245-0.129-0.411
		c0-0.215,0.073-0.396,0.221-0.539c0.148-0.146,0.34-0.219,0.574-0.219c0.103,0,0.229,0.022,0.374,0.066
		c0.098,0.028,0.162,0.043,0.194,0.043c0.03,0,0.055-0.008,0.072-0.021c0.016-0.013,0.037-0.043,0.059-0.089H90.017z"/>
</g>
<g>
	<path d="M89.637,32.11c0-0.408,0.143-0.737,0.428-0.986c0.271-0.234,0.614-0.353,1.029-0.353c0.421,0,0.764,0.121,1.026,0.367
		c0.276,0.248,0.413,0.579,0.413,0.995c0,0.422-0.139,0.756-0.416,1.003c-0.27,0.24-0.617,0.359-1.044,0.359
		c-0.421,0-0.765-0.125-1.029-0.376C89.771,32.867,89.637,32.529,89.637,32.11z M90.253,32.123c0,0.349,0.055,0.632,0.165,0.849
		c0.143,0.287,0.371,0.431,0.685,0.431c0.312,0,0.537-0.144,0.678-0.431c0.108-0.217,0.161-0.5,0.161-0.845
		c0-0.346-0.055-0.626-0.165-0.841c-0.146-0.283-0.376-0.424-0.689-0.424c-0.301,0-0.523,0.142-0.669,0.428
		C90.308,31.511,90.253,31.79,90.253,32.123z M90.293,30.024c0-0.11,0.037-0.202,0.114-0.277c0.076-0.073,0.17-0.11,0.279-0.11
		c0.111,0,0.205,0.036,0.281,0.109c0.074,0.073,0.112,0.166,0.112,0.278c0,0.111-0.039,0.203-0.114,0.273
		c-0.077,0.07-0.17,0.106-0.279,0.106c-0.112,0-0.207-0.036-0.281-0.106C90.33,30.228,90.293,30.136,90.293,30.024z M91.283,30.024
		c0-0.11,0.037-0.202,0.113-0.277c0.076-0.073,0.171-0.11,0.283-0.11s0.206,0.036,0.28,0.109c0.075,0.073,0.112,0.166,0.112,0.278
		c0,0.111-0.038,0.203-0.114,0.273s-0.169,0.106-0.278,0.106c-0.112,0-0.207-0.036-0.283-0.106S91.283,30.136,91.283,30.024z"/>
	<path d="M94.638,33.248h0.461v0.276h-0.454c-0.012,0.295-0.096,0.537-0.25,0.724c-0.254,0.305-0.52,0.445-0.801,0.423
		c-0.28-0.024-0.496-0.132-0.649-0.319l0.158-0.593h0.04c0.099,0.496,0.259,0.744,0.479,0.744c0.298,0,0.451-0.39,0.458-1.168
		v-1.208c0-0.195-0.011-0.321-0.031-0.38c-0.04-0.119-0.134-0.184-0.282-0.192v-0.044c0.261-0.021,0.552-0.091,0.876-0.209
		C94.616,31.658,94.614,32.309,94.638,33.248z"/>
	<path d="M96.007,33.524h-1v-0.276h1V33.524z"/>
	<path d="M96.919,33.524H95.92v-0.276h0.999V33.524z"/>
	<path d="M97.831,33.524h-0.999v-0.276h0.999V33.524z"/>
	<path d="M98.743,33.524h-0.999v-0.276h0.999V33.524z"/>
	<path d="M99.654,33.524h-0.999v-0.276h0.999V33.524z"/>
	<path d="M101.512,33.248h0.465v0.276h-2.409v-0.276h1.302v-1.643c0-0.2-0.011-0.331-0.034-0.394
		c-0.042-0.124-0.141-0.189-0.295-0.198V30.97c0.385-0.049,0.722-0.121,1.009-0.212c-0.025,0.347-0.037,0.709-0.037,1.084V33.248z
		 M99.799,34.214c0-0.111,0.039-0.203,0.115-0.277c0.076-0.076,0.17-0.114,0.279-0.114c0.111,0,0.206,0.038,0.28,0.111
		c0.075,0.074,0.113,0.167,0.113,0.28c0,0.109-0.038,0.2-0.115,0.272c-0.075,0.072-0.17,0.108-0.278,0.108
		c-0.112,0-0.206-0.036-0.282-0.107C99.837,34.417,99.799,34.325,99.799,34.214z M100.707,34.214c0-0.111,0.039-0.203,0.115-0.277
		c0.076-0.076,0.169-0.114,0.28-0.114s0.205,0.038,0.279,0.111c0.076,0.074,0.113,0.167,0.113,0.28c0,0.109-0.038,0.2-0.114,0.272
		s-0.169,0.108-0.278,0.108c-0.113,0-0.207-0.036-0.282-0.107C100.746,34.417,100.707,34.325,100.707,34.214z"/>
	<path d="M104.773,33.607l-0.108,0.061c-0.091-0.042-0.178-0.091-0.259-0.144h-2.53v-0.276h2.214
		c-0.22-0.25-0.351-0.567-0.394-0.952c-0.074-0.65-0.178-1.05-0.31-1.198c-0.107-0.117-0.217-0.176-0.326-0.176
		c-0.133,0-0.231,0.062-0.297,0.182c-0.049,0.088-0.075,0.207-0.08,0.357l-0.038,0.014l-0.474-0.553
		c0.061-0.021,0.132-0.045,0.212-0.066c0.229-0.062,0.449-0.091,0.66-0.091c0.226,0,0.443,0.034,0.652,0.104
		c0.397,0.136,0.604,0.54,0.619,1.211c0.011,0.469,0.09,0.857,0.235,1.168h0.414v0.276h-0.256
		C104.729,33.553,104.751,33.581,104.773,33.607z M102.688,34.214c0-0.111,0.038-0.203,0.113-0.277
		c0.077-0.076,0.17-0.114,0.279-0.114c0.113,0,0.207,0.038,0.281,0.111c0.074,0.074,0.112,0.167,0.112,0.28
		c0,0.109-0.038,0.2-0.114,0.272s-0.169,0.108-0.279,0.108c-0.112,0-0.205-0.036-0.281-0.107
		C102.725,34.417,102.688,34.325,102.688,34.214z"/>
	<path d="M105.341,32.11c0-0.408,0.144-0.737,0.428-0.986c0.27-0.234,0.612-0.353,1.026-0.353c0.422,0,0.766,0.121,1.03,0.367
		c0.275,0.248,0.414,0.579,0.414,0.995c0,0.404-0.134,0.733-0.401,0.986c-0.051,0.047-0.105,0.09-0.164,0.128h0.952v0.276h-3.748
		v-0.276h1.028c-0.06-0.04-0.116-0.087-0.167-0.139C105.475,32.854,105.341,32.521,105.341,32.11z M105.953,32.123
		c0,0.546,0.128,0.92,0.381,1.125h0.937c0.249-0.207,0.372-0.58,0.372-1.121c0-0.346-0.055-0.626-0.164-0.841
		c-0.145-0.283-0.372-0.424-0.687-0.424c-0.303,0-0.527,0.142-0.674,0.428C106.008,31.511,105.953,31.79,105.953,32.123z
		 M106.351,29.862c0-0.11,0.039-0.201,0.114-0.276c0.077-0.073,0.17-0.111,0.28-0.111c0.111,0,0.206,0.038,0.282,0.11
		c0.077,0.073,0.114,0.166,0.114,0.277c0,0.11-0.037,0.201-0.114,0.272c-0.076,0.072-0.171,0.107-0.282,0.107
		c-0.113,0-0.206-0.034-0.281-0.106C106.389,30.066,106.351,29.975,106.351,29.862z"/>
	<path d="M108.539,33.248h0.783c-0.166-0.095-0.249-0.295-0.249-0.603v-3.079c0-0.195-0.011-0.321-0.029-0.38
		c-0.041-0.12-0.136-0.183-0.284-0.192v-0.043c0.259-0.023,0.55-0.093,0.872-0.209c-0.02,0.316-0.03,0.675-0.03,1.077v2.58
		c0,0.257,0.015,0.466,0.041,0.63c0.04,0.254,0.144,0.418,0.312,0.495h-1.416V33.248z"/>
	<path d="M110.356,33.54l-0.004-0.044c0.186-0.053,0.3-0.205,0.343-0.454c0.016-0.08,0.024-0.287,0.024-0.622v-2.854
		c0-0.195-0.011-0.321-0.031-0.38c-0.041-0.12-0.136-0.183-0.285-0.192v-0.043c0.26-0.023,0.552-0.093,0.874-0.209
		c-0.021,0.316-0.029,0.675-0.027,1.077v2.58c0.019,0.361,0.031,0.572,0.038,0.633c0.04,0.26,0.153,0.415,0.34,0.464v0.044
		c-0.213-0.011-0.42-0.016-0.62-0.016C110.747,33.524,110.531,33.529,110.356,33.54z"/>
	<path d="M114.03,33.524c-0.379,0.107-0.568,0.361-0.568,0.764c0,0.219,0.073,0.424,0.222,0.615
		c0.159,0.204,0.347,0.307,0.562,0.307c0.682,0,1.092-0.286,1.228-0.855h0.038l0.231,0.538c-0.505,0.292-1.025,0.438-1.561,0.438
		c-0.359,0-0.666-0.093-0.919-0.278c-0.286-0.208-0.428-0.488-0.428-0.835c0-0.529,0.242-0.848,0.723-0.952
		c-0.417-0.242-0.626-0.616-0.626-1.121c0-0.416,0.142-0.748,0.422-0.996c0.264-0.24,0.607-0.359,1.029-0.359
		c0.397,0,0.744,0.1,1.043,0.3l-0.128,0.757l-0.04-0.007c-0.162-0.586-0.433-0.879-0.811-0.879c-0.288,0-0.529,0.129-0.728,0.388
		c-0.184,0.238-0.276,0.506-0.276,0.801c0,0.394,0.183,0.762,0.546,1.101h1.302c0.102,0,0.204-0.058,0.307-0.172
		c-0.028,0.299-0.143,0.448-0.34,0.448H114.03z"/>
	<path d="M117.685,33.248h0.462v0.276h-0.454c-0.012,0.295-0.096,0.537-0.25,0.724c-0.253,0.305-0.521,0.445-0.802,0.423
		c-0.279-0.024-0.496-0.132-0.648-0.319l0.158-0.593h0.04c0.099,0.496,0.258,0.744,0.479,0.744c0.298,0,0.45-0.39,0.457-1.168
		v-1.208c0-0.195-0.011-0.321-0.029-0.38c-0.041-0.119-0.136-0.184-0.283-0.192v-0.044c0.26-0.021,0.551-0.091,0.875-0.209
		C117.663,31.658,117.661,32.309,117.685,33.248z"/>
	<path d="M119.055,33.524h-0.999v-0.276h0.999V33.524z"/>
	<path d="M119.967,33.524h-1v-0.276h1V33.524z"/>
	<path d="M120.878,33.524h-0.999v-0.276h0.999V33.524z"/>
	<path d="M121.79,33.524h-0.999v-0.276h0.999V33.524z"/>
	<path d="M122.702,33.524h-1v-0.276h1V33.524z"/>
	<path d="M123.614,33.524h-0.999v-0.276h0.999V33.524z"/>
	<path d="M123.526,33.524v-0.276h2.262c0.323,0,0.484-0.152,0.484-0.455v-0.595c-0.08,0.177-0.208,0.314-0.384,0.414
		c-0.166,0.092-0.35,0.137-0.551,0.137c-0.385,0-0.697-0.136-0.939-0.41c-0.233-0.263-0.35-0.589-0.35-0.979
		c0-0.381,0.123-0.692,0.368-0.935c0.245-0.243,0.562-0.363,0.947-0.363c0.363,0,0.661,0.175,0.892,0.527
		c0.057-0.154,0.127-0.308,0.212-0.457l0.546-0.003l0.212-0.007v0.033c-0.147,0.032-0.236,0.17-0.27,0.406
		c-0.007,0.055-0.01,0.234-0.01,0.542v1.663c0,0.506-0.322,0.758-0.967,0.758H123.526z M124.675,31.423
		c0,0.292,0.061,0.533,0.185,0.721c0.144,0.221,0.354,0.33,0.633,0.33c0.28,0,0.491-0.109,0.632-0.33
		c0.117-0.184,0.176-0.424,0.176-0.721c0-0.3-0.06-0.542-0.179-0.727c-0.142-0.219-0.354-0.329-0.635-0.329
		c-0.277,0-0.487,0.111-0.63,0.333C124.735,30.891,124.675,31.133,124.675,31.423z M124.779,29.223c0-0.11,0.037-0.202,0.113-0.275
		c0.077-0.074,0.17-0.111,0.279-0.111c0.113,0,0.207,0.036,0.281,0.109c0.075,0.072,0.112,0.166,0.112,0.277
		c0,0.109-0.037,0.201-0.114,0.273c-0.075,0.072-0.169,0.107-0.279,0.107c-0.111,0-0.205-0.035-0.281-0.106
		C124.816,29.427,124.779,29.335,124.779,29.223z"/>
</g>
<g>
	<path d="M51.027,29.875v1.524h0.706c0.162,0,0.281-0.035,0.355-0.107c0.076-0.071,0.125-0.213,0.15-0.424h0.105v1.312h-0.105
		c-0.002-0.15-0.021-0.262-0.059-0.331c-0.037-0.071-0.088-0.124-0.154-0.158c-0.066-0.035-0.164-0.054-0.293-0.054h-0.706v1.218
		c0,0.196,0.012,0.326,0.037,0.388c0.019,0.049,0.059,0.09,0.121,0.124c0.083,0.046,0.171,0.069,0.262,0.069h0.14v0.104h-1.663
		v-0.104h0.137c0.16,0,0.276-0.048,0.348-0.141c0.046-0.061,0.069-0.208,0.069-0.44V30.35c0-0.195-0.012-0.324-0.038-0.388
		c-0.019-0.048-0.058-0.089-0.117-0.123c-0.082-0.046-0.169-0.068-0.263-0.068h-0.137v-0.105h2.884l0.036,0.852h-0.1
		c-0.049-0.182-0.106-0.314-0.172-0.398c-0.066-0.086-0.147-0.146-0.243-0.185c-0.097-0.039-0.246-0.059-0.448-0.059H51.027z"/>
	<path d="M55.562,30.922v1.587c0,0.303,0.007,0.488,0.022,0.556c0.014,0.068,0.037,0.115,0.068,0.142
		c0.032,0.027,0.068,0.04,0.11,0.04c0.059,0,0.125-0.016,0.2-0.049l0.04,0.1l-0.783,0.324h-0.129v-0.555
		c-0.224,0.244-0.396,0.396-0.514,0.46c-0.119,0.063-0.244,0.095-0.375,0.095c-0.146,0-0.274-0.043-0.381-0.128
		c-0.108-0.085-0.183-0.193-0.225-0.327c-0.042-0.134-0.063-0.322-0.063-0.566v-1.169c0-0.124-0.013-0.209-0.04-0.257
		s-0.066-0.084-0.119-0.11c-0.052-0.024-0.147-0.037-0.284-0.035v-0.106h0.917v1.752c0,0.245,0.042,0.404,0.127,0.48
		c0.084,0.077,0.188,0.115,0.307,0.115c0.082,0,0.175-0.027,0.279-0.077c0.104-0.053,0.227-0.15,0.37-0.295v-1.483
		c0-0.149-0.027-0.249-0.081-0.302s-0.167-0.08-0.339-0.084v-0.106H55.562z"/>
	<path d="M57.103,30.845v2.636c0,0.447-0.095,0.779-0.286,0.997c-0.19,0.218-0.438,0.326-0.743,0.326
		c-0.174,0-0.302-0.032-0.386-0.094c-0.084-0.063-0.126-0.128-0.126-0.195c0-0.065,0.024-0.124,0.071-0.171
		c0.046-0.048,0.101-0.071,0.164-0.071c0.049,0,0.1,0.013,0.151,0.037c0.033,0.013,0.096,0.061,0.188,0.145
		c0.092,0.082,0.169,0.123,0.233,0.123c0.045,0,0.09-0.018,0.134-0.052c0.044-0.035,0.076-0.095,0.097-0.177
		c0.021-0.083,0.032-0.263,0.032-0.54v-1.862c0-0.288-0.009-0.474-0.026-0.555c-0.014-0.063-0.035-0.106-0.063-0.131
		c-0.029-0.023-0.068-0.035-0.117-0.035c-0.054,0-0.119,0.015-0.195,0.042l-0.04-0.103l0.789-0.32H57.103z M56.858,29.473
		c0.082,0,0.151,0.029,0.208,0.086c0.057,0.058,0.085,0.126,0.085,0.21c0,0.079-0.028,0.148-0.085,0.205
		c-0.057,0.056-0.126,0.086-0.208,0.086c-0.08,0-0.148-0.03-0.206-0.086c-0.058-0.057-0.085-0.126-0.085-0.205
		c0-0.084,0.028-0.152,0.085-0.21C56.709,29.502,56.778,29.473,56.858,29.473z"/>
	<path d="M59.305,33.163c-0.269,0.208-0.438,0.326-0.506,0.36c-0.103,0.048-0.212,0.07-0.329,0.07c-0.181,0-0.33-0.061-0.447-0.185
		c-0.117-0.124-0.176-0.287-0.176-0.489c0-0.128,0.029-0.238,0.086-0.331c0.078-0.13,0.214-0.252,0.407-0.366
		c0.193-0.113,0.515-0.253,0.965-0.417v-0.103c0-0.261-0.042-0.441-0.124-0.538c-0.083-0.097-0.204-0.146-0.362-0.146
		c-0.121,0-0.216,0.031-0.286,0.097c-0.072,0.064-0.109,0.14-0.109,0.224l0.006,0.165c0,0.088-0.023,0.155-0.067,0.203
		c-0.045,0.048-0.103,0.072-0.176,0.072c-0.071,0-0.128-0.024-0.173-0.074c-0.044-0.05-0.067-0.118-0.067-0.203
		c0-0.164,0.084-0.314,0.251-0.452c0.168-0.137,0.403-0.206,0.706-0.206c0.232,0,0.423,0.039,0.572,0.117
		c0.112,0.06,0.195,0.151,0.249,0.278c0.034,0.081,0.051,0.249,0.051,0.503v0.888c0,0.25,0.005,0.402,0.015,0.459
		c0.01,0.057,0.025,0.094,0.047,0.113c0.022,0.02,0.048,0.029,0.076,0.029c0.031,0,0.057-0.007,0.08-0.021
		c0.04-0.025,0.117-0.095,0.231-0.209v0.16c-0.213,0.285-0.417,0.429-0.611,0.429c-0.094,0-0.168-0.032-0.223-0.098
		C59.334,33.431,59.307,33.319,59.305,33.163z M59.305,32.978v-0.998c-0.288,0.115-0.474,0.195-0.558,0.243
		c-0.151,0.084-0.258,0.172-0.323,0.263c-0.064,0.091-0.097,0.191-0.097,0.3c0,0.138,0.041,0.251,0.123,0.342
		s0.176,0.137,0.283,0.137C58.877,33.264,59.068,33.168,59.305,32.978z"/>
	<path d="M61.322,30.845v2.104c0,0.163,0.012,0.272,0.036,0.327s0.059,0.095,0.105,0.12c0.047,0.028,0.132,0.041,0.256,0.041v0.103
		h-1.272v-0.103c0.128,0,0.213-0.013,0.257-0.037s0.079-0.065,0.104-0.122c0.025-0.058,0.038-0.167,0.038-0.329v-1.01
		c0-0.283-0.008-0.468-0.025-0.551c-0.013-0.062-0.034-0.104-0.063-0.128c-0.028-0.023-0.067-0.035-0.117-0.035
		c-0.053,0-0.118,0.015-0.194,0.042l-0.04-0.103l0.789-0.32H61.322z M61.085,29.476c0.08,0,0.148,0.029,0.204,0.085
		c0.056,0.057,0.084,0.124,0.084,0.204s-0.028,0.148-0.084,0.206c-0.056,0.057-0.124,0.085-0.204,0.085s-0.149-0.028-0.206-0.085
		c-0.057-0.058-0.086-0.126-0.086-0.206s0.028-0.147,0.084-0.204C60.935,29.505,61.003,29.476,61.085,29.476z"/>
	<path d="M62.812,30.845v0.589c0.219-0.392,0.444-0.589,0.674-0.589c0.105,0,0.192,0.032,0.26,0.097
		c0.068,0.062,0.103,0.137,0.103,0.222c0,0.073-0.025,0.137-0.074,0.188c-0.05,0.052-0.109,0.078-0.178,0.078
		c-0.066,0-0.141-0.033-0.224-0.099c-0.083-0.066-0.145-0.099-0.184-0.099c-0.035,0-0.072,0.018-0.112,0.057
		c-0.085,0.078-0.174,0.207-0.266,0.386v1.255c0,0.146,0.018,0.255,0.055,0.329c0.024,0.052,0.068,0.094,0.131,0.129
		c0.062,0.034,0.153,0.051,0.271,0.051v0.103h-1.341v-0.103c0.133,0,0.232-0.021,0.297-0.062c0.047-0.03,0.081-0.079,0.1-0.146
		c0.009-0.033,0.014-0.126,0.014-0.278v-1.015c0-0.306-0.006-0.485-0.019-0.544c-0.012-0.059-0.035-0.101-0.069-0.128
		c-0.033-0.025-0.075-0.039-0.124-0.039c-0.06,0-0.126,0.015-0.201,0.042L61.9,31.165l0.792-0.32H62.812z"/>
	<path d="M65.478,33.163c-0.268,0.208-0.438,0.326-0.506,0.36c-0.103,0.048-0.212,0.07-0.328,0.07c-0.182,0-0.33-0.061-0.448-0.185
		c-0.117-0.124-0.176-0.287-0.176-0.489c0-0.128,0.028-0.238,0.085-0.331c0.079-0.13,0.214-0.252,0.408-0.366
		c0.193-0.113,0.515-0.253,0.964-0.417v-0.103c0-0.261-0.041-0.441-0.124-0.538s-0.203-0.146-0.362-0.146
		c-0.12,0-0.215,0.031-0.286,0.097c-0.072,0.064-0.108,0.14-0.108,0.224l0.006,0.165c0,0.088-0.023,0.155-0.067,0.203
		c-0.045,0.048-0.104,0.072-0.176,0.072c-0.07,0-0.128-0.024-0.172-0.074c-0.045-0.05-0.068-0.118-0.068-0.203
		c0-0.164,0.083-0.314,0.252-0.452c0.167-0.137,0.403-0.206,0.706-0.206c0.232,0,0.422,0.039,0.571,0.117
		c0.113,0.06,0.196,0.151,0.25,0.278c0.034,0.081,0.051,0.249,0.051,0.503v0.888c0,0.25,0.004,0.402,0.014,0.459
		s0.025,0.094,0.047,0.113c0.022,0.02,0.047,0.029,0.076,0.029c0.03,0,0.057-0.007,0.08-0.021c0.04-0.025,0.117-0.095,0.231-0.209
		v0.16c-0.214,0.285-0.417,0.429-0.612,0.429c-0.093,0-0.167-0.032-0.222-0.098C65.509,33.431,65.48,33.319,65.478,33.163z
		 M65.478,32.978v-0.998c-0.287,0.115-0.473,0.195-0.557,0.243c-0.15,0.084-0.258,0.172-0.323,0.263s-0.098,0.191-0.098,0.3
		c0,0.138,0.042,0.251,0.124,0.342c0.082,0.091,0.176,0.137,0.283,0.137C65.052,33.264,65.242,33.168,65.478,32.978z"/>
	<path d="M67.362,29.476v1.916c0.212-0.233,0.379-0.383,0.503-0.448c0.124-0.065,0.248-0.099,0.372-0.099
		c0.148,0,0.276,0.042,0.383,0.123c0.106,0.082,0.185,0.21,0.237,0.386c0.036,0.122,0.054,0.346,0.054,0.668v0.928
		c0,0.166,0.014,0.279,0.04,0.339c0.019,0.047,0.052,0.083,0.097,0.108c0.046,0.028,0.13,0.041,0.251,0.041v0.103h-1.286v-0.103
		h0.06c0.122,0,0.207-0.019,0.254-0.056c0.047-0.037,0.081-0.093,0.1-0.165c0.005-0.03,0.009-0.119,0.009-0.268v-0.928
		c0-0.284-0.015-0.472-0.044-0.562c-0.03-0.09-0.077-0.158-0.142-0.202c-0.065-0.045-0.143-0.066-0.235-0.066
		c-0.093,0-0.19,0.024-0.291,0.073c-0.101,0.05-0.222,0.149-0.363,0.301v1.384c0,0.179,0.011,0.289,0.031,0.334
		c0.02,0.045,0.057,0.08,0.111,0.109c0.054,0.03,0.148,0.045,0.281,0.045v0.103h-1.298v-0.103c0.116,0,0.208-0.019,0.274-0.055
		c0.038-0.019,0.068-0.055,0.091-0.108s0.035-0.162,0.035-0.325v-2.37c0-0.298-0.007-0.483-0.021-0.552
		c-0.015-0.068-0.037-0.115-0.066-0.141c-0.03-0.024-0.069-0.037-0.119-0.037c-0.04,0-0.104,0.016-0.194,0.047l-0.04-0.101
		l0.783-0.32H67.362z"/>
	<path d="M73.505,31.562c0.268,0.057,0.469,0.148,0.603,0.274c0.185,0.176,0.277,0.39,0.277,0.643c0,0.193-0.061,0.378-0.183,0.554
		c-0.122,0.177-0.289,0.305-0.501,0.386s-0.537,0.121-0.973,0.121h-1.829v-0.104h0.146c0.162,0,0.278-0.053,0.349-0.155
		c0.044-0.066,0.066-0.209,0.066-0.426V30.35c0-0.238-0.028-0.391-0.083-0.453c-0.075-0.083-0.185-0.126-0.332-0.126h-0.146v-0.105
		h1.674c0.313,0,0.563,0.022,0.752,0.067c0.286,0.069,0.504,0.191,0.654,0.365c0.15,0.175,0.226,0.375,0.226,0.602
		c0,0.193-0.059,0.367-0.177,0.521C73.91,31.374,73.736,31.488,73.505,31.562z M72.007,31.407c0.07,0.014,0.151,0.024,0.242,0.031
		c0.09,0.007,0.19,0.01,0.298,0.01c0.278,0,0.488-0.03,0.628-0.091c0.14-0.059,0.247-0.151,0.321-0.275s0.111-0.259,0.111-0.405
		c0-0.228-0.092-0.42-0.277-0.581c-0.185-0.16-0.456-0.239-0.81-0.239c-0.19,0-0.361,0.02-0.514,0.062V31.407z M72.007,33.261
		c0.221,0.051,0.439,0.077,0.654,0.077c0.345,0,0.608-0.078,0.79-0.233s0.271-0.348,0.271-0.577c0-0.149-0.041-0.294-0.123-0.433
		c-0.083-0.14-0.215-0.249-0.4-0.329c-0.186-0.08-0.414-0.12-0.687-0.12c-0.118,0-0.219,0.002-0.303,0.006
		c-0.084,0.004-0.151,0.011-0.203,0.021V33.261z"/>
	<path d="M75.654,30.845v0.589c0.219-0.392,0.444-0.589,0.673-0.589c0.105,0,0.193,0.032,0.261,0.097
		c0.069,0.062,0.104,0.137,0.104,0.222c0,0.073-0.024,0.137-0.074,0.188c-0.05,0.052-0.109,0.078-0.178,0.078
		c-0.066,0-0.141-0.033-0.224-0.099c-0.083-0.066-0.146-0.099-0.186-0.099c-0.033,0-0.071,0.018-0.111,0.057
		c-0.085,0.078-0.174,0.207-0.266,0.386v1.255c0,0.146,0.019,0.255,0.055,0.329c0.024,0.052,0.068,0.094,0.131,0.129
		c0.062,0.034,0.153,0.051,0.271,0.051v0.103h-1.341v-0.103c0.134,0,0.233-0.021,0.297-0.062c0.048-0.03,0.082-0.079,0.101-0.146
		c0.01-0.033,0.014-0.126,0.014-0.278v-1.015c0-0.306-0.006-0.485-0.018-0.544c-0.013-0.059-0.036-0.101-0.068-0.128
		c-0.034-0.025-0.075-0.039-0.125-0.039c-0.06,0-0.125,0.015-0.2,0.042l-0.028-0.103l0.792-0.32H75.654z"/>
	<path d="M78.32,33.163c-0.268,0.208-0.437,0.326-0.506,0.36c-0.103,0.048-0.213,0.07-0.328,0.07c-0.182,0-0.331-0.061-0.448-0.185
		c-0.116-0.124-0.175-0.287-0.175-0.489c0-0.128,0.027-0.238,0.085-0.331c0.079-0.13,0.214-0.252,0.407-0.366
		c0.193-0.113,0.516-0.253,0.965-0.417v-0.103c0-0.261-0.041-0.441-0.123-0.538c-0.085-0.097-0.204-0.146-0.361-0.146
		c-0.121,0-0.217,0.031-0.288,0.097c-0.071,0.064-0.107,0.14-0.107,0.224l0.005,0.165c0,0.088-0.021,0.155-0.066,0.203
		s-0.104,0.072-0.176,0.072c-0.069,0-0.128-0.024-0.173-0.074s-0.066-0.118-0.066-0.203c0-0.164,0.083-0.314,0.251-0.452
		c0.168-0.137,0.402-0.206,0.706-0.206c0.232,0,0.423,0.039,0.571,0.117c0.112,0.06,0.195,0.151,0.249,0.278
		c0.033,0.081,0.052,0.249,0.052,0.503v0.888c0,0.25,0.005,0.402,0.015,0.459s0.024,0.094,0.047,0.113
		c0.021,0.02,0.047,0.029,0.074,0.029c0.032,0,0.059-0.007,0.081-0.021c0.04-0.025,0.116-0.095,0.231-0.209v0.16
		c-0.214,0.285-0.418,0.429-0.612,0.429c-0.093,0-0.167-0.032-0.222-0.098C78.352,33.431,78.322,33.319,78.32,33.163z M78.32,32.978
		v-0.998c-0.287,0.115-0.473,0.195-0.558,0.243c-0.15,0.084-0.258,0.172-0.322,0.263s-0.098,0.191-0.098,0.3
		c0,0.138,0.042,0.251,0.123,0.342s0.177,0.137,0.283,0.137C77.895,33.264,78.084,33.168,78.32,32.978z"/>
	<path d="M80.198,31.399c0.307-0.37,0.6-0.555,0.877-0.555c0.145,0,0.267,0.036,0.37,0.107c0.103,0.071,0.184,0.189,0.246,0.353
		c0.041,0.115,0.062,0.291,0.062,0.526v1.118c0,0.166,0.014,0.278,0.04,0.336c0.021,0.049,0.055,0.086,0.102,0.111
		c0.046,0.028,0.132,0.041,0.258,0.041v0.103h-1.294v-0.103h0.054c0.122,0,0.207-0.019,0.255-0.056
		c0.05-0.037,0.084-0.093,0.102-0.165c0.009-0.028,0.012-0.118,0.012-0.268v-1.072c0-0.238-0.03-0.411-0.092-0.52
		c-0.062-0.107-0.167-0.16-0.313-0.16c-0.227,0-0.452,0.123-0.678,0.371v1.381c0,0.177,0.011,0.286,0.032,0.329
		c0.026,0.055,0.063,0.095,0.11,0.12c0.046,0.026,0.141,0.039,0.284,0.039v0.103h-1.296v-0.103h0.058
		c0.134,0,0.224-0.034,0.271-0.102s0.07-0.196,0.07-0.387v-0.972c0-0.315-0.007-0.507-0.022-0.575
		c-0.014-0.069-0.035-0.115-0.065-0.141c-0.029-0.024-0.068-0.036-0.118-0.036c-0.053,0-0.117,0.015-0.192,0.042l-0.043-0.103
		l0.79-0.32h0.122V31.399z"/>
	<path d="M84.586,32.545c-0.07,0.346-0.208,0.61-0.415,0.796c-0.205,0.188-0.433,0.28-0.682,0.28c-0.297,0-0.557-0.126-0.778-0.375
		c-0.222-0.25-0.33-0.587-0.33-1.013c0-0.411,0.121-0.745,0.366-1.002c0.245-0.258,0.538-0.387,0.881-0.387
		c0.258,0,0.47,0.068,0.636,0.204c0.165,0.137,0.249,0.278,0.249,0.425c0,0.073-0.024,0.132-0.071,0.177
		c-0.047,0.044-0.111,0.066-0.195,0.066c-0.112,0-0.197-0.036-0.254-0.108c-0.033-0.04-0.054-0.116-0.064-0.229
		c-0.012-0.112-0.049-0.199-0.116-0.258c-0.067-0.058-0.158-0.085-0.277-0.085c-0.189,0-0.344,0.069-0.46,0.212
		c-0.154,0.186-0.232,0.433-0.232,0.739c0,0.313,0.077,0.588,0.23,0.828c0.154,0.239,0.362,0.358,0.623,0.358
		c0.186,0,0.354-0.063,0.503-0.192c0.104-0.088,0.206-0.247,0.306-0.477L84.586,32.545z"/>
	<path d="M85.729,29.476v1.916c0.212-0.233,0.379-0.383,0.503-0.448c0.123-0.065,0.247-0.099,0.372-0.099
		c0.148,0,0.275,0.042,0.382,0.123c0.107,0.082,0.187,0.21,0.237,0.386c0.037,0.122,0.055,0.346,0.055,0.668v0.928
		c0,0.166,0.014,0.279,0.04,0.339c0.019,0.047,0.052,0.083,0.098,0.108c0.045,0.028,0.129,0.041,0.251,0.041v0.103h-1.286v-0.103
		h0.061c0.121,0,0.206-0.019,0.255-0.056c0.047-0.037,0.08-0.093,0.1-0.165c0.006-0.03,0.009-0.119,0.009-0.268v-0.928
		c0-0.284-0.016-0.472-0.046-0.562c-0.029-0.09-0.075-0.158-0.142-0.202c-0.063-0.045-0.142-0.066-0.233-0.066
		c-0.093,0-0.19,0.024-0.291,0.073c-0.102,0.05-0.223,0.149-0.363,0.301v1.384c0,0.179,0.011,0.289,0.029,0.334
		c0.021,0.045,0.058,0.08,0.111,0.109c0.055,0.03,0.148,0.045,0.281,0.045v0.103h-1.297v-0.103c0.116,0,0.208-0.019,0.275-0.055
		c0.037-0.019,0.067-0.055,0.091-0.108c0.022-0.054,0.034-0.162,0.034-0.325v-2.37c0-0.298-0.008-0.483-0.021-0.552
		s-0.036-0.115-0.065-0.141c-0.03-0.024-0.069-0.037-0.119-0.037c-0.04,0-0.105,0.016-0.194,0.047l-0.039-0.101l0.782-0.32H85.729z"
		/>
</g>
<path fill="#D13239" d="M28.278,15.597l-3.327-3.327l-2.689,2.689l-1.777,1.778l0,0h1.238c-0.356,0.787-0.858,1.515-1.495,2.15
	c-1.294,1.294-3.016,2.047-4.847,2.121c-1.939,0.078-3.795-0.603-5.223-1.921c-1.427-1.317-2.257-3.111-2.335-5.051
	C7.74,11.984,8.496,10.053,9.95,8.599c1.294-1.294,3.015-2.047,4.846-2.122c0.981-0.039,1.941,0.117,2.834,0.45l-4.514,4.513
	l-1.021-1.02l0,0v6.317h6.317v-0.001l-1.021-1.02l4.512-4.513l2.602-2.601c0,0,0,0,0,0c0,0,0.001,0,0.001-0.001
	c1.172-1.173,1.178-3.071,0.019-4.252c-0.007-0.007-0.012-0.015-0.02-0.021c-0.015-0.014-0.029-0.025-0.043-0.039
	c-0.708-0.702-1.492-1.325-2.34-1.853c-2.19-1.366-4.797-2.111-7.57-1.999c-3.48,0.14-6.596,1.605-8.878,3.887
	c-2.538,2.539-4.048,6.087-3.892,9.956c0.296,7.349,6.493,13.067,13.842,12.771c3.479-0.141,6.596-1.605,8.878-3.889
	c1.741-1.739,2.998-3.956,3.565-6.425h1.349h0L28.278,15.597z"/>
</svg>
