<?xml version="1.0" encoding="utf-8"?>
<!-- Generator: Adobe Illustrator 16.0.0, SVG Export Plug-In . SVG Version: 6.00 Build 0)  -->
<!DOCTYPE svg PUBLIC "-//W3C//DTD SVG 1.1//EN" "http://www.w3.org/Graphics/SVG/1.1/DTD/svg11.dtd">
<svg version="1.1" id="Layer_1" xmlns="http://www.w3.org/2000/svg" xmlns:xlink="http://www.w3.org/1999/xlink" x="0px" y="0px"
	 width="150px" height="35px" viewBox="0 0 150 35" enable-background="new 0 0 150 35" xml:space="preserve">
<g>
	<path d="M42.763,14.243h-5.027l-0.598,1.386c-0.196,0.462-0.294,0.843-0.294,1.144c0,0.398,0.161,0.693,0.483,0.882
		c0.189,0.112,0.654,0.195,1.396,0.251v0.389h-4.733v-0.389c0.51-0.076,0.93-0.288,1.259-0.635c0.329-0.346,0.735-1.061,1.217-2.146
		l5.09-11.354h0.199l5.132,11.669c0.489,1.106,0.892,1.802,1.207,2.088c0.237,0.217,0.573,0.344,1.007,0.378v0.389h-6.884v-0.389
		H42.5c0.552,0,0.94-0.076,1.165-0.23c0.154-0.111,0.23-0.272,0.23-0.482c0-0.126-0.021-0.256-0.062-0.389
		c-0.014-0.062-0.12-0.324-0.315-0.786L42.763,14.243z M42.406,13.467l-2.12-4.9l-2.183,4.9H42.406z"/>
	<path d="M62.911,13.299l-0.536,4.995H49.741v-0.389h0.472c0.413,0,0.746-0.073,0.997-0.22c0.182-0.098,0.322-0.267,0.42-0.504
		c0.077-0.168,0.115-0.608,0.115-1.321V6.499c0-0.728-0.039-1.183-0.115-1.364c-0.077-0.182-0.233-0.341-0.467-0.478
		c-0.235-0.136-0.551-0.205-0.95-0.205h-0.472V4.064h7.587v0.389h-0.62c-0.413,0-0.745,0.073-0.996,0.22
		c-0.183,0.098-0.326,0.266-0.431,0.504c-0.077,0.167-0.116,0.608-0.116,1.322v9.067c0,0.728,0.042,1.19,0.126,1.39
		s0.248,0.349,0.493,0.446c0.175,0.063,0.598,0.095,1.27,0.095h1.186c0.756,0,1.386-0.133,1.889-0.399
		c0.504-0.266,0.939-0.685,1.307-1.259c0.368-0.574,0.715-1.421,1.044-2.54H62.911z"/>
	<path d="M73.772,4.883v5.845h0.409c0.63,0,1.144-0.095,1.542-0.283c0.399-0.189,0.736-0.507,1.014-0.955
		c0.275-0.448,0.456-1.053,0.54-1.815h0.367v7.146h-0.367c-0.133-1.35-0.495-2.24-1.086-2.67c-0.592-0.431-1.261-0.646-2.01-0.646
		h-0.409v4.356c0,0.727,0.04,1.182,0.12,1.363c0.081,0.182,0.238,0.341,0.474,0.478c0.233,0.137,0.55,0.204,0.948,0.204h0.473v0.389
		h-7.44v-0.389h0.473c0.412,0,0.745-0.073,0.997-0.22c0.182-0.098,0.322-0.267,0.419-0.504c0.077-0.168,0.116-0.608,0.116-1.321
		V6.499c0-0.728-0.039-1.183-0.116-1.364s-0.232-0.341-0.466-0.478c-0.235-0.136-0.551-0.205-0.95-0.205h-0.473V4.064h12.005v4.083
		h-0.43c-0.098-0.959-0.349-1.669-0.75-2.131c-0.402-0.461-0.985-0.787-1.747-0.976c-0.42-0.105-1.197-0.157-2.331-0.157H73.772z"/>
	<path d="M88.339,14.243h-5.027l-0.599,1.386c-0.195,0.462-0.293,0.843-0.293,1.144c0,0.398,0.161,0.693,0.482,0.882
		c0.189,0.112,0.654,0.195,1.396,0.251v0.389h-4.732v-0.389c0.51-0.076,0.93-0.288,1.26-0.635c0.328-0.346,0.734-1.061,1.217-2.146
		l5.09-11.354h0.199l5.132,11.669c0.489,1.106,0.892,1.802,1.206,2.088c0.238,0.217,0.574,0.344,1.008,0.378v0.389h-6.884v-0.389
		h0.282c0.553,0,0.942-0.076,1.166-0.23c0.153-0.111,0.23-0.272,0.23-0.482c0-0.126-0.021-0.256-0.062-0.389
		c-0.015-0.062-0.119-0.324-0.315-0.786L88.339,14.243z M87.981,13.467l-2.12-4.9l-2.183,4.9H87.981z"/>
	<path d="M100.795,11.452v4.408c0,0.727,0.04,1.182,0.121,1.363c0.079,0.182,0.237,0.341,0.472,0.478s0.551,0.204,0.95,0.204h0.472
		v0.389h-7.44v-0.389h0.472c0.414,0,0.746-0.073,0.997-0.22c0.183-0.098,0.322-0.267,0.42-0.504
		c0.077-0.168,0.116-0.608,0.116-1.321V6.499c0-0.728-0.039-1.183-0.116-1.364c-0.076-0.182-0.231-0.341-0.467-0.478
		c-0.234-0.136-0.551-0.205-0.95-0.205h-0.472V4.064h7.44v0.389h-0.472c-0.413,0-0.746,0.073-0.997,0.22
		c-0.183,0.098-0.326,0.266-0.431,0.504c-0.076,0.167-0.115,0.608-0.115,1.322v4.029h5.026V6.499c0-0.728-0.038-1.183-0.115-1.364
		s-0.234-0.341-0.473-0.478c-0.237-0.136-0.556-0.205-0.954-0.205h-0.462V4.064h7.43v0.389h-0.462c-0.419,0-0.752,0.073-0.997,0.22
		c-0.182,0.098-0.325,0.266-0.431,0.504c-0.076,0.167-0.115,0.608-0.115,1.322v9.361c0,0.727,0.039,1.182,0.115,1.363
		c0.077,0.182,0.234,0.341,0.473,0.478s0.557,0.204,0.955,0.204h0.462v0.389h-7.43v-0.389h0.462c0.42,0,0.752-0.073,0.996-0.22
		c0.182-0.098,0.326-0.267,0.431-0.504c0.077-0.168,0.115-0.608,0.115-1.321v-4.408H100.795z"/>
	<path d="M120.576,14.243h-5.027l-0.598,1.386c-0.196,0.462-0.295,0.843-0.295,1.144c0,0.398,0.162,0.693,0.483,0.882
		c0.189,0.112,0.654,0.195,1.396,0.251v0.389h-4.733v-0.389c0.511-0.076,0.931-0.288,1.26-0.635
		c0.329-0.346,0.734-1.061,1.217-2.146l5.091-11.354h0.198l5.132,11.669c0.489,1.106,0.892,1.802,1.206,2.088
		c0.238,0.217,0.574,0.344,1.008,0.378v0.389h-6.885v-0.389h0.284c0.553,0,0.94-0.076,1.165-0.23c0.153-0.111,0.23-0.272,0.23-0.482
		c0-0.126-0.021-0.256-0.063-0.389c-0.014-0.062-0.118-0.324-0.314-0.786L120.576,14.243z M120.219,13.467l-2.119-4.9l-2.184,4.9
		H120.219z"/>
	<path d="M127.438,18.294v-0.389h0.473c0.413,0,0.729-0.063,0.95-0.193s0.383-0.307,0.487-0.53c0.063-0.146,0.095-0.587,0.095-1.321
		V6.499c0-0.728-0.038-1.183-0.116-1.364c-0.076-0.182-0.231-0.341-0.466-0.478s-0.551-0.205-0.95-0.205h-0.473V4.064h6.37
		c1.7,0,3.068,0.231,4.104,0.693c1.267,0.566,2.227,1.423,2.881,2.57c0.654,1.148,0.98,2.446,0.98,3.894
		c0,1-0.161,1.922-0.482,2.765c-0.321,0.844-0.737,1.54-1.248,2.089c-0.512,0.549-1.101,0.989-1.769,1.322
		c-0.668,0.332-1.485,0.589-2.451,0.771c-0.427,0.084-1.099,0.126-2.015,0.126H127.438z M132.865,4.873v11.103
		c0,0.587,0.027,0.947,0.083,1.08s0.151,0.234,0.283,0.305c0.189,0.105,0.462,0.157,0.819,0.157c1.168,0,2.06-0.399,2.676-1.196
		c0.839-1.077,1.259-2.75,1.259-5.017c0-1.825-0.287-3.285-0.86-4.375c-0.454-0.854-1.039-1.435-1.752-1.742
		C134.869,4.97,134.032,4.865,132.865,4.873z"/>
</g>
<g>
	<path fill="#D13239" d="M93.29,25.559v-0.598c-0.077,0.17-0.198,0.302-0.364,0.397c-0.16,0.088-0.336,0.133-0.529,0.133
		c-0.369,0-0.67-0.133-0.904-0.395c-0.224-0.254-0.336-0.567-0.336-0.94c0-0.367,0.118-0.667,0.355-0.898
		c0.236-0.231,0.539-0.348,0.907-0.348c0.349,0,0.635,0.168,0.859,0.504c0.051-0.146,0.119-0.292,0.202-0.439h0.523l0.203-0.006
		v0.032c-0.142,0.032-0.228,0.162-0.258,0.391c-0.009,0.052-0.013,0.225-0.013,0.52v1.382h0.539v0.266H93.29z M91.547,22.2
		c0-0.105,0.036-0.194,0.109-0.266c0.073-0.07,0.163-0.105,0.269-0.105c0.107,0,0.197,0.034,0.27,0.104
		c0.072,0.069,0.107,0.158,0.107,0.267c0,0.106-0.036,0.195-0.109,0.263c-0.073,0.068-0.163,0.102-0.268,0.102
		c-0.108,0-0.198-0.033-0.27-0.102C91.583,22.396,91.547,22.307,91.547,22.2z M91.757,24.218c0,0.28,0.059,0.51,0.177,0.688
		c0.141,0.214,0.344,0.321,0.611,0.321c0.267,0,0.468-0.106,0.604-0.317c0.114-0.176,0.171-0.407,0.171-0.691
		c0-0.288-0.058-0.521-0.175-0.697c-0.135-0.21-0.338-0.316-0.606-0.316c-0.268,0-0.47,0.106-0.606,0.319
		C91.814,23.705,91.757,23.937,91.757,24.218z M92.499,22.2c0-0.105,0.037-0.194,0.11-0.266c0.072-0.07,0.161-0.105,0.268-0.105
		c0.107,0,0.197,0.034,0.27,0.104c0.072,0.069,0.108,0.158,0.108,0.267c0,0.106-0.037,0.195-0.11,0.263
		c-0.073,0.068-0.162,0.102-0.268,0.102c-0.107,0-0.197-0.033-0.27-0.102C92.535,22.396,92.499,22.307,92.499,22.2z"/>
	<path fill="#D13239" d="M96.255,25.293H96.7v0.266h-2.312v-0.266h1.25v-1.575c0-0.191-0.01-0.317-0.032-0.378
		c-0.041-0.119-0.136-0.183-0.283-0.19v-0.042c0.369-0.048,0.692-0.115,0.968-0.203c-0.023,0.333-0.035,0.68-0.035,1.039V25.293z
		 M94.611,26.221c0-0.105,0.037-0.195,0.109-0.267c0.073-0.073,0.163-0.108,0.269-0.108c0.107,0,0.197,0.035,0.27,0.106
		c0.071,0.071,0.108,0.16,0.108,0.269c0,0.104-0.037,0.192-0.11,0.261c-0.073,0.069-0.162,0.104-0.268,0.104
		c-0.108,0-0.197-0.034-0.27-0.102C94.647,26.415,94.611,26.328,94.611,26.221z M95.483,26.221c0-0.105,0.036-0.195,0.109-0.267
		c0.073-0.073,0.163-0.108,0.268-0.108c0.108,0,0.198,0.035,0.271,0.106s0.107,0.16,0.107,0.269c0,0.104-0.036,0.192-0.109,0.261
		c-0.073,0.069-0.162,0.104-0.269,0.104c-0.107,0-0.197-0.034-0.27-0.102C95.519,26.415,95.483,26.328,95.483,26.221z"/>
	<path fill="#D13239" d="M99.811,22.736l-0.224,0.517h-0.035c-0.132-0.545-0.524-0.817-1.179-0.817
		c-0.207,0-0.387,0.097-0.539,0.291c-0.143,0.183-0.214,0.38-0.214,0.591c0,0.349,0.288,0.523,0.863,0.523h1.999
		c0.589,0,0.881,0.307,0.875,0.923c-0.005,0.431,0.119,0.687,0.371,0.769l-0.003,0.026h-5.122v-0.266h4.404
		c-0.181-0.156-0.271-0.322-0.271-0.497v-0.283c0-0.274-0.245-0.41-0.733-0.41h-1.667c-0.878,0-1.316-0.24-1.316-0.717
		c0-0.335,0.137-0.602,0.41-0.802c0.243-0.179,0.536-0.268,0.882-0.268C98.826,22.316,99.325,22.456,99.811,22.736z"/>
	<path fill="#D13239" d="M104.599,25.293h0.799v0.266h-2.846c-0.189,0-0.3-0.144-0.33-0.43c0.102,0.109,0.199,0.164,0.294,0.164
		h1.302c0.362,0,0.562-0.249,0.601-0.745c-0.025-0.336-0.104-0.646-0.235-0.931c-0.175-0.385-0.402-0.577-0.685-0.577
		c-0.091,0-0.184,0.033-0.279,0.1s-0.163,0.142-0.202,0.226c-0.043,0.093-0.064,0.196-0.064,0.311c0,0.131,0.022,0.226,0.067,0.284
		c0.082,0.107,0.126,0.165,0.129,0.171c-0.009,0.011-0.044,0.02-0.105,0.025c-0.08-0.001-0.153-0.003-0.22-0.003
		c-0.114,0-0.31,0.007-0.585,0.02v-0.042c0.1-0.027,0.167-0.067,0.204-0.12c0.036-0.051,0.055-0.13,0.055-0.235v-0.119
		c0-0.097-0.003-0.195-0.01-0.294c0.279-0.284,0.625-0.426,1.036-0.426c0.407,0,0.756,0.164,1.046,0.491
		c0.282,0.313,0.424,0.676,0.424,1.085C104.993,24.835,104.861,25.096,104.599,25.293z M103.085,22.142
		c0-0.107,0.036-0.197,0.109-0.268c0.073-0.071,0.162-0.107,0.268-0.107c0.108,0,0.198,0.036,0.27,0.107
		c0.072,0.07,0.109,0.16,0.109,0.268c0,0.105-0.037,0.192-0.11,0.262s-0.162,0.104-0.269,0.104s-0.196-0.033-0.27-0.103
		C103.121,22.337,103.085,22.249,103.085,22.142z"/>
	<path fill="#D13239" d="M105.315,25.293h0.753c-0.159-0.09-0.239-0.282-0.239-0.577v-2.955c0-0.187-0.01-0.309-0.029-0.365
		c-0.038-0.113-0.129-0.175-0.271-0.184V21.17c0.247-0.021,0.525-0.088,0.836-0.2c-0.02,0.304-0.029,0.647-0.029,1.033v2.477
		c0,0.246,0.013,0.447,0.039,0.604c0.039,0.244,0.139,0.402,0.3,0.476h-1.359V25.293z"/>
	<path fill="#D13239" d="M107.06,25.574l-0.003-0.042c0.179-0.051,0.288-0.196,0.329-0.436c0.015-0.077,0.022-0.276,0.022-0.598
		v-2.738c0-0.187-0.01-0.309-0.029-0.365c-0.038-0.113-0.13-0.175-0.274-0.184V21.17c0.25-0.021,0.53-0.088,0.84-0.2
		c-0.02,0.304-0.028,0.647-0.026,1.033v2.477c0.018,0.347,0.03,0.549,0.036,0.607c0.038,0.25,0.147,0.398,0.326,0.445v0.042
		c-0.205-0.011-0.402-0.016-0.594-0.016C107.436,25.559,107.228,25.563,107.06,25.574z"/>
	<path fill="#D13239" d="M111.574,25.559v-0.598c-0.078,0.17-0.199,0.302-0.365,0.397c-0.159,0.088-0.336,0.133-0.529,0.133
		c-0.368,0-0.67-0.133-0.905-0.395c-0.223-0.254-0.335-0.567-0.335-0.94c0-0.367,0.119-0.667,0.355-0.898s0.539-0.348,0.907-0.348
		c0.349,0,0.635,0.168,0.859,0.504c0.052-0.146,0.119-0.292,0.203-0.439h0.523l0.203-0.006v0.032
		c-0.143,0.032-0.228,0.162-0.258,0.391c-0.009,0.052-0.014,0.225-0.014,0.52v1.382h0.54v0.266H111.574z M109.83,22.2
		c0-0.105,0.037-0.194,0.11-0.266c0.072-0.07,0.162-0.105,0.268-0.105c0.107,0,0.197,0.034,0.27,0.104
		c0.072,0.069,0.108,0.158,0.108,0.267c0,0.106-0.037,0.195-0.109,0.263c-0.073,0.068-0.163,0.102-0.269,0.102
		c-0.107,0-0.197-0.033-0.27-0.102C109.866,22.396,109.83,22.307,109.83,22.2z M110.04,24.218c0,0.28,0.059,0.51,0.178,0.688
		c0.14,0.214,0.343,0.321,0.61,0.321c0.267,0,0.468-0.106,0.604-0.317c0.115-0.176,0.172-0.407,0.172-0.691
		c0-0.288-0.059-0.521-0.175-0.697c-0.136-0.21-0.338-0.316-0.607-0.316c-0.267,0-0.469,0.106-0.606,0.319
		C110.099,23.705,110.04,23.937,110.04,24.218z M110.783,22.2c0-0.105,0.036-0.194,0.109-0.266c0.073-0.07,0.163-0.105,0.268-0.105
		c0.108,0,0.198,0.034,0.27,0.104c0.073,0.069,0.108,0.158,0.108,0.267c0,0.106-0.036,0.195-0.109,0.263
		c-0.073,0.068-0.163,0.102-0.269,0.102c-0.107,0-0.197-0.033-0.27-0.102C110.818,22.396,110.783,22.307,110.783,22.2z"/>
	<path fill="#D13239" d="M115.823,25.293h0.536v0.266h-0.694c-0.038,0.049-0.08,0.096-0.125,0.139
		c-0.259,0.243-0.599,0.365-1.018,0.365c-0.409,0-0.741-0.123-0.994-0.368c-0.046-0.043-0.087-0.089-0.123-0.136h-0.733v-0.266
		h0.578c-0.071-0.167-0.106-0.354-0.106-0.562c0-0.392,0.137-0.707,0.409-0.946c0.259-0.226,0.587-0.339,0.985-0.339
		c0.405,0,0.734,0.116,0.988,0.349c0.265,0.241,0.397,0.561,0.397,0.96C115.924,24.954,115.891,25.134,115.823,25.293z
		 M113.73,24.744c0,0.334,0.054,0.605,0.162,0.814c0.137,0.275,0.357,0.413,0.659,0.413c0.294,0,0.51-0.138,0.645-0.413
		c0.106-0.209,0.158-0.479,0.158-0.812c0-0.333-0.052-0.603-0.158-0.807c-0.139-0.271-0.359-0.406-0.661-0.406
		c-0.29,0-0.506,0.136-0.643,0.409C113.784,24.156,113.73,24.424,113.73,24.744z"/>
	<path fill="#D13239" d="M116.275,25.559v-0.266h0.526v-3.619c0-0.166-0.012-0.278-0.035-0.336
		c-0.038-0.099-0.127-0.153-0.265-0.161v-0.046c0.232-0.027,0.491-0.093,0.774-0.193v2.838c0.175-0.581,0.551-0.871,1.128-0.871
		c0.406,0,0.698,0.123,0.878,0.37c0.153,0.212,0.229,0.53,0.229,0.957v0.235c0,0.433,0.022,0.709,0.068,0.826h0.384v0.266H116.275z
		 M119.095,25.293c-0.061-0.072-0.097-0.163-0.109-0.271v-0.746c0-0.342-0.042-0.597-0.126-0.762
		c-0.116-0.225-0.326-0.347-0.63-0.368c-0.461,0.029-0.743,0.313-0.847,0.852c-0.031,0.168-0.048,0.6-0.048,1.295H119.095z
		 M117.762,22.113c0-0.106,0.036-0.194,0.108-0.266c0.074-0.071,0.164-0.106,0.272-0.106c0.106,0,0.196,0.035,0.27,0.105
		c0.071,0.069,0.107,0.158,0.107,0.267c0,0.106-0.036,0.194-0.109,0.263c-0.073,0.067-0.162,0.102-0.268,0.102
		c-0.108,0-0.198-0.034-0.272-0.102C117.798,22.308,117.762,22.22,117.762,22.113z"/>
	<path fill="#D13239" d="M119.88,25.293h1.349c-0.104-0.107-0.173-0.225-0.203-0.352c-0.019-0.084-0.028-0.238-0.028-0.462v-0.762
		c0-0.191-0.011-0.317-0.033-0.378c-0.04-0.119-0.135-0.183-0.283-0.19v-0.042c0.37-0.048,0.692-0.115,0.968-0.203
		c-0.023,0.333-0.035,0.68-0.035,1.039v0.439c0,0.358,0.008,0.576,0.023,0.655c0.042,0.27,0.159,0.435,0.348,0.494l-0.003,0.026
		h-2.102V25.293z M120.035,22.193c0-0.105,0.036-0.194,0.108-0.267c0.074-0.072,0.163-0.107,0.269-0.107
		c0.107,0,0.198,0.035,0.271,0.106c0.073,0.07,0.109,0.16,0.109,0.268c0,0.105-0.036,0.192-0.109,0.262s-0.164,0.104-0.271,0.104
		c-0.105,0-0.194-0.034-0.269-0.103C120.071,22.389,120.035,22.301,120.035,22.193z"/>
	<path fill="#D13239" d="M123.564,25.871c-0.545-0.312-0.817-0.741-0.817-1.288v-2.321c0-0.188-0.01-0.31-0.029-0.365
		c-0.039-0.112-0.131-0.172-0.274-0.181v-0.042c0.249-0.021,0.53-0.089,0.84-0.204c-0.021,0.312-0.03,0.658-0.026,1.037v2.079
		C123.271,25.066,123.373,25.494,123.564,25.871z M122.533,21.254V21.16h0.137c-0.083-0.058-0.123-0.129-0.123-0.213
		c0-0.089,0.042-0.156,0.126-0.204c0.071-0.039,0.154-0.058,0.249-0.058c0.104,0,0.193,0.019,0.271,0.058l-0.035,0.146l-0.013-0.003
		c-0.039-0.112-0.108-0.168-0.207-0.168c-0.066,0-0.126,0.022-0.18,0.067c-0.052,0.046-0.079,0.1-0.079,0.162
		c0,0.075,0.048,0.146,0.143,0.213h0.336c0.026,0,0.051-0.011,0.078-0.032c-0.01,0.084-0.039,0.126-0.091,0.126H122.533z
		 M124.345,25.293h0.466v0.266h-0.568c-0.043,0.088-0.095,0.169-0.155,0.242c-0.189,0.238-0.506,0.358-0.949,0.358
		c-0.073,0-0.151-0.003-0.235-0.01c-0.061-0.004-0.149-0.015-0.269-0.029l0.175-0.559h0.032c0.028,0.129,0.089,0.237,0.181,0.326
		c0.066,0.064,0.167,0.097,0.301,0.097c0.047,0,0.101-0.005,0.161-0.013c0.185-0.028,0.312-0.182,0.381-0.462
		c0.05-0.202,0.069-0.479,0.058-0.833v-2.842c0-0.229-0.016-0.368-0.048-0.413c-0.036-0.14-0.132-0.214-0.284-0.223v-0.042
		c0.248-0.032,0.525-0.099,0.833-0.201v3.724C124.423,24.905,124.396,25.11,124.345,25.293z"/>
	<path fill="#D13239" d="M124.717,25.293h0.752c-0.159-0.09-0.238-0.282-0.238-0.577v-2.955c0-0.187-0.011-0.309-0.029-0.365
		c-0.039-0.113-0.129-0.175-0.271-0.184V21.17c0.248-0.021,0.527-0.088,0.836-0.2c-0.019,0.304-0.028,0.647-0.028,1.033v2.477
		c0,0.246,0.014,0.447,0.038,0.604c0.039,0.244,0.139,0.402,0.301,0.476h-1.359V25.293z"/>
	<path fill="#D13239" d="M129.583,25.293h0.798v0.266h-2.845c-0.19,0-0.3-0.144-0.329-0.43c0.101,0.109,0.198,0.164,0.294,0.164
		h1.301c0.362,0,0.562-0.249,0.601-0.745c-0.026-0.336-0.104-0.646-0.236-0.931c-0.174-0.385-0.402-0.577-0.684-0.577
		c-0.09,0-0.184,0.033-0.279,0.1s-0.164,0.142-0.202,0.226c-0.044,0.093-0.064,0.196-0.064,0.311c0,0.131,0.022,0.226,0.067,0.284
		c0.083,0.107,0.124,0.165,0.129,0.171c-0.008,0.011-0.043,0.02-0.106,0.025c-0.079-0.001-0.152-0.003-0.219-0.003
		c-0.114,0-0.31,0.007-0.585,0.02v-0.042c0.099-0.027,0.166-0.067,0.204-0.12c0.036-0.051,0.054-0.13,0.054-0.235v-0.119
		c0-0.097-0.003-0.195-0.009-0.294c0.279-0.284,0.625-0.426,1.036-0.426c0.407,0,0.756,0.164,1.046,0.491
		c0.282,0.313,0.424,0.676,0.424,1.085C129.978,24.835,129.846,25.096,129.583,25.293z"/>
	<path fill="#D13239" d="M134.646,25.293h0.743v0.266h-5.089v-0.266h1.052c-0.331-0.213-0.497-0.514-0.497-0.9
		c0-0.329,0.134-0.596,0.4-0.798c0.234-0.176,0.524-0.274,0.869-0.293l-0.045-0.56c0.206-0.068,0.43-0.106,0.671-0.112
		c0.239-0.005,0.476,0.025,0.711,0.09c0.462,0.129,0.858,0.369,1.188,0.72c0.272,0.296,0.409,0.619,0.409,0.972
		c0,0.071-0.005,0.145-0.017,0.217C134.999,24.919,134.866,25.141,134.646,25.293z M131.772,25.293h0.969
		c0.218-0.174,0.326-0.469,0.326-0.884c0-0.657-0.251-1.001-0.753-1.033c-0.043,0.083-0.079,0.18-0.108,0.287l-0.052-0.01
		l-0.02-0.271c-0.241,0.027-0.421,0.148-0.54,0.361c-0.099,0.175-0.148,0.395-0.148,0.659
		C131.446,24.824,131.556,25.121,131.772,25.293z M133.145,25.29c0.351-0.011,0.605-0.059,0.762-0.146
		c0.18-0.099,0.308-0.215,0.385-0.349c0.062-0.109,0.094-0.272,0.094-0.487c0-0.05-0.002-0.104-0.007-0.161
		c-0.017-0.304-0.104-0.567-0.258-0.791c-0.168-0.237-0.394-0.395-0.675-0.472c-0.105-0.03-0.206-0.046-0.304-0.046
		c-0.338,0-0.6,0.154-0.784,0.463c0.353,0.017,0.646,0.114,0.882,0.293c0.264,0.202,0.397,0.474,0.397,0.814
		C133.637,24.788,133.473,25.082,133.145,25.29z"/>
	<path fill="#D13239" d="M135.747,24.202c0-0.392,0.138-0.707,0.411-0.946c0.258-0.227,0.586-0.339,0.984-0.339
		c0.404,0,0.733,0.117,0.988,0.352c0.265,0.239,0.397,0.558,0.397,0.956c0,0.388-0.129,0.702-0.385,0.946
		c-0.05,0.045-0.102,0.086-0.158,0.122h0.914v0.266h-3.597v-0.266h0.987c-0.059-0.038-0.111-0.083-0.162-0.132
		C135.875,24.916,135.747,24.597,135.747,24.202z M136.335,24.215c0,0.523,0.122,0.883,0.366,1.078h0.896
		c0.239-0.197,0.359-0.556,0.359-1.075c0-0.331-0.054-0.601-0.159-0.807c-0.138-0.271-0.356-0.406-0.658-0.406
		c-0.291,0-0.506,0.136-0.646,0.409C136.389,23.627,136.335,23.894,136.335,24.215z M136.716,22.045c0-0.105,0.037-0.193,0.11-0.265
		s0.162-0.106,0.268-0.106c0.108,0,0.198,0.035,0.271,0.104c0.073,0.07,0.109,0.159,0.109,0.267c0,0.105-0.036,0.192-0.109,0.262
		c-0.073,0.068-0.163,0.104-0.271,0.104c-0.107,0-0.197-0.034-0.27-0.103C136.752,22.24,136.716,22.152,136.716,22.045z"/>
	<path fill="#D13239" d="M138.815,25.293h0.752c-0.159-0.09-0.239-0.282-0.239-0.577v-2.955c0-0.187-0.01-0.309-0.028-0.365
		c-0.038-0.113-0.13-0.175-0.271-0.184V21.17c0.248-0.021,0.526-0.088,0.837-0.2c-0.02,0.304-0.03,0.647-0.03,1.033v2.477
		c0,0.246,0.014,0.447,0.039,0.604c0.039,0.244,0.14,0.402,0.301,0.476h-1.359V25.293z"/>
	<path fill="#D13239" d="M140.56,25.574l-0.004-0.042c0.179-0.051,0.289-0.196,0.329-0.436c0.016-0.077,0.022-0.276,0.022-0.598
		v-2.738c0-0.187-0.009-0.309-0.028-0.365c-0.038-0.113-0.131-0.175-0.274-0.184V21.17c0.249-0.021,0.529-0.088,0.84-0.2
		c-0.02,0.304-0.028,0.647-0.026,1.033v2.477c0.018,0.347,0.029,0.549,0.035,0.607c0.039,0.25,0.147,0.398,0.327,0.445v0.042
		c-0.205-0.011-0.402-0.016-0.595-0.016C140.937,25.559,140.728,25.563,140.56,25.574z"/>
</g>
<g>
	<path fill="#D13239" d="M36.528,24.33h-1.439l-0.252,0.586c-0.062,0.145-0.094,0.253-0.094,0.323c0,0.057,0.027,0.107,0.082,0.149
		c0.054,0.044,0.17,0.072,0.349,0.084v0.102h-1.171v-0.102c0.155-0.027,0.256-0.063,0.302-0.107c0.093-0.087,0.197-0.266,0.31-0.534
		l1.309-3.061h0.096l1.295,3.094c0.104,0.248,0.199,0.41,0.284,0.484c0.085,0.074,0.204,0.115,0.355,0.124v0.102h-1.467v-0.102
		c0.148-0.007,0.248-0.031,0.3-0.074c0.052-0.042,0.078-0.093,0.078-0.153c0-0.081-0.037-0.207-0.11-0.381L36.528,24.33z
		 M36.452,24.126l-0.631-1.503l-0.647,1.503H36.452z"/>
	<path fill="#D13239" d="M39.054,21.674v3.333c0,0.157,0.011,0.262,0.034,0.312c0.023,0.052,0.058,0.09,0.105,0.117
		c0.047,0.026,0.136,0.039,0.266,0.039v0.099h-1.231v-0.099c0.115,0,0.194-0.012,0.236-0.036c0.042-0.023,0.075-0.063,0.099-0.117
		c0.023-0.055,0.036-0.16,0.036-0.315v-2.282c0-0.283-0.006-0.457-0.02-0.522c-0.013-0.065-0.033-0.109-0.062-0.133
		c-0.029-0.024-0.064-0.036-0.108-0.036c-0.047,0-0.108,0.015-0.181,0.045l-0.046-0.097l0.749-0.308H39.054z"/>
	<path fill="#D13239" d="M42.129,22.058v1.463h0.678c0.155,0,0.269-0.035,0.341-0.104c0.072-0.068,0.12-0.205,0.144-0.406h0.102
		v1.258h-0.102c-0.002-0.145-0.021-0.25-0.056-0.317c-0.036-0.068-0.085-0.119-0.148-0.152c-0.063-0.034-0.157-0.051-0.281-0.051
		h-0.678v1.168c0,0.188,0.012,0.313,0.036,0.373c0.018,0.046,0.057,0.085,0.115,0.117c0.081,0.045,0.165,0.066,0.252,0.066h0.135
		v0.102H41.07v-0.102h0.132c0.153,0,0.265-0.045,0.334-0.135c0.043-0.058,0.065-0.198,0.065-0.422v-2.402
		c0-0.188-0.012-0.313-0.036-0.373c-0.018-0.046-0.056-0.085-0.112-0.118c-0.079-0.044-0.163-0.065-0.252-0.065H41.07v-0.103h2.768
		l0.036,0.818h-0.096c-0.048-0.174-0.103-0.302-0.166-0.383s-0.141-0.141-0.233-0.177c-0.093-0.037-0.235-0.056-0.43-0.056H42.129z"
		/>
	<path fill="#D13239" d="M45.703,25.212c-0.258,0.2-0.42,0.314-0.486,0.347c-0.098,0.045-0.204,0.068-0.315,0.068
		c-0.174,0-0.316-0.06-0.429-0.179c-0.112-0.119-0.169-0.275-0.169-0.47c0-0.122,0.027-0.228,0.083-0.317
		c0.075-0.124,0.206-0.241,0.391-0.352c0.186-0.109,0.494-0.243,0.926-0.399v-0.099c0-0.251-0.04-0.423-0.119-0.516
		c-0.08-0.095-0.195-0.141-0.347-0.141c-0.115,0-0.207,0.031-0.274,0.093c-0.069,0.062-0.104,0.134-0.104,0.215l0.005,0.158
		c0,0.084-0.021,0.149-0.064,0.195s-0.099,0.068-0.168,0.068c-0.068,0-0.123-0.024-0.166-0.071
		c-0.043-0.048-0.064-0.112-0.064-0.195c0-0.157,0.081-0.302,0.241-0.434c0.161-0.131,0.387-0.196,0.678-0.196
		c0.223,0,0.406,0.037,0.548,0.112c0.108,0.057,0.188,0.145,0.239,0.266c0.033,0.079,0.049,0.239,0.049,0.483v0.853
		c0,0.239,0.004,0.387,0.014,0.44s0.024,0.09,0.045,0.108c0.021,0.018,0.046,0.027,0.073,0.027c0.029,0,0.055-0.007,0.077-0.02
		c0.039-0.023,0.112-0.09,0.222-0.2v0.153c-0.205,0.274-0.4,0.412-0.587,0.412c-0.089,0-0.161-0.032-0.214-0.094
		C45.732,25.469,45.704,25.362,45.703,25.212z M45.703,25.034v-0.958c-0.276,0.11-0.455,0.188-0.535,0.233
		c-0.145,0.08-0.248,0.165-0.31,0.252c-0.062,0.089-0.093,0.186-0.093,0.289c0,0.131,0.04,0.24,0.118,0.327
		c0.079,0.087,0.169,0.131,0.271,0.131C45.293,25.309,45.476,25.217,45.703,25.034z"/>
	<path fill="#D13239" d="M47.51,21.674v1.838c0.203-0.224,0.364-0.366,0.483-0.429c0.119-0.063,0.237-0.095,0.356-0.095
		c0.143,0,0.265,0.039,0.368,0.117c0.102,0.079,0.178,0.202,0.228,0.371c0.035,0.116,0.052,0.33,0.052,0.641v0.89
		c0,0.159,0.013,0.268,0.038,0.326c0.018,0.043,0.049,0.079,0.093,0.104c0.044,0.027,0.125,0.039,0.241,0.039v0.099h-1.234v-0.099
		h0.057c0.117,0,0.199-0.018,0.244-0.053c0.046-0.036,0.078-0.089,0.097-0.158c0.005-0.029,0.008-0.115,0.008-0.258v-0.89
		c0-0.273-0.015-0.453-0.043-0.54c-0.028-0.086-0.073-0.149-0.136-0.193c-0.062-0.043-0.137-0.064-0.225-0.064
		c-0.09,0-0.183,0.024-0.28,0.072c-0.097,0.047-0.213,0.144-0.348,0.288v1.327c0,0.172,0.009,0.279,0.029,0.32
		c0.02,0.043,0.055,0.078,0.107,0.106c0.052,0.027,0.142,0.042,0.271,0.042v0.099h-1.246v-0.099c0.111,0,0.199-0.018,0.263-0.052
		c0.037-0.019,0.066-0.053,0.088-0.104c0.022-0.051,0.033-0.155,0.033-0.312v-2.274c0-0.286-0.007-0.464-0.021-0.529
		s-0.035-0.11-0.063-0.134c-0.028-0.024-0.066-0.036-0.114-0.036c-0.038,0-0.101,0.015-0.187,0.045l-0.039-0.097l0.752-0.308H47.51z
		"/>
	<path fill="#D13239" d="M51.005,25.212c-0.258,0.2-0.42,0.314-0.486,0.347c-0.099,0.045-0.204,0.068-0.315,0.068
		c-0.173,0-0.316-0.06-0.429-0.179c-0.112-0.119-0.168-0.275-0.168-0.47c0-0.122,0.027-0.228,0.082-0.317
		c0.075-0.124,0.206-0.241,0.391-0.352c0.186-0.109,0.495-0.243,0.926-0.399v-0.099c0-0.251-0.04-0.423-0.12-0.516
		c-0.08-0.095-0.195-0.141-0.347-0.141c-0.116,0-0.207,0.031-0.274,0.093c-0.07,0.062-0.104,0.134-0.104,0.215l0.006,0.158
		c0,0.084-0.022,0.149-0.064,0.195c-0.043,0.046-0.1,0.068-0.169,0.068c-0.068,0-0.123-0.024-0.166-0.071
		c-0.043-0.048-0.065-0.112-0.065-0.195c0-0.157,0.081-0.302,0.241-0.434c0.161-0.131,0.387-0.196,0.678-0.196
		c0.223,0,0.406,0.037,0.548,0.112c0.108,0.057,0.188,0.145,0.239,0.266c0.033,0.079,0.049,0.239,0.049,0.483v0.853
		c0,0.239,0.005,0.387,0.014,0.44c0.01,0.054,0.025,0.09,0.045,0.108c0.021,0.018,0.045,0.027,0.073,0.027
		c0.029,0,0.055-0.007,0.077-0.02c0.039-0.023,0.113-0.09,0.222-0.2v0.153c-0.205,0.274-0.4,0.412-0.587,0.412
		c-0.089,0-0.16-0.032-0.213-0.094S51.006,25.362,51.005,25.212z M51.005,25.034v-0.958c-0.276,0.11-0.455,0.188-0.535,0.233
		c-0.145,0.08-0.248,0.165-0.311,0.252c-0.062,0.089-0.093,0.186-0.093,0.289c0,0.131,0.039,0.24,0.118,0.327
		s0.169,0.131,0.271,0.131C50.595,25.309,50.778,25.217,51.005,25.034z"/>
	<path fill="#D13239" d="M53.849,25.292c-0.123,0.128-0.243,0.22-0.36,0.275c-0.117,0.056-0.243,0.084-0.378,0.084
		c-0.274,0-0.514-0.114-0.719-0.344c-0.205-0.23-0.307-0.525-0.307-0.886c0-0.359,0.113-0.689,0.34-0.988
		c0.227-0.299,0.519-0.448,0.875-0.448c0.221,0,0.404,0.07,0.549,0.211v-0.464c0-0.286-0.007-0.464-0.021-0.529
		s-0.035-0.11-0.065-0.134c-0.029-0.024-0.066-0.036-0.109-0.036c-0.048,0-0.111,0.015-0.189,0.045l-0.036-0.097l0.749-0.308h0.124
		v2.905c0,0.294,0.007,0.474,0.021,0.538c0.014,0.065,0.035,0.11,0.066,0.137c0.03,0.024,0.065,0.038,0.105,0.038
		c0.049,0,0.115-0.016,0.198-0.047l0.03,0.096l-0.747,0.311h-0.126V25.292z M53.849,25.1v-1.294
		c-0.011-0.125-0.044-0.238-0.099-0.341c-0.055-0.103-0.127-0.179-0.218-0.231c-0.091-0.052-0.179-0.078-0.265-0.078
		c-0.161,0-0.304,0.072-0.431,0.217c-0.167,0.19-0.25,0.468-0.25,0.834c0,0.369,0.081,0.652,0.241,0.849
		c0.162,0.196,0.341,0.295,0.538,0.295C53.533,25.35,53.693,25.266,53.849,25.1z"/>
	<path fill="#D13239" d="M58.688,21.771v1.286h-0.102c-0.032-0.247-0.091-0.443-0.177-0.59c-0.085-0.146-0.206-0.262-0.363-0.349
		c-0.157-0.086-0.32-0.129-0.488-0.129c-0.19,0-0.347,0.059-0.472,0.174c-0.124,0.117-0.187,0.249-0.187,0.397
		c0,0.112,0.04,0.217,0.118,0.31c0.113,0.138,0.383,0.32,0.809,0.549c0.347,0.186,0.584,0.329,0.711,0.429s0.225,0.218,0.294,0.353
		c0.068,0.135,0.103,0.276,0.103,0.425c0,0.282-0.109,0.525-0.328,0.729c-0.218,0.204-0.499,0.306-0.843,0.306
		c-0.108,0-0.209-0.008-0.305-0.024c-0.057-0.01-0.174-0.043-0.352-0.101c-0.179-0.057-0.292-0.086-0.339-0.086
		c-0.045,0-0.082,0.014-0.108,0.041c-0.027,0.027-0.046,0.084-0.059,0.17h-0.102v-1.275h0.102c0.047,0.268,0.111,0.467,0.191,0.6
		c0.08,0.132,0.204,0.243,0.369,0.33c0.165,0.088,0.347,0.132,0.544,0.132c0.229,0,0.409-0.061,0.542-0.181
		c0.132-0.121,0.199-0.264,0.199-0.428c0-0.092-0.025-0.185-0.075-0.277c-0.051-0.094-0.129-0.181-0.234-0.261
		c-0.072-0.055-0.266-0.171-0.584-0.35c-0.319-0.179-0.545-0.32-0.679-0.427s-0.237-0.224-0.306-0.351
		c-0.069-0.128-0.104-0.269-0.104-0.423c0-0.267,0.103-0.497,0.307-0.689c0.205-0.193,0.466-0.289,0.782-0.289
		c0.197,0,0.406,0.048,0.628,0.146c0.103,0.045,0.174,0.067,0.216,0.067c0.048,0,0.086-0.014,0.117-0.042
		c0.03-0.028,0.054-0.086,0.072-0.171H58.688z"/>
	<path fill="#D13239" d="M60.158,23.522c0.183-0.183,0.291-0.288,0.323-0.315c0.083-0.069,0.171-0.123,0.266-0.161
		c0.095-0.038,0.189-0.058,0.282-0.058c0.158,0,0.293,0.045,0.406,0.137c0.114,0.092,0.189,0.224,0.228,0.397
		c0.188-0.219,0.348-0.363,0.477-0.432c0.13-0.068,0.264-0.103,0.401-0.103c0.133,0,0.251,0.034,0.355,0.103
		c0.103,0.068,0.185,0.182,0.245,0.336c0.04,0.105,0.06,0.272,0.06,0.499v1.081c0,0.157,0.012,0.265,0.036,0.323
		c0.019,0.041,0.053,0.075,0.102,0.104c0.049,0.027,0.129,0.042,0.241,0.042v0.099h-1.24v-0.099h0.052
		c0.108,0,0.192-0.021,0.252-0.063c0.042-0.029,0.072-0.075,0.09-0.14c0.008-0.03,0.011-0.119,0.011-0.266v-1.081
		c0-0.204-0.025-0.349-0.074-0.433c-0.071-0.117-0.186-0.177-0.343-0.177c-0.097,0-0.194,0.024-0.292,0.073
		c-0.098,0.049-0.216,0.139-0.355,0.27l-0.006,0.031l0.006,0.118v1.198c0,0.172,0.009,0.279,0.028,0.32
		c0.02,0.043,0.056,0.078,0.108,0.106c0.053,0.027,0.144,0.042,0.272,0.042v0.099h-1.27v-0.099c0.139,0,0.235-0.017,0.287-0.05
		s0.088-0.082,0.108-0.147c0.009-0.031,0.014-0.122,0.014-0.271v-1.081c0-0.204-0.03-0.352-0.09-0.441
		c-0.081-0.117-0.193-0.176-0.338-0.176c-0.099,0-0.196,0.026-0.293,0.08c-0.151,0.08-0.269,0.171-0.351,0.271v1.348
		c0,0.165,0.011,0.271,0.034,0.32s0.056,0.087,0.101,0.112c0.045,0.024,0.136,0.036,0.273,0.036v0.099h-1.242v-0.099
		c0.115,0,0.195-0.012,0.241-0.036c0.046-0.025,0.081-0.065,0.104-0.119c0.024-0.054,0.036-0.158,0.036-0.313v-0.961
		c0-0.275-0.009-0.453-0.025-0.534c-0.013-0.06-0.033-0.103-0.061-0.125c-0.027-0.022-0.064-0.034-0.112-0.034
		c-0.051,0-0.112,0.014-0.184,0.042l-0.042-0.099l0.757-0.308h0.118V23.522z"/>
	<path fill="#D13239" d="M65.204,25.212c-0.258,0.2-0.419,0.314-0.486,0.347c-0.098,0.045-0.204,0.068-0.314,0.068
		c-0.174,0-0.317-0.06-0.43-0.179s-0.169-0.275-0.169-0.47c0-0.122,0.027-0.228,0.083-0.317c0.075-0.124,0.206-0.241,0.391-0.352
		c0.186-0.109,0.495-0.243,0.926-0.399v-0.099c0-0.251-0.04-0.423-0.119-0.516c-0.08-0.095-0.195-0.141-0.347-0.141
		c-0.115,0-0.207,0.031-0.274,0.093c-0.07,0.062-0.104,0.134-0.104,0.215l0.006,0.158c0,0.084-0.021,0.149-0.065,0.195
		c-0.042,0.046-0.099,0.068-0.168,0.068c-0.067,0-0.123-0.024-0.166-0.071c-0.043-0.048-0.065-0.112-0.065-0.195
		c0-0.157,0.081-0.302,0.242-0.434c0.161-0.131,0.387-0.196,0.677-0.196c0.223,0,0.406,0.037,0.548,0.112
		c0.108,0.057,0.188,0.145,0.239,0.266c0.033,0.079,0.05,0.239,0.05,0.483v0.853c0,0.239,0.004,0.387,0.013,0.44
		c0.009,0.054,0.024,0.09,0.045,0.108c0.021,0.018,0.045,0.027,0.073,0.027c0.029,0,0.055-0.007,0.077-0.02
		c0.039-0.023,0.113-0.09,0.222-0.2v0.153c-0.205,0.274-0.4,0.412-0.587,0.412c-0.09,0-0.161-0.032-0.214-0.094
		C65.234,25.469,65.206,25.362,65.204,25.212z M65.204,25.034v-0.958c-0.276,0.11-0.454,0.188-0.535,0.233
		c-0.145,0.08-0.248,0.165-0.31,0.252c-0.062,0.089-0.093,0.186-0.093,0.289c0,0.131,0.04,0.24,0.118,0.327s0.169,0.131,0.271,0.131
		C64.795,25.309,64.978,25.217,65.204,25.034z"/>
	<path fill="#D13239" d="M67.009,22.988v0.564c0.21-0.377,0.426-0.564,0.647-0.564c0.1,0,0.183,0.03,0.249,0.092
		s0.099,0.132,0.099,0.213c0,0.071-0.024,0.132-0.071,0.181c-0.048,0.049-0.104,0.073-0.17,0.073c-0.064,0-0.136-0.031-0.215-0.095
		c-0.079-0.062-0.138-0.094-0.177-0.094c-0.033,0-0.068,0.019-0.107,0.055c-0.083,0.074-0.167,0.198-0.255,0.37v1.204
		c0,0.139,0.017,0.244,0.052,0.315c0.023,0.049,0.065,0.09,0.126,0.123s0.147,0.05,0.261,0.05v0.099h-1.287v-0.099
		c0.128,0,0.223-0.021,0.285-0.061c0.045-0.029,0.078-0.076,0.096-0.14c0.009-0.031,0.014-0.12,0.014-0.266v-0.975
		c0-0.292-0.006-0.466-0.018-0.521c-0.012-0.057-0.033-0.098-0.066-0.122c-0.031-0.027-0.072-0.039-0.119-0.039
		c-0.057,0-0.121,0.014-0.192,0.042l-0.027-0.099l0.759-0.308H67.009z"/>
	<path fill="#D13239" d="M68.874,22.236v0.826h0.587v0.191h-0.587v1.629c0,0.163,0.023,0.272,0.07,0.329
		c0.046,0.057,0.106,0.085,0.179,0.085c0.061,0,0.119-0.019,0.176-0.056c0.057-0.038,0.101-0.093,0.132-0.166h0.106
		c-0.064,0.179-0.154,0.313-0.271,0.404c-0.117,0.091-0.238,0.136-0.362,0.136c-0.084,0-0.167-0.023-0.247-0.07
		c-0.08-0.046-0.14-0.112-0.178-0.199c-0.038-0.087-0.058-0.221-0.058-0.402v-1.689h-0.397v-0.091
		c0.101-0.04,0.203-0.107,0.309-0.204c0.105-0.096,0.199-0.21,0.281-0.342c0.042-0.069,0.1-0.196,0.175-0.381H68.874z"/>
	<path fill="#D13239" d="M73.51,21.771v1.286h-0.102c-0.033-0.247-0.092-0.443-0.177-0.59s-0.207-0.262-0.363-0.349
		c-0.157-0.086-0.32-0.129-0.488-0.129c-0.19,0-0.348,0.059-0.473,0.174c-0.124,0.117-0.186,0.249-0.186,0.397
		c0,0.112,0.038,0.217,0.117,0.31c0.113,0.138,0.383,0.32,0.81,0.549c0.348,0.186,0.584,0.329,0.712,0.429
		c0.127,0.1,0.225,0.218,0.293,0.353s0.104,0.276,0.104,0.425c0,0.282-0.109,0.525-0.328,0.729c-0.219,0.204-0.5,0.306-0.844,0.306
		c-0.107,0-0.209-0.008-0.305-0.024c-0.057-0.01-0.174-0.043-0.353-0.101c-0.178-0.057-0.29-0.086-0.338-0.086
		c-0.046,0-0.082,0.014-0.108,0.041s-0.047,0.084-0.06,0.17h-0.101v-1.275h0.101c0.048,0.268,0.112,0.467,0.192,0.6
		c0.08,0.132,0.203,0.243,0.369,0.33c0.165,0.088,0.347,0.132,0.544,0.132c0.229,0,0.409-0.061,0.542-0.181
		c0.133-0.121,0.199-0.264,0.199-0.428c0-0.092-0.025-0.185-0.075-0.277c-0.052-0.094-0.129-0.181-0.234-0.261
		c-0.072-0.055-0.267-0.171-0.585-0.35s-0.545-0.32-0.679-0.427c-0.135-0.106-0.236-0.224-0.306-0.351
		c-0.069-0.128-0.104-0.269-0.104-0.423c0-0.267,0.103-0.497,0.308-0.689c0.204-0.193,0.465-0.289,0.781-0.289
		c0.197,0,0.407,0.048,0.628,0.146c0.104,0.045,0.175,0.067,0.217,0.067c0.047,0,0.086-0.014,0.117-0.042
		c0.03-0.028,0.054-0.086,0.072-0.171H73.51z"/>
	<path fill="#D13239" d="M74.091,23.062h1.172v0.101h-0.058c-0.083,0-0.145,0.019-0.186,0.054c-0.042,0.036-0.062,0.08-0.062,0.133
		c0,0.072,0.03,0.171,0.09,0.297l0.612,1.267l0.562-1.388c0.031-0.074,0.046-0.148,0.046-0.222c0-0.033-0.007-0.059-0.02-0.074
		c-0.014-0.021-0.037-0.036-0.068-0.048c-0.03-0.012-0.086-0.019-0.164-0.019v-0.101h0.817v0.101
		c-0.067,0.008-0.12,0.021-0.156,0.044s-0.077,0.063-0.121,0.124c-0.017,0.025-0.048,0.096-0.093,0.211l-1.022,2.507
		c-0.1,0.243-0.229,0.427-0.389,0.552c-0.161,0.124-0.314,0.186-0.462,0.186c-0.108,0-0.197-0.03-0.267-0.093
		c-0.07-0.062-0.104-0.134-0.104-0.213c0-0.078,0.025-0.14,0.075-0.187c0.051-0.046,0.119-0.069,0.207-0.069
		c0.061,0,0.144,0.02,0.248,0.061c0.072,0.026,0.118,0.041,0.137,0.041c0.055,0,0.114-0.028,0.18-0.086
		c0.064-0.057,0.13-0.166,0.196-0.329l0.179-0.436l-0.903-1.896c-0.027-0.057-0.071-0.127-0.132-0.211
		c-0.045-0.064-0.084-0.106-0.112-0.129c-0.042-0.029-0.109-0.056-0.203-0.077V23.062z"/>
	<path fill="#D13239" d="M78.666,22.988v0.855h-0.091c-0.068-0.27-0.158-0.452-0.268-0.548c-0.108-0.098-0.247-0.146-0.415-0.146
		c-0.128,0-0.231,0.034-0.311,0.102c-0.078,0.067-0.117,0.144-0.117,0.226c0,0.102,0.029,0.19,0.088,0.263
		c0.057,0.075,0.172,0.154,0.346,0.239l0.4,0.194c0.371,0.182,0.557,0.42,0.557,0.716c0,0.229-0.087,0.413-0.259,0.553
		c-0.173,0.14-0.366,0.21-0.581,0.21c-0.153,0-0.329-0.027-0.526-0.083c-0.061-0.018-0.11-0.026-0.148-0.026
		c-0.042,0-0.074,0.023-0.098,0.071h-0.092v-0.897h0.092c0.051,0.256,0.148,0.448,0.292,0.579c0.146,0.13,0.307,0.194,0.486,0.194
		c0.127,0,0.229-0.037,0.309-0.11c0.079-0.074,0.119-0.164,0.119-0.269c0-0.126-0.045-0.231-0.133-0.317
		c-0.089-0.086-0.266-0.195-0.531-0.327c-0.265-0.131-0.438-0.25-0.521-0.356c-0.082-0.104-0.123-0.235-0.123-0.395
		c0-0.206,0.071-0.38,0.213-0.519s0.324-0.208,0.55-0.208c0.099,0,0.219,0.021,0.359,0.062c0.094,0.027,0.155,0.041,0.187,0.041
		c0.029,0,0.053-0.006,0.068-0.019c0.017-0.014,0.036-0.041,0.058-0.085H78.666z"/>
	<path fill="#D13239" d="M79.958,22.236v0.826h0.587v0.191h-0.587v1.629c0,0.163,0.023,0.272,0.07,0.329
		c0.046,0.057,0.106,0.085,0.18,0.085c0.061,0,0.118-0.019,0.175-0.056c0.057-0.038,0.102-0.093,0.133-0.166h0.106
		c-0.064,0.179-0.155,0.313-0.271,0.404c-0.117,0.091-0.238,0.136-0.362,0.136c-0.084,0-0.167-0.023-0.247-0.07
		c-0.08-0.046-0.141-0.112-0.179-0.199s-0.057-0.221-0.057-0.402v-1.689h-0.398v-0.091c0.101-0.04,0.204-0.107,0.309-0.204
		c0.105-0.096,0.199-0.21,0.281-0.342c0.042-0.069,0.101-0.196,0.175-0.381H79.958z"/>
	<path fill="#D13239" d="M81.211,24.008c-0.002,0.374,0.089,0.666,0.271,0.878c0.184,0.212,0.397,0.318,0.645,0.318
		c0.165,0,0.308-0.045,0.43-0.136c0.122-0.09,0.224-0.245,0.306-0.466l0.085,0.056c-0.038,0.251-0.149,0.479-0.334,0.685
		c-0.186,0.205-0.416,0.309-0.694,0.309c-0.302,0-0.561-0.118-0.775-0.353c-0.214-0.235-0.322-0.552-0.322-0.947
		c0-0.43,0.11-0.766,0.331-1.006c0.22-0.24,0.497-0.36,0.83-0.36c0.281,0,0.513,0.093,0.693,0.278
		c0.182,0.186,0.271,0.434,0.271,0.744H81.211z M81.211,23.85h1.163c-0.009-0.161-0.028-0.275-0.058-0.341
		c-0.045-0.103-0.113-0.183-0.204-0.241s-0.186-0.088-0.284-0.088c-0.152,0-0.288,0.06-0.407,0.177
		C81.302,23.475,81.231,23.639,81.211,23.85z"/>
	<path fill="#D13239" d="M84.028,23.522c0.183-0.183,0.291-0.288,0.324-0.315c0.082-0.069,0.171-0.123,0.265-0.161
		c0.096-0.038,0.19-0.058,0.283-0.058c0.157,0,0.293,0.045,0.406,0.137s0.189,0.224,0.228,0.397
		c0.188-0.219,0.347-0.363,0.477-0.432s0.264-0.103,0.401-0.103c0.133,0,0.252,0.034,0.354,0.103
		c0.104,0.068,0.186,0.182,0.245,0.336c0.041,0.105,0.061,0.272,0.061,0.499v1.081c0,0.157,0.013,0.265,0.036,0.323
		c0.019,0.041,0.052,0.075,0.102,0.104c0.049,0.027,0.13,0.042,0.241,0.042v0.099h-1.24v-0.099h0.053
		c0.107,0,0.191-0.021,0.252-0.063c0.042-0.029,0.072-0.075,0.091-0.14c0.007-0.03,0.011-0.119,0.011-0.266v-1.081
		c0-0.204-0.024-0.349-0.073-0.433c-0.072-0.117-0.186-0.177-0.344-0.177c-0.097,0-0.194,0.024-0.292,0.073s-0.216,0.139-0.355,0.27
		l-0.005,0.031l0.005,0.118v1.198c0,0.172,0.01,0.279,0.029,0.32c0.019,0.043,0.055,0.078,0.108,0.106
		c0.053,0.027,0.144,0.042,0.271,0.042v0.099h-1.271v-0.099c0.14,0,0.235-0.017,0.287-0.05s0.089-0.082,0.108-0.147
		c0.009-0.031,0.014-0.122,0.014-0.271v-1.081c0-0.204-0.03-0.352-0.09-0.441c-0.081-0.117-0.194-0.176-0.338-0.176
		c-0.099,0-0.196,0.026-0.294,0.08c-0.151,0.08-0.268,0.171-0.351,0.271v1.348c0,0.165,0.012,0.271,0.033,0.32
		c0.023,0.049,0.058,0.087,0.103,0.112c0.045,0.024,0.136,0.036,0.272,0.036v0.099h-1.242v-0.099c0.115,0,0.196-0.012,0.241-0.036
		c0.046-0.025,0.08-0.065,0.104-0.119c0.023-0.054,0.035-0.158,0.035-0.313v-0.961c0-0.275-0.008-0.453-0.024-0.534
		c-0.013-0.06-0.033-0.103-0.061-0.125c-0.026-0.022-0.064-0.034-0.112-0.034c-0.051,0-0.112,0.014-0.184,0.042l-0.041-0.099
		l0.757-0.308h0.118V23.522z"/>
	<path fill="#D13239" d="M89.275,22.988v0.855h-0.091c-0.069-0.27-0.159-0.452-0.268-0.548c-0.108-0.098-0.247-0.146-0.415-0.146
		c-0.128,0-0.231,0.034-0.311,0.102c-0.078,0.067-0.117,0.144-0.117,0.226c0,0.102,0.028,0.19,0.088,0.263
		c0.057,0.075,0.172,0.154,0.345,0.239l0.401,0.194c0.371,0.182,0.557,0.42,0.557,0.716c0,0.229-0.087,0.413-0.26,0.553
		s-0.366,0.21-0.58,0.21c-0.153,0-0.329-0.027-0.526-0.083c-0.06-0.018-0.11-0.026-0.148-0.026c-0.042,0-0.075,0.023-0.099,0.071
		h-0.09v-0.897h0.09c0.051,0.256,0.149,0.448,0.294,0.579c0.145,0.13,0.306,0.194,0.485,0.194c0.126,0,0.229-0.037,0.308-0.11
		c0.08-0.074,0.12-0.164,0.12-0.269c0-0.126-0.044-0.231-0.134-0.317c-0.088-0.086-0.266-0.195-0.53-0.327
		c-0.265-0.131-0.438-0.25-0.521-0.356c-0.083-0.104-0.124-0.235-0.124-0.395c0-0.206,0.071-0.38,0.213-0.519
		s0.325-0.208,0.55-0.208c0.099,0,0.219,0.021,0.359,0.062c0.094,0.027,0.155,0.041,0.187,0.041c0.029,0,0.052-0.006,0.068-0.019
		c0.016-0.014,0.036-0.041,0.058-0.085H89.275z"/>
</g>
<g>
	<path d="M91.62,33.001h2.734c-0.122-0.107-0.201-0.225-0.235-0.352c-0.021-0.085-0.031-0.238-0.031-0.462v-0.763
		c0-0.191-0.012-0.317-0.033-0.378c-0.041-0.118-0.136-0.181-0.284-0.189v-0.043c0.371-0.046,0.693-0.114,0.969-0.202
		c-0.023,0.333-0.036,0.679-0.036,1.039v0.438c0,0.357,0.008,0.576,0.022,0.656c0.044,0.269,0.16,0.434,0.35,0.494l-0.004,0.024
		h-3.884c-0.478,0-0.84-0.044-1.085-0.134c-0.304-0.111-0.482-0.294-0.537-0.55c-0.01-0.054-0.016-0.106-0.016-0.158
		c0-0.261,0.138-0.499,0.413-0.717c0.327-0.261,0.723-0.437,1.187-0.529c0.233-0.048,0.471-0.07,0.71-0.068
		c0.24,0.004,0.465,0.034,0.672,0.088l-0.075,0.668l-0.051,0.004c-0.096-0.24-0.253-0.41-0.472-0.511
		c-0.141-0.061-0.293-0.091-0.459-0.091c-0.1,0-0.203,0.011-0.311,0.033c-0.255,0.049-0.467,0.151-0.633,0.306
		c-0.181,0.169-0.28,0.376-0.3,0.624c-0.002,0.027-0.003,0.055-0.003,0.08c0,0.176,0.051,0.311,0.154,0.401
		c0.123,0.103,0.234,0.167,0.333,0.193C90.972,32.969,91.273,33.001,91.62,33.001z M92.168,33.928c0-0.105,0.038-0.194,0.11-0.267
		c0.073-0.071,0.163-0.107,0.269-0.107c0.106,0,0.196,0.035,0.27,0.106c0.071,0.07,0.107,0.16,0.107,0.268
		c0,0.105-0.036,0.192-0.109,0.262c-0.073,0.068-0.163,0.104-0.268,0.104c-0.108,0-0.198-0.034-0.27-0.102
		C92.204,34.123,92.168,34.036,92.168,33.928z"/>
	<path d="M96.999,33.001h0.443v0.264h-0.436c-0.011,0.285-0.091,0.517-0.239,0.695c-0.243,0.293-0.499,0.428-0.769,0.406
		c-0.27-0.023-0.478-0.125-0.623-0.306l0.15-0.569h0.039c0.096,0.477,0.248,0.714,0.459,0.714c0.287,0,0.433-0.373,0.439-1.12v-1.16
		c0-0.187-0.011-0.309-0.029-0.364c-0.038-0.113-0.129-0.175-0.271-0.185v-0.041c0.25-0.021,0.53-0.089,0.84-0.2
		C96.979,31.477,96.979,32.099,96.999,33.001z"/>
	<path d="M98.314,33.265h-0.959v-0.264h0.959V33.265z"/>
	<path d="M99.189,33.265H98.23v-0.264h0.959V33.265z"/>
	<path d="M100.064,33.265h-0.959v-0.264h0.959V33.265z"/>
	<path d="M99.98,33.265v-0.264h0.981c-0.381-0.234-0.572-0.588-0.572-1.059c0-0.4,0.134-0.719,0.401-0.956
		c0.256-0.23,0.586-0.346,0.991-0.346c0.382,0,0.715,0.096,1.001,0.287l-0.123,0.727l-0.038-0.006
		c-0.155-0.562-0.415-0.843-0.778-0.843c-0.275,0-0.508,0.123-0.698,0.371c-0.176,0.228-0.264,0.484-0.264,0.769
		c0,0.379,0.174,0.73,0.522,1.056h1.857v0.264H99.98z M101.327,29.85c0-0.107,0.036-0.197,0.109-0.269
		c0.073-0.07,0.163-0.106,0.268-0.106c0.108,0,0.198,0.036,0.27,0.106c0.073,0.071,0.108,0.161,0.108,0.269
		c0,0.105-0.036,0.192-0.108,0.262c-0.074,0.068-0.163,0.103-0.27,0.103s-0.197-0.034-0.269-0.102
		C101.362,30.045,101.327,29.956,101.327,29.85z"/>
	<path d="M106.315,33.001h0.536v0.264h-0.694c-0.038,0.051-0.08,0.097-0.125,0.14c-0.259,0.243-0.598,0.365-1.018,0.365
		c-0.409,0-0.74-0.123-0.994-0.368c-0.046-0.043-0.087-0.088-0.123-0.137h-0.733v-0.264h0.578c-0.07-0.168-0.106-0.355-0.106-0.562
		c0-0.392,0.137-0.707,0.41-0.946c0.258-0.227,0.587-0.339,0.985-0.339c0.404,0,0.733,0.116,0.987,0.348
		c0.265,0.242,0.397,0.561,0.397,0.96C106.416,32.662,106.383,32.842,106.315,33.001z M104.224,32.452
		c0,0.333,0.054,0.604,0.161,0.812c0.138,0.276,0.358,0.415,0.658,0.415c0.296,0,0.511-0.139,0.646-0.415
		c0.105-0.208,0.158-0.478,0.158-0.81c0-0.334-0.053-0.602-0.158-0.807c-0.14-0.272-0.36-0.407-0.661-0.407
		c-0.291,0-0.506,0.137-0.644,0.41C104.277,31.864,104.224,32.131,104.224,32.452z"/>
	<path d="M106.769,33.001h0.752c-0.159-0.091-0.239-0.283-0.239-0.578v-2.955c0-0.188-0.01-0.309-0.028-0.364
		c-0.039-0.114-0.13-0.176-0.272-0.184v-0.043c0.248-0.021,0.527-0.088,0.837-0.199c-0.019,0.303-0.029,0.647-0.029,1.033v2.477
		c0,0.245,0.013,0.446,0.039,0.604c0.039,0.243,0.139,0.401,0.301,0.474h-1.359V33.001z"/>
	<path d="M108.512,33.281l-0.003-0.041c0.179-0.052,0.288-0.197,0.329-0.437c0.016-0.077,0.022-0.276,0.022-0.597v-2.739
		c0-0.188-0.01-0.309-0.028-0.364c-0.039-0.114-0.131-0.176-0.274-0.184v-0.043c0.249-0.021,0.529-0.088,0.839-0.199
		c-0.02,0.303-0.028,0.647-0.025,1.033v2.477c0.017,0.347,0.029,0.549,0.035,0.606c0.039,0.25,0.147,0.398,0.327,0.446v0.041
		c-0.205-0.01-0.403-0.017-0.595-0.017C108.889,33.265,108.68,33.271,108.512,33.281z"/>
	<path d="M112.038,33.265c-0.363,0.104-0.546,0.349-0.546,0.733c0,0.212,0.07,0.409,0.213,0.592
		c0.153,0.196,0.333,0.294,0.539,0.294c0.655,0,1.048-0.273,1.18-0.82h0.035l0.223,0.517c-0.484,0.279-0.983,0.42-1.499,0.42
		c-0.345,0-0.638-0.09-0.882-0.269c-0.272-0.2-0.409-0.467-0.409-0.801c0-0.508,0.231-0.812,0.694-0.914
		c-0.4-0.231-0.601-0.591-0.601-1.074c0-0.4,0.135-0.719,0.403-0.956c0.254-0.23,0.584-0.346,0.989-0.346
		c0.381,0,0.714,0.096,1,0.287l-0.122,0.727l-0.039-0.006c-0.155-0.562-0.414-0.843-0.779-0.843c-0.275,0-0.507,0.123-0.696,0.371
		c-0.177,0.228-0.266,0.484-0.266,0.769c0,0.379,0.175,0.73,0.523,1.056h1.25c0.097,0,0.194-0.055,0.294-0.164
		c-0.028,0.286-0.138,0.428-0.326,0.428H112.038z"/>
	<path d="M115.545,33.001h0.442v0.264h-0.437c-0.011,0.285-0.09,0.517-0.238,0.695c-0.243,0.293-0.5,0.428-0.769,0.406
		c-0.269-0.023-0.477-0.125-0.623-0.306l0.151-0.569h0.039c0.095,0.477,0.248,0.714,0.458,0.714c0.286,0,0.434-0.373,0.439-1.12
		v-1.16c0-0.187-0.01-0.309-0.029-0.364c-0.038-0.113-0.129-0.175-0.271-0.185v-0.041c0.249-0.021,0.529-0.089,0.839-0.2
		C115.524,31.477,115.523,32.099,115.545,33.001z"/>
	<path d="M116.859,33.265H115.9v-0.264h0.959V33.265z"/>
	<path d="M117.734,33.265h-0.959v-0.264h0.959V33.265z"/>
	<path d="M118.609,33.265h-0.96v-0.264h0.96V33.265z"/>
	<path d="M119.484,33.265h-0.959v-0.264h0.959V33.265z"/>
	<path d="M120.359,33.265H119.4v-0.264h0.959V33.265z"/>
	<path d="M121.234,33.265h-0.959v-0.264h0.959V33.265z"/>
	<path d="M121.151,33.265v-0.264h2.17c0.31,0,0.464-0.145,0.464-0.437v-0.571c-0.076,0.171-0.199,0.303-0.367,0.396
		c-0.159,0.09-0.336,0.134-0.529,0.134c-0.368,0-0.669-0.131-0.901-0.395c-0.225-0.251-0.336-0.564-0.336-0.939
		c0-0.366,0.117-0.665,0.354-0.898c0.234-0.231,0.538-0.348,0.908-0.348c0.348,0,0.634,0.168,0.855,0.506
		c0.055-0.148,0.122-0.295,0.204-0.438l0.523-0.003l0.202-0.007v0.032c-0.14,0.032-0.227,0.162-0.258,0.392
		c-0.007,0.052-0.01,0.225-0.01,0.52v1.596c0,0.483-0.309,0.725-0.927,0.725H121.151z M122.252,31.251
		c0,0.279,0.059,0.51,0.178,0.691c0.138,0.21,0.34,0.315,0.607,0.315c0.269,0,0.471-0.105,0.606-0.315
		c0.112-0.177,0.168-0.407,0.168-0.691c0-0.289-0.057-0.521-0.171-0.698c-0.136-0.211-0.34-0.316-0.61-0.316
		c-0.265,0-0.466,0.106-0.604,0.319C122.311,30.739,122.252,30.971,122.252,31.251z M122.352,29.139
		c0-0.105,0.037-0.194,0.109-0.265c0.074-0.071,0.163-0.106,0.27-0.106s0.196,0.035,0.27,0.105c0.071,0.068,0.107,0.158,0.107,0.266
		c0,0.105-0.036,0.193-0.109,0.262c-0.073,0.069-0.162,0.103-0.268,0.103c-0.108,0-0.198-0.033-0.27-0.101
		C122.388,29.334,122.352,29.247,122.352,29.139z"/>
</g>
<g>
	<path d="M54.303,33.281l-1.437-3.129v2.485c0,0.229,0.024,0.37,0.074,0.428c0.068,0.077,0.175,0.115,0.321,0.115h0.131v0.101
		h-1.294v-0.101h0.132c0.157,0,0.269-0.048,0.334-0.144c0.041-0.059,0.06-0.191,0.06-0.399v-2.431c0-0.165-0.018-0.284-0.055-0.356
		c-0.025-0.053-0.072-0.097-0.141-0.133c-0.069-0.036-0.179-0.054-0.331-0.054v-0.102h1.053l1.349,2.91l1.328-2.91h1.054v0.102
		h-0.129c-0.159,0-0.271,0.048-0.337,0.143c-0.041,0.059-0.061,0.192-0.061,0.4v2.431c0,0.229,0.025,0.37,0.077,0.428
		c0.068,0.077,0.175,0.115,0.321,0.115h0.129v0.101h-1.58v-0.101h0.131c0.159,0,0.271-0.048,0.334-0.144
		c0.04-0.059,0.06-0.191,0.06-0.399v-2.485l-1.435,3.129H54.303z"/>
	<path d="M58.599,32.92c-0.258,0.199-0.419,0.314-0.486,0.345c-0.099,0.046-0.204,0.069-0.315,0.069
		c-0.173,0-0.316-0.06-0.429-0.178c-0.112-0.119-0.168-0.275-0.168-0.469c0-0.123,0.027-0.229,0.083-0.319
		c0.075-0.124,0.205-0.241,0.391-0.351c0.186-0.11,0.494-0.243,0.926-0.401v-0.099c0-0.25-0.04-0.422-0.12-0.515
		c-0.079-0.094-0.195-0.141-0.346-0.141c-0.116,0-0.207,0.031-0.275,0.094c-0.07,0.062-0.104,0.134-0.104,0.213l0.005,0.16
		c0,0.084-0.021,0.149-0.064,0.194c-0.043,0.046-0.099,0.068-0.168,0.068c-0.068,0-0.123-0.023-0.166-0.071
		c-0.043-0.047-0.064-0.112-0.064-0.194c0-0.157,0.081-0.302,0.241-0.433c0.161-0.132,0.387-0.198,0.678-0.198
		c0.223,0,0.406,0.037,0.548,0.112c0.108,0.057,0.188,0.146,0.239,0.266c0.033,0.079,0.049,0.24,0.049,0.482v0.854
		c0,0.24,0.004,0.387,0.014,0.44s0.024,0.091,0.045,0.108c0.021,0.019,0.045,0.027,0.073,0.027c0.029,0,0.055-0.007,0.077-0.02
		c0.038-0.023,0.112-0.091,0.222-0.199v0.153c-0.205,0.274-0.4,0.411-0.587,0.411c-0.089,0-0.161-0.03-0.214-0.094
		C58.627,33.175,58.6,33.069,58.599,32.92z M58.599,32.741v-0.957c-0.276,0.109-0.455,0.188-0.535,0.233
		c-0.144,0.081-0.248,0.165-0.31,0.253c-0.062,0.087-0.093,0.183-0.093,0.287c0,0.132,0.039,0.241,0.118,0.327
		c0.079,0.087,0.169,0.131,0.271,0.131C58.189,33.016,58.372,32.924,58.599,32.741z"/>
	<path d="M60.403,30.695v0.564c0.21-0.376,0.426-0.564,0.647-0.564c0.101,0,0.184,0.03,0.25,0.092
		c0.065,0.062,0.098,0.132,0.098,0.213c0,0.07-0.023,0.131-0.071,0.182c-0.048,0.048-0.104,0.073-0.17,0.073
		c-0.064,0-0.136-0.031-0.215-0.095c-0.079-0.062-0.138-0.095-0.177-0.095c-0.033,0-0.069,0.019-0.107,0.055
		c-0.082,0.076-0.167,0.198-0.255,0.37v1.205c0,0.139,0.017,0.243,0.052,0.315c0.023,0.049,0.066,0.09,0.126,0.123
		s0.147,0.05,0.26,0.05v0.098h-1.286v-0.098c0.128,0,0.223-0.021,0.285-0.061c0.046-0.029,0.078-0.076,0.096-0.141
		c0.009-0.031,0.014-0.119,0.014-0.266v-0.974c0-0.293-0.006-0.467-0.018-0.522c-0.012-0.056-0.034-0.096-0.066-0.123
		c-0.032-0.024-0.071-0.038-0.119-0.038c-0.057,0-0.121,0.014-0.192,0.041l-0.027-0.098l0.76-0.308H60.403z"/>
	<path d="M62.768,30.695c0.38,0,0.686,0.145,0.916,0.433c0.195,0.248,0.293,0.531,0.293,0.851c0,0.226-0.054,0.453-0.162,0.684
		c-0.107,0.23-0.256,0.404-0.445,0.521c-0.189,0.117-0.4,0.175-0.632,0.175c-0.378,0-0.679-0.15-0.902-0.453
		c-0.188-0.254-0.283-0.539-0.283-0.855c0-0.229,0.058-0.459,0.172-0.687s0.265-0.396,0.451-0.505
		C62.362,30.749,62.559,30.695,62.768,30.695z M62.683,30.874c-0.097,0-0.194,0.028-0.292,0.085
		c-0.098,0.059-0.177,0.159-0.237,0.304s-0.091,0.33-0.091,0.558c0,0.365,0.073,0.681,0.218,0.946
		c0.146,0.265,0.337,0.397,0.575,0.397c0.177,0,0.323-0.073,0.439-0.22c0.115-0.146,0.172-0.397,0.172-0.754
		c0-0.446-0.096-0.798-0.288-1.054C63.049,30.962,62.884,30.874,62.683,30.874z"/>
	<path d="M66.481,32.327c-0.067,0.331-0.2,0.586-0.397,0.765c-0.197,0.178-0.417,0.267-0.656,0.267c-0.286,0-0.534-0.12-0.746-0.359
		s-0.318-0.562-0.318-0.971c0-0.395,0.118-0.716,0.353-0.963c0.235-0.247,0.517-0.37,0.846-0.37c0.247,0,0.45,0.065,0.609,0.196
		s0.238,0.267,0.238,0.407c0,0.069-0.022,0.126-0.066,0.169c-0.045,0.043-0.108,0.064-0.188,0.064c-0.108,0-0.189-0.035-0.244-0.104
		c-0.031-0.039-0.052-0.111-0.062-0.219c-0.01-0.108-0.047-0.19-0.111-0.247c-0.064-0.056-0.152-0.083-0.266-0.083
		c-0.183,0-0.33,0.068-0.441,0.203c-0.149,0.18-0.222,0.416-0.222,0.711c0,0.3,0.073,0.564,0.22,0.793
		c0.147,0.229,0.347,0.345,0.597,0.345c0.179,0,0.34-0.061,0.483-0.184c0.101-0.085,0.198-0.237,0.293-0.458L66.481,32.327z"/>
	<path d="M70.664,31.384c0.258,0.055,0.451,0.143,0.579,0.263c0.177,0.168,0.266,0.375,0.266,0.618c0,0.185-0.059,0.361-0.176,0.53
		s-0.277,0.293-0.48,0.37c-0.204,0.078-0.516,0.116-0.935,0.116h-1.755v-0.101h0.14c0.155,0,0.267-0.05,0.334-0.148
		c0.042-0.063,0.063-0.2,0.063-0.408v-2.403c0-0.229-0.026-0.376-0.079-0.437c-0.072-0.08-0.178-0.12-0.318-0.12h-0.14v-0.102h1.607
		c0.3,0,0.541,0.022,0.721,0.066c0.274,0.065,0.483,0.183,0.628,0.35s0.217,0.359,0.217,0.577c0,0.187-0.057,0.354-0.17,0.5
		C71.053,31.203,70.886,31.312,70.664,31.384z M69.227,31.235c0.068,0.013,0.145,0.022,0.232,0.029
		c0.087,0.006,0.183,0.01,0.286,0.01c0.268,0,0.468-0.029,0.603-0.087c0.134-0.057,0.237-0.146,0.309-0.264
		c0.071-0.12,0.106-0.249,0.106-0.391c0-0.218-0.088-0.403-0.266-0.557s-0.437-0.23-0.776-0.23c-0.183,0-0.347,0.021-0.494,0.061
		V31.235z M69.227,33.013c0.212,0.05,0.421,0.074,0.628,0.074c0.331,0,0.583-0.074,0.757-0.223c0.174-0.149,0.261-0.334,0.261-0.554
		c0-0.145-0.04-0.283-0.118-0.417c-0.078-0.133-0.207-0.238-0.385-0.315c-0.177-0.077-0.396-0.115-0.658-0.115
		c-0.113,0-0.21,0.003-0.291,0.006c-0.081,0.004-0.146,0.01-0.195,0.019V33.013z"/>
	<path d="M72.727,30.695v0.564c0.21-0.376,0.426-0.564,0.647-0.564c0.101,0,0.184,0.03,0.249,0.092
		c0.066,0.062,0.099,0.132,0.099,0.213c0,0.07-0.022,0.131-0.07,0.182c-0.048,0.048-0.104,0.073-0.171,0.073
		c-0.063,0-0.136-0.031-0.215-0.095c-0.08-0.062-0.139-0.095-0.177-0.095c-0.032,0-0.068,0.019-0.106,0.055
		c-0.083,0.076-0.168,0.198-0.256,0.37v1.205c0,0.139,0.018,0.243,0.053,0.315c0.023,0.049,0.065,0.09,0.126,0.123
		c0.06,0.033,0.146,0.05,0.26,0.05v0.098h-1.286v-0.098c0.128,0,0.224-0.021,0.285-0.061c0.046-0.029,0.078-0.076,0.097-0.141
		c0.009-0.031,0.014-0.119,0.014-0.266v-0.974c0-0.293-0.006-0.467-0.019-0.522c-0.012-0.056-0.033-0.096-0.065-0.123
		c-0.032-0.024-0.072-0.038-0.119-0.038c-0.057,0-0.12,0.014-0.192,0.041l-0.027-0.098l0.761-0.308H72.727z"/>
	<path d="M75.285,32.92c-0.257,0.199-0.419,0.314-0.484,0.345c-0.099,0.046-0.204,0.069-0.315,0.069c-0.174,0-0.317-0.06-0.43-0.178
		c-0.112-0.119-0.168-0.275-0.168-0.469c0-0.123,0.027-0.229,0.081-0.319c0.075-0.124,0.205-0.241,0.392-0.351
		c0.186-0.11,0.493-0.243,0.925-0.401v-0.099c0-0.25-0.039-0.422-0.119-0.515c-0.079-0.094-0.195-0.141-0.347-0.141
		c-0.115,0-0.207,0.031-0.273,0.094c-0.07,0.062-0.104,0.134-0.104,0.213l0.006,0.16c0,0.084-0.022,0.149-0.065,0.194
		c-0.043,0.046-0.099,0.068-0.168,0.068c-0.068,0-0.123-0.023-0.166-0.071c-0.043-0.047-0.064-0.112-0.064-0.194
		c0-0.157,0.08-0.302,0.241-0.433c0.161-0.132,0.387-0.198,0.677-0.198c0.224,0,0.406,0.037,0.549,0.112
		c0.107,0.057,0.188,0.146,0.239,0.266c0.032,0.079,0.049,0.24,0.049,0.482v0.854c0,0.24,0.005,0.387,0.014,0.44
		c0.01,0.054,0.024,0.091,0.046,0.108c0.021,0.019,0.045,0.027,0.072,0.027c0.029,0,0.055-0.007,0.076-0.02
		c0.039-0.023,0.112-0.091,0.223-0.199v0.153c-0.205,0.274-0.4,0.411-0.587,0.411c-0.09,0-0.161-0.03-0.214-0.094
		C75.315,33.175,75.288,33.069,75.285,32.92z M75.285,32.741v-0.957c-0.276,0.109-0.454,0.188-0.534,0.233
		c-0.144,0.081-0.247,0.165-0.31,0.253c-0.062,0.087-0.093,0.183-0.093,0.287c0,0.132,0.038,0.241,0.117,0.327
		c0.079,0.087,0.169,0.131,0.271,0.131C74.876,33.016,75.06,32.924,75.285,32.741z"/>
	<path d="M77.088,31.228c0.294-0.354,0.575-0.532,0.842-0.532c0.137,0,0.255,0.034,0.354,0.103c0.1,0.068,0.178,0.182,0.236,0.339
		c0.04,0.11,0.061,0.278,0.061,0.505v1.072c0,0.158,0.013,0.268,0.039,0.323c0.02,0.046,0.052,0.082,0.097,0.108
		c0.044,0.024,0.127,0.038,0.248,0.038v0.098h-1.242v-0.098h0.052c0.117,0,0.199-0.019,0.246-0.054
		c0.046-0.036,0.078-0.089,0.098-0.158c0.006-0.027,0.01-0.113,0.01-0.258v-1.028c0-0.228-0.029-0.395-0.089-0.498
		s-0.159-0.155-0.3-0.155c-0.218,0-0.435,0.119-0.65,0.356v1.325c0,0.17,0.011,0.275,0.03,0.315
		c0.025,0.053,0.061,0.092,0.105,0.116s0.136,0.038,0.272,0.038v0.098h-1.242v-0.098h0.055c0.129,0,0.215-0.033,0.26-0.099
		c0.045-0.064,0.067-0.188,0.067-0.371v-0.933c0-0.302-0.007-0.485-0.021-0.552c-0.015-0.065-0.035-0.109-0.063-0.134
		c-0.028-0.023-0.066-0.036-0.114-0.036c-0.051,0-0.111,0.014-0.184,0.041l-0.041-0.098l0.757-0.308h0.118V31.228z"/>
	<path d="M81.298,32.327c-0.066,0.331-0.2,0.586-0.397,0.765c-0.197,0.178-0.416,0.267-0.655,0.267c-0.286,0-0.534-0.12-0.746-0.359
		s-0.318-0.562-0.318-0.971c0-0.395,0.118-0.716,0.353-0.963c0.235-0.247,0.517-0.37,0.846-0.37c0.248,0,0.45,0.065,0.609,0.196
		s0.239,0.267,0.239,0.407c0,0.069-0.023,0.126-0.067,0.169c-0.045,0.043-0.107,0.064-0.188,0.064c-0.108,0-0.189-0.035-0.244-0.104
		c-0.031-0.039-0.052-0.111-0.062-0.219c-0.011-0.108-0.047-0.19-0.111-0.247c-0.063-0.056-0.152-0.083-0.266-0.083
		c-0.184,0-0.331,0.068-0.442,0.203c-0.147,0.18-0.222,0.416-0.222,0.711c0,0.3,0.073,0.564,0.221,0.793
		c0.147,0.229,0.347,0.345,0.597,0.345c0.18,0,0.34-0.061,0.482-0.184c0.101-0.085,0.198-0.237,0.294-0.458L81.298,32.327z"/>
	<path d="M82.396,29.382v1.838c0.202-0.224,0.363-0.367,0.482-0.43c0.119-0.063,0.237-0.095,0.356-0.095
		c0.143,0,0.265,0.04,0.368,0.118c0.103,0.078,0.178,0.202,0.228,0.37c0.034,0.117,0.052,0.331,0.052,0.643v0.888
		c0,0.158,0.013,0.268,0.038,0.327c0.019,0.044,0.049,0.078,0.094,0.104c0.044,0.024,0.124,0.038,0.241,0.038v0.098h-1.234v-0.098
		h0.058c0.117,0,0.198-0.019,0.244-0.054c0.046-0.036,0.077-0.089,0.096-0.158c0.006-0.029,0.009-0.115,0.009-0.258v-0.888
		c0-0.275-0.015-0.456-0.043-0.541c-0.028-0.086-0.073-0.15-0.136-0.193c-0.062-0.043-0.138-0.064-0.225-0.064
		c-0.09,0-0.183,0.023-0.28,0.07c-0.097,0.049-0.213,0.145-0.348,0.289v1.327c0,0.172,0.009,0.278,0.028,0.32
		c0.019,0.043,0.055,0.078,0.107,0.105c0.052,0.03,0.142,0.044,0.27,0.044v0.098h-1.245v-0.098c0.111,0,0.199-0.018,0.263-0.053
		c0.038-0.019,0.066-0.053,0.089-0.104c0.021-0.051,0.032-0.155,0.032-0.312V30.44c0-0.287-0.007-0.464-0.02-0.53
		c-0.015-0.065-0.035-0.11-0.063-0.134s-0.066-0.036-0.114-0.036c-0.038,0-0.101,0.015-0.187,0.044l-0.038-0.096l0.751-0.307H82.396
		z"/>
	<path d="M84.889,31.716c-0.002,0.373,0.089,0.665,0.271,0.878c0.183,0.212,0.397,0.317,0.645,0.317
		c0.164,0,0.308-0.044,0.429-0.136c0.122-0.09,0.224-0.245,0.307-0.465l0.085,0.055c-0.039,0.251-0.15,0.479-0.335,0.685
		c-0.186,0.206-0.416,0.309-0.694,0.309c-0.302,0-0.56-0.117-0.774-0.353c-0.215-0.234-0.322-0.551-0.322-0.947
		c0-0.43,0.109-0.765,0.33-1.005c0.221-0.241,0.497-0.361,0.83-0.361c0.282,0,0.513,0.094,0.694,0.278
		c0.181,0.186,0.271,0.435,0.271,0.745H84.889z M84.889,31.556h1.163c-0.01-0.16-0.029-0.273-0.058-0.339
		c-0.046-0.103-0.114-0.184-0.204-0.242c-0.091-0.058-0.186-0.087-0.285-0.087c-0.151,0-0.287,0.059-0.406,0.177
		C84.979,31.183,84.908,31.346,84.889,31.556z"/>
</g>
<path fill="#D13239" d="M30.031,16.063l-3.192-3.192l-2.581,2.58l-1.706,1.705l0,0h1.188c-0.342,0.757-0.824,1.454-1.434,2.065
	c-1.243,1.241-2.894,1.964-4.651,2.034c-1.862,0.076-3.642-0.578-5.012-1.842c-1.37-1.265-2.166-2.985-2.24-4.848
	c-0.08-1.971,0.645-3.823,2.04-5.219c1.242-1.241,2.894-1.964,4.65-2.035c0.942-0.039,1.863,0.111,2.72,0.431l-4.332,4.331
	l-0.98-0.979l0,0v6.061h6.062l0,0l-0.979-0.979l4.33-4.329l2.496-2.496c0,0,0,0,0,0s0.001,0,0.001-0.001
	c1.125-1.126,1.131-2.947,0.018-4.081c-0.007-0.006-0.012-0.014-0.019-0.021c-0.014-0.012-0.028-0.023-0.041-0.037
	c-0.68-0.673-1.432-1.271-2.246-1.778c-2.101-1.31-4.604-2.025-7.264-1.918c-3.34,0.135-6.33,1.54-8.52,3.731
	c-2.435,2.435-3.885,5.841-3.735,9.553c0.284,7.053,6.231,12.539,13.284,12.255c3.339-0.135,6.329-1.539,8.52-3.73
	c1.67-1.67,2.877-3.797,3.421-6.167h1.293h0.001L30.031,16.063z"/>
</svg>
