<?xml version="1.0" encoding="utf-8"?>
<!-- Generator: Adobe Illustrator 16.0.0, SVG Export Plug-In . SVG Version: 6.00 Build 0)  -->
<!DOCTYPE svg PUBLIC "-//W3C//DTD SVG 1.1//EN" "http://www.w3.org/Graphics/SVG/1.1/DTD/svg11.dtd">
<svg version="1.1" id="Layer_1" xmlns="http://www.w3.org/2000/svg" xmlns:xlink="http://www.w3.org/1999/xlink" x="0px" y="0px"
	 width="150px" height="35px" viewBox="0 0 150 35" enable-background="new 0 0 150 35" xml:space="preserve">
<g>
	<path d="M42.288,17.456h-5.402l-0.643,1.488c-0.211,0.497-0.316,0.907-0.316,1.229c0,0.429,0.173,0.745,0.519,0.947
		c0.203,0.12,0.703,0.211,1.5,0.271v0.416h-5.087v-0.416c0.549-0.083,1-0.311,1.354-0.683c0.354-0.372,0.79-1.141,1.309-2.307
		L40.99,6.201h0.214l5.515,12.541c0.526,1.188,0.958,1.938,1.297,2.245c0.255,0.233,0.616,0.368,1.083,0.406v0.416h-7.398v-0.416
		h0.304c0.594,0,1.011-0.083,1.252-0.249c0.165-0.12,0.248-0.293,0.248-0.519c0-0.135-0.023-0.274-0.067-0.417
		c-0.015-0.067-0.128-0.35-0.338-0.846L42.288,17.456z M41.904,16.622l-2.278-5.268l-2.346,5.268H41.904z"/>
	<path d="M63.941,16.441l-0.575,5.367H49.787v-0.416h0.508c0.443,0,0.801-0.079,1.071-0.237c0.196-0.105,0.346-0.286,0.451-0.542
		c0.083-0.181,0.124-0.653,0.124-1.42V9.133c0-0.782-0.042-1.271-0.124-1.466c-0.083-0.195-0.25-0.367-0.502-0.513
		s-0.592-0.22-1.021-0.22h-0.508V6.517h8.154v0.417h-0.665c-0.444,0-0.801,0.08-1.071,0.237c-0.196,0.105-0.35,0.286-0.463,0.542
		c-0.083,0.18-0.124,0.654-0.124,1.421v9.745c0,0.781,0.045,1.279,0.136,1.493c0.09,0.215,0.267,0.375,0.53,0.479
		c0.188,0.068,0.643,0.102,1.365,0.102h1.274c0.812,0,1.489-0.143,2.03-0.428c0.542-0.286,1.009-0.737,1.404-1.354
		c0.395-0.616,0.768-1.527,1.122-2.729H63.941z"/>
	<path d="M75.613,7.396v6.281h0.439c0.677,0,1.229-0.102,1.658-0.304c0.429-0.203,0.791-0.546,1.089-1.026
		c0.296-0.481,0.49-1.132,0.58-1.951h0.395v7.68H79.38c-0.143-1.451-0.531-2.407-1.167-2.87c-0.636-0.462-1.354-0.693-2.16-0.693
		h-0.439v4.681c0,0.781,0.043,1.271,0.13,1.466s0.255,0.366,0.508,0.514c0.251,0.146,0.592,0.22,1.021,0.22h0.507v0.416h-7.996
		v-0.416h0.508c0.443,0,0.801-0.079,1.071-0.237c0.195-0.105,0.346-0.286,0.451-0.542c0.083-0.181,0.125-0.653,0.125-1.42V9.133
		c0-0.782-0.042-1.271-0.125-1.466c-0.083-0.195-0.25-0.367-0.501-0.513c-0.252-0.146-0.592-0.22-1.021-0.22h-0.508V6.517h12.902
		v4.388h-0.462c-0.105-1.03-0.375-1.793-0.807-2.29c-0.433-0.496-1.059-0.846-1.878-1.049c-0.451-0.113-1.286-0.169-2.504-0.169
		H75.613z"/>
	<path d="M91.268,17.456h-5.402l-0.644,1.488c-0.21,0.497-0.315,0.907-0.315,1.229c0,0.429,0.174,0.745,0.519,0.947
		c0.204,0.12,0.703,0.211,1.5,0.271v0.416h-5.086v-0.416c0.549-0.083,1-0.311,1.354-0.683s0.789-1.141,1.308-2.307l5.471-12.203
		h0.214l5.515,12.541c0.526,1.188,0.959,1.938,1.297,2.245c0.256,0.233,0.616,0.368,1.083,0.406v0.416h-7.398v-0.416h0.305
		c0.593,0,1.011-0.083,1.252-0.249c0.165-0.12,0.248-0.293,0.248-0.519c0-0.135-0.022-0.274-0.067-0.417
		c-0.016-0.067-0.128-0.35-0.338-0.846L91.268,17.456z M90.884,16.622l-2.278-5.268l-2.346,5.268H90.884z"/>
	<path d="M104.654,14.456v4.737c0,0.781,0.043,1.271,0.13,1.466c0.086,0.195,0.256,0.366,0.507,0.514
		c0.252,0.146,0.592,0.22,1.021,0.22h0.507v0.416h-7.996v-0.416h0.508c0.443,0,0.801-0.079,1.071-0.237
		c0.195-0.105,0.346-0.286,0.451-0.542c0.083-0.181,0.124-0.653,0.124-1.42V9.133c0-0.782-0.041-1.271-0.124-1.466
		c-0.083-0.195-0.25-0.367-0.502-0.513s-0.592-0.22-1.021-0.22h-0.508V6.517h7.996v0.417h-0.507c-0.444,0-0.801,0.08-1.072,0.237
		c-0.196,0.105-0.35,0.286-0.462,0.542c-0.083,0.18-0.124,0.654-0.124,1.421v4.331h5.402V9.133c0-0.782-0.042-1.271-0.125-1.466
		c-0.082-0.195-0.252-0.367-0.507-0.513c-0.256-0.146-0.599-0.22-1.026-0.22h-0.496V6.517h7.985v0.417h-0.498
		c-0.45,0-0.808,0.08-1.07,0.237c-0.196,0.105-0.35,0.286-0.462,0.542c-0.083,0.18-0.125,0.654-0.125,1.421v10.06
		c0,0.781,0.042,1.271,0.125,1.466c0.082,0.195,0.251,0.366,0.507,0.514c0.256,0.146,0.598,0.22,1.025,0.22h0.498v0.416h-7.985
		v-0.416h0.496c0.451,0,0.809-0.079,1.07-0.237c0.196-0.105,0.351-0.286,0.463-0.542c0.083-0.181,0.125-0.653,0.125-1.42v-4.737
		H104.654z"/>
	<path d="M125.913,17.456h-5.403l-0.643,1.488c-0.211,0.497-0.315,0.907-0.315,1.229c0,0.429,0.173,0.745,0.519,0.947
		c0.203,0.12,0.703,0.211,1.501,0.271v0.416h-5.088v-0.416c0.55-0.083,1.001-0.311,1.354-0.683c0.354-0.372,0.791-1.141,1.309-2.307
		l5.471-12.203h0.213l5.516,12.541c0.526,1.188,0.958,1.938,1.297,2.245c0.256,0.233,0.616,0.368,1.083,0.406v0.416h-7.398v-0.416
		h0.305c0.594,0,1.011-0.083,1.252-0.249c0.165-0.12,0.248-0.293,0.248-0.519c0-0.135-0.023-0.274-0.068-0.417
		c-0.015-0.067-0.128-0.35-0.339-0.846L125.913,17.456z M125.529,16.622l-2.278-5.268l-2.346,5.268H125.529z"/>
	<path d="M133.288,21.809v-0.416h0.508c0.443,0,0.784-0.069,1.021-0.209c0.236-0.139,0.412-0.329,0.524-0.57
		c0.067-0.157,0.102-0.631,0.102-1.42V9.133c0-0.782-0.042-1.271-0.124-1.466c-0.083-0.195-0.25-0.367-0.502-0.513
		s-0.592-0.22-1.021-0.22h-0.508V6.517h6.846c1.827,0,3.297,0.248,4.41,0.745c1.36,0.609,2.393,1.53,3.096,2.763
		c0.703,1.232,1.055,2.627,1.055,4.184c0,1.075-0.174,2.066-0.52,2.972c-0.346,0.906-0.793,1.654-1.342,2.244
		c-0.549,0.591-1.183,1.064-1.9,1.422c-0.718,0.356-1.596,0.633-2.634,0.828c-0.458,0.091-1.181,0.135-2.165,0.135H133.288z
		 M139.119,7.385v11.932c0,0.631,0.03,1.019,0.09,1.161c0.061,0.143,0.162,0.252,0.305,0.327c0.203,0.113,0.496,0.17,0.879,0.17
		c1.256,0,2.215-0.429,2.877-1.287c0.902-1.157,1.353-2.954,1.353-5.39c0-1.963-0.309-3.53-0.925-4.703
		c-0.488-0.917-1.116-1.541-1.883-1.873C141.273,7.491,140.374,7.378,139.119,7.385z"/>
</g>
<g>
	<path fill="#D13239" d="M98.222,29.616v-0.521c-0.068,0.148-0.174,0.264-0.318,0.346c-0.139,0.077-0.292,0.116-0.461,0.116
		c-0.32,0-0.583-0.115-0.786-0.344c-0.195-0.222-0.293-0.494-0.293-0.817c0-0.32,0.103-0.582,0.31-0.783
		c0.206-0.201,0.469-0.302,0.79-0.302c0.303,0,0.553,0.146,0.747,0.438c0.045-0.127,0.104-0.255,0.177-0.383h0.456l0.177-0.005
		v0.027c-0.124,0.028-0.199,0.143-0.226,0.34c-0.007,0.046-0.011,0.195-0.011,0.453v1.202h0.47v0.231H98.222z M96.703,26.693
		c0-0.092,0.031-0.169,0.096-0.231c0.063-0.062,0.142-0.092,0.233-0.092c0.094,0,0.172,0.03,0.234,0.091
		c0.062,0.062,0.095,0.139,0.095,0.232c0,0.093-0.032,0.17-0.096,0.229c-0.063,0.059-0.142,0.088-0.233,0.088
		c-0.095,0-0.172-0.029-0.235-0.088C96.734,26.863,96.703,26.786,96.703,26.693z M96.886,28.449c0,0.244,0.052,0.443,0.154,0.599
		c0.122,0.186,0.3,0.278,0.532,0.278c0.231,0,0.406-0.092,0.525-0.275c0.099-0.153,0.148-0.354,0.148-0.602
		c0-0.251-0.05-0.453-0.151-0.607c-0.118-0.183-0.294-0.274-0.529-0.274c-0.231,0-0.407,0.093-0.527,0.278
		C96.937,28.003,96.886,28.204,96.886,28.449z M97.532,26.693c0-0.092,0.032-0.169,0.096-0.231c0.064-0.062,0.142-0.092,0.233-0.092
		c0.093,0,0.172,0.03,0.234,0.091c0.062,0.062,0.095,0.139,0.095,0.232c0,0.093-0.032,0.17-0.096,0.229
		c-0.064,0.059-0.142,0.088-0.233,0.088c-0.094,0-0.173-0.029-0.234-0.088C97.564,26.863,97.532,26.786,97.532,26.693z"/>
	<path fill="#D13239" d="M100.801,29.385h0.389v0.231h-2.013v-0.231h1.088v-1.371c0-0.167-0.01-0.276-0.028-0.328
		c-0.035-0.104-0.118-0.159-0.247-0.167v-0.036c0.321-0.041,0.604-0.101,0.843-0.177c-0.021,0.291-0.031,0.593-0.031,0.905V29.385z
		 M99.37,30.191c0-0.091,0.032-0.168,0.096-0.231c0.063-0.062,0.142-0.094,0.233-0.094c0.094,0,0.172,0.03,0.235,0.092
		c0.062,0.062,0.094,0.141,0.094,0.233s-0.032,0.169-0.096,0.229s-0.142,0.09-0.233,0.09c-0.094,0-0.172-0.029-0.234-0.089
		C99.402,30.362,99.37,30.285,99.37,30.191z M100.13,30.191c0-0.091,0.031-0.168,0.096-0.231c0.062-0.062,0.142-0.094,0.232-0.094
		c0.095,0,0.172,0.03,0.235,0.092c0.062,0.062,0.094,0.141,0.094,0.233s-0.031,0.169-0.096,0.229c-0.063,0.06-0.142,0.09-0.233,0.09
		c-0.094,0-0.172-0.029-0.234-0.089C100.161,30.362,100.13,30.285,100.13,30.191z"/>
	<path fill="#D13239" d="M101.104,29.385h1.197c-0.092-0.093-0.151-0.195-0.177-0.306c-0.018-0.072-0.025-0.206-0.025-0.402v-0.663
		c0-0.167-0.01-0.276-0.028-0.328c-0.036-0.104-0.118-0.159-0.247-0.167v-0.036c0.322-0.041,0.604-0.101,0.844-0.177
		c-0.02,0.291-0.029,0.593-0.029,0.905v0.382c0,0.312,0.006,0.501,0.018,0.57c0.039,0.234,0.141,0.378,0.304,0.431l-0.004,0.022
		h-1.852V29.385z M101.254,27.011v-0.107h0.152c-0.095-0.063-0.142-0.142-0.142-0.235c0-0.101,0.048-0.177,0.144-0.228
		c0.076-0.044,0.168-0.065,0.275-0.065c0.118,0,0.22,0.021,0.307,0.065l-0.04,0.163l-0.011-0.003
		c-0.049-0.126-0.127-0.189-0.235-0.189c-0.073,0-0.14,0.025-0.199,0.073c-0.059,0.05-0.088,0.11-0.088,0.184
		c0,0.085,0.051,0.163,0.154,0.235h0.379c0.029,0,0.058-0.012,0.088-0.036c-0.01,0.096-0.042,0.144-0.099,0.144H101.254z"/>
	<path fill="#D13239" d="M103.362,29.616l-0.003-0.022c0.155-0.046,0.25-0.172,0.286-0.38c0.013-0.067,0.02-0.24,0.02-0.52v-2.384
		c0-0.162-0.008-0.269-0.025-0.316c-0.034-0.101-0.113-0.153-0.239-0.161v-0.036c0.218-0.019,0.461-0.077,0.731-0.175
		c-0.018,0.257-0.024,0.557-0.022,0.899v2.863h0.398v0.231h-0.601C103.689,29.616,103.508,29.616,103.362,29.616z"/>
	<path fill="#D13239" d="M104.435,29.385h1.176c-0.092-0.093-0.151-0.195-0.178-0.306c-0.017-0.072-0.024-0.206-0.024-0.402v-0.663
		c0-0.167-0.01-0.276-0.028-0.328c-0.036-0.104-0.118-0.159-0.247-0.167v-0.036c0.321-0.041,0.604-0.101,0.843-0.177
		c-0.021,0.291-0.031,0.593-0.031,0.905v0.382c0,0.312,0.007,0.501,0.021,0.57c0.037,0.234,0.139,0.378,0.303,0.431l-0.003,0.022
		h-1.83V29.385z M104.789,30.191c0-0.091,0.032-0.168,0.096-0.231c0.064-0.062,0.142-0.094,0.233-0.094
		c0.093,0,0.172,0.03,0.234,0.092c0.062,0.062,0.095,0.141,0.095,0.233s-0.032,0.169-0.095,0.229c-0.065,0.06-0.143,0.09-0.234,0.09
		c-0.094,0-0.172-0.029-0.234-0.089C104.821,30.362,104.789,30.285,104.789,30.191z"/>
	<path fill="#D13239" d="M107.957,29.385h0.385v0.231h-0.379c-0.01,0.247-0.08,0.448-0.208,0.604
		c-0.213,0.255-0.436,0.374-0.669,0.354c-0.234-0.021-0.416-0.109-0.543-0.267l0.133-0.495h0.034
		c0.081,0.414,0.214,0.621,0.398,0.621c0.249,0,0.376-0.325,0.382-0.975v-1.01c0-0.163-0.008-0.268-0.025-0.317
		c-0.033-0.099-0.112-0.152-0.235-0.16v-0.036c0.218-0.019,0.46-0.077,0.729-0.174C107.938,28.06,107.938,28.601,107.957,29.385z"/>
	<path fill="#D13239" d="M112.049,29.385h0.646v0.231h-4.429v-0.231h0.916c-0.289-0.185-0.434-0.446-0.434-0.784
		c0-0.286,0.117-0.518,0.35-0.693c0.203-0.153,0.456-0.239,0.755-0.256l-0.039-0.486c0.18-0.06,0.375-0.093,0.585-0.099
		c0.207-0.003,0.413,0.023,0.618,0.079c0.402,0.111,0.747,0.321,1.034,0.627c0.238,0.257,0.357,0.538,0.357,0.846
		c0,0.062-0.006,0.125-0.015,0.189C112.355,29.06,112.24,29.253,112.049,29.385z M109.548,29.385h0.843
		c0.189-0.151,0.283-0.407,0.283-0.77c0-0.571-0.218-0.871-0.653-0.899c-0.039,0.073-0.07,0.156-0.096,0.25l-0.046-0.008
		l-0.017-0.236c-0.209,0.024-0.367,0.129-0.47,0.315c-0.086,0.151-0.129,0.342-0.129,0.573
		C109.264,28.978,109.358,29.235,109.548,29.385z M110.742,29.383c0.306-0.009,0.526-0.051,0.663-0.126
		c0.155-0.087,0.267-0.188,0.335-0.305c0.054-0.096,0.081-0.236,0.081-0.424c0-0.043-0.002-0.091-0.005-0.141
		c-0.017-0.264-0.091-0.493-0.226-0.688c-0.146-0.206-0.342-0.344-0.587-0.41c-0.093-0.026-0.181-0.039-0.265-0.039
		c-0.294,0-0.522,0.134-0.683,0.401c0.307,0.016,0.563,0.101,0.767,0.256c0.23,0.176,0.346,0.412,0.346,0.708
		C111.169,28.945,111.026,29.2,110.742,29.383z"/>
	<path fill="#D13239" d="M115.41,27.159l-0.194,0.45h-0.029c-0.116-0.474-0.457-0.712-1.027-0.712c-0.18,0-0.336,0.085-0.468,0.254
		c-0.125,0.159-0.187,0.331-0.187,0.514c0,0.304,0.25,0.456,0.75,0.456h1.74c0.496,0,0.745,0.265,0.745,0.795v0.469h0.326v0.231
		h-4.446v-0.231h3.6l-0.002-0.679c0-0.238-0.214-0.357-0.639-0.357h-1.45c-0.765,0-1.146-0.208-1.146-0.623
		c0-0.292,0.119-0.524,0.356-0.698c0.212-0.155,0.468-0.233,0.768-0.233C114.554,26.794,114.989,26.916,115.41,27.159z"/>
	<path fill="#D13239" d="M116.992,29.385h0.655c-0.139-0.078-0.208-0.246-0.208-0.502v-2.572c0-0.162-0.009-0.269-0.024-0.316
		c-0.035-0.101-0.113-0.153-0.237-0.161v-0.036c0.216-0.019,0.459-0.077,0.729-0.175c-0.017,0.265-0.025,0.564-0.025,0.899v2.155
		c0,0.214,0.011,0.39,0.033,0.526c0.034,0.211,0.121,0.349,0.262,0.413h-1.184V29.385z"/>
	<path fill="#D13239" d="M118.511,29.63l-0.003-0.036c0.156-0.046,0.251-0.172,0.287-0.38c0.013-0.067,0.02-0.24,0.02-0.52v-2.384
		c0-0.162-0.009-0.269-0.026-0.316c-0.032-0.101-0.112-0.153-0.238-0.161v-0.036c0.218-0.019,0.461-0.077,0.73-0.175
		c-0.017,0.265-0.023,0.564-0.022,0.899v2.155c0.016,0.302,0.025,0.479,0.031,0.529c0.033,0.217,0.128,0.346,0.283,0.388v0.036
		c-0.178-0.01-0.35-0.014-0.517-0.014C118.838,29.616,118.657,29.62,118.511,29.63z"/>
	<path fill="#D13239" d="M122.44,29.616v-0.521c-0.068,0.148-0.175,0.264-0.319,0.346c-0.138,0.077-0.291,0.116-0.46,0.116
		c-0.32,0-0.582-0.115-0.787-0.344c-0.194-0.222-0.293-0.494-0.293-0.817c0-0.32,0.104-0.582,0.31-0.783s0.47-0.302,0.79-0.302
		c0.303,0,0.553,0.146,0.748,0.438c0.044-0.127,0.104-0.255,0.177-0.383h0.455l0.178-0.005v0.027
		c-0.124,0.028-0.199,0.143-0.225,0.34c-0.008,0.046-0.012,0.195-0.012,0.453v1.202h0.47v0.231H122.44z M120.922,26.693
		c0-0.092,0.032-0.169,0.096-0.231c0.063-0.062,0.142-0.092,0.232-0.092c0.095,0,0.173,0.03,0.235,0.091
		c0.062,0.062,0.095,0.139,0.095,0.232c0,0.093-0.032,0.17-0.096,0.229c-0.064,0.059-0.142,0.088-0.234,0.088
		s-0.171-0.029-0.233-0.088C120.953,26.863,120.922,26.786,120.922,26.693z M121.104,28.449c0,0.244,0.052,0.443,0.155,0.599
		c0.121,0.186,0.298,0.278,0.53,0.278s0.407-0.092,0.526-0.275c0.099-0.153,0.148-0.354,0.148-0.602
		c0-0.251-0.051-0.453-0.151-0.607c-0.118-0.183-0.294-0.274-0.529-0.274c-0.232,0-0.407,0.093-0.527,0.278
		C121.155,28.003,121.104,28.204,121.104,28.449z M121.751,26.693c0-0.092,0.032-0.169,0.096-0.231
		c0.063-0.062,0.141-0.092,0.233-0.092c0.094,0,0.172,0.03,0.234,0.091c0.063,0.062,0.094,0.139,0.094,0.232
		c0,0.093-0.031,0.17-0.095,0.229c-0.063,0.059-0.142,0.088-0.233,0.088c-0.094,0-0.172-0.029-0.235-0.088
		C121.782,26.863,121.751,26.786,121.751,26.693z"/>
	<path fill="#D13239" d="M126.139,29.385h0.466v0.231h-0.604c-0.034,0.043-0.07,0.083-0.109,0.12
		c-0.226,0.212-0.521,0.318-0.886,0.318c-0.356,0-0.646-0.107-0.866-0.32c-0.039-0.038-0.074-0.077-0.106-0.118h-0.638v-0.231h0.503
		c-0.062-0.146-0.093-0.309-0.093-0.488c0-0.342,0.119-0.615,0.356-0.823c0.225-0.197,0.511-0.295,0.857-0.295
		c0.353,0,0.639,0.101,0.86,0.303c0.23,0.211,0.346,0.488,0.346,0.835C126.226,29.091,126.196,29.247,126.139,29.385z
		 M124.317,28.908c0,0.29,0.047,0.526,0.141,0.708c0.119,0.24,0.311,0.36,0.573,0.36c0.257,0,0.444-0.12,0.562-0.36
		c0.092-0.182,0.138-0.417,0.138-0.706c0-0.29-0.046-0.524-0.138-0.702c-0.121-0.236-0.313-0.354-0.576-0.354
		c-0.253,0-0.439,0.119-0.559,0.357C124.364,28.396,124.317,28.629,124.317,28.908z"/>
	<path fill="#D13239" d="M126.531,29.616v-0.231h0.458v-3.15c0-0.144-0.01-0.24-0.03-0.292c-0.034-0.086-0.111-0.134-0.23-0.141
		v-0.039c0.202-0.024,0.428-0.081,0.675-0.168v2.47c0.152-0.506,0.479-0.759,0.98-0.759c0.354,0,0.609,0.107,0.766,0.323
		c0.132,0.184,0.199,0.461,0.199,0.831v0.206c0,0.377,0.019,0.617,0.059,0.719h0.334v0.231H126.531z M128.986,29.385
		c-0.054-0.062-0.085-0.142-0.096-0.235V28.5c0-0.298-0.037-0.519-0.11-0.663c-0.102-0.195-0.284-0.301-0.549-0.32
		c-0.4,0.026-0.646,0.273-0.735,0.742c-0.028,0.146-0.042,0.522-0.042,1.126H128.986z M127.825,26.617
		c0-0.092,0.031-0.169,0.095-0.23s0.143-0.093,0.236-0.093s0.172,0.03,0.234,0.092c0.063,0.061,0.094,0.138,0.094,0.231
		s-0.031,0.171-0.095,0.229s-0.142,0.088-0.233,0.088c-0.094,0-0.173-0.029-0.236-0.088S127.825,26.711,127.825,26.617z"/>
	<path fill="#D13239" d="M129.668,29.385h1.176c-0.092-0.093-0.151-0.195-0.177-0.306c-0.018-0.072-0.025-0.206-0.025-0.402v-0.663
		c0-0.167-0.011-0.276-0.029-0.328c-0.035-0.104-0.117-0.159-0.247-0.167v-0.036c0.322-0.041,0.604-0.101,0.843-0.177
		c-0.02,0.291-0.03,0.593-0.03,0.905v0.382c0,0.312,0.007,0.501,0.02,0.57c0.037,0.234,0.139,0.378,0.304,0.431l-0.003,0.022h-1.83
		V29.385z M129.803,26.688c0-0.092,0.032-0.169,0.096-0.232c0.064-0.062,0.142-0.094,0.234-0.094s0.172,0.031,0.236,0.093
		c0.062,0.062,0.095,0.14,0.095,0.233c0,0.091-0.032,0.167-0.095,0.228c-0.064,0.06-0.144,0.09-0.236,0.09s-0.17-0.029-0.234-0.089
		C129.835,26.857,129.803,26.781,129.803,26.688z"/>
	<path fill="#D13239" d="M132.875,29.89c-0.474-0.272-0.711-0.646-0.711-1.122v-2.021c0-0.163-0.009-0.27-0.025-0.317
		c-0.033-0.098-0.113-0.149-0.238-0.157v-0.037c0.217-0.019,0.461-0.077,0.73-0.177c-0.019,0.271-0.026,0.573-0.022,0.902v1.811
		C132.62,29.188,132.709,29.562,132.875,29.89z M131.978,25.87v-0.082h0.119c-0.071-0.051-0.106-0.112-0.106-0.187
		c0-0.076,0.037-0.135,0.109-0.177c0.062-0.033,0.135-0.05,0.216-0.05c0.09,0,0.17,0.017,0.236,0.05l-0.03,0.127l-0.012-0.003
		c-0.033-0.098-0.094-0.146-0.18-0.146c-0.059,0-0.109,0.021-0.156,0.06c-0.046,0.039-0.068,0.087-0.068,0.14
		c0,0.066,0.041,0.128,0.123,0.187h0.293c0.022,0,0.044-0.009,0.066-0.028c-0.007,0.073-0.033,0.11-0.078,0.11H131.978z
		 M133.556,29.385h0.404v0.231h-0.494c-0.038,0.077-0.083,0.146-0.135,0.211c-0.166,0.207-0.441,0.312-0.827,0.312
		c-0.063,0-0.132-0.003-0.204-0.008c-0.053-0.004-0.131-0.013-0.234-0.025l0.151-0.487h0.029c0.023,0.113,0.076,0.208,0.157,0.284
		c0.058,0.056,0.145,0.085,0.261,0.085c0.042,0,0.089-0.004,0.141-0.011c0.161-0.025,0.272-0.159,0.332-0.403
		c0.043-0.176,0.061-0.417,0.051-0.725v-2.474c0-0.2-0.015-0.32-0.042-0.359c-0.032-0.122-0.115-0.187-0.248-0.194v-0.036
		c0.216-0.028,0.457-0.085,0.726-0.174v3.24C133.623,29.048,133.601,29.227,133.556,29.385z"/>
	<path fill="#D13239" d="M133.879,29.385h0.654c-0.139-0.078-0.208-0.246-0.208-0.502v-2.572c0-0.162-0.008-0.269-0.024-0.316
		c-0.035-0.101-0.113-0.153-0.237-0.161v-0.036c0.216-0.019,0.459-0.077,0.729-0.175c-0.017,0.265-0.025,0.564-0.025,0.899v2.155
		c0,0.214,0.011,0.39,0.034,0.526c0.033,0.211,0.121,0.349,0.262,0.413h-1.184V29.385z"/>
	<path fill="#D13239" d="M138.114,29.385h0.694v0.231h-2.477c-0.165,0-0.26-0.125-0.286-0.374c0.088,0.096,0.173,0.143,0.256,0.143
		h1.132c0.315,0,0.489-0.216,0.522-0.648c-0.021-0.292-0.091-0.562-0.204-0.81c-0.152-0.336-0.351-0.503-0.596-0.503
		c-0.079,0-0.16,0.029-0.243,0.087c-0.084,0.059-0.143,0.124-0.176,0.196c-0.038,0.081-0.056,0.171-0.056,0.271
		c0,0.114,0.019,0.197,0.059,0.247c0.07,0.094,0.108,0.144,0.112,0.149c-0.007,0.009-0.039,0.017-0.093,0.022
		c-0.07-0.003-0.134-0.003-0.191-0.003c-0.1,0-0.269,0.006-0.509,0.018v-0.037c0.086-0.024,0.146-0.06,0.177-0.104
		c0.032-0.046,0.049-0.114,0.049-0.206v-0.104c0-0.085-0.003-0.17-0.01-0.256c0.244-0.248,0.545-0.372,0.903-0.372
		c0.354,0,0.657,0.144,0.91,0.429c0.245,0.272,0.368,0.588,0.368,0.944C138.457,28.986,138.343,29.214,138.114,29.385z"/>
	<path fill="#D13239" d="M142.521,29.385h0.647v0.231h-4.43v-0.231h0.917c-0.289-0.185-0.434-0.446-0.434-0.784
		c0-0.286,0.116-0.518,0.348-0.693c0.205-0.153,0.457-0.239,0.757-0.256l-0.039-0.486c0.18-0.06,0.374-0.093,0.584-0.099
		c0.208-0.003,0.414,0.023,0.619,0.079c0.402,0.111,0.747,0.321,1.033,0.627c0.239,0.257,0.357,0.538,0.357,0.846
		c0,0.062-0.005,0.125-0.014,0.189C142.828,29.06,142.712,29.253,142.521,29.385z M140.02,29.385h0.844
		c0.188-0.151,0.283-0.407,0.283-0.77c0-0.571-0.218-0.871-0.654-0.899c-0.038,0.073-0.07,0.156-0.096,0.25l-0.045-0.008
		l-0.018-0.236c-0.21,0.024-0.366,0.129-0.469,0.315c-0.086,0.151-0.129,0.342-0.129,0.573
		C139.736,28.978,139.83,29.235,140.02,29.385z M141.214,29.383c0.306-0.009,0.526-0.051,0.663-0.126
		c0.156-0.087,0.268-0.188,0.334-0.305c0.056-0.096,0.083-0.236,0.083-0.424c0-0.043-0.003-0.091-0.007-0.141
		c-0.014-0.264-0.089-0.493-0.224-0.688c-0.146-0.206-0.343-0.344-0.588-0.41c-0.092-0.026-0.179-0.039-0.264-0.039
		c-0.295,0-0.521,0.134-0.684,0.401c0.307,0.016,0.563,0.101,0.769,0.256c0.229,0.176,0.345,0.412,0.345,0.708
		C141.642,28.945,141.5,29.2,141.214,29.383z"/>
	<path fill="#D13239" d="M143.479,28.436c0-0.341,0.118-0.615,0.357-0.823c0.225-0.197,0.51-0.295,0.856-0.295
		c0.354,0,0.64,0.102,0.86,0.307c0.23,0.207,0.346,0.485,0.346,0.831c0,0.338-0.112,0.612-0.334,0.824
		c-0.043,0.039-0.09,0.075-0.138,0.105h0.795v0.231h-3.131v-0.231h0.86c-0.051-0.033-0.099-0.071-0.141-0.114
		C143.591,29.057,143.479,28.778,143.479,28.436z M143.991,28.447c0,0.455,0.105,0.768,0.317,0.938h0.781
		c0.208-0.171,0.312-0.483,0.312-0.936c0-0.288-0.047-0.522-0.138-0.702c-0.12-0.236-0.312-0.354-0.574-0.354
		c-0.253,0-0.439,0.119-0.562,0.357C144.037,27.936,143.991,28.168,143.991,28.447z M144.322,26.559c0-0.093,0.032-0.169,0.096-0.23
		c0.063-0.062,0.142-0.094,0.233-0.094c0.094,0,0.173,0.031,0.236,0.092c0.064,0.062,0.096,0.139,0.096,0.232
		c0,0.092-0.031,0.167-0.096,0.227c-0.063,0.061-0.143,0.091-0.236,0.091s-0.171-0.029-0.234-0.088
		C144.354,26.728,144.322,26.651,144.322,26.559z"/>
	<path fill="#D13239" d="M146.149,29.385h0.654c-0.138-0.078-0.207-0.246-0.207-0.502v-2.572c0-0.162-0.009-0.269-0.025-0.316
		c-0.034-0.101-0.112-0.153-0.236-0.161v-0.036c0.216-0.019,0.458-0.077,0.728-0.175c-0.016,0.265-0.025,0.564-0.025,0.899v2.155
		c0,0.214,0.012,0.39,0.035,0.526c0.032,0.211,0.12,0.349,0.261,0.413h-1.184V29.385z"/>
	<path fill="#D13239" d="M147.668,29.63l-0.004-0.036c0.156-0.046,0.251-0.172,0.287-0.38c0.013-0.067,0.02-0.24,0.02-0.52v-2.384
		c0-0.162-0.009-0.269-0.025-0.316c-0.034-0.101-0.113-0.153-0.239-0.161v-0.036c0.218-0.019,0.461-0.077,0.731-0.175
		c-0.018,0.265-0.024,0.564-0.022,0.899v2.155c0.015,0.302,0.025,0.479,0.031,0.529c0.033,0.217,0.128,0.346,0.283,0.388v0.036
		c-0.179-0.01-0.351-0.014-0.518-0.014C147.994,29.616,147.812,29.62,147.668,29.63z"/>
</g>
<g>
	<path fill="#D13239" d="M35.305,28.432h-1.389l-0.244,0.566c-0.06,0.14-0.09,0.244-0.09,0.312c0,0.055,0.026,0.103,0.078,0.144
		c0.052,0.042,0.164,0.068,0.337,0.081v0.099h-1.13v-0.099c0.15-0.026,0.247-0.061,0.292-0.104c0.09-0.083,0.189-0.256,0.299-0.516
		l1.262-2.953h0.093l1.249,2.985c0.101,0.239,0.192,0.396,0.274,0.467s0.196,0.111,0.342,0.12v0.099h-1.415v-0.099
		c0.143-0.007,0.239-0.03,0.289-0.071c0.051-0.04,0.076-0.09,0.076-0.148c0-0.077-0.035-0.199-0.106-0.367L35.305,28.432z
		 M35.231,28.236l-0.608-1.45l-0.625,1.45H35.231z"/>
	<path fill="#D13239" d="M37.742,25.87v3.216c0,0.15,0.011,0.252,0.034,0.302c0.022,0.049,0.056,0.086,0.102,0.112
		c0.045,0.025,0.131,0.038,0.256,0.038v0.096h-1.188v-0.096c0.111,0,0.187-0.012,0.228-0.034c0.04-0.023,0.072-0.062,0.095-0.114
		c0.023-0.053,0.034-0.154,0.034-0.304v-2.203c0-0.271-0.006-0.44-0.018-0.503s-0.032-0.105-0.059-0.128
		c-0.028-0.022-0.062-0.034-0.104-0.034c-0.046,0-0.104,0.014-0.175,0.041l-0.045-0.092l0.722-0.297H37.742z"/>
	<path fill="#D13239" d="M40.708,26.24v1.411h0.654c0.15,0,0.26-0.033,0.329-0.1c0.07-0.065,0.116-0.196,0.14-0.393h0.098v1.215
		h-0.098c-0.002-0.14-0.02-0.242-0.054-0.308s-0.082-0.114-0.144-0.146c-0.061-0.033-0.151-0.049-0.271-0.049h-0.654v1.127
		c0,0.182,0.012,0.302,0.035,0.36c0.018,0.044,0.055,0.081,0.111,0.113c0.077,0.043,0.159,0.063,0.244,0.063h0.129v0.099h-1.54
		v-0.099h0.127c0.148,0,0.256-0.043,0.323-0.129c0.042-0.058,0.064-0.192,0.064-0.408V26.68c0-0.182-0.012-0.301-0.035-0.359
		c-0.018-0.043-0.054-0.082-0.109-0.113c-0.076-0.043-0.157-0.064-0.243-0.064h-0.127v-0.098h2.669l0.035,0.789h-0.092
		c-0.046-0.168-0.1-0.291-0.16-0.369c-0.061-0.079-0.136-0.136-0.225-0.171c-0.089-0.035-0.227-0.054-0.414-0.054H40.708z"/>
	<path fill="#D13239" d="M44.156,29.284c-0.249,0.191-0.405,0.304-0.468,0.333c-0.096,0.044-0.197,0.065-0.305,0.065
		c-0.167,0-0.305-0.056-0.414-0.171c-0.108-0.115-0.163-0.266-0.163-0.453c0-0.117,0.027-0.22,0.08-0.307
		c0.072-0.119,0.198-0.233,0.377-0.338c0.179-0.106,0.477-0.235,0.893-0.388v-0.094c0-0.243-0.039-0.408-0.115-0.498
		c-0.077-0.09-0.188-0.135-0.335-0.135c-0.111,0-0.199,0.03-0.265,0.09c-0.067,0.06-0.1,0.129-0.1,0.206l0.005,0.153
		c0,0.082-0.021,0.144-0.062,0.188c-0.042,0.045-0.096,0.066-0.163,0.066c-0.065,0-0.119-0.022-0.16-0.068
		c-0.042-0.046-0.062-0.108-0.062-0.188c0-0.152,0.078-0.291,0.233-0.418c0.155-0.128,0.373-0.191,0.654-0.191
		c0.215,0,0.392,0.036,0.529,0.108c0.104,0.055,0.181,0.141,0.229,0.257c0.032,0.076,0.048,0.231,0.048,0.466v0.823
		c0,0.23,0.005,0.372,0.014,0.425c0.009,0.052,0.023,0.086,0.043,0.104c0.021,0.017,0.044,0.027,0.07,0.027
		c0.028,0,0.053-0.008,0.074-0.02c0.038-0.023,0.109-0.087,0.214-0.193v0.148c-0.197,0.264-0.386,0.396-0.566,0.396
		c-0.086,0-0.155-0.03-0.206-0.09S44.158,29.429,44.156,29.284z M44.156,29.112v-0.924c-0.267,0.106-0.439,0.181-0.517,0.226
		c-0.139,0.077-0.239,0.158-0.298,0.242c-0.06,0.086-0.09,0.178-0.09,0.278c0,0.127,0.038,0.232,0.113,0.315
		c0.076,0.085,0.163,0.127,0.262,0.127C43.761,29.377,43.937,29.288,44.156,29.112z"/>
	<path fill="#D13239" d="M45.9,25.87v1.773c0.196-0.216,0.351-0.354,0.465-0.414c0.115-0.061,0.229-0.092,0.344-0.092
		c0.138,0,0.256,0.038,0.354,0.114c0.099,0.075,0.172,0.195,0.22,0.357c0.034,0.112,0.05,0.319,0.05,0.619v0.857
		c0,0.153,0.012,0.259,0.037,0.314c0.018,0.042,0.048,0.075,0.09,0.101c0.042,0.024,0.12,0.037,0.233,0.037v0.096h-1.191v-0.096
		h0.056c0.113,0,0.191-0.017,0.235-0.052c0.044-0.034,0.075-0.085,0.093-0.152c0.005-0.028,0.008-0.11,0.008-0.248v-0.857
		c0-0.265-0.014-0.438-0.042-0.521s-0.071-0.145-0.131-0.187c-0.06-0.041-0.132-0.062-0.217-0.062c-0.086,0-0.177,0.023-0.27,0.068
		c-0.093,0.047-0.206,0.139-0.336,0.278v1.281c0,0.165,0.009,0.269,0.028,0.31c0.018,0.04,0.053,0.074,0.103,0.102
		s0.137,0.041,0.261,0.041v0.096H45.09v-0.096c0.107,0,0.192-0.017,0.254-0.051c0.035-0.018,0.063-0.051,0.084-0.1
		c0.021-0.05,0.032-0.151,0.032-0.302v-2.193c0-0.278-0.007-0.448-0.02-0.511c-0.013-0.064-0.034-0.107-0.061-0.13
		s-0.064-0.034-0.109-0.034c-0.038,0-0.098,0.014-0.18,0.041l-0.038-0.092l0.726-0.297H45.9z"/>
	<path fill="#D13239" d="M49.271,29.284c-0.249,0.191-0.405,0.304-0.469,0.333c-0.095,0.044-0.197,0.065-0.305,0.065
		c-0.167,0-0.305-0.056-0.414-0.171c-0.108-0.115-0.163-0.266-0.163-0.453c0-0.117,0.027-0.22,0.08-0.307
		c0.072-0.119,0.198-0.233,0.377-0.338c0.179-0.106,0.477-0.235,0.894-0.388v-0.094c0-0.243-0.039-0.408-0.116-0.498
		S48.968,27.3,48.821,27.3c-0.111,0-0.2,0.03-0.265,0.09c-0.067,0.06-0.101,0.129-0.101,0.206l0.005,0.153
		c0,0.082-0.021,0.144-0.062,0.188c-0.041,0.045-0.096,0.066-0.162,0.066c-0.065,0-0.119-0.022-0.16-0.068
		c-0.042-0.046-0.062-0.108-0.062-0.188c0-0.152,0.077-0.291,0.233-0.418c0.155-0.128,0.373-0.191,0.654-0.191
		c0.215,0,0.391,0.036,0.529,0.108c0.104,0.055,0.181,0.141,0.23,0.257c0.032,0.076,0.048,0.231,0.048,0.466v0.823
		c0,0.23,0.005,0.372,0.013,0.425c0.009,0.052,0.023,0.086,0.044,0.104c0.021,0.017,0.043,0.027,0.07,0.027
		c0.028,0,0.053-0.008,0.074-0.02c0.037-0.023,0.108-0.087,0.214-0.193v0.148c-0.198,0.264-0.387,0.396-0.566,0.396
		c-0.086,0-0.155-0.03-0.207-0.09C49.299,29.531,49.273,29.429,49.271,29.284z M49.271,29.112v-0.924
		c-0.267,0.106-0.439,0.181-0.517,0.226c-0.139,0.077-0.239,0.158-0.299,0.242c-0.06,0.086-0.09,0.178-0.09,0.278
		c0,0.127,0.038,0.232,0.114,0.315c0.076,0.085,0.163,0.127,0.262,0.127C48.876,29.377,49.052,29.288,49.271,29.112z"/>
	<path fill="#D13239" d="M52.015,29.36c-0.118,0.124-0.233,0.213-0.346,0.267c-0.113,0.054-0.235,0.081-0.365,0.081
		c-0.265,0-0.496-0.111-0.693-0.333c-0.198-0.221-0.296-0.506-0.296-0.853c0-0.348,0.109-0.666,0.328-0.954
		c0.219-0.289,0.5-0.433,0.844-0.433c0.213,0,0.39,0.067,0.529,0.203v-0.446c0-0.278-0.006-0.448-0.02-0.511
		c-0.013-0.064-0.034-0.107-0.062-0.13c-0.028-0.022-0.063-0.034-0.105-0.034c-0.046,0-0.107,0.014-0.183,0.041l-0.034-0.092
		l0.723-0.297h0.119v2.803c0,0.283,0.007,0.457,0.02,0.52c0.013,0.063,0.034,0.106,0.063,0.131c0.029,0.025,0.063,0.037,0.102,0.037
		c0.048,0,0.111-0.016,0.19-0.045l0.029,0.093l-0.72,0.3h-0.122V29.36z M52.015,29.176v-1.249c-0.01-0.12-0.042-0.229-0.095-0.328
		c-0.052-0.099-0.123-0.174-0.21-0.224c-0.087-0.05-0.173-0.075-0.255-0.075c-0.155,0-0.294,0.069-0.416,0.208
		c-0.161,0.185-0.241,0.452-0.241,0.805c0,0.356,0.078,0.629,0.232,0.819c0.155,0.19,0.329,0.285,0.519,0.285
		C51.71,29.417,51.865,29.336,52.015,29.176z"/>
	<path fill="#D13239" d="M55.331,26.24v1.419h0.788c0.205,0,0.342-0.031,0.41-0.093c0.092-0.08,0.143-0.225,0.154-0.429h0.098v1.249
		h-0.098c-0.025-0.175-0.049-0.287-0.074-0.336c-0.032-0.062-0.083-0.11-0.156-0.145c-0.072-0.036-0.184-0.054-0.333-0.054h-0.788
		v1.183c0,0.159,0.007,0.255,0.021,0.29c0.014,0.034,0.039,0.062,0.074,0.082c0.035,0.021,0.103,0.03,0.201,0.03h0.608
		c0.203,0,0.351-0.014,0.442-0.042c0.091-0.029,0.18-0.084,0.265-0.167c0.109-0.109,0.221-0.274,0.336-0.495h0.106l-0.31,0.9h-2.765
		v-0.099h0.126c0.085,0,0.165-0.02,0.241-0.061c0.057-0.028,0.095-0.071,0.115-0.126c0.021-0.058,0.031-0.173,0.031-0.349v-2.33
		c0-0.228-0.023-0.368-0.069-0.421c-0.063-0.07-0.168-0.106-0.317-0.106h-0.126v-0.098h2.765l0.039,0.786h-0.103
		c-0.037-0.188-0.078-0.318-0.124-0.389c-0.045-0.071-0.111-0.125-0.199-0.162c-0.071-0.026-0.195-0.04-0.374-0.04H55.331z"/>
	<path fill="#D13239" d="M58.511,25.87v3.216c0,0.15,0.011,0.252,0.033,0.302c0.022,0.049,0.056,0.086,0.102,0.112
		c0.046,0.025,0.131,0.038,0.257,0.038v0.096h-1.188v-0.096c0.111,0,0.187-0.012,0.228-0.034c0.04-0.023,0.072-0.062,0.095-0.114
		c0.023-0.053,0.034-0.154,0.034-0.304v-2.203c0-0.271-0.005-0.44-0.018-0.503s-0.033-0.105-0.06-0.128s-0.062-0.034-0.104-0.034
		c-0.046,0-0.104,0.014-0.175,0.041l-0.045-0.092l0.722-0.297H58.511z"/>
	<path fill="#D13239" d="M59.591,28.122c-0.002,0.36,0.085,0.643,0.261,0.847c0.177,0.205,0.384,0.307,0.623,0.307
		c0.158,0,0.296-0.043,0.414-0.131c0.117-0.087,0.215-0.236,0.294-0.448l0.082,0.053c-0.037,0.242-0.145,0.462-0.322,0.661
		c-0.178,0.198-0.401,0.298-0.67,0.298c-0.291,0-0.54-0.114-0.748-0.341c-0.207-0.226-0.311-0.531-0.311-0.914
		c0-0.414,0.106-0.738,0.319-0.971c0.212-0.231,0.479-0.347,0.8-0.347c0.271,0,0.495,0.089,0.669,0.269
		c0.175,0.179,0.262,0.418,0.262,0.718H59.591z M59.591,27.969h1.122c-0.009-0.155-0.027-0.265-0.056-0.328
		c-0.044-0.099-0.11-0.177-0.197-0.232c-0.087-0.057-0.179-0.085-0.274-0.085c-0.147,0-0.278,0.058-0.393,0.171
		C59.677,27.607,59.609,27.766,59.591,27.969z"/>
	<path fill="#D13239" d="M63.647,28.713c-0.065,0.319-0.193,0.564-0.384,0.737c-0.191,0.171-0.402,0.258-0.632,0.258
		c-0.275,0-0.516-0.116-0.72-0.348c-0.205-0.23-0.307-0.543-0.307-0.937c0-0.381,0.113-0.69,0.34-0.928
		c0.227-0.239,0.499-0.358,0.816-0.358c0.238,0,0.434,0.063,0.587,0.189c0.153,0.126,0.23,0.257,0.23,0.393
		c0,0.067-0.021,0.122-0.065,0.163c-0.043,0.042-0.104,0.062-0.181,0.062c-0.104,0-0.183-0.033-0.235-0.101
		c-0.03-0.037-0.05-0.107-0.06-0.212c-0.01-0.104-0.045-0.184-0.107-0.238c-0.062-0.053-0.147-0.079-0.257-0.079
		c-0.176,0-0.318,0.065-0.426,0.196c-0.143,0.172-0.214,0.4-0.214,0.685c0,0.289,0.071,0.545,0.213,0.767
		c0.142,0.222,0.333,0.331,0.575,0.331c0.173,0,0.328-0.059,0.466-0.177c0.097-0.081,0.191-0.228,0.283-0.441L63.647,28.713z"/>
	<path fill="#D13239" d="M64.697,26.413v0.797h0.566v0.185h-0.566v1.572c0,0.156,0.023,0.263,0.068,0.317
		c0.044,0.054,0.102,0.082,0.173,0.082c0.059,0,0.115-0.018,0.169-0.055c0.055-0.036,0.098-0.09,0.126-0.16h0.104
		c-0.062,0.174-0.149,0.303-0.262,0.391s-0.229,0.131-0.349,0.131c-0.081,0-0.161-0.022-0.238-0.067s-0.135-0.109-0.172-0.192
		c-0.037-0.085-0.056-0.214-0.056-0.388v-1.631h-0.384v-0.087c0.097-0.039,0.197-0.104,0.298-0.197s0.192-0.202,0.271-0.329
		c0.041-0.067,0.096-0.189,0.169-0.368H64.697z"/>
	<path fill="#D13239" d="M66.208,27.138v0.545c0.203-0.363,0.411-0.545,0.625-0.545c0.097,0,0.177,0.03,0.24,0.089
		c0.063,0.06,0.096,0.128,0.096,0.205c0,0.068-0.023,0.127-0.069,0.175c-0.046,0.047-0.101,0.071-0.164,0.071
		c-0.062,0-0.131-0.03-0.208-0.091c-0.077-0.062-0.133-0.091-0.17-0.091c-0.032,0-0.066,0.017-0.104,0.052
		c-0.079,0.072-0.161,0.192-0.246,0.358v1.161c0,0.133,0.017,0.235,0.05,0.304c0.023,0.048,0.064,0.088,0.122,0.119
		c0.058,0.032,0.142,0.048,0.251,0.048v0.096h-1.241v-0.096c0.124,0,0.215-0.02,0.275-0.059c0.043-0.028,0.075-0.073,0.093-0.135
		c0.008-0.029,0.013-0.115,0.013-0.257v-0.939c0-0.281-0.005-0.449-0.017-0.503c-0.012-0.055-0.033-0.094-0.063-0.119
		c-0.031-0.023-0.069-0.037-0.116-0.037c-0.055,0-0.116,0.014-0.185,0.04l-0.026-0.095l0.733-0.297H66.208z"/>
	<path fill="#D13239" d="M68.14,27.138v1.948c0,0.15,0.011,0.252,0.033,0.302c0.022,0.052,0.055,0.088,0.098,0.113
		c0.043,0.024,0.122,0.037,0.236,0.037v0.096h-1.177v-0.096c0.118,0,0.197-0.012,0.238-0.034c0.041-0.023,0.073-0.062,0.096-0.114
		c0.024-0.053,0.036-0.154,0.036-0.304v-0.935c0-0.263-0.008-0.433-0.024-0.511c-0.012-0.057-0.032-0.096-0.058-0.118
		c-0.027-0.021-0.062-0.033-0.108-0.033c-0.049,0-0.109,0.014-0.18,0.04l-0.038-0.095l0.73-0.297H68.14z M67.92,25.87
		c0.074,0,0.137,0.026,0.189,0.079c0.052,0.052,0.078,0.114,0.078,0.189c0,0.073-0.026,0.137-0.078,0.189
		c-0.052,0.054-0.115,0.079-0.189,0.079c-0.074,0-0.138-0.025-0.19-0.079c-0.053-0.053-0.08-0.116-0.08-0.189
		c0-0.075,0.026-0.138,0.078-0.189C67.781,25.896,67.844,25.87,67.92,25.87z"/>
	<path fill="#D13239" d="M70.868,28.713c-0.065,0.319-0.193,0.564-0.384,0.737c-0.191,0.171-0.402,0.258-0.633,0.258
		c-0.275,0-0.515-0.116-0.719-0.348c-0.205-0.23-0.307-0.543-0.307-0.937c0-0.381,0.113-0.69,0.34-0.928
		c0.227-0.239,0.499-0.358,0.816-0.358c0.238,0,0.434,0.063,0.587,0.189c0.154,0.126,0.23,0.257,0.23,0.393
		c0,0.067-0.022,0.122-0.065,0.163c-0.043,0.042-0.104,0.062-0.182,0.062c-0.104,0-0.182-0.033-0.235-0.101
		c-0.03-0.037-0.05-0.107-0.06-0.212c-0.01-0.104-0.045-0.184-0.107-0.238c-0.062-0.053-0.147-0.079-0.257-0.079
		c-0.176,0-0.318,0.065-0.426,0.196c-0.143,0.172-0.214,0.4-0.214,0.685c0,0.289,0.071,0.545,0.213,0.767s0.334,0.331,0.576,0.331
		c0.172,0,0.328-0.059,0.466-0.177c0.097-0.081,0.191-0.228,0.283-0.441L70.868,28.713z"/>
	<path fill="#D13239" d="M72.588,29.284c-0.249,0.191-0.405,0.304-0.468,0.333c-0.095,0.044-0.197,0.065-0.304,0.065
		c-0.168,0-0.306-0.056-0.414-0.171s-0.163-0.266-0.163-0.453c0-0.117,0.027-0.22,0.08-0.307c0.072-0.119,0.198-0.233,0.377-0.338
		c0.179-0.106,0.477-0.235,0.893-0.388v-0.094c0-0.243-0.039-0.408-0.115-0.498S72.284,27.3,72.138,27.3
		c-0.111,0-0.199,0.03-0.264,0.09c-0.067,0.06-0.101,0.129-0.101,0.206l0.005,0.153c0,0.082-0.021,0.144-0.062,0.188
		c-0.042,0.045-0.096,0.066-0.163,0.066c-0.065,0-0.119-0.022-0.16-0.068c-0.041-0.046-0.062-0.108-0.062-0.188
		c0-0.152,0.078-0.291,0.232-0.418c0.156-0.128,0.374-0.191,0.654-0.191c0.215,0,0.392,0.036,0.53,0.108
		c0.104,0.055,0.18,0.141,0.229,0.257c0.032,0.076,0.048,0.231,0.048,0.466v0.823c0,0.23,0.004,0.372,0.013,0.425
		c0.009,0.052,0.023,0.086,0.043,0.104c0.021,0.017,0.044,0.027,0.071,0.027c0.028,0,0.053-0.008,0.074-0.02
		c0.037-0.023,0.108-0.087,0.214-0.193v0.148c-0.197,0.264-0.386,0.396-0.566,0.396c-0.086,0-0.155-0.03-0.207-0.09
		C72.616,29.531,72.589,29.429,72.588,29.284z M72.588,29.112v-0.924c-0.267,0.106-0.438,0.181-0.516,0.226
		c-0.14,0.077-0.239,0.158-0.299,0.242c-0.06,0.086-0.09,0.178-0.09,0.278c0,0.127,0.038,0.232,0.114,0.315
		c0.076,0.085,0.163,0.127,0.262,0.127C72.193,29.377,72.369,29.288,72.588,29.112z"/>
	<path fill="#D13239" d="M74.453,25.87v3.216c0,0.15,0.011,0.252,0.033,0.302c0.023,0.049,0.056,0.086,0.103,0.112
		c0.045,0.025,0.131,0.038,0.257,0.038v0.096h-1.189v-0.096c0.112,0,0.187-0.012,0.228-0.034c0.041-0.023,0.072-0.062,0.095-0.114
		s0.035-0.154,0.035-0.304v-2.203c0-0.271-0.006-0.44-0.019-0.503s-0.032-0.105-0.06-0.128s-0.062-0.034-0.104-0.034
		c-0.046,0-0.104,0.014-0.175,0.041l-0.044-0.092l0.722-0.297H74.453z"/>
	<path fill="#D13239" d="M78.795,25.963v1.241h-0.098c-0.032-0.238-0.088-0.428-0.17-0.568c-0.082-0.142-0.199-0.254-0.352-0.337
		c-0.151-0.082-0.308-0.124-0.47-0.124c-0.185,0-0.336,0.056-0.456,0.168s-0.18,0.239-0.18,0.383c0,0.109,0.038,0.209,0.113,0.299
		c0.109,0.132,0.37,0.309,0.781,0.529c0.334,0.18,0.563,0.317,0.686,0.415c0.124,0.095,0.218,0.209,0.283,0.339
		c0.066,0.13,0.1,0.268,0.1,0.41c0,0.271-0.105,0.506-0.315,0.703c-0.211,0.196-0.482,0.294-0.813,0.294
		c-0.104,0-0.202-0.007-0.295-0.022c-0.055-0.01-0.168-0.042-0.34-0.098c-0.171-0.056-0.28-0.083-0.327-0.083
		c-0.043,0-0.078,0.014-0.104,0.04c-0.024,0.025-0.043,0.08-0.056,0.163h-0.099v-1.229h0.099c0.046,0.257,0.107,0.449,0.185,0.577
		c0.078,0.129,0.197,0.235,0.356,0.318c0.159,0.085,0.335,0.128,0.524,0.128c0.221,0,0.396-0.059,0.523-0.175
		c0.127-0.116,0.19-0.255,0.19-0.412c0-0.089-0.023-0.177-0.072-0.268c-0.048-0.09-0.123-0.174-0.226-0.251
		c-0.069-0.054-0.257-0.166-0.564-0.338c-0.307-0.173-0.524-0.31-0.654-0.412c-0.129-0.102-0.228-0.215-0.295-0.338
		c-0.067-0.124-0.101-0.26-0.101-0.407c0-0.258,0.099-0.479,0.296-0.666c0.198-0.187,0.449-0.279,0.754-0.279
		c0.191,0,0.393,0.047,0.606,0.14c0.099,0.045,0.169,0.066,0.209,0.066c0.046,0,0.084-0.014,0.112-0.041
		c0.03-0.026,0.053-0.082,0.07-0.165H78.795z"/>
	<path fill="#D13239" d="M79.356,27.21h1.13v0.098h-0.056c-0.08,0-0.139,0.018-0.179,0.051c-0.04,0.035-0.06,0.078-0.06,0.129
		c0,0.068,0.028,0.164,0.087,0.285l0.591,1.224l0.542-1.34c0.03-0.072,0.046-0.144,0.046-0.214c0-0.031-0.007-0.056-0.019-0.071
		c-0.015-0.02-0.037-0.035-0.066-0.046c-0.03-0.013-0.084-0.018-0.159-0.018V27.21h0.788v0.098c-0.064,0.008-0.115,0.021-0.15,0.042
		c-0.035,0.021-0.074,0.062-0.117,0.119c-0.015,0.024-0.045,0.094-0.09,0.204l-0.986,2.418c-0.096,0.234-0.22,0.412-0.375,0.532
		c-0.154,0.119-0.303,0.18-0.445,0.18c-0.104,0-0.19-0.03-0.257-0.09c-0.066-0.061-0.101-0.129-0.101-0.206
		c0-0.074,0.024-0.135,0.072-0.179c0.049-0.046,0.115-0.068,0.2-0.068c0.058,0,0.138,0.021,0.239,0.059
		c0.069,0.026,0.113,0.039,0.132,0.039c0.052,0,0.11-0.025,0.173-0.081c0.062-0.055,0.126-0.161,0.189-0.318l0.172-0.42
		l-0.871-1.828c-0.025-0.055-0.068-0.123-0.127-0.204c-0.044-0.062-0.08-0.104-0.108-0.125c-0.04-0.027-0.105-0.052-0.195-0.073
		V27.21z"/>
	<path fill="#D13239" d="M83.77,27.138v0.826h-0.087c-0.067-0.26-0.153-0.436-0.258-0.529c-0.105-0.094-0.238-0.141-0.401-0.141
		c-0.123,0-0.224,0.032-0.298,0.098c-0.076,0.065-0.115,0.138-0.115,0.218c0,0.098,0.029,0.183,0.085,0.254
		c0.055,0.072,0.166,0.149,0.334,0.229l0.386,0.188c0.358,0.175,0.537,0.405,0.537,0.689c0,0.222-0.083,0.399-0.25,0.534
		s-0.354,0.203-0.56,0.203c-0.148,0-0.317-0.027-0.508-0.08c-0.058-0.018-0.105-0.026-0.143-0.026c-0.041,0-0.072,0.022-0.096,0.069
		H82.31v-0.866h0.087c0.05,0.248,0.144,0.434,0.283,0.559c0.139,0.126,0.296,0.188,0.468,0.188c0.123,0,0.222-0.036,0.299-0.108
		c0.076-0.07,0.114-0.157,0.114-0.258c0-0.121-0.043-0.224-0.128-0.306c-0.085-0.083-0.256-0.188-0.512-0.315
		c-0.256-0.128-0.424-0.242-0.504-0.344c-0.078-0.101-0.118-0.228-0.118-0.381c0-0.199,0.068-0.366,0.204-0.501
		c0.138-0.134,0.314-0.201,0.531-0.201c0.095,0,0.211,0.021,0.347,0.062c0.09,0.025,0.15,0.04,0.18,0.04
		c0.028,0,0.051-0.007,0.066-0.019c0.016-0.013,0.034-0.04,0.056-0.083H83.77z"/>
	<path fill="#D13239" d="M85.017,26.413v0.797h0.565v0.185h-0.565v1.572c0,0.156,0.022,0.263,0.067,0.317
		c0.045,0.054,0.103,0.082,0.173,0.082c0.059,0,0.114-0.018,0.17-0.055c0.055-0.036,0.097-0.09,0.127-0.16h0.104
		c-0.062,0.174-0.149,0.303-0.263,0.391s-0.229,0.131-0.35,0.131c-0.081,0-0.16-0.022-0.238-0.067
		c-0.077-0.045-0.135-0.109-0.172-0.192c-0.037-0.085-0.056-0.214-0.056-0.388v-1.631h-0.383v-0.087
		c0.097-0.039,0.195-0.104,0.298-0.197c0.101-0.093,0.191-0.202,0.271-0.329c0.041-0.067,0.098-0.189,0.169-0.368H85.017z"/>
	<path fill="#D13239" d="M86.226,28.122c-0.002,0.36,0.086,0.643,0.262,0.847c0.177,0.205,0.384,0.307,0.622,0.307
		c0.158,0,0.296-0.043,0.414-0.131c0.117-0.087,0.215-0.236,0.295-0.448l0.082,0.053c-0.037,0.242-0.145,0.462-0.322,0.661
		c-0.179,0.198-0.401,0.298-0.67,0.298c-0.291,0-0.541-0.114-0.748-0.341c-0.207-0.226-0.311-0.531-0.311-0.914
		c0-0.414,0.106-0.738,0.319-0.971c0.212-0.231,0.479-0.347,0.8-0.347c0.271,0,0.495,0.089,0.669,0.269
		c0.176,0.179,0.263,0.418,0.263,0.718H86.226z M86.226,27.969h1.122c-0.01-0.155-0.027-0.265-0.056-0.328
		c-0.044-0.099-0.109-0.177-0.197-0.232c-0.088-0.057-0.179-0.085-0.273-0.085c-0.147,0-0.278,0.058-0.394,0.171
		S86.245,27.766,86.226,27.969z"/>
	<path fill="#D13239" d="M88.943,27.653c0.177-0.176,0.279-0.277,0.312-0.304c0.079-0.067,0.164-0.119,0.256-0.155
		c0.092-0.038,0.183-0.057,0.273-0.057c0.15,0,0.281,0.044,0.391,0.133c0.109,0.088,0.183,0.216,0.22,0.383
		c0.182-0.211,0.335-0.35,0.461-0.416c0.125-0.066,0.254-0.1,0.386-0.1c0.13,0,0.243,0.033,0.344,0.1
		c0.099,0.066,0.178,0.174,0.236,0.325c0.039,0.102,0.058,0.261,0.058,0.48v1.043c0,0.15,0.012,0.255,0.034,0.312
		c0.019,0.039,0.051,0.072,0.098,0.1c0.049,0.027,0.126,0.041,0.233,0.041v0.096h-1.196v-0.096H91.1
		c0.104,0,0.185-0.021,0.243-0.061c0.041-0.028,0.069-0.074,0.087-0.136c0.008-0.03,0.011-0.115,0.011-0.256v-1.043
		c0-0.197-0.023-0.337-0.07-0.418c-0.069-0.113-0.18-0.169-0.331-0.169c-0.094,0-0.188,0.023-0.282,0.069
		c-0.095,0.048-0.209,0.134-0.343,0.261l-0.006,0.029l0.006,0.113v1.157c0,0.165,0.01,0.269,0.028,0.31
		c0.019,0.04,0.053,0.074,0.104,0.102c0.053,0.027,0.14,0.041,0.263,0.041v0.096h-1.225v-0.096c0.134,0,0.226-0.016,0.276-0.048
		c0.05-0.031,0.085-0.079,0.104-0.142c0.009-0.03,0.014-0.118,0.014-0.263v-1.043c0-0.197-0.029-0.339-0.087-0.427
		c-0.078-0.112-0.187-0.169-0.326-0.169c-0.095,0-0.189,0.026-0.282,0.077c-0.146,0.077-0.26,0.165-0.339,0.262v1.3
		c0,0.158,0.011,0.263,0.033,0.31c0.021,0.047,0.054,0.083,0.098,0.106c0.043,0.024,0.131,0.036,0.263,0.036v0.096h-1.198v-0.096
		c0.111,0,0.188-0.012,0.233-0.036c0.043-0.023,0.077-0.062,0.101-0.114c0.022-0.051,0.034-0.152,0.034-0.302v-0.927
		c0-0.267-0.009-0.438-0.024-0.516c-0.012-0.059-0.031-0.099-0.059-0.121c-0.025-0.021-0.062-0.033-0.108-0.033
		c-0.049,0-0.108,0.014-0.177,0.04l-0.04-0.095l0.73-0.297h0.114V27.653z"/>
	<path fill="#D13239" d="M94.004,27.138v0.826h-0.087c-0.066-0.26-0.152-0.436-0.258-0.529c-0.104-0.094-0.238-0.141-0.4-0.141
		c-0.123,0-0.224,0.032-0.3,0.098c-0.075,0.065-0.113,0.138-0.113,0.218c0,0.098,0.028,0.183,0.084,0.254
		c0.056,0.072,0.166,0.149,0.334,0.229l0.387,0.188c0.357,0.175,0.537,0.405,0.537,0.689c0,0.222-0.084,0.399-0.25,0.534
		c-0.167,0.135-0.354,0.203-0.56,0.203c-0.148,0-0.318-0.027-0.508-0.08c-0.059-0.018-0.106-0.026-0.145-0.026
		c-0.04,0-0.071,0.022-0.094,0.069h-0.088v-0.866h0.088c0.049,0.248,0.144,0.434,0.282,0.559c0.14,0.126,0.296,0.188,0.469,0.188
		c0.122,0,0.222-0.036,0.298-0.108c0.076-0.07,0.115-0.157,0.115-0.258c0-0.121-0.043-0.224-0.129-0.306
		c-0.085-0.083-0.256-0.188-0.512-0.315c-0.255-0.128-0.423-0.242-0.502-0.344c-0.08-0.101-0.12-0.228-0.12-0.381
		c0-0.199,0.068-0.366,0.206-0.501c0.136-0.134,0.313-0.201,0.53-0.201c0.095,0,0.211,0.021,0.346,0.062
		c0.091,0.025,0.15,0.04,0.181,0.04c0.028,0,0.05-0.007,0.066-0.019c0.015-0.013,0.034-0.04,0.055-0.083H94.004z"/>
</g>
<path fill="#D13239" d="M28.605,19.412l-3.431-3.431l-2.773,2.773l-1.833,1.832l0,0h1.277c-0.368,0.813-0.886,1.562-1.542,2.219
	c-1.335,1.334-3.11,2.11-4.999,2.187c-2,0.082-3.914-0.621-5.386-1.979c-1.472-1.359-2.328-3.209-2.408-5.21
	c-0.085-2.117,0.693-4.108,2.193-5.608c1.334-1.334,3.11-2.111,4.998-2.187c1.012-0.041,2.001,0.12,2.923,0.463l-4.655,4.654
	l-1.053-1.053l0,0v6.515h6.515l0,0l-1.052-1.053l4.653-4.653l2.683-2.683h0c0,0,0,0,0-0.001c1.209-1.21,1.216-3.167,0.02-4.386
	c-0.008-0.007-0.013-0.015-0.021-0.022c-0.014-0.014-0.029-0.026-0.043-0.039c-0.73-0.724-1.539-1.367-2.414-1.912
	C20,4.431,17.311,3.663,14.452,3.777c-3.589,0.145-6.802,1.655-9.156,4.009c-2.617,2.617-4.175,6.277-4.014,10.267
	c0.305,7.578,6.696,13.476,14.275,13.169c3.588-0.144,6.802-1.654,9.156-4.009c1.795-1.795,3.092-4.081,3.677-6.627h1.391h0.001
	L28.605,19.412z"/>
</svg>
