<?xml version="1.0" encoding="utf-8"?>
<!-- Generator: Adobe Illustrator 16.0.0, SVG Export Plug-In . SVG Version: 6.00 Build 0)  -->
<!DOCTYPE svg PUBLIC "-//W3C//DTD SVG 1.1//EN" "http://www.w3.org/Graphics/SVG/1.1/DTD/svg11.dtd">
<svg version="1.1" id="Layer_1" xmlns="http://www.w3.org/2000/svg" xmlns:xlink="http://www.w3.org/1999/xlink" x="0px" y="0px"
	 width="150px" height="35px" viewBox="0 0 150 35" enable-background="new 0 0 150 35" xml:space="preserve">
<g>
	<path fill="#D13239" d="M45.898,25.85h2.65c-0.119-0.105-0.195-0.219-0.229-0.341c-0.021-0.081-0.032-0.231-0.032-0.447v-0.739
		c0-0.186-0.011-0.307-0.031-0.366c-0.04-0.114-0.131-0.176-0.276-0.185V23.73c0.359-0.045,0.672-0.111,0.939-0.197
		c-0.023,0.325-0.034,0.659-0.034,1.007v0.426c0,0.349,0.007,0.56,0.021,0.637c0.042,0.259,0.154,0.419,0.338,0.479l-0.003,0.024
		h-3.764c-0.462,0-0.813-0.044-1.051-0.131c-0.294-0.106-0.467-0.284-0.52-0.532c-0.01-0.052-0.015-0.104-0.015-0.153
		c0-0.252,0.133-0.483,0.4-0.694c0.317-0.253,0.699-0.423,1.147-0.514c0.228-0.046,0.458-0.066,0.689-0.064
		c0.233,0.004,0.451,0.031,0.651,0.084l-0.073,0.647l-0.049,0.004c-0.092-0.231-0.244-0.397-0.457-0.495
		c-0.136-0.059-0.284-0.087-0.444-0.087c-0.097,0-0.196,0.01-0.301,0.03c-0.249,0.049-0.453,0.146-0.613,0.298
		c-0.175,0.162-0.272,0.363-0.291,0.604c-0.002,0.026-0.003,0.053-0.003,0.078c0,0.171,0.05,0.3,0.15,0.388
		c0.118,0.1,0.226,0.163,0.322,0.188C45.271,25.818,45.562,25.85,45.898,25.85z M45.87,22.847c0-0.104,0.035-0.188,0.106-0.26
		c0.071-0.069,0.157-0.104,0.26-0.104c0.104,0,0.191,0.034,0.261,0.102c0.07,0.07,0.105,0.155,0.105,0.262
		c0,0.102-0.035,0.185-0.106,0.253c-0.07,0.066-0.157,0.101-0.259,0.101c-0.104,0-0.192-0.034-0.262-0.1S45.87,22.95,45.87,22.847z
		 M46.793,22.847c0-0.104,0.035-0.188,0.106-0.26c0.07-0.069,0.157-0.104,0.259-0.104c0.104,0,0.191,0.034,0.261,0.102
		c0.07,0.07,0.105,0.155,0.105,0.262c0,0.102-0.036,0.185-0.106,0.253c-0.071,0.066-0.158,0.101-0.26,0.101
		c-0.104,0-0.191-0.034-0.261-0.1C46.828,23.035,46.793,22.95,46.793,22.847z"/>
	<path fill="#D13239" d="M49.671,26.121l-0.003-0.04c0.173-0.051,0.279-0.191,0.318-0.423c0.015-0.074,0.022-0.268,0.022-0.577
		v-2.654c0-0.182-0.009-0.3-0.028-0.354c-0.038-0.11-0.126-0.17-0.266-0.179v-0.041c0.242-0.021,0.513-0.085,0.813-0.194
		c-0.019,0.296-0.027,0.629-0.025,1.001v2.401c0.017,0.334,0.028,0.53,0.034,0.587c0.038,0.243,0.143,0.386,0.316,0.433v0.04
		c-0.198-0.011-0.39-0.016-0.576-0.016C50.036,26.105,49.834,26.11,49.671,26.121z"/>
	<path fill="#D13239" d="M52.174,25.899v-1.092c0-0.183-0.009-0.3-0.028-0.354c-0.037-0.111-0.125-0.17-0.263-0.18v-0.04
		c0.242-0.021,0.513-0.085,0.813-0.193c-0.022,0.331-0.028,0.723-0.016,1.173c0.013,0.451,0.012,0.722-0.003,0.813
		c0.001,0.313-0.068,0.564-0.21,0.751c-0.236,0.283-0.483,0.415-0.745,0.395c-0.26-0.023-0.462-0.122-0.604-0.297l0.148-0.552h0.037
		c0.092,0.461,0.24,0.692,0.444,0.692C52.026,27.017,52.168,26.644,52.174,25.899z"/>
	<path fill="#D13239" d="M53.194,26.105l-0.003-0.024c0.173-0.051,0.279-0.191,0.319-0.423c0.015-0.074,0.022-0.268,0.022-0.577
		v-2.654c0-0.182-0.009-0.3-0.028-0.354c-0.038-0.11-0.126-0.17-0.266-0.179v-0.041c0.242-0.021,0.514-0.085,0.814-0.194
		c-0.02,0.286-0.027,0.62-0.025,1.001v3.189h0.444v0.256H53.8C53.558,26.105,53.356,26.105,53.194,26.105z"/>
	<path fill="#D13239" d="M56.197,25.85h0.432v0.256h-2.239V25.85h1.21v-1.527c0-0.186-0.011-0.307-0.031-0.366
		c-0.04-0.114-0.132-0.176-0.275-0.185V23.73c0.358-0.045,0.672-0.111,0.938-0.197c-0.022,0.325-0.034,0.659-0.034,1.007V25.85z
		 M54.604,26.747c0-0.103,0.036-0.188,0.106-0.259c0.072-0.069,0.158-0.104,0.26-0.104c0.104,0,0.191,0.034,0.262,0.104
		c0.069,0.068,0.104,0.155,0.104,0.26c0,0.102-0.036,0.187-0.106,0.253c-0.072,0.067-0.158,0.101-0.26,0.101
		c-0.104,0-0.191-0.032-0.261-0.1C54.64,26.936,54.604,26.851,54.604,26.747z M55.449,26.747c0-0.103,0.036-0.188,0.106-0.259
		c0.071-0.069,0.158-0.104,0.259-0.104c0.104,0,0.192,0.034,0.261,0.104c0.07,0.068,0.105,0.155,0.105,0.26
		c0,0.102-0.036,0.187-0.106,0.253c-0.071,0.067-0.157,0.101-0.26,0.101c-0.104,0-0.191-0.032-0.261-0.1
		C55.485,26.936,55.449,26.851,55.449,26.747z"/>
	<path fill="#D13239" d="M61.954,25.85v0.256h-0.15c-0.344,0-0.593-0.096-0.748-0.287c-0.171,0.212-0.42,0.313-0.748,0.303
		c-0.413-0.015-0.68-0.26-0.801-0.731c-0.04,0.171-0.102,0.312-0.188,0.422c-0.169,0.219-0.42,0.322-0.754,0.31
		c-0.415-0.015-0.683-0.255-0.804-0.72c-0.04,0.167-0.102,0.304-0.185,0.41c-0.153,0.196-0.404,0.294-0.755,0.294h-0.287V25.85
		h0.275c0.257-0.042,0.414-0.171,0.473-0.385c0.024-0.081,0.037-0.362,0.037-0.843c0-0.41-0.103-0.648-0.31-0.716v-0.04
		c0.16,0.01,0.344,0.015,0.55,0.015c0.233,0,0.424-0.005,0.569-0.015l0.003,0.04c-0.139,0.042-0.232,0.146-0.278,0.313
		c-0.025,0.091-0.038,0.24-0.038,0.447v0.294c0.008,0.237,0.055,0.433,0.141,0.588c0.108,0.199,0.27,0.301,0.485,0.301
		c0.035,0,0.073-0.003,0.113-0.007c0.254-0.038,0.411-0.164,0.469-0.378c0.025-0.081,0.038-0.362,0.038-0.843
		c0-0.41-0.103-0.648-0.31-0.716v-0.04c0.161,0.01,0.346,0.015,0.554,0.015c0.231,0,0.42-0.005,0.566-0.015l0.003,0.04
		c-0.14,0.042-0.233,0.146-0.278,0.313c-0.025,0.091-0.038,0.24-0.038,0.447v0.294c0.008,0.237,0.055,0.433,0.141,0.588
		c0.108,0.199,0.27,0.301,0.485,0.301c0.036,0,0.073-0.003,0.113-0.007c0.254-0.038,0.411-0.164,0.469-0.378
		c0.026-0.081,0.038-0.362,0.038-0.843c0-0.414-0.104-0.653-0.312-0.716l0.003-0.04c0.194,0.01,0.39,0.015,0.589,0.015
		c0.198,0,0.375-0.005,0.531-0.015l0.003,0.04c-0.208,0.062-0.313,0.302-0.313,0.716v0.17c0,0.367,0.013,0.592,0.038,0.673
		c0.059,0.214,0.216,0.343,0.472,0.385H61.954z"/>
	<path fill="#D13239" d="M62.911,25.85h0.319v0.256h-1.36V25.85h0.547v-3.423c0-0.182-0.01-0.3-0.028-0.354
		c-0.038-0.11-0.125-0.17-0.263-0.179v-0.041c0.24-0.021,0.511-0.085,0.813-0.194c-0.019,0.289-0.028,0.622-0.028,1.001V25.85z"/>
	<path fill="#D13239" d="M63.142,25.85h0.729c-0.154-0.089-0.231-0.274-0.231-0.561v-2.862c0-0.182-0.01-0.3-0.029-0.354
		c-0.037-0.11-0.125-0.17-0.262-0.179v-0.041c0.239-0.021,0.51-0.085,0.81-0.194c-0.019,0.296-0.028,0.629-0.028,1.001v2.401
		c0,0.237,0.013,0.432,0.038,0.584c0.038,0.235,0.134,0.389,0.291,0.46h-1.317V25.85z"/>
	<path fill="#D13239" d="M70.801,24.442c0.572,0,0.854,0.297,0.848,0.893c-0.002,0.343,0.116,0.515,0.356,0.515h0.163v0.256h-0.241
		c-0.584,0-0.876-0.246-0.876-0.738v-0.275c0-0.265-0.161-0.397-0.481-0.397h-0.226c0.121,0.146,0.18,0.36,0.178,0.641
		c-0.004,0.418,0.116,0.666,0.36,0.746c0.031,0.009,0.03,0.016-0.002,0.024h-3.739c-0.463,0-0.813-0.059-1.051-0.178
		c-0.307-0.149-0.48-0.392-0.52-0.724c-0.01-0.079-0.016-0.155-0.016-0.228c0-0.397,0.137-0.707,0.41-0.93
		c0.313-0.259,0.616-0.41,0.91-0.453c0.469,0.01,0.804,0.05,1.004,0.119l-0.072,0.882l-0.05,0.006
		c-0.091-0.351-0.23-0.583-0.416-0.697c-0.123-0.072-0.249-0.11-0.375-0.11c-0.067,0-0.135,0.011-0.203,0.031
		c-0.196,0.061-0.358,0.209-0.485,0.442c-0.113,0.206-0.169,0.392-0.169,0.56c0,0.202,0.057,0.387,0.169,0.554
		c0.089,0.14,0.221,0.256,0.394,0.351c0.141,0.079,0.438,0.119,0.888,0.119h2.625c-0.175-0.152-0.263-0.313-0.263-0.482v-0.275
		c0-0.265-0.161-0.397-0.481-0.397H69.34l0.141-0.252H70.801z M67.826,26.747c0-0.103,0.036-0.188,0.106-0.259
		c0.071-0.069,0.158-0.104,0.26-0.104c0.104,0,0.192,0.034,0.263,0.104c0.071,0.068,0.106,0.155,0.106,0.26
		c0,0.102-0.036,0.187-0.106,0.253c-0.071,0.067-0.159,0.101-0.263,0.101c-0.104,0-0.191-0.032-0.261-0.1
		C67.86,26.936,67.826,26.851,67.826,26.747z M68.673,26.747c0-0.103,0.035-0.188,0.106-0.259c0.072-0.069,0.157-0.104,0.259-0.104
		c0.105,0,0.192,0.034,0.262,0.104c0.07,0.068,0.104,0.155,0.104,0.26c0,0.102-0.036,0.187-0.106,0.253
		c-0.071,0.067-0.158,0.101-0.261,0.101c-0.104,0-0.191-0.032-0.261-0.1C68.708,26.936,68.673,26.851,68.673,26.747z"/>
	<path fill="#D13239" d="M75.193,23.371l-0.215,0.501h-0.035c-0.127-0.528-0.508-0.791-1.142-0.791c-0.2,0-0.375,0.093-0.523,0.281
		c-0.137,0.177-0.206,0.367-0.206,0.572c0,0.338,0.278,0.508,0.836,0.508h1.937c0.552,0,0.828,0.294,0.828,0.885v0.522h0.363v0.256
		h-4.95V25.85h4.007l-0.002-0.758c0-0.265-0.238-0.397-0.71-0.397h-1.615c-0.851,0-1.277-0.232-1.277-0.694
		c0-0.323,0.133-0.583,0.397-0.776c0.236-0.173,0.521-0.259,0.854-0.259C74.241,22.965,74.724,23.1,75.193,23.371z"/>
	<path fill="#D13239" d="M78.764,25.85h0.43v0.256h-2.239V25.85h1.211v-1.527c0-0.186-0.011-0.307-0.031-0.366
		c-0.039-0.114-0.132-0.176-0.275-0.185V23.73c0.358-0.045,0.673-0.111,0.938-0.197c-0.023,0.325-0.033,0.659-0.033,1.007V25.85z
		 M77.17,26.747c0-0.103,0.036-0.188,0.107-0.259c0.07-0.069,0.156-0.104,0.259-0.104c0.104,0,0.19,0.034,0.262,0.104
		c0.069,0.068,0.104,0.155,0.104,0.26c0,0.102-0.037,0.187-0.105,0.253c-0.072,0.067-0.158,0.101-0.261,0.101
		c-0.104,0-0.191-0.032-0.261-0.1C77.205,26.936,77.17,26.851,77.17,26.747z M78.015,26.747c0-0.103,0.036-0.188,0.107-0.259
		c0.069-0.069,0.156-0.104,0.259-0.104c0.104,0,0.191,0.034,0.262,0.104c0.07,0.068,0.104,0.155,0.104,0.26
		c0,0.102-0.034,0.187-0.106,0.253c-0.07,0.067-0.158,0.101-0.26,0.101c-0.104,0-0.191-0.032-0.262-0.1
		C78.051,26.936,78.015,26.851,78.015,26.747z"/>
	<path fill="#D13239" d="M79.101,25.85h1.308c-0.102-0.105-0.167-0.219-0.197-0.341c-0.019-0.081-0.027-0.231-0.027-0.447v-0.739
		c0-0.186-0.012-0.307-0.032-0.366c-0.039-0.114-0.132-0.176-0.275-0.185V23.73c0.358-0.045,0.673-0.111,0.939-0.197
		c-0.023,0.325-0.034,0.659-0.034,1.007v0.426c0,0.349,0.007,0.56,0.021,0.637c0.041,0.259,0.154,0.419,0.338,0.479l-0.004,0.024
		h-2.036V25.85z M79.251,22.847c0-0.104,0.035-0.188,0.106-0.26c0.07-0.069,0.158-0.104,0.26-0.104c0.104,0,0.191,0.034,0.262,0.102
		c0.072,0.07,0.107,0.155,0.107,0.262c0,0.102-0.035,0.185-0.107,0.253c-0.07,0.066-0.157,0.101-0.262,0.101
		c-0.102,0-0.189-0.034-0.26-0.1C79.286,23.035,79.251,22.95,79.251,22.847z"/>
	<path fill="#D13239" d="M81.525,26.105l-0.003-0.024c0.172-0.051,0.279-0.191,0.319-0.423c0.014-0.074,0.021-0.268,0.021-0.577
		v-2.654c0-0.182-0.01-0.3-0.029-0.354c-0.036-0.11-0.125-0.17-0.265-0.179v-0.041c0.241-0.021,0.513-0.085,0.813-0.194
		c-0.021,0.286-0.027,0.62-0.026,1.001v3.189h0.445v0.256h-0.67C81.89,26.105,81.688,26.105,81.525,26.105z"/>
	<path fill="#D13239" d="M85.827,23.371l-0.216,0.501h-0.035c-0.127-0.528-0.508-0.791-1.142-0.791c-0.2,0-0.374,0.093-0.522,0.281
		c-0.138,0.177-0.206,0.367-0.206,0.572c0,0.338,0.278,0.508,0.835,0.508h1.938c0.552,0,0.828,0.294,0.828,0.885v0.522h0.362v0.256
		h-4.948V25.85h4.007l-0.002-0.758c0-0.265-0.238-0.397-0.711-0.397H84.4c-0.851,0-1.276-0.232-1.276-0.694
		c0-0.323,0.132-0.583,0.397-0.776c0.236-0.173,0.52-0.259,0.854-0.259C84.874,22.965,85.358,23.1,85.827,23.371z"/>
	<path fill="#D13239" d="M89.396,25.85h0.432v0.256h-2.241V25.85h1.212v-1.527c0-0.186-0.01-0.307-0.03-0.366
		c-0.04-0.114-0.133-0.176-0.276-0.185V23.73c0.358-0.045,0.672-0.111,0.938-0.197c-0.022,0.325-0.034,0.659-0.034,1.007V25.85z
		 M87.804,26.747c0-0.103,0.035-0.188,0.106-0.259c0.071-0.069,0.157-0.104,0.26-0.104c0.104,0,0.192,0.034,0.261,0.104
		c0.07,0.068,0.105,0.155,0.105,0.26c0,0.102-0.036,0.187-0.106,0.253c-0.071,0.067-0.157,0.101-0.26,0.101
		c-0.104,0-0.192-0.032-0.261-0.1C87.839,26.936,87.804,26.851,87.804,26.747z M88.648,26.747c0-0.103,0.035-0.188,0.107-0.259
		c0.07-0.069,0.156-0.104,0.259-0.104c0.104,0,0.191,0.034,0.261,0.104c0.07,0.068,0.105,0.155,0.105,0.26
		c0,0.102-0.035,0.187-0.107,0.253c-0.07,0.067-0.156,0.101-0.259,0.101c-0.104,0-0.191-0.032-0.261-0.1
		C88.683,26.936,88.648,26.851,88.648,26.747z"/>
	<path fill="#D13239" d="M92.787,25.85h0.52v0.256h-0.673c-0.037,0.048-0.078,0.094-0.122,0.135
		c-0.249,0.235-0.578,0.354-0.984,0.354c-0.396,0-0.718-0.118-0.965-0.356c-0.044-0.042-0.083-0.087-0.118-0.132h-0.71V25.85h0.56
		c-0.069-0.163-0.103-0.344-0.103-0.545c0-0.38,0.131-0.686,0.397-0.917c0.25-0.218,0.567-0.328,0.953-0.328
		c0.392,0,0.712,0.113,0.958,0.338c0.256,0.233,0.385,0.544,0.385,0.93C92.885,25.521,92.853,25.695,92.787,25.85z M90.761,25.316
		c0,0.324,0.052,0.587,0.156,0.789c0.134,0.267,0.347,0.4,0.639,0.4c0.285,0,0.493-0.134,0.625-0.4
		c0.103-0.202,0.153-0.464,0.153-0.786c0-0.321-0.051-0.583-0.153-0.781c-0.137-0.264-0.349-0.394-0.641-0.394
		c-0.282,0-0.489,0.132-0.623,0.396C90.812,24.748,90.761,25.006,90.761,25.316z"/>
	<path fill="#D13239" d="M93.226,25.85h0.729c-0.153-0.089-0.231-0.274-0.231-0.561v-2.862c0-0.182-0.009-0.3-0.027-0.354
		c-0.038-0.11-0.126-0.17-0.263-0.179v-0.041c0.239-0.021,0.51-0.085,0.81-0.194c-0.019,0.296-0.028,0.629-0.028,1.001v2.401
		c0,0.237,0.013,0.432,0.039,0.584c0.037,0.235,0.134,0.389,0.29,0.46h-1.317V25.85z"/>
	<path fill="#D13239" d="M94.915,26.121l-0.004-0.04c0.174-0.051,0.28-0.191,0.32-0.423c0.014-0.074,0.021-0.268,0.021-0.577v-2.654
		c0-0.182-0.009-0.3-0.027-0.354c-0.037-0.11-0.126-0.17-0.266-0.179v-0.041c0.241-0.021,0.513-0.085,0.813-0.194
		c-0.02,0.296-0.028,0.629-0.026,1.001v2.401c0.018,0.334,0.029,0.53,0.036,0.587c0.037,0.243,0.143,0.386,0.314,0.433v0.04
		c-0.196-0.011-0.39-0.016-0.575-0.016C95.279,26.105,95.078,26.11,94.915,26.121z"/>
	<path fill="#D13239" d="M102.292,25.85h0.375v0.256h-3.86c-0.463,0-0.813-0.044-1.051-0.131c-0.294-0.106-0.468-0.284-0.52-0.532
		c-0.011-0.052-0.016-0.104-0.016-0.153c0-0.252,0.132-0.483,0.4-0.694c0.316-0.253,0.7-0.423,1.147-0.514
		c0.228-0.046,0.457-0.066,0.688-0.064c0.233,0.004,0.451,0.031,0.65,0.084l-0.071,0.647l-0.05,0.004
		c-0.093-0.231-0.244-0.397-0.457-0.495c-0.136-0.059-0.283-0.087-0.444-0.087c-0.097,0-0.196,0.01-0.3,0.03
		c-0.249,0.049-0.453,0.146-0.614,0.298c-0.175,0.162-0.272,0.363-0.291,0.604c-0.002,0.026-0.002,0.053-0.002,0.078
		c0,0.171,0.05,0.3,0.15,0.388c0.118,0.1,0.225,0.163,0.321,0.188c0.248,0.063,0.54,0.095,0.876,0.095h2.466v-1.527
		c0-0.186-0.012-0.307-0.031-0.366c-0.04-0.114-0.131-0.176-0.273-0.185V23.73c0.36-0.045,0.672-0.111,0.936-0.197
		c-0.02,0.325-0.03,0.659-0.03,1.007V25.85z M99.197,22.847c0-0.104,0.035-0.188,0.106-0.26c0.071-0.069,0.157-0.104,0.26-0.104
		c0.104,0,0.191,0.034,0.262,0.102c0.069,0.07,0.104,0.155,0.104,0.262c0,0.102-0.036,0.185-0.106,0.253
		c-0.07,0.066-0.158,0.101-0.26,0.101c-0.104,0-0.19-0.034-0.262-0.1C99.232,23.035,99.197,22.95,99.197,22.847z M100.12,22.847
		c0-0.104,0.036-0.188,0.107-0.26c0.07-0.069,0.157-0.104,0.26-0.104s0.19,0.034,0.26,0.102c0.071,0.07,0.106,0.155,0.106,0.262
		c0,0.102-0.035,0.185-0.108,0.253c-0.07,0.066-0.157,0.101-0.258,0.101c-0.105,0-0.191-0.034-0.262-0.1
		C100.156,23.035,100.12,22.95,100.12,22.847z"/>
	<path fill="#D13239" d="M104.387,25.85h0.433v0.256h-2.24V25.85h1.211v-1.527c0-0.186-0.01-0.307-0.031-0.366
		c-0.039-0.114-0.131-0.176-0.275-0.185V23.73c0.359-0.045,0.672-0.111,0.938-0.197c-0.022,0.325-0.035,0.659-0.035,1.007V25.85z
		 M102.796,26.747c0-0.103,0.035-0.188,0.105-0.259c0.07-0.069,0.158-0.104,0.261-0.104c0.104,0,0.191,0.034,0.261,0.104
		c0.07,0.068,0.104,0.155,0.104,0.26c0,0.102-0.035,0.187-0.106,0.253c-0.07,0.067-0.157,0.101-0.259,0.101
		c-0.105,0-0.192-0.032-0.262-0.1C102.831,26.936,102.796,26.851,102.796,26.747z M103.64,26.747c0-0.103,0.035-0.188,0.107-0.259
		c0.07-0.069,0.156-0.104,0.259-0.104c0.104,0,0.191,0.034,0.262,0.104c0.069,0.068,0.104,0.155,0.104,0.26
		c0,0.102-0.035,0.187-0.105,0.253c-0.071,0.067-0.157,0.101-0.26,0.101c-0.104,0-0.19-0.032-0.26-0.1
		C103.674,26.936,103.64,26.851,103.64,26.747z"/>
	<path fill="#D13239" d="M106.33,25.85h0.354v0.256h-1.959V25.85h1.005v-1.527c0-0.186-0.011-0.307-0.031-0.366
		c-0.04-0.114-0.131-0.176-0.272-0.185V23.73c0.357-0.045,0.67-0.111,0.936-0.197c-0.021,0.325-0.032,0.659-0.032,1.007V25.85z
		 M105.174,26.747c0-0.103,0.035-0.188,0.105-0.259c0.071-0.069,0.157-0.104,0.26-0.104c0.104,0,0.191,0.034,0.262,0.104
		c0.069,0.068,0.104,0.155,0.104,0.26c0,0.102-0.036,0.187-0.105,0.253c-0.072,0.067-0.158,0.101-0.261,0.101
		c-0.104,0-0.191-0.032-0.262-0.1C105.208,26.936,105.174,26.851,105.174,26.747z"/>
	<path fill="#D13239" d="M106.599,25.85h0.73c-0.154-0.089-0.231-0.274-0.231-0.561v-2.862c0-0.182-0.011-0.3-0.029-0.354
		c-0.037-0.11-0.124-0.17-0.262-0.179v-0.041c0.239-0.021,0.509-0.085,0.809-0.194c-0.018,0.296-0.027,0.629-0.027,1.001v2.401
		c0,0.237,0.014,0.432,0.037,0.584c0.038,0.235,0.136,0.389,0.292,0.46h-1.318V25.85z"/>
	<path fill="#D13239" d="M108.289,26.121l-0.003-0.04c0.173-0.051,0.279-0.191,0.318-0.423c0.015-0.074,0.022-0.268,0.022-0.577
		v-2.654c0-0.182-0.01-0.3-0.028-0.354c-0.037-0.11-0.126-0.17-0.266-0.179v-0.041c0.242-0.021,0.513-0.085,0.812-0.194
		c-0.018,0.296-0.027,0.629-0.024,1.001v2.401c0.016,0.334,0.028,0.53,0.034,0.587c0.037,0.243,0.143,0.386,0.316,0.433v0.04
		c-0.198-0.011-0.39-0.016-0.575-0.016C108.654,26.105,108.452,26.11,108.289,26.121z"/>
	<path fill="#D13239" d="M112.662,26.105v-0.578c-0.075,0.164-0.193,0.292-0.353,0.385c-0.154,0.084-0.325,0.128-0.514,0.128
		c-0.356,0-0.648-0.127-0.876-0.382c-0.217-0.246-0.325-0.55-0.325-0.91c0-0.357,0.114-0.646,0.344-0.872
		c0.229-0.224,0.522-0.336,0.879-0.336c0.339,0,0.615,0.163,0.832,0.488c0.051-0.142,0.116-0.283,0.197-0.426h0.507l0.197-0.006
		v0.032c-0.137,0.03-0.221,0.156-0.25,0.377c-0.008,0.051-0.013,0.219-0.013,0.504v1.34h0.523v0.256H112.662z M110.973,22.854
		c0-0.104,0.035-0.189,0.107-0.258c0.07-0.069,0.157-0.104,0.259-0.104c0.104,0,0.191,0.033,0.261,0.102
		c0.071,0.067,0.106,0.153,0.106,0.26c0,0.103-0.035,0.188-0.108,0.253c-0.069,0.065-0.157,0.099-0.259,0.099
		c-0.104,0-0.19-0.033-0.261-0.099C111.008,23.042,110.973,22.956,110.973,22.854z M111.177,24.808c0,0.271,0.058,0.493,0.172,0.665
		c0.136,0.208,0.332,0.311,0.592,0.311c0.258,0,0.452-0.102,0.585-0.307c0.11-0.171,0.165-0.395,0.165-0.669
		c0-0.279-0.056-0.505-0.168-0.675c-0.133-0.206-0.328-0.309-0.589-0.309c-0.26,0-0.456,0.104-0.588,0.31
		C111.232,24.31,111.177,24.534,111.177,24.808z M111.896,22.854c0-0.104,0.036-0.189,0.106-0.258
		c0.071-0.069,0.157-0.104,0.26-0.104c0.105,0,0.19,0.033,0.262,0.102c0.07,0.067,0.104,0.153,0.104,0.26
		c0,0.103-0.035,0.188-0.105,0.253c-0.071,0.065-0.158,0.099-0.261,0.099c-0.104,0-0.19-0.033-0.261-0.099
		C111.931,23.042,111.896,22.956,111.896,22.854z"/>
	<path fill="#D13239" d="M113.727,26.105V25.85h0.274c0.252-0.042,0.408-0.165,0.47-0.367c0.027-0.09,0.041-0.308,0.041-0.656
		v-0.231c0-0.393-0.104-0.621-0.31-0.688v-0.04c0.161,0.01,0.344,0.015,0.551,0.015c0.233,0,0.424-0.005,0.568-0.015l0.003,0.04
		c-0.138,0.042-0.228,0.144-0.271,0.304c-0.028,0.092-0.044,0.235-0.044,0.432v0.193c0,0.012,0,0.032,0,0.063
		c0,0.025,0,0.046,0,0.062c0.009,0.237,0.056,0.433,0.141,0.588c0.109,0.199,0.27,0.301,0.485,0.301
		c0.034,0,0.072-0.003,0.112-0.007c0.251-0.038,0.405-0.158,0.466-0.363c0.027-0.086,0.041-0.303,0.041-0.653v-0.231
		c0-0.393-0.104-0.621-0.31-0.688v-0.04c0.161,0.01,0.345,0.015,0.553,0.015c0.232,0,0.422-0.005,0.566-0.015l0.004,0.04
		c-0.138,0.042-0.229,0.144-0.272,0.304c-0.029,0.092-0.045,0.235-0.045,0.432v0.193c0,0.104-0.003,0.202-0.011,0.291
		c0.064,0.484,0.271,0.726,0.616,0.724c0.033,0,0.069-0.003,0.105-0.007c0.254-0.038,0.41-0.158,0.47-0.363
		c0.026-0.086,0.04-0.303,0.04-0.653v-0.231c0-0.393-0.103-0.621-0.31-0.688v-0.04c0.161,0.01,0.345,0.015,0.552,0.015
		c0.233,0,0.423-0.005,0.569-0.015l0.002,0.04c-0.137,0.042-0.229,0.144-0.274,0.304c-0.027,0.092-0.041,0.235-0.041,0.432v0.193
		c0,0.444-0.081,0.771-0.241,0.977c-0.171,0.219-0.422,0.322-0.754,0.31c-0.398-0.015-0.66-0.243-0.788-0.686
		c-0.04,0.152-0.097,0.278-0.174,0.376c-0.17,0.219-0.422,0.322-0.755,0.31c-0.416-0.015-0.684-0.255-0.805-0.72
		c-0.04,0.167-0.101,0.304-0.184,0.41c-0.152,0.196-0.403,0.294-0.755,0.294H113.727z M115.646,23.092
		c0-0.103,0.036-0.19,0.107-0.258c0.07-0.07,0.157-0.104,0.259-0.104c0.104,0,0.191,0.033,0.262,0.104
		c0.07,0.067,0.105,0.155,0.105,0.258c0,0.104-0.036,0.188-0.107,0.255c-0.07,0.066-0.157,0.1-0.26,0.1
		c-0.104,0-0.191-0.032-0.261-0.099S115.646,23.197,115.646,23.092z M116.072,22.282c0-0.102,0.036-0.188,0.106-0.258
		c0.07-0.069,0.159-0.105,0.262-0.105c0.105,0,0.192,0.036,0.263,0.104c0.069,0.069,0.104,0.155,0.104,0.26
		c0,0.104-0.036,0.187-0.105,0.254c-0.071,0.066-0.158,0.1-0.262,0.1c-0.103,0-0.191-0.033-0.262-0.098
		C116.108,22.472,116.072,22.387,116.072,22.282z M116.567,23.092c0-0.103,0.035-0.19,0.104-0.258
		c0.073-0.07,0.159-0.104,0.265-0.104c0.104,0,0.19,0.033,0.26,0.104c0.071,0.067,0.105,0.155,0.105,0.258
		c0,0.104-0.035,0.188-0.106,0.255c-0.07,0.066-0.157,0.1-0.259,0.1c-0.105,0-0.191-0.032-0.265-0.099
		C116.603,23.281,116.567,23.197,116.567,23.092z"/>
	<path fill="#D13239" d="M120.131,25.899v-1.092c0-0.183-0.011-0.3-0.029-0.354c-0.037-0.111-0.124-0.17-0.263-0.18v-0.04
		c0.242-0.021,0.514-0.085,0.813-0.193c-0.022,0.331-0.028,0.723-0.016,1.173c0.013,0.451,0.012,0.722-0.003,0.813
		c0.002,0.313-0.067,0.564-0.21,0.751c-0.235,0.283-0.482,0.415-0.745,0.395c-0.26-0.023-0.461-0.122-0.604-0.297l0.147-0.552h0.038
		c0.092,0.461,0.239,0.692,0.444,0.692C119.982,27.017,120.124,26.644,120.131,25.899z"/>
	<path fill="#D13239" d="M121.31,26.96l0.216-0.664h0.038c0.126,0.582,0.438,0.873,0.936,0.873c0.711,0,1.067-0.562,1.067-1.687
		v-0.047c-0.187,0.46-0.546,0.689-1.081,0.689c-0.331,0-0.619-0.088-0.862-0.261c-0.275-0.194-0.414-0.45-0.414-0.77
		c0-0.38,0.146-0.678,0.436-0.898c0.26-0.201,0.588-0.302,0.979-0.302c0.488,0,0.873,0.15,1.151,0.452
		c0.271,0.295,0.407,0.688,0.407,1.181c0,0.529-0.149,0.952-0.45,1.271c-0.31,0.323-0.726,0.487-1.251,0.487
		C122.096,27.285,121.706,27.177,121.31,26.96z M123.493,25.007c0-0.278-0.064-0.509-0.193-0.691
		c-0.147-0.204-0.353-0.306-0.62-0.306c-0.29,0-0.507,0.104-0.65,0.312c-0.126,0.179-0.187,0.421-0.187,0.726
		c0,0.268,0.066,0.487,0.202,0.659c0.152,0.188,0.359,0.279,0.619,0.279c0.261,0,0.469-0.1,0.623-0.3
		C123.425,25.504,123.493,25.276,123.493,25.007z"/>
</g>
<g>
	<path fill="#D13239" d="M46.248,33.076l-1.529-3.33v2.644c0,0.244,0.026,0.396,0.079,0.457c0.072,0.081,0.186,0.121,0.341,0.121
		h0.141v0.108h-1.377v-0.108h0.14c0.167,0,0.286-0.05,0.356-0.151c0.043-0.062,0.063-0.203,0.063-0.427v-2.585
		c0-0.175-0.019-0.302-0.058-0.38c-0.027-0.056-0.077-0.103-0.15-0.141c-0.073-0.038-0.19-0.057-0.352-0.057v-0.109h1.12
		l1.436,3.097l1.413-3.097h1.121v0.109h-0.137c-0.169,0-0.289,0.05-0.358,0.15c-0.043,0.063-0.064,0.204-0.064,0.427v2.585
		c0,0.244,0.027,0.396,0.082,0.457c0.072,0.081,0.186,0.121,0.341,0.121h0.137v0.108H47.31v-0.108h0.14
		c0.169,0,0.288-0.05,0.356-0.151c0.043-0.062,0.064-0.203,0.064-0.427v-2.644l-1.526,3.33H46.248z"/>
	<path fill="#D13239" d="M49.753,31.409c-0.002,0.396,0.095,0.708,0.289,0.935c0.195,0.227,0.423,0.338,0.686,0.338
		c0.174,0,0.327-0.048,0.456-0.145c0.129-0.095,0.238-0.261,0.326-0.494l0.091,0.059c-0.041,0.267-0.16,0.51-0.356,0.729
		c-0.196,0.218-0.442,0.329-0.738,0.329c-0.32,0-0.596-0.126-0.824-0.377c-0.229-0.249-0.343-0.586-0.343-1.008
		c0-0.457,0.117-0.813,0.352-1.07c0.234-0.254,0.528-0.383,0.882-0.383c0.3,0,0.546,0.1,0.739,0.297s0.289,0.461,0.289,0.791H49.753
		z M49.753,31.241h1.237c-0.01-0.172-0.03-0.292-0.061-0.362c-0.049-0.109-0.122-0.195-0.218-0.256
		c-0.096-0.063-0.197-0.095-0.302-0.095c-0.162,0-0.306,0.062-0.434,0.188C49.848,30.842,49.774,31.017,49.753,31.241z"/>
	<path fill="#D13239" d="M54.227,32.061c-0.072,0.353-0.213,0.623-0.423,0.812c-0.209,0.19-0.443,0.286-0.697,0.286
		c-0.304,0-0.568-0.129-0.794-0.384c-0.226-0.255-0.338-0.6-0.338-1.033c0-0.42,0.125-0.762,0.375-1.024
		c0.25-0.262,0.55-0.394,0.9-0.394c0.263,0,0.479,0.068,0.648,0.209c0.169,0.139,0.254,0.284,0.254,0.434
		c0,0.073-0.023,0.133-0.071,0.179c-0.048,0.046-0.115,0.068-0.201,0.068c-0.114,0-0.201-0.036-0.26-0.11
		c-0.033-0.041-0.055-0.119-0.065-0.233c-0.011-0.115-0.051-0.203-0.119-0.264c-0.068-0.059-0.163-0.087-0.283-0.087
		c-0.195,0-0.351,0.072-0.47,0.217c-0.158,0.19-0.237,0.441-0.237,0.756c0,0.318,0.078,0.601,0.235,0.845s0.368,0.365,0.635,0.365
		c0.191,0,0.362-0.063,0.514-0.195c0.107-0.089,0.211-0.251,0.312-0.487L54.227,32.061z"/>
	<path fill="#D13239" d="M55.394,28.926v1.956c0.216-0.238,0.387-0.39,0.514-0.456c0.126-0.068,0.253-0.102,0.379-0.102
		c0.151,0,0.282,0.042,0.391,0.126c0.109,0.084,0.19,0.214,0.242,0.394c0.037,0.125,0.056,0.353,0.056,0.683v0.946
		c0,0.169,0.014,0.284,0.04,0.347c0.02,0.047,0.053,0.084,0.1,0.11c0.046,0.028,0.132,0.04,0.257,0.04v0.106H56.06V32.97h0.061
		c0.125,0,0.211-0.018,0.26-0.056c0.048-0.038,0.083-0.094,0.102-0.168c0.006-0.03,0.009-0.123,0.009-0.273v-0.946
		c0-0.292-0.015-0.482-0.046-0.575c-0.03-0.092-0.078-0.159-0.144-0.206c-0.066-0.044-0.146-0.068-0.239-0.068
		c-0.095,0-0.194,0.025-0.298,0.076c-0.103,0.051-0.227,0.152-0.371,0.307v1.413c0,0.182,0.01,0.297,0.031,0.341
		c0.021,0.045,0.058,0.082,0.113,0.113c0.055,0.029,0.151,0.043,0.288,0.043v0.106h-1.325V32.97c0.119,0,0.212-0.017,0.281-0.054
		c0.039-0.021,0.07-0.058,0.093-0.11c0.023-0.055,0.035-0.166,0.035-0.333v-2.42c0-0.305-0.007-0.493-0.022-0.562
		c-0.014-0.071-0.037-0.118-0.066-0.145c-0.031-0.024-0.072-0.037-0.122-0.037c-0.041,0-0.107,0.017-0.199,0.047l-0.041-0.102
		l0.8-0.328H55.394z"/>
	<path fill="#D13239" d="M59.112,32.692c-0.274,0.211-0.446,0.334-0.517,0.366c-0.104,0.049-0.217,0.072-0.335,0.072
		c-0.185,0-0.337-0.062-0.457-0.189s-0.179-0.292-0.179-0.498c0-0.132,0.029-0.243,0.087-0.339c0.08-0.132,0.218-0.258,0.416-0.374
		c0.197-0.117,0.526-0.258,0.985-0.427V31.2c0-0.266-0.042-0.45-0.127-0.549c-0.084-0.101-0.207-0.148-0.369-0.148
		c-0.122,0-0.219,0.032-0.292,0.099c-0.074,0.065-0.111,0.141-0.111,0.228l0.006,0.169c0,0.09-0.022,0.159-0.069,0.208
		c-0.046,0.048-0.105,0.073-0.179,0.073c-0.072,0-0.131-0.026-0.177-0.075c-0.045-0.053-0.068-0.12-0.068-0.209
		c0-0.167,0.085-0.32,0.257-0.461c0.171-0.141,0.411-0.21,0.721-0.21c0.238,0,0.433,0.04,0.584,0.119
		c0.114,0.062,0.199,0.155,0.254,0.283c0.035,0.085,0.052,0.255,0.052,0.515v0.907c0,0.255,0.005,0.411,0.015,0.468
		c0.01,0.058,0.026,0.097,0.048,0.116c0.023,0.02,0.048,0.029,0.078,0.029c0.031,0,0.058-0.007,0.082-0.021
		c0.041-0.024,0.12-0.097,0.236-0.212v0.164c-0.218,0.29-0.426,0.436-0.625,0.436c-0.096,0-0.172-0.032-0.228-0.099
		C59.143,32.964,59.114,32.851,59.112,32.692z M59.112,32.502v-1.02c-0.294,0.117-0.483,0.199-0.569,0.248
		c-0.154,0.086-0.264,0.176-0.33,0.27c-0.066,0.093-0.099,0.194-0.099,0.306c0,0.141,0.042,0.257,0.125,0.349
		c0.083,0.093,0.18,0.139,0.289,0.139C58.676,32.793,58.871,32.695,59.112,32.502z"/>
	<path fill="#D13239" d="M61.03,30.891c0.313-0.378,0.611-0.566,0.896-0.566c0.146,0,0.271,0.036,0.376,0.108
		c0.105,0.074,0.189,0.193,0.252,0.361c0.042,0.117,0.063,0.296,0.063,0.537v1.142c0,0.169,0.014,0.283,0.041,0.344
		c0.021,0.049,0.056,0.087,0.104,0.113c0.047,0.028,0.136,0.04,0.264,0.04v0.106h-1.322V32.97h0.055
		c0.124,0,0.211-0.018,0.261-0.056s0.084-0.094,0.104-0.168c0.007-0.029,0.012-0.121,0.012-0.273v-1.095
		c0-0.244-0.031-0.42-0.095-0.529s-0.17-0.166-0.319-0.166c-0.231,0-0.462,0.127-0.692,0.38v1.41c0,0.181,0.01,0.293,0.032,0.335
		c0.027,0.057,0.064,0.099,0.112,0.123c0.048,0.027,0.145,0.039,0.291,0.039v0.106h-1.322V32.97h0.059
		c0.136,0,0.228-0.033,0.275-0.103c0.047-0.068,0.071-0.201,0.071-0.395v-0.993c0-0.32-0.007-0.516-0.022-0.585
		c-0.014-0.072-0.037-0.118-0.067-0.145c-0.03-0.025-0.071-0.038-0.121-0.038c-0.055,0-0.12,0.015-0.196,0.044l-0.044-0.104
		l0.805-0.327h0.126V30.891z"/>
	<path fill="#D13239" d="M64.161,30.324v2.148c0,0.167,0.012,0.278,0.036,0.334c0.025,0.055,0.06,0.097,0.108,0.123
		c0.047,0.028,0.135,0.04,0.261,0.04v0.106h-1.299V32.97c0.131,0,0.219-0.011,0.263-0.037c0.044-0.024,0.08-0.066,0.106-0.125
		c0.026-0.059,0.04-0.169,0.04-0.335v-1.03c0-0.291-0.009-0.478-0.026-0.563c-0.014-0.062-0.035-0.104-0.064-0.131
		c-0.03-0.024-0.069-0.036-0.12-0.036c-0.055,0-0.121,0.015-0.199,0.044l-0.041-0.104l0.806-0.327H64.161z M63.919,28.926
		c0.081,0,0.15,0.029,0.208,0.088c0.058,0.057,0.086,0.126,0.086,0.207c0,0.082-0.028,0.152-0.086,0.211S64,29.519,63.919,29.519
		c-0.083,0-0.152-0.028-0.211-0.087c-0.058-0.059-0.087-0.129-0.087-0.211c0-0.081,0.028-0.15,0.085-0.207
		C63.765,28.955,63.835,28.926,63.919,28.926z"/>
	<path fill="#D13239" d="M67.17,32.061c-0.072,0.353-0.213,0.623-0.423,0.812c-0.21,0.19-0.442,0.286-0.698,0.286
		c-0.304,0-0.568-0.129-0.794-0.384c-0.226-0.255-0.338-0.6-0.338-1.033c0-0.42,0.125-0.762,0.375-1.024
		c0.25-0.262,0.55-0.394,0.9-0.394c0.263,0,0.479,0.068,0.647,0.209c0.169,0.139,0.254,0.284,0.254,0.434
		c0,0.073-0.024,0.133-0.071,0.179c-0.048,0.046-0.115,0.068-0.201,0.068c-0.114,0-0.201-0.036-0.26-0.11
		c-0.033-0.041-0.055-0.119-0.065-0.233c-0.011-0.115-0.05-0.203-0.118-0.264c-0.068-0.059-0.163-0.087-0.284-0.087
		c-0.194,0-0.351,0.072-0.469,0.217c-0.158,0.19-0.237,0.441-0.237,0.756c0,0.318,0.078,0.601,0.235,0.845
		c0.156,0.244,0.368,0.365,0.634,0.365c0.191,0,0.362-0.063,0.514-0.195c0.107-0.089,0.211-0.251,0.312-0.487L67.17,32.061z"/>
	<path fill="#D13239" d="M69.067,32.692c-0.274,0.211-0.446,0.334-0.517,0.366c-0.105,0.049-0.217,0.072-0.335,0.072
		c-0.185,0-0.337-0.062-0.457-0.189c-0.121-0.127-0.18-0.292-0.18-0.498c0-0.132,0.029-0.243,0.087-0.339
		c0.081-0.132,0.219-0.258,0.416-0.374c0.198-0.117,0.526-0.258,0.985-0.427V31.2c0-0.266-0.042-0.45-0.127-0.549
		c-0.084-0.101-0.207-0.148-0.368-0.148c-0.123,0-0.221,0.032-0.293,0.099c-0.073,0.065-0.111,0.141-0.111,0.228l0.007,0.169
		c0,0.09-0.023,0.159-0.069,0.208c-0.046,0.048-0.105,0.073-0.18,0.073c-0.071,0-0.129-0.026-0.176-0.075
		c-0.045-0.053-0.068-0.12-0.068-0.209c0-0.167,0.085-0.32,0.257-0.461c0.171-0.141,0.412-0.21,0.721-0.21
		c0.237,0,0.432,0.04,0.584,0.119c0.114,0.062,0.199,0.155,0.253,0.283c0.036,0.085,0.053,0.255,0.053,0.515v0.907
		c0,0.255,0.005,0.411,0.013,0.468c0.01,0.058,0.027,0.097,0.049,0.116c0.022,0.02,0.048,0.029,0.078,0.029
		c0.031,0,0.058-0.007,0.083-0.021c0.04-0.024,0.119-0.097,0.236-0.212v0.164c-0.219,0.29-0.427,0.436-0.625,0.436
		c-0.096,0-0.172-0.032-0.229-0.099C69.098,32.964,69.069,32.851,69.067,32.692z M69.067,32.502v-1.02
		c-0.294,0.117-0.483,0.199-0.569,0.248c-0.154,0.086-0.264,0.176-0.331,0.27c-0.066,0.093-0.098,0.194-0.098,0.306
		c0,0.141,0.042,0.257,0.125,0.349c0.083,0.093,0.18,0.139,0.289,0.139C68.631,32.793,68.826,32.695,69.067,32.502z"/>
	<path fill="#D13239" d="M71.124,28.926v3.547c0,0.167,0.013,0.278,0.037,0.333c0.024,0.053,0.062,0.095,0.112,0.123
		c0.051,0.028,0.145,0.041,0.284,0.041v0.106h-1.311V32.97c0.122,0,0.207-0.011,0.251-0.037c0.043-0.024,0.079-0.066,0.104-0.125
		c0.026-0.059,0.038-0.169,0.038-0.335v-2.43c0-0.301-0.006-0.485-0.021-0.555c-0.013-0.069-0.035-0.116-0.065-0.143
		c-0.031-0.024-0.069-0.037-0.115-0.037c-0.051,0-0.115,0.017-0.193,0.047l-0.05-0.102l0.797-0.328H71.124z"/>
	<path fill="#D13239" d="M74.402,30.954h1.838v-1.132c0-0.203-0.013-0.335-0.038-0.399c-0.019-0.049-0.06-0.091-0.122-0.126
		c-0.083-0.047-0.172-0.069-0.266-0.069h-0.141v-0.109h1.693v0.109h-0.141c-0.093,0-0.182,0.021-0.266,0.066
		c-0.062,0.031-0.104,0.078-0.127,0.142c-0.021,0.063-0.033,0.192-0.033,0.387v2.554c0,0.2,0.013,0.332,0.037,0.396
		c0.02,0.049,0.061,0.09,0.12,0.125c0.085,0.048,0.176,0.07,0.269,0.07h0.141v0.108h-1.693v-0.108h0.141
		c0.161,0,0.279-0.047,0.354-0.143c0.049-0.062,0.072-0.212,0.072-0.449V31.17h-1.838v1.206c0,0.2,0.012,0.332,0.038,0.396
		c0.019,0.049,0.06,0.09,0.122,0.125c0.084,0.048,0.173,0.07,0.266,0.07h0.143v0.108h-1.696v-0.108h0.141
		c0.163,0,0.282-0.047,0.356-0.143c0.046-0.062,0.07-0.212,0.07-0.449v-2.554c0-0.203-0.013-0.335-0.039-0.399
		c-0.019-0.049-0.06-0.091-0.12-0.126c-0.085-0.047-0.174-0.069-0.268-0.069h-0.141v-0.109h1.696v0.109h-0.143
		c-0.093,0-0.182,0.021-0.266,0.066c-0.06,0.031-0.102,0.078-0.125,0.142c-0.022,0.063-0.034,0.192-0.034,0.387V30.954z"/>
	<path fill="#D13239" d="M78.983,30.324c0.405,0,0.729,0.154,0.975,0.461c0.209,0.264,0.312,0.564,0.312,0.904
		c0,0.24-0.058,0.482-0.173,0.728c-0.114,0.244-0.271,0.431-0.475,0.553c-0.201,0.126-0.424,0.189-0.672,0.189
		c-0.402,0-0.723-0.162-0.96-0.482c-0.2-0.27-0.301-0.573-0.301-0.91c0-0.245,0.062-0.489,0.183-0.732
		c0.121-0.242,0.281-0.42,0.479-0.536C78.552,30.382,78.762,30.324,78.983,30.324z M78.892,30.513c-0.102,0-0.204,0.032-0.31,0.093
		c-0.104,0.062-0.188,0.17-0.252,0.323s-0.097,0.352-0.097,0.593c0,0.389,0.077,0.725,0.231,1.007
		c0.154,0.281,0.359,0.422,0.613,0.422c0.188,0,0.342-0.077,0.467-0.233c0.121-0.154,0.183-0.423,0.183-0.802
		c0-0.475-0.103-0.848-0.308-1.121C79.282,30.606,79.107,30.513,78.892,30.513z"/>
	<path fill="#D13239" d="M83.009,30.403v1.619c0,0.31,0.006,0.499,0.021,0.567c0.015,0.069,0.039,0.118,0.07,0.145
		c0.032,0.027,0.07,0.041,0.113,0.041c0.06,0,0.128-0.017,0.203-0.049l0.042,0.102l-0.8,0.331h-0.132v-0.567
		c-0.229,0.249-0.405,0.405-0.524,0.47c-0.12,0.063-0.248,0.098-0.383,0.098c-0.15,0-0.28-0.044-0.39-0.132
		c-0.11-0.086-0.187-0.197-0.229-0.334c-0.043-0.136-0.063-0.327-0.063-0.577v-1.194c0-0.125-0.015-0.214-0.041-0.261
		c-0.027-0.05-0.067-0.088-0.121-0.114c-0.054-0.025-0.15-0.038-0.291-0.036v-0.107h0.937v1.789c0,0.249,0.044,0.412,0.131,0.489
		c0.086,0.078,0.19,0.117,0.313,0.117c0.084,0,0.179-0.026,0.284-0.078c0.106-0.053,0.232-0.153,0.378-0.301v-1.515
		c0-0.152-0.027-0.255-0.083-0.309c-0.055-0.053-0.171-0.082-0.346-0.086v-0.107H83.009z"/>
	<path fill="#D13239" d="M85.381,30.324v0.91h-0.097c-0.074-0.285-0.168-0.48-0.284-0.583c-0.116-0.104-0.264-0.155-0.441-0.155
		c-0.136,0-0.247,0.036-0.33,0.108c-0.084,0.072-0.126,0.151-0.126,0.239c0,0.109,0.031,0.203,0.093,0.281
		c0.062,0.079,0.184,0.162,0.369,0.253l0.425,0.207c0.396,0.192,0.594,0.446,0.594,0.762c0,0.243-0.093,0.439-0.277,0.588
		c-0.183,0.149-0.39,0.225-0.616,0.225c-0.164,0-0.351-0.031-0.561-0.089c-0.064-0.021-0.117-0.028-0.157-0.028
		c-0.046,0-0.08,0.024-0.104,0.075H83.77v-0.954h0.098c0.054,0.272,0.157,0.477,0.312,0.614c0.153,0.14,0.325,0.209,0.517,0.209
		c0.134,0,0.243-0.04,0.328-0.119c0.084-0.078,0.127-0.174,0.127-0.285c0-0.134-0.047-0.245-0.141-0.338
		c-0.096-0.091-0.283-0.207-0.565-0.347c-0.282-0.141-0.467-0.267-0.555-0.38c-0.088-0.111-0.131-0.251-0.131-0.42
		c0-0.22,0.075-0.403,0.226-0.552c0.151-0.148,0.347-0.222,0.585-0.222c0.105,0,0.232,0.022,0.383,0.067
		c0.098,0.029,0.165,0.043,0.198,0.043c0.031,0,0.055-0.006,0.072-0.021c0.02-0.013,0.039-0.043,0.062-0.09H85.381z"/>
	<path fill="#D13239" d="M86.429,31.409c-0.002,0.396,0.095,0.708,0.289,0.935s0.424,0.338,0.686,0.338
		c0.176,0,0.327-0.048,0.456-0.145c0.13-0.095,0.238-0.261,0.326-0.494l0.091,0.059c-0.042,0.267-0.16,0.51-0.356,0.729
		c-0.197,0.218-0.443,0.329-0.739,0.329c-0.32,0-0.596-0.126-0.823-0.377c-0.229-0.249-0.343-0.586-0.343-1.008
		c0-0.457,0.117-0.813,0.352-1.07c0.233-0.254,0.527-0.383,0.882-0.383c0.3,0,0.547,0.1,0.739,0.297s0.289,0.461,0.289,0.791H86.429
		z M86.429,31.241h1.236c-0.008-0.172-0.03-0.292-0.061-0.362c-0.049-0.109-0.12-0.195-0.217-0.256
		c-0.096-0.063-0.197-0.095-0.304-0.095c-0.161,0-0.305,0.062-0.432,0.188C86.524,30.842,86.45,31.017,86.429,31.241z"/>
	<path fill="#D13239" d="M93.537,29.028l0.091,1.345h-0.091c-0.12-0.402-0.292-0.691-0.517-0.869
		c-0.223-0.178-0.492-0.266-0.805-0.266c-0.263,0-0.5,0.067-0.713,0.2c-0.211,0.133-0.379,0.347-0.501,0.638
		c-0.121,0.292-0.181,0.654-0.181,1.089c0,0.357,0.057,0.668,0.172,0.931c0.114,0.263,0.287,0.464,0.518,0.604
		c0.23,0.141,0.494,0.211,0.789,0.211c0.257,0,0.483-0.057,0.681-0.165c0.196-0.109,0.412-0.328,0.647-0.655l0.09,0.059
		c-0.198,0.352-0.43,0.609-0.693,0.773c-0.265,0.163-0.579,0.244-0.943,0.244c-0.656,0-1.163-0.242-1.523-0.729
		c-0.269-0.362-0.401-0.788-0.401-1.278c0-0.396,0.086-0.758,0.265-1.089c0.177-0.331,0.421-0.587,0.73-0.769
		c0.311-0.183,0.65-0.273,1.018-0.273c0.285,0,0.569,0.07,0.846,0.21c0.081,0.043,0.141,0.064,0.176,0.064
		c0.054,0,0.098-0.018,0.137-0.055c0.051-0.054,0.087-0.126,0.108-0.22H93.537z"/>
	<path fill="#D13239" d="M95.628,32.692c-0.274,0.211-0.446,0.334-0.517,0.366c-0.105,0.049-0.218,0.072-0.336,0.072
		c-0.186,0-0.337-0.062-0.457-0.189s-0.18-0.292-0.18-0.498c0-0.132,0.029-0.243,0.087-0.339c0.081-0.132,0.22-0.258,0.417-0.374
		c0.197-0.117,0.525-0.258,0.985-0.427V31.2c0-0.266-0.042-0.45-0.128-0.549c-0.085-0.101-0.207-0.148-0.369-0.148
		c-0.123,0-0.22,0.032-0.292,0.099c-0.073,0.065-0.11,0.141-0.11,0.228l0.006,0.169c0,0.09-0.022,0.159-0.069,0.208
		c-0.045,0.048-0.104,0.073-0.18,0.073c-0.071,0-0.13-0.026-0.176-0.075c-0.046-0.053-0.068-0.12-0.068-0.209
		c0-0.167,0.086-0.32,0.257-0.461s0.411-0.21,0.721-0.21c0.237,0,0.432,0.04,0.584,0.119c0.115,0.062,0.199,0.155,0.254,0.283
		c0.035,0.085,0.052,0.255,0.052,0.515v0.907c0,0.255,0.005,0.411,0.016,0.468c0.01,0.058,0.025,0.097,0.048,0.116
		c0.021,0.02,0.048,0.029,0.077,0.029c0.031,0,0.058-0.007,0.081-0.021c0.041-0.024,0.12-0.097,0.236-0.212v0.164
		c-0.218,0.29-0.426,0.436-0.624,0.436c-0.096,0-0.171-0.032-0.229-0.099C95.659,32.964,95.629,32.851,95.628,32.692z
		 M95.628,32.502v-1.02c-0.294,0.117-0.483,0.199-0.57,0.248c-0.152,0.086-0.263,0.176-0.329,0.27c-0.066,0.093-0.1,0.194-0.1,0.306
		c0,0.141,0.042,0.257,0.126,0.349c0.084,0.093,0.18,0.139,0.288,0.139C95.192,32.793,95.387,32.695,95.628,32.502z"/>
	<path fill="#D13239" d="M97.547,30.324v0.602c0.225-0.401,0.454-0.602,0.689-0.602c0.106,0,0.196,0.032,0.265,0.099
		c0.071,0.064,0.105,0.141,0.105,0.225c0,0.076-0.024,0.141-0.075,0.192c-0.052,0.055-0.111,0.08-0.181,0.08
		c-0.068,0-0.146-0.034-0.229-0.101c-0.085-0.067-0.149-0.102-0.189-0.102c-0.035,0-0.074,0.021-0.114,0.06
		c-0.087,0.08-0.178,0.211-0.271,0.393v1.282c0,0.148,0.02,0.26,0.057,0.335c0.024,0.053,0.069,0.097,0.134,0.132
		c0.064,0.034,0.157,0.051,0.276,0.051v0.106h-1.368V32.97c0.137,0,0.237-0.021,0.304-0.062c0.049-0.031,0.083-0.081,0.103-0.149
		c0.01-0.033,0.015-0.127,0.015-0.283v-1.035c0-0.311-0.006-0.497-0.02-0.557c-0.013-0.06-0.036-0.103-0.069-0.13
		c-0.034-0.027-0.077-0.041-0.129-0.041c-0.058,0-0.127,0.015-0.203,0.044l-0.029-0.104l0.809-0.327H97.547z"/>
	<path fill="#D13239" d="M105.549,29.118v0.109c-0.103,0-0.186,0.019-0.25,0.056c-0.064,0.036-0.125,0.104-0.185,0.207
		c-0.038,0.068-0.1,0.23-0.184,0.486l-1.104,3.189h-0.117l-0.9-2.529l-0.896,2.529h-0.104l-1.177-3.285
		c-0.086-0.244-0.142-0.39-0.165-0.435c-0.039-0.074-0.093-0.13-0.16-0.165c-0.067-0.036-0.158-0.054-0.272-0.054v-0.109h1.465
		v0.109h-0.07c-0.104,0-0.181,0.022-0.236,0.069c-0.055,0.047-0.081,0.104-0.081,0.169c0,0.068,0.042,0.225,0.128,0.47l0.78,2.221
		l0.656-1.887l-0.117-0.334l-0.094-0.265c-0.041-0.098-0.086-0.184-0.137-0.257c-0.025-0.038-0.057-0.068-0.094-0.094
		c-0.049-0.034-0.097-0.061-0.146-0.076c-0.036-0.012-0.095-0.017-0.175-0.017v-0.109h1.541v0.109h-0.104
		c-0.109,0-0.188,0.022-0.24,0.069c-0.05,0.047-0.075,0.11-0.075,0.19c0,0.099,0.044,0.272,0.131,0.518l0.759,2.151l0.754-2.18
		c0.085-0.242,0.128-0.408,0.128-0.501c0-0.046-0.014-0.088-0.043-0.127c-0.027-0.039-0.063-0.065-0.105-0.081
		c-0.074-0.027-0.171-0.04-0.289-0.04v-0.109H105.549z"/>
	<path fill="#D13239" d="M106.612,30.324c0.405,0,0.729,0.154,0.975,0.461c0.209,0.264,0.312,0.564,0.312,0.904
		c0,0.24-0.057,0.482-0.171,0.728c-0.116,0.244-0.273,0.431-0.475,0.553c-0.201,0.126-0.425,0.189-0.674,0.189
		c-0.402,0-0.723-0.162-0.959-0.482c-0.201-0.27-0.302-0.573-0.302-0.91c0-0.245,0.062-0.489,0.184-0.732
		c0.121-0.242,0.28-0.42,0.479-0.536C106.18,30.382,106.391,30.324,106.612,30.324z M106.521,30.513
		c-0.102,0-0.205,0.032-0.311,0.093c-0.103,0.062-0.188,0.17-0.252,0.323c-0.063,0.153-0.097,0.352-0.097,0.593
		c0,0.389,0.077,0.725,0.232,1.007c0.154,0.281,0.358,0.422,0.612,0.422c0.188,0,0.344-0.077,0.467-0.233
		c0.122-0.154,0.183-0.423,0.183-0.802c0-0.475-0.101-0.848-0.306-1.121C106.911,30.606,106.735,30.513,106.521,30.513z"/>
	<path fill="#D13239" d="M109.075,30.324v0.602c0.223-0.401,0.453-0.602,0.688-0.602c0.107,0,0.195,0.032,0.266,0.099
		c0.07,0.064,0.105,0.141,0.105,0.225c0,0.076-0.024,0.141-0.076,0.192c-0.051,0.055-0.11,0.08-0.182,0.08
		c-0.067,0-0.144-0.034-0.229-0.101c-0.085-0.067-0.147-0.102-0.188-0.102c-0.035,0-0.073,0.021-0.113,0.06
		c-0.088,0.08-0.178,0.211-0.271,0.393v1.282c0,0.148,0.02,0.26,0.057,0.335c0.023,0.053,0.069,0.097,0.134,0.132
		c0.063,0.034,0.156,0.051,0.276,0.051v0.106h-1.369V32.97c0.137,0,0.238-0.021,0.303-0.062c0.05-0.031,0.083-0.081,0.104-0.149
		c0.01-0.033,0.014-0.127,0.014-0.283v-1.035c0-0.311-0.005-0.497-0.019-0.557c-0.013-0.06-0.035-0.103-0.069-0.13
		s-0.076-0.041-0.127-0.041c-0.061,0-0.129,0.015-0.205,0.044l-0.028-0.104l0.808-0.327H109.075z"/>
	<path fill="#D13239" d="M111.073,28.926v2.659l0.681-0.618c0.145-0.133,0.229-0.217,0.251-0.251
		c0.017-0.023,0.023-0.048,0.023-0.07c0-0.039-0.016-0.072-0.048-0.101c-0.032-0.029-0.085-0.044-0.159-0.049v-0.093h1.162v0.093
		c-0.16,0.005-0.293,0.028-0.399,0.073c-0.105,0.046-0.222,0.125-0.349,0.239l-0.685,0.634l0.685,0.866
		c0.191,0.239,0.319,0.391,0.386,0.455c0.094,0.091,0.175,0.15,0.245,0.178c0.049,0.021,0.133,0.028,0.253,0.028v0.106h-1.298V32.97
		c0.074-0.001,0.124-0.012,0.15-0.033c0.026-0.02,0.04-0.048,0.04-0.085c0-0.044-0.04-0.117-0.117-0.216l-0.821-1.048v0.887
		c0,0.174,0.013,0.287,0.037,0.342c0.024,0.056,0.059,0.094,0.104,0.116c0.046,0.024,0.144,0.036,0.292,0.037v0.106h-1.359V32.97
		c0.136,0,0.237-0.015,0.306-0.048c0.041-0.022,0.073-0.055,0.094-0.1c0.029-0.064,0.044-0.175,0.044-0.333v-2.434
		c0-0.31-0.007-0.498-0.021-0.567s-0.036-0.116-0.067-0.143c-0.031-0.027-0.072-0.04-0.122-0.04c-0.041,0-0.104,0.017-0.184,0.05
		l-0.05-0.102l0.793-0.328H111.073z"/>
	<path fill="#D13239" d="M115,30.324v0.91h-0.096c-0.074-0.285-0.171-0.48-0.286-0.583c-0.115-0.104-0.262-0.155-0.442-0.155
		c-0.136,0-0.244,0.036-0.329,0.108c-0.083,0.072-0.125,0.151-0.125,0.239c0,0.109,0.03,0.203,0.094,0.281
		c0.06,0.079,0.182,0.162,0.367,0.253l0.426,0.207c0.396,0.192,0.592,0.446,0.592,0.762c0,0.243-0.092,0.439-0.274,0.588
		c-0.185,0.149-0.39,0.225-0.618,0.225c-0.163,0-0.35-0.031-0.561-0.089c-0.063-0.021-0.116-0.028-0.157-0.028
		c-0.045,0-0.08,0.024-0.104,0.075h-0.097v-0.954h0.097c0.054,0.272,0.158,0.477,0.312,0.614c0.154,0.14,0.326,0.209,0.517,0.209
		c0.134,0,0.245-0.04,0.328-0.119c0.085-0.078,0.128-0.174,0.128-0.285c0-0.134-0.048-0.245-0.142-0.338
		c-0.095-0.091-0.282-0.207-0.565-0.347c-0.282-0.141-0.467-0.267-0.555-0.38c-0.087-0.111-0.13-0.251-0.13-0.42
		c0-0.22,0.074-0.403,0.226-0.552c0.149-0.148,0.346-0.222,0.585-0.222c0.104,0,0.232,0.022,0.383,0.067
		c0.1,0.029,0.164,0.043,0.198,0.043c0.03,0,0.056-0.006,0.072-0.021c0.019-0.013,0.038-0.043,0.062-0.09H115z"/>
	<path fill="#D13239" d="M116.383,28.926v1.956c0.215-0.238,0.387-0.39,0.515-0.456c0.125-0.068,0.252-0.102,0.378-0.102
		c0.152,0,0.283,0.042,0.392,0.126s0.189,0.214,0.243,0.394c0.037,0.125,0.055,0.353,0.055,0.683v0.946
		c0,0.169,0.013,0.284,0.041,0.347c0.02,0.047,0.052,0.084,0.1,0.11c0.046,0.028,0.132,0.04,0.256,0.04v0.106h-1.312V32.97h0.061
		c0.124,0,0.212-0.018,0.26-0.056c0.049-0.038,0.082-0.094,0.103-0.168c0.006-0.03,0.009-0.123,0.009-0.273v-0.946
		c0-0.292-0.015-0.482-0.046-0.575c-0.029-0.092-0.078-0.159-0.144-0.206c-0.067-0.044-0.146-0.068-0.239-0.068
		c-0.097,0-0.195,0.025-0.299,0.076c-0.103,0.051-0.227,0.152-0.37,0.307v1.413c0,0.182,0.011,0.297,0.031,0.341
		c0.02,0.045,0.059,0.082,0.113,0.113c0.056,0.029,0.151,0.043,0.288,0.043v0.106h-1.326V32.97c0.119,0,0.213-0.017,0.281-0.054
		c0.039-0.021,0.069-0.058,0.093-0.11c0.023-0.055,0.034-0.166,0.034-0.333v-2.42c0-0.305-0.007-0.493-0.021-0.562
		c-0.016-0.071-0.038-0.118-0.067-0.145c-0.03-0.024-0.07-0.037-0.121-0.037c-0.041,0-0.107,0.017-0.199,0.047l-0.04-0.102
		l0.799-0.328H116.383z"/>
	<path fill="#D13239" d="M119.894,30.324c0.404,0,0.73,0.154,0.975,0.461c0.208,0.264,0.312,0.564,0.312,0.904
		c0,0.24-0.057,0.482-0.173,0.728c-0.114,0.244-0.272,0.431-0.474,0.553c-0.2,0.126-0.426,0.189-0.672,0.189
		c-0.403,0-0.725-0.162-0.962-0.482c-0.199-0.27-0.3-0.573-0.3-0.91c0-0.245,0.061-0.489,0.183-0.732
		c0.121-0.242,0.281-0.42,0.48-0.536C119.462,30.382,119.673,30.324,119.894,30.324z M119.803,30.513
		c-0.104,0-0.207,0.032-0.311,0.093c-0.104,0.062-0.188,0.17-0.252,0.323c-0.065,0.153-0.097,0.352-0.097,0.593
		c0,0.389,0.077,0.725,0.231,1.007c0.155,0.281,0.358,0.422,0.611,0.422c0.19,0,0.346-0.077,0.468-0.233
		c0.122-0.154,0.185-0.423,0.185-0.802c0-0.475-0.104-0.848-0.307-1.121C120.193,30.606,120.018,30.513,119.803,30.513z"/>
	<path fill="#D13239" d="M121.382,30.668l0.824-0.332h0.11v0.625c0.138-0.236,0.277-0.4,0.416-0.494
		c0.14-0.096,0.285-0.143,0.438-0.143c0.269,0,0.492,0.104,0.672,0.315c0.22,0.257,0.329,0.591,0.329,1.003
		c0,0.462-0.132,0.843-0.396,1.145c-0.218,0.247-0.492,0.372-0.822,0.372c-0.145,0-0.27-0.021-0.374-0.062
		c-0.078-0.03-0.166-0.088-0.263-0.175v0.814c0,0.183,0.012,0.299,0.033,0.349s0.061,0.089,0.116,0.118
		c0.057,0.028,0.156,0.044,0.303,0.044v0.107h-1.401v-0.107h0.072c0.108,0.001,0.199-0.019,0.275-0.062
		c0.036-0.021,0.066-0.056,0.086-0.104c0.021-0.047,0.03-0.168,0.03-0.363V31.19c0-0.173-0.008-0.283-0.022-0.33
		c-0.017-0.045-0.041-0.08-0.075-0.104c-0.033-0.023-0.08-0.034-0.139-0.034c-0.046,0-0.105,0.014-0.178,0.04L121.382,30.668z
		 M122.316,31.132v0.999c0,0.216,0.01,0.358,0.025,0.427c0.026,0.112,0.095,0.212,0.2,0.296c0.106,0.086,0.24,0.129,0.402,0.129
		c0.194,0,0.352-0.075,0.472-0.227c0.158-0.198,0.236-0.479,0.236-0.839c0-0.408-0.089-0.723-0.269-0.941
		c-0.124-0.153-0.272-0.229-0.443-0.229c-0.093,0-0.185,0.024-0.277,0.071C122.594,30.853,122.479,30.957,122.316,31.132z"/>
</g>
<g>
	<path d="M49.797,10.817v4.792c0,0.793,0.043,1.287,0.131,1.484c0.087,0.198,0.258,0.372,0.514,0.52
		c0.255,0.147,0.599,0.223,1.033,0.223h0.514v0.422h-8.091v-0.422h0.514c0.449,0,0.81-0.08,1.084-0.24
		c0.197-0.106,0.35-0.288,0.456-0.548c0.083-0.182,0.125-0.662,0.125-1.438V5.431c0-0.792-0.042-1.286-0.125-1.484
		c-0.084-0.197-0.253-0.371-0.508-0.52c-0.255-0.148-0.599-0.222-1.033-0.222h-0.514V2.783h8.091v0.422h-0.514
		c-0.449,0-0.81,0.08-1.084,0.24c-0.197,0.106-0.354,0.29-0.467,0.548c-0.084,0.182-0.125,0.662-0.125,1.438v4.383h5.466V5.431
		c0-0.792-0.042-1.286-0.125-1.484c-0.083-0.197-0.254-0.371-0.513-0.52c-0.259-0.148-0.604-0.222-1.039-0.222h-0.502V2.783h8.08
		v0.422h-0.502c-0.457,0-0.818,0.08-1.084,0.24c-0.198,0.106-0.354,0.29-0.468,0.548c-0.084,0.182-0.126,0.662-0.126,1.438v10.179
		c0,0.793,0.042,1.287,0.126,1.484c0.084,0.198,0.255,0.372,0.514,0.52c0.258,0.147,0.605,0.223,1.039,0.223h0.502v0.422h-8.08
		v-0.422h0.502c0.457,0,0.817-0.08,1.084-0.24c0.198-0.106,0.354-0.288,0.468-0.548c0.084-0.182,0.125-0.662,0.125-1.438v-4.792
		H49.797z"/>
	<path d="M70.613,2.566c2.465-0.092,4.468,0.627,6.008,2.156c1.541,1.529,2.311,3.443,2.311,5.741c0,1.962-0.573,3.689-1.723,5.181
		c-1.521,1.979-3.67,2.967-6.448,2.967c-2.784,0-4.938-0.943-6.459-2.829c-1.202-1.492-1.803-3.261-1.803-5.308
		c0-2.297,0.782-4.213,2.345-5.746C66.407,3.195,68.331,2.475,70.613,2.566z M70.75,3.296c-1.416,0-2.491,0.723-3.229,2.168
		c-0.602,1.187-0.902,2.891-0.902,5.112c0,2.64,0.464,4.592,1.393,5.854c0.646,0.883,1.551,1.324,2.715,1.324
		c0.784,0,1.438-0.191,1.963-0.57c0.67-0.488,1.19-1.266,1.564-2.333c0.373-1.069,0.559-2.465,0.559-4.184
		c0-2.047-0.19-3.578-0.57-4.594c-0.381-1.015-0.866-1.732-1.456-2.151C72.197,3.505,71.518,3.296,70.75,3.296z"/>
	<path d="M80.312,2.783h7.989v0.422h-0.4c-0.601,0-1.013,0.063-1.237,0.188c-0.224,0.125-0.384,0.298-0.479,0.519
		c-0.096,0.221-0.144,0.772-0.144,1.655v7.578c0,1.385,0.104,2.302,0.314,2.751c0.209,0.447,0.554,0.82,1.033,1.117
		c0.479,0.298,1.084,0.445,1.813,0.445c0.838,0,1.55-0.188,2.141-0.565c0.589-0.375,1.03-0.896,1.323-1.558
		c0.293-0.661,0.44-1.815,0.44-3.458V5.567c0-0.692-0.073-1.187-0.217-1.484c-0.146-0.296-0.328-0.502-0.549-0.616
		c-0.343-0.175-0.825-0.263-1.449-0.263V2.783h5.353v0.422h-0.32c-0.433,0-0.795,0.087-1.084,0.263
		c-0.289,0.175-0.498,0.438-0.627,0.788c-0.1,0.244-0.148,0.681-0.148,1.312v5.877c0,1.818-0.12,3.131-0.359,3.937
		c-0.24,0.807-0.824,1.548-1.752,2.226c-0.929,0.678-2.195,1.016-3.801,1.016c-1.34,0-2.373-0.179-3.104-0.535
		c-0.996-0.487-1.7-1.111-2.11-1.873c-0.411-0.761-0.617-1.784-0.617-3.069V5.567c0-0.891-0.049-1.443-0.147-1.66
		c-0.1-0.217-0.271-0.39-0.515-0.52c-0.242-0.129-0.691-0.19-1.347-0.183V2.783z"/>
	<path d="M107.622,2.429l0.126,5.159h-0.467c-0.221-1.293-0.763-2.334-1.626-3.122c-0.863-0.787-1.798-1.181-2.802-1.181
		c-0.776,0-1.393,0.207-1.844,0.622c-0.453,0.415-0.68,0.892-0.68,1.432c0,0.343,0.081,0.647,0.239,0.913
		c0.221,0.358,0.575,0.711,1.062,1.061c0.357,0.251,1.183,0.696,2.477,1.335c1.811,0.89,3.031,1.731,3.663,2.523
		c0.624,0.791,0.936,1.696,0.936,2.716c0,1.293-0.504,2.407-1.512,3.338s-2.287,1.397-3.84,1.397c-0.487,0-0.947-0.05-1.382-0.147
		c-0.434-0.1-0.978-0.287-1.632-0.561c-0.365-0.151-0.665-0.229-0.9-0.229c-0.199,0-0.408,0.077-0.628,0.229
		c-0.221,0.153-0.4,0.385-0.537,0.696h-0.422v-5.843h0.422c0.335,1.644,0.979,2.897,1.935,3.761
		c0.955,0.862,1.983,1.294,3.087,1.294c0.852,0,1.531-0.231,2.037-0.695s0.758-1.004,0.758-1.62c0-0.365-0.096-0.719-0.29-1.062
		c-0.194-0.342-0.488-0.666-0.885-0.975c-0.396-0.309-1.094-0.709-2.101-1.204c-1.407-0.692-2.419-1.283-3.034-1.77
		c-0.616-0.486-1.09-1.03-1.422-1.631c-0.33-0.601-0.496-1.264-0.496-1.986c0-1.233,0.453-2.283,1.358-3.149
		c0.904-0.868,2.046-1.302,3.424-1.302c0.502,0,0.988,0.061,1.461,0.183c0.356,0.092,0.793,0.261,1.307,0.508
		c0.514,0.248,0.872,0.372,1.078,0.372c0.198,0,0.354-0.062,0.469-0.183c0.113-0.122,0.22-0.415,0.319-0.879H107.622z"/>
	<path d="M116.012,3.673v6.299h0.308c0.981,0,1.692-0.309,2.135-0.925c0.44-0.616,0.722-1.525,0.844-2.727h0.435v8.103h-0.435
		c-0.091-0.883-0.283-1.606-0.575-2.168c-0.294-0.564-0.635-0.942-1.022-1.136c-0.388-0.193-0.952-0.291-1.688-0.291v4.36
		c0,0.852,0.035,1.373,0.108,1.562c0.071,0.191,0.206,0.348,0.404,0.468c0.198,0.123,0.518,0.184,0.96,0.184h0.924
		c1.445,0,2.604-0.335,3.476-1.004c0.871-0.671,1.496-1.69,1.877-3.059h0.422l-0.696,4.918H110.11v-0.422h0.515
		c0.448,0,0.811-0.08,1.085-0.24c0.196-0.106,0.35-0.288,0.456-0.548c0.083-0.182,0.126-0.662,0.126-1.438V5.431
		c0-0.7-0.021-1.13-0.058-1.29c-0.077-0.267-0.217-0.472-0.423-0.617c-0.29-0.213-0.685-0.319-1.187-0.319h-0.515V2.783h12.955
		v4.576h-0.435c-0.222-1.119-0.531-1.921-0.93-2.408c-0.399-0.487-0.966-0.845-1.696-1.073c-0.426-0.137-1.225-0.205-2.396-0.205
		H116.012z"/>
</g>
<path fill="#D13239" d="M39.341,15.831l-3.472-3.47l-2.806,2.805l-1.855,1.855l0,0h1.293c-0.373,0.822-0.896,1.581-1.56,2.245
	c-1.352,1.35-3.147,2.137-5.059,2.213c-2.024,0.083-3.959-0.63-5.45-2.004c-1.49-1.375-2.355-3.248-2.437-5.272
	c-0.086-2.142,0.702-4.157,2.219-5.674c1.351-1.351,3.146-2.137,5.058-2.214c1.024-0.041,2.025,0.122,2.958,0.469l-4.71,4.71
	l-1.065-1.065l0,0v6.592h6.591l0,0l-1.065-1.065l4.708-4.708l2.715-2.715h0c0,0,0-0.001,0-0.001c1.225-1.225,1.23-3.205,0.02-4.438
	c-0.007-0.007-0.013-0.016-0.021-0.022c-0.014-0.015-0.03-0.026-0.043-0.04c-0.739-0.732-1.558-1.383-2.443-1.934
	c-2.286-1.424-5.007-2.203-7.9-2.086c-3.632,0.146-6.883,1.675-9.265,4.057c-2.649,2.648-4.225,6.352-4.062,10.39
	C12,22.126,18.467,28.094,26.137,27.784c3.632-0.146,6.883-1.675,9.266-4.057c1.816-1.816,3.128-4.129,3.72-6.706h1.408l0,0
	L39.341,15.831z"/>
</svg>
