<?xml version="1.0" encoding="utf-8"?>
<!-- Generator: Adobe Illustrator 16.0.0, SVG Export Plug-In . SVG Version: 6.00 Build 0)  -->
<!DOCTYPE svg PUBLIC "-//W3C//DTD SVG 1.1//EN" "http://www.w3.org/Graphics/SVG/1.1/DTD/svg11.dtd">
<svg version="1.1" id="Layer_1" xmlns="http://www.w3.org/2000/svg" xmlns:xlink="http://www.w3.org/1999/xlink" x="0px" y="0px"
	 width="150px" height="35px" viewBox="0 0 150 35" enable-background="new 0 0 150 35" xml:space="preserve">
<g>
	<path d="M41.332,16.767h-5.164l-0.615,1.423c-0.201,0.474-0.302,0.866-0.302,1.176c0,0.408,0.165,0.711,0.496,0.905
		c0.194,0.114,0.672,0.201,1.435,0.258v0.399H32.32v-0.399c0.524-0.078,0.956-0.296,1.294-0.652c0.337-0.355,0.754-1.09,1.25-2.204
		l5.229-11.664h0.205l5.271,11.988c0.503,1.135,0.917,1.851,1.24,2.145c0.244,0.223,0.589,0.353,1.035,0.388v0.399h-7.072v-0.399
		h0.291c0.568,0,0.967-0.078,1.197-0.236c0.158-0.115,0.237-0.28,0.237-0.496c0-0.13-0.022-0.263-0.065-0.399
		c-0.014-0.064-0.122-0.334-0.323-0.809L41.332,16.767z M40.965,15.969l-2.177-5.035l-2.243,5.035H40.965z"/>
	<path d="M62.031,15.797l-0.551,5.131H48.501v-0.399h0.485c0.424,0,0.765-0.074,1.024-0.226c0.187-0.101,0.331-0.273,0.431-0.519
		c0.08-0.172,0.119-0.625,0.119-1.357V8.811c0-0.748-0.04-1.214-0.119-1.401c-0.079-0.187-0.239-0.351-0.479-0.491
		c-0.241-0.14-0.566-0.21-0.976-0.21h-0.485V6.31h7.794v0.399h-0.636c-0.424,0-0.765,0.075-1.024,0.226
		c-0.187,0.101-0.334,0.273-0.442,0.518c-0.079,0.172-0.118,0.625-0.118,1.358v9.313c0,0.749,0.043,1.224,0.129,1.429
		c0.086,0.205,0.255,0.357,0.507,0.459c0.179,0.064,0.614,0.097,1.304,0.097h1.218c0.776,0,1.423-0.137,1.94-0.41
		c0.518-0.272,0.965-0.704,1.342-1.293c0.377-0.589,0.735-1.46,1.072-2.608H62.031z"/>
	<path d="M77.641,15.947l3.967-9.638h5.95v0.399h-0.474c-0.432,0-0.776,0.075-1.035,0.226c-0.18,0.101-0.323,0.27-0.432,0.506
		c-0.079,0.173-0.118,0.622-0.118,1.348v9.638c0,0.747,0.039,1.214,0.118,1.401s0.241,0.351,0.485,0.49s0.571,0.21,0.981,0.21h0.474
		v0.399h-7.632v-0.399H80.4c0.432,0,0.775-0.074,1.034-0.226c0.18-0.101,0.324-0.273,0.432-0.519
		c0.079-0.172,0.119-0.625,0.119-1.357V7.592l-5.606,13.335H76.12L70.428,7.689v10.295c0,0.719,0.018,1.161,0.054,1.326
		c0.093,0.359,0.297,0.652,0.609,0.879c0.313,0.227,0.804,0.339,1.472,0.339v0.399h-5.002v-0.399h0.151
		c0.323,0.008,0.625-0.044,0.905-0.155c0.281-0.112,0.493-0.261,0.637-0.448c0.143-0.187,0.255-0.449,0.334-0.786
		c0.014-0.08,0.021-0.445,0.021-1.101V8.789c0-0.74-0.04-1.202-0.119-1.385s-0.241-0.345-0.485-0.485
		c-0.245-0.14-0.572-0.21-0.981-0.21h-0.464V6.31h5.972L77.641,15.947z"/>
	<path d="M97.142,16.767h-5.164l-0.614,1.423c-0.201,0.474-0.302,0.866-0.302,1.176c0,0.408,0.165,0.711,0.496,0.905
		c0.194,0.114,0.672,0.201,1.434,0.258v0.399H88.13v-0.399c0.524-0.078,0.955-0.296,1.294-0.652c0.337-0.355,0.754-1.09,1.25-2.204
		l5.229-11.664h0.204l5.272,11.988c0.502,1.135,0.916,1.851,1.239,2.145c0.244,0.223,0.589,0.353,1.035,0.388v0.399h-7.072v-0.399
		h0.291c0.568,0,0.967-0.078,1.197-0.236c0.157-0.115,0.237-0.28,0.237-0.496c0-0.13-0.022-0.263-0.065-0.399
		c-0.015-0.064-0.122-0.334-0.323-0.809L97.142,16.767z M96.775,15.969l-2.178-5.035l-2.242,5.035H96.775z"/>
	<path d="M114.271,5.975l0.119,4.873h-0.442c-0.209-1.222-0.721-2.205-1.536-2.949c-0.815-0.744-1.698-1.116-2.646-1.116
		c-0.733,0-1.314,0.196-1.741,0.588c-0.428,0.392-0.642,0.842-0.642,1.353c0,0.324,0.075,0.611,0.227,0.863
		c0.209,0.338,0.543,0.672,1.003,1.002c0.337,0.237,1.117,0.658,2.339,1.261c1.711,0.842,2.863,1.636,3.461,2.382
		c0.589,0.748,0.883,1.604,0.883,2.566c0,1.222-0.476,2.272-1.427,3.153c-0.953,0.88-2.162,1.32-3.629,1.32
		c-0.459,0-0.894-0.047-1.304-0.14c-0.409-0.094-0.924-0.271-1.542-0.529c-0.345-0.143-0.629-0.215-0.852-0.215
		c-0.187,0-0.384,0.072-0.593,0.215c-0.209,0.145-0.377,0.364-0.507,0.658h-0.398v-5.52h0.398c0.316,1.553,0.926,2.736,1.827,3.552
		c0.902,0.816,1.875,1.225,2.916,1.225c0.806,0,1.446-0.22,1.925-0.658s0.717-0.948,0.717-1.531c0-0.345-0.092-0.679-0.275-1.002
		s-0.462-0.631-0.835-0.923c-0.374-0.291-1.034-0.669-1.983-1.137c-1.33-0.654-2.285-1.211-2.867-1.67
		c-0.582-0.46-1.03-0.974-1.343-1.542c-0.312-0.567-0.469-1.192-0.469-1.875c0-1.165,0.427-2.156,1.283-2.976
		c0.854-0.819,1.933-1.229,3.233-1.229c0.475,0,0.935,0.058,1.38,0.172c0.339,0.086,0.749,0.247,1.234,0.48s0.825,0.35,1.019,0.35
		c0.188,0,0.335-0.057,0.442-0.172c0.108-0.115,0.208-0.391,0.302-0.83H114.271z"/>
	<path d="M125.365,16.767h-5.164l-0.614,1.423c-0.201,0.474-0.302,0.866-0.302,1.176c0,0.408,0.164,0.711,0.495,0.905
		c0.194,0.114,0.672,0.201,1.435,0.258v0.399h-4.863v-0.399c0.525-0.078,0.956-0.296,1.295-0.652c0.337-0.355,0.754-1.09,1.25-2.204
		l5.229-11.664h0.205l5.271,11.988c0.503,1.135,0.916,1.851,1.239,2.145c0.244,0.223,0.589,0.353,1.035,0.388v0.399h-7.072v-0.399
		h0.291c0.568,0,0.968-0.078,1.197-0.236c0.158-0.115,0.236-0.28,0.236-0.496c0-0.13-0.021-0.263-0.064-0.399
		c-0.014-0.064-0.122-0.334-0.322-0.809L125.365,16.767z M124.999,15.969l-2.179-5.035l-2.242,5.035H124.999z"/>
	<path d="M137.988,14.266v4.096c0,0.791,0.05,1.289,0.146,1.494c0.097,0.204,0.268,0.367,0.512,0.49
		c0.245,0.122,0.701,0.183,1.37,0.183v0.399h-7.481v-0.399c0.675,0,1.133-0.062,1.374-0.188s0.409-0.289,0.507-0.49
		c0.097-0.201,0.146-0.697,0.146-1.488V8.875c0-0.79-0.049-1.288-0.146-1.493c-0.098-0.205-0.269-0.368-0.513-0.49
		c-0.244-0.122-0.7-0.183-1.368-0.183V6.31h6.791c1.768,0,3.062,0.122,3.881,0.366c0.819,0.245,1.487,0.696,2.005,1.353
		c0.519,0.657,0.776,1.428,0.776,2.312c0,1.078-0.388,1.969-1.164,2.673c-0.496,0.446-1.189,0.78-2.081,1.003l3.515,4.948
		c0.46,0.64,0.787,1.039,0.981,1.196c0.295,0.223,0.636,0.346,1.023,0.366v0.399h-4.603l-4.712-6.662H137.988z M137.988,7.096V13.5
		h0.614c0.999,0,1.747-0.092,2.242-0.275c0.496-0.183,0.886-0.514,1.17-0.991c0.284-0.478,0.426-1.102,0.426-1.871
		c0-1.114-0.261-1.937-0.781-2.469c-0.521-0.532-1.36-0.798-2.517-0.798H137.988z"/>
</g>
<g>
	<path fill="#D13239" d="M93.239,28.053h0.562v0.337h-0.554c-0.014,0.361-0.115,0.655-0.304,0.882
		c-0.31,0.372-0.635,0.545-0.977,0.518c-0.342-0.03-0.606-0.16-0.793-0.39l0.193-0.722h0.05c0.12,0.604,0.314,0.906,0.583,0.906
		c0.363,0,0.549-0.476,0.557-1.424v-1.474c0-0.238-0.012-0.393-0.036-0.463c-0.05-0.146-0.164-0.224-0.345-0.234v-0.054
		c0.317-0.027,0.673-0.111,1.066-0.254C93.214,26.116,93.212,26.906,93.239,28.053z"/>
	<path fill="#D13239" d="M94.91,28.39h-1.219v-0.337h1.219V28.39z"/>
	<path fill="#D13239" d="M96.021,28.39h-1.219v-0.337h1.219V28.39z"/>
	<path fill="#D13239" d="M97.134,28.39h-1.219v-0.337h1.219V28.39z"/>
	<path fill="#D13239" d="M98.246,28.39h-1.219v-0.337h1.219V28.39z"/>
	<path fill="#D13239" d="M99.358,28.39H98.14v-0.337h1.219V28.39z"/>
	<path fill="#D13239" d="M100.47,28.39h-1.219v-0.337h1.219V28.39z"/>
	<path fill="#D13239" d="M101.583,28.39h-1.22v-0.337h1.22V28.39z"/>
	<path fill="#D13239" d="M102.693,28.39h-1.219v-0.337h1.219V28.39z"/>
	<path fill="#D13239" d="M103.807,28.39h-1.22v-0.337h1.22V28.39z"/>
	<path fill="#D13239" d="M104.266,26.666c0-0.498,0.174-0.898,0.521-1.202c0.328-0.287,0.745-0.431,1.251-0.431
		c0.515,0,0.933,0.149,1.256,0.447c0.337,0.304,0.505,0.708,0.505,1.214c0,0.493-0.163,0.894-0.489,1.203
		c-0.062,0.057-0.129,0.109-0.2,0.155h1.161v0.337h-4.571v-0.337h1.256c-0.073-0.048-0.142-0.104-0.205-0.168
		C104.427,27.573,104.266,27.166,104.266,26.666z M105.013,26.683c0,0.665,0.154,1.121,0.464,1.37h1.141
		c0.303-0.251,0.455-0.707,0.455-1.366c0-0.421-0.066-0.763-0.201-1.026c-0.175-0.344-0.454-0.517-0.837-0.517
		c-0.369,0-0.643,0.174-0.82,0.521C105.08,25.936,105.013,26.275,105.013,26.683z M105.496,23.925c0-0.134,0.048-0.245,0.14-0.337
		c0.094-0.09,0.207-0.136,0.342-0.136c0.136,0,0.251,0.046,0.344,0.134c0.094,0.09,0.141,0.202,0.141,0.339
		c0,0.134-0.047,0.245-0.141,0.332c-0.093,0.088-0.208,0.132-0.344,0.132c-0.138,0-0.252-0.043-0.343-0.13
		C105.543,24.173,105.496,24.062,105.496,23.925z"/>
	<path fill="#D13239" d="M115.271,28.053v0.337h-0.197c-0.451,0-0.778-0.126-0.98-0.377c-0.225,0.278-0.552,0.411-0.981,0.397
		c-0.541-0.019-0.891-0.339-1.05-0.96c-0.052,0.224-0.134,0.409-0.246,0.555c-0.222,0.286-0.551,0.422-0.988,0.405
		c-0.545-0.019-0.896-0.333-1.056-0.943c-0.052,0.218-0.132,0.398-0.242,0.538c-0.199,0.256-0.528,0.385-0.988,0.385h-0.378v-0.337
		h0.361c0.337-0.055,0.543-0.223,0.619-0.504c0.033-0.107,0.05-0.475,0.05-1.104c0-0.538-0.135-0.852-0.407-0.939v-0.054
		c0.212,0.014,0.452,0.021,0.724,0.021c0.306,0,0.555-0.008,0.746-0.021l0.005,0.054c-0.184,0.054-0.306,0.191-0.366,0.411
		c-0.033,0.12-0.049,0.315-0.049,0.586v0.386c0.011,0.312,0.072,0.569,0.185,0.771c0.142,0.263,0.354,0.394,0.636,0.394
		c0.047,0,0.097-0.002,0.148-0.008c0.333-0.05,0.539-0.215,0.615-0.496c0.033-0.107,0.049-0.475,0.049-1.104
		c0-0.538-0.135-0.852-0.405-0.939v-0.054c0.21,0.014,0.452,0.021,0.726,0.021c0.304,0,0.551-0.008,0.743-0.021l0.004,0.054
		c-0.184,0.054-0.305,0.191-0.365,0.411c-0.033,0.12-0.05,0.315-0.05,0.586v0.386c0.012,0.312,0.073,0.569,0.186,0.771
		c0.142,0.263,0.354,0.394,0.636,0.394c0.046,0,0.096-0.002,0.147-0.008c0.334-0.05,0.54-0.215,0.616-0.496
		c0.032-0.107,0.049-0.475,0.049-1.104c0-0.544-0.137-0.857-0.41-0.939l0.004-0.054c0.255,0.014,0.512,0.021,0.771,0.021
		s0.492-0.008,0.697-0.021l0.005,0.054c-0.273,0.082-0.411,0.396-0.411,0.939v0.222c0,0.481,0.016,0.775,0.05,0.883
		c0.076,0.281,0.282,0.449,0.619,0.504H115.271z"/>
	<path fill="#D13239" d="M116.527,28.053h0.419v0.337h-1.785v-0.337h0.718v-4.488c0-0.239-0.012-0.393-0.037-0.464
		c-0.049-0.146-0.164-0.224-0.344-0.234v-0.054c0.313-0.027,0.67-0.111,1.066-0.254c-0.025,0.377-0.037,0.815-0.037,1.313V28.053z"
		/>
	<path fill="#D13239" d="M116.831,28.053h0.956c-0.203-0.114-0.304-0.359-0.304-0.733v-3.755c0-0.239-0.012-0.393-0.037-0.464
		c-0.049-0.146-0.164-0.224-0.345-0.234v-0.054c0.314-0.027,0.669-0.111,1.063-0.254c-0.025,0.386-0.038,0.823-0.038,1.313v3.146
		c0,0.312,0.017,0.568,0.05,0.768c0.049,0.311,0.177,0.511,0.382,0.604h-1.728V28.053z"/>
	<path fill="#D13239" d="M121.123,28.118v-1.432c0-0.238-0.013-0.393-0.037-0.463c-0.048-0.146-0.164-0.224-0.344-0.234v-0.054
		c0.316-0.027,0.672-0.111,1.066-0.254c-0.03,0.435-0.037,0.947-0.021,1.538c0.017,0.592,0.015,0.947-0.004,1.067
		c0.003,0.41-0.089,0.739-0.274,0.984c-0.311,0.372-0.635,0.545-0.978,0.518c-0.343-0.03-0.605-0.16-0.792-0.39l0.193-0.722h0.049
		c0.12,0.604,0.314,0.906,0.582,0.906C120.929,29.584,121.115,29.096,121.123,28.118z"/>
	<path fill="#D13239" d="M122.462,28.39l-0.005-0.033c0.227-0.065,0.366-0.25,0.419-0.554c0.02-0.099,0.028-0.352,0.028-0.759
		v-3.479c0-0.239-0.013-0.393-0.037-0.464c-0.049-0.146-0.165-0.224-0.349-0.234v-0.054c0.317-0.027,0.673-0.111,1.066-0.254
		c-0.024,0.374-0.035,0.812-0.032,1.313v4.181h0.583v0.337h-0.879C122.939,28.39,122.674,28.39,122.462,28.39z"/>
	<path fill="#D13239" d="M125.247,28.39h-1.219v-0.337h1.219V28.39z"/>
	<path fill="#D13239" d="M126.359,28.39h-1.219v-0.337h1.219V28.39z"/>
	<path fill="#D13239" d="M127.472,28.39h-1.219v-0.337h1.219V28.39z"/>
	<path fill="#D13239" d="M128.584,28.39h-1.219v-0.337h1.219V28.39z"/>
	<path fill="#D13239" d="M129.695,28.39h-1.219v-0.337h1.219V28.39z"/>
	<path fill="#D13239" d="M130.808,28.39h-1.219v-0.337h1.219V28.39z"/>
	<path fill="#D13239" d="M131.92,28.39h-1.219v-0.337h1.219V28.39z"/>
	<path fill="#D13239" d="M133.032,28.39h-1.219v-0.337h1.219V28.39z"/>
	<path fill="#D13239" d="M140.032,28.053v0.337h-0.196c-0.451,0-0.779-0.126-0.981-0.377c-0.224,0.278-0.551,0.411-0.98,0.397
		c-0.542-0.019-0.892-0.339-1.051-0.96c-0.052,0.224-0.133,0.409-0.246,0.555c-0.221,0.286-0.552,0.422-0.988,0.405
		c-0.544-0.019-0.896-0.333-1.055-0.943c-0.053,0.218-0.133,0.398-0.242,0.538c-0.199,0.256-0.529,0.385-0.99,0.385h-0.377v-0.337
		h0.361c0.337-0.055,0.544-0.223,0.62-0.504c0.032-0.107,0.049-0.475,0.049-1.104c0-0.538-0.135-0.852-0.406-0.939v-0.054
		c0.211,0.014,0.452,0.021,0.723,0.021c0.306,0,0.555-0.008,0.747-0.021l0.004,0.054c-0.184,0.054-0.306,0.191-0.365,0.411
		c-0.033,0.12-0.049,0.315-0.049,0.586v0.386c0.01,0.312,0.071,0.569,0.184,0.771c0.143,0.263,0.354,0.394,0.637,0.394
		c0.046,0,0.096-0.002,0.147-0.008c0.334-0.05,0.538-0.215,0.615-0.496c0.033-0.107,0.049-0.475,0.049-1.104
		c0-0.538-0.135-0.852-0.405-0.939v-0.054c0.21,0.014,0.453,0.021,0.726,0.021c0.304,0,0.552-0.008,0.743-0.021l0.004,0.054
		c-0.183,0.054-0.305,0.191-0.365,0.411c-0.033,0.12-0.049,0.315-0.049,0.586v0.386c0.011,0.312,0.071,0.569,0.185,0.771
		c0.143,0.263,0.354,0.394,0.636,0.394c0.046,0,0.097-0.002,0.147-0.008c0.335-0.05,0.54-0.215,0.616-0.496
		c0.032-0.107,0.049-0.475,0.049-1.104c0-0.544-0.137-0.857-0.41-0.939l0.004-0.054c0.254,0.014,0.512,0.021,0.771,0.021
		s0.493-0.008,0.697-0.021l0.005,0.054c-0.274,0.082-0.41,0.396-0.41,0.939v0.222c0,0.481,0.016,0.775,0.049,0.883
		c0.077,0.281,0.283,0.449,0.619,0.504H140.032z"/>
	<path fill="#D13239" d="M143.927,28.053h0.681v0.337h-0.881c-0.05,0.063-0.104,0.122-0.161,0.177
		c-0.328,0.309-0.759,0.463-1.292,0.463c-0.521,0-0.941-0.155-1.265-0.468c-0.057-0.055-0.109-0.111-0.155-0.172h-0.932v-0.337
		h0.734c-0.09-0.213-0.135-0.451-0.135-0.713c0-0.499,0.174-0.898,0.521-1.202c0.328-0.288,0.745-0.432,1.252-0.432
		c0.515,0,0.933,0.147,1.256,0.443c0.336,0.306,0.505,0.712,0.505,1.219C144.055,27.622,144.012,27.851,143.927,28.053z
		 M141.269,27.355c0,0.425,0.067,0.77,0.204,1.034c0.176,0.351,0.454,0.525,0.837,0.525c0.375,0,0.649-0.175,0.821-0.525
		c0.134-0.265,0.2-0.608,0.2-1.03c0-0.424-0.066-0.766-0.2-1.025c-0.178-0.345-0.458-0.518-0.841-0.518
		c-0.37,0-0.642,0.174-0.817,0.521C141.336,26.609,141.269,26.947,141.269,27.355z"/>
	<path fill="#D13239" d="M144.501,28.053h0.956c-0.202-0.114-0.304-0.359-0.304-0.733v-3.755c0-0.239-0.012-0.393-0.037-0.464
		c-0.048-0.146-0.163-0.224-0.344-0.234v-0.054c0.314-0.027,0.669-0.111,1.062-0.254c-0.024,0.386-0.037,0.823-0.037,1.313v3.146
		c0,0.312,0.017,0.568,0.05,0.768c0.049,0.311,0.176,0.511,0.382,0.604h-1.729V28.053z"/>
	<path fill="#D13239" d="M146.717,28.41l-0.003-0.054c0.227-0.065,0.366-0.25,0.418-0.554c0.019-0.099,0.028-0.352,0.028-0.759
		v-3.479c0-0.239-0.013-0.393-0.036-0.464c-0.05-0.146-0.166-0.224-0.349-0.234v-0.054c0.316-0.027,0.672-0.111,1.066-0.254
		c-0.024,0.386-0.035,0.823-0.033,1.313v3.146c0.021,0.441,0.037,0.698,0.045,0.772c0.05,0.316,0.188,0.506,0.415,0.565v0.054
		c-0.26-0.014-0.512-0.021-0.755-0.021C147.196,28.39,146.931,28.396,146.717,28.41z"/>
</g>
<g>
	<path fill="#D13239" d="M35.5,26.847h-1.804l-0.316,0.735c-0.078,0.18-0.117,0.316-0.117,0.405c0,0.07,0.034,0.134,0.101,0.188
		c0.068,0.054,0.213,0.088,0.438,0.104v0.127h-1.467v-0.127c0.195-0.034,0.32-0.079,0.378-0.134c0.117-0.11,0.246-0.333,0.388-0.67
		l1.639-3.834h0.12l1.622,3.875c0.13,0.311,0.249,0.514,0.355,0.605c0.106,0.094,0.255,0.146,0.445,0.157v0.127h-1.838v-0.127
		c0.186-0.009,0.311-0.041,0.376-0.093c0.065-0.053,0.098-0.117,0.098-0.192c0-0.101-0.045-0.261-0.137-0.478L35.5,26.847z
		 M35.404,26.593l-0.79-1.883l-0.811,1.883H35.404z"/>
	<path fill="#D13239" d="M39.312,23.521v4.175c0,0.197,0.014,0.327,0.042,0.392c0.029,0.063,0.073,0.112,0.133,0.146
		c0.059,0.034,0.17,0.05,0.333,0.05v0.124h-1.542v-0.124c0.144,0,0.243-0.015,0.295-0.044c0.052-0.03,0.094-0.079,0.124-0.148
		c0.03-0.068,0.045-0.2,0.045-0.395v-2.858c0-0.354-0.008-0.572-0.024-0.654s-0.042-0.137-0.078-0.167
		c-0.035-0.029-0.081-0.045-0.135-0.045c-0.06,0-0.135,0.019-0.227,0.055l-0.059-0.12l0.938-0.385H39.312z"/>
	<path fill="#D13239" d="M45.897,28.406l-1.8-3.92V27.6c0,0.285,0.031,0.464,0.092,0.535c0.085,0.097,0.219,0.145,0.402,0.145h0.165
		v0.127h-1.622v-0.127H43.3c0.197,0,0.337-0.06,0.419-0.179c0.05-0.073,0.075-0.241,0.075-0.501v-3.045
		c0-0.206-0.023-0.355-0.069-0.446c-0.032-0.065-0.091-0.122-0.177-0.166c-0.086-0.045-0.224-0.067-0.414-0.067v-0.127h1.319
		l1.69,3.646l1.663-3.646h1.319v0.127h-0.162c-0.199,0-0.34,0.059-0.423,0.178c-0.05,0.074-0.075,0.241-0.075,0.502V27.6
		c0,0.285,0.032,0.464,0.096,0.535c0.084,0.097,0.219,0.145,0.402,0.145h0.162v0.127h-1.979v-0.127h0.165
		c0.199,0,0.338-0.06,0.419-0.179c0.05-0.073,0.076-0.241,0.076-0.501v-3.113l-1.797,3.92H45.897z"/>
	<path fill="#D13239" d="M51.924,27.953c-0.323,0.249-0.525,0.394-0.607,0.433c-0.124,0.057-0.255,0.085-0.396,0.085
		c-0.217,0-0.397-0.074-0.538-0.223s-0.211-0.345-0.211-0.587c0-0.153,0.034-0.286,0.103-0.399c0.094-0.155,0.258-0.302,0.49-0.439
		c0.233-0.137,0.619-0.305,1.159-0.501v-0.124c0-0.313-0.049-0.529-0.149-0.646c-0.1-0.117-0.245-0.177-0.435-0.177
		c-0.145,0-0.259,0.04-0.344,0.117c-0.087,0.079-0.13,0.168-0.13,0.269l0.007,0.2c0,0.104-0.027,0.186-0.081,0.243
		c-0.054,0.057-0.125,0.086-0.211,0.086c-0.085,0-0.154-0.03-0.208-0.09s-0.081-0.141-0.081-0.243c0-0.197,0.101-0.378,0.302-0.544
		c0.202-0.164,0.484-0.247,0.848-0.247c0.28,0,0.509,0.048,0.688,0.142c0.134,0.071,0.234,0.182,0.298,0.333
		c0.042,0.099,0.062,0.3,0.062,0.604v1.068c0,0.301,0.006,0.484,0.017,0.552s0.03,0.112,0.057,0.136
		c0.026,0.022,0.057,0.034,0.091,0.034c0.037,0,0.069-0.008,0.097-0.024c0.048-0.029,0.141-0.112,0.278-0.25v0.192
		c-0.256,0.343-0.501,0.515-0.735,0.515c-0.112,0-0.202-0.039-0.268-0.116C51.961,28.273,51.927,28.141,51.924,27.953z
		 M51.924,27.729V26.53c-0.345,0.138-0.568,0.234-0.669,0.292c-0.181,0.101-0.311,0.206-0.388,0.316
		c-0.078,0.109-0.117,0.23-0.117,0.36c0,0.166,0.049,0.302,0.147,0.41c0.099,0.109,0.212,0.164,0.34,0.164
		C51.411,28.073,51.64,27.959,51.924,27.729z"/>
	<path fill="#D13239" d="M55.945,25.166v1.072h-0.113c-0.087-0.337-0.199-0.565-0.335-0.687c-0.136-0.122-0.31-0.183-0.521-0.183
		c-0.161,0-0.29,0.042-0.388,0.127c-0.099,0.085-0.148,0.179-0.148,0.282c0,0.129,0.037,0.238,0.11,0.33
		c0.071,0.093,0.215,0.193,0.433,0.298l0.502,0.244c0.465,0.228,0.697,0.525,0.697,0.896c0,0.287-0.108,0.518-0.325,0.693
		c-0.216,0.175-0.458,0.262-0.727,0.262c-0.192,0-0.412-0.034-0.66-0.102c-0.075-0.023-0.137-0.035-0.186-0.035
		c-0.053,0-0.094,0.029-0.124,0.089h-0.113v-1.123h0.113c0.064,0.32,0.187,0.562,0.367,0.724c0.182,0.164,0.384,0.245,0.609,0.245
		c0.158,0,0.286-0.047,0.386-0.14c0.099-0.093,0.149-0.203,0.149-0.335c0-0.157-0.056-0.29-0.167-0.397
		c-0.111-0.108-0.333-0.244-0.665-0.41c-0.333-0.165-0.549-0.313-0.652-0.446c-0.104-0.13-0.155-0.295-0.155-0.494
		c0-0.259,0.089-0.475,0.266-0.649c0.178-0.174,0.407-0.262,0.689-0.262c0.124,0,0.273,0.026,0.45,0.079
		c0.117,0.035,0.194,0.052,0.233,0.052c0.037,0,0.065-0.008,0.086-0.023s0.044-0.052,0.072-0.107H55.945z"/>
	<path fill="#D13239" d="M59.08,27.953c-0.323,0.249-0.525,0.394-0.608,0.433c-0.124,0.057-0.255,0.085-0.395,0.085
		c-0.218,0-0.397-0.074-0.538-0.223c-0.141-0.148-0.211-0.345-0.211-0.587c0-0.153,0.035-0.286,0.103-0.399
		c0.094-0.155,0.257-0.302,0.49-0.439c0.232-0.137,0.619-0.305,1.159-0.501v-0.124c0-0.313-0.05-0.529-0.149-0.646
		c-0.1-0.117-0.245-0.177-0.435-0.177c-0.144,0-0.259,0.04-0.343,0.117c-0.087,0.079-0.131,0.168-0.131,0.269l0.007,0.2
		c0,0.104-0.027,0.186-0.081,0.243c-0.054,0.057-0.124,0.086-0.211,0.086c-0.084,0-0.154-0.03-0.208-0.09
		c-0.054-0.06-0.081-0.141-0.081-0.243c0-0.197,0.101-0.378,0.302-0.544c0.202-0.164,0.484-0.247,0.849-0.247
		c0.279,0,0.509,0.048,0.688,0.142c0.135,0.071,0.234,0.182,0.299,0.333c0.041,0.099,0.062,0.3,0.062,0.604v1.068
		c0,0.301,0.006,0.484,0.018,0.552c0.011,0.067,0.03,0.112,0.057,0.136c0.026,0.022,0.056,0.034,0.09,0.034
		c0.037,0,0.069-0.008,0.097-0.024c0.048-0.029,0.141-0.112,0.278-0.25v0.192c-0.257,0.343-0.502,0.515-0.735,0.515
		c-0.112,0-0.201-0.039-0.268-0.116C59.116,28.273,59.082,28.141,59.08,27.953z M59.08,27.729V26.53
		c-0.346,0.138-0.569,0.234-0.67,0.292c-0.181,0.101-0.31,0.206-0.388,0.316c-0.078,0.109-0.117,0.23-0.117,0.36
		c0,0.166,0.049,0.302,0.147,0.41c0.099,0.109,0.212,0.164,0.34,0.164C58.566,28.073,58.795,27.959,59.08,27.729z"/>
	<path fill="#D13239" d="M61.988,25.166v0.709c0.263-0.473,0.533-0.709,0.811-0.709c0.126,0,0.23,0.039,0.312,0.115
		c0.083,0.077,0.124,0.166,0.124,0.267c0,0.09-0.03,0.165-0.089,0.227c-0.06,0.062-0.131,0.094-0.213,0.094
		c-0.08,0-0.17-0.04-0.27-0.119s-0.174-0.118-0.222-0.118c-0.042,0-0.086,0.022-0.134,0.068c-0.104,0.094-0.21,0.249-0.319,0.464
		v1.508c0,0.174,0.021,0.306,0.065,0.396c0.03,0.062,0.083,0.112,0.158,0.154c0.076,0.041,0.184,0.062,0.326,0.062v0.124h-1.611
		v-0.124c0.161,0,0.279-0.024,0.358-0.075c0.057-0.037,0.097-0.095,0.12-0.176c0.012-0.039,0.018-0.15,0.018-0.333v-1.219
		c0-0.367-0.008-0.585-0.022-0.655c-0.015-0.069-0.042-0.121-0.083-0.153c-0.04-0.031-0.09-0.048-0.149-0.048
		c-0.071,0-0.151,0.018-0.241,0.052l-0.034-0.123l0.952-0.386H61.988z"/>
	<path fill="#D13239" d="M70.188,23.748l0.051,1.093h-0.13c-0.025-0.193-0.06-0.33-0.103-0.413c-0.071-0.133-0.166-0.23-0.284-0.293
		c-0.118-0.063-0.273-0.095-0.465-0.095H68.6v3.56c0,0.285,0.031,0.464,0.092,0.535c0.087,0.097,0.222,0.145,0.402,0.145h0.162
		v0.127h-1.976v-0.127h0.165c0.197,0,0.337-0.06,0.419-0.179c0.05-0.073,0.075-0.241,0.075-0.501v-3.56h-0.56
		c-0.218,0-0.373,0.016-0.464,0.048c-0.119,0.044-0.221,0.127-0.306,0.25c-0.084,0.125-0.135,0.292-0.151,0.503h-0.131l0.055-1.093
		H70.188z"/>
	<path fill="#D13239" d="M71.955,25.166v0.709c0.263-0.473,0.533-0.709,0.811-0.709c0.125,0,0.23,0.039,0.312,0.115
		c0.082,0.077,0.123,0.166,0.123,0.267c0,0.09-0.029,0.165-0.089,0.227c-0.06,0.062-0.13,0.094-0.213,0.094
		c-0.08,0-0.17-0.04-0.269-0.119c-0.1-0.079-0.174-0.118-0.222-0.118c-0.042,0-0.086,0.022-0.134,0.068
		c-0.103,0.094-0.209,0.249-0.319,0.464v1.508c0,0.174,0.022,0.306,0.065,0.396c0.03,0.062,0.083,0.112,0.158,0.154
		c0.076,0.041,0.185,0.062,0.327,0.062v0.124h-1.611v-0.124c0.16,0,0.279-0.024,0.357-0.075c0.057-0.037,0.097-0.095,0.12-0.176
		c0.011-0.039,0.017-0.15,0.017-0.333v-1.219c0-0.367-0.007-0.585-0.022-0.655c-0.015-0.069-0.042-0.121-0.083-0.153
		c-0.04-0.031-0.09-0.048-0.149-0.048c-0.071,0-0.151,0.018-0.24,0.052l-0.035-0.123l0.952-0.386H71.955z"/>
	<path fill="#D13239" d="M75.807,27.953c-0.323,0.249-0.525,0.394-0.607,0.433c-0.124,0.057-0.255,0.085-0.396,0.085
		c-0.217,0-0.396-0.074-0.538-0.223c-0.14-0.148-0.211-0.345-0.211-0.587c0-0.153,0.034-0.286,0.103-0.399
		c0.094-0.155,0.257-0.302,0.489-0.439c0.232-0.137,0.619-0.305,1.159-0.501v-0.124c0-0.313-0.05-0.529-0.149-0.646
		c-0.1-0.117-0.245-0.177-0.435-0.177c-0.144,0-0.258,0.04-0.343,0.117c-0.087,0.079-0.131,0.168-0.131,0.269l0.007,0.2
		c0,0.104-0.028,0.186-0.081,0.243c-0.054,0.057-0.124,0.086-0.211,0.086c-0.085,0-0.154-0.03-0.208-0.09s-0.081-0.141-0.081-0.243
		c0-0.197,0.101-0.378,0.302-0.544c0.202-0.164,0.484-0.247,0.849-0.247c0.279,0,0.508,0.048,0.687,0.142
		c0.136,0.071,0.235,0.182,0.3,0.333c0.041,0.099,0.062,0.3,0.062,0.604v1.068c0,0.301,0.006,0.484,0.018,0.552
		c0.011,0.067,0.03,0.112,0.057,0.136c0.026,0.022,0.057,0.034,0.09,0.034c0.037,0,0.069-0.008,0.097-0.024
		c0.049-0.029,0.142-0.112,0.279-0.25v0.192c-0.258,0.343-0.502,0.515-0.736,0.515c-0.111,0-0.201-0.039-0.267-0.116
		C75.844,28.273,75.81,28.141,75.807,27.953z M75.807,27.729V26.53c-0.345,0.138-0.568,0.234-0.669,0.292
		c-0.182,0.101-0.312,0.206-0.389,0.316c-0.078,0.109-0.117,0.23-0.117,0.36c0,0.166,0.049,0.302,0.147,0.41
		c0.099,0.109,0.212,0.164,0.34,0.164C75.294,28.073,75.523,27.959,75.807,27.729z"/>
	<path fill="#D13239" d="M77.633,25.259h1.48v0.128h-0.096c-0.09,0-0.158,0.021-0.204,0.065c-0.048,0.043-0.07,0.102-0.07,0.175
		c0,0.08,0.023,0.176,0.071,0.285l0.732,1.738l0.734-1.804c0.054-0.128,0.079-0.226,0.079-0.292c0-0.031-0.009-0.059-0.026-0.078
		c-0.025-0.035-0.058-0.059-0.097-0.071c-0.04-0.013-0.118-0.019-0.237-0.019v-0.128h1.026v0.128
		c-0.118,0.01-0.201,0.033-0.247,0.071c-0.08,0.069-0.151,0.184-0.216,0.345l-1.116,2.699h-0.141l-1.124-2.655
		c-0.051-0.123-0.099-0.212-0.145-0.266s-0.104-0.1-0.175-0.136c-0.039-0.021-0.116-0.041-0.23-0.059V25.259z"/>
	<path fill="#D13239" d="M82.488,26.444c-0.002,0.467,0.111,0.834,0.34,1.1c0.229,0.266,0.499,0.398,0.809,0.398
		c0.206,0,0.385-0.056,0.537-0.17c0.152-0.113,0.279-0.308,0.383-0.582l0.106,0.068c-0.048,0.314-0.188,0.6-0.419,0.857
		c-0.231,0.258-0.521,0.386-0.869,0.386c-0.378,0-0.702-0.146-0.971-0.44C82.135,27.768,82,27.372,82,26.874
		c0-0.538,0.139-0.958,0.415-1.259c0.275-0.302,0.622-0.452,1.039-0.452c0.353,0,0.642,0.116,0.869,0.349
		c0.227,0.232,0.34,0.543,0.34,0.933H82.488z M82.488,26.245h1.457c-0.012-0.201-0.036-0.344-0.072-0.427
		c-0.057-0.127-0.143-0.228-0.256-0.301c-0.113-0.074-0.232-0.11-0.355-0.11c-0.19,0-0.36,0.073-0.511,0.221
		C82.602,25.776,82.514,25.982,82.488,26.245z"/>
	<path fill="#D13239" d="M86.812,23.521v4.175c0,0.197,0.015,0.327,0.043,0.392c0.029,0.063,0.073,0.112,0.132,0.146
		c0.06,0.034,0.171,0.05,0.334,0.05v0.124h-1.543v-0.124c0.145,0,0.243-0.015,0.296-0.044c0.053-0.03,0.094-0.079,0.123-0.148
		c0.03-0.068,0.045-0.2,0.045-0.395v-2.858c0-0.354-0.008-0.572-0.023-0.654c-0.017-0.082-0.042-0.137-0.078-0.167
		c-0.035-0.029-0.08-0.045-0.136-0.045c-0.06,0-0.135,0.019-0.227,0.055l-0.058-0.12l0.938-0.385H86.812z"/>
</g>
<path fill="#D13239" d="M27.792,18.636l-3.28-3.28l-2.651,2.651l-1.752,1.752l0,0h1.221c-0.352,0.777-0.846,1.494-1.474,2.12
	c-1.276,1.275-2.973,2.019-4.778,2.091c-1.912,0.077-3.741-0.594-5.148-1.894c-1.408-1.298-2.225-3.066-2.302-4.979
	c-0.082-2.023,0.663-3.927,2.096-5.361c1.276-1.275,2.973-2.018,4.778-2.09c0.967-0.04,1.913,0.114,2.794,0.443l-4.45,4.449
	l-1.006-1.006l0,0v6.227h6.227v-0.001l-1.006-1.006l4.448-4.447l2.564-2.564l0,0c0,0,0-0.001,0-0.001
	c1.156-1.157,1.162-3.028,0.019-4.192c-0.007-0.007-0.012-0.014-0.02-0.022c-0.014-0.013-0.028-0.024-0.042-0.037
	c-0.698-0.692-1.471-1.306-2.308-1.827c-2.159-1.346-4.729-2.08-7.462-1.97c-3.431,0.138-6.502,1.582-8.752,3.832
	c-2.502,2.501-3.991,6-3.837,9.814c0.292,7.244,6.401,12.881,13.646,12.588c3.43-0.137,6.502-1.581,8.752-3.831
	c1.716-1.717,2.955-3.901,3.515-6.335h1.329h0.001L27.792,18.636z"/>
</svg>
