<?xml version="1.0" encoding="utf-8"?>
<!-- Generator: Adobe Illustrator 16.0.0, SVG Export Plug-In . SVG Version: 6.00 Build 0)  -->
<!DOCTYPE svg PUBLIC "-//W3C//DTD SVG 1.1//EN" "http://www.w3.org/Graphics/SVG/1.1/DTD/svg11.dtd">
<svg version="1.1" id="Layer_1" xmlns="http://www.w3.org/2000/svg" xmlns:xlink="http://www.w3.org/1999/xlink" x="0px" y="0px"
	 width="150px" height="35px" viewBox="0 0 150 35" enable-background="new 0 0 150 35" xml:space="preserve">
<g>
	<path d="M42.957,17.319h-5.383l-0.64,1.482c-0.21,0.494-0.315,0.902-0.315,1.226c0,0.426,0.172,0.741,0.517,0.943
		c0.202,0.12,0.7,0.21,1.495,0.271v0.415h-5.068v-0.415c0.547-0.083,0.996-0.31,1.349-0.681c0.352-0.37,0.786-1.137,1.303-2.298
		l5.449-12.157h0.213L47.372,18.6c0.524,1.184,0.955,1.93,1.292,2.236c0.254,0.232,0.614,0.367,1.079,0.405v0.415h-7.371v-0.415
		h0.303c0.592,0,1.008-0.083,1.248-0.248c0.165-0.12,0.247-0.292,0.247-0.517c0-0.135-0.022-0.274-0.067-0.416
		c-0.015-0.067-0.128-0.349-0.337-0.843L42.957,17.319z M42.574,16.488l-2.27-5.248l-2.337,5.248H42.574z"/>
	<path d="M64.529,16.308l-0.573,5.349H50.428v-0.415h0.505c0.442,0,0.798-0.079,1.067-0.236c0.195-0.105,0.345-0.285,0.45-0.54
		c0.082-0.18,0.124-0.651,0.124-1.415V9.027c0-0.779-0.042-1.266-0.124-1.46c-0.083-0.195-0.25-0.365-0.5-0.512
		s-0.589-0.219-1.017-0.219h-0.505V6.42h8.123v0.416h-0.663c-0.442,0-0.797,0.079-1.067,0.236c-0.195,0.105-0.348,0.285-0.461,0.539
		c-0.083,0.18-0.124,0.652-0.124,1.416v9.707c0,0.779,0.045,1.276,0.135,1.489c0.09,0.214,0.266,0.373,0.528,0.478
		c0.187,0.067,0.64,0.101,1.359,0.101h1.27c0.809,0,1.483-0.142,2.022-0.427c0.539-0.284,1.006-0.734,1.399-1.349
		c0.393-0.613,0.766-1.521,1.118-2.719H64.529z"/>
	<path d="M76.158,7.297v6.258h0.438c0.674,0,1.225-0.101,1.651-0.303s0.789-0.543,1.085-1.022c0.295-0.479,0.488-1.128,0.578-1.944
		h0.394v7.651H79.91c-0.142-1.445-0.53-2.398-1.162-2.859c-0.634-0.46-1.351-0.69-2.152-0.69h-0.438v4.663
		c0,0.779,0.042,1.266,0.129,1.46c0.086,0.195,0.255,0.365,0.506,0.511c0.25,0.147,0.59,0.221,1.017,0.221h0.505v0.415h-7.965
		v-0.415h0.505c0.441,0,0.798-0.079,1.067-0.236c0.195-0.105,0.344-0.285,0.449-0.54c0.083-0.18,0.124-0.651,0.124-1.415V9.027
		c0-0.779-0.042-1.266-0.124-1.46c-0.083-0.195-0.249-0.365-0.5-0.512c-0.25-0.146-0.589-0.219-1.017-0.219h-0.505V6.42h12.853
		v4.371h-0.46c-0.105-1.026-0.373-1.786-0.804-2.281c-0.431-0.494-1.055-0.843-1.871-1.045c-0.449-0.112-1.28-0.168-2.494-0.168
		H76.158z"/>
	<path d="M91.753,17.319h-5.382l-0.641,1.482c-0.21,0.494-0.314,0.902-0.314,1.226c0,0.426,0.173,0.741,0.517,0.943
		c0.202,0.12,0.7,0.21,1.495,0.271v0.415H82.36v-0.415c0.546-0.083,0.995-0.31,1.349-0.681c0.352-0.37,0.786-1.137,1.303-2.298
		l5.449-12.157h0.214L96.169,18.6c0.524,1.184,0.955,1.93,1.291,2.236c0.255,0.232,0.614,0.367,1.079,0.405v0.415h-7.37v-0.415
		h0.303c0.592,0,1.009-0.083,1.248-0.248c0.164-0.12,0.247-0.292,0.247-0.517c0-0.135-0.022-0.274-0.067-0.416
		c-0.016-0.067-0.128-0.349-0.337-0.843L91.753,17.319z M91.371,16.488l-2.27-5.248l-2.337,5.248H91.371z"/>
	<path d="M105.09,14.33v4.72c0,0.779,0.043,1.266,0.13,1.46c0.085,0.195,0.254,0.365,0.505,0.511
		c0.251,0.147,0.59,0.221,1.017,0.221h0.506v0.415h-7.966v-0.415h0.505c0.442,0,0.798-0.079,1.068-0.236
		c0.194-0.105,0.344-0.285,0.448-0.54c0.083-0.18,0.124-0.651,0.124-1.415V9.027c0-0.779-0.041-1.266-0.124-1.46
		c-0.082-0.195-0.248-0.365-0.499-0.512s-0.59-0.219-1.018-0.219h-0.505V6.42h7.966v0.416h-0.506c-0.441,0-0.798,0.079-1.067,0.236
		c-0.195,0.105-0.348,0.285-0.461,0.539c-0.081,0.18-0.123,0.652-0.123,1.416v4.314h5.382V9.027c0-0.779-0.041-1.266-0.124-1.46
		c-0.082-0.195-0.251-0.365-0.505-0.512s-0.596-0.219-1.023-0.219h-0.494V6.42h7.955v0.416h-0.494c-0.448,0-0.805,0.079-1.067,0.236
		c-0.194,0.105-0.348,0.285-0.46,0.539c-0.082,0.18-0.124,0.652-0.124,1.416V19.05c0,0.779,0.042,1.266,0.124,1.46
		c0.082,0.195,0.25,0.365,0.505,0.511c0.255,0.147,0.596,0.221,1.022,0.221h0.494v0.415h-7.955v-0.415h0.494
		c0.45,0,0.806-0.079,1.068-0.236c0.195-0.105,0.348-0.285,0.46-0.54c0.083-0.18,0.124-0.651,0.124-1.415v-4.72H105.09z"/>
	<path d="M126.27,17.319h-5.383l-0.64,1.482c-0.21,0.494-0.315,0.902-0.315,1.226c0,0.426,0.173,0.741,0.518,0.943
		c0.202,0.12,0.7,0.21,1.495,0.271v0.415h-5.068v-0.415c0.547-0.083,0.996-0.31,1.349-0.681c0.352-0.37,0.787-1.137,1.303-2.298
		l5.45-12.157h0.213l5.494,12.494c0.524,1.184,0.955,1.93,1.293,2.236c0.254,0.232,0.613,0.367,1.078,0.405v0.415h-7.371v-0.415
		h0.304c0.592,0,1.007-0.083,1.247-0.248c0.165-0.12,0.247-0.292,0.247-0.517c0-0.135-0.022-0.274-0.067-0.416
		c-0.015-0.067-0.128-0.349-0.337-0.843L126.27,17.319z M125.887,16.488l-2.27-5.248l-2.336,5.248H125.887z"/>
	<path d="M133.617,21.656v-0.415h0.506c0.441,0,0.78-0.069,1.017-0.209c0.236-0.138,0.41-0.327,0.522-0.567
		c0.067-0.157,0.102-0.629,0.102-1.415V9.027c0-0.779-0.042-1.266-0.124-1.46c-0.083-0.195-0.249-0.365-0.5-0.512
		s-0.59-0.219-1.017-0.219h-0.506V6.42h6.82c1.82,0,3.285,0.248,4.393,0.742c1.355,0.606,2.385,1.524,3.085,2.753
		s1.051,2.617,1.051,4.168c0,1.071-0.173,2.059-0.518,2.961s-0.79,1.647-1.337,2.236c-0.547,0.588-1.178,1.06-1.893,1.415
		c-0.716,0.356-1.591,0.632-2.624,0.826c-0.457,0.089-1.177,0.135-2.157,0.135H133.617z M139.427,7.286v11.887
		c0,0.63,0.029,1.015,0.089,1.157c0.061,0.143,0.162,0.251,0.304,0.326c0.202,0.112,0.494,0.169,0.876,0.169
		c1.252,0,2.206-0.428,2.865-1.281c0.899-1.152,1.349-2.943,1.349-5.371c0-1.955-0.308-3.517-0.922-4.685
		c-0.486-0.914-1.112-1.536-1.876-1.865C141.572,7.39,140.677,7.278,139.427,7.286z"/>
</g>
<g>
	<path fill="#D13239" d="M97.055,29.434v-0.64c-0.082,0.182-0.213,0.323-0.39,0.426c-0.171,0.094-0.359,0.142-0.567,0.142
		c-0.395,0-0.717-0.141-0.968-0.422c-0.239-0.272-0.359-0.607-0.359-1.006c0-0.395,0.127-0.716,0.38-0.963
		c0.253-0.248,0.577-0.372,0.972-0.372c0.373,0,0.68,0.18,0.92,0.54c0.055-0.157,0.128-0.314,0.217-0.472h0.561l0.218-0.007v0.035
		c-0.152,0.034-0.244,0.174-0.276,0.418c-0.01,0.056-0.014,0.241-0.014,0.557v1.48h0.577v0.283H97.055z M95.188,25.838
		c0-0.113,0.04-0.207,0.119-0.283c0.078-0.077,0.173-0.114,0.286-0.114c0.115,0,0.212,0.037,0.289,0.111
		c0.077,0.076,0.115,0.171,0.115,0.286c0,0.116-0.039,0.208-0.117,0.282c-0.079,0.071-0.175,0.108-0.287,0.108
		c-0.115,0-0.212-0.037-0.289-0.108C95.228,26.046,95.188,25.954,95.188,25.838z M95.413,27.999c0,0.299,0.063,0.545,0.19,0.736
		c0.149,0.229,0.367,0.342,0.652,0.342c0.286,0,0.502-0.112,0.646-0.339c0.123-0.188,0.184-0.436,0.184-0.739
		c0-0.31-0.062-0.558-0.187-0.747c-0.146-0.226-0.361-0.338-0.649-0.338c-0.287,0-0.503,0.113-0.65,0.341
		C95.475,27.448,95.413,27.697,95.413,27.999z M96.208,25.838c0-0.113,0.039-0.207,0.118-0.283c0.078-0.077,0.174-0.114,0.286-0.114
		c0.116,0,0.212,0.037,0.289,0.111c0.078,0.076,0.116,0.171,0.116,0.286c0,0.116-0.039,0.208-0.118,0.282
		c-0.079,0.071-0.174,0.108-0.287,0.108c-0.115,0-0.211-0.037-0.289-0.108C96.246,26.046,96.208,25.954,96.208,25.838z"/>
	<path fill="#D13239" d="M100.229,29.15h0.477v0.283H98.23V29.15h1.338v-1.688c0-0.206-0.011-0.341-0.034-0.404
		c-0.044-0.127-0.145-0.194-0.304-0.204v-0.046c0.396-0.05,0.742-0.122,1.037-0.217c-0.026,0.357-0.038,0.729-0.038,1.112V29.15z
		 M98.47,30.143c0-0.113,0.039-0.208,0.117-0.285c0.078-0.078,0.174-0.116,0.287-0.116c0.115,0,0.212,0.038,0.288,0.114
		c0.077,0.076,0.116,0.171,0.116,0.287c0,0.113-0.04,0.205-0.117,0.279c-0.078,0.074-0.174,0.111-0.287,0.111
		c-0.116,0-0.211-0.037-0.289-0.109C98.508,30.352,98.47,30.258,98.47,30.143z M99.403,30.143c0-0.113,0.039-0.208,0.117-0.285
		c0.078-0.078,0.174-0.116,0.286-0.116c0.116,0,0.212,0.038,0.289,0.114c0.078,0.076,0.116,0.171,0.116,0.287
		c0,0.113-0.039,0.205-0.117,0.279s-0.174,0.111-0.288,0.111s-0.211-0.037-0.288-0.109S99.403,30.258,99.403,30.143z"/>
	<path fill="#D13239" d="M104.036,26.412l-0.239,0.553h-0.038c-0.141-0.583-0.561-0.875-1.262-0.875
		c-0.221,0-0.414,0.104-0.577,0.312c-0.151,0.194-0.229,0.406-0.229,0.632c0,0.374,0.308,0.56,0.924,0.56h2.14
		c0.631,0,0.944,0.33,0.938,0.989c-0.006,0.462,0.128,0.735,0.396,0.822l-0.003,0.028h-5.483V29.15h4.716
		c-0.193-0.168-0.29-0.347-0.29-0.533v-0.305c0-0.292-0.263-0.438-0.785-0.438h-1.784c-0.94,0-1.41-0.255-1.41-0.767
		c0-0.358,0.146-0.644,0.438-0.858c0.261-0.191,0.575-0.287,0.944-0.287C102.982,25.962,103.517,26.113,104.036,26.412z"/>
	<path fill="#D13239" d="M109.162,29.15h0.854v0.283h-3.046c-0.202,0-0.32-0.153-0.353-0.46c0.108,0.118,0.213,0.177,0.315,0.177
		h1.393c0.388,0,0.603-0.267,0.643-0.799c-0.026-0.359-0.11-0.692-0.252-0.996c-0.187-0.412-0.431-0.618-0.732-0.618
		c-0.097,0-0.197,0.035-0.299,0.106c-0.103,0.071-0.175,0.152-0.217,0.242c-0.047,0.1-0.069,0.21-0.069,0.332
		c0,0.141,0.025,0.241,0.072,0.305c0.088,0.115,0.134,0.176,0.139,0.183c-0.009,0.011-0.047,0.021-0.113,0.028
		c-0.086-0.003-0.164-0.004-0.235-0.004c-0.122,0-0.331,0.007-0.626,0.021v-0.045c0.105-0.029,0.179-0.073,0.218-0.127
		c0.039-0.056,0.06-0.141,0.06-0.254v-0.127c0-0.104-0.004-0.209-0.011-0.315c0.299-0.304,0.669-0.456,1.109-0.456
		c0.436,0,0.809,0.176,1.12,0.525c0.302,0.337,0.453,0.725,0.453,1.161C109.585,28.659,109.444,28.938,109.162,29.15z
		 M107.542,25.776c0-0.115,0.039-0.211,0.116-0.287c0.079-0.076,0.175-0.114,0.287-0.114c0.115,0,0.212,0.038,0.289,0.114
		s0.116,0.172,0.116,0.287c0,0.112-0.039,0.206-0.118,0.279c-0.078,0.074-0.174,0.11-0.287,0.11c-0.114,0-0.211-0.036-0.288-0.109
		C107.58,25.984,107.542,25.891,107.542,25.776z"/>
	<path fill="#D13239" d="M109.931,29.15h0.806c-0.171-0.098-0.257-0.304-0.257-0.619v-3.164c0-0.2-0.01-0.33-0.03-0.391
		c-0.042-0.122-0.139-0.188-0.29-0.197v-0.044c0.264-0.023,0.562-0.094,0.895-0.215c-0.021,0.325-0.031,0.694-0.031,1.106v2.652
		c0,0.262,0.014,0.478,0.042,0.646c0.041,0.261,0.148,0.429,0.321,0.508h-1.455V29.15z"/>
	<path fill="#D13239" d="M111.798,29.45l-0.003-0.045c0.19-0.055,0.308-0.211,0.353-0.466c0.016-0.083,0.023-0.296,0.023-0.641
		v-2.932c0-0.2-0.01-0.33-0.031-0.391c-0.042-0.122-0.14-0.188-0.294-0.197v-0.044c0.268-0.023,0.566-0.094,0.898-0.215
		c-0.021,0.325-0.028,0.694-0.027,1.106v2.652c0.019,0.37,0.031,0.587,0.038,0.649c0.042,0.268,0.158,0.426,0.349,0.477v0.045
		c-0.219-0.011-0.43-0.017-0.635-0.017C112.2,29.434,111.978,29.439,111.798,29.45z"/>
	<path fill="#D13239" d="M116.631,29.434v-0.64c-0.083,0.182-0.213,0.323-0.39,0.426c-0.172,0.094-0.36,0.142-0.568,0.142
		c-0.394,0-0.716-0.141-0.968-0.422c-0.239-0.272-0.359-0.607-0.359-1.006c0-0.395,0.128-0.716,0.381-0.963
		c0.253-0.248,0.577-0.372,0.971-0.372c0.374,0,0.68,0.18,0.92,0.54c0.056-0.157,0.129-0.314,0.217-0.472h0.562l0.218-0.007v0.035
		c-0.152,0.034-0.244,0.174-0.277,0.418c-0.009,0.056-0.013,0.241-0.013,0.557v1.48h0.577v0.283H116.631z M114.764,25.838
		c0-0.113,0.039-0.207,0.119-0.283c0.077-0.077,0.173-0.114,0.286-0.114c0.115,0,0.211,0.037,0.289,0.111
		c0.077,0.076,0.115,0.171,0.115,0.286c0,0.116-0.039,0.208-0.117,0.282c-0.079,0.071-0.175,0.108-0.287,0.108
		c-0.115,0-0.212-0.037-0.289-0.108C114.803,26.046,114.764,25.954,114.764,25.838z M114.988,27.999c0,0.299,0.063,0.545,0.19,0.736
		c0.149,0.229,0.367,0.342,0.653,0.342s0.501-0.112,0.646-0.339c0.123-0.188,0.184-0.436,0.184-0.739
		c0-0.31-0.062-0.558-0.188-0.747c-0.145-0.226-0.361-0.338-0.649-0.338c-0.286,0-0.502,0.113-0.649,0.341
		C115.051,27.448,114.988,27.697,114.988,27.999z M115.784,25.838c0-0.113,0.039-0.207,0.117-0.283
		c0.079-0.077,0.174-0.114,0.287-0.114c0.115,0,0.212,0.037,0.289,0.111c0.077,0.076,0.116,0.171,0.116,0.286
		c0,0.116-0.039,0.208-0.119,0.282c-0.078,0.071-0.174,0.108-0.286,0.108c-0.115,0-0.212-0.037-0.289-0.108
		C115.822,26.046,115.784,25.954,115.784,25.838z"/>
	<path fill="#D13239" d="M121.181,29.15h0.574v0.283h-0.743c-0.041,0.053-0.087,0.103-0.135,0.148
		c-0.277,0.261-0.641,0.392-1.089,0.392c-0.438,0-0.794-0.132-1.065-0.396c-0.048-0.046-0.092-0.095-0.131-0.145h-0.785V29.15h0.618
		c-0.076-0.181-0.113-0.38-0.113-0.603c0-0.419,0.146-0.757,0.438-1.013c0.277-0.242,0.628-0.363,1.055-0.363
		c0.434,0,0.786,0.125,1.058,0.374c0.284,0.258,0.426,0.601,0.426,1.026C121.288,28.788,121.253,28.979,121.181,29.15z
		 M118.94,28.562c0,0.356,0.058,0.647,0.174,0.871c0.146,0.295,0.382,0.442,0.705,0.442c0.314,0,0.546-0.147,0.69-0.442
		c0.113-0.224,0.17-0.514,0.17-0.868c0-0.356-0.057-0.646-0.17-0.864c-0.149-0.29-0.386-0.435-0.708-0.435
		c-0.312,0-0.541,0.146-0.688,0.438C118.998,27.934,118.94,28.219,118.94,28.562z"/>
	<path fill="#D13239" d="M121.665,29.434V29.15h0.563v-3.876c0-0.178-0.013-0.298-0.037-0.359c-0.043-0.106-0.137-0.164-0.284-0.174
		v-0.048c0.249-0.03,0.525-0.099,0.829-0.207v3.038c0.187-0.622,0.589-0.933,1.207-0.933c0.436,0,0.749,0.132,0.94,0.397
		c0.163,0.226,0.246,0.567,0.246,1.022v0.253c0,0.463,0.023,0.759,0.072,0.886h0.411v0.283H121.665z M124.684,29.15
		c-0.064-0.079-0.104-0.176-0.117-0.291v-0.799c0-0.366-0.046-0.639-0.136-0.815c-0.125-0.239-0.349-0.371-0.674-0.395
		c-0.493,0.032-0.796,0.337-0.905,0.913c-0.035,0.18-0.053,0.642-0.053,1.387H124.684z M123.256,25.745
		c0-0.113,0.039-0.208,0.117-0.284s0.175-0.114,0.29-0.114s0.212,0.038,0.289,0.113c0.077,0.074,0.116,0.169,0.116,0.285
		c0,0.114-0.04,0.209-0.118,0.281s-0.174,0.108-0.287,0.108c-0.115,0-0.212-0.036-0.29-0.108S123.256,25.859,123.256,25.745z"/>
	<path fill="#D13239" d="M125.522,29.15h1.446c-0.113-0.115-0.187-0.241-0.218-0.377c-0.021-0.091-0.031-0.255-0.031-0.494v-0.816
		c0-0.206-0.011-0.341-0.035-0.404c-0.043-0.127-0.145-0.194-0.304-0.204v-0.046c0.396-0.05,0.741-0.122,1.037-0.217
		c-0.025,0.357-0.039,0.729-0.039,1.112v0.471c0,0.383,0.01,0.616,0.025,0.701c0.046,0.289,0.17,0.466,0.373,0.529l-0.003,0.028
		h-2.252V29.15z M125.689,25.83c0-0.112,0.039-0.207,0.117-0.285c0.079-0.076,0.175-0.115,0.287-0.115
		c0.115,0,0.213,0.038,0.29,0.114c0.078,0.076,0.118,0.172,0.118,0.286c0,0.113-0.04,0.207-0.118,0.281
		c-0.077,0.073-0.175,0.11-0.29,0.11c-0.112,0-0.208-0.036-0.287-0.108C125.729,26.04,125.689,25.946,125.689,25.83z"/>
	<path fill="#D13239" d="M129.469,29.77c-0.583-0.336-0.876-0.795-0.876-1.381v-2.484c0-0.201-0.01-0.331-0.03-0.392
		c-0.042-0.12-0.14-0.184-0.294-0.194v-0.044c0.268-0.022,0.567-0.096,0.899-0.218c-0.024,0.334-0.033,0.704-0.028,1.109v2.227
		C129.154,28.906,129.264,29.365,129.469,29.77z M128.365,24.825v-0.102h0.146c-0.088-0.062-0.132-0.138-0.132-0.228
		c0-0.095,0.045-0.167,0.135-0.218c0.076-0.041,0.165-0.062,0.267-0.062c0.11,0,0.208,0.021,0.29,0.062l-0.038,0.155l-0.014-0.003
		c-0.041-0.12-0.115-0.18-0.221-0.18c-0.071,0-0.136,0.024-0.191,0.072c-0.057,0.049-0.086,0.106-0.086,0.173
		c0,0.081,0.052,0.157,0.152,0.228h0.359c0.028,0,0.056-0.011,0.083-0.033c-0.009,0.089-0.041,0.135-0.097,0.135H128.365z
		 M130.305,29.15h0.498v0.283h-0.608c-0.046,0.095-0.102,0.181-0.166,0.259c-0.203,0.256-0.542,0.384-1.016,0.384
		c-0.079,0-0.163-0.003-0.254-0.01c-0.063-0.005-0.159-0.015-0.286-0.031l0.187-0.598h0.035c0.029,0.138,0.094,0.254,0.192,0.349
		c0.073,0.069,0.18,0.104,0.322,0.104c0.051,0,0.108-0.004,0.173-0.014c0.198-0.029,0.334-0.195,0.408-0.495
		c0.053-0.216,0.073-0.513,0.062-0.892v-3.043c0-0.246-0.018-0.393-0.053-0.441c-0.039-0.15-0.141-0.229-0.304-0.238v-0.046
		c0.265-0.033,0.562-0.105,0.892-0.214v3.986C130.388,28.735,130.36,28.954,130.305,29.15z"/>
	<path fill="#D13239" d="M130.703,29.15h0.805c-0.17-0.098-0.256-0.304-0.256-0.619v-3.164c0-0.2-0.011-0.33-0.03-0.391
		c-0.042-0.122-0.139-0.188-0.291-0.197v-0.044c0.265-0.023,0.563-0.094,0.896-0.215c-0.021,0.325-0.031,0.694-0.031,1.106v2.652
		c0,0.262,0.014,0.478,0.041,0.646c0.043,0.261,0.148,0.429,0.322,0.508h-1.455V29.15z"/>
	<path fill="#D13239" d="M135.912,29.15h0.854v0.283h-3.046c-0.203,0-0.32-0.153-0.353-0.46c0.108,0.118,0.213,0.177,0.314,0.177
		h1.394c0.388,0,0.602-0.267,0.643-0.799c-0.027-0.359-0.111-0.692-0.252-0.996c-0.187-0.412-0.431-0.618-0.733-0.618
		c-0.096,0-0.196,0.035-0.299,0.106s-0.175,0.152-0.216,0.242c-0.046,0.1-0.069,0.21-0.069,0.332c0,0.141,0.024,0.241,0.072,0.305
		c0.089,0.115,0.134,0.176,0.139,0.183c-0.009,0.011-0.047,0.021-0.114,0.028c-0.085-0.003-0.163-0.004-0.234-0.004
		c-0.122,0-0.331,0.007-0.626,0.021v-0.045c0.105-0.029,0.178-0.073,0.218-0.127c0.04-0.056,0.059-0.141,0.059-0.254v-0.127
		c0-0.104-0.003-0.209-0.01-0.315c0.299-0.304,0.669-0.456,1.109-0.456c0.436,0,0.809,0.176,1.12,0.525
		c0.302,0.337,0.453,0.725,0.453,1.161C136.335,28.659,136.194,28.938,135.912,29.15z"/>
	<path fill="#D13239" d="M141.334,29.15h0.796v0.283h-5.449V29.15h1.127c-0.355-0.229-0.533-0.55-0.533-0.966
		c0-0.353,0.144-0.637,0.43-0.854c0.251-0.188,0.562-0.294,0.93-0.314l-0.048-0.598c0.221-0.074,0.46-0.114,0.719-0.122
		c0.256-0.004,0.509,0.028,0.761,0.098c0.495,0.139,0.919,0.396,1.272,0.771c0.292,0.316,0.438,0.663,0.438,1.041
		c0,0.076-0.006,0.153-0.017,0.232C141.711,28.749,141.569,28.985,141.334,29.15z M138.257,29.15h1.037
		c0.232-0.187,0.349-0.503,0.349-0.948c0-0.702-0.268-1.071-0.805-1.106c-0.046,0.091-0.085,0.192-0.117,0.309l-0.056-0.011
		l-0.021-0.29c-0.257,0.029-0.449,0.159-0.577,0.387c-0.105,0.187-0.159,0.423-0.159,0.705
		C137.907,28.647,138.024,28.966,138.257,29.15z M139.727,29.146c0.375-0.012,0.647-0.063,0.816-0.155
		c0.19-0.106,0.328-0.23,0.411-0.374c0.067-0.116,0.101-0.292,0.101-0.521c0-0.054-0.003-0.11-0.008-0.173
		c-0.019-0.325-0.11-0.607-0.276-0.847c-0.18-0.254-0.421-0.423-0.722-0.505c-0.113-0.033-0.222-0.049-0.326-0.049
		c-0.361,0-0.642,0.165-0.839,0.494c0.377,0.019,0.691,0.123,0.943,0.314c0.283,0.217,0.426,0.508,0.426,0.871
		C140.253,28.608,140.077,28.922,139.727,29.146z"/>
	<path fill="#D13239" d="M142.513,27.981c0-0.42,0.147-0.757,0.439-1.014c0.276-0.241,0.629-0.362,1.055-0.362
		c0.433,0,0.785,0.125,1.058,0.376c0.284,0.257,0.426,0.598,0.426,1.024c0,0.415-0.138,0.752-0.412,1.012
		c-0.053,0.049-0.109,0.093-0.169,0.133h0.979v0.283h-3.852V29.15h1.058c-0.062-0.041-0.12-0.089-0.173-0.142
		C142.649,28.745,142.513,28.403,142.513,27.981z M143.142,27.995c0,0.56,0.131,0.944,0.392,1.155h0.961
		c0.256-0.213,0.384-0.597,0.384-1.151c0-0.355-0.057-0.644-0.169-0.864c-0.148-0.291-0.383-0.436-0.706-0.436
		c-0.311,0-0.541,0.146-0.691,0.439C143.199,27.365,143.142,27.651,143.142,27.995z M143.55,25.672c0-0.113,0.04-0.208,0.118-0.283
		c0.078-0.076,0.174-0.114,0.287-0.114c0.115,0,0.212,0.037,0.29,0.112s0.117,0.169,0.117,0.285c0,0.113-0.039,0.206-0.117,0.28
		c-0.078,0.073-0.175,0.111-0.29,0.111c-0.116,0-0.212-0.037-0.289-0.109C143.589,25.881,143.55,25.787,143.55,25.672z"/>
	<path fill="#D13239" d="M145.797,29.15h0.806c-0.17-0.098-0.255-0.304-0.255-0.619v-3.164c0-0.2-0.011-0.33-0.031-0.391
		c-0.041-0.122-0.139-0.188-0.291-0.197v-0.044c0.266-0.023,0.563-0.094,0.896-0.215c-0.021,0.325-0.032,0.694-0.032,1.106v2.652
		c0,0.262,0.015,0.478,0.042,0.646c0.041,0.261,0.148,0.429,0.321,0.508h-1.456V29.15z"/>
	<path fill="#D13239" d="M147.664,29.45l-0.004-0.045c0.191-0.055,0.311-0.211,0.354-0.466c0.017-0.083,0.024-0.296,0.024-0.641
		v-2.932c0-0.2-0.011-0.33-0.031-0.391c-0.041-0.122-0.139-0.188-0.293-0.197v-0.044c0.267-0.023,0.566-0.094,0.898-0.215
		c-0.021,0.325-0.03,0.694-0.028,1.106v2.652c0.019,0.37,0.031,0.587,0.038,0.649c0.041,0.268,0.157,0.426,0.35,0.477v0.045
		c-0.22-0.011-0.431-0.017-0.637-0.017C148.068,29.434,147.845,29.439,147.664,29.45z"/>
</g>
<g>
	<path fill="#D13239" d="M36.281,28.117H34.74l-0.27,0.629c-0.067,0.154-0.1,0.27-0.1,0.347c0,0.061,0.029,0.113,0.087,0.16
		c0.058,0.046,0.182,0.075,0.374,0.089v0.108h-1.254v-0.108c0.166-0.029,0.274-0.067,0.323-0.114c0.1-0.094,0.21-0.285,0.332-0.572
		l1.401-3.278h0.102l1.386,3.313c0.112,0.266,0.213,0.438,0.304,0.518c0.091,0.08,0.218,0.124,0.38,0.134v0.108h-1.571v-0.108
		c0.159-0.007,0.266-0.034,0.322-0.079s0.083-0.1,0.083-0.164c0-0.087-0.039-0.223-0.118-0.408L36.281,28.117z M36.199,27.9
		l-0.676-1.609L34.831,27.9H36.199z"/>
	<path fill="#D13239" d="M38.986,25.274v3.569c0,0.167,0.012,0.279,0.037,0.333c0.024,0.056,0.062,0.098,0.113,0.126
		c0.051,0.028,0.146,0.042,0.285,0.042v0.105h-1.319v-0.105c0.124,0,0.208-0.013,0.253-0.038c0.045-0.024,0.08-0.067,0.106-0.126
		c0.025-0.06,0.038-0.171,0.038-0.337v-2.444c0-0.304-0.007-0.489-0.021-0.559c-0.013-0.07-0.035-0.117-0.066-0.144
		c-0.03-0.025-0.069-0.038-0.116-0.038c-0.051,0-0.115,0.017-0.194,0.048l-0.05-0.104l0.802-0.329H38.986z"/>
	<path fill="#D13239" d="M42.278,25.686v1.565h0.726c0.167,0,0.288-0.037,0.366-0.11c0.077-0.073,0.128-0.219,0.154-0.436h0.109
		v1.348h-0.109c-0.002-0.154-0.022-0.268-0.06-0.341c-0.038-0.072-0.091-0.127-0.158-0.163c-0.068-0.035-0.168-0.055-0.301-0.055
		h-0.726v1.252c0,0.201,0.013,0.335,0.039,0.398c0.02,0.05,0.061,0.092,0.124,0.127c0.086,0.047,0.175,0.07,0.27,0.07h0.144v0.108
		h-1.709v-0.108h0.141c0.165,0,0.284-0.048,0.358-0.144c0.047-0.063,0.071-0.213,0.071-0.452v-2.573
		c0-0.201-0.013-0.334-0.039-0.398c-0.019-0.05-0.06-0.092-0.12-0.127c-0.084-0.046-0.174-0.07-0.27-0.07h-0.141v-0.108h2.963
		l0.038,0.874h-0.103c-0.051-0.185-0.11-0.321-0.177-0.408c-0.068-0.088-0.151-0.15-0.25-0.189c-0.099-0.04-0.252-0.06-0.459-0.06
		H42.278z"/>
	<path fill="#D13239" d="M46.104,29.063c-0.276,0.213-0.45,0.336-0.52,0.37c-0.105,0.049-0.218,0.073-0.337,0.073
		c-0.186,0-0.339-0.063-0.46-0.191c-0.12-0.127-0.18-0.295-0.18-0.502c0-0.132,0.029-0.244,0.088-0.34
		c0.08-0.134,0.22-0.26,0.418-0.377c0.198-0.117,0.529-0.261,0.991-0.428v-0.105c0-0.269-0.042-0.453-0.128-0.554
		c-0.085-0.1-0.208-0.148-0.371-0.148c-0.124,0-0.221,0.032-0.294,0.099c-0.074,0.067-0.112,0.144-0.112,0.229l0.006,0.17
		c0,0.091-0.023,0.16-0.069,0.208c-0.046,0.05-0.106,0.074-0.18,0.074c-0.073,0-0.132-0.025-0.178-0.076
		c-0.046-0.052-0.069-0.12-0.069-0.209c0-0.168,0.086-0.322,0.258-0.464c0.172-0.141,0.414-0.212,0.726-0.212
		c0.239,0,0.435,0.041,0.587,0.121c0.116,0.061,0.201,0.155,0.256,0.285c0.035,0.084,0.053,0.256,0.053,0.517v0.913
		c0,0.257,0.005,0.413,0.015,0.473c0.01,0.057,0.026,0.095,0.049,0.115c0.022,0.019,0.048,0.029,0.078,0.029
		c0.032,0,0.059-0.007,0.083-0.021c0.041-0.024,0.12-0.097,0.237-0.214v0.165c-0.219,0.293-0.429,0.44-0.628,0.44
		c-0.096,0-0.172-0.034-0.229-0.1C46.136,29.338,46.106,29.223,46.104,29.063z M46.104,28.872v-1.024
		c-0.296,0.117-0.486,0.2-0.573,0.249c-0.154,0.087-0.265,0.176-0.332,0.271c-0.066,0.094-0.1,0.196-0.1,0.308
		c0,0.142,0.042,0.259,0.126,0.352c0.084,0.094,0.181,0.14,0.291,0.14C45.666,29.166,45.862,29.067,46.104,28.872z"/>
	<path fill="#D13239" d="M48.04,25.274v1.968c0.218-0.239,0.39-0.392,0.517-0.459s0.254-0.103,0.381-0.103
		c0.153,0,0.284,0.043,0.394,0.128c0.109,0.084,0.19,0.215,0.244,0.396c0.037,0.126,0.056,0.354,0.056,0.688v0.952
		c0,0.17,0.014,0.286,0.042,0.349c0.019,0.047,0.052,0.084,0.1,0.111c0.047,0.027,0.133,0.041,0.258,0.041v0.105h-1.321v-0.105
		h0.062c0.125,0,0.212-0.019,0.261-0.057c0.049-0.039,0.083-0.095,0.103-0.169c0.006-0.031,0.009-0.123,0.009-0.275v-0.952
		c0-0.294-0.015-0.486-0.046-0.579c-0.03-0.092-0.078-0.161-0.145-0.207s-0.146-0.069-0.241-0.069c-0.096,0-0.196,0.026-0.3,0.077
		c-0.104,0.051-0.228,0.153-0.373,0.309v1.422c0,0.184,0.01,0.297,0.031,0.343c0.021,0.046,0.059,0.082,0.114,0.113
		c0.056,0.03,0.152,0.045,0.29,0.045v0.105h-1.333v-0.105c0.12,0,0.213-0.019,0.282-0.056c0.039-0.02,0.071-0.057,0.094-0.112
		c0.023-0.054,0.035-0.166,0.035-0.333v-2.436c0-0.307-0.007-0.496-0.022-0.566c-0.015-0.071-0.037-0.118-0.068-0.145
		c-0.03-0.025-0.071-0.038-0.122-0.038c-0.041,0-0.107,0.017-0.199,0.048L47.1,25.604l0.805-0.329H48.04z"/>
	<path fill="#D13239" d="M51.781,29.063c-0.276,0.213-0.45,0.336-0.52,0.37c-0.105,0.049-0.219,0.073-0.337,0.073
		c-0.187,0-0.339-0.063-0.46-0.191c-0.12-0.127-0.18-0.295-0.18-0.502c0-0.132,0.029-0.244,0.088-0.34
		c0.08-0.134,0.22-0.26,0.418-0.377c0.198-0.117,0.529-0.261,0.991-0.428v-0.105c0-0.269-0.043-0.453-0.128-0.554
		c-0.085-0.1-0.208-0.148-0.372-0.148c-0.124,0-0.221,0.032-0.294,0.099c-0.074,0.067-0.111,0.144-0.111,0.229l0.006,0.17
		c0,0.091-0.023,0.16-0.069,0.208c-0.046,0.05-0.106,0.074-0.18,0.074c-0.072,0-0.132-0.025-0.177-0.076
		c-0.046-0.052-0.069-0.12-0.069-0.209c0-0.168,0.086-0.322,0.258-0.464c0.172-0.141,0.414-0.212,0.726-0.212
		c0.239,0,0.435,0.041,0.587,0.121c0.116,0.061,0.201,0.155,0.256,0.285c0.035,0.084,0.053,0.256,0.053,0.517v0.913
		c0,0.257,0.005,0.413,0.015,0.473c0.01,0.057,0.026,0.095,0.048,0.115c0.022,0.019,0.049,0.029,0.078,0.029
		c0.032,0,0.059-0.007,0.083-0.021c0.041-0.024,0.121-0.097,0.238-0.214v0.165c-0.219,0.293-0.429,0.44-0.629,0.44
		c-0.095,0-0.171-0.034-0.229-0.1C51.812,29.338,51.783,29.223,51.781,29.063z M51.781,28.872v-1.024
		c-0.296,0.117-0.486,0.2-0.573,0.249c-0.154,0.087-0.265,0.176-0.332,0.271c-0.066,0.094-0.1,0.196-0.1,0.308
		c0,0.142,0.042,0.259,0.126,0.352c0.084,0.094,0.181,0.14,0.291,0.14C51.342,29.166,51.538,29.067,51.781,28.872z"/>
	<path fill="#D13239" d="M54.826,29.148c-0.131,0.137-0.259,0.235-0.385,0.295s-0.26,0.089-0.405,0.089
		c-0.294,0-0.55-0.122-0.769-0.367c-0.22-0.246-0.33-0.562-0.33-0.948c0-0.385,0.121-0.738,0.364-1.059
		c0.243-0.319,0.555-0.479,0.937-0.479c0.237,0,0.433,0.075,0.587,0.226v-0.496c0-0.307-0.007-0.496-0.022-0.566
		c-0.015-0.071-0.037-0.118-0.069-0.145c-0.032-0.025-0.07-0.038-0.118-0.038c-0.051,0-0.119,0.017-0.203,0.048l-0.038-0.104
		l0.801-0.329h0.132v3.111c0,0.313,0.007,0.507,0.022,0.576c0.014,0.069,0.038,0.118,0.07,0.146c0.032,0.026,0.07,0.041,0.113,0.041
		c0.053,0,0.124-0.018,0.211-0.05l0.033,0.103l-0.799,0.331h-0.135V29.148z M54.826,28.942v-1.386
		c-0.011-0.133-0.046-0.255-0.105-0.364c-0.059-0.109-0.137-0.192-0.233-0.248c-0.097-0.056-0.191-0.083-0.283-0.083
		c-0.172,0-0.326,0.077-0.461,0.23c-0.178,0.204-0.267,0.502-0.267,0.894c0,0.396,0.086,0.698,0.258,0.908
		c0.172,0.211,0.364,0.316,0.576,0.316C54.488,29.21,54.66,29.12,54.826,28.942z"/>
	<path fill="#D13239" d="M60.006,25.377v1.378h-0.108c-0.035-0.265-0.098-0.475-0.189-0.632c-0.091-0.155-0.221-0.28-0.389-0.373
		c-0.168-0.092-0.343-0.138-0.523-0.138c-0.204,0-0.372,0.062-0.505,0.187c-0.133,0.125-0.2,0.266-0.2,0.424
		c0,0.122,0.042,0.232,0.126,0.332c0.122,0.147,0.41,0.343,0.867,0.588c0.372,0.199,0.625,0.354,0.762,0.46
		c0.136,0.106,0.241,0.232,0.314,0.377c0.073,0.145,0.11,0.297,0.11,0.455c0,0.302-0.117,0.562-0.351,0.78
		c-0.234,0.219-0.535,0.327-0.903,0.327c-0.115,0-0.224-0.01-0.326-0.027c-0.062-0.01-0.187-0.045-0.377-0.106
		c-0.191-0.062-0.312-0.093-0.363-0.093c-0.049,0-0.087,0.015-0.115,0.044c-0.029,0.029-0.049,0.091-0.063,0.183h-0.109v-1.365
		h0.109c0.05,0.285,0.119,0.498,0.205,0.641c0.086,0.143,0.218,0.26,0.396,0.354c0.177,0.094,0.372,0.141,0.583,0.141
		c0.245,0,0.438-0.064,0.58-0.193c0.142-0.13,0.213-0.282,0.213-0.458c0-0.099-0.027-0.197-0.081-0.297s-0.138-0.193-0.25-0.279
		c-0.077-0.06-0.286-0.183-0.626-0.374c-0.341-0.19-0.583-0.343-0.727-0.457c-0.144-0.113-0.253-0.238-0.328-0.375
		c-0.074-0.138-0.111-0.288-0.111-0.453c0-0.286,0.11-0.531,0.329-0.738c0.219-0.206,0.498-0.311,0.837-0.311
		c0.211,0,0.436,0.053,0.672,0.156c0.11,0.049,0.187,0.073,0.232,0.073c0.051,0,0.092-0.016,0.125-0.045
		c0.032-0.031,0.059-0.092,0.078-0.185H60.006z"/>
	<path fill="#D13239" d="M61.581,27.254c0.196-0.195,0.312-0.309,0.346-0.337c0.089-0.075,0.184-0.133,0.285-0.174
		c0.102-0.041,0.203-0.062,0.302-0.062c0.169,0,0.313,0.05,0.436,0.147c0.121,0.098,0.202,0.24,0.243,0.426
		c0.202-0.234,0.372-0.39,0.511-0.462c0.139-0.073,0.282-0.111,0.429-0.111c0.143,0,0.27,0.038,0.38,0.111
		c0.111,0.072,0.199,0.192,0.263,0.359c0.043,0.113,0.064,0.292,0.064,0.534v1.158c0,0.167,0.013,0.283,0.038,0.347
		c0.02,0.042,0.056,0.078,0.109,0.109c0.053,0.03,0.139,0.045,0.258,0.045v0.105h-1.327v-0.105h0.056
		c0.115,0,0.206-0.022,0.27-0.066c0.045-0.032,0.078-0.082,0.097-0.151c0.008-0.032,0.011-0.127,0.011-0.283v-1.158
		c0-0.219-0.026-0.373-0.079-0.464c-0.076-0.125-0.199-0.188-0.367-0.188c-0.104,0-0.208,0.025-0.312,0.077
		c-0.104,0.053-0.231,0.148-0.38,0.29l-0.006,0.032l0.006,0.126v1.284c0,0.184,0.01,0.297,0.031,0.343s0.06,0.082,0.116,0.113
		c0.057,0.03,0.154,0.045,0.291,0.045v0.105h-1.36v-0.105c0.148,0,0.251-0.017,0.307-0.053c0.056-0.035,0.095-0.088,0.116-0.158
		c0.009-0.033,0.015-0.131,0.015-0.29v-1.158c0-0.219-0.032-0.376-0.097-0.473c-0.086-0.126-0.207-0.188-0.361-0.188
		c-0.105,0-0.21,0.028-0.314,0.085c-0.163,0.086-0.288,0.183-0.376,0.291v1.442c0,0.176,0.012,0.29,0.037,0.343
		c0.025,0.053,0.061,0.092,0.109,0.119c0.048,0.025,0.146,0.039,0.292,0.039v0.105h-1.33v-0.105c0.124,0,0.209-0.014,0.258-0.039
		c0.049-0.027,0.086-0.069,0.112-0.126c0.025-0.059,0.038-0.17,0.038-0.336v-1.029c0-0.295-0.009-0.486-0.026-0.572
		c-0.014-0.064-0.035-0.109-0.065-0.134c-0.029-0.024-0.069-0.036-0.12-0.036c-0.055,0-0.121,0.015-0.197,0.043l-0.044-0.105
		l0.811-0.329h0.126V27.254z"/>
	<path fill="#D13239" d="M66.984,29.063c-0.276,0.213-0.45,0.336-0.52,0.37c-0.106,0.049-0.218,0.073-0.337,0.073
		c-0.187,0-0.339-0.063-0.46-0.191c-0.12-0.127-0.18-0.295-0.18-0.502c0-0.132,0.029-0.244,0.088-0.34
		c0.08-0.134,0.22-0.26,0.418-0.377c0.198-0.117,0.529-0.261,0.991-0.428v-0.105c0-0.269-0.043-0.453-0.128-0.554
		c-0.085-0.1-0.208-0.148-0.371-0.148c-0.124,0-0.222,0.032-0.294,0.099c-0.075,0.067-0.112,0.144-0.112,0.229l0.006,0.17
		c0,0.091-0.023,0.16-0.069,0.208c-0.046,0.05-0.106,0.074-0.181,0.074c-0.072,0-0.132-0.025-0.178-0.076
		c-0.046-0.052-0.069-0.12-0.069-0.209c0-0.168,0.086-0.322,0.258-0.464c0.172-0.141,0.414-0.212,0.725-0.212
		c0.239,0,0.435,0.041,0.587,0.121c0.116,0.061,0.201,0.155,0.256,0.285c0.035,0.084,0.053,0.256,0.053,0.517v0.913
		c0,0.257,0.005,0.413,0.015,0.473c0.01,0.057,0.026,0.095,0.049,0.115c0.022,0.019,0.048,0.029,0.078,0.029
		c0.032,0,0.059-0.007,0.083-0.021c0.041-0.024,0.12-0.097,0.237-0.214v0.165c-0.219,0.293-0.429,0.44-0.628,0.44
		c-0.096,0-0.172-0.034-0.229-0.1C67.016,29.338,66.986,29.223,66.984,29.063z M66.984,28.872v-1.024
		c-0.296,0.117-0.486,0.2-0.573,0.249c-0.155,0.087-0.265,0.176-0.332,0.271c-0.066,0.094-0.1,0.196-0.1,0.308
		c0,0.142,0.042,0.259,0.126,0.352c0.084,0.094,0.181,0.14,0.291,0.14C66.546,29.166,66.742,29.067,66.984,28.872z"/>
	<path fill="#D13239" d="M68.917,26.681v0.605c0.225-0.403,0.456-0.605,0.693-0.605c0.107,0,0.197,0.034,0.267,0.1
		c0.07,0.064,0.106,0.141,0.106,0.228c0,0.075-0.026,0.141-0.077,0.193s-0.112,0.08-0.182,0.08c-0.068,0-0.145-0.034-0.23-0.103
		c-0.085-0.067-0.148-0.101-0.189-0.101c-0.035,0-0.073,0.02-0.114,0.059c-0.088,0.081-0.179,0.213-0.273,0.396v1.289
		c0,0.149,0.019,0.262,0.056,0.338c0.026,0.053,0.071,0.097,0.135,0.132c0.064,0.036,0.158,0.053,0.279,0.053v0.105h-1.378v-0.105
		c0.137,0,0.239-0.021,0.306-0.064c0.049-0.031,0.083-0.081,0.104-0.15c0.009-0.032,0.014-0.128,0.014-0.284v-1.042
		c0-0.314-0.006-0.501-0.019-0.56c-0.013-0.06-0.036-0.104-0.071-0.131c-0.034-0.027-0.077-0.041-0.127-0.041
		c-0.061,0-0.129,0.015-0.206,0.043L67.98,27.01l0.813-0.329H68.917z"/>
	<path fill="#D13239" d="M70.914,25.877v0.884h0.628v0.206h-0.628v1.743c0,0.175,0.025,0.292,0.075,0.354
		c0.049,0.06,0.114,0.09,0.192,0.09c0.064,0,0.127-0.02,0.188-0.059c0.061-0.041,0.107-0.1,0.141-0.179h0.114
		c-0.069,0.191-0.166,0.337-0.291,0.433c-0.125,0.099-0.255,0.146-0.388,0.146c-0.09,0-0.178-0.024-0.264-0.074
		s-0.15-0.121-0.191-0.214c-0.041-0.094-0.062-0.237-0.062-0.432v-1.808h-0.426v-0.098c0.107-0.043,0.218-0.116,0.331-0.219
		c0.112-0.103,0.213-0.225,0.301-0.365c0.045-0.074,0.107-0.211,0.188-0.408H70.914z"/>
	<path fill="#D13239" d="M75.876,25.377v1.378h-0.109c-0.035-0.265-0.098-0.475-0.188-0.632c-0.091-0.155-0.221-0.28-0.389-0.373
		c-0.168-0.092-0.343-0.138-0.523-0.138c-0.204,0-0.372,0.062-0.505,0.187c-0.133,0.125-0.199,0.266-0.199,0.424
		c0,0.122,0.042,0.232,0.126,0.332c0.122,0.147,0.411,0.343,0.867,0.588c0.372,0.199,0.625,0.354,0.762,0.46
		s0.241,0.232,0.314,0.377c0.073,0.145,0.11,0.297,0.11,0.455c0,0.302-0.117,0.562-0.351,0.78c-0.234,0.219-0.536,0.327-0.903,0.327
		c-0.115,0-0.224-0.01-0.326-0.027c-0.061-0.01-0.187-0.045-0.377-0.106c-0.191-0.062-0.312-0.093-0.363-0.093
		c-0.049,0-0.088,0.015-0.116,0.044c-0.029,0.029-0.05,0.091-0.063,0.183h-0.108v-1.365h0.108c0.051,0.285,0.12,0.498,0.206,0.641
		s0.217,0.26,0.396,0.354c0.176,0.094,0.371,0.141,0.582,0.141c0.246,0,0.438-0.064,0.58-0.193c0.142-0.13,0.213-0.282,0.213-0.458
		c0-0.099-0.027-0.197-0.081-0.297c-0.055-0.1-0.138-0.193-0.251-0.279c-0.077-0.06-0.285-0.183-0.626-0.374
		c-0.34-0.19-0.583-0.343-0.727-0.457c-0.144-0.113-0.253-0.238-0.328-0.375c-0.074-0.138-0.111-0.288-0.111-0.453
		c0-0.286,0.11-0.531,0.329-0.738c0.219-0.206,0.498-0.311,0.837-0.311c0.212,0,0.436,0.053,0.672,0.156
		c0.11,0.049,0.187,0.073,0.232,0.073c0.051,0,0.093-0.016,0.125-0.045c0.032-0.031,0.058-0.092,0.077-0.185H75.876z"/>
	<path fill="#D13239" d="M76.499,26.761h1.254v0.108h-0.062c-0.089,0-0.154,0.02-0.198,0.059c-0.044,0.037-0.066,0.085-0.066,0.142
		c0,0.076,0.032,0.182,0.097,0.317l0.655,1.355l0.603-1.485c0.033-0.08,0.05-0.159,0.05-0.237c0-0.035-0.008-0.062-0.021-0.08
		c-0.015-0.021-0.04-0.039-0.073-0.051c-0.032-0.013-0.092-0.02-0.176-0.02v-0.108h0.875v0.108
		c-0.072,0.009-0.128,0.023-0.168,0.048c-0.038,0.022-0.082,0.067-0.129,0.132c-0.018,0.027-0.051,0.103-0.1,0.226l-1.095,2.685
		c-0.106,0.26-0.245,0.457-0.416,0.59c-0.172,0.134-0.337,0.2-0.494,0.2c-0.116,0-0.211-0.034-0.286-0.101
		c-0.074-0.066-0.111-0.143-0.111-0.229c0-0.083,0.027-0.148,0.081-0.198c0.055-0.05,0.127-0.075,0.222-0.075
		c0.064,0,0.153,0.021,0.265,0.065c0.078,0.029,0.127,0.044,0.146,0.044c0.059,0,0.123-0.03,0.192-0.092
		c0.069-0.061,0.14-0.178,0.21-0.353l0.191-0.467l-0.967-2.028c-0.029-0.062-0.076-0.137-0.141-0.227
		c-0.049-0.068-0.09-0.114-0.121-0.138c-0.044-0.031-0.117-0.06-0.217-0.083V26.761z"/>
	<path fill="#D13239" d="M81.397,26.681v0.917H81.3c-0.073-0.288-0.169-0.483-0.286-0.588c-0.116-0.103-0.265-0.155-0.444-0.155
		c-0.138,0-0.248,0.036-0.332,0.109c-0.084,0.072-0.126,0.151-0.126,0.24c0,0.109,0.031,0.204,0.095,0.281
		c0.06,0.081,0.184,0.166,0.369,0.257l0.429,0.208c0.397,0.194,0.596,0.449,0.596,0.767c0,0.244-0.093,0.441-0.276,0.592
		c-0.186,0.149-0.393,0.224-0.622,0.224c-0.164,0-0.353-0.028-0.564-0.088c-0.064-0.019-0.117-0.028-0.158-0.028
		c-0.045,0-0.08,0.024-0.105,0.075h-0.098v-0.96h0.098c0.055,0.274,0.16,0.48,0.313,0.62c0.155,0.139,0.328,0.208,0.521,0.208
		c0.136,0,0.245-0.039,0.33-0.119c0.086-0.079,0.129-0.174,0.129-0.286c0-0.135-0.048-0.249-0.144-0.341
		c-0.094-0.092-0.284-0.209-0.567-0.349c-0.284-0.142-0.471-0.269-0.559-0.382c-0.088-0.111-0.132-0.253-0.132-0.423
		c0-0.222,0.076-0.406,0.228-0.556s0.348-0.224,0.588-0.224c0.105,0,0.235,0.022,0.386,0.068c0.1,0.029,0.166,0.044,0.2,0.044
		c0.03,0,0.056-0.007,0.072-0.021c0.018-0.014,0.039-0.044,0.062-0.092H81.397z"/>
	<path fill="#D13239" d="M82.781,25.877v0.884h0.627v0.206h-0.627v1.743c0,0.175,0.024,0.292,0.074,0.354
		c0.05,0.06,0.114,0.09,0.192,0.09c0.064,0,0.127-0.02,0.188-0.059c0.062-0.041,0.108-0.1,0.142-0.179h0.114
		c-0.068,0.191-0.166,0.337-0.29,0.433c-0.126,0.099-0.255,0.146-0.389,0.146c-0.09,0-0.178-0.024-0.264-0.074
		s-0.15-0.121-0.191-0.214c-0.041-0.094-0.062-0.237-0.062-0.432v-1.808H81.87v-0.098c0.107-0.043,0.218-0.116,0.33-0.219
		s0.213-0.225,0.302-0.365c0.044-0.074,0.107-0.211,0.188-0.408H82.781z"/>
	<path fill="#D13239" d="M84.122,27.774c-0.002,0.399,0.095,0.713,0.291,0.939s0.426,0.341,0.69,0.341
		c0.176,0,0.329-0.049,0.459-0.146c0.131-0.097,0.24-0.264,0.328-0.498l0.091,0.06c-0.041,0.268-0.16,0.512-0.358,0.732
		c-0.198,0.22-0.445,0.329-0.743,0.329c-0.323,0-0.6-0.125-0.829-0.377c-0.23-0.251-0.346-0.59-0.346-1.014
		c0-0.461,0.118-0.819,0.354-1.076c0.236-0.258,0.533-0.387,0.889-0.387c0.302,0,0.55,0.1,0.743,0.298s0.291,0.465,0.291,0.798
		H84.122z M84.122,27.604h1.246c-0.01-0.172-0.031-0.294-0.062-0.364c-0.048-0.11-0.122-0.195-0.219-0.259
		c-0.097-0.062-0.198-0.093-0.304-0.093c-0.163,0-0.309,0.062-0.436,0.188C84.219,27.203,84.145,27.379,84.122,27.604z"/>
	<path fill="#D13239" d="M87.139,27.254c0.195-0.195,0.311-0.309,0.347-0.337c0.088-0.075,0.183-0.133,0.284-0.174
		s0.203-0.062,0.303-0.062c0.169,0,0.313,0.05,0.435,0.147s0.202,0.24,0.243,0.426c0.202-0.234,0.372-0.39,0.512-0.462
		c0.139-0.073,0.282-0.111,0.429-0.111c0.143,0,0.27,0.038,0.38,0.111c0.11,0.072,0.199,0.192,0.263,0.359
		c0.044,0.113,0.064,0.292,0.064,0.534v1.158c0,0.167,0.014,0.283,0.039,0.347c0.02,0.042,0.056,0.078,0.108,0.109
		c0.053,0.03,0.139,0.045,0.259,0.045v0.105h-1.328v-0.105h0.056c0.116,0,0.206-0.022,0.271-0.066
		c0.046-0.032,0.077-0.082,0.098-0.151c0.007-0.032,0.011-0.127,0.011-0.283v-1.158c0-0.219-0.025-0.373-0.079-0.464
		c-0.076-0.125-0.198-0.188-0.366-0.188c-0.104,0-0.209,0.025-0.313,0.077c-0.104,0.053-0.231,0.148-0.381,0.29l-0.005,0.032
		l0.005,0.126v1.284c0,0.184,0.011,0.297,0.031,0.343s0.06,0.082,0.116,0.113c0.057,0.03,0.153,0.045,0.291,0.045v0.105h-1.36
		v-0.105c0.149,0,0.252-0.017,0.308-0.053c0.056-0.035,0.095-0.088,0.116-0.158c0.01-0.033,0.015-0.131,0.015-0.29v-1.158
		c0-0.219-0.033-0.376-0.098-0.473c-0.086-0.126-0.206-0.188-0.361-0.188c-0.105,0-0.21,0.028-0.313,0.085
		c-0.163,0.086-0.288,0.183-0.376,0.291v1.442c0,0.176,0.013,0.29,0.036,0.343c0.024,0.053,0.061,0.092,0.109,0.119
		c0.048,0.025,0.146,0.039,0.292,0.039v0.105h-1.33v-0.105c0.123,0,0.21-0.014,0.258-0.039c0.049-0.027,0.086-0.069,0.112-0.126
		c0.024-0.059,0.037-0.17,0.037-0.336v-1.029c0-0.295-0.009-0.486-0.025-0.572c-0.015-0.064-0.036-0.109-0.065-0.134
		c-0.028-0.024-0.069-0.036-0.121-0.036c-0.055,0-0.119,0.015-0.195,0.043l-0.044-0.105l0.81-0.329h0.127V27.254z"/>
	<path fill="#D13239" d="M92.757,26.681v0.917h-0.098c-0.073-0.288-0.169-0.483-0.286-0.588c-0.116-0.103-0.265-0.155-0.444-0.155
		c-0.138,0-0.248,0.036-0.333,0.109c-0.083,0.072-0.126,0.151-0.126,0.24c0,0.109,0.031,0.204,0.095,0.281
		c0.061,0.081,0.184,0.166,0.369,0.257l0.43,0.208c0.397,0.194,0.596,0.449,0.596,0.767c0,0.244-0.093,0.441-0.278,0.592
		c-0.184,0.149-0.392,0.224-0.621,0.224c-0.163,0-0.352-0.028-0.563-0.088c-0.064-0.019-0.117-0.028-0.158-0.028
		c-0.045,0-0.08,0.024-0.105,0.075h-0.097v-0.96h0.097c0.055,0.274,0.159,0.48,0.314,0.62c0.154,0.139,0.327,0.208,0.52,0.208
		c0.135,0,0.245-0.039,0.33-0.119c0.085-0.079,0.128-0.174,0.128-0.286c0-0.135-0.048-0.249-0.144-0.341
		c-0.094-0.092-0.283-0.209-0.567-0.349c-0.284-0.142-0.47-0.269-0.558-0.382c-0.088-0.111-0.133-0.253-0.133-0.423
		c0-0.222,0.076-0.406,0.228-0.556c0.152-0.149,0.349-0.224,0.59-0.224c0.105,0,0.233,0.022,0.384,0.068
		c0.1,0.029,0.166,0.044,0.2,0.044c0.031,0,0.056-0.007,0.073-0.021s0.038-0.044,0.062-0.092H92.757z"/>
</g>
<path fill="#D13239" d="M29.325,19.267l-3.418-3.418l-2.763,2.764l-1.826,1.825l0,0h1.272c-0.367,0.811-0.882,1.557-1.536,2.21
	c-1.33,1.33-3.098,2.104-4.98,2.18c-1.993,0.081-3.899-0.62-5.366-1.974S8.39,19.658,8.31,17.664
	c-0.085-2.109,0.69-4.093,2.185-5.587c1.329-1.329,3.098-2.104,4.979-2.179c1.008-0.041,1.994,0.12,2.913,0.461l-4.638,4.637
	l-1.049-1.048l0,0v6.489h6.49l0,0l-1.048-1.048l4.636-4.637l2.673-2.672h0c0,0,0-0.001,0-0.002c1.205-1.205,1.211-3.155,0.02-4.369
	c-0.008-0.007-0.013-0.015-0.021-0.022c-0.014-0.014-0.03-0.025-0.043-0.039c-0.728-0.721-1.534-1.361-2.405-1.904
	c-2.25-1.402-4.929-2.168-7.777-2.053C11.648,3.835,8.447,5.34,6.102,7.685c-2.607,2.608-4.16,6.253-3.999,10.229
	c0.304,7.55,6.671,13.425,14.222,13.119c3.575-0.143,6.776-1.647,9.122-3.993c1.788-1.788,3.08-4.065,3.663-6.603h1.386l0,0
	L29.325,19.267z"/>
</svg>
