<?xml version="1.0" encoding="utf-8"?>
<!-- Generator: Adobe Illustrator 16.0.0, SVG Export Plug-In . SVG Version: 6.00 Build 0)  -->
<!DOCTYPE svg PUBLIC "-//W3C//DTD SVG 1.1//EN" "http://www.w3.org/Graphics/SVG/1.1/DTD/svg11.dtd">
<svg version="1.1" id="Layer_1" xmlns="http://www.w3.org/2000/svg" xmlns:xlink="http://www.w3.org/1999/xlink" x="0px" y="0px"
	 width="150px" height="35px" viewBox="0 0 150 35" enable-background="new 0 0 150 35" xml:space="preserve">
<g>
	<path d="M53.528,11.056v4.886c0,0.807,0.044,1.311,0.133,1.512c0.089,0.202,0.264,0.378,0.524,0.529
		c0.259,0.151,0.611,0.227,1.052,0.227h0.524v0.431h-8.247v-0.431h0.523c0.458,0,0.826-0.082,1.105-0.244
		c0.201-0.108,0.356-0.295,0.465-0.559c0.085-0.186,0.127-0.674,0.127-1.465V5.566c0-0.807-0.042-1.311-0.127-1.512
		c-0.085-0.202-0.258-0.378-0.518-0.53c-0.26-0.151-0.611-0.227-1.053-0.227h-0.523v-0.43h8.247v0.43h-0.524
		c-0.458,0-0.826,0.081-1.105,0.245c-0.202,0.108-0.361,0.294-0.477,0.558c-0.085,0.186-0.128,0.675-0.128,1.465v4.467h5.571V5.566
		c0-0.807-0.042-1.311-0.128-1.512c-0.085-0.202-0.26-0.378-0.522-0.53c-0.265-0.151-0.617-0.227-1.06-0.227h-0.511v-0.43h8.235
		v0.43h-0.512c-0.466,0-0.834,0.081-1.104,0.245c-0.202,0.108-0.361,0.294-0.478,0.558c-0.085,0.186-0.128,0.675-0.128,1.465v10.375
		c0,0.807,0.043,1.311,0.128,1.512c0.086,0.202,0.26,0.378,0.523,0.529s0.616,0.227,1.059,0.227h0.512v0.431h-8.235v-0.431h0.511
		c0.466,0,0.834-0.082,1.105-0.244c0.202-0.108,0.36-0.295,0.477-0.559c0.086-0.186,0.128-0.674,0.128-1.465v-4.886H53.528z"/>
	<path d="M74.743,2.646c2.513-0.093,4.554,0.64,6.123,2.198c1.571,1.559,2.355,3.509,2.355,5.851c0,2-0.585,3.762-1.756,5.281
		C79.915,17.992,77.725,19,74.894,19c-2.837,0-5.031-0.961-6.583-2.885c-1.225-1.52-1.838-3.322-1.838-5.408
		c0-2.342,0.797-4.294,2.391-5.856S72.417,2.553,74.743,2.646z M74.882,3.391c-1.442,0-2.539,0.737-3.291,2.21
		c-0.612,1.21-0.919,2.947-0.919,5.211c0,2.691,0.473,4.68,1.419,5.967c0.659,0.899,1.582,1.349,2.769,1.349
		c0.799,0,1.465-0.193,2-0.58c0.683-0.496,1.214-1.29,1.594-2.379c0.381-1.09,0.569-2.511,0.569-4.263
		c0-2.086-0.193-3.646-0.581-4.682s-0.882-1.766-1.483-2.192C76.358,3.604,75.665,3.391,74.882,3.391z"/>
	<path d="M84.629,2.868h8.143v0.43h-0.407c-0.613,0-1.033,0.064-1.262,0.192c-0.229,0.128-0.392,0.305-0.489,0.529
		c-0.097,0.226-0.146,0.787-0.146,1.686v7.724c0,1.411,0.107,2.346,0.32,2.804c0.213,0.457,0.564,0.837,1.053,1.139
		c0.488,0.303,1.104,0.454,1.85,0.454c0.853,0,1.58-0.191,2.181-0.576c0.601-0.383,1.051-0.913,1.349-1.587
		c0.299-0.676,0.448-1.85,0.448-3.524V5.705c0-0.705-0.074-1.209-0.221-1.512c-0.148-0.303-0.334-0.512-0.559-0.627
		c-0.349-0.179-0.842-0.268-1.478-0.268v-0.43h5.456v0.43h-0.326c-0.442,0-0.811,0.089-1.105,0.268
		c-0.294,0.178-0.508,0.446-0.64,0.802c-0.101,0.248-0.15,0.694-0.15,1.337v5.991c0,1.854-0.122,3.191-0.366,4.013
		c-0.245,0.821-0.84,1.578-1.786,2.268c-0.946,0.69-2.236,1.035-3.873,1.035c-1.365,0-2.419-0.183-3.164-0.547
		c-1.016-0.496-1.732-1.132-2.151-1.908c-0.419-0.774-0.628-1.817-0.628-3.128V5.705c0-0.907-0.051-1.471-0.151-1.692
		c-0.101-0.221-0.275-0.397-0.523-0.529c-0.248-0.131-0.706-0.193-1.373-0.186V2.868z"/>
	<path d="M112.463,2.507l0.128,5.257h-0.477c-0.226-1.318-0.778-2.379-1.657-3.181c-0.88-0.803-1.832-1.204-2.855-1.204
		c-0.791,0-1.418,0.212-1.879,0.634c-0.461,0.423-0.692,0.91-0.692,1.46c0,0.349,0.081,0.66,0.244,0.931
		c0.226,0.364,0.586,0.725,1.082,1.082c0.364,0.256,1.206,0.709,2.524,1.36c1.845,0.907,3.089,1.765,3.733,2.571
		c0.636,0.807,0.954,1.729,0.954,2.768c0,1.318-0.515,2.453-1.542,3.402c-1.027,0.95-2.331,1.425-3.914,1.425
		c-0.496,0-0.965-0.051-1.407-0.15c-0.44-0.102-0.995-0.291-1.663-0.57c-0.372-0.155-0.679-0.232-0.918-0.232
		c-0.202,0-0.416,0.077-0.64,0.232c-0.226,0.154-0.408,0.391-0.548,0.709h-0.43v-5.956h0.43c0.342,1.675,0.999,2.953,1.972,3.833
		c0.974,0.879,2.022,1.319,3.146,1.319c0.868,0,1.561-0.236,2.076-0.709c0.516-0.474,0.772-1.024,0.772-1.651
		c0-0.372-0.098-0.733-0.295-1.083c-0.198-0.348-0.499-0.68-0.901-0.994c-0.404-0.313-1.116-0.722-2.141-1.227
		c-1.435-0.705-2.466-1.306-3.094-1.802s-1.111-1.051-1.448-1.664c-0.338-0.612-0.506-1.287-0.506-2.024
		c0-1.256,0.461-2.326,1.384-3.21c0.922-0.884,2.086-1.326,3.489-1.326c0.512,0,1.008,0.062,1.489,0.186
		c0.364,0.093,0.808,0.266,1.331,0.518s0.891,0.378,1.1,0.378c0.202,0,0.36-0.062,0.478-0.187c0.115-0.124,0.224-0.422,0.325-0.895
		H112.463z"/>
	<path d="M121.012,3.775v6.42h0.314c1.001,0,1.726-0.314,2.175-0.942c0.45-0.627,0.736-1.554,0.86-2.78h0.442v8.259h-0.442
		c-0.092-0.899-0.288-1.636-0.586-2.21c-0.3-0.574-0.646-0.96-1.042-1.157c-0.396-0.198-0.969-0.297-1.722-0.297v4.443
		c0,0.868,0.037,1.4,0.111,1.594c0.073,0.193,0.211,0.353,0.412,0.477c0.202,0.124,0.527,0.187,0.978,0.187h0.942
		c1.473,0,2.654-0.342,3.541-1.023c0.888-0.683,1.525-1.722,1.914-3.118h0.43l-0.709,5.014h-13.633v-0.431h0.524
		c0.457,0,0.825-0.082,1.104-0.244c0.201-0.108,0.356-0.295,0.466-0.559c0.084-0.186,0.128-0.674,0.128-1.465V5.566
		c0-0.713-0.021-1.152-0.059-1.314c-0.078-0.271-0.222-0.48-0.431-0.628c-0.295-0.217-0.697-0.326-1.209-0.326h-0.524v-0.43H128.2
		v4.664h-0.442c-0.225-1.139-0.54-1.958-0.947-2.454s-0.983-0.861-1.728-1.094c-0.435-0.139-1.249-0.209-2.442-0.209H121.012z"/>
</g>
<g>
	<path fill="#D13239" d="M49.975,26.371h3.246c-0.146-0.127-0.239-0.268-0.28-0.417c-0.025-0.1-0.039-0.283-0.039-0.549v-0.904
		c0-0.228-0.012-0.377-0.038-0.448c-0.049-0.14-0.161-0.216-0.337-0.227v-0.05c0.439-0.056,0.822-0.136,1.149-0.24
		c-0.028,0.396-0.042,0.807-0.042,1.233v0.521c0,0.425,0.009,0.684,0.026,0.778c0.051,0.32,0.189,0.516,0.414,0.587l-0.004,0.03
		h-4.61c-0.568,0-0.997-0.054-1.288-0.161c-0.36-0.13-0.572-0.348-0.636-0.652c-0.013-0.063-0.019-0.125-0.019-0.187
		c0-0.31,0.164-0.593,0.491-0.851c0.388-0.31,0.857-0.519,1.406-0.629c0.279-0.056,0.56-0.083,0.843-0.08
		c0.286,0.005,0.552,0.039,0.797,0.104l-0.088,0.793l-0.061,0.004c-0.113-0.284-0.299-0.485-0.56-0.605
		c-0.167-0.072-0.348-0.107-0.544-0.107c-0.117,0-0.24,0.013-0.368,0.038c-0.304,0.059-0.555,0.181-0.75,0.364
		c-0.215,0.199-0.334,0.445-0.356,0.739c-0.003,0.034-0.004,0.065-0.004,0.097c0,0.209,0.062,0.367,0.184,0.475
		c0.146,0.123,0.277,0.199,0.395,0.23C49.205,26.333,49.562,26.371,49.975,26.371z M49.94,22.692c0-0.126,0.043-0.23,0.13-0.316
		c0.087-0.085,0.193-0.128,0.318-0.128c0.128,0,0.234,0.042,0.32,0.126s0.128,0.19,0.128,0.318c0,0.126-0.043,0.229-0.13,0.311
		c-0.086,0.082-0.192,0.123-0.318,0.123c-0.128,0-0.235-0.041-0.32-0.121C49.982,22.925,49.94,22.82,49.94,22.692z M51.07,22.692
		c0-0.126,0.043-0.23,0.13-0.316c0.087-0.085,0.193-0.128,0.318-0.128c0.128,0,0.234,0.042,0.32,0.126
		c0.085,0.084,0.128,0.19,0.128,0.318c0,0.126-0.043,0.229-0.13,0.311c-0.087,0.082-0.193,0.123-0.318,0.123
		c-0.128,0-0.234-0.041-0.32-0.121C51.113,22.925,51.07,22.82,51.07,22.692z"/>
	<path fill="#D13239" d="M55.999,27.058c-0.646-0.371-0.97-0.881-0.97-1.529v-2.756c0-0.222-0.012-0.366-0.035-0.433
		c-0.046-0.133-0.154-0.205-0.326-0.215v-0.05c0.296-0.025,0.628-0.106,0.997-0.241c-0.021,0.371-0.031,0.781-0.031,1.229v2.469
		C55.649,26.102,55.771,26.61,55.999,27.058z M57.018,21.225v4.419c0,0.554-0.133,0.997-0.398,1.329
		c-0.224,0.284-0.6,0.427-1.126,0.427c-0.087,0-0.18-0.005-0.28-0.013c-0.071-0.005-0.177-0.016-0.318-0.034l0.207-0.663h0.038
		c0.033,0.153,0.105,0.282,0.214,0.387c0.079,0.077,0.198,0.114,0.356,0.114c0.057,0,0.121-0.004,0.192-0.015
		c0.22-0.033,0.37-0.216,0.452-0.548c0.046-0.239,0.069-0.569,0.069-0.988c0-0.836,0-1.103,0-0.801v-2.572
		c0-0.272-0.019-0.437-0.058-0.49c-0.043-0.166-0.155-0.255-0.337-0.264v-0.051C56.323,21.424,56.652,21.345,57.018,21.225z"/>
	<path fill="#D13239" d="M57.842,27.731l0.265-0.812h0.046c0.155,0.713,0.538,1.069,1.146,1.069c0.872,0,1.308-0.688,1.308-2.065
		v-0.058c-0.228,0.562-0.669,0.843-1.322,0.843c-0.406,0-0.76-0.105-1.059-0.317c-0.337-0.238-0.506-0.552-0.506-0.943
		c0-0.465,0.178-0.831,0.533-1.1c0.319-0.247,0.72-0.371,1.199-0.371c0.598,0,1.068,0.185,1.41,0.556
		c0.333,0.36,0.498,0.842,0.498,1.444c0,0.649-0.184,1.168-0.551,1.556c-0.379,0.398-0.89,0.598-1.533,0.598
		C58.805,28.13,58.327,27.997,57.842,27.731z M60.517,25.34c0-0.342-0.079-0.624-0.237-0.847c-0.179-0.249-0.432-0.375-0.759-0.375
		c-0.355,0-0.621,0.127-0.797,0.383c-0.153,0.22-0.23,0.517-0.23,0.889c0,0.327,0.083,0.598,0.249,0.809
		c0.187,0.229,0.439,0.342,0.76,0.342c0.318,0,0.573-0.123,0.762-0.368C60.433,25.947,60.517,25.671,60.517,25.34z"/>
	<path fill="#D13239" d="M61.988,26.686l-0.004-0.03c0.212-0.062,0.343-0.234,0.391-0.518c0.019-0.093,0.027-0.329,0.027-0.709
		v-3.25c0-0.223-0.012-0.366-0.035-0.434c-0.046-0.135-0.154-0.208-0.325-0.218v-0.05c0.296-0.025,0.628-0.104,0.996-0.237
		c-0.022,0.35-0.033,0.759-0.03,1.226v3.905h0.544v0.314h-0.82C62.436,26.686,62.188,26.686,61.988,26.686z"/>
	<path fill="#D13239" d="M64.591,26.686h-1.139v-0.314h1.139V26.686z"/>
	<path fill="#D13239" d="M65.629,26.686h-1.138v-0.314h1.138V26.686z"/>
	<path fill="#D13239" d="M66.059,25.076c0-0.465,0.161-0.839,0.486-1.123c0.307-0.269,0.695-0.402,1.169-0.402
		c0.479,0,0.871,0.139,1.172,0.418c0.314,0.283,0.472,0.662,0.472,1.134c0,0.46-0.152,0.835-0.456,1.123
		c-0.059,0.054-0.121,0.103-0.188,0.146h1.084v0.314h-4.269v-0.314h1.173c-0.069-0.046-0.133-0.098-0.191-0.157
		C66.209,25.923,66.059,25.544,66.059,25.076z M66.736,22.516c0-0.125,0.043-0.229,0.13-0.313s0.194-0.127,0.322-0.127
		s0.234,0.042,0.32,0.125c0.085,0.083,0.128,0.188,0.128,0.315c0,0.126-0.044,0.229-0.13,0.311
		c-0.087,0.082-0.193,0.122-0.318,0.122c-0.128,0-0.235-0.039-0.322-0.119C66.779,22.747,66.736,22.645,66.736,22.516z
		 M66.756,25.091c0,0.621,0.144,1.048,0.433,1.28h1.065c0.283-0.234,0.426-0.66,0.426-1.276c0-0.393-0.063-0.713-0.188-0.958
		c-0.163-0.321-0.424-0.483-0.781-0.483c-0.345,0-0.601,0.163-0.767,0.488C66.818,24.394,66.756,24.711,66.756,25.091z
		 M67.867,22.516c0-0.125,0.043-0.229,0.13-0.313s0.192-0.127,0.318-0.127c0.127,0,0.234,0.042,0.321,0.125s0.131,0.188,0.131,0.315
		c0,0.126-0.044,0.229-0.131,0.311c-0.087,0.082-0.194,0.122-0.321,0.122c-0.128,0-0.234-0.039-0.32-0.119
		C67.909,22.747,67.867,22.645,67.867,22.516z"/>
	<path fill="#D13239" d="M73.438,26.371h0.637v0.314h-0.824c-0.047,0.059-0.096,0.113-0.149,0.165
		c-0.307,0.289-0.709,0.434-1.207,0.434c-0.485,0-0.879-0.146-1.18-0.438c-0.054-0.052-0.103-0.104-0.146-0.161h-0.869v-0.314h0.686
		c-0.084-0.199-0.127-0.421-0.127-0.667c0-0.465,0.162-0.84,0.487-1.122c0.307-0.269,0.696-0.402,1.169-0.402
		c0.479,0,0.871,0.138,1.172,0.413c0.314,0.286,0.472,0.666,0.472,1.139C73.558,25.969,73.519,26.183,73.438,26.371z M70.956,25.72
		c0,0.396,0.063,0.718,0.191,0.966c0.163,0.327,0.424,0.49,0.782,0.49c0.35,0,0.605-0.163,0.766-0.49
		c0.125-0.248,0.188-0.568,0.188-0.962c0-0.396-0.062-0.716-0.188-0.958c-0.165-0.322-0.428-0.483-0.785-0.483
		c-0.346,0-0.6,0.163-0.763,0.487C71.02,25.022,70.956,25.34,70.956,25.72z"/>
	<path fill="#D13239" d="M75.252,26.371h0.391v0.314h-1.667v-0.314h0.67v-4.192c0-0.223-0.011-0.366-0.033-0.434
		c-0.046-0.135-0.154-0.208-0.322-0.218v-0.05c0.294-0.025,0.626-0.104,0.996-0.237c-0.023,0.353-0.034,0.762-0.034,1.226V26.371z"
		/>
	<path fill="#D13239" d="M75.535,26.371h0.893c-0.188-0.107-0.283-0.336-0.283-0.686v-3.507c0-0.223-0.012-0.366-0.034-0.434
		c-0.047-0.135-0.153-0.208-0.322-0.218v-0.05c0.293-0.025,0.624-0.104,0.993-0.237c-0.023,0.36-0.035,0.77-0.035,1.226v2.939
		c0,0.291,0.016,0.53,0.047,0.717c0.045,0.289,0.164,0.477,0.356,0.563h-1.614V26.371z"/>
	<path fill="#D13239" d="M84.916,24.647c0.7,0,1.047,0.364,1.039,1.095c-0.003,0.42,0.143,0.629,0.437,0.629h0.2v0.314h-0.296
		c-0.715,0-1.072-0.302-1.072-0.905v-0.336c0-0.325-0.197-0.487-0.59-0.487h-0.277c0.148,0.18,0.221,0.44,0.219,0.785
		c-0.005,0.512,0.143,0.814,0.44,0.913c0.039,0.01,0.038,0.021-0.003,0.03h-4.579c-0.568,0-0.997-0.072-1.289-0.218
		c-0.374-0.185-0.587-0.48-0.636-0.886c-0.013-0.098-0.02-0.19-0.02-0.279c0-0.486,0.168-0.865,0.503-1.139
		c0.383-0.316,0.755-0.503,1.115-0.556c0.575,0.013,0.984,0.061,1.229,0.146l-0.088,1.081l-0.062,0.007
		c-0.112-0.429-0.282-0.713-0.509-0.854c-0.151-0.089-0.305-0.133-0.461-0.133c-0.081,0-0.165,0.012-0.249,0.037
		c-0.24,0.074-0.438,0.254-0.594,0.54c-0.137,0.253-0.207,0.482-0.207,0.687c0,0.248,0.07,0.474,0.207,0.678
		c0.11,0.171,0.271,0.314,0.482,0.43c0.175,0.098,0.537,0.146,1.089,0.146h3.215c-0.215-0.187-0.321-0.384-0.321-0.591v-0.336
		c0-0.325-0.196-0.487-0.59-0.487h-0.123l0.173-0.31H84.916z M81.271,27.472c0-0.126,0.044-0.23,0.131-0.316
		c0.087-0.087,0.192-0.129,0.318-0.129c0.128,0,0.234,0.042,0.322,0.127c0.086,0.084,0.13,0.19,0.13,0.318
		c0,0.124-0.044,0.228-0.13,0.31c-0.088,0.082-0.194,0.122-0.322,0.122s-0.235-0.039-0.32-0.12
		C81.314,27.702,81.271,27.599,81.271,27.472z M82.311,27.472c0-0.126,0.043-0.23,0.131-0.316c0.087-0.087,0.192-0.129,0.317-0.129
		c0.128,0,0.234,0.042,0.319,0.127c0.087,0.084,0.129,0.19,0.129,0.318c0,0.124-0.043,0.228-0.13,0.31s-0.192,0.122-0.318,0.122
		c-0.128,0-0.234-0.039-0.319-0.12C82.354,27.702,82.311,27.599,82.311,27.472z"/>
	<path fill="#D13239" d="M86.491,26.686v-0.314h0.338c0.309-0.051,0.5-0.2,0.574-0.448c0.033-0.109,0.05-0.378,0.05-0.805v-0.283
		c0-0.481-0.126-0.762-0.379-0.843v-0.051c0.196,0.014,0.421,0.02,0.674,0.02c0.286,0,0.52-0.006,0.697-0.02l0.005,0.051
		c-0.169,0.051-0.28,0.174-0.333,0.371c-0.036,0.112-0.055,0.289-0.055,0.529v0.237c0,0.012,0,0.038,0,0.076
		c0,0.031,0,0.057,0,0.076c0.011,0.292,0.067,0.532,0.172,0.721c0.134,0.246,0.332,0.368,0.595,0.368
		c0.044,0,0.09-0.002,0.138-0.008c0.307-0.046,0.497-0.194,0.571-0.444c0.033-0.104,0.05-0.371,0.05-0.801v-0.283
		c0-0.481-0.127-0.762-0.379-0.843v-0.051c0.196,0.014,0.423,0.02,0.678,0.02c0.284,0,0.516-0.006,0.694-0.02l0.003,0.051
		c-0.168,0.051-0.279,0.174-0.333,0.371c-0.036,0.112-0.054,0.289-0.054,0.529v0.237c0,0.128-0.005,0.246-0.016,0.355
		c0.079,0.593,0.331,0.889,0.755,0.886c0.041,0,0.085-0.002,0.13-0.008c0.31-0.046,0.502-0.194,0.575-0.444
		c0.033-0.104,0.051-0.371,0.051-0.801v-0.283c0-0.481-0.127-0.762-0.38-0.843v-0.051c0.197,0.014,0.422,0.02,0.675,0.02
		c0.286,0,0.519-0.006,0.697-0.02l0.003,0.051c-0.168,0.051-0.28,0.174-0.336,0.371c-0.033,0.112-0.051,0.289-0.051,0.529v0.237
		c0,0.544-0.098,0.943-0.295,1.195c-0.209,0.268-0.517,0.395-0.924,0.379c-0.487-0.018-0.81-0.297-0.965-0.839
		c-0.049,0.188-0.12,0.34-0.215,0.46c-0.207,0.268-0.516,0.395-0.924,0.379c-0.508-0.018-0.837-0.312-0.984-0.881
		c-0.049,0.204-0.124,0.372-0.227,0.502c-0.187,0.239-0.494,0.36-0.923,0.36H86.491z"/>
	<path fill="#D13239" d="M96.103,26.371h0.947v0.314h-3.377c-0.225,0-0.354-0.17-0.391-0.51c0.12,0.13,0.236,0.195,0.349,0.195
		h1.545c0.429,0,0.666-0.295,0.713-0.886c-0.031-0.398-0.124-0.766-0.279-1.104c-0.208-0.456-0.479-0.686-0.812-0.686
		c-0.108,0-0.219,0.04-0.332,0.119c-0.114,0.079-0.194,0.169-0.24,0.268c-0.051,0.11-0.076,0.233-0.076,0.369
		c0,0.155,0.027,0.268,0.08,0.336c0.098,0.128,0.148,0.196,0.153,0.204c-0.01,0.013-0.053,0.022-0.126,0.03
		c-0.095-0.003-0.181-0.004-0.26-0.004c-0.136,0-0.367,0.008-0.695,0.023v-0.05c0.118-0.034,0.199-0.081,0.242-0.143
		s0.065-0.154,0.065-0.28v-0.141c0-0.115-0.005-0.231-0.012-0.35c0.332-0.337,0.742-0.505,1.229-0.505
		c0.482,0,0.897,0.193,1.242,0.582c0.335,0.373,0.502,0.802,0.502,1.288C96.57,25.827,96.414,26.137,96.103,26.371z"/>
	<path fill="#D13239" d="M98.092,26.686h-1.139v-0.314h1.139V26.686z"/>
	<path fill="#D13239" d="M99.131,26.686h-1.139v-0.314h1.139V26.686z"/>
	<path fill="#D13239" d="M101.027,26.371h0.494v0.314h-2.49v-0.314h1.261v-1.87c0-0.228-0.013-0.377-0.038-0.448
		c-0.047-0.14-0.158-0.216-0.334-0.227v-0.05c0.438-0.056,0.822-0.136,1.149-0.24c-0.027,0.396-0.042,0.807-0.042,1.233V26.371z
		 M99.342,22.692c0-0.126,0.043-0.23,0.13-0.316c0.087-0.085,0.192-0.128,0.317-0.128c0.129,0,0.235,0.042,0.32,0.126
		c0.086,0.084,0.129,0.19,0.129,0.318c0,0.126-0.044,0.229-0.131,0.311s-0.192,0.123-0.318,0.123c-0.128,0-0.234-0.041-0.319-0.121
		C99.384,22.925,99.342,22.82,99.342,22.692z"/>
	<path fill="#D13239" d="M106.568,26.371h0.882v0.314h-6.04v-0.314h1.25c-0.394-0.253-0.591-0.609-0.591-1.068
		c0-0.392,0.159-0.707,0.476-0.947c0.278-0.21,0.622-0.325,1.03-0.349l-0.054-0.663c0.246-0.082,0.511-0.126,0.798-0.134
		c0.283-0.005,0.564,0.03,0.843,0.106c0.549,0.153,1.019,0.438,1.41,0.855c0.325,0.35,0.486,0.734,0.486,1.153
		c0,0.084-0.006,0.17-0.019,0.257C106.986,25.927,106.829,26.189,106.568,26.371z M103.157,26.371h1.15
		c0.258-0.206,0.387-0.557,0.387-1.05c0-0.78-0.298-1.188-0.894-1.227c-0.051,0.1-0.094,0.214-0.13,0.342l-0.061-0.013l-0.023-0.321
		c-0.286,0.034-0.499,0.177-0.64,0.43c-0.118,0.207-0.177,0.467-0.177,0.781C102.771,25.814,102.9,26.167,103.157,26.371z
		 M104.787,26.367c0.416-0.012,0.717-0.07,0.904-0.172c0.212-0.117,0.364-0.256,0.456-0.415c0.074-0.129,0.11-0.322,0.11-0.577
		c0-0.059-0.002-0.123-0.008-0.192c-0.021-0.36-0.123-0.673-0.307-0.939c-0.198-0.28-0.466-0.467-0.801-0.559
		c-0.125-0.036-0.245-0.054-0.36-0.054c-0.4,0-0.711,0.183-0.931,0.548c0.419,0.021,0.768,0.137,1.046,0.349
		c0.314,0.24,0.472,0.562,0.472,0.966C105.369,25.771,105.176,26.119,104.787,26.367z"/>
	<path fill="#D13239" d="M107.346,26.371h0.894c-0.188-0.107-0.283-0.336-0.283-0.686v-3.507c0-0.223-0.012-0.366-0.035-0.434
		c-0.046-0.135-0.152-0.208-0.322-0.218v-0.05c0.295-0.025,0.625-0.104,0.993-0.237c-0.022,0.36-0.034,0.77-0.034,1.226v2.939
		c0,0.291,0.015,0.53,0.046,0.717c0.046,0.289,0.165,0.477,0.356,0.563h-1.614V26.371z"/>
	<path fill="#D13239" d="M109.416,26.704l-0.004-0.049c0.212-0.062,0.342-0.234,0.391-0.518c0.019-0.093,0.027-0.329,0.027-0.709
		v-3.25c0-0.223-0.012-0.366-0.035-0.434c-0.045-0.135-0.153-0.208-0.325-0.218v-0.05c0.296-0.025,0.628-0.104,0.996-0.237
		c-0.022,0.36-0.033,0.77-0.03,1.226v2.939c0.021,0.411,0.034,0.652,0.042,0.721c0.046,0.296,0.174,0.473,0.387,0.529v0.049
		c-0.242-0.013-0.478-0.019-0.704-0.019C109.863,26.686,109.615,26.691,109.416,26.704z"/>
	<path fill="#D13239" d="M118.452,26.371h0.46v0.314h-4.729c-0.567,0-0.997-0.054-1.287-0.161c-0.361-0.13-0.573-0.348-0.637-0.652
		c-0.013-0.063-0.02-0.125-0.02-0.187c0-0.31,0.163-0.593,0.49-0.851c0.389-0.31,0.858-0.519,1.407-0.629
		c0.278-0.056,0.56-0.083,0.843-0.08c0.286,0.005,0.552,0.039,0.797,0.104l-0.088,0.793l-0.061,0.004
		c-0.114-0.284-0.3-0.485-0.561-0.605c-0.166-0.072-0.348-0.107-0.544-0.107c-0.118,0-0.24,0.013-0.368,0.038
		c-0.304,0.059-0.555,0.181-0.751,0.364c-0.214,0.199-0.333,0.445-0.356,0.739c-0.002,0.034-0.004,0.065-0.004,0.097
		c0,0.209,0.062,0.367,0.185,0.475c0.145,0.123,0.276,0.199,0.395,0.23c0.304,0.076,0.662,0.114,1.073,0.114h3.02v-1.87
		c0-0.228-0.014-0.377-0.039-0.448c-0.048-0.14-0.159-0.216-0.333-0.227v-0.05c0.439-0.056,0.821-0.136,1.146-0.24
		c-0.025,0.396-0.038,0.807-0.038,1.233V26.371z M114.662,22.692c0-0.126,0.044-0.23,0.13-0.316
		c0.087-0.085,0.193-0.128,0.318-0.128c0.128,0,0.234,0.042,0.32,0.126c0.085,0.084,0.128,0.19,0.128,0.318
		c0,0.126-0.044,0.229-0.13,0.311c-0.087,0.082-0.193,0.123-0.318,0.123c-0.127,0-0.234-0.041-0.319-0.121
		S114.662,22.82,114.662,22.692z M115.793,22.692c0-0.126,0.043-0.23,0.13-0.316c0.088-0.085,0.192-0.128,0.318-0.128
		c0.128,0,0.234,0.042,0.319,0.126c0.086,0.084,0.129,0.19,0.129,0.318c0,0.126-0.044,0.229-0.131,0.311s-0.192,0.123-0.317,0.123
		c-0.128,0-0.234-0.041-0.32-0.121C115.836,22.925,115.793,22.82,115.793,22.692z"/>
	<path fill="#D13239" d="M119.943,26.686h-1.138v-0.314h1.138V26.686z"/>
	<path fill="#D13239" d="M120.981,26.686h-1.138v-0.314h1.138V26.686z"/>
	<path fill="#D13239" d="M123.098,26.371h0.528v0.314h-2.744v-0.314h1.483v-1.87c0-0.228-0.013-0.377-0.038-0.448
		c-0.049-0.14-0.161-0.216-0.338-0.227v-0.05c0.439-0.056,0.822-0.136,1.15-0.24c-0.028,0.396-0.042,0.807-0.042,1.233V26.371z
		 M121.146,27.472c0-0.126,0.044-0.23,0.13-0.316c0.087-0.087,0.193-0.129,0.318-0.129c0.128,0,0.234,0.042,0.32,0.127
		c0.086,0.084,0.128,0.19,0.128,0.318c0,0.124-0.044,0.228-0.13,0.31c-0.087,0.082-0.193,0.122-0.318,0.122
		c-0.127,0-0.234-0.039-0.319-0.12C121.189,27.702,121.146,27.599,121.146,27.472z M122.182,27.472c0-0.126,0.043-0.23,0.131-0.316
		c0.086-0.087,0.192-0.129,0.317-0.129c0.128,0,0.234,0.042,0.319,0.127c0.086,0.084,0.129,0.19,0.129,0.318
		c0,0.124-0.044,0.228-0.131,0.31s-0.192,0.122-0.317,0.122c-0.128,0-0.235-0.039-0.32-0.12
		C122.224,27.702,122.182,27.599,122.182,27.472z"/>
	<path fill="#D13239" d="M125.477,26.371h0.434v0.314h-2.399v-0.314h1.229v-1.87c0-0.228-0.012-0.377-0.037-0.448
		c-0.049-0.14-0.16-0.216-0.334-0.227v-0.05c0.439-0.056,0.821-0.136,1.146-0.24c-0.025,0.396-0.039,0.807-0.039,1.233V26.371z
		 M124.059,27.472c0-0.126,0.044-0.23,0.131-0.316c0.087-0.087,0.192-0.129,0.318-0.129c0.127,0,0.233,0.042,0.319,0.127
		c0.086,0.084,0.129,0.19,0.129,0.318c0,0.124-0.043,0.228-0.13,0.31c-0.088,0.082-0.193,0.122-0.318,0.122
		c-0.128,0-0.235-0.039-0.32-0.12C124.102,27.702,124.059,27.599,124.059,27.472z"/>
	<path fill="#D13239" d="M125.807,26.371h0.893c-0.188-0.107-0.283-0.336-0.283-0.686v-3.507c0-0.223-0.012-0.366-0.034-0.434
		c-0.046-0.135-0.153-0.208-0.323-0.218v-0.05c0.295-0.025,0.626-0.104,0.993-0.237c-0.022,0.36-0.034,0.77-0.034,1.226v2.939
		c0,0.291,0.015,0.53,0.046,0.717c0.046,0.289,0.165,0.477,0.356,0.563h-1.613V26.371z"/>
	<path fill="#D13239" d="M127.875,26.704l-0.003-0.049c0.212-0.062,0.342-0.234,0.391-0.518c0.018-0.093,0.027-0.329,0.027-0.709
		v-3.25c0-0.223-0.013-0.366-0.035-0.434c-0.046-0.135-0.154-0.208-0.325-0.218v-0.05c0.297-0.025,0.629-0.104,0.996-0.237
		c-0.022,0.36-0.033,0.77-0.03,1.226v2.939c0.021,0.411,0.034,0.652,0.042,0.721c0.046,0.296,0.175,0.473,0.387,0.529v0.049
		c-0.242-0.013-0.478-0.019-0.705-0.019C128.323,26.686,128.075,26.691,127.875,26.704z"/>
</g>
<g>
	<path fill="#D13239" d="M48.736,31.388h1.993V30.16c0-0.219-0.014-0.363-0.041-0.434c-0.021-0.053-0.065-0.098-0.133-0.136
		c-0.091-0.052-0.187-0.076-0.288-0.076h-0.152v-0.117h1.835v0.117h-0.151c-0.102,0-0.198,0.024-0.288,0.073
		c-0.068,0.033-0.114,0.084-0.138,0.152c-0.024,0.069-0.036,0.209-0.036,0.42v2.769c0,0.217,0.013,0.36,0.041,0.43
		c0.021,0.053,0.064,0.099,0.13,0.136c0.093,0.051,0.19,0.076,0.292,0.076h0.151v0.117h-1.835V33.57h0.152
		c0.175,0,0.303-0.052,0.383-0.155c0.053-0.066,0.079-0.229,0.079-0.486v-1.308h-1.993v1.308c0,0.217,0.014,0.36,0.041,0.43
		c0.021,0.053,0.065,0.099,0.133,0.136c0.09,0.051,0.187,0.076,0.288,0.076h0.155v0.117h-1.838V33.57h0.152
		c0.177,0,0.306-0.052,0.386-0.155c0.051-0.066,0.076-0.229,0.076-0.486V30.16c0-0.219-0.014-0.363-0.042-0.434
		c-0.021-0.053-0.064-0.098-0.13-0.136c-0.093-0.052-0.189-0.076-0.291-0.076h-0.152v-0.117h1.838v0.117h-0.155
		c-0.101,0-0.197,0.024-0.288,0.073c-0.065,0.033-0.111,0.084-0.136,0.152c-0.025,0.069-0.038,0.209-0.038,0.42V31.388z"/>
	<path fill="#D13239" d="M53.704,30.705c0.438,0,0.791,0.166,1.057,0.499c0.226,0.285,0.338,0.611,0.338,0.98
		c0,0.259-0.062,0.522-0.187,0.788c-0.124,0.266-0.295,0.466-0.514,0.601c-0.218,0.136-0.461,0.203-0.729,0.203
		c-0.437,0-0.783-0.175-1.041-0.522c-0.217-0.293-0.326-0.622-0.326-0.986c0-0.266,0.066-0.531,0.198-0.793
		c0.132-0.263,0.306-0.457,0.521-0.582C53.235,30.768,53.463,30.705,53.704,30.705z M53.605,30.91c-0.112,0-0.225,0.033-0.336,0.099
		c-0.113,0.067-0.205,0.184-0.274,0.351c-0.07,0.167-0.104,0.381-0.104,0.643c0,0.421,0.083,0.785,0.251,1.091
		c0.167,0.306,0.389,0.458,0.663,0.458c0.205,0,0.374-0.084,0.506-0.252c0.133-0.169,0.2-0.459,0.2-0.871
		c0-0.514-0.111-0.919-0.333-1.214C54.028,31.011,53.837,30.91,53.605,30.91z"/>
	<path fill="#D13239" d="M58.066,30.79v1.755c0,0.336,0.008,0.541,0.023,0.616c0.016,0.074,0.041,0.127,0.076,0.156
		c0.034,0.029,0.075,0.044,0.121,0.044c0.065,0,0.14-0.018,0.222-0.054l0.044,0.11l-0.866,0.358h-0.143v-0.614
		c-0.249,0.271-0.438,0.439-0.569,0.51c-0.131,0.069-0.269,0.104-0.415,0.104c-0.162,0-0.303-0.047-0.422-0.141
		c-0.12-0.094-0.203-0.215-0.249-0.363c-0.046-0.146-0.069-0.355-0.069-0.626v-1.293c0-0.138-0.015-0.232-0.044-0.285
		s-0.073-0.094-0.131-0.122s-0.163-0.042-0.315-0.039V30.79h1.016v1.939c0,0.27,0.047,0.446,0.141,0.531
		c0.094,0.084,0.208,0.126,0.34,0.126c0.091,0,0.194-0.028,0.308-0.086c0.115-0.056,0.252-0.165,0.41-0.325v-1.642
		c0-0.165-0.03-0.275-0.09-0.334c-0.061-0.058-0.186-0.089-0.375-0.093V30.79H58.066z"/>
	<path fill="#D13239" d="M60.638,30.705v0.986h-0.104c-0.081-0.31-0.184-0.521-0.309-0.633c-0.126-0.112-0.286-0.168-0.479-0.168
		c-0.147,0-0.268,0.039-0.357,0.117c-0.091,0.079-0.137,0.165-0.137,0.26c0,0.118,0.034,0.219,0.102,0.303
		c0.065,0.087,0.198,0.18,0.398,0.275l0.463,0.226c0.428,0.209,0.642,0.483,0.642,0.825c0,0.265-0.1,0.476-0.299,0.638
		c-0.199,0.161-0.423,0.242-0.669,0.242c-0.178,0-0.38-0.032-0.608-0.096c-0.068-0.021-0.126-0.031-0.17-0.031
		c-0.049,0-0.087,0.028-0.114,0.082h-0.104v-1.034h0.104c0.06,0.296,0.172,0.518,0.339,0.667c0.167,0.15,0.353,0.225,0.56,0.225
		c0.146,0,0.264-0.042,0.355-0.128c0.093-0.085,0.139-0.188,0.139-0.308c0-0.146-0.052-0.269-0.154-0.367
		c-0.102-0.1-0.307-0.225-0.611-0.377c-0.307-0.151-0.507-0.289-0.602-0.411c-0.095-0.12-0.142-0.272-0.142-0.456
		c0-0.238,0.081-0.438,0.245-0.598c0.163-0.16,0.374-0.239,0.634-0.239c0.113,0,0.252,0.022,0.414,0.072
		c0.108,0.031,0.18,0.047,0.216,0.047c0.033,0,0.06-0.007,0.079-0.022c0.019-0.015,0.04-0.047,0.066-0.097H60.638z"/>
	<path fill="#D13239" d="M61.774,31.881c-0.003,0.431,0.102,0.769,0.312,1.013s0.459,0.367,0.743,0.367
		c0.19,0,0.355-0.053,0.495-0.156c0.141-0.105,0.259-0.284,0.353-0.537l0.099,0.063c-0.044,0.288-0.173,0.553-0.386,0.789
		c-0.213,0.237-0.48,0.356-0.801,0.356c-0.348,0-0.646-0.136-0.894-0.407s-0.372-0.635-0.372-1.093c0-0.495,0.127-0.882,0.382-1.159
		c0.254-0.277,0.573-0.417,0.956-0.417c0.325,0,0.592,0.107,0.801,0.322c0.209,0.214,0.313,0.5,0.313,0.858H61.774z M61.774,31.697
		h1.341c-0.011-0.186-0.033-0.315-0.066-0.392c-0.053-0.118-0.132-0.211-0.236-0.278c-0.104-0.068-0.213-0.102-0.327-0.102
		c-0.175,0-0.331,0.068-0.47,0.204C61.878,31.266,61.797,31.455,61.774,31.697z"/>
	<path fill="#D13239" d="M66.934,29.632v1.695h0.943c0.244,0,0.407-0.037,0.49-0.11c0.109-0.097,0.171-0.268,0.183-0.512h0.118
		v1.492H68.55c-0.029-0.209-0.059-0.342-0.088-0.401c-0.038-0.074-0.101-0.132-0.187-0.175c-0.087-0.041-0.22-0.063-0.398-0.063
		h-0.943v1.415c0,0.189,0.009,0.305,0.025,0.347c0.017,0.041,0.046,0.073,0.089,0.098c0.042,0.024,0.122,0.036,0.24,0.036h0.728
		c0.243,0,0.419-0.017,0.528-0.051c0.11-0.033,0.215-0.1,0.316-0.198c0.131-0.132,0.265-0.328,0.402-0.593h0.126l-0.37,1.076h-3.306
		V33.57h0.151c0.102,0,0.197-0.024,0.288-0.072c0.067-0.034,0.113-0.084,0.138-0.151c0.024-0.069,0.036-0.206,0.036-0.415v-2.788
		c0-0.271-0.027-0.438-0.082-0.502c-0.076-0.085-0.202-0.127-0.38-0.127h-0.151v-0.117h3.306l0.047,0.94h-0.122
		c-0.045-0.226-0.094-0.381-0.147-0.466c-0.054-0.084-0.134-0.148-0.239-0.192c-0.084-0.032-0.233-0.048-0.445-0.048H66.934z"/>
	<path fill="#D13239" d="M70.585,31.318c0.339-0.41,0.663-0.613,0.971-0.613c0.158,0,0.294,0.038,0.408,0.117
		s0.205,0.21,0.272,0.392c0.047,0.126,0.07,0.32,0.07,0.582v1.236c0,0.185,0.014,0.309,0.043,0.374
		c0.023,0.053,0.061,0.094,0.112,0.123c0.053,0.029,0.147,0.044,0.286,0.044v0.114h-1.433v-0.114h0.061
		c0.135,0,0.229-0.021,0.282-0.062c0.054-0.04,0.091-0.102,0.113-0.182c0.008-0.031,0.013-0.131,0.013-0.298v-1.187
		c0-0.263-0.035-0.455-0.104-0.573c-0.069-0.119-0.184-0.179-0.347-0.179c-0.251,0-0.5,0.137-0.749,0.411v1.527
		c0,0.196,0.011,0.317,0.034,0.364c0.029,0.061,0.07,0.105,0.122,0.134c0.052,0.029,0.156,0.043,0.315,0.043v0.114h-1.434v-0.114
		h0.063c0.147,0,0.247-0.036,0.299-0.112c0.052-0.075,0.077-0.218,0.077-0.429v-1.075c0-0.349-0.008-0.56-0.023-0.636
		s-0.041-0.128-0.073-0.155s-0.076-0.041-0.131-0.041c-0.06,0-0.13,0.016-0.212,0.048l-0.048-0.114l0.873-0.354h0.137V31.318z"/>
	<path fill="#D13239" d="M73.755,32.631c-0.178-0.086-0.313-0.207-0.408-0.362s-0.143-0.326-0.143-0.514
		c0-0.287,0.108-0.533,0.324-0.74c0.216-0.208,0.493-0.31,0.831-0.31c0.276,0,0.516,0.066,0.718,0.202h0.613
		c0.091,0,0.144,0.002,0.158,0.008c0.016,0.005,0.026,0.014,0.032,0.026c0.013,0.019,0.019,0.053,0.019,0.102
		c0,0.055-0.005,0.093-0.016,0.113c-0.007,0.011-0.018,0.02-0.033,0.025c-0.016,0.007-0.069,0.01-0.16,0.01h-0.376
		c0.118,0.152,0.177,0.346,0.177,0.582c0,0.271-0.104,0.501-0.31,0.692c-0.207,0.192-0.484,0.288-0.832,0.288
		c-0.144,0-0.29-0.021-0.44-0.063c-0.093,0.081-0.155,0.15-0.188,0.211s-0.049,0.111-0.049,0.153c0,0.035,0.017,0.071,0.052,0.104
		c0.035,0.034,0.103,0.058,0.204,0.073c0.059,0.008,0.207,0.016,0.443,0.021c0.435,0.011,0.716,0.025,0.845,0.045
		c0.195,0.027,0.352,0.1,0.47,0.218c0.116,0.118,0.175,0.264,0.175,0.437c0,0.238-0.111,0.462-0.335,0.671
		c-0.329,0.308-0.759,0.462-1.288,0.462c-0.406,0-0.751-0.092-1.031-0.275c-0.158-0.105-0.237-0.215-0.237-0.329
		c0-0.051,0.012-0.102,0.035-0.152c0.036-0.077,0.109-0.187,0.222-0.325c0.015-0.019,0.122-0.133,0.322-0.342
		c-0.109-0.065-0.187-0.124-0.232-0.176c-0.045-0.051-0.068-0.109-0.068-0.176c0-0.073,0.03-0.16,0.09-0.259
		C73.398,32.953,73.538,32.812,73.755,32.631z M73.723,33.688c-0.099,0.107-0.174,0.208-0.224,0.301
		c-0.052,0.093-0.076,0.178-0.076,0.256c0,0.102,0.061,0.189,0.183,0.266c0.211,0.131,0.517,0.196,0.915,0.196
		c0.38,0,0.66-0.066,0.84-0.201c0.181-0.133,0.271-0.276,0.271-0.428c0-0.109-0.054-0.188-0.161-0.234
		c-0.11-0.047-0.327-0.074-0.651-0.083C74.344,33.748,73.979,33.724,73.723,33.688z M74.305,30.856
		c-0.156,0-0.286,0.062-0.392,0.187s-0.158,0.315-0.158,0.572c0,0.334,0.071,0.591,0.215,0.775c0.109,0.139,0.249,0.209,0.418,0.209
		c0.16,0,0.292-0.061,0.396-0.181c0.103-0.121,0.154-0.31,0.154-0.566c0-0.335-0.072-0.598-0.218-0.787
		C74.612,30.926,74.474,30.856,74.305,30.856z"/>
	<path fill="#D13239" d="M77.219,30.705v2.327c0,0.182,0.014,0.303,0.039,0.362c0.027,0.061,0.065,0.105,0.117,0.135
		c0.053,0.029,0.146,0.044,0.283,0.044v0.114h-1.407v-0.114c0.141,0,0.235-0.014,0.284-0.041s0.087-0.072,0.116-0.136
		c0.028-0.062,0.042-0.185,0.042-0.364v-1.116c0-0.314-0.01-0.519-0.028-0.61c-0.015-0.067-0.038-0.114-0.069-0.141
		c-0.032-0.027-0.075-0.04-0.13-0.04c-0.059,0-0.131,0.016-0.215,0.048l-0.045-0.114l0.873-0.354H77.219z M76.956,29.188
		c0.089,0,0.164,0.031,0.226,0.094c0.062,0.062,0.095,0.138,0.095,0.227c0,0.088-0.032,0.164-0.095,0.227
		c-0.062,0.063-0.137,0.096-0.226,0.096s-0.165-0.032-0.228-0.096c-0.063-0.062-0.096-0.139-0.096-0.227
		c0-0.089,0.031-0.165,0.094-0.227C76.789,29.22,76.866,29.188,76.956,29.188z"/>
	<path fill="#D13239" d="M78.863,31.318c0.34-0.41,0.663-0.613,0.973-0.613c0.158,0,0.294,0.038,0.407,0.117
		c0.114,0.079,0.205,0.21,0.272,0.392c0.046,0.126,0.069,0.32,0.069,0.582v1.236c0,0.185,0.015,0.309,0.044,0.374
		c0.023,0.053,0.062,0.094,0.113,0.123c0.051,0.029,0.146,0.044,0.286,0.044v0.114h-1.434v-0.114h0.061
		c0.135,0,0.229-0.021,0.283-0.062c0.054-0.04,0.091-0.102,0.111-0.182c0.01-0.031,0.013-0.131,0.013-0.298v-1.187
		c0-0.263-0.033-0.455-0.103-0.573c-0.067-0.119-0.184-0.179-0.347-0.179c-0.25,0-0.5,0.137-0.75,0.411v1.527
		c0,0.196,0.013,0.317,0.036,0.364c0.028,0.061,0.069,0.105,0.121,0.134c0.052,0.029,0.157,0.043,0.314,0.043v0.114h-1.433v-0.114
		h0.063c0.147,0,0.247-0.036,0.299-0.112c0.052-0.075,0.077-0.218,0.077-0.429v-1.075c0-0.349-0.008-0.56-0.023-0.636
		c-0.017-0.076-0.04-0.128-0.073-0.155c-0.032-0.027-0.075-0.041-0.131-0.041c-0.06,0-0.13,0.016-0.212,0.048l-0.048-0.114
		l0.873-0.354h0.136V31.318z"/>
	<path fill="#D13239" d="M81.745,31.881c-0.001,0.431,0.103,0.769,0.314,1.013c0.211,0.244,0.458,0.367,0.743,0.367
		c0.189,0,0.354-0.053,0.494-0.156c0.141-0.105,0.259-0.284,0.354-0.537l0.098,0.063c-0.044,0.288-0.173,0.553-0.386,0.789
		c-0.213,0.237-0.479,0.356-0.801,0.356c-0.349,0-0.645-0.136-0.893-0.407s-0.372-0.635-0.372-1.093
		c0-0.495,0.127-0.882,0.381-1.159s0.573-0.417,0.957-0.417c0.325,0,0.592,0.107,0.801,0.322c0.209,0.214,0.312,0.5,0.312,0.858
		H81.745z M81.745,31.697h1.342c-0.01-0.186-0.032-0.315-0.066-0.392c-0.052-0.118-0.13-0.211-0.234-0.278
		c-0.104-0.068-0.214-0.102-0.329-0.102c-0.174,0-0.33,0.068-0.469,0.204S81.769,31.455,81.745,31.697z"/>
	<path fill="#D13239" d="M84.621,31.881c-0.002,0.431,0.103,0.769,0.313,1.013s0.459,0.367,0.743,0.367
		c0.19,0,0.355-0.053,0.496-0.156c0.14-0.105,0.258-0.284,0.353-0.537l0.098,0.063c-0.044,0.288-0.173,0.553-0.386,0.789
		c-0.213,0.237-0.48,0.356-0.801,0.356c-0.348,0-0.646-0.136-0.894-0.407c-0.248-0.271-0.371-0.635-0.371-1.093
		c0-0.495,0.127-0.882,0.381-1.159s0.573-0.417,0.957-0.417c0.325,0,0.592,0.107,0.801,0.322c0.208,0.214,0.312,0.5,0.312,0.858
		H84.621z M84.621,31.697h1.342c-0.011-0.186-0.033-0.315-0.066-0.392c-0.053-0.118-0.131-0.211-0.235-0.278
		c-0.104-0.068-0.214-0.102-0.328-0.102c-0.175,0-0.331,0.068-0.469,0.204C84.726,31.266,84.645,31.455,84.621,31.697z"/>
	<path fill="#D13239" d="M87.858,30.705v0.651c0.242-0.435,0.491-0.651,0.746-0.651c0.116,0,0.213,0.035,0.288,0.104
		c0.077,0.071,0.114,0.153,0.114,0.246c0,0.082-0.027,0.151-0.083,0.209c-0.055,0.057-0.119,0.085-0.195,0.085
		c-0.074,0-0.156-0.036-0.249-0.109c-0.092-0.073-0.159-0.109-0.203-0.109c-0.038,0-0.08,0.021-0.123,0.064
		c-0.096,0.086-0.194,0.229-0.295,0.426v1.39c0,0.16,0.02,0.281,0.061,0.364c0.027,0.056,0.075,0.104,0.145,0.142
		c0.07,0.038,0.171,0.057,0.301,0.057v0.114h-1.483v-0.114c0.147,0,0.257-0.022,0.329-0.069c0.052-0.033,0.089-0.087,0.11-0.161
		c0.011-0.036,0.016-0.138,0.016-0.307v-1.123c0-0.338-0.007-0.539-0.021-0.603c-0.014-0.064-0.038-0.112-0.075-0.142
		s-0.083-0.044-0.139-0.044c-0.064,0-0.139,0.016-0.221,0.048l-0.031-0.114l0.876-0.354H87.858z"/>
	<path fill="#D13239" d="M90.168,30.705v2.327c0,0.182,0.013,0.303,0.039,0.362c0.026,0.061,0.065,0.105,0.116,0.135
		c0.053,0.029,0.146,0.044,0.284,0.044v0.114H89.2v-0.114c0.141,0,0.235-0.014,0.284-0.041c0.048-0.027,0.087-0.072,0.115-0.136
		c0.029-0.062,0.043-0.185,0.043-0.364v-1.116c0-0.314-0.01-0.519-0.029-0.61c-0.015-0.067-0.038-0.114-0.068-0.141
		c-0.032-0.027-0.076-0.04-0.13-0.04c-0.06,0-0.131,0.016-0.215,0.048l-0.045-0.114l0.873-0.354H90.168z M89.905,29.188
		c0.088,0,0.164,0.031,0.226,0.094c0.062,0.062,0.094,0.138,0.094,0.227c0,0.088-0.031,0.164-0.094,0.227
		c-0.062,0.063-0.138,0.096-0.226,0.096c-0.089,0-0.165-0.032-0.228-0.096c-0.064-0.062-0.096-0.139-0.096-0.227
		c0-0.089,0.031-0.165,0.094-0.227C89.738,29.22,89.814,29.188,89.905,29.188z"/>
	<path fill="#D13239" d="M91.812,31.318c0.341-0.41,0.664-0.613,0.972-0.613c0.158,0,0.294,0.038,0.407,0.117
		c0.115,0.079,0.206,0.21,0.272,0.392c0.047,0.126,0.07,0.32,0.07,0.582v1.236c0,0.185,0.015,0.309,0.044,0.374
		c0.023,0.053,0.061,0.094,0.112,0.123s0.147,0.044,0.286,0.044v0.114h-1.434v-0.114h0.061c0.135,0,0.229-0.021,0.283-0.062
		c0.054-0.04,0.091-0.102,0.112-0.182c0.009-0.031,0.013-0.131,0.013-0.298v-1.187c0-0.263-0.034-0.455-0.103-0.573
		c-0.068-0.119-0.185-0.179-0.346-0.179c-0.252,0-0.502,0.137-0.751,0.411v1.527c0,0.196,0.012,0.317,0.035,0.364
		c0.029,0.061,0.07,0.105,0.122,0.134c0.052,0.029,0.155,0.043,0.314,0.043v0.114h-1.434v-0.114h0.063
		c0.147,0,0.247-0.036,0.3-0.112c0.052-0.075,0.077-0.218,0.077-0.429v-1.075c0-0.349-0.008-0.56-0.023-0.636
		s-0.041-0.128-0.073-0.155c-0.033-0.027-0.077-0.041-0.131-0.041c-0.06,0-0.13,0.016-0.213,0.048l-0.047-0.114l0.874-0.354h0.135
		V31.318z"/>
	<path fill="#D13239" d="M94.983,32.631c-0.179-0.086-0.314-0.207-0.409-0.362s-0.143-0.326-0.143-0.514
		c0-0.287,0.108-0.533,0.325-0.74c0.216-0.208,0.493-0.31,0.83-0.31c0.276,0,0.516,0.066,0.718,0.202h0.614
		c0.09,0,0.144,0.002,0.158,0.008c0.015,0.005,0.024,0.014,0.032,0.026c0.012,0.019,0.019,0.053,0.019,0.102
		c0,0.055-0.005,0.093-0.017,0.113c-0.006,0.011-0.017,0.02-0.033,0.025c-0.016,0.007-0.069,0.01-0.159,0.01h-0.377
		c0.118,0.152,0.178,0.346,0.178,0.582c0,0.271-0.104,0.501-0.31,0.692c-0.208,0.192-0.484,0.288-0.833,0.288
		c-0.144,0-0.29-0.021-0.439-0.063c-0.093,0.081-0.155,0.15-0.188,0.211c-0.032,0.061-0.049,0.111-0.049,0.153
		c0,0.035,0.018,0.071,0.053,0.104c0.034,0.034,0.103,0.058,0.203,0.073c0.059,0.008,0.207,0.016,0.442,0.021
		c0.436,0.011,0.717,0.025,0.846,0.045c0.196,0.027,0.354,0.1,0.471,0.218c0.116,0.118,0.175,0.264,0.175,0.437
		c0,0.238-0.111,0.462-0.335,0.671c-0.33,0.308-0.759,0.462-1.288,0.462c-0.407,0-0.751-0.092-1.031-0.275
		c-0.158-0.105-0.237-0.215-0.237-0.329c0-0.051,0.012-0.102,0.034-0.152c0.036-0.077,0.11-0.187,0.222-0.325
		c0.015-0.019,0.122-0.133,0.323-0.342c-0.109-0.065-0.188-0.124-0.232-0.176c-0.045-0.051-0.068-0.109-0.068-0.176
		c0-0.073,0.03-0.16,0.09-0.259C94.627,32.953,94.766,32.812,94.983,32.631z M94.951,33.688c-0.1,0.107-0.174,0.208-0.225,0.301
		s-0.076,0.178-0.076,0.256c0,0.102,0.061,0.189,0.183,0.266c0.212,0.131,0.517,0.196,0.915,0.196c0.381,0,0.66-0.066,0.841-0.201
		c0.18-0.133,0.27-0.276,0.27-0.428c0-0.109-0.053-0.188-0.161-0.234c-0.109-0.047-0.327-0.074-0.651-0.083
		C95.571,33.748,95.206,33.724,94.951,33.688z M95.533,30.856c-0.156,0-0.287,0.062-0.393,0.187s-0.157,0.315-0.157,0.572
		c0,0.334,0.071,0.591,0.215,0.775c0.109,0.139,0.248,0.209,0.417,0.209c0.161,0,0.292-0.061,0.396-0.181
		c0.103-0.121,0.154-0.31,0.154-0.566c0-0.335-0.073-0.598-0.219-0.787C95.841,30.926,95.702,30.856,95.533,30.856z"/>
	<path fill="#D13239" d="M102.766,29.3l0.099,1.458h-0.099c-0.132-0.437-0.318-0.75-0.561-0.943
		c-0.241-0.191-0.533-0.287-0.873-0.287c-0.284,0-0.542,0.072-0.772,0.217c-0.229,0.144-0.41,0.375-0.542,0.691
		c-0.132,0.315-0.197,0.71-0.197,1.18c0,0.388,0.062,0.725,0.187,1.009c0.125,0.285,0.312,0.504,0.562,0.655
		s0.535,0.228,0.855,0.228c0.278,0,0.524-0.059,0.737-0.179c0.213-0.119,0.447-0.355,0.703-0.709l0.097,0.062
		c-0.214,0.382-0.465,0.661-0.752,0.838c-0.288,0.178-0.627,0.267-1.022,0.267c-0.711,0-1.261-0.264-1.65-0.791
		c-0.292-0.393-0.438-0.854-0.438-1.387c0-0.428,0.097-0.821,0.287-1.18c0.193-0.358,0.457-0.637,0.793-0.833
		c0.337-0.197,0.704-0.296,1.103-0.296c0.311,0,0.616,0.075,0.918,0.228c0.089,0.047,0.151,0.069,0.189,0.069
		c0.058,0,0.107-0.02,0.149-0.06c0.055-0.057,0.094-0.136,0.117-0.237H102.766z"/>
	<path fill="#D13239" d="M104.807,30.705c0.438,0,0.79,0.166,1.056,0.499c0.226,0.285,0.339,0.611,0.339,0.98
		c0,0.259-0.062,0.522-0.188,0.788c-0.124,0.266-0.296,0.466-0.513,0.601c-0.219,0.136-0.462,0.203-0.73,0.203
		c-0.437,0-0.783-0.175-1.041-0.522c-0.217-0.293-0.325-0.622-0.325-0.986c0-0.266,0.066-0.531,0.198-0.793
		c0.132-0.263,0.306-0.457,0.52-0.582C104.338,30.768,104.565,30.705,104.807,30.705z M104.708,30.91
		c-0.112,0-0.225,0.033-0.337,0.099c-0.113,0.067-0.204,0.184-0.274,0.351c-0.069,0.167-0.104,0.381-0.104,0.643
		c0,0.421,0.083,0.785,0.251,1.091s0.389,0.458,0.663,0.458c0.204,0,0.373-0.084,0.507-0.252c0.132-0.169,0.199-0.459,0.199-0.871
		c0-0.514-0.112-0.919-0.333-1.214C105.131,31.011,104.939,30.91,104.708,30.91z"/>
	<path fill="#D13239" d="M107.474,31.318c0.339-0.41,0.663-0.613,0.971-0.613c0.158,0,0.294,0.038,0.408,0.117
		c0.113,0.079,0.204,0.21,0.271,0.392c0.047,0.126,0.069,0.32,0.069,0.582v1.236c0,0.185,0.016,0.309,0.045,0.374
		c0.022,0.053,0.061,0.094,0.112,0.123s0.147,0.044,0.286,0.044v0.114h-1.433v-0.114h0.06c0.135,0,0.229-0.021,0.283-0.062
		c0.054-0.04,0.091-0.102,0.112-0.182c0.009-0.031,0.013-0.131,0.013-0.298v-1.187c0-0.263-0.034-0.455-0.103-0.573
		c-0.068-0.119-0.185-0.179-0.347-0.179c-0.251,0-0.501,0.137-0.749,0.411v1.527c0,0.196,0.011,0.317,0.034,0.364
		c0.029,0.061,0.07,0.105,0.122,0.134c0.052,0.029,0.156,0.043,0.314,0.043v0.114h-1.433v-0.114h0.062
		c0.148,0,0.248-0.036,0.299-0.112c0.053-0.075,0.078-0.218,0.078-0.429v-1.075c0-0.349-0.009-0.56-0.024-0.636
		s-0.04-0.128-0.072-0.155s-0.077-0.041-0.132-0.041c-0.059,0-0.129,0.016-0.211,0.048l-0.048-0.114l0.873-0.354h0.137V31.318z"/>
	<path fill="#D13239" d="M110.709,29.837v0.953h0.677v0.221h-0.677v1.88c0,0.188,0.027,0.314,0.08,0.38
		c0.055,0.064,0.123,0.098,0.208,0.098c0.069,0,0.137-0.021,0.202-0.064c0.065-0.044,0.116-0.107,0.152-0.192h0.123
		c-0.074,0.207-0.178,0.362-0.312,0.467c-0.137,0.104-0.274,0.157-0.418,0.157c-0.098,0-0.192-0.027-0.285-0.081
		c-0.092-0.054-0.161-0.131-0.205-0.231c-0.045-0.1-0.066-0.254-0.066-0.463v-1.949h-0.459v-0.104
		c0.116-0.047,0.234-0.126,0.355-0.236s0.229-0.242,0.324-0.394c0.049-0.081,0.116-0.227,0.203-0.44H110.709z"/>
	<path fill="#D13239" d="M112.516,30.705v0.651c0.243-0.435,0.491-0.651,0.747-0.651c0.115,0,0.212,0.035,0.288,0.104
		c0.075,0.071,0.113,0.153,0.113,0.246c0,0.082-0.027,0.151-0.082,0.209c-0.055,0.057-0.121,0.085-0.196,0.085
		c-0.074,0-0.156-0.036-0.249-0.109c-0.091-0.073-0.159-0.109-0.203-0.109c-0.038,0-0.079,0.021-0.124,0.064
		c-0.095,0.086-0.192,0.229-0.294,0.426v1.39c0,0.16,0.021,0.281,0.061,0.364c0.027,0.056,0.076,0.104,0.145,0.142
		c0.069,0.038,0.171,0.057,0.301,0.057v0.114h-1.484v-0.114c0.148,0,0.259-0.022,0.33-0.069c0.052-0.033,0.09-0.087,0.11-0.161
		c0.011-0.036,0.016-0.138,0.016-0.307v-1.123c0-0.338-0.006-0.539-0.021-0.603c-0.013-0.064-0.039-0.112-0.075-0.142
		c-0.037-0.029-0.083-0.044-0.138-0.044c-0.065,0-0.14,0.016-0.223,0.048l-0.03-0.114l0.876-0.354H112.516z"/>
	<path fill="#D13239" d="M115.467,33.271c-0.298,0.229-0.483,0.362-0.56,0.398c-0.114,0.052-0.235,0.079-0.364,0.079
		c-0.2,0-0.365-0.068-0.494-0.206c-0.13-0.137-0.195-0.317-0.195-0.541c0-0.142,0.032-0.264,0.096-0.367
		c0.086-0.143,0.236-0.278,0.45-0.404c0.214-0.127,0.57-0.28,1.067-0.463v-0.113c0-0.289-0.046-0.487-0.138-0.595
		c-0.092-0.108-0.225-0.161-0.399-0.161c-0.133,0-0.238,0.036-0.316,0.107c-0.08,0.071-0.121,0.154-0.121,0.247l0.007,0.184
		c0,0.097-0.024,0.171-0.073,0.224c-0.051,0.054-0.115,0.079-0.195,0.079c-0.079,0-0.143-0.027-0.191-0.081
		c-0.05-0.056-0.074-0.13-0.074-0.225c0-0.183,0.093-0.349,0.278-0.501c0.186-0.151,0.445-0.227,0.78-0.227
		c0.259,0,0.469,0.043,0.634,0.129c0.124,0.065,0.217,0.167,0.275,0.307c0.038,0.091,0.056,0.276,0.056,0.557v0.984
		c0,0.276,0.006,0.445,0.017,0.508c0.011,0.062,0.028,0.104,0.052,0.124c0.025,0.021,0.053,0.033,0.084,0.033
		c0.034,0,0.064-0.008,0.089-0.023c0.044-0.027,0.13-0.104,0.256-0.23v0.178c-0.235,0.316-0.461,0.474-0.677,0.474
		c-0.103,0-0.186-0.035-0.246-0.107C115.501,33.565,115.469,33.443,115.467,33.271z M115.467,33.064V31.96
		c-0.318,0.127-0.523,0.216-0.616,0.27c-0.167,0.092-0.286,0.189-0.358,0.291c-0.071,0.101-0.107,0.211-0.107,0.332
		c0,0.151,0.046,0.277,0.137,0.378s0.194,0.15,0.313,0.15C114.995,33.381,115.205,33.275,115.467,33.064z"/>
	<path fill="#D13239" d="M119.163,32.586c-0.078,0.382-0.231,0.677-0.459,0.882c-0.229,0.206-0.48,0.309-0.756,0.309
		c-0.33,0-0.616-0.139-0.86-0.415c-0.245-0.276-0.367-0.648-0.367-1.12c0-0.455,0.135-0.825,0.406-1.11
		c0.271-0.284,0.597-0.426,0.977-0.426c0.284,0,0.519,0.074,0.702,0.225c0.183,0.151,0.274,0.309,0.274,0.47
		c0,0.081-0.025,0.146-0.077,0.195s-0.124,0.075-0.217,0.075c-0.125,0-0.219-0.041-0.281-0.121c-0.036-0.044-0.06-0.129-0.071-0.253
		s-0.054-0.22-0.128-0.285c-0.074-0.062-0.177-0.095-0.307-0.095c-0.212,0-0.382,0.078-0.51,0.234
		c-0.171,0.206-0.257,0.479-0.257,0.819c0,0.346,0.085,0.651,0.255,0.916s0.399,0.397,0.688,0.397c0.206,0,0.392-0.071,0.557-0.213
		c0.116-0.097,0.229-0.273,0.339-0.528L119.163,32.586z"/>
	<path fill="#D13239" d="M120.419,29.837v0.953h0.677v0.221h-0.677v1.88c0,0.188,0.026,0.314,0.08,0.38
		c0.055,0.064,0.123,0.098,0.207,0.098c0.07,0,0.138-0.021,0.202-0.064c0.065-0.044,0.116-0.107,0.152-0.192h0.124
		c-0.074,0.207-0.179,0.362-0.313,0.467c-0.136,0.104-0.274,0.157-0.417,0.157c-0.098,0-0.193-0.027-0.285-0.081
		c-0.094-0.054-0.162-0.131-0.206-0.231c-0.044-0.1-0.066-0.254-0.066-0.463v-1.949h-0.458v-0.104
		c0.115-0.047,0.234-0.126,0.354-0.236c0.122-0.11,0.229-0.242,0.325-0.394c0.049-0.081,0.115-0.227,0.202-0.44H120.419z"/>
	<path fill="#D13239" d="M122.377,30.705v2.327c0,0.182,0.014,0.303,0.039,0.362c0.026,0.061,0.065,0.105,0.117,0.135
		s0.146,0.044,0.283,0.044v0.114h-1.407v-0.114c0.141,0,0.235-0.014,0.284-0.041s0.087-0.072,0.115-0.136
		c0.029-0.062,0.043-0.185,0.043-0.364v-1.116c0-0.314-0.01-0.519-0.028-0.61c-0.015-0.067-0.038-0.114-0.07-0.141
		c-0.031-0.027-0.074-0.04-0.129-0.04c-0.06,0-0.131,0.016-0.215,0.048l-0.045-0.114l0.873-0.354H122.377z M122.114,29.188
		c0.089,0,0.163,0.031,0.226,0.094c0.062,0.062,0.094,0.138,0.094,0.227c0,0.088-0.031,0.164-0.094,0.227
		c-0.062,0.063-0.137,0.096-0.226,0.096c-0.09,0-0.164-0.032-0.228-0.096c-0.063-0.062-0.096-0.139-0.096-0.227
		c0-0.089,0.032-0.165,0.094-0.227C121.946,29.22,122.023,29.188,122.114,29.188z"/>
	<path fill="#D13239" d="M124.022,31.318c0.339-0.41,0.662-0.613,0.97-0.613c0.159,0,0.295,0.038,0.409,0.117
		s0.204,0.21,0.272,0.392c0.046,0.126,0.068,0.32,0.068,0.582v1.236c0,0.185,0.016,0.309,0.045,0.374
		c0.023,0.053,0.061,0.094,0.113,0.123c0.051,0.029,0.146,0.044,0.285,0.044v0.114h-1.433v-0.114h0.06
		c0.136,0,0.23-0.021,0.284-0.062c0.053-0.04,0.091-0.102,0.111-0.182c0.008-0.031,0.013-0.131,0.013-0.298v-1.187
		c0-0.263-0.033-0.455-0.103-0.573c-0.068-0.119-0.184-0.179-0.347-0.179c-0.25,0-0.5,0.137-0.749,0.411v1.527
		c0,0.196,0.012,0.317,0.034,0.364c0.029,0.061,0.07,0.105,0.122,0.134c0.051,0.029,0.157,0.043,0.314,0.043v0.114h-1.433v-0.114
		h0.063c0.147,0,0.247-0.036,0.298-0.112c0.052-0.075,0.078-0.218,0.078-0.429v-1.075c0-0.349-0.008-0.56-0.024-0.636
		c-0.016-0.076-0.039-0.128-0.072-0.155c-0.032-0.027-0.076-0.041-0.132-0.041c-0.059,0-0.13,0.016-0.211,0.048l-0.049-0.114
		l0.874-0.354h0.137V31.318z"/>
	<path fill="#D13239" d="M127.191,32.631c-0.177-0.086-0.312-0.207-0.408-0.362c-0.095-0.155-0.142-0.326-0.142-0.514
		c0-0.287,0.108-0.533,0.324-0.74c0.216-0.208,0.492-0.31,0.83-0.31c0.276,0,0.516,0.066,0.718,0.202h0.613
		c0.092,0,0.145,0.002,0.159,0.008c0.015,0.005,0.025,0.014,0.032,0.026c0.012,0.019,0.018,0.053,0.018,0.102
		c0,0.055-0.005,0.093-0.015,0.113c-0.007,0.011-0.019,0.02-0.033,0.025c-0.017,0.007-0.069,0.01-0.161,0.01h-0.375
		c0.117,0.152,0.177,0.346,0.177,0.582c0,0.271-0.104,0.501-0.311,0.692c-0.206,0.192-0.483,0.288-0.832,0.288
		c-0.143,0-0.29-0.021-0.439-0.063c-0.093,0.081-0.156,0.15-0.188,0.211s-0.049,0.111-0.049,0.153c0,0.035,0.018,0.071,0.053,0.104
		c0.035,0.034,0.103,0.058,0.204,0.073c0.059,0.008,0.206,0.016,0.442,0.021c0.435,0.011,0.716,0.025,0.845,0.045
		c0.196,0.027,0.353,0.1,0.47,0.218s0.176,0.264,0.176,0.437c0,0.238-0.112,0.462-0.335,0.671c-0.33,0.308-0.759,0.462-1.288,0.462
		c-0.406,0-0.751-0.092-1.032-0.275c-0.158-0.105-0.236-0.215-0.236-0.329c0-0.051,0.012-0.102,0.034-0.152
		c0.036-0.077,0.11-0.187,0.223-0.325c0.015-0.019,0.122-0.133,0.322-0.342c-0.109-0.065-0.188-0.124-0.233-0.176
		c-0.045-0.051-0.067-0.109-0.067-0.176c0-0.073,0.029-0.16,0.09-0.259S126.975,32.812,127.191,32.631z M127.16,33.688
		c-0.1,0.107-0.174,0.208-0.224,0.301c-0.051,0.093-0.077,0.178-0.077,0.256c0,0.102,0.062,0.189,0.184,0.266
		c0.211,0.131,0.516,0.196,0.914,0.196c0.38,0,0.66-0.066,0.84-0.201c0.181-0.133,0.271-0.276,0.271-0.428
		c0-0.109-0.055-0.188-0.162-0.234c-0.109-0.047-0.326-0.074-0.651-0.083C127.78,33.748,127.415,33.724,127.16,33.688z
		 M127.742,30.856c-0.156,0-0.287,0.062-0.393,0.187s-0.158,0.315-0.158,0.572c0,0.334,0.072,0.591,0.216,0.775
		c0.109,0.139,0.249,0.209,0.417,0.209c0.16,0,0.293-0.061,0.396-0.181c0.104-0.121,0.155-0.31,0.155-0.566
		c0-0.335-0.073-0.598-0.219-0.787C128.049,30.926,127.911,30.856,127.742,30.856z"/>
</g>
<path fill="#D13239" d="M42.872,16.166l-3.538-3.538l-2.86,2.861l-1.89,1.89l0,0H35.9c-0.38,0.839-0.914,1.612-1.59,2.288
	c-1.377,1.376-3.207,2.178-5.155,2.256c-2.063,0.084-4.036-0.642-5.555-2.043c-1.518-1.4-2.4-3.309-2.483-5.373
	c-0.089-2.183,0.714-4.236,2.261-5.783c1.376-1.376,3.207-2.177,5.155-2.256c1.043-0.042,2.063,0.124,3.014,0.478l-4.801,4.8
	l-1.085-1.085l0,0v6.718h6.718l0,0l-1.085-1.085l4.798-4.8l2.767-2.767h0l0-0.001c1.248-1.248,1.254-3.266,0.021-4.522
	c-0.007-0.008-0.013-0.016-0.021-0.023c-0.015-0.015-0.03-0.027-0.044-0.041c-0.753-0.747-1.588-1.409-2.49-1.971
	c-2.329-1.452-5.103-2.245-8.051-2.125c-3.702,0.149-7.016,1.706-9.443,4.135c-2.699,2.699-4.306,6.473-4.14,10.588
	c0.314,7.816,6.906,13.898,14.723,13.583c3.701-0.149,7.015-1.707,9.443-4.135c1.852-1.852,3.188-4.209,3.792-6.835h1.435h0
	L42.872,16.166z"/>
</svg>
