<?xml version="1.0" encoding="utf-8"?>
<!-- Generator: Adobe Illustrator 16.0.0, SVG Export Plug-In . SVG Version: 6.00 Build 0)  -->
<!DOCTYPE svg PUBLIC "-//W3C//DTD SVG 1.1//EN" "http://www.w3.org/Graphics/SVG/1.1/DTD/svg11.dtd">
<svg version="1.1" id="Layer_1" xmlns="http://www.w3.org/2000/svg" xmlns:xlink="http://www.w3.org/1999/xlink" x="0px" y="0px"
	 width="150px" height="35px" viewBox="0 0 150 35" enable-background="new 0 0 150 35" xml:space="preserve">
<g>
	<path d="M42.097,17.124h-5.435l-0.647,1.498c-0.212,0.499-0.318,0.911-0.318,1.237c0,0.431,0.174,0.749,0.522,0.953
		c0.204,0.12,0.707,0.211,1.509,0.271v0.421h-5.118v-0.421c0.552-0.083,1.006-0.312,1.362-0.686
		c0.355-0.375,0.794-1.148,1.316-2.321l5.502-12.276h0.216l5.549,12.617c0.529,1.195,0.964,1.948,1.305,2.258
		c0.257,0.234,0.62,0.37,1.089,0.408v0.421h-7.444v-0.421h0.307c0.598,0,1.017-0.083,1.259-0.249c0.167-0.122,0.25-0.295,0.25-0.522
		c0-0.136-0.023-0.275-0.068-0.42c-0.016-0.067-0.129-0.352-0.341-0.851L42.097,17.124z M41.711,16.285l-2.292-5.299l-2.36,5.299
		H41.711z"/>
	<path d="M63.883,16.104l-0.579,5.401H49.643v-0.421h0.51c0.447,0,0.806-0.079,1.079-0.237c0.196-0.106,0.348-0.288,0.454-0.545
		c0.083-0.182,0.125-0.658,0.125-1.43V8.75c0-0.786-0.042-1.278-0.125-1.475c-0.083-0.196-0.252-0.369-0.505-0.516
		c-0.253-0.148-0.596-0.222-1.027-0.222h-0.51v-0.42h8.204v0.42h-0.67c-0.446,0-0.805,0.079-1.078,0.238
		c-0.197,0.106-0.352,0.288-0.465,0.544c-0.083,0.182-0.125,0.658-0.125,1.43v9.804c0,0.787,0.046,1.288,0.136,1.504
		c0.091,0.215,0.269,0.377,0.533,0.482c0.189,0.068,0.647,0.103,1.373,0.103h1.282c0.817,0,1.498-0.145,2.042-0.432
		c0.544-0.288,1.016-0.741,1.413-1.362c0.397-0.62,0.773-1.536,1.129-2.745H63.883z"/>
	<path d="M75.626,7.002v6.321h0.444c0.68,0,1.234-0.102,1.666-0.307c0.432-0.203,0.797-0.547,1.096-1.032
		c0.299-0.484,0.494-1.139,0.584-1.963h0.398v7.728h-0.398c-0.143-1.46-0.535-2.423-1.174-2.889s-1.363-0.698-2.172-0.698h-0.444
		v4.71c0,0.786,0.043,1.278,0.131,1.475s0.256,0.368,0.512,0.516c0.252,0.148,0.594,0.222,1.025,0.222h0.51v0.421h-8.044v-0.421
		h0.51c0.446,0,0.806-0.079,1.078-0.237c0.197-0.106,0.348-0.288,0.454-0.545c0.083-0.182,0.125-0.658,0.125-1.43V8.75
		c0-0.786-0.042-1.278-0.125-1.475c-0.084-0.196-0.252-0.369-0.505-0.516c-0.253-0.148-0.596-0.222-1.027-0.222h-0.51v-0.42H82.74
		v4.414h-0.465C82.17,9.496,81.9,8.728,81.465,8.229c-0.434-0.499-1.064-0.851-1.889-1.055c-0.453-0.114-1.295-0.171-2.521-0.171
		H75.626z"/>
	<path d="M91.377,17.124h-5.436l-0.646,1.498c-0.213,0.499-0.318,0.911-0.318,1.237c0,0.431,0.174,0.749,0.521,0.953
		c0.205,0.12,0.707,0.211,1.51,0.271v0.421h-5.117v-0.421c0.553-0.083,1.006-0.312,1.361-0.686c0.355-0.375,0.795-1.148,1.316-2.321
		l5.504-12.276h0.215l5.549,12.617c0.529,1.195,0.965,1.948,1.305,2.258c0.258,0.234,0.619,0.37,1.09,0.408v0.421h-7.443v-0.421
		h0.305c0.598,0,1.018-0.083,1.262-0.249c0.164-0.122,0.248-0.295,0.248-0.522c0-0.136-0.021-0.275-0.066-0.42
		c-0.018-0.067-0.131-0.352-0.342-0.851L91.377,17.124z M90.99,16.285l-2.291-5.299l-2.361,5.299H90.99z"/>
	<path d="M104.846,14.105v4.767c0,0.786,0.043,1.278,0.131,1.475c0.086,0.196,0.256,0.368,0.51,0.516
		c0.254,0.148,0.596,0.222,1.027,0.222h0.51v0.421h-8.045v-0.421h0.51c0.447,0,0.807-0.079,1.078-0.237
		c0.197-0.106,0.35-0.288,0.455-0.545c0.084-0.182,0.125-0.658,0.125-1.43V8.75c0-0.786-0.041-1.278-0.125-1.475
		c-0.084-0.196-0.252-0.369-0.506-0.516c-0.252-0.148-0.596-0.222-1.027-0.222h-0.51v-0.42h8.045v0.42h-0.51
		c-0.445,0-0.807,0.079-1.078,0.238c-0.197,0.106-0.354,0.288-0.467,0.544c-0.082,0.182-0.123,0.658-0.123,1.43v4.357h5.434V8.75
		c0-0.786-0.041-1.278-0.123-1.475c-0.084-0.196-0.254-0.369-0.512-0.516c-0.256-0.148-0.6-0.222-1.033-0.222h-0.498v-0.42h8.033
		v0.42h-0.5c-0.453,0-0.812,0.079-1.076,0.238c-0.197,0.106-0.354,0.288-0.467,0.544c-0.082,0.182-0.125,0.658-0.125,1.43v10.122
		c0,0.786,0.043,1.278,0.125,1.475c0.084,0.196,0.254,0.368,0.512,0.516c0.256,0.148,0.602,0.222,1.031,0.222h0.5v0.421h-8.033
		v-0.421h0.498c0.455,0,0.814-0.079,1.078-0.237c0.197-0.106,0.354-0.288,0.467-0.545c0.082-0.182,0.123-0.658,0.123-1.43v-4.767
		H104.846z"/>
	<path d="M126.234,17.124h-5.436l-0.646,1.498c-0.213,0.499-0.318,0.911-0.318,1.237c0,0.431,0.174,0.749,0.521,0.953
		c0.205,0.12,0.707,0.211,1.51,0.271v0.421h-5.117v-0.421c0.553-0.083,1.006-0.312,1.361-0.686c0.355-0.375,0.795-1.148,1.316-2.321
		l5.504-12.276h0.215l5.549,12.617c0.529,1.195,0.965,1.948,1.305,2.258c0.258,0.234,0.619,0.37,1.088,0.408v0.421h-7.443v-0.421
		h0.309c0.598,0,1.016-0.083,1.258-0.249c0.168-0.122,0.25-0.295,0.25-0.522c0-0.136-0.023-0.275-0.068-0.42
		c-0.014-0.067-0.129-0.352-0.34-0.851L126.234,17.124z M125.848,16.285l-2.291-5.299l-2.361,5.299H125.848z"/>
	<path d="M133.654,21.505v-0.421h0.51c0.447,0,0.789-0.069,1.027-0.21c0.238-0.14,0.416-0.331,0.527-0.572
		c0.068-0.159,0.104-0.636,0.104-1.43V8.75c0-0.786-0.041-1.278-0.125-1.475c-0.084-0.196-0.252-0.369-0.506-0.516
		c-0.252-0.148-0.596-0.222-1.027-0.222h-0.51v-0.42h6.887c1.838,0,3.318,0.25,4.438,0.75c1.369,0.612,2.408,1.54,3.115,2.78
		c0.707,1.241,1.061,2.644,1.061,4.21c0,1.082-0.174,2.078-0.521,2.989c-0.35,0.912-0.799,1.665-1.352,2.259
		c-0.551,0.594-1.189,1.07-1.91,1.43c-0.723,0.359-1.607,0.638-2.65,0.834c-0.461,0.091-1.188,0.137-2.18,0.137H133.654z
		 M139.521,6.991v12.006c0,0.635,0.029,1.024,0.09,1.168c0.061,0.145,0.162,0.254,0.307,0.329c0.203,0.114,0.5,0.171,0.885,0.171
		c1.264,0,2.229-0.432,2.895-1.294c0.906-1.165,1.361-2.973,1.361-5.424c0-1.975-0.311-3.551-0.932-4.73
		c-0.49-0.924-1.123-1.552-1.895-1.884C141.688,7.097,140.783,6.984,139.521,6.991z"/>
</g>
<g>
	<path fill="#D13239" d="M102.682,29.358v-0.6c-0.078,0.17-0.201,0.305-0.367,0.398c-0.16,0.09-0.336,0.134-0.531,0.134
		c-0.369,0-0.674-0.133-0.908-0.396c-0.225-0.256-0.338-0.569-0.338-0.944c0-0.369,0.119-0.67,0.357-0.902s0.541-0.349,0.91-0.349
		c0.352,0,0.639,0.169,0.863,0.506c0.051-0.146,0.119-0.293,0.205-0.44h0.525l0.203-0.007v0.032
		c-0.143,0.032-0.229,0.163-0.26,0.393c-0.008,0.053-0.012,0.226-0.012,0.521v1.388h0.541v0.266H102.682z M100.93,25.986
		c0-0.105,0.037-0.194,0.109-0.265c0.074-0.071,0.164-0.106,0.271-0.106s0.197,0.035,0.27,0.105
		c0.072,0.069,0.109,0.159,0.109,0.266c0,0.109-0.037,0.196-0.111,0.265c-0.072,0.068-0.162,0.102-0.268,0.102
		c-0.109,0-0.199-0.033-0.271-0.102S100.93,26.096,100.93,25.986z M101.143,28.013c0,0.281,0.057,0.512,0.176,0.691
		c0.143,0.214,0.346,0.32,0.615,0.32c0.266,0,0.469-0.106,0.605-0.317c0.113-0.178,0.172-0.409,0.172-0.694
		c0-0.289-0.059-0.523-0.176-0.699c-0.137-0.213-0.34-0.317-0.609-0.317c-0.268,0-0.473,0.106-0.609,0.32
		C101.199,27.498,101.143,27.73,101.143,28.013z M101.887,25.986c0-0.105,0.037-0.194,0.109-0.265
		c0.074-0.071,0.164-0.106,0.27-0.106c0.107,0,0.199,0.035,0.271,0.105c0.072,0.069,0.109,0.159,0.109,0.266
		c0,0.109-0.037,0.196-0.111,0.265c-0.072,0.068-0.164,0.102-0.27,0.102c-0.107,0-0.197-0.033-0.27-0.102
		S101.887,26.096,101.887,25.986z"/>
	<path fill="#D13239" d="M105.656,29.093h0.447v0.266h-2.32v-0.266h1.254v-1.582c0-0.193-0.01-0.319-0.031-0.379
		c-0.041-0.119-0.137-0.183-0.285-0.192v-0.041c0.371-0.048,0.695-0.116,0.973-0.204c-0.025,0.335-0.037,0.682-0.037,1.044V29.093z
		 M104.006,30.023c0-0.106,0.037-0.195,0.111-0.269c0.072-0.071,0.162-0.107,0.27-0.107s0.197,0.036,0.27,0.105
		c0.072,0.072,0.109,0.161,0.109,0.271c0,0.106-0.037,0.192-0.111,0.262c-0.072,0.069-0.162,0.104-0.268,0.104
		c-0.109,0-0.199-0.034-0.271-0.103S104.006,30.131,104.006,30.023z M104.881,30.023c0-0.106,0.039-0.195,0.111-0.269
		c0.072-0.071,0.162-0.107,0.27-0.107s0.197,0.036,0.27,0.105c0.072,0.072,0.109,0.161,0.109,0.271c0,0.106-0.037,0.192-0.111,0.262
		c-0.072,0.069-0.162,0.104-0.268,0.104c-0.109,0-0.199-0.034-0.271-0.103S104.881,30.131,104.881,30.023z"/>
	<path fill="#D13239" d="M107.695,29.093h0.42v0.266h-2.109v-0.266h1.068v-1.582c0-0.193-0.012-0.319-0.033-0.379
		c-0.039-0.119-0.133-0.183-0.281-0.192v-0.041c0.371-0.048,0.695-0.116,0.971-0.204c-0.021,0.335-0.035,0.682-0.035,1.044V29.093z
		 M106.27,25.98c0-0.105,0.037-0.194,0.111-0.268c0.072-0.072,0.162-0.108,0.268-0.108c0.109,0,0.199,0.036,0.271,0.107
		s0.107,0.161,0.107,0.269c0,0.106-0.037,0.193-0.109,0.263c-0.074,0.069-0.162,0.104-0.27,0.104s-0.197-0.033-0.27-0.102
		S106.27,26.089,106.27,25.98z"/>
	<path fill="#D13239" d="M108.021,29.093h0.676c-0.189-0.229-0.285-0.516-0.285-0.858c0-0.392,0.139-0.708,0.412-0.947
		c0.262-0.228,0.592-0.341,0.992-0.341c0.402,0,0.732,0.118,0.988,0.351c0.266,0.242,0.398,0.562,0.398,0.962
		c0,0.404-0.133,0.727-0.402,0.967c-0.258,0.231-0.594,0.347-1.004,0.347c-0.316,0-0.586-0.072-0.809-0.22v0.006h-0.967V29.093z
		 M109.006,28.249c0,0.336,0.053,0.607,0.158,0.818c0.139,0.275,0.359,0.414,0.662,0.414c0.299,0,0.516-0.139,0.65-0.414
		c0.104-0.212,0.156-0.484,0.156-0.814c0-0.335-0.053-0.604-0.158-0.81c-0.141-0.273-0.361-0.409-0.666-0.409
		c-0.289,0-0.504,0.137-0.645,0.411C109.059,27.657,109.006,27.926,109.006,28.249z"/>
	<path fill="#D13239" d="M112.924,29.673c-0.547-0.313-0.82-0.744-0.82-1.294v-2.33c0-0.188-0.008-0.31-0.027-0.366
		c-0.039-0.111-0.133-0.173-0.277-0.182v-0.042c0.252-0.022,0.531-0.09,0.844-0.204c-0.018,0.313-0.025,0.66-0.025,1.04v2.088
		C112.629,28.865,112.732,29.294,112.924,29.673z M111.891,25.038v-0.095h0.137c-0.084-0.059-0.123-0.13-0.123-0.214
		c0-0.089,0.041-0.157,0.127-0.204c0.07-0.039,0.152-0.058,0.248-0.058c0.104,0,0.193,0.019,0.271,0.058l-0.035,0.146l-0.014-0.003
		c-0.037-0.112-0.107-0.168-0.207-0.168c-0.066,0-0.125,0.022-0.18,0.067c-0.053,0.045-0.078,0.1-0.078,0.162
		c0,0.075,0.047,0.147,0.143,0.214h0.336c0.025,0,0.053-0.011,0.078-0.032c-0.01,0.085-0.039,0.127-0.092,0.127H111.891z
		 M113.787,24.739v3.738c0,0.468-0.113,0.843-0.338,1.124c-0.189,0.24-0.508,0.359-0.953,0.359c-0.074,0-0.152-0.002-0.236-0.009
		c-0.061-0.005-0.15-0.015-0.268-0.029l0.174-0.562h0.033c0.027,0.13,0.088,0.239,0.182,0.328c0.064,0.063,0.168,0.098,0.301,0.098
		c0.047,0,0.102-0.005,0.162-0.014c0.186-0.028,0.312-0.183,0.383-0.464c0.039-0.203,0.057-0.481,0.057-0.836
		c0-0.707,0-0.933,0-0.678v-2.175c0-0.232-0.016-0.37-0.047-0.416c-0.037-0.14-0.133-0.214-0.285-0.223V24.94
		C113.199,24.907,113.479,24.841,113.787,24.739z"/>
	<path fill="#D13239" d="M114.318,29.375l-0.002-0.043c0.178-0.051,0.287-0.197,0.33-0.437c0.014-0.078,0.021-0.279,0.021-0.601
		v-2.748c0-0.188-0.01-0.311-0.029-0.366c-0.037-0.115-0.131-0.177-0.275-0.185v-0.043c0.252-0.022,0.531-0.089,0.844-0.2
		c-0.02,0.304-0.029,0.649-0.027,1.036v2.486c0.018,0.349,0.029,0.552,0.037,0.609c0.039,0.251,0.146,0.4,0.326,0.447v0.043
		c-0.205-0.012-0.404-0.017-0.596-0.017C114.695,29.358,114.486,29.363,114.318,29.375z"/>
	<path fill="#D13239" d="M118.85,29.358v-0.6c-0.076,0.17-0.199,0.305-0.365,0.398c-0.16,0.09-0.338,0.134-0.533,0.134
		c-0.369,0-0.672-0.133-0.906-0.396c-0.225-0.256-0.338-0.569-0.338-0.944c0-0.369,0.119-0.67,0.357-0.902s0.541-0.349,0.91-0.349
		c0.352,0,0.639,0.169,0.861,0.506c0.053-0.146,0.121-0.293,0.205-0.44h0.525l0.205-0.007v0.032c-0.143,0.032-0.23,0.163-0.26,0.393
		c-0.01,0.053-0.014,0.226-0.014,0.521v1.388h0.541v0.266H118.85z M117.1,25.986c0-0.105,0.037-0.194,0.109-0.265
		c0.074-0.071,0.164-0.106,0.27-0.106c0.109,0,0.199,0.035,0.271,0.105c0.07,0.069,0.107,0.159,0.107,0.266
		c0,0.109-0.037,0.196-0.109,0.265c-0.074,0.068-0.164,0.102-0.27,0.102c-0.107,0-0.197-0.033-0.27-0.102
		C117.135,26.183,117.1,26.096,117.1,25.986z M117.311,28.013c0,0.281,0.059,0.512,0.178,0.691c0.141,0.214,0.346,0.32,0.613,0.32
		s0.471-0.106,0.605-0.317c0.115-0.178,0.172-0.409,0.172-0.694c0-0.289-0.059-0.523-0.174-0.699
		c-0.139-0.213-0.34-0.317-0.609-0.317s-0.473,0.106-0.611,0.32C117.369,27.498,117.311,27.73,117.311,28.013z M118.055,25.986
		c0-0.105,0.037-0.194,0.111-0.265c0.072-0.071,0.162-0.106,0.27-0.106s0.199,0.035,0.27,0.105c0.074,0.069,0.109,0.159,0.109,0.266
		c0,0.109-0.037,0.196-0.109,0.265c-0.074,0.068-0.164,0.102-0.27,0.102c-0.109,0-0.199-0.033-0.271-0.102
		S118.055,26.096,118.055,25.986z"/>
	<path fill="#D13239" d="M123.115,29.093h0.539v0.266h-0.697c-0.039,0.05-0.082,0.096-0.127,0.14
		c-0.258,0.244-0.6,0.366-1.021,0.366c-0.41,0-0.742-0.124-0.998-0.369c-0.045-0.043-0.086-0.089-0.123-0.137h-0.734v-0.266h0.578
		c-0.07-0.168-0.105-0.356-0.105-0.564c0-0.394,0.137-0.71,0.412-0.949c0.258-0.228,0.588-0.341,0.988-0.341
		c0.404,0,0.736,0.117,0.992,0.351c0.264,0.242,0.398,0.562,0.398,0.962C123.217,28.753,123.184,28.933,123.115,29.093z
		 M121.016,28.542c0,0.335,0.055,0.607,0.162,0.816c0.137,0.277,0.359,0.415,0.66,0.415c0.297,0,0.514-0.138,0.648-0.415
		c0.107-0.209,0.158-0.48,0.158-0.813c0-0.335-0.051-0.605-0.158-0.811c-0.141-0.272-0.361-0.407-0.664-0.407
		c-0.293,0-0.508,0.136-0.645,0.411C121.07,27.951,121.016,28.22,121.016,28.542z"/>
	<path fill="#D13239" d="M123.57,29.358v-0.266h0.527v-3.634c0-0.167-0.012-0.278-0.035-0.337c-0.039-0.1-0.129-0.153-0.268-0.162
		v-0.046c0.234-0.028,0.494-0.093,0.779-0.194v2.85c0.176-0.584,0.553-0.875,1.133-0.875c0.406,0,0.701,0.124,0.881,0.372
		c0.152,0.213,0.23,0.532,0.23,0.96v0.236c0,0.434,0.021,0.711,0.066,0.83h0.387v0.266H123.57z M126.4,29.093
		c-0.061-0.073-0.098-0.164-0.111-0.272v-0.749c0-0.344-0.041-0.598-0.127-0.766c-0.117-0.224-0.326-0.347-0.631-0.368
		c-0.463,0.03-0.746,0.314-0.85,0.855c-0.033,0.168-0.049,0.603-0.049,1.3H126.4z M125.061,25.9c0-0.106,0.037-0.194,0.111-0.267
		c0.072-0.071,0.164-0.107,0.271-0.107s0.199,0.035,0.271,0.105s0.107,0.159,0.107,0.269c0,0.107-0.037,0.195-0.109,0.264
		c-0.074,0.067-0.164,0.102-0.27,0.102c-0.107,0-0.199-0.034-0.271-0.102C125.098,26.096,125.061,26.008,125.061,25.9z"/>
	<path fill="#D13239" d="M127.188,29.093h1.355c-0.107-0.108-0.174-0.226-0.205-0.354c-0.02-0.084-0.029-0.239-0.029-0.464v-0.765
		c0-0.193-0.012-0.319-0.033-0.379c-0.039-0.119-0.135-0.183-0.285-0.192v-0.041c0.373-0.048,0.697-0.116,0.973-0.204
		c-0.023,0.335-0.035,0.682-0.035,1.044v0.44c0,0.358,0.008,0.578,0.021,0.657c0.045,0.271,0.162,0.436,0.352,0.496l-0.004,0.026
		h-2.109V29.093z M127.342,25.98c0-0.105,0.037-0.194,0.111-0.268c0.072-0.072,0.164-0.108,0.268-0.108
		c0.109,0,0.199,0.036,0.273,0.107c0.072,0.071,0.109,0.161,0.109,0.269c0,0.106-0.037,0.193-0.109,0.263
		c-0.074,0.069-0.164,0.104-0.273,0.104c-0.104,0-0.195-0.033-0.268-0.102C127.379,26.177,127.342,26.089,127.342,25.98z"/>
	<path fill="#D13239" d="M130.887,29.673c-0.547-0.313-0.82-0.744-0.82-1.294v-2.33c0-0.188-0.012-0.31-0.029-0.366
		c-0.039-0.111-0.131-0.173-0.275-0.182v-0.042c0.25-0.022,0.531-0.09,0.842-0.204c-0.021,0.313-0.029,0.66-0.025,1.04v2.088
		C130.592,28.865,130.693,29.294,130.887,29.673z M129.852,25.038v-0.095h0.137c-0.082-0.059-0.123-0.13-0.123-0.214
		c0-0.089,0.041-0.157,0.127-0.204c0.07-0.039,0.152-0.058,0.248-0.058c0.105,0,0.195,0.019,0.271,0.058l-0.033,0.146l-0.014-0.003
		c-0.039-0.112-0.109-0.168-0.207-0.168c-0.066,0-0.127,0.022-0.182,0.067c-0.053,0.045-0.078,0.1-0.078,0.162
		c0,0.075,0.047,0.147,0.143,0.214h0.338c0.023,0,0.051-0.011,0.076-0.032c-0.008,0.085-0.039,0.127-0.09,0.127H129.852z
		 M131.67,29.093h0.467v0.266h-0.57c-0.043,0.089-0.096,0.17-0.156,0.243c-0.189,0.24-0.508,0.359-0.953,0.359
		c-0.072,0-0.152-0.002-0.236-0.009c-0.061-0.005-0.15-0.015-0.268-0.029l0.174-0.562h0.033c0.027,0.13,0.088,0.239,0.18,0.328
		c0.068,0.063,0.168,0.098,0.303,0.098c0.049,0,0.102-0.005,0.162-0.014c0.186-0.028,0.314-0.183,0.383-0.464
		c0.049-0.203,0.07-0.481,0.059-0.836v-2.853c0-0.232-0.018-0.37-0.049-0.416c-0.037-0.14-0.133-0.214-0.285-0.223V24.94
		c0.248-0.033,0.527-0.1,0.836-0.201v3.738C131.748,28.704,131.723,28.909,131.67,29.093z"/>
	<path fill="#D13239" d="M132.043,29.093h0.756c-0.16-0.091-0.24-0.284-0.24-0.581v-2.965c0-0.188-0.01-0.311-0.029-0.366
		c-0.039-0.115-0.129-0.177-0.271-0.185v-0.043c0.248-0.022,0.527-0.089,0.838-0.2c-0.02,0.304-0.027,0.649-0.027,1.036v2.486
		c0,0.247,0.012,0.448,0.039,0.606c0.037,0.244,0.139,0.403,0.301,0.477h-1.365V29.093z"/>
	<path fill="#D13239" d="M136.928,29.093h0.801v0.266h-2.855c-0.191,0-0.301-0.144-0.33-0.432c0.102,0.111,0.199,0.166,0.295,0.166
		h1.307c0.363,0,0.564-0.249,0.602-0.749c-0.025-0.338-0.104-0.647-0.236-0.934c-0.174-0.387-0.404-0.58-0.688-0.58
		c-0.09,0-0.184,0.033-0.279,0.1c-0.096,0.067-0.164,0.144-0.203,0.228c-0.043,0.093-0.064,0.196-0.064,0.312
		c0,0.132,0.023,0.228,0.068,0.285c0.082,0.107,0.125,0.165,0.129,0.172c-0.01,0.011-0.045,0.02-0.107,0.025
		c-0.078-0.002-0.152-0.002-0.219-0.002c-0.115,0-0.311,0.006-0.588,0.019v-0.042c0.1-0.028,0.168-0.068,0.205-0.12
		c0.035-0.052,0.055-0.131,0.055-0.236v-0.12c0-0.098-0.004-0.195-0.01-0.295c0.281-0.285,0.627-0.428,1.041-0.428
		c0.408,0,0.758,0.164,1.049,0.492c0.283,0.316,0.426,0.679,0.426,1.09C137.324,28.633,137.191,28.894,136.928,29.093z"/>
	<path fill="#D13239" d="M142.012,29.093h0.744v0.266h-5.109v-0.266h1.057c-0.332-0.214-0.498-0.516-0.498-0.904
		c0-0.331,0.135-0.597,0.402-0.801c0.234-0.177,0.525-0.276,0.871-0.295l-0.045-0.561c0.207-0.07,0.432-0.107,0.674-0.113
		c0.24-0.005,0.479,0.025,0.713,0.091c0.465,0.13,0.863,0.37,1.193,0.722c0.273,0.297,0.412,0.622,0.412,0.977
		c0,0.071-0.006,0.144-0.016,0.217C142.365,28.717,142.23,28.938,142.012,29.093z M139.127,29.093h0.971
		c0.219-0.175,0.328-0.471,0.328-0.889c0-0.658-0.252-1.004-0.756-1.036c-0.043,0.084-0.08,0.18-0.109,0.287l-0.053-0.01
		l-0.02-0.271c-0.24,0.028-0.422,0.148-0.541,0.363c-0.1,0.174-0.148,0.396-0.148,0.661
		C138.799,28.622,138.908,28.92,139.127,29.093z M140.504,29.09c0.352-0.012,0.607-0.061,0.766-0.146
		c0.178-0.099,0.307-0.216,0.385-0.35c0.062-0.11,0.094-0.273,0.094-0.49c0-0.05-0.002-0.104-0.006-0.161
		c-0.018-0.305-0.104-0.57-0.26-0.795c-0.168-0.237-0.395-0.396-0.678-0.474c-0.105-0.029-0.207-0.045-0.305-0.045
		c-0.34,0-0.602,0.154-0.787,0.464c0.354,0.017,0.648,0.116,0.885,0.295c0.266,0.204,0.398,0.476,0.398,0.816
		C140.996,28.585,140.832,28.879,140.504,29.09z"/>
	<path fill="#D13239" d="M143.117,27.997c0-0.394,0.137-0.71,0.41-0.95c0.26-0.227,0.59-0.34,0.988-0.34
		c0.408,0,0.738,0.117,0.994,0.353c0.264,0.24,0.396,0.561,0.396,0.96c0,0.389-0.129,0.706-0.385,0.95
		c-0.049,0.046-0.102,0.086-0.158,0.123h0.918v0.266h-3.613v-0.266h0.994c-0.059-0.04-0.113-0.084-0.162-0.133
		C143.244,28.714,143.117,28.393,143.117,27.997z M143.707,28.01c0,0.525,0.121,0.886,0.365,1.083h0.9
		c0.242-0.199,0.361-0.559,0.361-1.08c0-0.333-0.053-0.603-0.16-0.811c-0.139-0.272-0.357-0.407-0.66-0.407
		c-0.293,0-0.508,0.137-0.648,0.411C143.76,27.42,143.707,27.688,143.707,28.01z M144.09,25.832c0-0.105,0.035-0.194,0.109-0.267
		c0.074-0.071,0.162-0.106,0.27-0.106s0.197,0.035,0.271,0.105c0.072,0.07,0.109,0.159,0.109,0.268c0,0.105-0.037,0.193-0.109,0.263
		c-0.074,0.068-0.164,0.103-0.271,0.103c-0.109,0-0.199-0.033-0.271-0.102C144.125,26.028,144.09,25.939,144.09,25.832z"/>
	<path fill="#D13239" d="M146.195,29.093h0.756c-0.16-0.091-0.24-0.284-0.24-0.581v-2.965c0-0.188-0.01-0.311-0.029-0.366
		c-0.039-0.115-0.129-0.177-0.271-0.185v-0.043c0.248-0.022,0.527-0.089,0.84-0.2c-0.02,0.304-0.029,0.649-0.029,1.036v2.486
		c0,0.247,0.014,0.448,0.039,0.606c0.037,0.244,0.139,0.403,0.301,0.477h-1.365V29.093z"/>
	<path fill="#D13239" d="M147.947,29.375l-0.004-0.043c0.178-0.051,0.289-0.197,0.33-0.437c0.016-0.078,0.021-0.279,0.021-0.601
		v-2.748c0-0.188-0.008-0.311-0.027-0.366c-0.039-0.115-0.131-0.177-0.275-0.185v-0.043c0.25-0.022,0.531-0.089,0.842-0.2
		c-0.02,0.304-0.027,0.649-0.025,1.036v2.486c0.018,0.349,0.029,0.552,0.035,0.609c0.039,0.251,0.148,0.4,0.328,0.447v0.043
		c-0.205-0.012-0.404-0.017-0.598-0.017C148.324,29.358,148.115,29.363,147.947,29.375z"/>
</g>
<g>
	<path fill="#D13239" d="M35.356,28.029h-1.557l-0.273,0.635c-0.067,0.156-0.101,0.272-0.101,0.35c0,0.062,0.029,0.116,0.088,0.162
		c0.058,0.047,0.184,0.076,0.377,0.09v0.109h-1.266v-0.109c0.168-0.029,0.276-0.067,0.326-0.115
		c0.101-0.095,0.213-0.288,0.334-0.578l1.416-3.311h0.103l1.4,3.347c0.113,0.269,0.216,0.443,0.308,0.523s0.219,0.125,0.384,0.134
		v0.109h-1.587v-0.109c0.16-0.008,0.269-0.034,0.325-0.079c0.056-0.046,0.084-0.101,0.084-0.167c0-0.087-0.04-0.224-0.119-0.411
		L35.356,28.029z M35.273,27.811l-0.683-1.626l-0.7,1.626H35.273z"/>
	<path fill="#D13239" d="M38.087,25.158v3.604c0,0.169,0.012,0.281,0.037,0.337s0.063,0.098,0.114,0.126
		c0.051,0.029,0.147,0.044,0.288,0.044v0.105h-1.332V29.27c0.125,0,0.209-0.013,0.255-0.039c0.045-0.025,0.082-0.068,0.107-0.128
		c0.025-0.059,0.038-0.173,0.038-0.34v-2.468c0-0.307-0.007-0.494-0.021-0.565c-0.014-0.07-0.036-0.118-0.067-0.144
		c-0.031-0.026-0.07-0.039-0.117-0.039c-0.051,0-0.117,0.016-0.196,0.047l-0.05-0.103l0.81-0.333H38.087z"/>
	<path fill="#D13239" d="M41.412,25.573v1.582h0.733c0.168,0,0.291-0.037,0.369-0.112c0.078-0.074,0.13-0.221,0.155-0.439h0.11v1.36
		h-0.11c-0.002-0.155-0.022-0.271-0.061-0.344s-0.092-0.129-0.16-0.165c-0.068-0.035-0.17-0.055-0.304-0.055h-0.733v1.264
		c0,0.204,0.013,0.339,0.039,0.403c0.019,0.05,0.061,0.092,0.125,0.128c0.087,0.048,0.177,0.07,0.272,0.07h0.146v0.109h-1.726
		v-0.109h0.143c0.166,0,0.286-0.048,0.361-0.146c0.048-0.062,0.072-0.215,0.072-0.456v-2.599c0-0.203-0.013-0.337-0.04-0.402
		c-0.019-0.05-0.06-0.092-0.121-0.127c-0.085-0.048-0.176-0.072-0.272-0.072h-0.143v-0.11h2.993l0.038,0.884h-0.104
		c-0.052-0.187-0.112-0.325-0.18-0.413c-0.068-0.088-0.152-0.151-0.252-0.191c-0.1-0.039-0.254-0.06-0.464-0.06H41.412z"/>
	<path fill="#D13239" d="M45.277,28.984c-0.279,0.216-0.454,0.341-0.525,0.374c-0.106,0.049-0.221,0.073-0.341,0.073
		c-0.188,0-0.342-0.063-0.464-0.192s-0.182-0.298-0.182-0.508c0-0.132,0.029-0.246,0.088-0.344c0.081-0.134,0.223-0.261,0.423-0.379
		c0.201-0.118,0.535-0.263,1.001-0.433v-0.107c0-0.271-0.043-0.457-0.129-0.558s-0.211-0.151-0.375-0.151
		c-0.124,0-0.223,0.033-0.296,0.102c-0.075,0.066-0.113,0.145-0.113,0.23l0.006,0.173c0,0.091-0.023,0.161-0.07,0.211
		c-0.046,0.048-0.107,0.073-0.183,0.073c-0.073,0-0.133-0.025-0.179-0.077c-0.047-0.051-0.07-0.121-0.07-0.211
		c0-0.17,0.087-0.325,0.261-0.468c0.174-0.143,0.418-0.214,0.733-0.214c0.242,0,0.438,0.04,0.593,0.121
		c0.116,0.062,0.202,0.157,0.258,0.288c0.035,0.085,0.053,0.26,0.053,0.522v0.922c0,0.259,0.005,0.418,0.015,0.477
		c0.01,0.058,0.026,0.097,0.048,0.117c0.023,0.02,0.05,0.029,0.079,0.029c0.032,0,0.059-0.007,0.083-0.021
		c0.042-0.026,0.122-0.099,0.24-0.217v0.166c-0.221,0.297-0.433,0.445-0.635,0.445c-0.097,0-0.174-0.033-0.231-0.102
		C45.308,29.261,45.278,29.146,45.277,28.984z M45.277,28.792v-1.036c-0.299,0.119-0.492,0.203-0.579,0.253
		c-0.156,0.087-0.268,0.178-0.335,0.273c-0.067,0.094-0.101,0.197-0.101,0.311c0,0.143,0.042,0.261,0.127,0.354
		s0.183,0.141,0.293,0.141C44.834,29.088,45.031,28.989,45.277,28.792z"/>
	<path fill="#D13239" d="M47.231,25.158v1.987c0.219-0.241,0.394-0.396,0.522-0.464s0.257-0.103,0.385-0.103
		c0.154,0,0.287,0.042,0.397,0.128c0.111,0.084,0.193,0.219,0.246,0.4c0.038,0.126,0.057,0.357,0.057,0.693v0.962
		c0,0.172,0.014,0.289,0.042,0.352c0.02,0.048,0.053,0.086,0.101,0.113c0.047,0.028,0.134,0.042,0.261,0.042v0.105h-1.334V29.27
		h0.062c0.127,0,0.214-0.021,0.264-0.058c0.049-0.039,0.084-0.096,0.104-0.172c0.006-0.031,0.009-0.124,0.009-0.277v-0.962
		c0-0.297-0.015-0.491-0.046-0.584c-0.031-0.094-0.079-0.163-0.146-0.209c-0.067-0.047-0.148-0.069-0.243-0.069
		c-0.097,0-0.198,0.024-0.303,0.077c-0.104,0.051-0.23,0.154-0.376,0.312v1.436c0,0.186,0.01,0.301,0.031,0.347
		c0.021,0.046,0.059,0.083,0.116,0.114c0.056,0.03,0.153,0.046,0.292,0.046v0.105h-1.347V29.27c0.121,0,0.215-0.02,0.285-0.057
		c0.04-0.02,0.071-0.058,0.095-0.113s0.036-0.168,0.036-0.337v-2.459c0-0.311-0.008-0.502-0.022-0.572
		c-0.015-0.071-0.038-0.12-0.068-0.146c-0.031-0.026-0.072-0.039-0.124-0.039c-0.042,0-0.108,0.016-0.202,0.047l-0.042-0.103
		l0.813-0.333H47.231z"/>
	<path fill="#D13239" d="M51.009,28.984c-0.278,0.216-0.454,0.341-0.525,0.374c-0.106,0.049-0.22,0.073-0.341,0.073
		c-0.188,0-0.342-0.063-0.464-0.192s-0.182-0.298-0.182-0.508c0-0.132,0.029-0.246,0.088-0.344c0.081-0.134,0.223-0.261,0.423-0.379
		c0.201-0.118,0.535-0.263,1-0.433v-0.107c0-0.271-0.042-0.457-0.128-0.558s-0.211-0.151-0.375-0.151
		c-0.125,0-0.223,0.033-0.296,0.102c-0.075,0.066-0.113,0.145-0.113,0.23l0.006,0.173c0,0.091-0.023,0.161-0.07,0.211
		c-0.046,0.048-0.107,0.073-0.182,0.073c-0.073,0-0.133-0.025-0.179-0.077c-0.046-0.051-0.07-0.121-0.07-0.211
		c0-0.17,0.087-0.325,0.261-0.468c0.174-0.143,0.418-0.214,0.733-0.214c0.241,0,0.438,0.04,0.592,0.121
		c0.117,0.062,0.203,0.157,0.259,0.288c0.035,0.085,0.053,0.26,0.053,0.522v0.922c0,0.259,0.005,0.418,0.015,0.477
		c0.01,0.058,0.026,0.097,0.048,0.117c0.023,0.02,0.049,0.029,0.079,0.029c0.032,0,0.06-0.007,0.083-0.021
		c0.042-0.026,0.122-0.099,0.24-0.217v0.166c-0.221,0.297-0.434,0.445-0.635,0.445c-0.097,0-0.174-0.033-0.231-0.102
		C51.041,29.261,51.011,29.146,51.009,28.984z M51.009,28.792v-1.036c-0.298,0.119-0.491,0.203-0.578,0.253
		c-0.156,0.087-0.268,0.178-0.336,0.273c-0.066,0.094-0.1,0.197-0.1,0.311c0,0.143,0.042,0.261,0.127,0.354s0.183,0.141,0.293,0.141
		C50.566,29.088,50.764,28.989,51.009,28.792z"/>
	<path fill="#D13239" d="M54.084,29.07c-0.132,0.139-0.262,0.237-0.389,0.298c-0.126,0.062-0.263,0.091-0.409,0.091
		c-0.297,0-0.556-0.124-0.777-0.373c-0.221-0.248-0.332-0.566-0.332-0.955c0-0.39,0.123-0.746,0.368-1.069
		c0.245-0.324,0.561-0.485,0.946-0.485c0.239,0,0.437,0.076,0.593,0.229v-0.501c0-0.311-0.007-0.502-0.022-0.572
		c-0.015-0.071-0.038-0.12-0.07-0.146c-0.032-0.026-0.071-0.039-0.119-0.039c-0.051,0-0.12,0.016-0.205,0.047l-0.039-0.103
		l0.81-0.333h0.134V28.3c0,0.317,0.007,0.512,0.022,0.582c0.014,0.07,0.038,0.119,0.071,0.146c0.033,0.028,0.071,0.042,0.114,0.042
		c0.053,0,0.125-0.018,0.213-0.051l0.033,0.104l-0.807,0.336h-0.137V29.07z M54.084,28.862v-1.399
		c-0.012-0.135-0.047-0.257-0.107-0.368c-0.059-0.11-0.138-0.193-0.235-0.25c-0.098-0.056-0.193-0.085-0.287-0.085
		c-0.173,0-0.329,0.078-0.465,0.235c-0.18,0.205-0.27,0.506-0.27,0.9c0,0.4,0.087,0.706,0.261,0.918
		c0.174,0.213,0.368,0.318,0.581,0.318C53.742,29.132,53.917,29.042,54.084,28.862z"/>
	<path fill="#D13239" d="M59.316,25.262v1.392h-0.11c-0.035-0.267-0.1-0.479-0.191-0.638c-0.092-0.157-0.223-0.283-0.393-0.376
		s-0.346-0.14-0.528-0.14c-0.206,0-0.375,0.062-0.51,0.188c-0.134,0.126-0.201,0.269-0.201,0.43c0,0.121,0.042,0.233,0.127,0.335
		c0.123,0.148,0.415,0.346,0.875,0.593c0.375,0.202,0.632,0.355,0.769,0.464c0.138,0.107,0.244,0.235,0.318,0.382
		c0.074,0.146,0.111,0.299,0.111,0.46c0,0.304-0.118,0.565-0.354,0.786s-0.54,0.331-0.912,0.331c-0.117,0-0.227-0.009-0.33-0.026
		c-0.061-0.011-0.188-0.046-0.38-0.108c-0.193-0.063-0.315-0.094-0.367-0.094c-0.049,0-0.088,0.015-0.116,0.045
		c-0.029,0.029-0.05,0.091-0.064,0.184h-0.11v-1.379h0.11c0.051,0.288,0.121,0.505,0.208,0.648c0.087,0.143,0.22,0.262,0.399,0.356
		c0.179,0.096,0.375,0.143,0.589,0.143c0.247,0,0.442-0.065,0.585-0.196c0.143-0.13,0.215-0.284,0.215-0.462
		c0-0.1-0.027-0.199-0.082-0.3c-0.055-0.1-0.139-0.194-0.253-0.282c-0.078-0.059-0.288-0.185-0.631-0.378
		c-0.344-0.192-0.589-0.347-0.734-0.461c-0.146-0.114-0.256-0.241-0.331-0.38c-0.075-0.138-0.112-0.29-0.112-0.456
		c0-0.289,0.11-0.537,0.332-0.746c0.221-0.209,0.503-0.313,0.846-0.313c0.213,0,0.439,0.054,0.679,0.158
		c0.111,0.049,0.189,0.073,0.234,0.073c0.051,0,0.093-0.015,0.126-0.046c0.033-0.03,0.059-0.093,0.078-0.186H59.316z"/>
	<path fill="#D13239" d="M60.556,27.683c-0.002,0.403,0.095,0.719,0.293,0.948c0.198,0.229,0.43,0.345,0.697,0.345
		c0.178,0,0.333-0.05,0.464-0.146c0.132-0.099,0.242-0.267,0.331-0.503l0.092,0.06c-0.042,0.271-0.163,0.517-0.362,0.739
		c-0.2,0.224-0.45,0.334-0.75,0.334c-0.326,0-0.606-0.127-0.837-0.382c-0.232-0.254-0.349-0.595-0.349-1.024
		c0-0.464,0.12-0.827,0.357-1.086c0.239-0.26,0.538-0.391,0.897-0.391c0.305,0,0.554,0.101,0.75,0.302
		c0.195,0.2,0.293,0.469,0.293,0.805H60.556z M60.556,27.511h1.257c-0.01-0.174-0.031-0.297-0.062-0.368
		c-0.049-0.111-0.123-0.198-0.221-0.261c-0.098-0.063-0.2-0.095-0.307-0.095c-0.165,0-0.311,0.063-0.44,0.19
		C60.653,27.105,60.577,27.283,60.556,27.511z"/>
	<path fill="#D13239" d="M65.102,28.344c-0.073,0.357-0.216,0.633-0.43,0.826c-0.213,0.192-0.449,0.289-0.708,0.289
		c-0.309,0-0.578-0.13-0.807-0.389c-0.229-0.26-0.344-0.608-0.344-1.05c0-0.428,0.127-0.773,0.381-1.041
		c0.254-0.268,0.559-0.4,0.915-0.4c0.267,0,0.487,0.071,0.659,0.212c0.172,0.142,0.258,0.288,0.258,0.44
		c0,0.075-0.025,0.136-0.073,0.183c-0.049,0.047-0.116,0.069-0.203,0.069c-0.117,0-0.205-0.037-0.264-0.112
		c-0.034-0.042-0.056-0.121-0.067-0.237s-0.051-0.206-0.12-0.267c-0.069-0.06-0.165-0.09-0.288-0.09
		c-0.198,0-0.356,0.073-0.477,0.22c-0.161,0.193-0.241,0.45-0.241,0.769c0,0.323,0.08,0.61,0.239,0.859
		c0.159,0.247,0.374,0.371,0.645,0.371c0.194,0,0.367-0.066,0.522-0.198c0.108-0.091,0.214-0.256,0.317-0.495L65.102,28.344z"/>
	<path fill="#D13239" d="M67.872,26.659v1.646c0,0.314,0.007,0.507,0.022,0.577c0.016,0.07,0.039,0.119,0.071,0.146
		c0.033,0.028,0.071,0.042,0.114,0.042c0.062,0,0.13-0.018,0.208-0.051l0.042,0.104l-0.813,0.336h-0.134v-0.575
		c-0.233,0.253-0.411,0.412-0.534,0.478c-0.123,0.065-0.252,0.098-0.388,0.098c-0.153,0-0.285-0.044-0.396-0.132
		c-0.112-0.089-0.189-0.201-0.233-0.34c-0.043-0.139-0.065-0.334-0.065-0.588v-1.212c0-0.129-0.014-0.218-0.042-0.268
		c-0.027-0.049-0.068-0.087-0.123-0.114c-0.054-0.027-0.152-0.039-0.295-0.037v-0.109h0.952v1.818c0,0.253,0.044,0.419,0.132,0.498
		s0.194,0.118,0.319,0.118c0.085,0,0.182-0.026,0.289-0.08s0.236-0.155,0.384-0.306v-1.539c0-0.153-0.028-0.258-0.084-0.312
		c-0.056-0.056-0.173-0.085-0.352-0.089v-0.109H67.872z"/>
	<path fill="#D13239" d="M69.323,26.579v0.611c0.227-0.408,0.46-0.611,0.7-0.611c0.108,0,0.198,0.033,0.27,0.1
		c0.071,0.065,0.106,0.143,0.106,0.229c0,0.077-0.025,0.143-0.076,0.196c-0.052,0.053-0.113,0.079-0.184,0.079
		c-0.069,0-0.147-0.033-0.233-0.102c-0.086-0.068-0.15-0.103-0.191-0.103c-0.035,0-0.074,0.02-0.115,0.06
		c-0.089,0.081-0.181,0.214-0.275,0.4v1.302c0,0.149,0.018,0.265,0.056,0.341c0.025,0.053,0.071,0.098,0.137,0.134
		c0.065,0.035,0.159,0.054,0.282,0.054v0.105h-1.391V29.27c0.138,0,0.241-0.022,0.309-0.066c0.049-0.03,0.084-0.082,0.104-0.151
		c0.01-0.033,0.015-0.129,0.015-0.287v-1.053c0-0.316-0.007-0.505-0.02-0.565c-0.013-0.06-0.036-0.104-0.071-0.131
		c-0.035-0.028-0.078-0.043-0.129-0.043c-0.061,0-0.13,0.016-0.208,0.046l-0.03-0.107l0.822-0.332H69.323z"/>
	<path fill="#D13239" d="M71.487,26.579v2.184c0,0.169,0.012,0.282,0.037,0.339c0.025,0.057,0.062,0.099,0.11,0.126
		c0.049,0.028,0.137,0.042,0.266,0.042v0.105H70.58V29.27c0.132,0,0.221-0.013,0.267-0.039c0.045-0.025,0.082-0.068,0.108-0.128
		c0.027-0.059,0.04-0.173,0.04-0.34v-1.048c0-0.294-0.009-0.485-0.026-0.572c-0.014-0.063-0.035-0.107-0.065-0.133
		c-0.029-0.024-0.07-0.037-0.122-0.037c-0.055,0-0.122,0.016-0.201,0.046l-0.042-0.107l0.818-0.332H71.487z M71.241,25.158
		c0.083,0,0.154,0.03,0.212,0.088c0.059,0.059,0.087,0.129,0.087,0.211c0,0.084-0.029,0.155-0.087,0.215
		c-0.058,0.06-0.129,0.089-0.212,0.089s-0.154-0.029-0.213-0.089c-0.06-0.06-0.089-0.131-0.089-0.215
		c0-0.082,0.029-0.152,0.087-0.211C71.085,25.188,71.156,25.158,71.241,25.158z"/>
	<path fill="#D13239" d="M73.027,25.767v0.893h0.634v0.208h-0.634v1.761c0,0.177,0.025,0.295,0.075,0.356
		c0.051,0.062,0.115,0.092,0.195,0.092c0.064,0,0.128-0.021,0.189-0.061c0.062-0.041,0.109-0.101,0.143-0.18h0.116
		c-0.069,0.193-0.167,0.34-0.293,0.438c-0.127,0.098-0.257,0.146-0.392,0.146c-0.091,0-0.18-0.024-0.267-0.075
		c-0.086-0.051-0.151-0.122-0.192-0.217c-0.042-0.094-0.062-0.238-0.062-0.434v-1.827h-0.43v-0.099
		c0.108-0.043,0.22-0.117,0.333-0.221s0.215-0.227,0.304-0.368c0.045-0.076,0.108-0.214,0.189-0.413H73.027z"/>
	<path fill="#D13239" d="M73.771,26.659h1.266v0.109h-0.062c-0.089,0-0.156,0.021-0.201,0.058c-0.044,0.039-0.066,0.087-0.066,0.146
		c0,0.076,0.032,0.184,0.098,0.32l0.661,1.369l0.609-1.5c0.033-0.082,0.049-0.162,0.049-0.241c0-0.035-0.006-0.062-0.02-0.079
		c-0.016-0.022-0.041-0.04-0.074-0.052c-0.034-0.014-0.093-0.021-0.178-0.021v-0.109h0.885v0.109
		c-0.074,0.009-0.131,0.024-0.17,0.048c-0.039,0.024-0.084,0.068-0.131,0.133c-0.018,0.028-0.051,0.104-0.102,0.229L75.23,29.89
		c-0.106,0.263-0.246,0.461-0.419,0.596c-0.173,0.135-0.339,0.201-0.5,0.201c-0.117,0-0.213-0.033-0.288-0.101
		c-0.076-0.067-0.113-0.145-0.113-0.231c0-0.084,0.027-0.15,0.082-0.2s0.129-0.075,0.224-0.075c0.065,0,0.154,0.021,0.267,0.064
		c0.079,0.03,0.129,0.045,0.148,0.045c0.061,0,0.125-0.031,0.194-0.092c0.07-0.062,0.142-0.18,0.212-0.356l0.193-0.471l-0.976-2.05
		c-0.029-0.062-0.077-0.138-0.142-0.229c-0.05-0.069-0.09-0.115-0.122-0.139c-0.045-0.032-0.119-0.06-0.22-0.084V26.659z"/>
	<path fill="#D13239" d="M81.076,25.262v1.392h-0.111c-0.035-0.267-0.098-0.479-0.189-0.638c-0.092-0.157-0.225-0.283-0.393-0.376
		c-0.172-0.093-0.348-0.14-0.529-0.14c-0.205,0-0.375,0.062-0.51,0.188c-0.135,0.126-0.201,0.269-0.201,0.43
		c0,0.121,0.041,0.233,0.127,0.335c0.123,0.148,0.414,0.346,0.875,0.593c0.375,0.202,0.633,0.355,0.77,0.464
		c0.139,0.107,0.242,0.235,0.316,0.382c0.074,0.146,0.113,0.299,0.113,0.46c0,0.304-0.119,0.565-0.357,0.786
		c-0.234,0.221-0.539,0.331-0.91,0.331c-0.117,0-0.227-0.009-0.33-0.026c-0.061-0.011-0.188-0.046-0.379-0.108
		c-0.195-0.063-0.314-0.094-0.367-0.094c-0.051,0-0.09,0.015-0.117,0.045c-0.029,0.029-0.051,0.091-0.064,0.184h-0.109v-1.379h0.109
		c0.053,0.288,0.123,0.505,0.209,0.648c0.086,0.143,0.219,0.262,0.398,0.356c0.18,0.096,0.375,0.143,0.588,0.143
		c0.248,0,0.443-0.065,0.586-0.196c0.145-0.13,0.215-0.284,0.215-0.462c0-0.1-0.027-0.199-0.08-0.3
		c-0.057-0.1-0.141-0.194-0.254-0.282c-0.078-0.059-0.289-0.185-0.633-0.378c-0.344-0.192-0.588-0.347-0.732-0.461
		c-0.146-0.114-0.258-0.241-0.332-0.38c-0.074-0.138-0.113-0.29-0.113-0.456c0-0.289,0.111-0.537,0.332-0.746
		c0.223-0.209,0.504-0.313,0.846-0.313c0.215,0,0.439,0.054,0.68,0.158c0.111,0.049,0.188,0.073,0.234,0.073
		c0.051,0,0.094-0.015,0.125-0.046c0.033-0.03,0.059-0.093,0.078-0.186H81.076z"/>
	<path fill="#D13239" d="M81.705,26.659h1.266v0.109h-0.062c-0.088,0-0.156,0.021-0.199,0.058c-0.045,0.039-0.068,0.087-0.068,0.146
		c0,0.076,0.033,0.184,0.1,0.32l0.66,1.369l0.609-1.5c0.033-0.082,0.049-0.162,0.049-0.241c0-0.035-0.006-0.062-0.02-0.079
		c-0.018-0.022-0.043-0.04-0.076-0.052c-0.031-0.014-0.092-0.021-0.176-0.021v-0.109h0.883v0.109
		c-0.072,0.009-0.129,0.024-0.17,0.048c-0.039,0.024-0.082,0.068-0.131,0.133c-0.018,0.028-0.051,0.104-0.1,0.229l-1.105,2.711
		c-0.107,0.263-0.248,0.461-0.42,0.596c-0.174,0.135-0.34,0.201-0.5,0.201c-0.117,0-0.213-0.033-0.287-0.101
		s-0.113-0.145-0.113-0.231c0-0.084,0.027-0.15,0.082-0.2s0.129-0.075,0.223-0.075c0.066,0,0.154,0.021,0.268,0.064
		c0.08,0.03,0.129,0.045,0.148,0.045c0.059,0,0.123-0.031,0.193-0.092c0.07-0.062,0.141-0.18,0.213-0.356l0.193-0.471l-0.977-2.05
		c-0.029-0.062-0.076-0.138-0.143-0.229c-0.049-0.069-0.09-0.115-0.121-0.139c-0.045-0.032-0.119-0.06-0.219-0.084V26.659z"/>
	<path fill="#D13239" d="M86.65,26.579v0.925h-0.098c-0.074-0.29-0.17-0.487-0.289-0.593c-0.117-0.104-0.268-0.157-0.449-0.157
		c-0.139,0-0.25,0.037-0.334,0.109c-0.086,0.074-0.129,0.155-0.129,0.244c0,0.11,0.031,0.205,0.096,0.284
		c0.062,0.082,0.186,0.167,0.373,0.259l0.434,0.21c0.402,0.195,0.602,0.454,0.602,0.774c0,0.246-0.094,0.446-0.279,0.598
		c-0.188,0.151-0.396,0.227-0.629,0.227c-0.164,0-0.355-0.029-0.568-0.089c-0.064-0.02-0.119-0.03-0.16-0.03
		c-0.045,0-0.08,0.026-0.107,0.077h-0.098v-0.97h0.098c0.055,0.276,0.162,0.485,0.318,0.626c0.154,0.141,0.33,0.211,0.523,0.211
		c0.137,0,0.248-0.04,0.334-0.12s0.129-0.177,0.129-0.289c0-0.137-0.047-0.251-0.145-0.345c-0.096-0.093-0.287-0.21-0.572-0.352
		c-0.287-0.144-0.475-0.271-0.564-0.387c-0.088-0.112-0.133-0.255-0.133-0.427c0-0.223,0.076-0.411,0.23-0.561
		c0.152-0.15,0.35-0.226,0.594-0.226c0.107,0,0.236,0.022,0.389,0.068c0.1,0.029,0.168,0.044,0.201,0.044s0.057-0.006,0.074-0.021
		c0.02-0.014,0.039-0.044,0.062-0.092H86.65z"/>
	<path fill="#D13239" d="M88.049,25.767v0.893h0.633v0.208h-0.633v1.761c0,0.177,0.023,0.295,0.074,0.356s0.115,0.092,0.195,0.092
		c0.064,0,0.129-0.021,0.189-0.061c0.061-0.041,0.107-0.101,0.143-0.18h0.115c-0.068,0.193-0.166,0.34-0.293,0.438
		s-0.258,0.146-0.391,0.146c-0.092,0-0.182-0.024-0.268-0.075c-0.088-0.051-0.152-0.122-0.193-0.217
		c-0.043-0.094-0.062-0.238-0.062-0.434v-1.827h-0.43v-0.099c0.107-0.043,0.219-0.117,0.334-0.221
		c0.113-0.104,0.215-0.227,0.303-0.368c0.045-0.076,0.109-0.214,0.191-0.413H88.049z"/>
	<path fill="#D13239" d="M89.404,27.683c-0.004,0.403,0.096,0.719,0.293,0.948s0.43,0.345,0.695,0.345
		c0.18,0,0.334-0.05,0.465-0.146c0.131-0.099,0.242-0.267,0.33-0.503l0.092,0.06c-0.041,0.271-0.162,0.517-0.359,0.739
		c-0.201,0.224-0.451,0.334-0.752,0.334c-0.326,0-0.605-0.127-0.838-0.382c-0.232-0.254-0.35-0.595-0.35-1.024
		c0-0.464,0.121-0.827,0.359-1.086c0.236-0.26,0.537-0.391,0.896-0.391c0.305,0,0.555,0.101,0.75,0.302
		c0.197,0.2,0.293,0.469,0.293,0.805H89.404z M89.404,27.511h1.256c-0.01-0.174-0.029-0.297-0.062-0.368
		c-0.049-0.111-0.123-0.198-0.221-0.261c-0.098-0.063-0.201-0.095-0.307-0.095c-0.164,0-0.311,0.063-0.439,0.19
		C89.5,27.105,89.424,27.283,89.404,27.511z"/>
	<path fill="#D13239" d="M92.447,27.157c0.199-0.197,0.316-0.312,0.352-0.341c0.088-0.074,0.186-0.133,0.287-0.175
		c0.104-0.041,0.205-0.062,0.305-0.062c0.172,0,0.318,0.049,0.439,0.148c0.123,0.099,0.205,0.242,0.248,0.43
		c0.203-0.237,0.375-0.393,0.516-0.467c0.139-0.074,0.285-0.111,0.432-0.111c0.145,0,0.273,0.037,0.385,0.111
		s0.201,0.195,0.266,0.362c0.043,0.115,0.064,0.296,0.064,0.54v1.17c0,0.169,0.014,0.286,0.039,0.349
		c0.02,0.044,0.057,0.081,0.109,0.112c0.053,0.03,0.141,0.046,0.262,0.046v0.105h-1.34V29.27h0.055c0.117,0,0.209-0.022,0.273-0.068
		c0.045-0.032,0.078-0.082,0.098-0.151c0.008-0.033,0.014-0.129,0.014-0.287v-1.17c0-0.221-0.027-0.377-0.082-0.468
		c-0.078-0.127-0.199-0.189-0.371-0.189c-0.104,0-0.209,0.025-0.314,0.078c-0.105,0.052-0.234,0.149-0.385,0.292l-0.006,0.033
		l0.006,0.127v1.297c0,0.186,0.012,0.301,0.031,0.347s0.061,0.083,0.117,0.114c0.059,0.03,0.154,0.046,0.293,0.046v0.105h-1.373
		V29.27c0.15,0,0.254-0.019,0.311-0.054c0.057-0.036,0.096-0.089,0.117-0.16c0.01-0.034,0.014-0.131,0.014-0.293v-1.17
		c0-0.221-0.033-0.38-0.098-0.478c-0.086-0.126-0.209-0.188-0.365-0.188c-0.105,0-0.211,0.027-0.316,0.085
		c-0.164,0.087-0.289,0.186-0.381,0.294v1.457c0,0.177,0.014,0.293,0.039,0.347c0.025,0.053,0.061,0.093,0.109,0.119
		c0.049,0.027,0.146,0.041,0.295,0.041v0.105h-1.344V29.27c0.125,0,0.211-0.014,0.262-0.041c0.049-0.026,0.088-0.068,0.111-0.127
		c0.025-0.059,0.041-0.172,0.041-0.339v-1.039c0-0.298-0.01-0.49-0.027-0.578c-0.014-0.065-0.037-0.11-0.066-0.136
		c-0.029-0.024-0.07-0.037-0.121-0.037c-0.057,0-0.121,0.016-0.199,0.046l-0.043-0.107l0.818-0.332h0.125V27.157z"/>
	<path fill="#D13239" d="M98.121,26.579v0.925h-0.096c-0.076-0.29-0.174-0.487-0.291-0.593c-0.117-0.104-0.268-0.157-0.449-0.157
		c-0.137,0-0.25,0.037-0.334,0.109c-0.086,0.074-0.127,0.155-0.127,0.244c0,0.11,0.031,0.205,0.094,0.284
		c0.062,0.082,0.186,0.167,0.375,0.259l0.432,0.21c0.4,0.195,0.604,0.454,0.604,0.774c0,0.246-0.094,0.446-0.281,0.598
		s-0.396,0.227-0.627,0.227c-0.168,0-0.355-0.029-0.57-0.089c-0.064-0.02-0.117-0.03-0.16-0.03c-0.045,0-0.082,0.026-0.107,0.077
		h-0.096v-0.97h0.096c0.057,0.276,0.162,0.485,0.318,0.626s0.33,0.211,0.525,0.211c0.137,0,0.248-0.04,0.334-0.12
		s0.129-0.177,0.129-0.289c0-0.137-0.049-0.251-0.145-0.345c-0.096-0.093-0.287-0.21-0.574-0.352
		c-0.287-0.144-0.473-0.271-0.564-0.387c-0.088-0.112-0.133-0.255-0.133-0.427c0-0.223,0.078-0.411,0.23-0.561
		c0.154-0.15,0.352-0.226,0.594-0.226c0.107,0,0.238,0.022,0.389,0.068c0.102,0.029,0.17,0.044,0.203,0.044
		c0.031,0,0.055-0.006,0.072-0.021c0.02-0.014,0.039-0.044,0.064-0.092H98.121z"/>
</g>
<path fill="#D13239" d="M28.331,19.092l-3.452-3.452l-2.79,2.79l-1.844,1.845l0,0h1.285c-0.37,0.817-0.891,1.572-1.551,2.231
	c-1.343,1.343-3.129,2.124-5.029,2.201c-2.012,0.082-3.937-0.627-5.418-1.993s-2.342-3.229-2.423-5.24
	c-0.086-2.131,0.697-4.134,2.206-5.643c1.343-1.342,3.129-2.124,5.029-2.201c1.018-0.041,2.013,0.121,2.94,0.467L12.6,14.779
	l-1.059-1.059l0,0v6.554h6.554l0,0l-1.059-1.06l4.681-4.682l2.699-2.699h0c0-0.001,0-0.001,0-0.001
	c1.217-1.218,1.223-3.187,0.02-4.413c-0.008-0.006-0.013-0.015-0.02-0.022c-0.015-0.014-0.03-0.025-0.044-0.04
	c-0.735-0.728-1.548-1.375-2.429-1.923c-2.272-1.417-4.978-2.19-7.854-2.074c-3.611,0.146-6.844,1.665-9.212,4.035
	c-2.634,2.633-4.201,6.315-4.039,10.33c0.307,7.625,6.738,13.558,14.363,13.25c3.61-0.145,6.843-1.664,9.212-4.034
	c1.806-1.807,3.11-4.104,3.699-6.667h1.399h0.001L28.331,19.092z"/>
</svg>
