<?xml version="1.0" encoding="utf-8"?>
<!-- Generator: Adobe Illustrator 16.0.0, SVG Export Plug-In . SVG Version: 6.00 Build 0)  -->
<!DOCTYPE svg PUBLIC "-//W3C//DTD SVG 1.1//EN" "http://www.w3.org/Graphics/SVG/1.1/DTD/svg11.dtd">
<svg version="1.1" id="Layer_1" xmlns="http://www.w3.org/2000/svg" xmlns:xlink="http://www.w3.org/1999/xlink" x="0px" y="0px"
	 width="150px" height="35px" viewBox="0 0 150 35" enable-background="new 0 0 150 35" xml:space="preserve">
<path fill="#D13239" d="M33.229,20.016L29.2,15.984l-3.258,3.258l-2.153,2.154l0,0h1.5c-0.432,0.953-1.04,1.834-1.811,2.605
	c-1.569,1.566-3.653,2.479-5.871,2.568c-2.351,0.096-4.597-0.732-6.327-2.326c-1.729-1.596-2.733-3.77-2.828-6.119
	c-0.101-2.488,0.814-4.826,2.576-6.588c1.567-1.566,3.653-2.479,5.871-2.568c1.189-0.048,2.351,0.14,3.433,0.544l-5.468,5.467
	l-1.236-1.238l0,0v7.654h7.652v-0.002l-1.236-1.236l5.465-5.465l3.151-3.151c0,0,0,0,0,0c0,0,0.001,0,0.001,0
	c1.421-1.422,1.428-3.721,0.024-5.152c-0.009-0.008-0.016-0.018-0.024-0.026c-0.016-0.017-0.035-0.031-0.051-0.046
	c-0.858-0.85-1.808-1.605-2.835-2.246c-2.652-1.653-5.812-2.556-9.169-2.42C12.388,1.82,8.614,3.594,5.85,6.36
	c-3.074,3.074-4.904,7.373-4.715,12.058C1.493,27.32,9,34.248,17.903,33.889c4.215-0.17,7.99-1.945,10.754-4.709
	c2.109-2.109,3.632-4.793,4.319-7.783h1.633h0.001L33.229,20.016z"/>
<g>
	<path d="M45.47,5.901v7.312h0.358c1.14,0,1.965-0.357,2.478-1.073c0.512-0.715,0.839-1.771,0.98-3.167h0.504v9.406h-0.504
		c-0.106-1.025-0.329-1.863-0.669-2.518c-0.34-0.654-0.735-1.092-1.186-1.318c-0.45-0.225-1.104-0.338-1.961-0.338v5.061
		c0,0.988,0.042,1.594,0.126,1.816c0.084,0.219,0.241,0.4,0.471,0.541c0.229,0.143,0.601,0.213,1.113,0.213h1.073
		c1.677,0,3.022-0.389,4.033-1.166s1.738-1.961,2.179-3.549h0.49l-0.809,5.709H38.622V22.34h0.597c0.521,0,0.94-0.092,1.258-0.277
		c0.229-0.123,0.406-0.334,0.53-0.635c0.097-0.213,0.146-0.77,0.146-1.67V7.941c0-0.812-0.022-1.312-0.067-1.497
		c-0.088-0.309-0.251-0.547-0.49-0.715c-0.336-0.247-0.795-0.371-1.377-0.371h-0.597v-0.49h15.036v5.312h-0.504
		c-0.256-1.298-0.616-2.229-1.079-2.795c-0.464-0.565-1.12-0.98-1.968-1.245c-0.494-0.16-1.422-0.239-2.782-0.239H45.47z"/>
	<path d="M73.29,4.868V9.73h-0.477c-0.284-1.122-0.597-1.928-0.94-2.418c-0.345-0.489-0.817-0.881-1.418-1.172
		c-0.335-0.16-0.923-0.239-1.761-0.239h-1.339v13.856c0,0.918,0.051,1.492,0.153,1.723c0.101,0.23,0.3,0.43,0.596,0.602
		s0.7,0.258,1.212,0.258h0.596v0.492h-9.406V22.34h0.596c0.521,0,0.941-0.092,1.259-0.277c0.229-0.123,0.411-0.334,0.543-0.635
		c0.097-0.213,0.146-0.77,0.146-1.67V5.901h-1.298c-1.21,0-2.089,0.256-2.636,0.769c-0.769,0.715-1.254,1.735-1.457,3.06h-0.504
		V4.868H73.29z"/>
	<path d="M84.207,22.34v0.492h-9.394V22.34h0.597c0.521,0,0.94-0.092,1.258-0.277c0.229-0.123,0.406-0.334,0.529-0.635
		c0.098-0.213,0.146-0.77,0.146-1.67V7.941c0-0.918-0.049-1.492-0.146-1.722s-0.293-0.431-0.588-0.603
		c-0.297-0.172-0.696-0.258-1.2-0.258h-0.597v-0.49h9.394v0.49h-0.598c-0.521,0-0.941,0.093-1.258,0.278
		c-0.23,0.124-0.41,0.335-0.543,0.635c-0.098,0.212-0.146,0.769-0.146,1.669v11.816c0,0.918,0.051,1.492,0.152,1.723
		s0.301,0.43,0.596,0.602c0.297,0.172,0.697,0.258,1.199,0.258H84.207z"/>
	<path d="M97.758,16.711l4.875-11.843h7.311v0.49h-0.582c-0.529,0-0.953,0.093-1.271,0.278c-0.221,0.124-0.396,0.332-0.529,0.623
		c-0.098,0.211-0.146,0.764-0.146,1.656v11.843c0,0.918,0.049,1.492,0.146,1.723c0.096,0.23,0.295,0.43,0.596,0.602
		s0.701,0.258,1.205,0.258h0.582v0.492h-9.377V22.34h0.582c0.531,0,0.953-0.092,1.271-0.277c0.221-0.123,0.398-0.334,0.529-0.635
		c0.098-0.213,0.146-0.77,0.146-1.67V6.444l-6.889,16.388h-0.316L88.895,6.564v12.651c0,0.883,0.021,1.426,0.066,1.629
		c0.115,0.441,0.365,0.803,0.748,1.08c0.385,0.277,0.988,0.416,1.809,0.416v0.492h-6.146V22.34h0.186
		c0.398,0.01,0.768-0.055,1.113-0.189c0.344-0.139,0.604-0.322,0.781-0.551c0.176-0.23,0.312-0.553,0.41-0.967
		c0.018-0.098,0.027-0.549,0.027-1.352V7.915c0-0.91-0.049-1.478-0.146-1.703s-0.297-0.424-0.596-0.596
		c-0.301-0.172-0.701-0.258-1.205-0.258h-0.57v-0.49h7.34L97.758,16.711z"/>
	<path d="M121.723,17.717h-6.348l-0.754,1.75c-0.248,0.582-0.371,1.064-0.371,1.443c0,0.504,0.203,0.875,0.609,1.113
		c0.24,0.141,0.826,0.248,1.762,0.316v0.492h-5.975V22.34c0.645-0.096,1.174-0.363,1.59-0.801c0.414-0.438,0.928-1.34,1.537-2.709
		l6.424-14.333h0.252l6.479,14.731c0.617,1.396,1.125,2.273,1.523,2.635c0.299,0.275,0.725,0.434,1.271,0.477v0.492h-8.691V22.34
		h0.359c0.697,0,1.188-0.096,1.471-0.289c0.193-0.143,0.291-0.344,0.291-0.611c0-0.158-0.027-0.32-0.08-0.488
		c-0.018-0.08-0.15-0.412-0.396-0.994L121.723,17.717z M121.271,16.736l-2.676-6.185l-2.756,6.185H121.271z"/>
	<path d="M130.385,22.832V22.34h0.596c0.521,0,0.922-0.08,1.201-0.244c0.277-0.164,0.482-0.385,0.613-0.668
		c0.08-0.186,0.121-0.742,0.121-1.67V7.941c0-0.918-0.049-1.492-0.146-1.722s-0.293-0.431-0.588-0.603
		c-0.297-0.172-0.697-0.258-1.201-0.258h-0.596v-0.49h8.041c2.146,0,3.873,0.292,5.18,0.875c1.6,0.715,2.811,1.797,3.637,3.245
		c0.826,1.449,1.238,3.087,1.238,4.915c0,1.264-0.203,2.428-0.609,3.49c-0.406,1.064-0.932,1.943-1.576,2.637
		s-1.389,1.25-2.232,1.67s-1.875,0.744-3.094,0.973c-0.539,0.105-1.387,0.16-2.543,0.16H130.385z M137.234,5.888v14.017
		c0,0.74,0.035,1.195,0.105,1.365c0.07,0.166,0.189,0.295,0.357,0.383c0.238,0.133,0.584,0.199,1.033,0.199
		c1.477,0,2.602-0.504,3.379-1.51c1.059-1.361,1.588-3.473,1.588-6.332c0-2.306-0.361-4.147-1.086-5.525
		c-0.574-1.077-1.311-1.81-2.211-2.199C139.764,6.012,138.709,5.88,137.234,5.888z"/>
</g>
<g>
	<path fill="#D13239" d="M99.562,32.002v-0.934c-0.121,0.266-0.311,0.471-0.57,0.619c-0.248,0.139-0.523,0.207-0.826,0.207
		c-0.574,0-1.045-0.203-1.412-0.615c-0.35-0.396-0.523-0.885-0.523-1.467c0-0.574,0.184-1.043,0.555-1.404
		c0.369-0.361,0.842-0.541,1.416-0.541c0.545,0,0.992,0.262,1.342,0.785c0.08-0.229,0.186-0.457,0.316-0.686h0.818l0.316-0.01v0.051
		c-0.223,0.051-0.355,0.254-0.402,0.609c-0.014,0.082-0.02,0.352-0.02,0.812v2.158h0.842v0.414H99.562z M96.838,26.758
		c0-0.166,0.059-0.303,0.172-0.414c0.115-0.111,0.256-0.166,0.42-0.166c0.168,0,0.309,0.053,0.42,0.164
		c0.113,0.107,0.17,0.248,0.17,0.416s-0.057,0.303-0.17,0.41c-0.117,0.105-0.256,0.158-0.42,0.158c-0.168,0-0.309-0.053-0.422-0.158
		C96.895,27.061,96.838,26.926,96.838,26.758z M97.168,29.91c0,0.436,0.092,0.793,0.277,1.072c0.217,0.332,0.537,0.498,0.951,0.498
		c0.418,0,0.732-0.164,0.945-0.492c0.178-0.277,0.266-0.635,0.266-1.078c0-0.451-0.09-0.814-0.271-1.092
		c-0.211-0.328-0.527-0.494-0.949-0.494c-0.416,0-0.732,0.168-0.947,0.5C97.258,29.107,97.168,29.469,97.168,29.91z M98.328,26.758
		c0-0.166,0.057-0.303,0.172-0.414c0.113-0.111,0.252-0.166,0.418-0.166c0.168,0,0.307,0.053,0.42,0.164
		c0.113,0.107,0.17,0.248,0.17,0.416s-0.059,0.303-0.172,0.41c-0.115,0.105-0.254,0.158-0.418,0.158
		c-0.17,0-0.309-0.053-0.422-0.158C98.383,27.061,98.328,26.926,98.328,26.758z"/>
	<path fill="#D13239" d="M101.277,32.002v-0.414h0.811v-2.387c0-0.373-0.008-0.592-0.023-0.658
		c-0.055-0.232-0.203-0.355-0.445-0.369v-0.07c0.361-0.043,0.764-0.145,1.211-0.303v1.416c0.27-0.906,0.855-1.361,1.76-1.361
		c0.633,0,1.088,0.193,1.367,0.58c0.238,0.33,0.357,0.826,0.357,1.492v0.369c0,0.676,0.037,1.105,0.111,1.291h0.641v0.414H101.277z
		 M105.668,31.588c-0.096-0.115-0.156-0.254-0.176-0.424V30c0-0.535-0.064-0.932-0.195-1.191c-0.178-0.35-0.504-0.541-0.979-0.574
		c-0.725,0.047-1.164,0.49-1.322,1.33c-0.051,0.264-0.076,0.938-0.076,2.023H105.668z M103.586,26.621
		c0-0.164,0.057-0.303,0.172-0.414c0.115-0.109,0.254-0.166,0.418-0.166c0.168,0,0.309,0.055,0.422,0.164s0.17,0.248,0.17,0.416
		s-0.059,0.305-0.172,0.412c-0.115,0.104-0.254,0.156-0.42,0.156c-0.168,0-0.307-0.053-0.42-0.156
		C103.643,26.926,103.586,26.789,103.586,26.621z"/>
	<path fill="#D13239" d="M106.936,31.588h2.107c-0.164-0.168-0.271-0.352-0.318-0.551c-0.029-0.131-0.045-0.371-0.045-0.721v-1.189
		c0-0.299-0.018-0.496-0.051-0.59c-0.064-0.184-0.211-0.283-0.443-0.299v-0.064c0.578-0.074,1.082-0.18,1.514-0.318
		c-0.037,0.521-0.057,1.062-0.057,1.625v0.686c0,0.557,0.012,0.9,0.035,1.023c0.066,0.42,0.248,0.678,0.545,0.771l-0.006,0.041
		h-3.281V31.588z M107.57,33.035c0-0.166,0.057-0.305,0.172-0.416c0.113-0.111,0.254-0.17,0.418-0.17
		c0.168,0,0.309,0.057,0.42,0.166c0.113,0.111,0.17,0.252,0.17,0.42c0,0.164-0.059,0.301-0.172,0.408s-0.252,0.162-0.418,0.162
		c-0.168,0-0.309-0.053-0.422-0.16C107.627,33.34,107.57,33.203,107.57,33.035z"/>
	<path fill="#D13239" d="M110.934,32.002l-0.006-0.041c0.279-0.082,0.451-0.307,0.516-0.682c0.023-0.119,0.035-0.432,0.035-0.932
		v-4.275c0-0.293-0.016-0.484-0.047-0.572c-0.059-0.176-0.203-0.271-0.428-0.285v-0.066c0.391-0.035,0.826-0.139,1.311-0.312
		c-0.029,0.459-0.043,0.998-0.041,1.613v5.139h0.717v0.414h-1.078C111.521,32.002,111.195,32.002,110.934,32.002z"/>
	<path fill="#D13239" d="M113.557,29.883c0-0.611,0.211-1.104,0.641-1.477c0.402-0.354,0.914-0.529,1.537-0.529
		c0.631,0,1.146,0.184,1.541,0.549c0.414,0.373,0.623,0.871,0.623,1.492c0,0.605-0.201,1.098-0.602,1.479
		c-0.076,0.07-0.16,0.135-0.246,0.191h1.428v0.414h-5.619v-0.414h1.543c-0.09-0.061-0.174-0.129-0.252-0.207
		C113.754,30.998,113.557,30.498,113.557,29.883z M114.449,26.516c0-0.166,0.057-0.303,0.17-0.414
		c0.115-0.111,0.256-0.166,0.424-0.166s0.309,0.055,0.422,0.162c0.111,0.111,0.17,0.248,0.17,0.418c0,0.164-0.059,0.299-0.172,0.408
		c-0.115,0.107-0.254,0.16-0.42,0.16c-0.168,0-0.309-0.051-0.424-0.158C114.506,26.82,114.449,26.684,114.449,26.516z
		 M114.473,29.904c0,0.816,0.189,1.377,0.57,1.684h1.402c0.373-0.311,0.559-0.869,0.559-1.678c0-0.52-0.08-0.939-0.246-1.262
		c-0.215-0.424-0.557-0.635-1.029-0.635c-0.453,0-0.789,0.211-1.008,0.639C114.557,28.986,114.473,29.402,114.473,29.904z
		 M115.936,26.516c0-0.166,0.059-0.303,0.172-0.414s0.254-0.166,0.418-0.166c0.168,0,0.309,0.055,0.424,0.162
		c0.113,0.111,0.172,0.248,0.172,0.418c0,0.164-0.059,0.299-0.172,0.408c-0.115,0.107-0.256,0.16-0.424,0.16
		s-0.307-0.051-0.422-0.158C115.992,26.82,115.936,26.684,115.936,26.516z"/>
	<path fill="#D13239" d="M118.348,31.588h1.174c-0.25-0.141-0.373-0.443-0.373-0.902v-4.613c0-0.293-0.016-0.484-0.047-0.572
		c-0.061-0.176-0.201-0.271-0.422-0.285v-0.066c0.385-0.035,0.822-0.139,1.305-0.312c-0.029,0.473-0.045,1.012-0.045,1.613v3.867
		c0,0.383,0.02,0.697,0.061,0.943c0.061,0.381,0.217,0.627,0.469,0.742h-2.121V31.588z"/>
	<path fill="#D13239" d="M121.068,32.025l-0.004-0.064c0.279-0.082,0.451-0.307,0.514-0.682c0.023-0.119,0.035-0.432,0.035-0.932
		v-4.275c0-0.293-0.014-0.484-0.045-0.572c-0.061-0.176-0.203-0.271-0.428-0.285v-0.066c0.389-0.035,0.826-0.139,1.311-0.312
		c-0.031,0.473-0.045,1.012-0.041,1.613v3.867c0.027,0.543,0.047,0.857,0.055,0.949c0.061,0.389,0.232,0.621,0.51,0.695v0.064
		c-0.318-0.016-0.629-0.023-0.926-0.023C121.658,32.002,121.332,32.01,121.068,32.025z"/>
	<path fill="#D13239" d="M125.199,28.572c0.436-0.443,0.977-0.666,1.617-0.666c0.637,0,1.182,0.256,1.635,0.768
		c0.439,0.49,0.66,1.055,0.66,1.693c0,0.779-0.488,1.324-1.467,1.635h-2.344c-0.297,0-0.469-0.225-0.516-0.67
		c0.158,0.17,0.312,0.256,0.459,0.256h2.033c0.562,0,0.877-0.389,0.938-1.164c-0.041-0.525-0.164-1.01-0.369-1.453
		c-0.271-0.602-0.627-0.902-1.068-0.902c-0.141,0-0.287,0.053-0.436,0.156c-0.15,0.104-0.256,0.223-0.316,0.352
		c-0.066,0.146-0.102,0.307-0.102,0.486c0,0.203,0.035,0.352,0.107,0.443c0.127,0.168,0.193,0.256,0.201,0.268
		c-0.014,0.016-0.068,0.029-0.166,0.039c-0.125-0.002-0.24-0.006-0.344-0.006c-0.176,0-0.482,0.012-0.912,0.031v-0.064
		c0.154-0.045,0.262-0.107,0.316-0.188c0.059-0.08,0.088-0.203,0.088-0.369v-0.186C125.215,28.879,125.209,28.727,125.199,28.572z"
		/>
	<path fill="#D13239" d="M129.938,32.002l-0.004-0.041c0.279-0.082,0.451-0.307,0.514-0.682c0.025-0.119,0.037-0.432,0.037-0.932
		v-4.275c0-0.293-0.016-0.484-0.047-0.572c-0.061-0.176-0.203-0.271-0.428-0.285v-0.066c0.389-0.035,0.826-0.139,1.311-0.312
		c-0.031,0.459-0.045,0.998-0.041,1.613v5.139h0.717v0.414h-1.078C130.527,32.002,130.201,32.002,129.938,32.002z"/>
	<path fill="#D13239" d="M136.787,31.588h0.836v0.414h-1.084c-0.061,0.076-0.127,0.148-0.195,0.217
		c-0.404,0.379-0.934,0.568-1.59,0.568c-0.639,0-1.156-0.191-1.553-0.574c-0.07-0.066-0.135-0.139-0.191-0.211h-1.145v-0.414h0.902
		c-0.111-0.262-0.166-0.555-0.166-0.877c0-0.611,0.213-1.105,0.641-1.479c0.402-0.354,0.914-0.529,1.537-0.529
		c0.633,0,1.146,0.182,1.543,0.545c0.414,0.377,0.621,0.875,0.621,1.498C136.943,31.059,136.891,31.338,136.787,31.588z
		 M133.52,30.73c0,0.521,0.084,0.943,0.252,1.271c0.215,0.43,0.557,0.645,1.029,0.645c0.459,0,0.797-0.215,1.008-0.645
		c0.164-0.328,0.246-0.748,0.246-1.266c0-0.521-0.082-0.941-0.246-1.262c-0.219-0.422-0.564-0.635-1.033-0.635
		c-0.453,0-0.789,0.213-1.004,0.641C133.604,29.812,133.52,30.23,133.52,30.73z"/>
	<path fill="#D13239" d="M140.66,31.588h0.609v0.414h-3.777v-0.414h2.199v-2.461c0-0.299-0.016-0.496-0.049-0.59
		c-0.064-0.184-0.213-0.283-0.445-0.299v-0.064c0.578-0.074,1.084-0.18,1.514-0.318c-0.035,0.521-0.051,1.062-0.051,1.625V31.588z
		 M137.654,26.746c0-0.164,0.057-0.303,0.172-0.414c0.113-0.113,0.254-0.17,0.418-0.17c0.168,0,0.309,0.055,0.422,0.166
		c0.111,0.111,0.168,0.25,0.168,0.418c0,0.166-0.057,0.301-0.172,0.41c-0.115,0.105-0.252,0.16-0.418,0.16
		c-0.168,0-0.309-0.053-0.42-0.158C137.711,27.053,137.654,26.916,137.654,26.746z M139.143,26.746c0-0.164,0.057-0.303,0.172-0.414
		c0.113-0.113,0.254-0.17,0.418-0.17c0.168,0,0.307,0.055,0.42,0.166s0.17,0.25,0.17,0.418c0,0.166-0.057,0.301-0.172,0.41
		c-0.115,0.105-0.254,0.16-0.418,0.16c-0.168,0-0.311-0.053-0.422-0.158C139.197,27.053,139.143,26.916,139.143,26.746z"/>
	<path fill="#D13239" d="M141.125,32.002v-0.414h1.531c-0.594-0.367-0.893-0.918-0.893-1.654c0-0.625,0.209-1.123,0.627-1.492
		c0.398-0.359,0.914-0.539,1.547-0.539c0.594,0,1.115,0.148,1.562,0.447l-0.191,1.135l-0.061-0.01
		c-0.242-0.877-0.646-1.316-1.215-1.316c-0.43,0-0.793,0.195-1.09,0.58c-0.275,0.357-0.414,0.758-0.414,1.201
		c0,0.59,0.273,1.141,0.816,1.648h1.953c0.148,0,0.301-0.086,0.459-0.256c-0.043,0.445-0.213,0.67-0.51,0.67H141.125z"/>
	<path fill="#D13239" d="M146.58,32.025l-0.006-0.064c0.279-0.082,0.451-0.307,0.516-0.682c0.023-0.119,0.035-0.432,0.035-0.932
		v-4.275c0-0.293-0.016-0.484-0.047-0.572c-0.061-0.176-0.203-0.271-0.428-0.285v-0.066c0.391-0.035,0.828-0.139,1.311-0.312
		c-0.029,0.473-0.043,1.012-0.039,1.613v3.867c0.027,0.543,0.045,0.857,0.055,0.949c0.061,0.389,0.23,0.621,0.51,0.695v0.064
		c-0.32-0.016-0.629-0.023-0.928-0.023C147.168,32.002,146.842,32.01,146.58,32.025z"/>
</g>
<g>
	<path fill="#D13239" d="M40.253,26.607v2.266h1.258c0.326,0,0.544-0.051,0.654-0.148c0.146-0.129,0.228-0.359,0.245-0.686h0.156
		v1.994h-0.156c-0.04-0.279-0.079-0.457-0.119-0.537c-0.051-0.098-0.134-0.176-0.249-0.23c-0.116-0.059-0.293-0.086-0.532-0.086
		h-1.258v1.889c0,0.252,0.011,0.406,0.034,0.461c0.022,0.055,0.062,0.1,0.118,0.131s0.163,0.049,0.321,0.049h0.971
		c0.324,0,0.558-0.023,0.705-0.066c0.146-0.047,0.287-0.135,0.422-0.268c0.174-0.174,0.353-0.438,0.536-0.789h0.169l-0.495,1.436
		h-4.411v-0.156h0.203c0.135,0,0.263-0.033,0.384-0.098c0.09-0.045,0.152-0.111,0.185-0.203c0.032-0.09,0.048-0.273,0.048-0.551
		v-3.721c0-0.363-0.037-0.586-0.11-0.672c-0.102-0.111-0.27-0.168-0.507-0.168h-0.203v-0.156h4.411l0.063,1.254h-0.165
		c-0.059-0.301-0.125-0.508-0.197-0.621c-0.07-0.111-0.177-0.197-0.318-0.258c-0.113-0.041-0.311-0.064-0.595-0.064H40.253z"/>
	<path fill="#D13239" d="M45.121,26.883v1.271h0.903v0.295h-0.903v2.508c0,0.252,0.036,0.42,0.108,0.508
		c0.071,0.086,0.164,0.129,0.276,0.129c0.092,0,0.184-0.027,0.27-0.086c0.087-0.057,0.154-0.143,0.203-0.254h0.164
		c-0.098,0.275-0.238,0.482-0.417,0.621c-0.181,0.139-0.366,0.211-0.557,0.211c-0.13,0-0.257-0.037-0.38-0.109
		s-0.215-0.176-0.274-0.309c-0.059-0.133-0.089-0.338-0.089-0.617v-2.602h-0.612v-0.139c0.155-0.061,0.313-0.166,0.475-0.314
		c0.161-0.148,0.306-0.322,0.432-0.525c0.065-0.107,0.155-0.303,0.271-0.588H45.121z"/>
	<path fill="#D13239" d="M47.734,28.039v3.109c0,0.24,0.017,0.402,0.053,0.482s0.087,0.141,0.156,0.178
		c0.069,0.041,0.194,0.061,0.378,0.061v0.152h-1.879v-0.152c0.188,0,0.315-0.018,0.381-0.055c0.064-0.037,0.115-0.098,0.153-0.182
		s0.057-0.246,0.057-0.484v-1.492c0-0.418-0.013-0.689-0.038-0.814c-0.02-0.09-0.051-0.152-0.093-0.188
		c-0.042-0.035-0.101-0.053-0.174-0.053c-0.079,0-0.174,0.021-0.287,0.062l-0.06-0.15l1.166-0.475H47.734z M47.384,26.018
		c0.118,0,0.219,0.043,0.302,0.125c0.083,0.082,0.124,0.184,0.124,0.303c0,0.117-0.042,0.219-0.124,0.303
		c-0.083,0.086-0.184,0.127-0.302,0.127c-0.118,0-0.22-0.041-0.304-0.127c-0.084-0.084-0.126-0.186-0.126-0.303
		c0-0.119,0.041-0.221,0.125-0.303C47.161,26.061,47.263,26.018,47.384,26.018z"/>
	<path fill="#D13239" d="M49.951,28.865c0.282-0.283,0.447-0.445,0.499-0.488c0.126-0.105,0.263-0.189,0.409-0.248
		c0.147-0.059,0.292-0.09,0.435-0.09c0.242,0,0.45,0.07,0.625,0.213c0.174,0.141,0.292,0.344,0.351,0.613
		c0.29-0.34,0.534-0.561,0.734-0.666c0.2-0.105,0.406-0.16,0.616-0.16c0.206,0,0.388,0.055,0.546,0.16
		c0.159,0.105,0.286,0.277,0.378,0.518c0.062,0.162,0.093,0.418,0.093,0.768v1.664c0,0.24,0.018,0.406,0.055,0.498
		c0.028,0.061,0.08,0.113,0.156,0.156c0.077,0.045,0.2,0.066,0.372,0.066v0.152h-1.908v-0.152h0.08c0.166,0,0.296-0.031,0.388-0.098
		c0.065-0.043,0.112-0.115,0.14-0.215c0.012-0.047,0.017-0.184,0.017-0.408v-1.664c0-0.316-0.038-0.539-0.114-0.668
		c-0.11-0.18-0.286-0.27-0.528-0.27c-0.149,0-0.299,0.037-0.449,0.111c-0.151,0.076-0.333,0.215-0.546,0.416l-0.009,0.047
		l0.009,0.182v1.846c0,0.264,0.014,0.428,0.044,0.494c0.029,0.062,0.084,0.117,0.167,0.16c0.082,0.045,0.222,0.066,0.418,0.066
		v0.152h-1.954v-0.152c0.213,0,0.361-0.025,0.441-0.076s0.136-0.127,0.167-0.229c0.014-0.047,0.021-0.188,0.021-0.416v-1.664
		c0-0.316-0.046-0.543-0.139-0.68c-0.125-0.18-0.297-0.27-0.519-0.27c-0.152,0-0.303,0.041-0.452,0.121
		c-0.234,0.123-0.415,0.264-0.541,0.418v2.074c0,0.252,0.018,0.416,0.053,0.494c0.035,0.074,0.087,0.133,0.157,0.17
		c0.068,0.039,0.208,0.057,0.419,0.057v0.152h-1.912v-0.152c0.177,0,0.301-0.018,0.372-0.057c0.07-0.037,0.123-0.098,0.16-0.182
		c0.036-0.084,0.055-0.244,0.055-0.482V29.67c0-0.426-0.013-0.699-0.038-0.824c-0.02-0.092-0.051-0.156-0.092-0.191
		c-0.042-0.035-0.1-0.053-0.173-0.053c-0.08,0-0.174,0.021-0.283,0.062l-0.063-0.15l1.165-0.475h0.182V28.865z"/>
	<path fill="#D13239" d="M57.718,31.465c-0.397,0.307-0.646,0.482-0.747,0.531c-0.152,0.07-0.314,0.105-0.486,0.105
		c-0.267,0-0.487-0.092-0.66-0.275c-0.173-0.182-0.26-0.422-0.26-0.721c0-0.189,0.042-0.352,0.126-0.49
		c0.115-0.189,0.316-0.371,0.602-0.541c0.286-0.168,0.76-0.373,1.424-0.615v-0.152c0-0.385-0.061-0.65-0.184-0.793
		c-0.122-0.145-0.3-0.215-0.534-0.215c-0.177,0-0.317,0.047-0.421,0.143c-0.107,0.096-0.161,0.205-0.161,0.328l0.008,0.246
		c0,0.129-0.033,0.229-0.1,0.299c-0.066,0.072-0.152,0.107-0.259,0.107c-0.105,0-0.189-0.037-0.256-0.111
		c-0.066-0.072-0.099-0.174-0.099-0.299c0-0.242,0.124-0.465,0.371-0.668c0.249-0.201,0.595-0.305,1.042-0.305
		c0.343,0,0.625,0.059,0.845,0.174c0.166,0.088,0.289,0.225,0.368,0.41c0.051,0.119,0.076,0.369,0.076,0.742v1.314
		c0,0.367,0.007,0.594,0.021,0.678c0.013,0.082,0.037,0.137,0.069,0.166c0.032,0.027,0.069,0.041,0.112,0.041
		c0.045,0,0.084-0.01,0.118-0.029c0.06-0.035,0.173-0.139,0.343-0.307v0.236c-0.315,0.422-0.617,0.633-0.903,0.633
		c-0.139,0-0.249-0.047-0.33-0.145C57.763,31.857,57.721,31.695,57.718,31.465z M57.718,31.189v-1.473
		c-0.425,0.168-0.699,0.287-0.823,0.357c-0.223,0.125-0.382,0.254-0.477,0.389c-0.096,0.137-0.144,0.285-0.144,0.443
		c0,0.203,0.06,0.371,0.181,0.506c0.121,0.133,0.26,0.199,0.418,0.199C57.088,31.611,57.37,31.471,57.718,31.189z"/>
	<path fill="#D13239" d="M62.096,31.586c-0.188,0.197-0.373,0.34-0.553,0.424c-0.18,0.088-0.375,0.129-0.583,0.129
		c-0.422,0-0.791-0.176-1.106-0.529c-0.315-0.354-0.473-0.807-0.473-1.361s0.174-1.061,0.523-1.521
		c0.349-0.459,0.798-0.689,1.347-0.689c0.34,0,0.622,0.107,0.844,0.324v-0.713c0-0.441-0.011-0.715-0.032-0.814
		c-0.021-0.102-0.054-0.17-0.099-0.207s-0.102-0.055-0.168-0.055c-0.074,0-0.171,0.021-0.292,0.066L61.45,26.49l1.152-0.473h0.19
		v4.471c0,0.455,0.011,0.729,0.032,0.83c0.021,0.1,0.055,0.168,0.102,0.209c0.046,0.039,0.1,0.059,0.162,0.059
		c0.076,0,0.178-0.023,0.304-0.07l0.047,0.146l-1.149,0.477h-0.194V31.586z M62.096,31.291v-1.992
		c-0.017-0.191-0.068-0.365-0.152-0.525c-0.085-0.156-0.196-0.275-0.336-0.355c-0.139-0.08-0.275-0.119-0.408-0.119
		c-0.248,0-0.468,0.111-0.662,0.332c-0.256,0.293-0.384,0.721-0.384,1.283c0,0.568,0.124,1.006,0.371,1.307
		c0.248,0.305,0.523,0.453,0.828,0.453C61.609,31.674,61.856,31.547,62.096,31.291z"/>
	<path fill="#D13239" d="M67.356,28.951h2.66v-1.637c0-0.293-0.019-0.486-0.055-0.58c-0.028-0.068-0.087-0.131-0.177-0.182
		c-0.121-0.066-0.249-0.1-0.384-0.1h-0.202v-0.156h2.448v0.156h-0.202c-0.136,0-0.264,0.033-0.385,0.098
		c-0.09,0.045-0.151,0.113-0.184,0.203c-0.033,0.092-0.048,0.279-0.048,0.561v3.693c0,0.289,0.018,0.48,0.055,0.574
		c0.028,0.072,0.086,0.131,0.173,0.182c0.124,0.068,0.253,0.102,0.389,0.102h0.202v0.156h-2.448v-0.156h0.202
		c0.234,0,0.404-0.07,0.511-0.207c0.07-0.09,0.105-0.307,0.105-0.65v-1.742h-2.66v1.742c0,0.289,0.018,0.48,0.055,0.574
		c0.028,0.072,0.087,0.131,0.178,0.182c0.121,0.068,0.249,0.102,0.384,0.102h0.207v0.156h-2.453v-0.156h0.203
		c0.236,0,0.408-0.07,0.515-0.207c0.068-0.09,0.101-0.307,0.101-0.65v-3.693c0-0.293-0.019-0.486-0.055-0.58
		c-0.028-0.068-0.086-0.131-0.173-0.182c-0.124-0.066-0.253-0.1-0.388-0.1h-0.203v-0.156h2.453v0.156h-0.207
		c-0.135,0-0.263,0.033-0.384,0.098c-0.088,0.045-0.148,0.113-0.182,0.203c-0.034,0.092-0.05,0.279-0.05,0.561V28.951z"/>
	<path fill="#D13239" d="M73.984,28.039c0.585,0,1.055,0.223,1.41,0.668c0.301,0.381,0.452,0.816,0.452,1.309
		c0,0.348-0.083,0.697-0.249,1.053c-0.167,0.354-0.395,0.621-0.687,0.801c-0.292,0.182-0.616,0.27-0.973,0.27
		c-0.582,0-1.046-0.23-1.389-0.695c-0.29-0.391-0.435-0.83-0.435-1.318c0-0.354,0.088-0.707,0.265-1.057
		c0.176-0.35,0.407-0.609,0.694-0.777C73.359,28.125,73.663,28.039,73.984,28.039z M73.854,28.314c-0.149,0-0.299,0.045-0.45,0.133
		c-0.15,0.088-0.272,0.244-0.365,0.467s-0.139,0.508-0.139,0.857c0,0.562,0.112,1.049,0.335,1.457s0.519,0.611,0.884,0.611
		c0.273,0,0.498-0.111,0.675-0.338c0.177-0.225,0.266-0.613,0.266-1.16c0-0.688-0.147-1.229-0.443-1.621
		C74.417,28.449,74.163,28.314,73.854,28.314z"/>
	<path fill="#D13239" d="M77.746,26.018v5.131c0,0.24,0.018,0.4,0.053,0.48c0.035,0.078,0.09,0.139,0.162,0.18
		s0.211,0.061,0.41,0.061v0.152h-1.896v-0.152c0.178,0,0.298-0.018,0.364-0.055c0.064-0.037,0.114-0.098,0.151-0.182
		c0.036-0.084,0.055-0.246,0.055-0.484v-3.512c0-0.438-0.011-0.707-0.029-0.805c-0.02-0.102-0.052-0.168-0.096-0.205
		s-0.099-0.055-0.166-0.055c-0.074,0-0.166,0.021-0.279,0.066l-0.07-0.148l1.15-0.473H77.746z"/>
	<path fill="#D13239" d="M81.549,31.586c-0.188,0.197-0.373,0.34-0.553,0.424c-0.18,0.088-0.375,0.129-0.582,0.129
		c-0.422,0-0.791-0.176-1.107-0.529c-0.314-0.354-0.471-0.807-0.471-1.361s0.174-1.061,0.521-1.521
		c0.35-0.459,0.799-0.689,1.348-0.689c0.34,0,0.621,0.107,0.844,0.324v-0.713c0-0.441-0.01-0.715-0.031-0.814
		c-0.02-0.102-0.055-0.17-0.1-0.207s-0.102-0.055-0.168-0.055c-0.074,0-0.17,0.021-0.291,0.066l-0.055-0.148l1.152-0.473h0.189
		v4.471c0,0.455,0.01,0.729,0.031,0.83c0.021,0.1,0.055,0.168,0.102,0.209c0.047,0.039,0.1,0.059,0.162,0.059
		c0.076,0,0.178-0.023,0.305-0.07l0.047,0.146l-1.148,0.477h-0.195V31.586z M81.549,31.291v-1.992
		c-0.016-0.191-0.066-0.365-0.15-0.525c-0.086-0.156-0.197-0.275-0.336-0.355c-0.141-0.08-0.277-0.119-0.408-0.119
		c-0.248,0-0.469,0.111-0.662,0.332c-0.256,0.293-0.385,0.721-0.385,1.283c0,0.568,0.125,1.006,0.371,1.307
		c0.248,0.305,0.523,0.453,0.828,0.453C81.062,31.674,81.309,31.547,81.549,31.291z"/>
	<path fill="#D13239" d="M84.475,28.039v3.109c0,0.24,0.018,0.402,0.055,0.482c0.033,0.08,0.084,0.141,0.154,0.178
		c0.068,0.041,0.193,0.061,0.379,0.061v0.152h-1.879v-0.152c0.188,0,0.314-0.018,0.379-0.055c0.066-0.037,0.117-0.098,0.154-0.182
		c0.039-0.084,0.057-0.246,0.057-0.484v-1.492c0-0.418-0.012-0.689-0.037-0.814c-0.02-0.09-0.051-0.152-0.094-0.188
		c-0.041-0.035-0.1-0.053-0.174-0.053c-0.078,0-0.174,0.021-0.285,0.062l-0.061-0.15l1.166-0.475H84.475z M84.123,26.018
		c0.119,0,0.221,0.043,0.303,0.125c0.084,0.082,0.125,0.184,0.125,0.303c0,0.117-0.041,0.219-0.125,0.303
		c-0.082,0.086-0.184,0.127-0.303,0.127c-0.117,0-0.219-0.041-0.303-0.127c-0.084-0.084-0.127-0.186-0.127-0.303
		c0-0.119,0.041-0.221,0.125-0.303C83.9,26.061,84.004,26.018,84.123,26.018z"/>
	<path fill="#D13239" d="M86.67,28.859c0.453-0.547,0.885-0.82,1.297-0.82c0.211,0,0.391,0.055,0.543,0.16s0.273,0.279,0.363,0.521
		c0.062,0.168,0.094,0.428,0.094,0.775v1.652c0,0.244,0.02,0.41,0.059,0.498c0.031,0.07,0.08,0.125,0.15,0.162
		c0.068,0.041,0.195,0.061,0.381,0.061v0.152h-1.912v-0.152h0.082c0.18,0,0.305-0.027,0.377-0.082s0.121-0.135,0.148-0.242
		c0.012-0.043,0.018-0.176,0.018-0.396v-1.584c0-0.354-0.045-0.607-0.137-0.766c-0.092-0.16-0.246-0.24-0.463-0.24
		c-0.334,0-0.668,0.184-1,0.549v2.041c0,0.26,0.016,0.422,0.047,0.484c0.039,0.082,0.094,0.143,0.162,0.18
		c0.068,0.039,0.207,0.057,0.42,0.057v0.152h-1.912v-0.152h0.084c0.197,0,0.33-0.051,0.398-0.148
		c0.07-0.102,0.104-0.291,0.104-0.572v-1.436c0-0.465-0.01-0.748-0.031-0.848c-0.021-0.104-0.053-0.172-0.096-0.209
		c-0.045-0.037-0.104-0.055-0.178-0.055c-0.078,0-0.172,0.021-0.281,0.062l-0.062-0.15l1.164-0.475h0.182V28.859z"/>
	<path fill="#D13239" d="M90.9,30.611c-0.238-0.115-0.418-0.277-0.545-0.482c-0.127-0.207-0.191-0.436-0.191-0.688
		c0-0.383,0.146-0.711,0.434-0.988c0.289-0.275,0.658-0.414,1.109-0.414c0.369,0,0.688,0.092,0.957,0.271h0.818
		c0.121,0,0.193,0.004,0.213,0.01c0.018,0.008,0.033,0.02,0.041,0.037c0.018,0.025,0.025,0.07,0.025,0.135
		c0,0.072-0.006,0.123-0.021,0.152c-0.008,0.014-0.023,0.025-0.043,0.033c-0.021,0.01-0.094,0.012-0.215,0.012h-0.5
		c0.156,0.203,0.234,0.463,0.234,0.777c0,0.361-0.137,0.67-0.414,0.924c-0.275,0.258-0.645,0.385-1.109,0.385
		c-0.191,0-0.387-0.027-0.588-0.084c-0.123,0.107-0.207,0.199-0.25,0.281c-0.043,0.08-0.066,0.148-0.066,0.205
		c0,0.047,0.023,0.094,0.072,0.139c0.045,0.045,0.135,0.078,0.27,0.096c0.08,0.012,0.277,0.023,0.594,0.031
		c0.578,0.014,0.955,0.033,1.125,0.059c0.262,0.037,0.471,0.135,0.627,0.291c0.156,0.158,0.234,0.352,0.234,0.584
		c0,0.318-0.148,0.615-0.447,0.895c-0.438,0.41-1.012,0.615-1.717,0.615c-0.545,0-1.002-0.121-1.377-0.367
		c-0.211-0.141-0.316-0.287-0.316-0.439c0-0.066,0.016-0.135,0.047-0.201c0.047-0.105,0.146-0.25,0.293-0.436
		c0.021-0.025,0.164-0.178,0.432-0.455c-0.146-0.088-0.25-0.166-0.309-0.236c-0.061-0.068-0.092-0.146-0.092-0.234
		c0-0.098,0.039-0.213,0.119-0.344C90.426,31.041,90.609,30.854,90.9,30.611z M90.857,32.021c-0.133,0.145-0.232,0.277-0.299,0.4
		c-0.068,0.125-0.102,0.238-0.102,0.342c0,0.135,0.082,0.254,0.244,0.355c0.281,0.174,0.689,0.262,1.221,0.262
		c0.506,0,0.879-0.09,1.121-0.268c0.24-0.18,0.359-0.369,0.359-0.572c0-0.146-0.07-0.252-0.215-0.312
		c-0.145-0.062-0.436-0.1-0.869-0.111C91.686,32.102,91.197,32.068,90.857,32.021z M91.635,28.244c-0.207,0-0.385,0.082-0.523,0.248
		c-0.141,0.166-0.211,0.42-0.211,0.764c0,0.445,0.096,0.789,0.287,1.035c0.146,0.186,0.332,0.277,0.557,0.277
		c0.213,0,0.391-0.08,0.527-0.24c0.139-0.16,0.207-0.412,0.207-0.756c0-0.447-0.096-0.799-0.291-1.051
		C92.045,28.336,91.859,28.244,91.635,28.244z"/>
</g>
</svg>
