<?xml version="1.0" encoding="utf-8"?>
<!-- Generator: Adobe Illustrator 16.0.0, SVG Export Plug-In . SVG Version: 6.00 Build 0)  -->
<!DOCTYPE svg PUBLIC "-//W3C//DTD SVG 1.1//EN" "http://www.w3.org/Graphics/SVG/1.1/DTD/svg11.dtd">
<svg version="1.1" id="Layer_1" xmlns="http://www.w3.org/2000/svg" xmlns:xlink="http://www.w3.org/1999/xlink" x="0px" y="0px"
	 width="20px" height="20px" viewBox="0 0 20 20" enable-background="new 0 0 20 20" xml:space="preserve">
<g id="wvUOVd.tif">
	<g>
		<path fill="none" d="M0.439,10.203c0-3.214,0.001-6.428-0.004-9.643c0-0.144,0.037-0.164,0.169-0.164
			c6.409,0.004,12.818,0.003,19.226,0c0.131,0,0.17,0.018,0.17,0.163c-0.004,6.428-0.004,12.856,0,19.284
			C20,19.98,19.967,20,19.842,20c-6.416-0.006-12.832-0.006-19.247,0c-0.157,0-0.158-0.055-0.158-0.174
			C0.439,16.619,0.439,13.41,0.439,10.203z M13.072,7.603C13.07,6.274,12,5.182,10.686,5.189C9.292,5.197,8.223,6.343,8.278,7.696
			c0.049,1.203,1.019,2.3,2.413,2.308C11.998,10.01,13.074,8.909,13.072,7.603z M7.002,15.384c-0.1,0.007-0.184,0.005-0.265,0.019
			c-0.786,0.141-1.398,0.91-1.323,1.66c0.089,0.898,0.779,1.539,1.637,1.523c0.64-0.01,1.226-0.422,1.464-1.025
			c0.245-0.617,0.086-1.297-0.438-1.775c-0.128-0.117-0.135-0.205-0.076-0.356c0.583-1.497,1.157-2.997,1.732-4.497
			c0.166-0.432,0.159-0.422-0.264-0.617c-0.168-0.078-0.225-0.042-0.287,0.122c-0.593,1.562-1.197,3.118-1.788,4.681
			C7.317,15.328,7.225,15.453,7.002,15.384z M19.779,12.466c0.004-0.612-0.311-1.153-0.861-1.428
			c-0.574-0.284-1.143-0.24-1.666,0.128c-0.156,0.109-0.254,0.1-0.402,0.003c-1.086-0.714-2.18-1.419-3.27-2.128
			c-0.215-0.14-0.215-0.14-0.35,0.09c-0.031,0.055-0.061,0.115-0.104,0.16c-0.139,0.143-0.086,0.224,0.064,0.321
			c1.115,0.717,2.225,1.443,3.34,2.161c0.113,0.072,0.16,0.14,0.111,0.276c-0.037,0.106-0.053,0.225-0.059,0.338
			c-0.049,0.879,0.666,1.654,1.551,1.685C19.029,14.102,19.775,13.374,19.779,12.466z M2.211,8.041c-0.761,0-1.383,0.496-1.56,1.244
			c-0.168,0.709,0.184,1.453,0.841,1.78c1.007,0.501,2.154-0.123,2.311-1.265c0.02-0.145,0.068-0.207,0.208-0.241
			C5.15,9.283,6.287,9,7.425,8.717C7.857,8.61,7.85,8.609,7.758,8.167C7.723,7.996,7.67,7.94,7.48,7.989
			C6.271,8.3,5.059,8.596,3.848,8.9C3.731,8.93,3.654,8.93,3.577,8.809C3.262,8.311,2.811,8.04,2.211,8.041z M6.689,3.443
			c0.008-0.889-0.691-1.615-1.556-1.636C4.269,1.785,3.51,2.494,3.495,3.363c-0.011,0.629,0.257,1.128,0.81,1.44
			c0.551,0.31,1.115,0.284,1.652-0.043c0.152-0.093,0.252-0.086,0.388,0.017c0.46,0.352,0.929,0.693,1.394,1.04
			C8.091,6.08,8.089,6.081,8.358,5.75c0.004-0.005,0.008-0.01,0.013-0.015c0.155-0.191,0.154-0.19-0.053-0.343
			c-0.538-0.398-1.073-0.8-1.613-1.194c-0.11-0.08-0.144-0.159-0.091-0.289C6.676,3.754,6.699,3.589,6.689,3.443z M16.566,2.459
			c-1.008,0-1.754,0.875-1.586,1.88c0.027,0.168-0.021,0.238-0.152,0.315c-0.533,0.312-1.061,0.633-1.592,0.951
			c-0.217,0.13-0.217,0.13-0.08,0.354c0.039,0.065,0.088,0.128,0.117,0.198c0.059,0.144,0.137,0.148,0.264,0.07
			c0.553-0.34,1.113-0.669,1.668-1.007c0.104-0.064,0.174-0.063,0.268,0.024c0.35,0.326,0.77,0.455,1.246,0.412
			c0.742-0.065,1.453-0.69,1.438-1.629C18.143,3.157,17.408,2.459,16.566,2.459z"/>
		<path fill-rule="evenodd" clip-rule="evenodd" d="M13.072,7.603c0.002,1.306-1.074,2.407-2.381,2.401
			C9.296,9.996,8.327,8.898,8.278,7.696c-0.055-1.353,1.015-2.499,2.408-2.507C12,5.182,13.07,6.274,13.072,7.603z"/>
		<path fill-rule="evenodd" clip-rule="evenodd" d="M7.002,15.384c0.223,0.069,0.315-0.056,0.395-0.267
			c0.59-1.562,1.195-3.119,1.788-4.681c0.062-0.164,0.119-0.2,0.287-0.122c0.423,0.195,0.43,0.186,0.264,0.617
			c-0.575,1.5-1.149,3-1.732,4.497c-0.059,0.151-0.052,0.239,0.076,0.356c0.523,0.479,0.683,1.158,0.438,1.775
			c-0.238,0.604-0.825,1.016-1.464,1.025c-0.858,0.016-1.548-0.625-1.637-1.523c-0.075-0.75,0.537-1.52,1.323-1.66
			C6.818,15.389,6.902,15.391,7.002,15.384z"/>
		<path fill-rule="evenodd" clip-rule="evenodd" d="M19.779,12.466c-0.004,0.908-0.75,1.636-1.645,1.605
			c-0.885-0.03-1.6-0.806-1.551-1.685c0.006-0.113,0.021-0.231,0.059-0.338c0.049-0.137,0.002-0.204-0.111-0.276
			c-1.115-0.718-2.225-1.444-3.34-2.161c-0.15-0.097-0.203-0.178-0.064-0.321c0.043-0.045,0.072-0.104,0.104-0.16
			c0.135-0.229,0.135-0.229,0.35-0.09c1.09,0.709,2.184,1.414,3.27,2.128c0.148,0.097,0.246,0.106,0.402-0.003
			c0.523-0.368,1.092-0.412,1.666-0.128C19.469,11.312,19.783,11.854,19.779,12.466z"/>
		<path fill-rule="evenodd" clip-rule="evenodd" d="M2.211,8.041c0.6-0.001,1.05,0.27,1.366,0.768C3.654,8.93,3.731,8.93,3.848,8.9
			C5.059,8.596,6.271,8.3,7.48,7.989C7.67,7.94,7.723,7.996,7.758,8.167C7.85,8.609,7.857,8.61,7.425,8.717
			C6.287,9,5.15,9.283,4.011,9.56c-0.14,0.034-0.188,0.097-0.208,0.241c-0.157,1.142-1.304,1.766-2.311,1.265
			c-0.657-0.327-1.009-1.071-0.841-1.78C0.829,8.537,1.45,8.042,2.211,8.041z"/>
		<path fill-rule="evenodd" clip-rule="evenodd" d="M6.689,3.443c0.009,0.146-0.013,0.311-0.076,0.465
			c-0.053,0.13-0.02,0.209,0.091,0.289c0.54,0.394,1.075,0.796,1.613,1.194c0.207,0.153,0.208,0.151,0.053,0.343
			C8.366,5.74,8.362,5.745,8.358,5.75c-0.269,0.332-0.267,0.33-0.62,0.066c-0.465-0.347-0.934-0.688-1.394-1.04
			c-0.136-0.104-0.236-0.11-0.388-0.017C5.419,5.087,4.855,5.113,4.304,4.803c-0.553-0.312-0.82-0.811-0.81-1.44
			C3.51,2.494,4.269,1.785,5.134,1.807C5.999,1.829,6.698,2.554,6.689,3.443z"/>
		<path fill-rule="evenodd" clip-rule="evenodd" d="M16.566,2.459c0.842,0,1.576,0.698,1.59,1.568
			c0.016,0.938-0.695,1.563-1.438,1.629c-0.477,0.042-0.896-0.086-1.246-0.412c-0.094-0.087-0.164-0.088-0.268-0.024
			c-0.555,0.338-1.115,0.667-1.668,1.007c-0.127,0.078-0.205,0.074-0.264-0.07c-0.029-0.07-0.078-0.133-0.117-0.198
			c-0.137-0.224-0.137-0.224,0.08-0.354c0.531-0.318,1.059-0.639,1.592-0.951c0.131-0.077,0.18-0.147,0.152-0.315
			C14.812,3.334,15.559,2.46,16.566,2.459z"/>
	</g>
</g>
<circle cx="10.566" cy="7.453" r="3.143"/>
</svg>
