<?xml version="1.0" encoding="utf-8"?>
<!-- Generator: Adobe Illustrator 16.0.0, SVG Export Plug-In . SVG Version: 6.00 Build 0)  -->
<!DOCTYPE svg PUBLIC "-//W3C//DTD SVG 1.1//EN" "http://www.w3.org/Graphics/SVG/1.1/DTD/svg11.dtd">
<svg version="1.1" id="Layer_1" xmlns="http://www.w3.org/2000/svg" xmlns:xlink="http://www.w3.org/1999/xlink" x="0px" y="0px"
	 width="20px" height="20px" viewBox="0 0 20 20" enable-background="new 0 0 20 20" xml:space="preserve">
<g>
	<path d="M19.885,12.084c-0.293,0.346-0.566,0.704-0.883,1.025c-0.195,0.197-0.497,0.162-0.734-0.039
		c-0.352-0.297-0.699-0.602-1.047-0.901c-1.771-1.534-3.541-3.068-5.312-4.603c-0.572-0.495-1.144-0.991-1.711-1.485
		c-0.048-0.041-0.097-0.08-0.156-0.129C9.977,6.007,9.92,6.055,9.861,6.104c-2.656,2.302-5.311,4.605-7.966,6.91
		c-0.361,0.312-0.656,0.295-0.98-0.058c-0.139-0.151-0.286-0.296-0.416-0.454c-0.108-0.131-0.198-0.277-0.295-0.418
		c0-0.077,0-0.154,0-0.23c0.138-0.154,0.26-0.328,0.417-0.463c2.989-2.6,5.985-5.195,8.979-7.79c0.297-0.259,0.595-0.258,0.894,0
		c2.46,2.133,4.922,4.268,7.384,6.401c0.556,0.483,1.115,0.961,1.666,1.45c0.13,0.116,0.229,0.268,0.341,0.401
		C19.885,11.93,19.885,12.007,19.885,12.084z"/>
	<path d="M16.775,8.052c-0.277-0.237-0.553-0.471-0.826-0.708c-0.492-0.427-0.985-0.853-1.473-1.288
		c-0.064-0.058-0.108-0.166-0.117-0.254c-0.017-0.197-0.004-0.396-0.004-0.594c0.004-0.335,0.231-0.571,0.562-0.574
		c0.442-0.002,0.883-0.002,1.324,0.001c0.311,0.002,0.554,0.216,0.556,0.517c0.01,0.953,0.004,1.906,0.004,2.858
		C16.802,8.019,16.791,8.029,16.775,8.052z"/>
	<path d="M11.896,19.982c0-0.852,0-1.685,0-2.517c0-0.864,0.002-1.729,0-2.593c0-0.296-0.125-0.413-0.429-0.413
		c-0.952-0.001-1.908-0.001-2.862,0c-0.296,0-0.413,0.122-0.413,0.426c0.001,1.595,0.001,3.19,0.002,4.784c0,0.102,0,0.202,0,0.328
		c-0.1,0-0.182,0-0.262,0c-1.314,0-2.626,0.003-3.939-0.002c-0.821-0.002-1.322-0.514-1.322-1.339c-0.002-1.69,0-3.382-0.004-5.071
		c0-0.128,0.042-0.21,0.137-0.291c2.364-2.045,4.726-4.091,7.083-6.143c0.123-0.106,0.188-0.11,0.313-0.001
		c2.008,1.75,4.023,3.492,6.037,5.235c0.361,0.313,0.728,0.628,1.082,0.947c0.055,0.049,0.098,0.14,0.099,0.209
		c0.004,1.743,0.005,3.483-0.001,5.228c-0.002,0.668-0.521,1.215-1.182,1.222c-1.414,0.012-2.83,0.005-4.248,0.004
		C11.962,19.995,11.938,19.986,11.896,19.982z"/>
</g>
</svg>
