<?xml version="1.0" encoding="utf-8"?>
<!-- Generator: Adobe Illustrator 16.0.0, SVG Export Plug-In . SVG Version: 6.00 Build 0)  -->
<!DOCTYPE svg PUBLIC "-//W3C//DTD SVG 1.1//EN" "http://www.w3.org/Graphics/SVG/1.1/DTD/svg11.dtd">
<svg version="1.1" id="Layer_1" xmlns="http://www.w3.org/2000/svg" xmlns:xlink="http://www.w3.org/1999/xlink" x="0px" y="0px"
	 width="163px" height="123px" viewBox="0 0 163 123" enable-background="new 0 0 163 123" xml:space="preserve">
<g id="d23izW_1_">
	<g>
		<path fill="#E8C62E" d="M53.772,88.021c0-9.816,0.06-19.631-0.047-29.445c-0.023-2.144,0.649-2.802,2.73-2.658
			c2.397,0.166,4.827,0.18,7.222-0.003c2.181-0.167,2.665,0.674,2.656,2.729c-0.074,17.935-0.043,35.87-0.043,53.804
			c0,1.784-0.079,3.573,0.024,5.354c0.09,1.552-0.549,2.021-2.026,1.976c-2.674-0.082-5.362-0.156-8.026,0.021
			c-2.079,0.138-2.545-0.657-2.528-2.6C53.818,107.473,53.771,97.746,53.772,88.021z"/>
		<path fill="#E8C62E" d="M7.869,88.025c0-9.898,0.045-19.797-0.04-29.694c-0.016-1.862,0.505-2.515,2.396-2.411
			c2.667,0.146,5.349,0.087,8.023,0.018c1.403-0.036,2.077,0.286,2.074,1.908c-0.046,19.974-0.043,39.949-0.003,59.923
			c0.003,1.504-0.456,2.059-1.98,2.008c-2.761-0.092-5.533-0.129-8.291,0.012c-1.847,0.094-2.221-0.666-2.21-2.338
			C7.9,107.643,7.869,97.834,7.869,88.025z"/>
		<path fill="#E8C62E" d="M47.229,34.54c-0.008,5.627-4.573,10.229-10.158,10.24c-5.586,0.01-10.236-4.58-10.288-10.156
			c-0.053-5.727,4.592-10.372,10.338-10.339C42.764,24.316,47.237,28.854,47.229,34.54z"/>
		<path fill="#E8C62E" d="M43.452,77.367c5.003,2.434,7.409,8.74,5.575,14.611c-1.713,5.483-7.796,9.52-12.982,8.612
			c-2.932-0.514-5.042-2.979-5.128-5.989c-0.088-3.052,1.587-5.22,4.648-5.976c0.603-0.147,1.228-0.215,1.844-0.306
			c5.04-0.735,7.588-4.522,6.334-9.436C43.614,78.385,43.208,77.939,43.452,77.367z M39.183,94.23
			c-0.087-1.318-0.741-2.152-2.116-2.187c-1.379-0.03-2.162,0.812-2.196,2.108c-0.036,1.316,0.757,2.154,2.115,2.189
			C38.353,96.379,39.069,95.6,39.183,94.23z"/>
		<path fill="#E8C62E" d="M30.529,98.729c-5.42-3.188-7.539-8.938-5.73-14.567c1.765-5.496,7.185-9.287,12.612-8.824
			c2.695,0.229,4.875,2.24,5.278,4.867c0.42,2.737-1.161,5.45-3.779,6.353c-0.835,0.286-1.73,0.422-2.608,0.555
			c-5.568,0.852-7.922,4.572-6.29,9.977C30.134,97.492,30.267,97.898,30.529,98.729z M38.945,81.004
			c-0.278-1.307-1.015-2.131-2.375-2.051c-1.362,0.08-2.122,0.957-2.035,2.299c0.086,1.328,0.953,2.152,2.293,2.057
			C38.143,83.215,38.822,82.301,38.945,81.004z"/>
		<path fill="#E8C62E" d="M36.904,66.527c3.748-0.002,7.5,0.094,11.243-0.039c2-0.07,2.11,0.957,2.08,2.479
			c-0.029,1.439,0.061,2.574-2.015,2.546c-7.405-0.099-14.814-0.111-22.218,0.008c-2.069,0.033-2.061-1.025-2.053-2.488
			c0.007-1.42-0.114-2.625,1.989-2.543C29.583,66.631,33.246,66.529,36.904,66.527z"/>
		<path fill="#E8C62E" d="M36.857,109.193c-3.656-0.002-7.315-0.101-10.966,0.039c-1.868,0.069-2.048-0.851-1.938-2.277
			c0.097-1.25-0.449-2.688,1.824-2.656c7.489,0.102,14.981,0.104,22.469-0.006c2.125-0.031,1.917,1.16,1.978,2.549
			c0.069,1.582-0.195,2.469-2.133,2.395C44.352,109.092,40.603,109.193,36.857,109.193z"/>
		<path fill="#E8C62E" d="M41.211,6.294c1.396,2.646,2.341,5.551,2.306,8.444c-0.039,3.209-3.746,5.371-7.38,4.895
			c-3.19-0.418-5.605-3.174-5.081-6.375c0.383-2.339,1.446-4.566,2.567-6.774c-0.113,1.798-0.147,3.607-0.369,5.392
			c-0.134,1.08-0.07,1.941,0.967,2.502c0.613,0.332,1.214,0.336,1.696-0.205c0.71-0.796,0.547-1.695,0.016-2.458
			c-1.154-1.661-0.895-3.164,0.318-4.629c0.76-0.918,0.751-1.955,0.49-3.035C36.479,2.977,36.523,1.943,37.084,1
			c1.92,3.084,2.494,6.277,0.945,9.734c-0.404,0.904-0.201,1.946,0.793,2.59c0.589,0.381,1.17,0.39,1.736-0.026
			c0.998-0.734,0.807-1.657,0.42-2.627c-0.602-1.511,0.401-2.933,0.272-4.422L41.211,6.294z"/>
		<path fill="#E8C62E" d="M49.616,42.397c-0.638,5.256-6.121,9.846-11.813,10.327c-6.109,0.516-11.877-3.952-14.231-11.489
			c3.554,4.38,7.772,6.188,12.807,6.315C41.392,47.678,45.828,46.316,49.616,42.397z"/>
		<path fill="#E8C62E" d="M48.689,112.943c-3.819,2.475-7.177,4.635-10.513,6.826c-0.743,0.487-1.362,0.608-2.173,0.071
			c-3.33-2.207-6.701-4.353-10.642-6.897C33.364,112.943,40.708,112.943,48.689,112.943z"/>
		<path fill="#E8C62E" d="M26.717,55.82c6.89,0,13.78,0,21.552,0c-3.955,2.653-7.336,4.94-10.743,7.188
			c-0.634,0.418-1.181-0.089-1.69-0.432c-3.085-2.075-6.165-4.159-9.247-6.24C26.632,56.164,26.674,55.992,26.717,55.82z"/>
		<path fill="#E8C62E" d="M41.25,6.249c-0.078-0.004-0.157-0.009-0.234-0.013c0.064,0.02,0.129,0.041,0.194,0.06
			C41.211,6.294,41.25,6.249,41.25,6.249z"/>
	</g>
</g>
<text transform="matrix(1 0 0 1 76.5889 72.5703)" fill="#010101" font-family="'Roboto-Thin'" font-size="19.5514">Mongolia </text>
<text transform="matrix(1 0 0 1 76.5889 96.0332)" fill="#010101" font-family="'Roboto-Thin'" font-size="19.5514">Business </text>
<text transform="matrix(1 0 0 1 76.5889 119.4941)" fill="#010101" font-family="'Roboto-Thin'" font-size="19.5514">Congress</text>
<text transform="matrix(1 0 0 1 79.9062 27.666)" fill="#010101" font-family="'Roboto-Thin'" font-size="16.0736">Dubai 2014</text>
</svg>
