<?xml version="1.0" encoding="utf-8"?>
<!-- Generator: Adobe Illustrator 16.0.0, SVG Export Plug-In . SVG Version: 6.00 Build 0)  -->
<!DOCTYPE svg PUBLIC "-//W3C//DTD SVG 1.1//EN" "http://www.w3.org/Graphics/SVG/1.1/DTD/svg11.dtd">
<svg version="1.1" id="Layer_1" xmlns="http://www.w3.org/2000/svg" xmlns:xlink="http://www.w3.org/1999/xlink" x="0px" y="0px"
	 width="20px" height="20px" viewBox="0 0 20 20" enable-background="new 0 0 20 20" xml:space="preserve">
<g id="RnzVl6.tif">
	<g>
		<path d="M5.52,6.28c0-0.998,0-1.962,0-2.927c0-0.17-0.007-0.345,0.021-0.511c0.125-0.714,0.691-1.196,1.42-1.197
			c2.772-0.004,5.543-0.002,8.314-0.002c1.002,0,2.004,0,3.01,0.001c0.877,0.001,1.488,0.602,1.488,1.481
			c0.002,4.688,0.004,9.377-0.002,14.064c-0.002,1.522-1.277,2.805-2.801,2.807c-4.547,0.006-9.093,0.006-13.641,0
			c-1.53-0.002-2.803-1.297-2.803-2.83c-0.002-3.135,0-6.271,0.002-9.405c0-0.876,0.607-1.479,1.489-1.479
			c1.092-0.001,2.184,0,3.275,0C5.36,6.28,5.425,6.28,5.52,6.28z M5.311,19.295c0.074,0,0.141,0,0.207,0
			c1.894,0,3.789,0.002,5.682,0.002c1.893,0,3.788,0.002,5.682-0.002c1.138-0.002,2.029-0.77,2.17-1.891
			c0.044-0.344,0.021-0.697,0.021-1.047c0-4.404,0-8.81-0.003-13.213c0-0.505-0.286-0.799-0.778-0.799
			c-3.767-0.001-7.53-0.001-11.296,0c-0.479,0-0.773,0.299-0.773,0.783c-0.002,4.5-0.013,9.001,0.01,13.501
			c0.003,1.006-0.183,1.9-0.925,2.621C5.304,19.252,5.308,19.262,5.311,19.295z M2.668,14.824c0-0.084,0-0.15,0-0.215
			c0-0.787,0-1.574,0-2.361c0-1.501,0-3.001,0-4.502c0-0.331-0.143-0.576-0.444-0.708C1.735,6.826,1.23,7.194,1.229,7.761
			c-0.002,1.448,0,2.896,0,4.345c0,1.693-0.01,3.388,0.006,5.082c0.009,1.177,0.978,2.111,2.146,2.109
			c1.168-0.004,2.129-0.951,2.14-2.123c0.008-0.713,0.002-1.426,0-2.139c0-0.064-0.009-0.129-0.017-0.211
			C4.556,14.824,3.623,14.824,2.668,14.824z"/>
		<path d="M17.812,10.566c0,0.453,0,0.906,0,1.356c-0.004,0.478-0.289,0.763-0.767,0.763c-0.913,0.002-1.827,0.002-2.737,0
			c-0.476,0-0.763-0.291-0.765-0.767c0-0.912,0-1.825,0.002-2.738c0-0.472,0.289-0.761,0.767-0.762c0.91-0.002,1.824-0.002,2.737,0
			c0.47,0.001,0.759,0.292,0.763,0.765c0,0.23,0,0.46,0,0.69S17.812,10.336,17.812,10.566z"/>
		<path d="M12.803,14.469c-1.508,0-3.014,0.002-4.521,0c-0.256,0-0.405-0.1-0.437-0.289c-0.042-0.229,0.129-0.408,0.403-0.408
			c0.959-0.004,1.916-0.004,2.875-0.004c2.041,0,4.085,0,6.126,0c0.074,0,0.147-0.002,0.222,0.004c0.2,0.017,0.34,0.156,0.344,0.345
			c0.002,0.19-0.146,0.348-0.354,0.354c-0.297,0.009-0.593,0.003-0.892,0.003c-1.254,0-2.508,0-3.766,0
			C12.803,14.471,12.803,14.471,12.803,14.469z"/>
		<path d="M12.827,16.252c-1.517,0-3.031-0.002-4.544,0.002c-0.198,0-0.357-0.047-0.427-0.246c-0.08-0.23,0.095-0.451,0.368-0.453
			c0.661-0.006,1.322-0.002,1.982-0.002c2.354-0.002,4.708,0,7.062-0.002c0.371,0,0.539,0.107,0.545,0.346
			c0.004,0.246-0.168,0.355-0.551,0.355C15.782,16.252,14.305,16.252,12.827,16.252z"/>
		<path d="M12.339,4.15c0.245,0,0.456,0,0.685,0c0.134,0.615,0.267,1.22,0.412,1.887c0.035-0.093,0.058-0.131,0.065-0.172
			c0.12-0.521,0.239-1.04,0.351-1.562c0.025-0.125,0.075-0.175,0.207-0.166c0.153,0.011,0.31,0.002,0.496,0.002
			c0.141,0.635,0.281,1.268,0.432,1.945c0.148-0.672,0.285-1.302,0.427-1.936c0.226,0,0.438,0,0.685,0
			c-0.22,0.89-0.435,1.764-0.647,2.635C15.416,6.79,15.395,6.8,15.372,6.799c-0.251-0.004-0.567,0.08-0.733-0.042
			c-0.15-0.11-0.143-0.443-0.195-0.681c-0.071-0.325-0.137-0.652-0.217-1.037c-0.135,0.617-0.258,1.181-0.379,1.737
			c-0.027,0.01-0.041,0.02-0.056,0.02c-0.253-0.001-0.569,0.09-0.735-0.029c-0.16-0.114-0.17-0.445-0.232-0.686
			C12.658,5.445,12.501,4.806,12.339,4.15z"/>
		<path d="M7.314,4.14c0.313,0,0.617-0.009,0.917,0.007C8.294,4.15,8.373,4.24,8.41,4.308c0.287,0.511,0.564,1.024,0.874,1.589
			c0-0.613,0-1.167,0-1.739c0.211,0,0.429,0,0.665,0c0,0.864,0,1.737,0,2.645c-0.291,0-0.592,0.007-0.892-0.009
			c-0.055-0.002-0.12-0.096-0.152-0.161C8.636,6.11,8.378,5.586,8.114,5.062C8.093,5.019,8.068,4.975,8.008,4.936
			c0,0.614,0,1.229,0,1.855c-0.245,0-0.463,0-0.693,0C7.314,5.907,7.314,5.035,7.314,4.14z"/>
		<path d="M16.398,6.102c0.277,0.049,0.537,0.109,0.802,0.127c0.088,0.007,0.183-0.101,0.274-0.157
			c-0.059-0.083-0.103-0.192-0.182-0.244c-0.148-0.096-0.32-0.154-0.477-0.238c-0.365-0.196-0.514-0.478-0.459-0.855
			c0.045-0.318,0.281-0.541,0.666-0.625c0.351-0.077,0.854,0,1.156,0.184c-0.066,0.166-0.134,0.334-0.195,0.483
			c-0.236-0.044-0.452-0.1-0.67-0.115c-0.082-0.007-0.166,0.083-0.254,0.127c0.051,0.075,0.084,0.175,0.151,0.219
			c0.144,0.092,0.304,0.156,0.456,0.231c0.425,0.211,0.573,0.469,0.507,0.883c-0.057,0.356-0.342,0.633-0.758,0.668
			c-0.276,0.022-0.562-0.022-0.839-0.046c-0.139-0.012-0.2-0.095-0.186-0.244C16.41,6.369,16.398,6.234,16.398,6.102z"/>
		<path d="M12.098,6.269c0,0.196,0,0.35,0,0.519c-0.521,0-1.037,0-1.57,0c0-0.875,0-1.747,0-2.634c0.519,0,1.035,0,1.565,0
			c0,0.163,0,0.322,0,0.501c-0.28,0-0.562,0-0.86,0c0,0.185,0,0.351,0,0.545c0.275,0,0.562,0,0.86,0c0,0.186,0,0.345,0,0.522
			c-0.282,0-0.562,0-0.86,0c0,0.186,0,0.352,0,0.546C11.508,6.269,11.792,6.269,12.098,6.269z"/>
		<path d="M10.241,9.12c-0.653,0-1.306,0.001-1.959-0.001c-0.285,0-0.444-0.131-0.44-0.353C7.844,8.543,8,8.42,8.291,8.42
			c1.307-0.002,2.611-0.001,3.919,0c0.271,0,0.429,0.129,0.431,0.342c0.004,0.223-0.156,0.357-0.439,0.358
			C11.548,9.122,10.895,9.121,10.241,9.12z"/>
		<path d="M10.231,10.902c-0.653,0-1.307,0.002-1.96,0c-0.271,0-0.427-0.127-0.43-0.34c-0.004-0.226,0.152-0.358,0.437-0.358
			c1.314-0.002,2.628-0.001,3.943,0c0.266,0.001,0.424,0.137,0.42,0.353c-0.002,0.215-0.158,0.346-0.429,0.348
			C11.553,10.906,10.891,10.902,10.231,10.902z"/>
		<path d="M10.243,11.986c0.653,0,1.306,0,1.959,0c0.28,0.002,0.444,0.135,0.438,0.356c-0.007,0.216-0.162,0.343-0.433,0.345
			c-1.313,0-2.628,0-3.942-0.002c-0.27,0-0.425-0.131-0.425-0.347c-0.002-0.219,0.152-0.353,0.421-0.353
			C8.921,11.984,9.582,11.986,10.243,11.986z"/>
	</g>
</g>
</svg>
