<?xml version="1.0" encoding="utf-8"?>
<!-- Generator: Adobe Illustrator 16.0.0, SVG Export Plug-In . SVG Version: 6.00 Build 0)  -->
<!DOCTYPE svg PUBLIC "-//W3C//DTD SVG 1.1//EN" "http://www.w3.org/Graphics/SVG/1.1/DTD/svg11.dtd">
<svg version="1.1" id="Layer_1" xmlns="http://www.w3.org/2000/svg" xmlns:xlink="http://www.w3.org/1999/xlink" x="0px" y="0px"
	 width="20px" height="20px" viewBox="0 0 20 20" enable-background="new 0 0 20 20" xml:space="preserve">
<g id="m1K5f2.tif">
	<g>
		<path d="M10.315,2.368c4.037-0.001,7.312,3.272,7.316,7.312c0.006,4.038-3.287,7.329-7.323,7.32C6.268,16.991,2.997,13.715,3,9.68
			C3.003,5.641,6.276,2.369,10.315,2.368z M8.461,11.491c-0.044-0.037-0.076-0.062-0.105-0.089
			c-0.708-0.635-1.417-1.269-2.123-1.903C6.072,9.354,5.89,9.263,5.673,9.254C5.326,9.24,5.006,9.445,4.876,9.762
			c-0.141,0.341-0.058,0.702,0.227,0.957c0.843,0.758,1.688,1.514,2.533,2.27c0.091,0.08,0.181,0.164,0.272,0.244
			c0.407,0.355,0.875,0.34,1.245-0.051c1.846-1.955,3.693-3.912,5.537-5.867c0.346-0.365,0.338-0.883-0.017-1.212
			c-0.34-0.317-0.854-0.285-1.196,0.078c-1.226,1.297-2.449,2.595-3.675,3.892C9.357,10.541,8.915,11.011,8.461,11.491z"/>
	</g>
</g>
</svg>
