<?xml version="1.0" encoding="utf-8"?>
<!-- Generator: Adobe Illustrator 16.0.0, SVG Export Plug-In . SVG Version: 6.00 Build 0)  -->
<!DOCTYPE svg PUBLIC "-//W3C//DTD SVG 1.1//EN" "http://www.w3.org/Graphics/SVG/1.1/DTD/svg11.dtd">
<svg version="1.1" id="Layer_1" xmlns="http://www.w3.org/2000/svg" xmlns:xlink="http://www.w3.org/1999/xlink" x="0px" y="0px"
	 width="20px" height="20px" viewBox="0 0 20 20" enable-background="new 0 0 20 20" xml:space="preserve">
<g id="Vg0pem.tif">
	<g>
		<path d="M14.453,12.495c-0.046,0.455-0.092,0.899-0.137,1.342c-0.088,0.845-0.178,1.687-0.267,2.527
			c-0.097,0.925-0.188,1.849-0.291,2.771c-0.032,0.296-0.3,0.505-0.62,0.505c-1.051,0.002-2.104,0.002-3.155,0.002
			c-0.869,0-1.737,0-2.605-0.002c-0.432-0.002-0.651-0.195-0.696-0.627c-0.123-1.166-0.241-2.332-0.363-3.5
			c-0.102-0.972-0.207-1.94-0.31-2.91c-0.003-0.031,0-0.065,0-0.108C8.824,12.495,11.631,12.495,14.453,12.495z"/>
		<path d="M15.066,13.124c0.029-0.3,0.055-0.567,0.082-0.838c0.039-0.375-0.043-0.466-0.414-0.466
			c-3.021,0.002-6.042,0.002-9.062,0.004c-0.317,0-0.396,0.089-0.369,0.406c0.025,0.289,0.052,0.578,0.081,0.889
			c-0.42,0-0.818,0.013-1.215-0.01c-0.107-0.006-0.229-0.092-0.312-0.172C3.3,12.391,2.75,11.837,2.199,11.285
			c-0.023-0.023-0.057-0.051-0.062-0.079c-0.062-0.374-0.134-0.754,0.059-1.107c0.1-0.182,0.294-0.222,0.496-0.222
			C3.554,9.88,4.416,9.878,5.278,9.878c2.932,0,5.865,0,8.797,0c0.704,0,1.409,0.001,2.116,0.002c0.072,0,0.147,0,0.242,0
			c0.002-0.422-0.002-0.827-0.211-1.192c-0.039-0.064-0.145-0.114-0.225-0.125c-0.539-0.072-0.926-0.535-0.873-1.066
			c0.05-0.526,0.512-0.913,1.04-0.874c0.521,0.038,0.935,0.49,0.89,1.023c-0.018,0.191-0.143,0.372-0.214,0.558
			c-0.022,0.056-0.063,0.133-0.044,0.173c0.219,0.423,0.271,0.877,0.278,1.342c0.001,0.046,0.013,0.092,0.022,0.161
			c0.233,0,0.463-0.001,0.691,0c0.361,0.003,0.566,0.205,0.577,0.565c0.021,0.704,0.021,0.704-0.479,1.202
			c-0.416,0.418-0.838,0.834-1.25,1.256c-0.154,0.154-0.324,0.229-0.543,0.225C15.764,13.117,15.434,13.124,15.066,13.124z"/>
		<path d="M11.218,8.365c0.207-0.432,0.396-0.822,0.582-1.213c0.188-0.391,0.375-0.782,0.56-1.17
			c1.148-0.099,2.008,0.616,2.086,1.759c0.033,0.479,0.006,0.962,0.006,1.46c-2.811,0-5.616,0-8.452,0c0-0.082-0.001-0.167,0-0.251
			C6.01,8.475,5.997,7.998,6.038,7.526C6.12,6.59,7.091,5.837,8.015,5.977c0.058,0.009,0.122,0.092,0.153,0.156
			C8.49,6.797,8.806,7.465,9.124,8.132c0.028,0.06,0.063,0.118,0.114,0.215C9.349,8.162,9.447,8,9.545,7.836
			c0.042-0.07,0.075-0.146,0.124-0.21c0.143-0.19,0.164-0.334-0.009-0.555c-0.137-0.173-0.165-0.45-0.19-0.687
			c-0.021-0.201,0.138-0.341,0.322-0.36c0.293-0.03,0.594-0.032,0.886-0.001c0.213,0.022,0.319,0.192,0.315,0.413
			c-0.005,0.294-0.093,0.558-0.298,0.78c-0.036,0.04-0.043,0.11-0.055,0.168c-0.002,0.021,0.024,0.047,0.039,0.07
			C10.852,7.744,11.021,8.034,11.218,8.365z"/>
		<path d="M12.501,3.056c-0.009,1.24-1.043,2.26-2.284,2.249c-1.258-0.011-2.28-1.042-2.265-2.289C7.967,1.75,9,0.74,10.269,0.755
			C11.506,0.77,12.509,1.803,12.501,3.056z"/>
	</g>
</g>
</svg>
