<?xml version="1.0" encoding="utf-8"?>
<!-- Generator: Adobe Illustrator 16.0.0, SVG Export Plug-In . SVG Version: 6.00 Build 0)  -->
<!DOCTYPE svg PUBLIC "-//W3C//DTD SVG 1.1//EN" "http://www.w3.org/Graphics/SVG/1.1/DTD/svg11.dtd">
<svg version="1.1" id="Layer_1" xmlns="http://www.w3.org/2000/svg" xmlns:xlink="http://www.w3.org/1999/xlink" x="0px" y="0px"
	 width="20px" height="20px" viewBox="0 0 20 20" enable-background="new 0 0 20 20" xml:space="preserve">
<path fill="#FFFFFF" stroke="#000000" stroke-miterlimit="10" d="M18.259,10.101c0,4.594-3.722,8.324-8.318,8.324
	c-4.595,0-8.317-3.729-8.317-8.324c0-4.596,3.723-8.318,8.317-8.318C14.537,1.783,18.259,5.505,18.259,10.101z"/>
<g id="ivX9pF.tif">
	<g>
		<path display="none" d="M18.971,10.525c-0.045,0.336-0.082,0.674-0.14,1.005c-0.25,1.442-0.843,2.739-1.738,3.896
			c-0.159,0.212-0.417,0.257-0.614,0.11c-0.199-0.153-0.221-0.403-0.043-0.63c0.775-1.021,1.311-2.14,1.537-3.4
			c0.463-2.551-0.115-4.837-1.781-6.83c-1.084-1.304-2.461-2.191-4.103-2.609C9.575,1.423,7.251,1.871,5.134,3.387
			c-0.044,0.037-0.087,0.074-0.14,0.11c-0.226,0.162-0.469,0.14-0.622-0.058c-0.146-0.191-0.104-0.447,0.11-0.616
			C5.075,2.362,5.72,1.98,6.409,1.68c4.896-2.118,10.552,0.469,12.157,5.562c0.199,0.624,0.322,1.268,0.373,1.92
			c0,0.059,0.023,0.118,0.031,0.169C18.971,9.733,18.971,10.13,18.971,10.525z"/>
		<path display="none" d="M1,9.332c0.052-0.345,0.088-0.689,0.146-1.034c0.264-1.429,0.843-2.719,1.73-3.862
			c0.161-0.212,0.41-0.256,0.6-0.11c0.198,0.146,0.235,0.403,0.066,0.615C2.95,5.725,2.495,6.567,2.209,7.507
			c-0.3,0.975-0.425,1.964-0.337,2.975c0.206,2.594,1.386,4.639,3.489,6.141c1.202,0.85,2.557,1.32,4.03,1.424
			c2.06,0.146,3.914-0.42,5.562-1.656c0.234-0.185,0.482-0.162,0.646,0.051c0.146,0.199,0.088,0.445-0.14,0.623
			c-1.399,1.062-2.97,1.679-4.729,1.824c-0.043,0-0.094,0.022-0.146,0.028c-0.402,0-0.798,0-1.194,0
			c-0.05-0.015-0.102-0.028-0.153-0.028c-1.466-0.123-2.829-0.572-4.061-1.369c-2.198-1.431-3.553-3.438-4.037-6.025
			C1.081,11.178,1.045,10.848,1,10.525C1,10.13,1,9.733,1,9.332z"/>
		<path d="M9.897,4.311c1.062,0.008,1.949,0.25,2.682,0.909c0.959,0.857,1.282,1.95,1.077,3.204
			c-0.141,0.835-0.432,1.612-0.828,2.352c-0.66,1.262-1.487,2.396-2.505,3.387c-0.375,0.367-0.324,0.344-0.654,0.007
			c-1.45-1.494-2.623-3.157-3.173-5.194C6.182,7.8,6.291,6.686,7.039,5.689C7.64,4.904,8.446,4.472,9.414,4.348
			C9.603,4.326,9.801,4.319,9.897,4.311z M9.985,13.311c0.652-0.696,1.208-1.422,1.686-2.205c0.578-0.946,1.062-1.929,1.181-3.048
			c0.103-0.998-0.242-1.804-1.064-2.383c-0.665-0.476-1.428-0.571-2.226-0.491C8.446,5.3,7.552,6.041,7.259,7.125
			C7.091,7.762,7.2,8.378,7.376,8.987c0.367,1.253,1.033,2.337,1.818,3.356C9.442,12.673,9.713,12.98,9.985,13.311z"/>
		<path d="M9.992,16.125c-0.447-0.016-0.88-0.066-1.29-0.229c-0.096-0.045-0.198-0.088-0.278-0.153
			c-0.169-0.124-0.176-0.292,0.007-0.396c0.198-0.108,0.417-0.205,0.645-0.256c0.704-0.17,1.415-0.146,2.109,0.073
			c0.096,0.028,0.191,0.073,0.279,0.131c0.277,0.162,0.286,0.36-0.007,0.507c-0.199,0.102-0.427,0.176-0.653,0.228
			C10.535,16.082,10.264,16.096,9.992,16.125z"/>
		<path d="M7.955,7.63c0.38,0,0.762,0,1.15,0c0.382,0.008,0.382,0.008,0.498-0.359c0.125-0.367,0.243-0.74,0.404-1.106
			c0.11,0.336,0.219,0.667,0.323,1.004c0.152,0.469,0.146,0.469,0.63,0.469c0.353-0.008,0.703-0.008,1.069,0.036
			c-0.402,0.293-0.813,0.594-1.238,0.901c0.162,0.491,0.314,0.989,0.49,1.525c-0.401-0.294-0.77-0.543-1.128-0.821
			c-0.132-0.104-0.212-0.095-0.345,0.007c-0.307,0.242-0.637,0.47-0.959,0.705c-0.037,0.028-0.081,0.051-0.155,0.102
			c0.169-0.527,0.323-1.018,0.484-1.516c-0.41-0.3-0.82-0.602-1.23-0.901C7.948,7.66,7.948,7.646,7.955,7.63z"/>
	</g>
</g>
</svg>
