<?xml version="1.0" encoding="utf-8"?>
<!-- Generator: Adobe Illustrator 16.0.0, SVG Export Plug-In . SVG Version: 6.00 Build 0)  -->
<!DOCTYPE svg PUBLIC "-//W3C//DTD SVG 1.1//EN" "http://www.w3.org/Graphics/SVG/1.1/DTD/svg11.dtd">
<svg version="1.1" id="Layer_1" xmlns="http://www.w3.org/2000/svg" xmlns:xlink="http://www.w3.org/1999/xlink" x="0px" y="0px"
	 width="14px" height="15px" viewBox="0 0 14 15" enable-background="new 0 0 14 15" xml:space="preserve">
<g>
	<path fill="#FFFFFF" d="M4.029,14.46c0-0.333,0-0.666,0-1.01c0.096-0.005,0.179-0.009,0.277-0.013
		c0.143-2.818,0.285-5.634,0.43-8.463c-0.123,0-0.234,0-0.356,0c0-0.645,0-1.276,0-1.919c0.291,0,0.581,0,0.882,0
		c0-0.455,0-0.899,0-1.357c-0.166,0-0.332,0-0.537,0c0.056-0.052,0.084-0.08,0.115-0.103c0.41-0.308,0.818-0.618,1.232-0.92
		c0.081-0.06,0.113-0.123,0.107-0.223C6.172,0.301,6.176,0.15,6.176,0c0.227,0,0.451,0,0.678,0c0,0.16-0.01,0.321,0.003,0.479
		c0.005,0.064,0.045,0.143,0.095,0.182c0.384,0.296,0.772,0.583,1.162,0.873C8.168,1.576,8.223,1.62,8.307,1.686
		c-0.199,0-0.365,0-0.541,0c0,0.458,0,0.902,0,1.36c0.293,0,0.584,0,0.885,0c0,0.646,0,1.277,0,1.919c-0.113,0-0.227,0-0.356,0
		c0.146,2.826,0.286,5.643,0.431,8.473c0.09,0.004,0.172,0.011,0.277,0.017c0,0.335,0,0.672,0,1.008
		C7.343,14.46,5.686,14.46,4.029,14.46z M4.758,13.436c1.184,0,2.342,0,3.514,0c-0.03-0.604-0.062-1.195-0.094-1.791
		c-1.118,0-2.22,0-3.328,0C4.818,12.244,4.789,12.834,4.758,13.436z M8.093,9.936c-0.03-0.57-0.058-1.127-0.087-1.684
		c-1.003,0-1.988,0-2.984,0c-0.028,0.564-0.057,1.12-0.085,1.684C5.992,9.936,7.034,9.936,8.093,9.936z M7.841,4.979
		c-0.892,0-1.769,0-2.653,0c-0.027,0.528-0.053,1.045-0.08,1.564c0.948,0,1.876,0,2.812,0C7.895,6.018,7.867,5.503,7.841,4.979z
		 M6.847,4.515c0-0.345,0-0.675,0-1.004c-0.228,0-0.446,0-0.661,0c0,0.342,0,0.672,0,1.004C6.408,4.515,6.619,4.515,6.847,4.515z
		 M7.2,3.504c0,0.346,0,0.675,0,1.004c0.153,0,0.296,0,0.437,0c0-0.34,0-0.67,0-1.004C7.488,3.504,7.35,3.504,7.2,3.504z
		 M5.83,4.513c0-0.343,0-0.672,0-1.005c-0.15,0-0.293,0-0.439,0c0,0.338,0,0.668,0,1.005C5.538,4.513,5.677,4.513,5.83,4.513z
		 M6.676,1.923c0.232,0.115,0.381,0.282,0.399,0.543C7.093,2.727,6.95,2.902,6.732,3.042c0.201,0,0.383,0,0.566,0
		c0-0.377,0-0.745,0-1.119C7.086,1.923,6.881,1.923,6.676,1.923z M6.279,3.046c-0.252-0.15-0.377-0.335-0.354-0.6
		c0.021-0.257,0.182-0.413,0.422-0.518c-0.222,0-0.421,0-0.615,0c0,0.38,0,0.749,0,1.117C5.913,3.046,6.08,3.046,6.279,3.046z
		 M8.202,4.51c0-0.34,0-0.671,0-1.001c-0.077,0-0.146,0-0.213,0c0,0.337,0,0.665,0,1.001C8.062,4.51,8.125,4.51,8.202,4.51z
		 M4.827,3.505c0,0.346,0,0.675,0,1.004c0.078,0,0.146,0,0.21,0c0-0.34,0-0.67,0-1.004C4.963,3.505,4.898,3.505,4.827,3.505z
		 M6.5,2.257C6.369,2.256,6.258,2.37,6.258,2.501c0.001,0.129,0.117,0.242,0.247,0.24C6.627,2.739,6.739,2.626,6.74,2.504
		C6.742,2.375,6.629,2.258,6.5,2.257z"/>
	<path fill="#FFFFFF" d="M6.85,13.096c-0.23,0-0.443,0-0.669,0c0-0.32-0.009-0.636,0.003-0.949c0.008-0.17,0.171-0.289,0.347-0.28
		c0.169,0.007,0.312,0.131,0.317,0.3C6.855,12.471,6.85,12.775,6.85,13.096z"/>
	<path fill="#FFFFFF" d="M6.85,9.709c-0.23,0-0.44,0-0.672,0c0-0.146,0-0.29,0-0.434c0-0.166-0.005-0.33,0.003-0.494
		C6.19,8.605,6.332,8.477,6.507,8.475C6.684,8.473,6.84,8.593,6.846,8.766C6.857,9.075,6.85,9.385,6.85,9.709z"/>
	<path fill="#FFFFFF" d="M6.848,6.319c-0.23,0-0.441,0-0.667,0c0-0.291-0.008-0.576,0.003-0.86c0.006-0.148,0.158-0.257,0.32-0.26
		c0.174-0.003,0.332,0.1,0.34,0.253C6.857,5.737,6.848,6.023,6.848,6.319z"/>
</g>
</svg>
