<?xml version="1.0" encoding="utf-8"?>
<!-- Generator: Adobe Illustrator 16.0.0, SVG Export Plug-In . SVG Version: 6.00 Build 0)  -->
<!DOCTYPE svg PUBLIC "-//W3C//DTD SVG 1.1//EN" "http://www.w3.org/Graphics/SVG/1.1/DTD/svg11.dtd">
<svg version="1.1" id="Layer_1" xmlns="http://www.w3.org/2000/svg" xmlns:xlink="http://www.w3.org/1999/xlink" x="0px" y="0px"
	 width="14px" height="15px" viewBox="0 0 14 15" enable-background="new 0 0 14 15" xml:space="preserve">
<g id="Qn7HoK_1_">
	<g>
		<path fill="#FFFFFF" d="M9.884,13.275c-1.924,0-3.848,0-5.773,0c-0.01-0.016-0.021-0.027-0.031-0.041
			c0.159-0.152,0.338-0.287,0.475-0.457c0.223-0.279,0.489-0.412,0.843-0.346c0.18,0.033,0.216-0.047,0.213-0.215
			c-0.009-0.709,0-1.42-0.005-2.131c0-0.119,0.037-0.201,0.125-0.279C5.927,9.63,6.112,9.443,6.306,9.266
			C6.379,9.2,6.409,9.124,6.407,9.025c-0.005-0.25-0.007-0.504,0-0.754C6.411,8.16,6.369,8.123,6.264,8.109
			c-0.318-0.033-0.629-0.112-0.938-0.2C5.238,7.883,5.181,7.844,5.146,7.75C4.864,7.014,4.579,6.28,4.289,5.545
			c-0.036-0.091,0.004-0.148,0.05-0.217C4.79,4.687,5.236,4.042,5.69,3.404c0.069-0.098,0.073-0.17,0.024-0.279
			c-0.261-0.59-0.087-1.28,0.413-1.67C6.28,1.333,6.294,1.339,6.333,1.527C6.515,2.399,6.7,3.271,6.874,4.147
			c0.029,0.148,0.078,0.187,0.223,0.147c0.175-0.05,0.356-0.084,0.538-0.113C7.75,4.163,7.782,4.12,7.757,4.001
			C7.583,3.2,7.419,2.401,7.252,1.6C7.233,1.505,7.22,1.408,7.193,1.315c-0.039-0.137,0.004-0.16,0.132-0.129
			C8.172,1.387,8.643,2.31,8.291,3.112C8.238,3.234,8.246,3.311,8.32,3.418c0.522,0.736,1.041,1.48,1.558,2.22
			c0.028,0.039,0.089,0.077,0.062,0.131C9.912,5.824,9.848,5.796,9.799,5.796C9.427,5.798,9.055,5.792,8.684,5.799
			c-0.119,0.004-0.188-0.038-0.252-0.13C8.188,5.314,7.939,4.965,7.693,4.611C7.677,4.59,7.658,4.571,7.626,4.533
			c-0.044,0.141-0.022,0.27-0.024,0.396C7.598,5.095,7.594,5.262,7.604,5.427c0.006,0.129-0.027,0.191-0.169,0.176
			C7.325,5.592,7.215,5.608,7.106,5.599C6.992,5.59,6.96,5.636,6.962,5.746c0.007,0.475,0.007,0.95,0.008,1.425
			c0,0.062,0,0.127-0.004,0.189C6.953,7.568,6.973,7.585,7.175,7.583C7.516,7.573,7.857,7.569,8.2,7.565
			c0.073-0.001,0.137-0.006,0.137-0.106c-0.001-0.071,0.06-0.075,0.112-0.075c0.434-0.002,0.867-0.006,1.302-0.006
			c0.296,0,0.593,0.008,0.89,0.006c0.049,0,0.123,0.008,0.131-0.077c0.004-0.058-0.004-0.107,0.086-0.112
			c0.088-0.006,0.139,0.02,0.186,0.089c0.245,0.358,0.494,0.714,0.74,1.073c0.224,0.324,0.224,0.324,0.51,0.061
			c0.294-0.268,0.294-0.268,0.573,0.014C13.148,8.715,13.43,9,13.717,9.279c0.073,0.072,0.08,0.113,0,0.188
			c-0.324,0.31-0.669,0.595-1.02,0.865c-0.108,0.084-0.161,0.065-0.225-0.041c-0.066-0.115-0.148-0.219-0.226-0.324
			c-0.034-0.047-0.075-0.098-0.146-0.059c-0.067,0.043-0.054,0.106-0.014,0.164c0.079,0.116,0.159,0.235,0.245,0.352
			c0.054,0.07,0.062,0.115-0.024,0.177c-0.645,0.422-1.328,0.765-2.05,1.028c-0.097,0.035-0.133,0.006-0.159-0.084
			c-0.033-0.127-0.078-0.252-0.119-0.377c-0.021-0.063-0.043-0.146-0.137-0.117c-0.092,0.027-0.07,0.103-0.047,0.173
			c0.042,0.129,0.08,0.262,0.127,0.392c0.03,0.079,0.018,0.123-0.07,0.149c-0.396,0.12-0.795,0.215-1.201,0.291
			c-0.103,0.019-0.129-0.021-0.129-0.119c0.004-0.498,0.009-0.996-0.002-1.494c0-0.129,0.07-0.146,0.164-0.166
			c0.762-0.166,1.479-0.44,2.16-0.815c0.135-0.073,0.162-0.123,0.062-0.26c-0.383-0.527-0.752-1.063-1.122-1.603
			c-0.06-0.087-0.11-0.108-0.209-0.059C9.001,7.831,8.396,8.027,7.754,8.107C7.63,8.123,7.592,8.17,7.598,8.295
			c0.012,0.24,0.01,0.48,0,0.721C7.596,9.129,7.629,9.209,7.714,9.283C7.909,9.461,8.093,9.65,8.288,9.824
			c0.086,0.078,0.11,0.162,0.11,0.271c-0.004,0.723,0.002,1.439-0.006,2.16c0,0.129,0.027,0.201,0.17,0.176
			c0.396-0.076,0.686,0.086,0.927,0.393c0.122,0.154,0.284,0.277,0.429,0.412C9.907,13.248,9.896,13.262,9.884,13.275z M6.387,4.537
			C6.37,4.545,6.354,4.55,6.344,4.563C5.918,5.17,5.495,5.78,5.066,6.385C4.992,6.489,5.068,6.51,5.134,6.541
			C5.472,6.696,5.82,6.815,6.187,6.878c0.218,0.036,0.217,0.04,0.217-0.186c0-0.663,0.001-1.326,0-1.987
			C6.403,4.651,6.421,4.593,6.387,4.537z M7.792,11.512c0-0.133-0.004-0.266,0.002-0.395c0.005-0.1-0.021-0.145-0.13-0.145
			c-0.44,0.006-0.88,0.006-1.32,0.002c-0.104-0.002-0.137,0.033-0.136,0.139c0.007,0.264,0.005,0.521,0,0.789
			c-0.001,0.102,0.029,0.145,0.135,0.143c0.143-0.008,0.286-0.008,0.428,0c0.11,0.002,0.137-0.045,0.133-0.143
			c-0.006-0.139-0.002-0.275-0.001-0.412c0-0.068,0.014-0.133,0.099-0.133c0.086,0,0.095,0.064,0.096,0.133
			c0.001,0.143,0.003,0.285,0,0.428c-0.003,0.086,0.023,0.127,0.115,0.121c0.154-0.002,0.309-0.002,0.462,0
			c0.089,0.006,0.123-0.031,0.12-0.117C7.789,11.785,7.792,11.646,7.792,11.512z"/>
		<path fill="#FFFFFF" d="M3.647,6.325c0.17,0.447,0.327,0.861,0.486,1.273c0.039,0.1-0.031,0.164-0.078,0.232
			c-0.32,0.458-0.638,0.921-0.967,1.375c-0.096,0.131-0.072,0.178,0.06,0.252c0.676,0.371,1.387,0.65,2.141,0.811
			c0.139,0.027,0.196,0.076,0.192,0.232c-0.013,0.467-0.009,0.938,0,1.406c0.001,0.139-0.044,0.17-0.17,0.141
			c-0.306-0.072-0.611-0.145-0.919-0.209c-0.15-0.029-0.206-0.086-0.131-0.24c0.052-0.104,0.079-0.225,0.114-0.34
			c0.02-0.064,0.027-0.133-0.053-0.158c-0.083-0.021-0.111,0.041-0.131,0.104c-0.046,0.135-0.09,0.271-0.131,0.41
			c-0.022,0.079-0.055,0.106-0.146,0.075c-0.789-0.271-1.53-0.638-2.226-1.094c-0.084-0.058-0.088-0.101-0.03-0.175
			c0.088-0.112,0.166-0.233,0.249-0.353c0.041-0.057,0.058-0.118-0.012-0.161c-0.064-0.043-0.108,0-0.143,0.051
			c-0.086,0.121-0.175,0.24-0.254,0.365C1.449,10.4,1.404,10.4,1.334,10.348C0.96,10.072,0.607,9.773,0.271,9.451
			c-0.057-0.053-0.066-0.09-0.006-0.152c0.363-0.357,0.723-0.715,1.08-1.078c0.06-0.061,0.099-0.055,0.156,0
			c0.132,0.125,0.271,0.242,0.404,0.371C1.967,8.646,2.01,8.662,2.066,8.58c0.303-0.445,0.61-0.885,0.918-1.326
			C3.195,6.953,3.411,6.654,3.647,6.325z"/>
		<path fill="#FFFFFF" d="M7.097,6.589c0-0.239,0.004-0.48-0.002-0.72C7.092,5.762,7.131,5.731,7.233,5.733
			c0.281,0.005,0.562,0,0.842,0.002c0.052,0,0.132-0.02,0.128,0.068C8.198,5.95,8.296,5.932,8.387,5.932
			c0.693,0,1.387-0.002,2.078,0c0.09,0,0.201-0.035,0.203,0.125c0.001,0.057,0.068,0.048,0.113,0.048
			c0.492,0,0.986,0.021,1.476-0.011c0.214-0.013,0.429-0.027,0.644-0.038c0.107-0.004,0.154,0.025,0.15,0.143
			c-0.012,0.258-0.012,0.516-0.004,0.772c0.004,0.116-0.039,0.145-0.146,0.143c-0.534-0.008-1.069-0.069-1.605-0.046
			c-0.136,0.005-0.271-0.013-0.408,0c-0.095,0.009-0.226-0.032-0.25,0.136c-0.01,0.066-0.097,0.041-0.15,0.041
			C9.932,7.249,9.378,7.249,8.825,7.249c-0.132,0-0.261,0-0.394,0C8.328,7.247,8.207,7.213,8.209,7.391
			c0,0.051-0.057,0.049-0.095,0.049c-0.298,0.002-0.595,0-0.891,0.006C7.124,7.448,7.1,7.401,7.101,7.311
			c0.005-0.24,0.002-0.481,0.002-0.722C7.101,6.589,7.099,6.589,7.097,6.589z"/>
		<path fill="#FFFFFF" d="M5.036,7.885c0.009,0.051-0.021,0.069-0.054,0.082C4.919,7.992,4.854,8.016,4.791,8.043
			C4.509,8.154,4.512,8.154,4.405,7.877c-0.318-0.826-0.636-1.65-0.961-2.472C3.396,5.279,3.396,5.223,3.541,5.17
			c0.39-0.138,0.387-0.145,0.54,0.246c0.308,0.799,0.618,1.598,0.927,2.397C5.017,7.839,5.028,7.865,5.036,7.885z M4.358,6.581
			C4.344,6.499,4.298,6.448,4.21,6.454C4.121,6.46,4.08,6.518,4.085,6.602c0.005,0.079,0.06,0.123,0.136,0.122
			C4.307,6.721,4.35,6.665,4.358,6.581z"/>
		<path fill="#FFFFFF" d="M6.412,1.168C6.403,1.124,6.416,1.089,6.465,1.079C6.482,1.075,6.498,1.07,6.514,1.066
			C6.966,0.948,6.966,0.948,7.06,1.404C7.231,2.227,7.4,3.049,7.574,3.872C7.6,3.992,7.578,4.039,7.451,4.065
			c-0.416,0.086-0.416,0.091-0.5-0.313c-0.175-0.838-0.35-1.677-0.523-2.515C6.422,1.213,6.417,1.191,6.412,1.168z M7,2.694
			c0.088-0.007,0.142-0.051,0.137-0.141C7.133,2.467,7.078,2.419,6.992,2.424c-0.078,0.003-0.127,0.053-0.128,0.13
			C6.863,2.643,6.914,2.689,7,2.694z"/>
		<path fill="#FFFFFF" d="M6.387,4.537c0.035,0.057,0.017,0.114,0.017,0.168c0.001,0.661,0,1.324,0,1.987
			c0,0.226,0.001,0.222-0.217,0.186C5.819,6.815,5.472,6.696,5.134,6.541C5.068,6.51,4.992,6.489,5.066,6.385
			C5.495,5.78,5.918,5.17,6.344,4.563C6.354,4.55,6.37,4.545,6.387,4.537z"/>
		<path fill="#FFFFFF" d="M7.792,11.512c0.001,0.135-0.002,0.273,0.002,0.41c0.003,0.086-0.03,0.123-0.12,0.117
			c-0.152-0.002-0.309-0.002-0.462,0c-0.092,0.006-0.118-0.035-0.115-0.121c0.004-0.143,0.001-0.285,0-0.428
			c0-0.066-0.01-0.133-0.096-0.133c-0.084,0-0.098,0.062-0.099,0.133c-0.001,0.137-0.005,0.273,0.001,0.412
			C6.907,12,6.881,12.047,6.771,12.045c-0.143-0.008-0.286-0.008-0.428,0c-0.106,0.002-0.137-0.041-0.135-0.143
			c0.005-0.268,0.007-0.525,0-0.789c-0.001-0.104,0.032-0.141,0.136-0.139c0.44,0.004,0.88,0.004,1.32-0.002
			c0.109,0,0.136,0.045,0.13,0.145C7.787,11.246,7.792,11.379,7.792,11.512z"/>
		<path fill="#FFFFFF" d="M4.358,6.581C4.35,6.665,4.307,6.721,4.221,6.724C4.145,6.725,4.09,6.681,4.085,6.602
			C4.08,6.518,4.121,6.46,4.21,6.454C4.298,6.448,4.344,6.499,4.358,6.581z"/>
		<path fill="#FFFFFF" d="M7,2.694c-0.085-0.005-0.137-0.051-0.136-0.14c0-0.077,0.05-0.127,0.128-0.13
			c0.086-0.005,0.142,0.043,0.145,0.129C7.142,2.643,7.088,2.688,7,2.694z"/>
	</g>
</g>
</svg>
