<?xml version="1.0" encoding="utf-8"?>
<!-- Generator: Adobe Illustrator 16.0.0, SVG Export Plug-In . SVG Version: 6.00 Build 0)  -->
<!DOCTYPE svg PUBLIC "-//W3C//DTD SVG 1.1//EN" "http://www.w3.org/Graphics/SVG/1.1/DTD/svg11.dtd">
<svg version="1.1" id="Layer_1" xmlns="http://www.w3.org/2000/svg" xmlns:xlink="http://www.w3.org/1999/xlink" x="0px" y="0px"
	 width="11.88px" height="10.73px" viewBox="0 0 11.88 10.73" enable-background="new 0 0 11.88 10.73" xml:space="preserve">
<path fill="#666666" d="M11.236,3.558l-0.039-0.116C11,2.837,10.699,2.514,10.35,2.341c0.025-0.085,0.027-0.176,0.004-0.263
	l-0.258-0.971C9.943,0.456,9.406,0.001,8.785,0.001c-0.627,0-1.166,0.46-1.314,1.12L7.443,1.22C7.166,1.014,6.893,0.811,6.71,0.676
	C6.592,0.588,6.512,0.53,6.495,0.517C6.317,0.382,6.111,0.313,5.894,0.313c-0.197,0-0.388,0.061-0.552,0.174
	C5.338,0.489,5.334,0.492,5.332,0.495C5.094,0.667,4.685,0.966,4.21,1.315C4.132,0.578,3.506,0.001,2.748,0.001
	c-0.812,0-1.472,0.659-1.472,1.47c0,0.275,0.076,0.534,0.208,0.755C0.628,2.467,0,3.256,0,4.188v2.08c0,0.496,0.4,0.896,0.893,0.896
	c0.056,0,0.11-0.006,0.164-0.016v2.578c0,0.572,0.413,1.002,0.961,1.002c0.26,0,0.496-0.098,0.675-0.262
	c0.179,0.164,0.416,0.262,0.676,0.262c0.553,0,1.003-0.449,1.003-1.002c0-0.014,0-0.037-0.003-0.068V3.591l1.625-1.247l1.462,1.15
	L6.404,7.006C6.361,7.15,6.388,7.307,6.479,7.43C6.57,7.551,6.711,7.621,6.863,7.621h0.473L7.266,9.66
	C7.264,9.682,7.264,9.703,7.264,9.727c0,0.563,0.41,1.002,0.934,1.002c0.242,0,0.461-0.094,0.627-0.252
	c0.164,0.158,0.383,0.252,0.625,0.252c0.51,0,0.895-0.43,0.895-1.002c0-0.006,0-0.012,0-0.016l-0.07-2.09h0.471
	c0.15,0,0.293-0.07,0.383-0.191c0.092-0.119,0.119-0.275,0.078-0.42l-0.1-0.34c0.066-0.006,0.135-0.02,0.201-0.039
	c0.232-0.074,0.742-0.336,0.52-1.21C11.762,5.161,11.518,4.418,11.236,3.558z M2.748,0.481c0.548,0,0.992,0.442,0.992,0.99
	c0,0.547-0.444,0.992-0.992,0.992S1.754,2.018,1.754,1.471C1.754,0.923,2.2,0.481,2.748,0.481z M11.168,6.172
	c-0.047,0.014-0.09,0.021-0.131,0.021c-0.211,0-0.371-0.172-0.465-0.451c-0.002-0.004-0.498-1.631-0.498-1.631H9.865l0.879,3.031
	H9.777l0.088,2.584c0,0.289-0.154,0.523-0.416,0.523s-0.455-0.234-0.455-0.523c0-0.012,0-0.021,0.002-0.033l0.088-2.551H8.566
	l0.086,2.584c0,0.289-0.193,0.523-0.455,0.523s-0.455-0.234-0.455-0.523c0-0.012,0-0.021,0.002-0.033l0.088-2.551H6.863l1.145-3.824
	L5.996,1.738L3.888,3.356v6.337c0.003,0.012,0.003,0.021,0.003,0.033c0,0.289-0.235,0.523-0.523,0.523
	c-0.29,0-0.525-0.234-0.525-0.523V6.789H2.539v2.904C2.54,9.705,2.541,9.715,2.541,9.727c0,0.289-0.234,0.523-0.523,0.523
	c-0.291,0-0.481-0.234-0.481-0.523V4.112h-0.23V6.27c0,0.23-0.186,0.414-0.413,0.414S0.478,6.5,0.478,6.27c0,0,0,0,0-0.002v-2.08
	c0-0.86,0.7-1.56,1.561-1.56h1.199c0.901-0.671,1.898-1.399,2.376-1.747c0.08-0.056,0.176-0.089,0.28-0.089
	c0.116,0,0.222,0.038,0.308,0.103c0.003,0.004,0.941,0.693,1.523,1.134l0.211-0.794c0.094-0.434,0.438-0.754,0.85-0.754
	c0.406,0,0.75,0.314,0.846,0.742l0.26,0.979H9.375c-0.156,0.162-0.361,0.262-0.59,0.262s-0.436-0.1-0.59-0.262H7.951
	c0.193,0.146,0.381,0.291,0.555,0.427h0.732c0.773,0,1.229,0.118,1.504,0.962c0.277,0.846,0.557,1.691,0.619,1.948
	C11.438,5.835,11.438,6.088,11.168,6.172z"/>
</svg>
