<?xml version="1.0" encoding="utf-8"?>
<!-- Generator: Adobe Illustrator 16.0.0, SVG Export Plug-In . SVG Version: 6.00 Build 0)  -->
<!DOCTYPE svg PUBLIC "-//W3C//DTD SVG 1.1//EN" "http://www.w3.org/Graphics/SVG/1.1/DTD/svg11.dtd">
<svg version="1.1" id="Layer_1" xmlns="http://www.w3.org/2000/svg" xmlns:xlink="http://www.w3.org/1999/xlink" x="0px" y="0px"
	 width="85px" height="55px" viewBox="0 0 85 55" enable-background="new 0 0 85 55" xml:space="preserve">
<g>
	<line fill="none" stroke="#0090D2" stroke-width="1.5" stroke-miterlimit="10" x1="32.982" y1="38.896" x2="51.027" y2="38.896"/>
	<line fill="none" stroke="#0090D2" stroke-width="1.5" stroke-miterlimit="10" x1="58.626" y1="50.295" x2="48.271" y2="50.295"/>
	
		<line fill="none" stroke="#0090D2" stroke-width="1.5" stroke-linecap="round" stroke-miterlimit="10" x1="45.417" y1="8.443" x2="47.379" y2="10.404"/>
	
		<line fill="none" stroke="#0090D2" stroke-width="1.5" stroke-linecap="round" stroke-miterlimit="10" x1="45.122" y1="16.103" x2="58.295" y2="16.103"/>
	
		<line fill="none" stroke="#0090D2" stroke-width="1.5" stroke-linecap="round" stroke-miterlimit="10" x1="41.53" y1="19.902" x2="57.098" y2="19.902"/>
	
		<line fill="none" stroke="#0090D2" stroke-width="1.5" stroke-linecap="round" stroke-miterlimit="10" x1="41.53" y1="23.701" x2="58.295" y2="23.701"/>
	
		<line fill="none" stroke="#0090D2" stroke-width="1.5" stroke-linecap="round" stroke-miterlimit="10" x1="41.53" y1="27.5" x2="55.9" y2="27.5"/>
	
		<line fill="none" stroke="#0090D2" stroke-width="1.5" stroke-linecap="round" stroke-miterlimit="10" x1="40.332" y1="31.299" x2="57.098" y2="31.299"/>
	<line fill="none" stroke="#0090D2" stroke-width="1.5" stroke-miterlimit="10" x1="37.73" y1="0.907" x2="68.123" y2="0.907"/>
	<path fill="none" stroke="#0090D2" stroke-width="1.5" stroke-miterlimit="10" d="M37.73,0.907c-2.395,0-2.189,4.171-2.189,4.171
		s0.104,20.525-2.56,33.818c-6.688,0-5.66,0-12.347,0c-5.988,0,1.734,15.197-6.648,15.197H43.43c8.383,0,1.609-15.197,7.598-15.197
		c5.99,0-0.783,11.398,7.6,11.398s6.646-45.589,6.646-45.589s0-3.799,2.851-3.799c2.396,0,1.899,7.598,1.899,7.598h-4.75"/>
	
		<line fill="none" stroke="#0090D2" stroke-width="1.5" stroke-linecap="round" stroke-miterlimit="10" x1="47.518" y1="10.404" x2="51.869" y2="6.053"/>
</g>
</svg>
