<?xml version="1.0" encoding="utf-8"?>
<!-- Generator: Adobe Illustrator 16.0.0, SVG Export Plug-In . SVG Version: 6.00 Build 0)  -->
<!DOCTYPE svg PUBLIC "-//W3C//DTD SVG 1.1//EN" "http://www.w3.org/Graphics/SVG/1.1/DTD/svg11.dtd">
<svg version="1.1" id="Layer_1" xmlns="http://www.w3.org/2000/svg" xmlns:xlink="http://www.w3.org/1999/xlink" x="0px" y="0px"
	 width="144px" height="88px" viewBox="0 0 144 88" enable-background="new 0 0 144 88" xml:space="preserve">
<path fill="#1090CF" d="M116,28.523c-1.488-0.763-2.865-1.448-4.215-2.179c-0.281-0.152-0.491-0.464-0.695-0.73
	c-1.908-2.493-5.424-2.967-7.915-1.06c-2.476,1.894-2.919,5.465-0.986,7.912c1.972,2.494,5.414,2.887,7.906,0.903
	c0.186-0.148,0.38-0.288,0.733-0.553c0.913,0.804,1.859,1.586,2.73,2.445c0.208,0.205,0.307,0.708,0.216,1
	c-1.432,4.598-2.785,9.225-4.402,13.758c-1.138,3.189-3.44,5.393-6.703,6.575c-14.878,5.395-29.741,10.826-44.61,16.242
	c-4.978,1.812-9.96,3.615-14.944,5.413c-3.017,1.089-5.519,0.101-6.767-2.877c-1.182-2.821-2.156-5.729-3.205-8.604
	c-3.299-9.049-6.582-18.104-9.89-27.15c-0.563-1.537-0.788-3.061-0.182-4.631c0.575-1.496,1.7-2.337,3.177-2.869
	c6.926-2.497,13.837-5.031,20.755-7.55c13.028-4.742,26.057-9.479,39.083-14.224c3.339-1.216,6.558-0.82,9.514,1.001
	c5.748,3.537,11.427,7.19,17.115,10.825C114.989,23.624,116.021,25.766,116,28.523z M59.5,56.8
	c-0.858-2.406-1.671-4.688-2.475-6.943c0.772-0.57,1.35-0.575,2.057,0.059c1.718,1.538,3.513,2.991,5.302,4.446
	c0.25,0.203,0.702,0.393,0.967,0.304c1.784-0.589,3.542-1.255,5.485-1.96c-2.956-2.194-5.779-4.288-8.579-6.367
	c0.387-0.607,0.737-1.08,1.007-1.596c1.133-2.161,0.872-4.264-0.398-6.261c-1.201-1.889-3.019-2.488-5.167-2.319
	c-3.668,0.291-6.859,2.091-10.398,3.132c2.346,6.524,4.643,12.909,6.967,19.372C56.044,58.033,57.716,57.438,59.5,56.8z
	 M92.03,23.244c-3.882,1.395-7.657,2.751-11.501,4.132c2.332,6.479,4.633,12.873,6.965,19.351c3.873-1.391,7.653-2.747,11.495-4.127
	c-0.526-1.457-1.023-2.829-1.536-4.248c-2.147,0.757-4.175,1.472-6.269,2.209c-0.442-1.245-0.854-2.401-1.284-3.612
	c1.951-0.715,3.836-1.407,5.774-2.119c-0.531-1.468-1.01-2.787-1.514-4.173c-1.953,0.695-3.846,1.369-5.796,2.064
	c-0.371-1.063-0.703-2.016-1.056-3.029c2.136-0.774,4.132-1.496,6.217-2.251C93.028,26.048,92.561,24.729,92.03,23.244z
	 M65.649,32.722c2.355,6.536,4.656,12.921,6.976,19.361c3.914-1.412,7.676-2.771,11.484-4.143c-0.534-1.481-1.021-2.832-1.533-4.252
	c-2.12,0.754-4.151,1.475-6.252,2.223c-0.449-1.241-0.873-2.412-1.309-3.623c2.006-0.727,3.871-1.402,5.786-2.095
	c-0.528-1.456-1.016-2.801-1.517-4.178c-1.953,0.691-3.824,1.352-5.786,2.045c-0.37-1.028-0.71-1.978-1.08-3
	c2.132-0.782,4.144-1.521,6.233-2.288c-0.518-1.433-0.99-2.746-1.508-4.175C73.285,29.981,69.512,31.335,65.649,32.722z
	 M42.222,54.815c1.976-0.717,3.856-1.399,5.788-2.1c-0.545-1.476-1.038-2.809-1.541-4.168c-1.989,0.704-3.827,1.355-5.771,2.043
	c-0.448-1.252-0.87-2.428-1.31-3.652c2.13-0.781,4.157-1.523,6.257-2.291c-0.504-1.396-0.99-2.741-1.511-4.186
	c-3.866,1.392-7.625,2.744-11.435,4.115c2.347,6.521,4.646,12.911,6.967,19.36c1.789-0.653,3.455-1.261,5.139-1.875
	C43.932,59.608,43.092,57.254,42.222,54.815z"/>
<path fill="#1090CF" d="M102.394,30.724c-0.103-0.203-0.16-0.288-0.193-0.384c-0.694-1.996-0.249-2.663,1.806-2.941
	c5.239-0.713,9.41,1.25,12.618,5.242c3.979,4.952,5.064,10.671,3.765,16.827c-1.07,5.081-3.636,9.233-8.292,11.768
	c-4.79,2.609-9.46,2.063-13.898-0.992c-0.077-0.053-0.123-0.151-0.249-0.311c1.574-0.624,2.892-1.299,4.776-0.604
	c4.16,1.528,7.88,0.299,10.916-2.825c5.648-5.817,5.804-16.483,0.374-22.513c-2.418-2.684-5.388-4.126-9.068-3.781
	C104.104,30.286,103.277,30.541,102.394,30.724z"/>
<path fill="#1090CF" d="M54.793,45.848c-0.547-1.522-1.053-2.926-1.592-4.427c1.257-0.442,2.486-1.145,3.583-0.324
	c0.59,0.443,1.016,1.548,0.962,2.314C57.635,44.982,56.122,45.245,54.793,45.848z"/>
</svg>
