<?xml version="1.0" encoding="utf-8"?>
<!-- Generator: Adobe Illustrator 16.0.0, SVG Export Plug-In . SVG Version: 6.00 Build 0)  -->
<!DOCTYPE svg PUBLIC "-//W3C//DTD SVG 1.1//EN" "http://www.w3.org/Graphics/SVG/1.1/DTD/svg11.dtd">
<svg version="1.1" id="Layer_1" xmlns="http://www.w3.org/2000/svg" xmlns:xlink="http://www.w3.org/1999/xlink" x="0px" y="0px"
	 width="144px" height="88px" viewBox="0 0 144 88" enable-background="new 0 0 144 88" xml:space="preserve">
<g id="CTZ6oA.tif">
	<g id="WKAZfJ.tif">
		<g>
			<path fill-rule="evenodd" clip-rule="evenodd" fill="#1090CF" d="M37.773,49.697c-2.325,0-4.62,0.002-6.914,0
				c-0.306-0.002-0.62,0.02-0.917-0.041c-0.836-0.168-1.14-0.87-0.698-1.591c0.126-0.209,0.303-0.387,0.464-0.569
				c4.24-4.85,8.482-9.698,12.724-14.545c1-1.142,1.494-1.156,2.508-0.001c4.269,4.863,8.529,9.733,12.789,14.604
				c0.382,0.436,0.937,0.954,0.475,1.504c-0.309,0.37-0.975,0.598-1.488,0.611c-2.357,0.062-4.718,0.027-7.068,0.027
				c-1.036,6.826,2.554,18.099,13.051,23.71c11.444,6.117,25.416,2.695,32.752-8.036c7.126-10.426,5.551-24.883-4.766-33.6
				c-8.886-7.506-25.15-8.933-35.713,3.629c-2.548-2.9-5.087-5.789-7.758-8.826c1.724-1.537,3.319-3.107,5.064-4.484
				c4.327-3.416,9.25-5.613,14.617-6.822c0.895-0.202,1.82-0.274,2.71-0.493c0.248-0.06,0.578-0.414,0.599-0.658
				c0.073-0.849,0.028-1.709,0.028-2.703c-0.897,0-1.742-0.004-2.586,0.001c-2.08,0.014-3.283-1.143-3.3-3.208
				c-0.015-1.81-0.028-3.62,0.002-5.429C64.381,0.9,65.534-0.289,67.4-0.298c4.877-0.026,9.754-0.022,14.63,0.004
				c1.568,0.008,2.804,1.224,2.845,2.8c0.055,2.022,0.063,4.049,0.015,6.072c-0.041,1.604-1.313,2.788-2.937,2.835
				c-0.942,0.027-1.888,0.005-2.932,0.005c0,1.008-0.037,1.951,0.033,2.885c0.014,0.188,0.42,0.43,0.684,0.501
				c2.714,0.73,5.521,1.202,8.14,2.181c7.15,2.676,12.848,7.289,17.155,13.604c4.558,6.684,6.712,14.112,6.306,22.147
				c-0.579,11.45-5.477,20.766-14.59,27.789c-5.298,4.08-11.325,6.437-17.941,7.217c-6.92,0.818-13.552-0.332-19.865-3.296
				c-6.115-2.872-11.067-7.135-14.828-12.715c-3.555-5.275-5.643-11.118-6.12-17.493C37.887,52.775,37.851,51.306,37.773,49.697z"/>
			<path fill-rule="evenodd" clip-rule="evenodd" fill="#1090CF" d="M74.554,58.516c-3.844-0.057-6.959-2.995-7.245-6.827
				c-0.272-3.663,2.394-7.069,6.003-7.668c3.82-0.634,7.44,1.604,8.323,5.259c0.237,0.984,0.102,2.056,0.191,3.085
				c0.036,0.43,0.119,0.899,0.332,1.263c1.693,2.909,3.428,5.793,5.13,8.7c0.212,0.361,0.324,0.791,0.438,1.202
				c0.226,0.805-0.026,1.088-0.813,0.754c-1.46-0.619-2.916-1.275-4.292-2.063c-1.832-1.05-3.646-2.154-5.348-3.398
				C76.334,58.135,75.457,58.595,74.554,58.516z"/>
			<path fill-rule="evenodd" clip-rule="evenodd" fill="#1090CF" d="M114.502,20.889c-0.339,0.612-0.56,1.235-0.966,1.692
				c-0.877,0.981-1.831,1.895-2.785,2.803c-1.046,0.995-2.316,0.986-3.345-0.027c-2.29-2.259-4.574-4.523-6.835-6.813
				c-1.171-1.185-1.154-2.44-0.002-3.638c0.871-0.905,1.758-1.795,2.665-2.665c1.04-0.997,2.325-1.036,3.357-0.025
				c2.365,2.314,4.7,4.658,7.005,7.033C113.995,19.662,114.177,20.285,114.502,20.889z"/>
		</g>
	</g>
</g>
</svg>
