<?xml version="1.0" encoding="utf-8"?>
<!-- Generator: Adobe Illustrator 16.0.0, SVG Export Plug-In . SVG Version: 6.00 Build 0)  -->
<!DOCTYPE svg PUBLIC "-//W3C//DTD SVG 1.1//EN" "http://www.w3.org/Graphics/SVG/1.1/DTD/svg11.dtd">
<svg version="1.1" id="Layer_1" xmlns="http://www.w3.org/2000/svg" xmlns:xlink="http://www.w3.org/1999/xlink" x="0px" y="0px"
	 width="144px" height="88px" viewBox="0 0 144 88" enable-background="new 0 0 144 88" xml:space="preserve">
<g>
	<path fill-rule="evenodd" clip-rule="evenodd" fill="#1090CF" d="M48.954,13.669c-2.509,1.863-4.967,3.635-7.269,5.608
		c-1.538,1.32-2.986,2.731-4.419,4.163c-1.22,1.221-1.386,2.57-0.837,4.114c1.24,3.488,3.86,5.502,7.225,6.646
		c5.893,2.004,11.336,0.705,16.401-2.541c2.652-1.699,5.147-3.644,7.722-5.465c0.428-0.302,0.887-0.566,1.355-0.801
		c1.506-0.759,2.028-0.646,3.137,0.633C82.555,37.9,92.819,49.793,103.154,61.624c1.465,1.675,0.907,3.31,0.419,4.972
		c-0.466,1.589-1.748,2.361-3.359,2.572c-2.055,0.272-4.018-0.215-5.974-0.749c-0.297-0.083-0.576-0.328-0.964-0.118
		c0.253,1.213,0.289,2.431-0.077,3.655c-0.481,1.591-1.564,2.389-3.158,2.587c-2.036,0.248-3.811-0.5-5.526-1.463
		c-0.556-0.313-1.103-0.643-1.74-1.015c-0.175,0.791,0.054,1.55-0.198,2.274c-0.797,2.297-3.065,3.49-5.803,3.013
		c-1.784-0.313-3.381-1.053-4.87-2.062c-0.217-0.148-0.442-0.448-0.744-0.225c-0.266,0.198,0.031,0.436,0.033,0.651
		c0.005,0.922-0.294,1.743-0.884,2.457c-1.48,1.789-4.26,2.495-6.384,1.508c-3.805-1.771-7.074-4.377-10.4-6.879
		c-4.757-3.575-9.334-7.379-13.953-11.131c-2.363-1.917-4.763-3.783-8.001-3.96c-0.76-0.041-0.427-0.674-0.43-1.033
		c-0.023-4.656-0.018-9.315-0.016-13.972c0.002-7.25,0.022-14.498-0.011-21.748c-0.004-0.878,0.169-1.302,1.11-1.126
		c0.196,0.036,0.405-0.003,0.607,0.006c2.814,0.134,5.349-0.336,7.607-2.335c1.864-1.65,4.207-2.695,6.444-3.831
		C47.557,13.33,48.154,13.218,48.954,13.669z"/>
	<path fill-rule="evenodd" clip-rule="evenodd" fill="#1090CF" d="M112.385,40.1c0,6.198-0.018,12.396,0.015,18.595
		c0.005,0.959-0.058,1.566-1.27,1.634c-1.036,0.056-2.066,0.453-2.971,0.997c-0.686,0.409-1.041,0.19-1.509-0.348
		c-4.272-4.926-8.576-9.823-12.865-14.732c-6.504-7.439-13.003-14.88-19.502-22.322c-0.531-0.609-1.085-1.204-1.578-1.844
		c-0.907-1.181-2.043-1.323-3.36-0.848c-1.625,0.585-2.993,1.604-4.361,2.609c-3.296,2.427-6.602,4.852-10.365,6.517
		c-4.4,1.945-8.695,1.712-12.665-1.102c-2.093-1.483-3.223-3.181-0.16-5.552c5.349-4.141,10.749-8.208,16.22-12.185
		c0.165-0.118,0.34-0.225,0.49-0.361c2.716-2.455,5.9-3.646,9.562-3.863c5.688-0.34,11.25,0.009,16.524,2.381
		c2.256,1.015,4.088,2.755,6.358,3.779c6.419,2.893,13.188,4.642,20.034,6.115c1.059,0.227,1.428,0.56,1.417,1.692
		c-0.062,6.278-0.032,12.559-0.032,18.838C112.373,40.1,112.377,40.1,112.385,40.1z"/>
	<path fill-rule="evenodd" clip-rule="evenodd" fill="#1090CF" d="M132.539,42.914c0,9.758,0,19.518-0.001,29.276
		c0,1.973-0.651,2.657-2.58,2.66c-3.808,0.007-7.615,0.003-11.418-0.011c-1.976-0.006-2.59-0.633-2.59-2.637
		c-0.003-19.518-0.003-39.032,0-58.548c0-2.038,0.628-2.651,2.696-2.656c3.806-0.006,7.613-0.01,11.42-0.004
		c1.777,0.003,2.47,0.707,2.47,2.522C132.541,23.316,132.539,33.115,132.539,42.914z"/>
	<path fill-rule="evenodd" clip-rule="evenodd" fill="#1090CF" d="M27.546,42.876c0,9.763,0.002,19.524-0.002,29.288
		c0,2.025-0.588,2.627-2.575,2.633c-3.848,0.012-7.696,0.016-11.544,0.014c-1.699,0-2.425-0.724-2.425-2.444
		c-0.004-19.604-0.003-39.212,0-58.818c0-1.825,0.657-2.499,2.48-2.506c3.929-0.015,7.858-0.007,11.788,0.011
		c1.629,0.007,2.275,0.663,2.275,2.293C27.548,23.19,27.546,33.033,27.546,42.876z"/>
</g>
</svg>
