<?xml version="1.0" encoding="utf-8"?>
<!-- Generator: Adobe Illustrator 16.0.0, SVG Export Plug-In . SVG Version: 6.00 Build 0)  -->
<!DOCTYPE svg PUBLIC "-//W3C//DTD SVG 1.1//EN" "http://www.w3.org/Graphics/SVG/1.1/DTD/svg11.dtd">
<svg version="1.1" id="Layer_1" xmlns="http://www.w3.org/2000/svg" xmlns:xlink="http://www.w3.org/1999/xlink" x="0px" y="0px"
	 width="144px" height="88px" viewBox="0 0 144 88" enable-background="new 0 0 144 88" xml:space="preserve">
<g>
	<path fill-rule="evenodd" clip-rule="evenodd" fill="#1090CF" d="M72.2,0.255c1.49,0.942,3.01,1.837,4.46,2.837
		c3.921,2.705,7.81,5.455,11.707,8.189c3.595,2.523,7.187,5.05,10.781,7.573c3.526,2.473,7.051,4.949,10.586,7.408
		c0.804,0.56,1.28,1.272,1.343,2.262c0.073,1.178-0.292,2.15-1.343,2.762c-1.092,0.635-2.232,0.576-3.24-0.121
		c-4.151-2.871-8.27-5.792-12.402-8.688c-3.855-2.699-7.716-5.39-11.571-8.087c-3.365-2.354-6.738-4.696-10.082-7.082
		c-0.579-0.414-0.956-0.326-1.492,0.051C60.489,14.717,50.02,22.056,39.551,29.397c-0.794,0.557-1.599,1.097-2.404,1.641
		c-1.597,1.077-3.259,0.825-4.283-0.646c-0.95-1.363-0.562-3.109,0.948-4.169c3.83-2.69,7.659-5.383,11.51-8.042
		c0.617-0.427,0.813-0.864,0.767-1.628c-0.087-1.445,0.012-2.901,0.016-4.352c0.003-1.908-0.019-3.817-0.015-5.725
		c0.001-0.912-0.003-1.828,0.087-2.731c0.021-0.213,0.416-0.551,0.644-0.555c2.14-0.045,4.279-0.02,6.419-0.037
		c0.554-0.005,0.755,0.214,0.751,0.762c-0.017,2.197-0.011,4.394-0.003,6.592c0.001,0.417,0.046,0.836,0.08,1.418
		c0.476-0.287,0.843-0.479,1.179-0.714c4.538-3.172,9.068-6.356,13.61-9.521c0.744-0.518,1.542-0.958,2.315-1.436
		C71.514,0.255,71.856,0.255,72.2,0.255z"/>
	<path fill-rule="evenodd" clip-rule="evenodd" fill="#1090CF" d="M66.547,87.952c-1.638-0.941-2.981-2.183-3.85-3.885
		c-0.18-0.353-0.293-0.74-0.448-1.107c-0.232-0.551-0.091-0.987,0.361-1.365c3.46-2.893,6.919-5.784,10.366-8.692
		c0.483-0.406,0.94-0.311,1.426-0.076c0.393,0.188,0.862,0.461,1.12-0.036c0.144-0.282,0.057-0.799-0.11-1.11
		c-2.66-4.979-2.951-10.132-0.716-15.259c2.25-5.162,6.223-8.588,11.77-9.833c6.438-1.447,12.112,0.235,16.591,5.089
		c3.938,4.269,5.357,9.44,4.13,15.154c-1.371,6.377-5.284,10.728-11.414,12.793c-5.567,1.879-10.864,0.914-15.649-2.568
		c-0.276-0.202-0.513-0.478-0.813-0.619c-0.236-0.111-0.623-0.186-0.802-0.064c-0.191,0.129-0.367,0.556-0.297,0.761
		c0.353,0.983-0.053,1.578-0.795,2.191c-3.324,2.744-6.606,5.537-9.901,8.314c-0.107,0.09-0.189,0.21-0.283,0.313
		C67.004,87.952,66.775,87.952,66.547,87.952z M103.065,63.337c0.015-6.979-5.651-12.925-13.075-12.711
		c-6.575,0.188-12.51,5.679-12.186,13.316c0.269,6.307,5.485,12.021,12.702,12.039C97.368,75.999,103.074,70.235,103.065,63.337z"/>
	<path fill-rule="evenodd" clip-rule="evenodd" fill="#1090CF" d="M38.444,49.767c0,2.726,0.001,5.316,0,7.907
		c-0.001,0.97-0.023,1.94-0.01,2.909c0.005,0.467-0.16,0.672-0.649,0.657c-0.769-0.02-1.541-0.02-2.31,0.021
		c-0.578,0.032-0.739-0.225-0.738-0.756c0.006-3.11-0.023-6.219-0.005-9.327c0.009-1.702,0.026-1.404-1.415-1.396
		c-0.456,0.003-0.91,0-1.493,0c0,3.802,0,7.571,0,11.398c-1.253,0-2.381,0-3.607,0c-0.018-0.31-0.051-0.61-0.051-0.91
		c-0.003-5.564-0.003-11.131-0.001-16.696c0-1.322,0.679-2.156,1.761-2.191c1.125-0.035,1.836,0.783,1.865,2.174
		c0.016,0.82,0.003,1.64,0.003,2.562c0.884,0,1.678,0.038,2.462-0.029c0.174-0.015,0.432-0.388,0.453-0.614
		c0.063-0.708,0.007-1.426,0.043-2.137c0.061-1.175,0.83-1.968,1.849-1.956c1.05,0.012,1.763,0.769,1.821,1.98
		c0.033,0.683,0.027,1.37,0.005,2.053c-0.016,0.487,0.118,0.734,0.668,0.72c1.112-0.031,2.226-0.034,3.337,0
		c0.588,0.02,0.729-0.248,0.725-0.768c-0.017-2.824-0.017-5.648-0.018-8.473c0-1.653,0.036-3.308,0-4.962
		c-0.014-0.609,0.279-0.914,0.729-1.229c8.466-5.915,16.924-11.84,25.383-17.767c0.677-0.475,1.327-0.994,2.034-1.42
		c0.218-0.132,0.667-0.146,0.867-0.008c4.689,3.25,9.355,6.524,14.03,9.795c4.485,3.139,8.977,6.269,13.444,9.433
		c0.316,0.223,0.646,0.692,0.649,1.049c0.053,4.051,0.039,8.103,0.041,12.155c0,0.131-0.043,0.26-0.053,0.306
		c-1.763-0.566-3.454-1.285-5.222-1.64c-8.849-1.776-16.068,1.004-21.637,8.061c-2.239,2.84-3.484,6.13-3.961,9.704
		c-0.089,0.667-0.33,0.882-1.022,0.879c-8.045-0.025-16.092-0.017-24.138-0.017c-1.173,0-1.177-0.034-1.168-1.184
		c0.024-3.052,0.033-6.104,0.027-9.155c-0.002-1.127-0.029-1.128-1.152-1.13C40.856,49.766,39.72,49.767,38.444,49.767z"/>
	<path fill-rule="evenodd" clip-rule="evenodd" fill="#1090CF" d="M111.578,49.771c-0.889,0-1.652-0.032-2.409,0.024
		c-0.174,0.014-0.441,0.323-0.46,0.517c-0.062,0.583-0.022,1.174-0.022,1.719c-1.782-1.969-3.544-3.915-5.343-5.905
		c0.259,0,0.633-0.023,1.005,0.005c0.53,0.041,0.707-0.2,0.689-0.705c-0.026-0.711-0.024-1.425-0.016-2.138
		c0.012-1.045,0.833-1.927,1.779-1.929c1.019-0.001,1.856,0.853,1.879,1.937c0.014,0.713,0.014,1.427,0.002,2.139
		c-0.008,0.445,0.134,0.7,0.631,0.689c0.707-0.019,1.418-0.006,2.25-0.006c0-1.02-0.024-1.975,0.007-2.932
		c0.027-0.885,0.605-1.569,1.473-1.768c0.831-0.191,1.456,0.19,1.888,0.857c0.174,0.269,0.266,0.641,0.267,0.966
		c0.015,5.819,0.01,11.636,0.006,17.456c0,0.137-0.035,0.274-0.069,0.525c-1.06,0-2.106,0.038-3.144-0.037
		c-0.161-0.012-0.409-0.531-0.412-0.819c-0.023-3.022-0.006-6.044,0-9.068C111.578,50.823,111.578,50.346,111.578,49.771z"/>
	<path fill-rule="evenodd" clip-rule="evenodd" fill="#1090CF" d="M90.345,73.733c-5.638,0.098-10.122-4.671-10.037-10.221
		c0.003-0.171-0.033-0.387,0.056-0.503c0.229-0.309,0.498-0.788,0.784-0.81c0.553-0.046,0.68,0.445,0.665,0.966
		c-0.077,2.739,0.827,5.07,2.895,6.926c2.971,2.664,7.353,2.911,10.653,0.577c0.476-0.337,1.025-0.923,1.527-0.223
		c0.505,0.705-0.155,1.123-0.686,1.48C94.354,73.176,92.461,73.757,90.345,73.733z"/>
</g>
</svg>
