<?xml version="1.0" encoding="utf-8"?>
<!-- Generator: Adobe Illustrator 16.0.0, SVG Export Plug-In . SVG Version: 6.00 Build 0)  -->
<!DOCTYPE svg PUBLIC "-//W3C//DTD SVG 1.1//EN" "http://www.w3.org/Graphics/SVG/1.1/DTD/svg11.dtd">
<svg version="1.1" id="Layer_1" xmlns="http://www.w3.org/2000/svg" xmlns:xlink="http://www.w3.org/1999/xlink" x="0px" y="0px"
	 width="85px" height="55px" viewBox="0 0 85 55" enable-background="new 0 0 85 55" xml:space="preserve">
<path fill="#0090D2" stroke="#FFFFFF" stroke-width="0.2" stroke-miterlimit="10" d="M73.18,20.409H62.307L45.969,5.278
	c0.124-0.366,0.205-0.744,0.205-1.144c0-2.084-1.703-3.774-3.788-3.774s-3.771,1.69-3.771,3.774c0,0.4,0.078,0.783,0.202,1.148
	L22.479,20.409H11.607c-4.992,0-9.025,4.044-9.025,9.036v16.397c0,4.987,4.033,9.024,9.025,9.024H73.18
	c4.99,0,9.023-4.037,9.023-9.024V29.443C82.203,24.453,78.17,20.409,73.18,20.409z M40.72,7.502c0.508,0.26,1.069,0.406,1.666,0.406
	c0.609,0,1.172-0.146,1.668-0.406l13.938,12.906h-31.21L40.72,7.502z M79.273,45.843c0,3.37-2.727,6.091-6.094,6.095H11.607
	c-3.38-0.004-6.095-2.725-6.107-6.095V29.443c0.012-3.367,2.727-6.101,6.107-6.101H73.18c3.368,0,6.094,2.733,6.094,6.101V45.843
	L79.273,45.843z"/>
<text transform="matrix(1 0 0 1 12.585 40.7256)" fill="#0090D2" font-family="'Hero'" font-size="12.8257">FOR HIRE</text>
</svg>
