<?xml version="1.0" encoding="utf-8"?>
<!-- Generator: Adobe Illustrator 16.0.0, SVG Export Plug-In . SVG Version: 6.00 Build 0)  -->
<!DOCTYPE svg PUBLIC "-//W3C//DTD SVG 1.1//EN" "http://www.w3.org/Graphics/SVG/1.1/DTD/svg11.dtd">
<svg version="1.1" id="Layer_1" xmlns="http://www.w3.org/2000/svg" xmlns:xlink="http://www.w3.org/1999/xlink" x="0px" y="0px"
	 width="9.24px" height="10.96px" viewBox="0 0 9.24 10.96" enable-background="new 0 0 9.24 10.96" xml:space="preserve">
<path fill="#666666" d="M2.352,0.114v0.24V10.81h4.287V9.555h0.893v1.255H9.24V0.114H2.352z M8.762,10.332H8.008V9.076H6.16v1.256
	H2.83V0.594h5.932V10.332z M5.43,5.556v-1.61H3.582v1.849H5.43V5.556z M4.953,5.315H4.061V4.424h0.893V5.315z M6.16,5.794h1.848
	V5.556v-1.61H6.16V5.794z M6.639,4.424h0.893v0.892H6.639V4.424z M5.43,2.811V1.199H3.582v1.85H5.43V2.811z M4.953,2.57H4.059V1.678
	h0.895V2.57z M8.008,2.81v-1.61H6.16v1.85h1.848V2.81z M7.531,2.569H6.639V1.678h0.893V2.569z M5.43,8.303V6.691H3.582V8.54H5.43
	V8.303z M4.953,8.063H4.061V7.17h0.893V8.063z M8.008,8.303V6.691H6.16V8.54h1.848V8.303z M7.531,8.063H6.639V7.17h0.893V8.063z
	 M0.938,6.882L0.717,7.563H0l0.582,0.422L0.359,8.667l0.578-0.423l0.58,0.423L1.297,7.985l0.578-0.422H1.16L0.938,6.882z
	 M1.16,9.857L0.939,9.177L0.717,9.857H0l0.582,0.423l-0.223,0.681l0.58-0.421l0.58,0.421L1.297,10.28l0.578-0.423H1.16z
	 M0.939,4.588L0.717,5.269H0l0.582,0.423l-0.223,0.68l0.58-0.419l0.578,0.419l-0.221-0.68l0.578-0.423H1.16L0.939,4.588z
	 M0.938,2.293L0.717,2.976H0l0.582,0.421L0.359,4.078l0.578-0.421l0.58,0.421L1.297,3.396l0.578-0.421H1.16L0.938,2.293z
	 M0.939-0.001L0.717,0.681H0l0.582,0.421L0.359,1.783l0.58-0.421l0.58,0.421L1.297,1.102l0.578-0.421H1.16L0.939-0.001z"/>
</svg>
