<?xml version="1.0" encoding="utf-8"?>
<!-- Generator: Adobe Illustrator 16.0.0, SVG Export Plug-In . SVG Version: 6.00 Build 0)  -->
<!DOCTYPE svg PUBLIC "-//W3C//DTD SVG 1.1//EN" "http://www.w3.org/Graphics/SVG/1.1/DTD/svg11.dtd">
<svg version="1.1" id="Layer_1" xmlns="http://www.w3.org/2000/svg" xmlns:xlink="http://www.w3.org/1999/xlink" x="0px" y="0px"
	 width="10px" height="11px" viewBox="0 0 10 11" enable-background="new 0 0 10 11" xml:space="preserve">
<path fill-rule="evenodd" clip-rule="evenodd" fill="#444A54" d="M5.863,7.118C5.528,6.44,5.182,5.766,4.866,5.079
	C4.739,4.807,4.617,4.53,4.502,4.251C4.36,4.291,4.216,4.329,4.073,4.366C3.841,4.429,3.821,4.466,3.821,4.698
	c0,1.879,0,3.76,0,5.641c0,0.238,0.042,0.281,0.292,0.213c0.588-0.158,1.174-0.316,1.762-0.475c0.253-0.07,0.304-0.131,0.304-0.426
	V7.546C6.021,7.468,5.938,7.271,5.863,7.118L5.863,7.118z M4.26,3.624c-0.126-0.36-0.273-0.825-0.273-1.208
	c0-1.292,1.046-2.339,2.335-2.339c1.292,0,2.339,1.047,2.339,2.339c0,0.383-0.145,0.847-0.271,1.208
	C8.272,3.949,8.28,4.007,8.538,4.076c0.096,0.024,0.193,0.051,0.289,0.077c0.207,0.055,0.262,0.16,0.262,0.361
	c0,2.054,0,4.106,0,6.159c0,0.18-0.117,0.285-0.295,0.238c-0.627-0.168-1.254-0.336-1.881-0.508
	c-0.447-0.119-0.688-0.135-1.139-0.014c-0.51,0.137-1.021,0.273-1.532,0.412c-0.451,0.125-0.636,0.133-1.102,0.004
	c-0.652-0.174-1.302-0.352-1.952-0.525c-0.225-0.061-0.276-0.148-0.276-0.379c0-2.053,0-4.105,0-6.16c0-0.2,0.11-0.274,0.304-0.223
	c0.6,0.162,1.201,0.326,1.801,0.488c0.444,0.121,0.697,0.15,1.051,0.073C4.378,4.01,4.378,3.961,4.26,3.624L4.26,3.624z
	 M8.146,4.253C8.032,4.532,7.907,4.807,7.784,5.079c-0.32,0.693-0.668,1.373-1.006,2.059C6.702,7.29,6.618,7.481,6.456,7.552v2.119
	c0,0.283,0.043,0.336,0.275,0.396c0.607,0.166,1.213,0.33,1.82,0.492c0.229,0.063,0.26,0.025,0.26-0.264c0-1.855,0-3.713,0-5.566
	c0-0.263-0.021-0.302-0.303-0.379L8.146,4.253z M3.282,4.362C2.658,4.194,2.035,4.025,1.413,3.858
	C1.2,3.801,1.188,3.822,1.188,4.078c0,1.874,0,3.75,0,5.625c0,0.258,0.042,0.305,0.241,0.355c0.619,0.17,1.237,0.336,1.857,0.502
	c0.211,0.057,0.259,0.049,0.259-0.205c0-1.887,0-3.773,0-5.658C3.544,4.464,3.529,4.427,3.282,4.362L3.282,4.362z M6.123,6.991
	C5.551,5.83,4.279,3.401,4.279,2.417c0-1.129,0.915-2.047,2.043-2.047c1.13,0,2.048,0.917,2.048,2.047
	c0,0.992-1.283,3.438-1.855,4.59C6.33,7.386,6.316,7.38,6.123,6.991L6.123,6.991z M6.322,1.064c-0.746,0-1.352,0.604-1.352,1.353
	c0,0.747,0.606,1.353,1.352,1.353c0.749,0,1.354-0.606,1.354-1.353C7.677,1.668,7.071,1.064,6.322,1.064L6.322,1.064z"/>
</svg>
