<?xml version="1.0" encoding="utf-8"?>
<!-- Generator: Adobe Illustrator 16.0.0, SVG Export Plug-In . SVG Version: 6.00 Build 0)  -->
<!DOCTYPE svg PUBLIC "-//W3C//DTD SVG 1.1//EN" "http://www.w3.org/Graphics/SVG/1.1/DTD/svg11.dtd">
<svg version="1.1" id="Layer_1" xmlns="http://www.w3.org/2000/svg" xmlns:xlink="http://www.w3.org/1999/xlink" x="0px" y="0px"
	 width="155.798px" height="33.76px" viewBox="0 -6.24 155.798 33.76" enable-background="new 0 -6.24 155.798 33.76"
	 xml:space="preserve">
<path fill="#008FD5" d="M18.794-5.911l17.256,9.962L25.892,9.915l-7.097-4.097l-7.098,4.097L1.538,4.051L18.794-5.911z
	 M18.794,27.518l18.792-10.849V4.939L18.794,15.788L0,4.939v11.73l6.775,3.91v-7.774l5.792,3.343l-3.664,2.113v7.775l3.664-2.114
	L18.794,27.518z"/>
<g>
	<path fill="#414042" d="M56.105,23.724V5.883h2.778v1.979c0.325-0.765,0.844-1.358,1.555-1.778
		c0.712-0.416,1.565-0.625,2.552-0.625c1.611,0,2.917,0.593,3.923,1.786c1,1.19,1.503,2.753,1.503,4.688
		c0,2.042-0.494,3.647-1.478,4.819c-0.987,1.176-2.337,1.758-4.049,1.758c-0.858,0-1.614-0.168-2.272-0.51
		c-0.659-0.34-1.241-0.859-1.735-1.559v7.281h-2.778V23.724z M58.792,11.906c0,1.259,0.314,2.256,0.943,3.008
		c0.626,0.753,1.451,1.128,2.474,1.128c1.054,0,1.866-0.348,2.438-1.048c0.576-0.702,0.866-1.696,0.866-2.983
		c0-1.28-0.303-2.281-0.9-3.001c-0.604-0.723-1.429-1.084-2.478-1.084c-1.048,0-1.87,0.35-2.455,1.049
		C59.089,9.678,58.792,10.652,58.792,11.906 M79.187,11.906c0-1.254-0.292-2.228-0.879-2.931c-0.585-0.699-1.402-1.048-2.45-1.048
		c-1.049,0-1.873,0.362-2.478,1.084c-0.599,0.72-0.9,1.722-0.9,3.002c0,1.287,0.288,2.279,0.87,2.982
		c0.58,0.7,1.397,1.049,2.454,1.049c1.001,0,1.813-0.381,2.438-1.141C78.871,14.142,79.187,13.147,79.187,11.906 M81.887,18.011
		h-2.778v-1.57c-0.494,0.699-1.075,1.22-1.735,1.559c-0.66,0.342-1.415,0.51-2.271,0.51c-1.713,0-3.063-0.582-4.049-1.757
		c-0.983-1.173-1.479-2.778-1.479-4.82c0-1.935,0.504-3.498,1.512-4.688c1.005-1.191,2.321-1.785,3.94-1.785
		c0.987,0,1.835,0.204,2.539,0.62c0.702,0.416,1.218,1.009,1.541,1.783v-1.98h2.779L81.887,18.011L81.887,18.011z M93.896,9.338
		c-0.428-0.468-0.922-0.825-1.49-1.074c-0.567-0.25-1.18-0.374-1.839-0.374c-1.132,0-2.041,0.369-2.727,1.101
		c-0.681,0.735-1.022,1.704-1.022,2.918c0,1.264,0.347,2.252,1.032,2.975c0.686,0.721,1.635,1.079,2.849,1.079
		c0.671,0,1.275-0.127,1.805-0.381c0.527-0.248,0.989-0.632,1.392-1.143v3.201c-0.512,0.29-1.062,0.506-1.644,0.652
		c-0.584,0.143-1.204,0.216-1.864,0.216c-1.9,0-3.451-0.604-4.647-1.814c-1.202-1.213-1.8-2.784-1.8-4.71
		c0-1.952,0.621-3.528,1.861-4.725c1.239-1.202,2.865-1.8,4.87-1.8c0.63,0,1.21,0.062,1.74,0.188
		c0.528,0.122,1.026,0.31,1.484,0.567V9.338z M104.658,10.488c-0.109-0.87-0.444-1.536-1.001-1.987
		c-0.555-0.46-1.309-0.687-2.274-0.687c-0.914,0-1.648,0.223-2.203,0.664c-0.553,0.445-0.943,1.113-1.165,2.01H104.658z
		 M107.536,12.356h-9.699c0.068,1.137,0.404,2.02,1.011,2.657c0.604,0.634,1.413,0.952,2.421,0.952c0.896,0,1.644-0.188,2.236-0.563
		c0.599-0.379,1.118-0.986,1.563-1.82l2.343,1.308c-0.684,1.217-1.529,2.128-2.534,2.727c-1.009,0.597-2.188,0.893-3.548,0.893
		c-1.945,0-3.492-0.592-4.643-1.776c-1.154-1.187-1.729-2.77-1.729-4.75c0-1.902,0.595-3.463,1.785-4.69
		c1.189-1.226,2.719-1.835,4.587-1.835c1.953,0,3.477,0.558,4.57,1.678c1.094,1.119,1.64,2.683,1.64,4.696v0.524H107.536z
		 M44.44,15.811l2.301-1.251c0.171,0.605,0.486,1.063,0.949,1.385c0.461,0.315,1.053,0.472,1.781,0.472
		c0.621,0,1.11-0.145,1.465-0.431c0.354-0.285,0.532-0.676,0.532-1.169c0-0.66-0.629-1.223-1.89-1.69
		c-0.429-0.154-0.757-0.28-0.988-0.387c-1.297-0.535-2.206-1.082-2.722-1.637c-0.516-0.554-0.773-1.227-0.773-2.021
		c0-1.083,0.424-1.961,1.275-2.639c0.847-0.674,1.971-1.008,3.368-1.008c0.939,0,1.743,0.174,2.415,0.52
		c0.667,0.345,1.159,0.834,1.464,1.476l-1.971,1.359C51.502,8.406,51.25,8.1,50.888,7.871c-0.363-0.227-0.782-0.341-1.264-0.341
		c-0.528,0-0.953,0.128-1.271,0.381c-0.32,0.249-0.481,0.583-0.481,1.005c0,0.628,0.716,1.204,2.149,1.729
		c0.453,0.162,0.803,0.292,1.048,0.397c1.119,0.439,1.918,0.942,2.398,1.503c0.484,0.558,0.725,1.252,0.725,2.091
		c0,1.21-0.441,2.158-1.318,2.845c-0.878,0.685-2.088,1.03-3.635,1.03c-1.188,0-2.171-0.221-2.957-0.664
		C45.497,17.404,44.886,16.727,44.44,15.811"/>
	<path fill="#008FD5" d="M128.135,18.011V5.883h2.611v1.982c0.557-0.839,1.207-1.445,1.958-1.829
		c0.751-0.386,1.664-0.578,2.739-0.578c0.905,0,1.673,0.144,2.311,0.428c0.634,0.29,1.132,0.712,1.491,1.277
		c0.213,0.332,0.366,0.719,0.461,1.162c0.092,0.445,0.141,1.223,0.141,2.329v7.358h-2.807v-6.232c0-1.593-0.189-2.655-0.581-3.18
		c-0.387-0.523-1.077-0.785-2.064-0.785c-0.65,0-1.227,0.119-1.736,0.358c-0.505,0.239-0.907,0.576-1.195,1.008
		c-0.204,0.293-0.348,0.666-0.429,1.124c-0.083,0.454-0.123,1.184-0.123,2.179v5.528L128.135,18.011L128.135,18.011z M151.292-1.822
		h2.776v19.834h-2.776v-1.571c-0.494,0.699-1.076,1.217-1.738,1.559c-0.657,0.342-1.411,0.51-2.27,0.51
		c-1.711,0-3.062-0.582-4.049-1.757c-0.982-1.173-1.476-2.778-1.476-4.82c0-1.935,0.5-3.498,1.511-4.685
		c1.004-1.193,2.318-1.788,3.939-1.788c0.987,0,1.836,0.208,2.539,0.62c0.702,0.416,1.217,1.011,1.543,1.783V-1.822z
		 M151.369,11.906c0-1.253-0.294-2.228-0.879-2.931c-0.585-0.699-1.403-1.048-2.452-1.048c-1.048,0-1.872,0.362-2.477,1.084
		c-0.598,0.72-0.897,1.72-0.897,3.002c0,1.287,0.287,2.279,0.867,2.982c0.582,0.7,1.398,1.049,2.457,1.049
		c1.008,0,1.819-0.376,2.446-1.131C151.054,14.156,151.369,13.154,151.369,11.906 M120.897,13.777l3.614-7.895h3.006l-8.755,17.84
		h-2.853l3.329-6.758l-3.478-8.65h-3.06v9.695h-2.776V8.315h-2.125V5.883h2.125V2.627c0-1.611,0.335-2.799,1.002-3.569
		c0.67-0.769,1.71-1.153,3.116-1.153c0.299,0,0.606,0.023,0.922,0.064c0.318,0.039,0.636,0.11,0.961,0.206v2.508
		c-0.223-0.126-0.446-0.222-0.674-0.288c-0.223-0.064-0.453-0.094-0.681-0.094c-0.67,0-1.146,0.203-1.435,0.614
		c-0.293,0.406-0.436,1.1-0.436,2.075v2.891h5.151L120.897,13.777z"/>
</g>
</svg>
