<?xml version="1.0" encoding="utf-8"?>
<!-- Generator: Adobe Illustrator 16.0.0, SVG Export Plug-In . SVG Version: 6.00 Build 0)  -->
<!DOCTYPE svg PUBLIC "-//W3C//DTD SVG 1.1//EN" "http://www.w3.org/Graphics/SVG/1.1/DTD/svg11.dtd">
<svg version="1.1" id="Layer_1" xmlns="http://www.w3.org/2000/svg" xmlns:xlink="http://www.w3.org/1999/xlink" x="0px" y="0px"
	 width="167px" height="28px" viewBox="0 0 167 28" enable-background="new 0 0 167 28" xml:space="preserve">
<g>
	<path fill-rule="evenodd" clip-rule="evenodd" fill="#4F78B5" d="M21.89,14.752c0,2.048-0.014,4.097,0.011,6.146
		c0.005,0.452-0.151,0.699-0.544,0.89c-3.555,1.728-7.106,3.462-10.651,5.21c-0.361,0.178-0.608,0.105-0.896-0.127
		c-3.08-2.482-6.164-4.959-9.253-7.429C0.213,19.167-0.002,18.86,0,18.411c0.005-1.048-0.005-2.097,0.011-3.145
		c0.003-0.188-0.049-0.456,0.167-0.552c0.222-0.099,0.359,0.135,0.511,0.256c2.968,2.375,5.943,4.743,8.892,7.143
		c0.507,0.412,0.909,0.466,1.496,0.167c2.043-1.04,4.108-2.04,6.182-3.021c0.529-0.25,0.658-0.598,0.652-1.146
		c-0.026-2.279-0.012-4.558-0.009-6.837c0.001-1.117-0.109-1.17-1.087-0.677c-1.978,0.997-3.976,1.956-5.954,2.953
		c-0.455,0.229-0.789,0.169-1.179-0.146C6.704,11,3.712,8.613,0.726,6.218C-0.101,5.555-0.086,5.514,0.87,5.052
		c3.354-1.617,6.708-3.234,10.051-4.875c0.468-0.23,0.798-0.279,1.221,0.11c0.695,0.638,1.466,1.19,2.195,1.792
		c0.736,0.606,0.732,0.615-0.164,1.057c-2.012,0.993-4.017,2.001-6.043,2.965c-0.59,0.28-0.55,0.461-0.075,0.816
		c0.715,0.534,1.403,1.105,2.083,1.684c0.39,0.332,0.722,0.407,1.223,0.151c2.137-1.087,4.306-2.108,6.45-3.18
		c0.398-0.199,0.678-0.204,1.029,0.093c0.878,0.74,1.775,1.459,2.693,2.147c0.326,0.245,0.341,0.534,0.34,0.871
		c-0.002,2.023-0.001,4.046-0.001,6.069C21.879,14.752,21.884,14.752,21.89,14.752z"/>
	<path fill-rule="evenodd" clip-rule="evenodd" fill="#FFFFFF" d="M166.988,11.725c0,3.151-0.012,6.302,0.012,9.452
		c0.004,0.578-0.119,0.848-0.758,0.787c-0.607-0.057-1.224-0.016-1.837-0.012c-0.439,0.002-0.854,0.07-0.869-0.627
		c-0.01-0.489-0.336-0.178-0.525-0.059c-1.434,0.895-2.964,1.174-4.615,0.778c-2.312-0.554-3.741-2.097-4.388-4.28
		c-0.691-2.338-0.634-4.709,0.501-6.951c1.637-3.231,5.267-4.394,8.449-2.698c0.522,0.278,0.611,0.101,0.608-0.384
		c-0.007-1.844,0.018-3.689-0.014-5.533c-0.01-0.574,0.172-0.781,0.741-0.749c0.662,0.038,1.33,0.046,1.99-0.004
		c0.598-0.045,0.721,0.193,0.716,0.749C166.976,5.372,166.988,8.548,166.988,11.725z M163.584,14.708
		c0-0.511,0.025-1.024-0.005-1.533c-0.084-1.429-1.087-2.629-2.406-2.914c-1.416-0.305-2.815,0.31-3.485,1.606
		c-0.933,1.806-0.996,3.669-0.184,5.539c0.546,1.255,1.63,1.938,2.957,1.894c1.392-0.047,2.331-0.747,2.88-2.021
		C163.702,16.445,163.551,15.569,163.584,14.708z"/>
	<path fill-rule="evenodd" clip-rule="evenodd" fill="#FFFFFF" d="M42.674,17.489c0-3.021,0.017-6.042-0.015-9.063
		c-0.006-0.62,0.179-0.822,0.783-0.77C44,7.704,44.564,7.677,45.125,7.664c0.478-0.012,0.864-0.054,0.915,0.66
		c0.037,0.521,0.401,0.124,0.587,0.002c1.371-0.899,2.877-1.163,4.466-0.891c2.513,0.429,4.351,2.348,4.89,5.164
		c0.397,2.076,0.273,4.124-0.664,6.071c-1.586,3.291-5.518,4.529-8.697,2.705c-0.57-0.328-0.631-0.125-0.627,0.393
		c0.01,1.638-0.02,3.276,0.008,4.914c0.01,0.516-0.162,0.676-0.658,0.65c-0.662-0.033-1.329-0.041-1.989,0.003
		c-0.555,0.038-0.693-0.183-0.69-0.706C42.685,23.581,42.675,20.535,42.674,17.489z M46,14.762c0,0.571-0.01,0.98,0.002,1.389
		c0.05,1.655,1.184,2.957,2.926,3.208c1.298,0.187,2.705-0.483,3.366-1.996c0.652-1.49,0.675-3.034,0.249-4.575
		c-0.419-1.513-1.659-2.508-3.078-2.57c-1.31-0.058-2.57,0.802-3.157,2.145C45.947,13.185,45.984,14.055,46,14.762z"/>
	<path fill-rule="evenodd" clip-rule="evenodd" fill="#FFFFFF" d="M72.532,14.828c0,2.099-0.031,4.199,0.017,6.297
		c0.017,0.698-0.209,0.9-0.866,0.837c-0.53-0.051-1.07-0.019-1.605-0.009c-0.475,0.009-0.894,0.06-0.928-0.661
		c-0.023-0.459-0.367-0.149-0.551-0.034c-1.457,0.919-3.02,1.183-4.69,0.767c-2.271-0.566-3.674-2.093-4.3-4.263
		c-0.857-2.971-0.643-5.844,1.422-8.327c1.834-2.204,4.995-2.734,7.501-1.323c0.343,0.193,0.642,0.434,0.688-0.229
		c0.01-0.137,0.158-0.189,0.291-0.204c0.101-0.011,0.203-0.013,0.305-0.01c0.864,0.026,1.973-0.352,2.525,0.134
		c0.566,0.499,0.165,1.636,0.183,2.493C72.553,11.806,72.532,13.317,72.532,14.828z M69.223,14.725
		c0.008-0.614,0.014-1.227-0.091-1.836c-0.218-1.271-0.912-2.181-2.14-2.545c-1.233-0.366-2.375-0.111-3.273,0.888
		c-1.299,1.444-1.551,4.462-0.547,6.376c0.607,1.158,1.602,1.741,2.858,1.709c1.285-0.032,2.263-0.67,2.829-1.885
		C69.266,16.561,69.203,15.64,69.223,14.725z"/>
	<path fill-rule="evenodd" clip-rule="evenodd" fill="#FFFFFF" d="M122.404,7.665c1.717,0.002,1.722,0,2.373,1.595
		c0.792,1.94,1.571,3.887,2.374,5.823c0.099,0.238,0.082,0.674,0.414,0.646c0.273-0.023,0.301-0.439,0.397-0.691
		c0.86-2.245,1.719-4.491,2.542-6.75c0.166-0.456,0.364-0.664,0.868-0.637c0.789,0.042,1.583,0.028,2.373,0.01
		c0.453-0.01,0.545,0.178,0.388,0.564c-2.003,4.921-3.574,10.017-5.919,14.797c-1.076,2.195-2.596,3.975-5.002,4.809
		c-0.889,0.309-1.063,0.244-1.317-0.617c-0.151-0.514-0.295-1.031-0.456-1.543c-0.117-0.369,0-0.563,0.371-0.688
		c1.549-0.521,2.629-1.594,3.479-2.961c0.417-0.672,0.437-1.273,0.132-2.011c-1.597-3.873-3.14-7.767-4.716-11.648
		c-0.215-0.53-0.137-0.754,0.474-0.705C121.584,7.69,121.996,7.664,122.404,7.665z"/>
	<path fill-rule="evenodd" clip-rule="evenodd" fill="#FFFFFF" d="M99.979,15.678c-1.301,0-2.602,0.024-3.901-0.012
		c-0.593-0.016-0.698,0.226-0.599,0.737c0.289,1.481,1.426,2.568,2.945,2.854c1.532,0.289,2.999,0.044,4.41-0.534
		c0.521-0.213,0.691-0.08,0.771,0.405c0.037,0.227,0.095,0.45,0.146,0.675c0.36,1.553,0.619,1.396-1.106,1.913
		c-1.827,0.549-3.712,0.664-5.593,0.23c-1.61-0.371-2.901-1.258-3.81-2.637c-1.984-3.013-1.369-7.932,1.258-10.396
		c2.391-2.244,7.624-2.425,9.476,1.541c0.674,1.441,0.919,2.96,0.738,4.554c-0.057,0.507-0.229,0.697-0.758,0.682
		C102.631,15.654,101.305,15.678,99.979,15.678z M98.477,13.001c0.816,0,1.633-0.013,2.449,0.006
		c0.401,0.009,0.59-0.137,0.486-0.539c-0.208-0.804-0.505-1.55-1.26-2.023c-1.766-1.108-4.295,0.102-4.603,2.194
		c-0.06,0.405,0.191,0.354,0.401,0.356C96.793,13.006,97.635,13,98.477,13.001z"/>
	<path fill-rule="evenodd" clip-rule="evenodd" fill="#FFFFFF" d="M141.116,8.598c1.233-0.827,2.393-1.292,3.725-1.256
		c2.618,0.07,4.533,1.743,4.972,4.339c0.167,0.993,0.176,1.986,0.174,2.985c-0.003,2.177-0.016,4.354,0.01,6.531
		c0.007,0.557-0.143,0.798-0.73,0.762c-0.661-0.04-1.328-0.032-1.99,0.003c-0.546,0.029-0.692-0.195-0.688-0.718
		c0.021-2.433,0.012-4.866,0.005-7.3c-0.002-0.562-0.032-1.117-0.164-1.674c-0.57-2.4-3.157-2.36-4.338-1.19
		c-0.639,0.633-1.011,1.387-1.005,2.323c0.018,2.562-0.018,5.123,0.025,7.684c0.012,0.723-0.215,0.941-0.908,0.877
		c-0.633-0.058-1.275-0.027-1.914-0.008c-0.432,0.014-0.581-0.166-0.581-0.592c0.009-4.38,0.01-8.76-0.003-13.14
		c-0.001-0.458,0.204-0.569,0.606-0.56c0.638,0.016,1.279,0.044,1.913-0.01C140.846,7.602,141.218,7.75,141.116,8.598z"/>
	<path fill-rule="evenodd" clip-rule="evenodd" fill="#FFFFFF" d="M110.687,16.182c0-1.614-0.024-3.228,0.012-4.841
		c0.015-0.645-0.138-0.927-0.847-0.894c-1.081,0.052-1.083,0.007-1.086-1.049c0-0.128,0-0.256,0-0.384
		c-0.002-1.284-0.002-1.305,1.253-1.337c0.505-0.013,0.648-0.222,0.679-0.694c0.067-1.047,0.197-2.083,0.651-3.058
		c1.235-2.651,4.302-3.375,6.806-2.408c0.301,0.116,0.362,0.309,0.307,0.604c-0.121,0.654-0.234,1.31-0.331,1.967
		c-0.046,0.308-0.188,0.399-0.47,0.29c-0.048-0.019-0.095-0.04-0.144-0.056c-2.271-0.766-3.709,0.403-3.497,2.82
		c0.035,0.399,0.203,0.534,0.576,0.528c0.689-0.011,1.38,0.02,2.067-0.012c0.425-0.02,0.57,0.104,0.587,0.551
		c0.082,2.259,0.095,2.254-2.11,2.259c-1.213,0.003-1.108-0.158-1.11,1.104c-0.005,3.202-0.013,6.404,0.008,9.606
		c0.004,0.57-0.113,0.847-0.757,0.788c-0.658-0.06-1.327-0.036-1.989-0.008c-0.472,0.021-0.62-0.166-0.615-0.627
		c0.019-1.716,0.008-3.432,0.008-5.148C110.685,16.182,110.686,16.182,110.687,16.182z"/>
	<path fill-rule="evenodd" clip-rule="evenodd" fill="#FFFFFF" d="M32.471,22.177c-1.46,0.001-2.67-0.254-3.821-0.797
		c-0.426-0.201-0.648-0.418-0.41-0.943c0.23-0.508,0.369-1.062,0.507-1.606c0.12-0.472,0.292-0.569,0.736-0.298
		c0.995,0.605,2.068,0.99,3.26,0.909c1.08-0.074,1.759-0.672,1.761-1.545c0.001-0.749-0.476-1.17-1.067-1.46
		c-0.685-0.336-1.424-0.563-2.102-0.913c-1.595-0.824-2.836-1.91-2.786-3.937c0.047-1.914,1.332-3.54,3.364-4.038
		c1.713-0.419,3.386-0.232,4.987,0.559c0.442,0.218,0.529,0.475,0.355,0.914c-0.197,0.498-0.356,1.012-0.516,1.523
		c-0.141,0.45-0.335,0.547-0.775,0.279c-0.96-0.586-1.993-0.893-3.134-0.587c-0.581,0.155-0.952,0.506-1.007,1.109
		c-0.052,0.572,0.243,0.993,0.743,1.232c0.712,0.34,1.448,0.629,2.164,0.963c1.541,0.721,2.775,1.687,3.028,3.548
		c0.313,2.301-1.122,4.389-3.436,4.87C33.652,22.098,32.978,22.271,32.471,22.177z"/>
	<path fill-rule="evenodd" clip-rule="evenodd" fill="#FFFFFF" d="M83.297,22.175c-4.156-0.003-7.059-3.269-6.688-7.928
		c0.361-4.517,3.979-7.41,8.512-6.829c0.841,0.108,1.66,0.265,2.446,0.583c0.372,0.15,0.579,0.354,0.401,0.818
		c-0.21,0.547-0.366,1.118-0.5,1.689c-0.113,0.486-0.289,0.559-0.741,0.319c-1.174-0.624-2.433-0.712-3.715-0.416
		c-1.384,0.321-2.325,1.194-2.709,2.541c-0.518,1.818-0.54,3.65,0.855,5.12c1.505,1.585,3.37,1.438,5.262,0.802
		c0.169-0.057,0.343-0.112,0.495-0.202c0.383-0.228,0.545-0.083,0.622,0.313c0.108,0.551,0.207,1.109,0.379,1.642
		c0.175,0.539-0.087,0.737-0.519,0.899C86.19,21.979,84.944,22.193,83.297,22.175z"/>
</g>
</svg>
