<?xml version="1.0" encoding="utf-8"?>
<!-- Generator: Adobe Illustrator 16.0.0, SVG Export Plug-In . SVG Version: 6.00 Build 0)  -->
<!DOCTYPE svg PUBLIC "-//W3C//DTD SVG 1.1//EN" "http://www.w3.org/Graphics/SVG/1.1/DTD/svg11.dtd">
<svg version="1.1" id="Layer_1" xmlns="http://www.w3.org/2000/svg" xmlns:xlink="http://www.w3.org/1999/xlink" x="0px" y="0px"
	 width="160px" height="35px" viewBox="0 0 160 35" enable-background="new 0 0 160 35" xml:space="preserve">
<path fill-rule="evenodd" clip-rule="evenodd" fill="#FFFFFF" d="M20.024,0.333l17.894,10.331l-10.534,6.083l-7.36-4.25l-7.36,4.25
	L2.13,10.664L20.024,0.333z M20.024,35l19.488-11.252V11.584L20.024,22.836L0.536,11.584v12.164l7.026,4.059V19.74l6.005,3.467
	L9.769,25.4v8.064l3.799-2.193L20.024,35z"/>
<path fill="#FFFFFF" d="M58.717,31.063V12.563h2.881v2.052c0.335-0.792,0.874-1.409,1.613-1.843
	c0.738-0.431,1.622-0.647,2.646-0.647c1.671,0,3.025,0.615,4.067,1.852c1.037,1.232,1.559,2.854,1.559,4.861
	c0,2.115-0.513,3.781-1.531,4.996c-1.024,1.219-2.424,1.826-4.199,1.826c-0.889,0-1.672-0.178-2.356-0.531
	c-0.684-0.352-1.287-0.893-1.798-1.617v7.551H58.717z M61.503,18.811c0,1.305,0.326,2.342,0.979,3.121
	c0.648,0.779,1.504,1.168,2.564,1.168c1.092,0,1.934-0.361,2.527-1.088c0.598-0.729,0.897-1.758,0.897-3.092
	c0-1.328-0.313-2.365-0.933-3.113c-0.625-0.747-1.481-1.124-2.569-1.124c-1.087,0-1.938,0.363-2.546,1.088
	C61.811,16.5,61.503,17.51,61.503,18.811 M82.65,18.811c0-1.3-0.303-2.31-0.91-3.039c-0.607-0.726-1.455-1.088-2.541-1.088
	c-1.088,0-1.943,0.377-2.568,1.124c-0.621,0.748-0.934,1.786-0.934,3.113c0,1.334,0.3,2.363,0.9,3.092
	c0.604,0.727,1.45,1.088,2.547,1.088c1.037,0,1.878-0.393,2.527-1.182C82.324,21.129,82.65,20.098,82.65,18.811 M85.451,25.143
	H82.57v-1.631c-0.512,0.725-1.115,1.266-1.798,1.617c-0.686,0.354-1.469,0.531-2.356,0.531c-1.776,0-3.175-0.607-4.198-1.826
	c-1.021-1.215-1.532-2.881-1.532-4.996c0-2.007,0.521-3.629,1.567-4.861c1.041-1.236,2.405-1.852,4.086-1.852
	c1.023,0,1.902,0.212,2.633,0.643c0.728,0.43,1.263,1.046,1.599,1.848v-2.052h2.881V25.143z M97.906,16.146
	c-0.445-0.485-0.955-0.855-1.545-1.114c-0.588-0.258-1.223-0.385-1.908-0.385c-1.172,0-2.115,0.381-2.824,1.141
	c-0.709,0.762-1.061,1.767-1.061,3.026c0,1.309,0.355,2.338,1.068,3.086c0.711,0.746,1.693,1.117,2.953,1.117
	c0.697,0,1.322-0.131,1.871-0.393c0.549-0.26,1.029-0.658,1.445-1.188v3.32c-0.531,0.299-1.102,0.525-1.703,0.676
	c-0.607,0.148-1.252,0.227-1.934,0.227c-1.973,0-3.58-0.631-4.82-1.885c-1.246-1.256-1.867-2.887-1.867-4.885
	c0-2.023,0.643-3.659,1.93-4.9c1.285-1.246,2.971-1.865,5.051-1.865c0.652,0,1.256,0.063,1.803,0.194
	c0.549,0.126,1.066,0.322,1.541,0.588V16.146z M109.066,17.338c-0.113-0.902-0.463-1.59-1.039-2.062
	c-0.574-0.476-1.357-0.711-2.359-0.711c-0.947,0-1.709,0.231-2.283,0.688c-0.574,0.462-0.979,1.155-1.209,2.084H109.066z
	 M112.051,19.277h-10.063c0.074,1.178,0.422,2.092,1.053,2.754c0.625,0.656,1.463,0.986,2.508,0.986c0.93,0,1.705-0.193,2.32-0.584
	c0.621-0.389,1.16-1.02,1.621-1.885l2.43,1.355c-0.707,1.264-1.586,2.207-2.629,2.826c-1.045,0.621-2.268,0.93-3.678,0.93
	c-2.016,0-3.625-0.615-4.814-1.844c-1.197-1.232-1.795-2.873-1.795-4.926c0-1.974,0.617-3.59,1.854-4.863
	c1.232-1.27,2.818-1.902,4.756-1.902c2.025,0,3.607,0.579,4.738,1.739c1.133,1.16,1.699,2.781,1.699,4.869V19.277z M46.619,22.859
	l2.387-1.301c0.177,0.631,0.503,1.105,0.984,1.438c0.48,0.326,1.092,0.49,1.848,0.49c0.644,0,1.151-0.15,1.518-0.445
	c0.367-0.299,0.552-0.701,0.552-1.215c0-0.684-0.652-1.268-1.961-1.752c-0.444-0.158-0.784-0.289-1.024-0.398
	c-1.345-0.557-2.288-1.125-2.822-1.699c-0.535-0.576-0.802-1.272-0.802-2.098c0-1.124,0.439-2.033,1.323-2.736
	c0.878-0.697,2.043-1.045,3.492-1.045c0.974,0,1.808,0.181,2.505,0.539c0.693,0.357,1.201,0.865,1.518,1.531l-2.043,1.409
	c-0.15-0.398-0.412-0.715-0.788-0.951c-0.376-0.235-0.811-0.354-1.31-0.354c-0.548,0-0.988,0.131-1.318,0.394
	c-0.331,0.258-0.499,0.607-0.499,1.042c0,0.652,0.743,1.25,2.229,1.794c0.471,0.167,0.834,0.304,1.088,0.412
	c1.16,0.458,1.988,0.977,2.486,1.559c0.503,0.578,0.751,1.299,0.751,2.17c0,1.254-0.458,2.236-1.367,2.947
	c-0.911,0.711-2.166,1.07-3.77,1.07c-1.232,0-2.251-0.232-3.066-0.689C47.716,24.51,47.082,23.807,46.619,22.859"/>
<path fill="#FFFFFF" d="M133.412,25.143V12.564h2.709v2.055c0.574-0.869,1.25-1.499,2.029-1.898c0.779-0.398,1.727-0.597,2.84-0.597
	c0.938,0,1.736,0.148,2.396,0.443c0.656,0.299,1.174,0.739,1.545,1.322c0.223,0.345,0.381,0.748,0.48,1.205
	c0.094,0.462,0.145,1.268,0.145,2.415v7.632h-2.908v-6.465c0-1.652-0.199-2.752-0.602-3.297c-0.404-0.543-1.119-0.815-2.143-0.815
	c-0.676,0-1.273,0.122-1.799,0.372c-0.525,0.249-0.941,0.598-1.242,1.046c-0.213,0.304-0.361,0.689-0.443,1.164
	c-0.086,0.473-0.127,1.228-0.127,2.261v5.734H133.412z M157.424,4.573h2.881v20.57h-2.881v-1.631
	c-0.514,0.725-1.115,1.266-1.799,1.619c-0.684,0.352-1.467,0.529-2.355,0.529c-1.777,0-3.176-0.607-4.199-1.826
	c-1.02-1.213-1.531-2.881-1.531-4.996c0-2.006,0.521-3.628,1.568-4.861c1.041-1.236,2.404-1.852,4.086-1.852
	c1.021,0,1.9,0.212,2.631,0.643c0.729,0.43,1.264,1.046,1.6,1.848V4.573z M157.506,18.811c0-1.3-0.305-2.311-0.912-3.04
	c-0.607-0.725-1.455-1.087-2.541-1.087c-1.088,0-1.943,0.376-2.568,1.123c-0.621,0.748-0.934,1.785-0.934,3.113
	c0,1.336,0.299,2.363,0.902,3.092c0.602,0.727,1.449,1.088,2.545,1.088c1.047,0,1.889-0.389,2.537-1.172
	C157.178,21.143,157.506,20.105,157.506,18.811 M125.906,20.748l3.748-8.184h3.117l-9.078,18.498h-2.957l3.451-7.006l-3.607-8.97
	h-3.172v10.056h-2.883V15.087h-2.201v-2.522h2.201V9.188c0-1.671,0.35-2.903,1.043-3.7c0.693-0.798,1.771-1.196,3.229-1.196
	c0.314,0,0.631,0.022,0.957,0.067c0.33,0.041,0.662,0.113,0.996,0.213v2.6c-0.23-0.131-0.461-0.23-0.695-0.299
	c-0.232-0.068-0.473-0.099-0.709-0.099c-0.691,0-1.186,0.212-1.484,0.638c-0.303,0.422-0.453,1.142-0.453,2.153v2.999h5.342
	L125.906,20.748z"/>
</svg>
