<?xml version="1.0" encoding="utf-8"?>
<!-- Generator: Adobe Illustrator 16.0.0, SVG Export Plug-In . SVG Version: 6.00 Build 0)  -->
<!DOCTYPE svg PUBLIC "-//W3C//DTD SVG 1.1//EN" "http://www.w3.org/Graphics/SVG/1.1/DTD/svg11.dtd">
<svg version="1.1" id="Layer_1" xmlns="http://www.w3.org/2000/svg" xmlns:xlink="http://www.w3.org/1999/xlink" x="0px" y="0px"
	 width="85px" height="55px" viewBox="0 0 85 55" enable-background="new 0 0 85 55" xml:space="preserve">
<path fill="#0090D2" stroke="#FFFFFF" stroke-width="0.1" stroke-miterlimit="10" d="M29.978,24.907V16.78l-0.969-0.081
	c-1.386-0.065-3.389-1.864-3.32-3.777c-0.068-1.913,1.937-3.713,3.319-3.785l0.97-0.082v-8.12L29.443,0.63
	c-0.887-0.445-1.933-0.518-2.637-0.549c0,0-0.004-0.008-0.038-0.008v0.008c-0.032,0-0.087-0.008-0.155,0
	c-2.107,0.121-3.789,1.768-5.037,3.995c-1.272,2.316-2.098,5.416-2.102,8.846c0.004,3.422,0.83,6.521,2.102,8.838
	c1.278,2.284,3.009,3.954,5.187,4.002c0.698-0.032,1.771-0.096,2.679-0.548L29.978,24.907z M27.855,23.511
	c-0.409,0.074-0.929,0.146-1.093,0.13c-0.87,0.04-2.253-0.92-3.328-2.906c-1.075-1.945-1.841-4.738-1.836-7.813
	c-0.004-3.083,0.761-5.876,1.836-7.821c1.063-1.953,2.424-2.922,3.295-2.906c0,0,0.012,0.009,0.028,0.009h0.002h0.171
	c0.234,0.008,0.612,0.064,0.925,0.129v4.899c-2.235,0.687-4.229,2.874-4.29,5.69c0.061,2.816,2.054,4.996,4.29,5.69V23.511z
	 M45.902,22.761c5.488,0,9.955-4.464,9.955-9.953c0-5.488-4.467-9.959-9.955-9.959c-5.49,0-9.956,4.471-9.956,9.959
	C35.947,18.297,40.412,22.761,45.902,22.761z M45.902,4.972c4.322,0,7.832,3.511,7.832,7.837c0,4.326-3.51,7.829-7.832,7.829
	c-4.32,0-7.833-3.502-7.833-7.829C38.069,8.483,41.582,4.972,45.902,4.972z M50.95,25.399H40.854
	c-7.119,0-12.885,5.772-12.885,12.89v16.82h35.862v-16.82C63.831,31.171,58.062,25.399,50.95,25.399z M61.707,52.984h-5.01
	l0.001-15.276h-2.122v15.286H37.022V37.708h-2.121l-0.002,15.276H30.09V38.289c0.01-5.948,4.816-10.751,10.763-10.766H50.95
	c5.938,0.015,10.748,4.818,10.757,10.766V52.984z"/>
</svg>
