<?xml version="1.0" encoding="utf-8"?>
<!-- Generator: Adobe Illustrator 16.0.0, SVG Export Plug-In . SVG Version: 6.00 Build 0)  -->
<!DOCTYPE svg PUBLIC "-//W3C//DTD SVG 1.1//EN" "http://www.w3.org/Graphics/SVG/1.1/DTD/svg11.dtd">
<svg version="1.1" id="Layer_1" xmlns="http://www.w3.org/2000/svg" xmlns:xlink="http://www.w3.org/1999/xlink" x="0px" y="0px"
	 width="85px" height="55px" viewBox="0 0 85 55" enable-background="new 0 0 85 55" xml:space="preserve">
<g>
	<g>
		<path fill="#1090CF" stroke="#FFFFFF" stroke-width="0.2" stroke-miterlimit="10" d="M15.193,21.476
			C15.199,9.614,24.804,0.009,36.666,0.009l0,0c11.853,0,21.474,9.605,21.474,21.467l0,0c0,11.861-9.621,21.473-21.474,21.473l0,0
			C24.804,42.948,15.199,33.337,15.193,21.476L15.193,21.476z M18.065,21.476c0.022,10.267,8.329,18.579,18.6,18.6l0,0
			c10.27-0.021,18.581-8.333,18.592-18.6l0,0c-0.012-10.277-8.322-18.578-18.592-18.6l0,0C26.394,2.898,18.088,11.198,18.065,21.476
			L18.065,21.476L18.065,21.476z"/>
	</g>
	<g>
		<polygon fill="#1090CF" stroke="#FFFFFF" stroke-width="0.2" stroke-miterlimit="10" points="50.632,37.849 52.664,35.816 
			69.832,52.996 67.802,55.027 50.632,37.849 		"/>
	</g>
</g>
<path fill="#1090CF" d="M29.119,9.729v0.525v22.902h9.395v-2.741h1.957v2.741h3.743V9.729H29.119z M43.163,32.118h-1.648v-2.751
	h-4.048v2.751h-7.299V10.777h12.996V32.118z M35.866,21.645v-3.522h-4.048v4.046h4.048V21.645z M34.821,21.121h-1.957v-1.956h1.957
	V21.121z M37.467,22.169h4.048v-0.524v-3.522h-4.048V22.169z M38.513,19.166h1.957v1.956h-1.957V19.166z M35.866,15.632v-3.527
	h-4.048v4.052h4.048V15.632z M34.821,15.108h-1.961v-1.956h1.961V15.108z M41.515,15.632v-3.527h-4.048v4.052h4.048V15.632z
	 M40.47,15.108h-1.957v-1.956h1.957V15.108z M35.866,27.663v-3.528h-4.048v4.052h4.048V27.663z M34.821,27.138h-1.957v-1.954h1.957
	V27.138z M41.515,27.663v-3.528h-4.048v4.052h4.048V27.663z M40.47,27.138h-1.957v-1.954h1.957V27.138z"/>
</svg>
