<?xml version="1.0" encoding="utf-8"?>
<!-- Generator: Adobe Illustrator 16.0.0, SVG Export Plug-In . SVG Version: 6.00 Build 0)  -->
<!DOCTYPE svg PUBLIC "-//W3C//DTD SVG 1.1//EN" "http://www.w3.org/Graphics/SVG/1.1/DTD/svg11.dtd">
<svg version="1.1" id="Layer_1" xmlns="http://www.w3.org/2000/svg" xmlns:xlink="http://www.w3.org/1999/xlink" x="0px" y="0px"
	 width="13px" height="9px" viewBox="0 0 13 9" enable-background="new 0 0 13 9" xml:space="preserve">
<path fill="#666666" d="M12.554,4.111c-0.131-0.131-0.285-0.238-0.459-0.316c0.021-0.09,0.033-0.182,0.035-0.275
	c0.006-0.331-0.117-0.645-0.348-0.879c-0.225-0.229-0.523-0.354-0.842-0.354c-0.658,0-1.201,0.547-1.211,1.219
	c-0.002,0.081,0.006,0.162,0.02,0.241c-0.16,0.037-0.336,0.084-0.527,0.14C9.085,3.596,8.915,3.234,8.739,2.839
	C8.735,2.83,8.731,2.822,8.728,2.814c-0.211-0.41-0.4-0.664-0.619-0.821c0.016-0.071,0.018-0.147-0.002-0.22L7.915,0.973
	c-0.121-0.584-0.586-0.99-1.133-0.99c-0.543,0-1.014,0.404-1.15,0.986l-0.215,0.79C5.395,1.837,5.395,1.918,5.413,1.994
	c-0.254,0.154-0.48,0.404-0.66,0.816c-0.033,0.08-0.07,0.16-0.105,0.24C4.61,2.969,4.573,2.887,4.536,2.805
	C4.268,2.204,3.94,1.946,3.558,1.837c0.079-0.167,0.127-0.353,0.13-0.548c0.006-0.354-0.125-0.686-0.369-0.934
	C3.082,0.114,2.768-0.018,2.433-0.018c-0.696,0-1.271,0.578-1.282,1.291C1.146,1.479,1.19,1.678,1.276,1.857
	C0.603,2.097,0.108,2.75,0.095,3.519L0.067,5.241c-0.004,0.224,0.079,0.433,0.234,0.59C0.453,5.985,0.655,6.07,0.87,6.07
	c0.009,0,0.018,0,0.025-0.001L0.863,8.099C0.858,8.357,0.949,8.596,1.119,8.77c0.157,0.16,0.37,0.248,0.599,0.248
	c0.203,0,0.389-0.066,0.538-0.182C2.41,8.954,2.597,9.018,2.794,9.018c0.5,0,0.896-0.41,0.902-0.934l0.035-2.105L3.747,5.02
	l0.084,0.152c0.004,0.005,0.008,0.011,0.012,0.017C4.094,5.599,4.42,5.66,4.594,5.66c0.016,0,0.029,0,0.043-0.002
	C4.649,5.66,4.663,5.66,4.678,5.66c0.023,0,0.049-0.002,0.078-0.004L4.704,5.834C4.661,5.979,4.688,6.136,4.778,6.257
	C4.87,6.378,5.01,6.449,5.163,6.449H5.43L5.35,8.082c0,0.006,0,0.01-0.002,0.016C5.344,8.355,5.44,8.604,5.61,8.775
	c0.152,0.156,0.357,0.242,0.572,0.242c0.188,0,0.361-0.063,0.5-0.174c0.143,0.113,0.317,0.174,0.499,0.174
	c0.463,0,0.807-0.379,0.818-0.901V8.099L7.972,6.449h0.283c0.148,0,0.289-0.068,0.379-0.187c0.092-0.118,0.123-0.271,0.084-0.415
	L8.659,5.621c0.033,0.004,0.068,0.006,0.104,0.006c0.068,0,0.125-0.009,0.199-0.025C8.97,5.6,8.978,5.598,8.983,5.597l0.645-0.171
	L9.614,6.223L9.581,8.229C9.579,8.438,9.655,8.634,9.8,8.781c0.152,0.152,0.361,0.236,0.59,0.236c0.17,0,0.328-0.045,0.461-0.125
	c0.131,0.082,0.285,0.125,0.449,0.125c0.471,0,0.844-0.348,0.852-0.794l0.02-1.273c0.408-0.015,0.738-0.329,0.742-0.714l0.02-1.204
	C12.938,4.692,12.804,4.365,12.554,4.111z M6.096,1.086c0.08-0.358,0.359-0.625,0.686-0.625c0.327,0,0.594,0.262,0.665,0.615
	l0.195,0.809h-0.41C7.104,2.019,6.938,2.101,6.754,2.101c-0.18,0-0.344-0.082-0.465-0.216H5.877L6.096,1.086z M2.433,0.461
	c0.436,0,0.784,0.367,0.776,0.82C3.201,1.733,2.842,2.101,2.405,2.101S1.621,1.733,1.629,1.281C1.637,0.828,1.996,0.461,2.433,0.461
	z M12.435,6.23C12.433,6.363,12.3,6.473,12.14,6.473c-0.158,0-0.287-0.109-0.285-0.24l0.021-1.252h-0.152l-0.02,1.25l-0.033,1.986
	c-0.002,0.188-0.168,0.322-0.371,0.322c-0.201,0-0.33-0.135-0.328-0.303l0.027-1.715h-0.211l-0.027,1.695
	c-0.002,0.188-0.17,0.322-0.371,0.322c-0.203,0-0.332-0.135-0.328-0.303l0.031-2.006L10.118,4.8L8.86,5.133
	C8.8,5.146,8.78,5.148,8.763,5.148c-0.16,0-0.313-0.119-0.391-0.336L7.761,3.465H7.595l0.66,2.506h-0.77l0.033,2.136
	C7.515,8.346,7.388,8.539,7.181,8.539s-0.36-0.193-0.356-0.434l0.107-2.135H6.518l0.033,2.136c-0.004,0.239-0.16,0.433-0.369,0.433
	c-0.207,0-0.357-0.193-0.354-0.434l0.105-2.135H5.163l0.742-2.506H5.7L4.997,4.936C4.895,5.11,4.786,5.182,4.678,5.182
	c-0.014,0-0.027-0.002-0.039-0.004C4.624,5.18,4.608,5.182,4.594,5.182c-0.119,0-0.238-0.071-0.344-0.244L3.427,3.465H3.292
	L3.253,5.971L3.217,8.078C3.214,8.346,3.024,8.539,2.794,8.539S2.379,8.346,2.383,8.106l0.04-2.428H2.181L2.142,8.078
	C2.139,8.346,1.948,8.539,1.718,8.539S1.337,8.346,1.342,8.106l0.035-2.136l0.04-2.506H1.233L1.204,5.24
	C1.203,5.438,1.052,5.591,0.87,5.591S0.543,5.438,0.546,5.249l0.028-1.722c0.011-0.621,0.442-1.141,1.008-1.263
	C1.811,2.468,2.099,2.58,2.405,2.58c0.317,0,0.609-0.122,0.834-0.32C3.632,2.312,3.866,2.48,4.098,3
	c0.191,0.43,0.4,0.863,0.557,1.186C4.803,3.863,5.006,3.43,5.192,3c0.156-0.356,0.344-0.548,0.572-0.65
	c0.037,0.01,0.074,0.014,0.113,0.014h0.23C6.297,2.504,6.522,2.58,6.754,2.58c0.237,0,0.461-0.076,0.655-0.217h0.232
	c0.045,0,0.086-0.008,0.129-0.019c0.184,0.103,0.332,0.302,0.531,0.688C8.569,3.639,8.829,4.17,8.966,4.469
	c0.465-0.151,1.139-0.348,1.512-0.348c-0.158-0.137-0.273-0.357-0.27-0.607c0.006-0.413,0.334-0.748,0.732-0.748
	c0.4,0,0.719,0.335,0.711,0.748c-0.004,0.25-0.127,0.471-0.313,0.607h0.039c0.604,0,1.084,0.404,1.076,0.903L12.435,6.23z"/>
</svg>
